<?xml version="1.0" encoding="UTF-8" standalone="no"?>
<!-- Created with Inkscape (http://www.inkscape.org/) -->

<svg
   xmlns:dc="http://purl.org/dc/elements/1.1/"
   xmlns:cc="http://creativecommons.org/ns#"
   xmlns:rdf="http://www.w3.org/1999/02/22-rdf-syntax-ns#"
   xmlns:svg="http://www.w3.org/2000/svg"
   xmlns="http://www.w3.org/2000/svg"
   xmlns:sodipodi="http://sodipodi.sourceforge.net/DTD/sodipodi-0.dtd"
   xmlns:inkscape="http://www.inkscape.org/namespaces/inkscape"
   width="325.98425"
   height="248.03149"
   id="svg2"
   version="1.1"
   inkscape:version="0.48.0 r9654"
   sodipodi:docname="all_space.pdf"
   enable-background="new">
  <sodipodi:namedview
     id="base"
     pagecolor="#ffffff"
     bordercolor="#666666"
     borderopacity="1.0"
     inkscape:pageopacity="0.0"
     inkscape:pageshadow="2"
     inkscape:zoom="2"
     inkscape:cx="118.57815"
     inkscape:cy="108.94934"
     inkscape:document-units="cm"
     inkscape:current-layer="layer3"
     showgrid="true"
     inkscape:window-width="800"
     inkscape:window-height="578"
     inkscape:window-x="-4"
     inkscape:window-y="-4"
     inkscape:window-maximized="1"
     units="cm"
     width="9.2cm"
     showguides="true"
     inkscape:guide-bbox="true"
     inkscape:showpageshadow="false"
     objecttolerance="4"
     gridtolerance="4">
    <inkscape:grid
       type="xygrid"
       id="grid3254"
       empspacing="5"
       visible="true"
       enabled="true"
       snapvisiblegridlinesonly="true" />
  </sodipodi:namedview>
  <defs
     id="defs4"><marker
   inkscape:stockid="Arrow1Send"
   orient="auto"
   refY="0.0"
   refX="0.0"
   id="Arrow1Send"
   style="overflow:visible;">
  <path
     id="path3997"
     d="M 0.0,0.0 L 5.0,-5.0 L -12.5,0.0 L 5.0,5.0 L 0.0,0.0 z "
     style="fill-rule:evenodd;stroke:#000000;stroke-width:1.0pt;marker-start:none;"
     transform="scale(0.2) rotate(180) translate(6,0)" />
</marker>
<marker
   inkscape:stockid="Arrow1Sstart"
   orient="auto"
   refY="0.0"
   refX="0.0"
   id="Arrow1Sstart"
   style="overflow:visible">
  <path
     id="path3994"
     d="M 0.0,0.0 L 5.0,-5.0 L -12.5,0.0 L 5.0,5.0 L 0.0,0.0 z "
     style="fill-rule:evenodd;stroke:#000000;stroke-width:1.0pt;marker-start:none"
     transform="scale(0.2) translate(6,0)" />
</marker>
<marker
   inkscape:stockid="Arrow1Mend"
   orient="auto"
   refY="0.0"
   refX="0.0"
   id="Arrow1Mend"
   style="overflow:visible;">
  <path
     id="path3991"
     d="M 0.0,0.0 L 5.0,-5.0 L -12.5,0.0 L 5.0,5.0 L 0.0,0.0 z "
     style="fill-rule:evenodd;stroke:#000000;stroke-width:1.0pt;marker-start:none;"
     transform="scale(0.4) rotate(180) translate(10,0)" />
</marker>
<marker
   inkscape:stockid="Arrow1Mstart"
   orient="auto"
   refY="0.0"
   refX="0.0"
   id="Arrow1Mstart"
   style="overflow:visible">
  <path
     id="path3988"
     d="M 0.0,0.0 L 5.0,-5.0 L -12.5,0.0 L 5.0,5.0 L 0.0,0.0 z "
     style="fill-rule:evenodd;stroke:#000000;stroke-width:1.0pt;marker-start:none"
     transform="scale(0.4) translate(10,0)" />
</marker>
<marker
   inkscape:stockid="Arrow2Lend"
   orient="auto"
   refY="0.0"
   refX="0.0"
   id="Arrow2Lend"
   style="overflow:visible;">
  <path
     id="path4003"
     style="font-size:12.0;fill-rule:evenodd;stroke-width:0.62500000;stroke-linejoin:round;"
     d="M 8.7185878,4.0337352 L -2.2072895,0.016013256 L 8.7185884,-4.0017078 C 6.9730900,-1.6296469 6.9831476,1.6157441 8.7185878,4.0337352 z "
     transform="scale(1.1) rotate(180) translate(1,0)" />
</marker>
<marker
   inkscape:stockid="Arrow2Lstart"
   orient="auto"
   refY="0.0"
   refX="0.0"
   id="Arrow2Lstart"
   style="overflow:visible">
  <path
     id="path4000"
     style="font-size:12.0;fill-rule:evenodd;stroke-width:0.62500000;stroke-linejoin:round"
     d="M 8.7185878,4.0337352 L -2.2072895,0.016013256 L 8.7185884,-4.0017078 C 6.9730900,-1.6296469 6.9831476,1.6157441 8.7185878,4.0337352 z "
     transform="scale(1.1) translate(1,0)" />
</marker>
<marker
   style="overflow:visible"
   id="Arrow1Lend"
   refX="0"
   refY="0"
   orient="auto"
   inkscape:stockid="Arrow1Lend">
  <path
     transform="matrix(-0.8,0,0,-0.8,-10,0)"
     style="fill-rule:evenodd;stroke:#000000;stroke-width:1pt;marker-start:none"
     d="M 0,0 5,-5 -12.5,0 5,5 0,0 z"
     id="path4440"
     inkscape:connector-curvature="0" />
</marker>
<marker
   style="overflow:visible"
   id="Arrow1Lstart"
   refX="0"
   refY="0"
   orient="auto"
   inkscape:stockid="Arrow1Lstart">
  <path
     transform="matrix(0.8,0,0,0.8,10,0)"
     style="fill-rule:evenodd;stroke:#000000;stroke-width:1pt;marker-start:none"
     d="M 0,0 5,-5 -12.5,0 5,5 0,0 z"
     id="path4437"
     inkscape:connector-curvature="0" />
</marker>
<marker
   inkscape:stockid="Arrow2Lstart"
   orient="auto"
   refY="0"
   refX="0"
   id="Arrow2Lstart-4"
   style="overflow:visible">
  <path
     inkscape:connector-curvature="0"
     id="path4000-4"
     style="font-size:12px;fill-rule:evenodd;stroke-width:0.625;stroke-linejoin:round"
     d="M 8.7185878,4.0337352 -2.2072895,0.01601326 8.7185884,-4.0017078 c -1.7454984,2.3720609 -1.7354408,5.6174519 -6e-7,8.035443 z"
     transform="matrix(1.1,0,0,1.1,1.1,0)" />
</marker>
<marker
   inkscape:stockid="Arrow2Lend"
   orient="auto"
   refY="0"
   refX="0"
   id="Arrow2Lend-3"
   style="overflow:visible">
  <path
     inkscape:connector-curvature="0"
     id="path4003-0"
     style="font-size:12px;fill-rule:evenodd;stroke-width:0.625;stroke-linejoin:round"
     d="M 8.7185878,4.0337352 -2.2072895,0.01601326 8.7185884,-4.0017078 c -1.7454984,2.3720609 -1.7354408,5.6174519 -6e-7,8.035443 z"
     transform="matrix(-1.1,0,0,-1.1,-1.1,0)" />
</marker>
<marker
   inkscape:stockid="Arrow2Lend"
   orient="auto"
   refY="0"
   refX="0"
   id="marker7119"
   style="overflow:visible">
  <path
     inkscape:connector-curvature="0"
     id="path7121"
     style="font-size:12px;fill-rule:evenodd;stroke-width:0.625;stroke-linejoin:round"
     d="M 8.7185878,4.0337352 -2.2072895,0.01601326 8.7185884,-4.0017078 c -1.7454984,2.3720609 -1.7354408,5.6174519 -6e-7,8.035443 z"
     transform="matrix(-1.1,0,0,-1.1,-1.1,0)" />
</marker>
<marker
   inkscape:stockid="Arrow1Mstart"
   orient="auto"
   refY="0"
   refX="0"
   id="Arrow1Mstart-3"
   style="overflow:visible">
  <path
     inkscape:connector-curvature="0"
     id="path3988-7"
     d="M 0,0 5,-5 -12.5,0 5,5 0,0 z"
     style="fill-rule:evenodd;stroke:#000000;stroke-width:1pt;marker-start:none"
     transform="matrix(0.4,0,0,0.4,4,0)" />
</marker>
<marker
   inkscape:stockid="Arrow1Mend"
   orient="auto"
   refY="0"
   refX="0"
   id="Arrow1Mend-5"
   style="overflow:visible">
  <path
     inkscape:connector-curvature="0"
     id="path3991-5"
     d="M 0,0 5,-5 -12.5,0 5,5 0,0 z"
     style="fill-rule:evenodd;stroke:#000000;stroke-width:1pt;marker-start:none"
     transform="matrix(-0.4,0,0,-0.4,-4,0)" />
</marker>
<marker
   inkscape:stockid="Arrow1Mend"
   orient="auto"
   refY="0"
   refX="0"
   id="Arrow1Mend-4"
   style="overflow:visible">
  <path
     inkscape:connector-curvature="0"
     id="path3991-2"
     d="M 0,0 5,-5 -12.5,0 5,5 0,0 z"
     style="fill-rule:evenodd;stroke:#000000;stroke-width:1pt;marker-start:none"
     transform="matrix(-0.4,0,0,-0.4,-4,0)" />
</marker>














</defs>
  <metadata
     id="metadata7">
    <rdf:RDF>
      <cc:Work
         rdf:about="">
        <dc:format>image/svg+xml</dc:format>
        <dc:type
           rdf:resource="http://purl.org/dc/dcmitype/StillImage" />
        <dc:title></dc:title>
      </cc:Work>
    </rdf:RDF>
  </metadata>
  <g
     inkscape:groupmode="layer"
     id="layer5"
     inkscape:label="Надписи"
     style="display:none" />
  <g
     inkscape:groupmode="layer"
     id="layer4"
     inkscape:label="Слой3"
     style="display:none" />
  <g
     inkscape:label="Слой2"
     id="layer2"
     inkscape:groupmode="layer"
     transform="translate(0,-804.32946)"
     style="display:none">
    <text
       sodipodi:linespacing="125%"
       id="text3997"
       y="849.18628"
       x="114.07245"
       style="font-size:12px;font-style:normal;font-variant:normal;font-weight:normal;font-stretch:normal;line-height:125%;letter-spacing:0px;word-spacing:0px;fill:#000000;fill-opacity:1;stroke:none;font-family:cmmi12;-inkscape-font-specification:cmmi12"
       xml:space="preserve"><tspan
         y="849.18628"
         x="114.07245"
         id="tspan3999"
         sodipodi:role="line" /></text>
    <text
       sodipodi:linespacing="125%"
       id="text4001"
       y="739.52142"
       x="257.33582"
       style="font-size:12px;font-style:normal;font-variant:normal;font-weight:normal;font-stretch:normal;line-height:125%;letter-spacing:0px;word-spacing:0px;fill:#000000;fill-opacity:1;stroke:none;font-family:cmmi12;-inkscape-font-specification:cmmi12"
       xml:space="preserve"><tspan
         y="739.52142"
         x="257.33582"
         id="tspan4003"
         sodipodi:role="line">  </tspan></text>
    <text
       sodipodi:linespacing="125%"
       id="text4009"
       y="837.7204"
       x="125.36874"
       style="font-size:12px;font-style:normal;font-variant:normal;font-weight:normal;font-stretch:normal;line-height:125%;letter-spacing:0px;word-spacing:0px;fill:#000000;fill-opacity:1;stroke:none;font-family:cmmi12;-inkscape-font-specification:cmmi12"
       xml:space="preserve"><tspan
         y="837.7204"
         x="125.36874"
         id="tspan4011"
         sodipodi:role="line" /></text>
  </g>
  <g
     inkscape:label="Слой1"
     id="layer3"
     inkscape:groupmode="layer"
     style="display:inline">
    <g
       transform="matrix(1.25,0,0,-1.25,0,1052.5)"
       inkscape:label="ink_ext_XXXXXX"
       id="g3521">
      <g
         transform="scale(0.1,0.1)"
         id="g3523" />
    </g>
    <g
       transform="matrix(1.25,0,0,-1.25,0,1052.5)"
       inkscape:label="ink_ext_XXXXXX"
       id="g3535">
      <g
         transform="scale(0.1,0.1)"
         id="g3537" />
    </g>
    <text
       xml:space="preserve"
       style="font-size:14.93999958px;font-style:normal;font-variant:normal;font-weight:normal;font-stretch:normal;line-height:125%;letter-spacing:0px;word-spacing:0px;fill:#000000;fill-opacity:1;stroke:none;font-family:cmmi12;-inkscape-font-specification:cmmi12"
       x="104"
       y="224.03149"
       id="text6249"
       sodipodi:linespacing="125%"><tspan
         sodipodi:role="line"
         id="tspan6251"
         x="104"
         y="224.03149" /></text>
    <path
       d="m 96.282523,37.915566 c -0.03854,0.03877 -0.07721,0.07741 -0.116,0.115929"
       sodipodi:t0="0.99900001"
       sodipodi:argument="-5.455018"
       sodipodi:radius="25.716852"
       sodipodi:revolution="1.01"
       sodipodi:expansion="0.64999998"
       sodipodi:cy="18.031494"
       sodipodi:cx="80"
       id="path3221"
       style="fill:none;stroke:#000000;stroke-width:1px;stroke-linecap:butt;stroke-linejoin:miter;stroke-opacity:1"
       sodipodi:type="spiral" />
    <path
       d="m 174.86591,64.646353 c -0.0699,0.08172 -0.14009,0.163214 -0.21053,0.244481"
       sodipodi:t0="0.99900001"
       sodipodi:argument="-5.5298104"
       sodipodi:radius="50.592552"
       sodipodi:revolution="1.01"
       sodipodi:expansion="0.64999998"
       sodipodi:cy="28.031494"
       sodipodi:cx="140"
       id="path3223"
       style="fill:none;stroke:#000000;stroke-width:1px;stroke-linecap:butt;stroke-linejoin:miter;stroke-opacity:1"
       sodipodi:type="spiral" />
    <path
       transform="matrix(1.3489363,0,0,1.2509836,-148.7238,8.0171946)"
       d="M 216.00484,51.128173 C 199.35431,51.850703 194.55197,27.567141 199.21163,15.99885 205.40221,0.62984426 223.65482,-6.5178737 238.7905,-0.11890909 254.4796,6.5140248 261.79591,25.260248 255.09637,40.846521 c -6.57781,15.30305 -24.53334,22.901172 -40.13591,17.184971"
       sodipodi:t0="0.018999999"
       sodipodi:argument="-4.4145894"
       sodipodi:radius="32.062439"
       sodipodi:revolution="1.01"
       sodipodi:expansion="0.059999999"
       sodipodi:cy="28.031494"
       sodipodi:cx="226.27417"
       id="path3227"
       style="fill:none;stroke:#000000;stroke-width:1px;stroke-linecap:butt;stroke-linejoin:miter;stroke-opacity:1"
       sodipodi:type="spiral" />
    <path
       transform="matrix(0.85114703,0,0,0.84981129,41.354503,14.723215)"
       d="m 320.00001,145.10077 a 47.216469,47.069283 0 1 1 -94.43294,0 47.216469,47.069283 0 1 1 94.43294,0 z"
       sodipodi:ry="47.069283"
       sodipodi:rx="47.216469"
       sodipodi:cy="145.10077"
       sodipodi:cx="272.78354"
       id="path3231"
       style="fill:#ffffff;fill-rule:evenodd;stroke:#000000;stroke-width:1px;stroke-linecap:butt;stroke-linejoin:miter;stroke-opacity:1"
       sodipodi:type="arc" />
    <path
       inkscape:connector-curvature="0"
       id="path3233"
       d="m 34.644661,98.031494 79.999999,0 0,49.999996"
       style="fill:none;stroke:#000000;stroke-width:1px;stroke-linecap:butt;stroke-linejoin:miter;stroke-opacity:1" />
    <path
       inkscape:connector-curvature="0"
       id="path3235"
       d="M 114.64466,148.03149 30.707107,171.46295"
       style="fill:none;stroke:#000000;stroke-width:1px;stroke-linecap:butt;stroke-linejoin:miter;stroke-opacity:1" />
    <path
       inkscape:connector-curvature="0"
       id="path3237"
       d="M 33.837049,97.528962 20,163.88935"
       style="fill:none;stroke:#000000;stroke-width:1px;stroke-linecap:butt;stroke-linejoin:miter;stroke-opacity:1" />
    <rect
       y="178.03149"
       x="120"
       height="60"
       width="94.253357"
       id="rect3239"
       style="fill:#ffffff;fill-rule:evenodd;stroke:#000000;stroke-width:1px;stroke-linecap:butt;stroke-linejoin:miter;stroke-opacity:1" />
    <path
       style="font-style:normal;font-variant:normal;font-weight:normal;font-stretch:normal;letter-spacing:normal;word-spacing:normal;text-anchor:start;fill:#000000;stroke:#000000;stroke-width:0;stroke-linecap:butt;stroke-linejoin:miter;stroke-miterlimit:10.43299961;stroke-opacity:1;stroke-dasharray:none;stroke-dashoffset:0"
       inkscape:connector-curvature="0"
       d="m 160.49419,17.351494 v -0.65 l -1.44,0.11 v 0.3 c 0.71,0 0.78,0.06 0.78,0.5 v 4.66 c 0,0.45 -0.11,0.45 -0.78,0.45 v 0.31 c 0.34,-0.01 0.86,-0.03 1.12,-0.03 0.27,0 0.77,0.02 1.12,0.03 v -0.31 c -0.66,0 -0.77,0 -0.77,-0.45 v -1.67 -0.09 l 0.14,-0.13 c -0.14,-0.21 -0.14,-0.22 -0.14,-0.42 h 0 v -2.22 c 0.28,-0.51 0.77,-0.8 1.28,-0.8 0.73,0 1.34,0.88 1.34,2 0,1.21 -0.7,2.05 -1.44,2.05 -0.4,0 -0.78,-0.2 -1.04,-0.61 l -0.14,0.13 c 0.05,0.16 0.46,0.69 1.22,0.69 1.19,0 2.23,-0.97 2.23,-2.26 0,-1.26 -0.97,-2.24 -2.09,-2.24 -0.78,0 -1.19,0.43 -1.39,0.65 z"
       id="path3307" />
    <g
       id="g3407"
       transform="translate(91.923882,-13.949996)">
      <path
         id="path3299"
         d="m 49.69031,31.66149 0.09,-0.02 0.09,-0.03 0.08,-0.03 0.09,-0.03 0.09,-0.03 0.08,-0.03 0.08,-0.04 0.08,-0.03 0.08,-0.04 0.07,-0.04 0.07,-0.05 0.08,-0.04 0.06,-0.05 0.07,-0.05 0.06,-0.05 0.06,-0.05 0.06,-0.05 0.06,-0.06 0.05,-0.05 0.05,-0.06 0.04,-0.06 0.04,-0.06 0.04,-0.06 0.04,-0.06 0.03,-0.07 0.02,-0.06 0.03,-0.07 0.02,-0.07 0.01,-0.07 0.01,-0.07 0.01,-0.07 0,-0.07 c 0,-0.96 -1.13,-1.79 -2.6,-1.79 h -3.13 v 0.31 h 0.24 c 0.77,0 0.79,0.1 0.79,0.46 v 5.25 c 0,0.36 -0.02,0.47 -0.79,0.47 h -0.24 v 0.3 c 0.36,-0.03 1.07,-0.03 1.46,-0.03 0.39,0 1.09,0 1.45,0.03 v -0.3 h -0.24 c -0.77,0 -0.79,-0.11 -0.79,-0.47 v -2.52 -0.22 -2.58 c 0,-0.23 0,-0.34 0.22,-0.37 0.1,-0.02 0.39,-0.02 0.59,-0.02 0.9,0 2.02,0.04 2.02,1.48 0,0.69 -0.24,1.49 -1.72,1.49 h -1.11 v 0.22 h 1.15 c 0.16,0 0.58,0 0.93,0.34 0.38,0.36 0.38,0.67 0.38,1.33 0,0.65 0,1.05 0.41,1.43 0.4,0.35 0.95,0.41 1.25,0.41 0.78,0 0.95,-0.81 0.95,-1.09 0,-0.06 0,-0.17 -0.13,-0.17 -0.11,0 -0.11,0.09 -0.12,0.16 -0.06,0.71 -0.41,0.88 -0.66,0.88 -0.49,0 -0.57,-0.5 -0.71,-1.43 l -0.13,-0.79 c -0.18,-0.64 -0.66,-0.97 -1.21,-1.16 z"
         inkscape:connector-curvature="0"
         style="font-style:normal;font-variant:normal;font-weight:normal;font-stretch:normal;letter-spacing:normal;word-spacing:normal;text-anchor:start;fill:#000000;stroke:#000000;stroke-width:0;stroke-linecap:butt;stroke-linejoin:miter;stroke-miterlimit:10.43299961;stroke-opacity:1;stroke-dasharray:none;stroke-dashoffset:0" />
      <path
         id="path3301"
         d="m 52.96031,31.64149 0.01,0.19 0.01,0.19 0.03,0.19 0.03,0.18 0.04,0.18 0.05,0.17 0.05,0.17 0.07,0.17 0.07,0.16 0.08,0.15 0.08,0.16 0.09,0.14 0.1,0.14 0.11,0.14 0.11,0.13 0.11,0.13 0.13,0.11 0.12,0.12 0.14,0.1 0.13,0.1 0.14,0.09 0.15,0.09 0.15,0.08 0.15,0.07 0.16,0.06 0.16,0.06 0.16,0.04 0.16,0.04 0.17,0.03 0.17,0.03 0.17,0.01 0.17,0 c 1.63,0 2.61,-1.38 2.61,-2.53 0,-0.1 0,-0.17 -0.13,-0.17 -0.11,0 -0.11,0.06 -0.12,0.16 -0.08,1.42 -1.15,2.23 -2.24,2.23 -0.61,0 -2.56,-0.33 -2.56,-3.3 0,-2.97 1.94,-3.31 2.55,-3.31 1.09,0 1.98,0.9 2.18,2.36 0.02,0.13 0.02,0.17 0.16,0.17 0.16,0 0.16,-0.04 0.16,-0.24 v -2.36 c 0,-0.17 0,-0.24 -0.11,-0.24 -0.04,0 -0.08,0 -0.16,0.12 l -0.5,0.73 c -0.37,-0.35 -0.88,-0.85 -1.84,-0.85 -1.86,0 -3.47,1.58 -3.47,3.61 z"
         inkscape:connector-curvature="0"
         style="font-style:normal;font-variant:normal;font-weight:normal;font-stretch:normal;letter-spacing:normal;word-spacing:normal;text-anchor:start;fill:#000000;stroke:#000000;stroke-width:0;stroke-linecap:butt;stroke-linejoin:miter;stroke-miterlimit:10.43299961;stroke-opacity:1;stroke-dasharray:none;stroke-dashoffset:0" />
      <polygon
         transform="matrix(1,0,0,-1,-178.07969,742.17149)"
         id="polygon3303"
         points="240.43,708.99 240.43,709.56 237.79,709.56 237.79,708.99 "
         style="font-style:normal;font-variant:normal;font-weight:normal;font-stretch:normal;letter-spacing:normal;word-spacing:normal;text-anchor:start;fill:#000000;stroke:#000000;stroke-width:0;stroke-linecap:butt;stroke-linejoin:miter;stroke-miterlimit:10.43299961;stroke-opacity:1;stroke-dasharray:none;stroke-dashoffset:0" />
      <path
         id="path3305"
         d="m 64.99031,33.11149 0.03,0.01 0.02,0 0.03,0.01 0.03,0.01 0.04,0 0.03,0.01 0.04,0.01 0.04,0.01 0.04,0.02 0.04,0.01 0.05,0.02 0.04,0.01 0.04,0.02 0.05,0.02 0.04,0.02 0.05,0.03 0.04,0.02 0.04,0.03 0.04,0.03 0.04,0.04 0.04,0.03 0.04,0.04 0.03,0.04 0.03,0.04 0.03,0.04 0.01,0.03 0.02,0.02 0.01,0.03 0.01,0.02 0.01,0.03 0.01,0.03 0,0.02 0.01,0.03 0.01,0.03 0,0.03 0.01,0.03 0,0.03 0,0.04 0,0.03 c 0,0.51 -0.35,0.91 -1.12,0.91 -0.84,0 -1.2,-0.57 -1.39,-1.42 -0.03,-0.13 -0.04,-0.17 -0.14,-0.17 -0.13,0 -0.13,0.07 -0.13,0.25 v 1.32 c 0,0.16 0,0.23 0.11,0.23 0.05,0 0.06,-0.01 0.25,-0.2 0.02,-0.01 0.02,-0.03 0.2,-0.22 0.44,0.41 0.89,0.42 1.1,0.42 1.14,0 1.6,-0.66 1.6,-1.38 0,-0.53 -0.3,-0.82 -0.42,-0.94 -0.33,-0.32 -0.72,-0.4 -1.13,-0.48 -0.56,-0.11 -1.23,-0.24 -1.23,-0.82 0,-0.35 0.26,-0.76 1.12,-0.76 1.09,0 1.14,0.9 1.16,1.21 0.01,0.09 0.1,0.09 0.12,0.09 0.13,0 0.13,-0.05 0.13,-0.24 v -1 c 0,-0.17 0,-0.24 -0.11,-0.24 -0.05,0 -0.07,0 -0.2,0.12 -0.03,0.04 -0.13,0.12 -0.17,0.16 -0.38,-0.28 -0.79,-0.28 -0.93,-0.28 -1.22,0 -1.6,0.66 -1.6,1.22 0,0.35 0.16,0.63 0.43,0.85 0.32,0.25 0.6,0.31 1.31,0.45 z"
         inkscape:connector-curvature="0"
         style="font-style:normal;font-variant:normal;font-weight:normal;font-stretch:normal;letter-spacing:normal;word-spacing:normal;text-anchor:start;fill:#000000;stroke:#000000;stroke-width:0;stroke-linecap:butt;stroke-linejoin:miter;stroke-miterlimit:10.43299961;stroke-opacity:1;stroke-dasharray:none;stroke-dashoffset:0" />
      <path
         id="path3309"
         d="m 75.71031,34.29149 0,0.04 0.01,0.03 0,0.04 0.01,0.04 0.01,0.04 0.01,0.03 0.01,0.04 0.02,0.03 0.01,0.04 0.02,0.03 0.02,0.04 0.02,0.03 0.02,0.03 0.02,0.04 0.02,0.03 0.02,0.03 0.03,0.02 0.03,0.03 0.02,0.03 0.03,0.02 0.03,0.02 0.03,0.03 0.04,0.02 0.03,0.01 0.03,0.02 0.04,0.01 0.04,0.02 0.04,0.01 0.04,0 0.04,0.01 0.04,0 0.04,0 c 0.21,0 0.82,-0.14 0.82,-0.94 v -0.56 h -0.25 v 0.56 c 0,0.58 -0.25,0.64 -0.36,0.64 -0.33,0 -0.37,-0.45 -0.37,-0.5 v -1.99 c 0,-0.42 0,-0.81 -0.36,-1.18 -0.38,-0.38 -0.88,-0.54 -1.36,-0.54 -0.82,0 -1.51,0.46 -1.51,1.12 0,0.3 0.2,0.47 0.46,0.47 0.28,0 0.46,-0.2 0.46,-0.46 0,-0.12 -0.05,-0.45 -0.51,-0.46 0.27,-0.35 0.76,-0.45 1.08,-0.45 0.49,0 1.06,0.38 1.06,1.27 v 0.37 0.21 0.99 c 0,0.95 -0.72,1.29 -1.17,1.29 -0.49,0 -0.9,-0.35 -0.9,-0.85 0,-0.55 0.42,-1.37 2.07,-1.43 h 0 v -0.21 c -0.51,0.03 -1.21,0.06 -1.84,0.36 -0.75,0.33 -1,0.85 -1,1.29 0,0.81 0.97,1.05 1.6,1.05 0.66,0 1.12,-0.39 1.31,-0.86 z"
         inkscape:connector-curvature="0"
         style="font-style:normal;font-variant:normal;font-weight:normal;font-stretch:normal;letter-spacing:normal;word-spacing:normal;text-anchor:start;fill:#000000;stroke:#000000;stroke-width:0;stroke-linecap:butt;stroke-linejoin:miter;stroke-miterlimit:10.43299961;stroke-opacity:1;stroke-dasharray:none;stroke-dashoffset:0" />
      <path
         id="path3311"
         d="m 78.53031,32.88149 0,-0.08 0.01,-0.07 0,-0.08 0,-0.07 0.01,-0.06 0,-0.07 0.01,-0.07 0.01,-0.06 0.01,-0.06 0.01,-0.06 0.01,-0.06 0.01,-0.06 0.03,-0.1 0.03,-0.11 0.03,-0.1 0.04,-0.09 0.04,-0.08 0.04,-0.08 0.04,-0.08 0.05,-0.07 0.05,-0.06 0.05,-0.06 0.05,-0.06 0.05,-0.05 0.06,-0.05 0.05,-0.04 0.06,-0.03 0.05,-0.04 0.06,-0.03 0.06,-0.02 0.05,-0.03 0.06,-0.02 0.06,-0.01 0.05,-0.01 0.05,-0.01 0.06,-0.01 0.05,0 0.05,-0.01 c 0.09,0 0.72,0.01 1.07,0.37 -0.41,0.03 -0.47,0.33 -0.47,0.46 0,0.26 0.18,0.46 0.46,0.46 0.26,0 0.46,-0.17 0.46,-0.47 0,-0.68 -0.76,-1.06 -1.53,-1.06 -1.25,0 -2.16,1.07 -2.16,2.3 0,1.28 0.98,2.26 2.14,2.26 1.34,0 1.65,-1.19 1.65,-1.29 0,-0.1 -0.1,-0.1 -0.13,-0.1 -0.09,0 -0.1,0.04 -0.12,0.1 -0.29,0.93 -0.94,1.05 -1.31,1.05 -0.53,0 -1.41,-0.43 -1.41,-2.03 z"
         inkscape:connector-curvature="0"
         style="font-style:normal;font-variant:normal;font-weight:normal;font-stretch:normal;letter-spacing:normal;word-spacing:normal;text-anchor:start;fill:#000000;stroke:#000000;stroke-width:0;stroke-linecap:butt;stroke-linejoin:miter;stroke-miterlimit:10.43299961;stroke-opacity:1;stroke-dasharray:none;stroke-dashoffset:0" />
      <path
         id="path3313"
         d="m 82.90031,32.75149 0.01,-0.21 c 0.06,-1.49 0.9,-1.73 1.24,-1.73 1.02,0 1.12,1.34 1.12,1.73 h -2.36 l -0.01,0.21 h 2.78 c 0.22,0 0.25,0 0.25,-0.21 0,-0.99 -0.54,-1.95 -1.78,-1.95 -1.16,0 -2.08,1.02 -2.08,2.26 0,1.34 1.05,2.3 2.2,2.3 1.21,0 1.66,-1.1 1.66,-1.29 0,-0.1 -0.08,-0.12 -0.13,-0.12 -0.09,0 -0.11,0.06 -0.13,0.14 -0.35,1.03 -1.24,1.03 -1.34,1.03 -0.5,0 -0.9,-0.3 -1.13,-0.67 -0.3,-0.48 -0.3,-1.14 -0.3,-1.49 z"
         inkscape:connector-curvature="0"
         style="font-style:normal;font-variant:normal;font-weight:normal;font-stretch:normal;letter-spacing:normal;word-spacing:normal;text-anchor:start;fill:#000000;stroke:#000000;stroke-width:0;stroke-linecap:butt;stroke-linejoin:miter;stroke-miterlimit:10.43299961;stroke-opacity:1;stroke-dasharray:none;stroke-dashoffset:0" />
    </g>
    <g
       id="g3416"
       transform="translate(80.46969,11.230004)">
      <path
         id="path3315"
         d="m 64.55031,40.96149 0.01,-0.03 0.01,-0.02 0,-0.02 0.01,-0.03 0,-0.02 0.01,-0.02 0.01,-0.01 0,-0.02 0.01,-0.02 0,-0.01 0.01,-0.02 0,-0.01 0.01,-0.02 0.01,-0.01 0,-0.01 0.01,-0.01 0,-0.01 0.01,-0.01 0.01,-0.01 0.01,0 0,-0.01 0.01,-0.01 0.01,0 0.01,-0.01 0,0 0.01,-0.01 0.01,0 0.01,-0.01 0.01,0 0.01,0 0.01,-0.01 0.01,0 c 0.09,-0.02 0.42,-0.02 0.63,-0.02 1.01,0 1.46,0.04 1.46,0.82 0,0.15 -0.05,0.53 -0.08,0.79 -0.02,0.04 -0.03,0.16 -0.03,0.19 0,0.06 0.03,0.13 0.12,0.13 0.11,0 0.13,-0.08 0.14,-0.23 l 0.27,-1.73 c 0.01,-0.04 0.02,-0.14 0.02,-0.17 0,-0.11 -0.1,-0.11 -0.26,-0.11 h -5.54 c -0.24,0 -0.25,0.01 -0.32,0.2 l -0.59,1.75 c -0.02,0.02 -0.06,0.16 -0.06,0.18 0,0.06 0.04,0.11 0.12,0.11 0.1,0 0.11,-0.05 0.16,-0.21 0.54,-1.54 0.8,-1.72 2.28,-1.72 h 0.39 c 0.28,0 0.28,0.04 0.28,0.12 0,0.06 -0.03,0.18 -0.05,0.21 l -1.33,5.31 c -0.09,0.37 -0.12,0.48 -1.19,0.48 -0.36,0 -0.42,0 -0.42,0.19 0,0.12 0.11,0.12 0.17,0.12 0.27,0 0.55,-0.02 0.82,-0.02 0.28,0 0.57,-0.01 0.85,-0.01 0.28,0 0.56,0.01 0.83,0.01 0.29,0 0.58,0.02 0.86,0.02 0.1,0 0.22,0 0.22,-0.2 0,-0.11 -0.08,-0.11 -0.34,-0.11 -0.25,0 -0.37,0 -0.63,-0.02 -0.29,-0.03 -0.37,-0.06 -0.37,-0.22 0,-0.01 0,-0.06 0.04,-0.21 z"
         inkscape:connector-curvature="0"
         style="font-style:normal;font-variant:normal;font-weight:normal;font-stretch:normal;letter-spacing:normal;word-spacing:normal;text-anchor:start;fill:#000000;stroke:#000000;stroke-width:0;stroke-linecap:butt;stroke-linejoin:miter;stroke-miterlimit:10.43299961;stroke-opacity:1;stroke-dasharray:none;stroke-dashoffset:0" />
      <path
         id="path3317"
         d="m 71.31031,42.40149 0.06,-0.06 0.06,-0.06 0.05,-0.07 0.05,-0.06 0.05,-0.07 0.05,-0.07 0.05,-0.07 0.04,-0.06 0.04,-0.07 0.04,-0.07 0.04,-0.07 0.04,-0.06 0.03,-0.07 0.03,-0.06 0.03,-0.06 0.03,-0.07 0.03,-0.06 0.02,-0.05 0.02,-0.06 0.02,-0.05 0.02,-0.05 0.02,-0.05 0.02,-0.05 0.01,-0.04 0.01,-0.04 0.01,-0.03 0.01,-0.03 0.01,-0.03 0,-0.02 0.01,-0.02 0,-0.02 0,-0.01 c 0,-0.09 -0.08,-0.09 -0.12,-0.09 -0.1,0 -0.1,0.02 -0.15,0.18 -0.12,0.45 -0.35,0.88 -0.64,1.25 -0.01,-0.1 -0.02,-0.57 -0.04,-0.63 -0.1,-0.69 -0.62,-1.13 -1.32,-1.13 l -0.01,0.19 c 0.56,0 0.72,0.54 0.78,0.97 0.04,0.3 0.02,0.79 0.06,1.16 h 0 c -0.68,0.56 -1.28,0.62 -1.54,0.62 -0.46,0 -0.72,-0.31 -0.72,-0.77 0,-0.2 0.1,-0.96 0.46,-1.44 0.32,-0.42 0.72,-0.54 0.96,-0.54 l 0.01,-0.19 c -1.02,0 -2.01,0.95 -2.01,1.93 0,0.63 0.47,1.2 1.28,1.2 0.64,0 1.22,-0.29 1.61,-0.59 0.16,0.51 0.51,0.59 0.72,0.59 0.4,0 0.66,-0.34 0.66,-0.48 0,-0.09 -0.09,-0.09 -0.12,-0.09 -0.09,0 -0.11,0.03 -0.12,0.07 -0.1,0.27 -0.31,0.31 -0.4,0.31 -0.1,0 -0.21,0 -0.25,-0.86 z"
         inkscape:connector-curvature="0"
         style="font-style:normal;font-variant:normal;font-weight:normal;font-stretch:normal;letter-spacing:normal;word-spacing:normal;text-anchor:start;fill:#000000;stroke:#000000;stroke-width:0;stroke-linecap:butt;stroke-linejoin:miter;stroke-miterlimit:10.43299961;stroke-opacity:1;stroke-dasharray:none;stroke-dashoffset:0" />
    </g>
    <g
       id="g3420"
       transform="translate(104.69969,-0.06999586)">
      <path
         id="path3319"
         d="m 65.47031,55.57149 0.09,-0.02 0.1,-0.03 0.1,-0.02 0.09,-0.03 0.1,-0.04 0.1,-0.03 0.09,-0.04 0.1,-0.04 0.09,-0.04 0.09,-0.05 0.1,-0.05 0.09,-0.05 0.08,-0.05 0.09,-0.06 0.08,-0.05 0.08,-0.06 0.08,-0.07 0.08,-0.06 0.07,-0.07 0.06,-0.07 0.07,-0.07 0.06,-0.07 0.05,-0.08 0.05,-0.08 0.05,-0.08 0.04,-0.08 0.03,-0.08 0.03,-0.09 0.02,-0.09 0.02,-0.09 0.01,-0.09 0,-0.09 c 0,-0.86 -0.89,-1.49 -2.2,-1.49 h -2.84 c -0.2,0 -0.29,0 -0.29,0.2 0,0.11 0.09,0.11 0.28,0.11 0.02,0 0.21,0 0.38,0.02 0.18,0.02 0.27,0.03 0.27,0.15 0,0.05 -0.01,0.07 -0.04,0.19 l -1.34,5.35 c -0.1,0.39 -0.12,0.47 -0.91,0.47 -0.18,0 -0.26,0 -0.26,0.2 0,0.1 0.11,0.1 0.13,0.1 0.28,0 0.98,-0.02 1.26,-0.02 0.28,0 0.99,0.02 1.27,0.02 0.08,0 0.2,0 0.2,-0.19 0,-0.11 -0.09,-0.11 -0.28,-0.11 -0.37,0 -0.65,0 -0.65,-0.18 0,-0.06 0.02,-0.11 0.03,-0.17 l 0.66,-2.64 h 1.18 l -0.01,-0.22 h -1.11 l 0.64,-2.6 c 0.06,-0.24 0.09,-0.33 0.28,-0.36 0.09,-0.01 0.41,-0.01 0.61,-0.01 0.71,0 1.82,0 1.82,0.98 0,0.34 -0.16,1.03 -0.55,1.42 -0.26,0.25 -0.79,0.57 -1.69,0.57 l 0.01,0.22 c 0.91,0 1.09,0.56 1.09,0.91 0,0.15 -0.08,0.45 -0.14,0.68 -0.07,0.28 -0.16,0.65 -0.16,0.85 0,1.07 1.2,1.07 1.33,1.07 0.84,0 1.19,-1 1.19,-1.14 0,-0.12 -0.11,-0.12 -0.12,-0.12 -0.09,0 -0.11,0.07 -0.13,0.14 -0.25,0.74 -0.67,0.9 -0.9,0.9 -0.33,0 -0.4,-0.21 -0.4,-0.6 0,-0.31 0.06,-0.82 0.1,-1.14 0.02,-0.14 0.04,-0.32 0.04,-0.46 0,-0.77 -0.67,-1.08 -0.94,-1.18 z"
         inkscape:connector-curvature="0"
         style="font-style:normal;font-variant:normal;font-weight:normal;font-stretch:normal;letter-spacing:normal;word-spacing:normal;text-anchor:start;fill:#000000;stroke:#000000;stroke-width:0;stroke-linecap:butt;stroke-linejoin:miter;stroke-miterlimit:10.43299961;stroke-opacity:1;stroke-dasharray:none;stroke-dashoffset:0" />
      <path
         id="path3321"
         d="m 72.35031,51.40149 -0.01,-0.05 0,-0.06 -0.01,-0.05 -0.01,-0.05 -0.01,-0.05 -0.02,-0.05 -0.02,-0.05 -0.02,-0.04 -0.02,-0.05 -0.03,-0.04 -0.02,-0.04 -0.03,-0.04 -0.04,-0.04 -0.03,-0.03 -0.04,-0.04 -0.04,-0.03 -0.04,-0.03 -0.04,-0.03 -0.04,-0.02 -0.05,-0.03 -0.04,-0.02 -0.05,-0.02 -0.05,-0.02 -0.05,-0.02 -0.05,-0.01 -0.05,-0.02 -0.06,-0.01 -0.05,-0.01 -0.06,0 -0.05,-0.01 -0.06,0 -0.06,0 -0.01,0.19 c 0.41,0 0.7,0.22 0.7,0.65 h 0 c 0,0.37 -0.18,0.91 -0.62,1.15 -0.13,-0.04 -0.26,-0.09 -0.65,-0.09 -0.24,0 -0.59,0.02 -0.59,0.27 0,0.17 0.21,0.2 0.57,0.2 l 0.01,-0.19 c -0.11,0 -0.28,-0.01 -0.32,-0.03 0.06,-0.05 0.26,-0.05 0.32,-0.05 0.11,0 0.26,0 0.36,0.03 h 0 c -0.11,0.02 -0.16,0.05 -0.36,0.05 l -0.01,0.19 c 0.23,0 0.44,-0.04 0.66,-0.1 0.21,0.15 0.32,0.43 0.32,0.74 0,1.01 -0.69,1.76 -1.54,1.76 -0.53,0 -0.92,-0.33 -0.92,-0.88 0,-0.07 0.01,-0.14 0.02,-0.2 l 0.46,-1.85 c 0.17,-0.66 0.78,-1.65 1.59,-1.65 l 0.01,-0.19 c -0.95,0 -1.65,1.08 -1.83,1.78 l -1.09,4.39 c -0.01,0.04 0.05,0.08 0.1,0.08 0.06,0 0.11,-0.01 0.13,-0.05 l 0.47,-1.86 c 0.14,0.32 0.48,0.62 1.04,0.62 0.97,0 2.08,-0.7 2.08,-1.76 0,-0.41 -0.19,-0.83 -0.55,-1.06 0.34,-0.22 0.8,-0.61 0.8,-1.18 z"
         inkscape:connector-curvature="0"
         style="font-style:normal;font-variant:normal;font-weight:normal;font-stretch:normal;letter-spacing:normal;word-spacing:normal;text-anchor:start;fill:#000000;stroke:#000000;stroke-width:0;stroke-linecap:butt;stroke-linejoin:miter;stroke-miterlimit:10.43299961;stroke-opacity:1;stroke-dasharray:none;stroke-dashoffset:0" />
      <path
         id="path3323"
         d="m 71.67031,60.44149 0.06,-0.06 0.06,-0.07 0.05,-0.06 0.05,-0.07 0.05,-0.07 0.05,-0.06 0.05,-0.07 0.04,-0.07 0.04,-0.07 0.04,-0.07 0.04,-0.06 0.04,-0.07 0.03,-0.06 0.03,-0.07 0.03,-0.06 0.03,-0.06 0.03,-0.06 0.02,-0.06 0.02,-0.06 0.02,-0.05 0.02,-0.05 0.02,-0.05 0.02,-0.04 0.01,-0.05 0.01,-0.03 0.01,-0.04 0.01,-0.03 0.01,-0.03 0,-0.02 0.01,-0.02 0,-0.01 0,-0.01 c 0,-0.09 -0.08,-0.09 -0.12,-0.09 -0.1,0 -0.1,0.02 -0.15,0.17 -0.12,0.46 -0.35,0.88 -0.64,1.26 -0.01,-0.11 -0.02,-0.57 -0.04,-0.63 -0.1,-0.69 -0.63,-1.14 -1.32,-1.14 l -0.01,0.2 c 0.56,0 0.72,0.53 0.78,0.96 0.04,0.3 0.02,0.8 0.06,1.16 h 0 c -0.69,0.56 -1.28,0.62 -1.54,0.62 -0.46,0 -0.72,-0.3 -0.72,-0.77 0,-0.2 0.1,-0.96 0.46,-1.44 0.32,-0.42 0.72,-0.53 0.96,-0.53 l 0.01,-0.2 c -1.03,0 -2.01,0.95 -2.01,1.93 0,0.64 0.47,1.21 1.28,1.21 0.64,0 1.22,-0.29 1.61,-0.59 0.16,0.5 0.51,0.59 0.72,0.59 0.4,0 0.65,-0.34 0.65,-0.49 0,-0.08 -0.08,-0.08 -0.11,-0.08 -0.09,0 -0.11,0.03 -0.12,0.07 -0.1,0.26 -0.31,0.3 -0.4,0.3 -0.1,0 -0.21,0 -0.25,-0.85 z"
         inkscape:connector-curvature="0"
         style="font-style:normal;font-variant:normal;font-weight:normal;font-stretch:normal;letter-spacing:normal;word-spacing:normal;text-anchor:start;fill:#000000;stroke:#000000;stroke-width:0;stroke-linecap:butt;stroke-linejoin:miter;stroke-miterlimit:10.43299961;stroke-opacity:1;stroke-dasharray:none;stroke-dashoffset:0" />
    </g>
  </g>
</svg>
