<?xml version="1.0" encoding="UTF-8" standalone="no"?>
<!-- Created with Inkscape (http://www.inkscape.org/) -->

<svg
   xmlns:dc="http://purl.org/dc/elements/1.1/"
   xmlns:cc="http://creativecommons.org/ns#"
   xmlns:rdf="http://www.w3.org/1999/02/22-rdf-syntax-ns#"
   xmlns:svg="http://www.w3.org/2000/svg"
   xmlns="http://www.w3.org/2000/svg"
   xmlns:sodipodi="http://sodipodi.sourceforge.net/DTD/sodipodi-0.dtd"
   xmlns:inkscape="http://www.inkscape.org/namespaces/inkscape"
   width="325.98425"
   height="248.03149"
   id="svg2"
   version="1.1"
   inkscape:version="0.48.0 r9654"
   sodipodi:docname="clas_equiv.svg"
   enable-background="new">
  <sodipodi:namedview
     id="base"
     pagecolor="#ffffff"
     bordercolor="#666666"
     borderopacity="1.0"
     inkscape:pageopacity="0.0"
     inkscape:pageshadow="2"
     inkscape:zoom="4"
     inkscape:cx="106.73442"
     inkscape:cy="87.438304"
     inkscape:document-units="cm"
     inkscape:current-layer="layer3"
     showgrid="true"
     inkscape:window-width="800"
     inkscape:window-height="579"
     inkscape:window-x="-4"
     inkscape:window-y="-4"
     inkscape:window-maximized="1"
     units="cm"
     width="9.2cm"
     showguides="true"
     inkscape:guide-bbox="true"
     inkscape:showpageshadow="false"
     objecttolerance="4"
     gridtolerance="4">
    <inkscape:grid
       type="xygrid"
       id="grid3254"
       empspacing="5"
       visible="true"
       enabled="true"
       snapvisiblegridlinesonly="true" />
  </sodipodi:namedview>
  <defs
     id="defs4"><marker
   inkscape:stockid="Arrow1Send"
   orient="auto"
   refY="0.0"
   refX="0.0"
   id="Arrow1Send"
   style="overflow:visible;">
  <path
     id="path3997"
     d="M 0.0,0.0 L 5.0,-5.0 L -12.5,0.0 L 5.0,5.0 L 0.0,0.0 z "
     style="fill-rule:evenodd;stroke:#000000;stroke-width:1.0pt;marker-start:none;"
     transform="scale(0.2) rotate(180) translate(6,0)" />
</marker>
<marker
   inkscape:stockid="Arrow1Sstart"
   orient="auto"
   refY="0.0"
   refX="0.0"
   id="Arrow1Sstart"
   style="overflow:visible">
  <path
     id="path3994"
     d="M 0.0,0.0 L 5.0,-5.0 L -12.5,0.0 L 5.0,5.0 L 0.0,0.0 z "
     style="fill-rule:evenodd;stroke:#000000;stroke-width:1.0pt;marker-start:none"
     transform="scale(0.2) translate(6,0)" />
</marker>
<marker
   inkscape:stockid="Arrow1Mend"
   orient="auto"
   refY="0.0"
   refX="0.0"
   id="Arrow1Mend"
   style="overflow:visible;">
  <path
     id="path3991"
     d="M 0.0,0.0 L 5.0,-5.0 L -12.5,0.0 L 5.0,5.0 L 0.0,0.0 z "
     style="fill-rule:evenodd;stroke:#000000;stroke-width:1.0pt;marker-start:none;"
     transform="scale(0.4) rotate(180) translate(10,0)" />
</marker>
<marker
   inkscape:stockid="Arrow1Mstart"
   orient="auto"
   refY="0.0"
   refX="0.0"
   id="Arrow1Mstart"
   style="overflow:visible">
  <path
     id="path3988"
     d="M 0.0,0.0 L 5.0,-5.0 L -12.5,0.0 L 5.0,5.0 L 0.0,0.0 z "
     style="fill-rule:evenodd;stroke:#000000;stroke-width:1.0pt;marker-start:none"
     transform="scale(0.4) translate(10,0)" />
</marker>
<marker
   inkscape:stockid="Arrow2Lend"
   orient="auto"
   refY="0.0"
   refX="0.0"
   id="Arrow2Lend"
   style="overflow:visible;">
  <path
     id="path4003"
     style="font-size:12.0;fill-rule:evenodd;stroke-width:0.62500000;stroke-linejoin:round;"
     d="M 8.7185878,4.0337352 L -2.2072895,0.016013256 L 8.7185884,-4.0017078 C 6.9730900,-1.6296469 6.9831476,1.6157441 8.7185878,4.0337352 z "
     transform="scale(1.1) rotate(180) translate(1,0)" />
</marker>
<marker
   inkscape:stockid="Arrow2Lstart"
   orient="auto"
   refY="0.0"
   refX="0.0"
   id="Arrow2Lstart"
   style="overflow:visible">
  <path
     id="path4000"
     style="font-size:12.0;fill-rule:evenodd;stroke-width:0.62500000;stroke-linejoin:round"
     d="M 8.7185878,4.0337352 L -2.2072895,0.016013256 L 8.7185884,-4.0017078 C 6.9730900,-1.6296469 6.9831476,1.6157441 8.7185878,4.0337352 z "
     transform="scale(1.1) translate(1,0)" />
</marker>
<marker
   style="overflow:visible"
   id="Arrow1Lend"
   refX="0"
   refY="0"
   orient="auto"
   inkscape:stockid="Arrow1Lend">
  <path
     transform="matrix(-0.8,0,0,-0.8,-10,0)"
     style="fill-rule:evenodd;stroke:#000000;stroke-width:1pt;marker-start:none"
     d="M 0,0 5,-5 -12.5,0 5,5 0,0 z"
     id="path4440"
     inkscape:connector-curvature="0" />
</marker>
<marker
   style="overflow:visible"
   id="Arrow1Lstart"
   refX="0"
   refY="0"
   orient="auto"
   inkscape:stockid="Arrow1Lstart">
  <path
     transform="matrix(0.8,0,0,0.8,10,0)"
     style="fill-rule:evenodd;stroke:#000000;stroke-width:1pt;marker-start:none"
     d="M 0,0 5,-5 -12.5,0 5,5 0,0 z"
     id="path4437"
     inkscape:connector-curvature="0" />
</marker>
<marker
   inkscape:stockid="Arrow2Lstart"
   orient="auto"
   refY="0"
   refX="0"
   id="Arrow2Lstart-4"
   style="overflow:visible">
  <path
     inkscape:connector-curvature="0"
     id="path4000-4"
     style="font-size:12px;fill-rule:evenodd;stroke-width:0.625;stroke-linejoin:round"
     d="M 8.7185878,4.0337352 -2.2072895,0.01601326 8.7185884,-4.0017078 c -1.7454984,2.3720609 -1.7354408,5.6174519 -6e-7,8.035443 z"
     transform="matrix(1.1,0,0,1.1,1.1,0)" />
</marker>
<marker
   inkscape:stockid="Arrow2Lend"
   orient="auto"
   refY="0"
   refX="0"
   id="Arrow2Lend-3"
   style="overflow:visible">
  <path
     inkscape:connector-curvature="0"
     id="path4003-0"
     style="font-size:12px;fill-rule:evenodd;stroke-width:0.625;stroke-linejoin:round"
     d="M 8.7185878,4.0337352 -2.2072895,0.01601326 8.7185884,-4.0017078 c -1.7454984,2.3720609 -1.7354408,5.6174519 -6e-7,8.035443 z"
     transform="matrix(-1.1,0,0,-1.1,-1.1,0)" />
</marker>
<marker
   inkscape:stockid="Arrow2Lend"
   orient="auto"
   refY="0"
   refX="0"
   id="marker7119"
   style="overflow:visible">
  <path
     inkscape:connector-curvature="0"
     id="path7121"
     style="font-size:12px;fill-rule:evenodd;stroke-width:0.625;stroke-linejoin:round"
     d="M 8.7185878,4.0337352 -2.2072895,0.01601326 8.7185884,-4.0017078 c -1.7454984,2.3720609 -1.7354408,5.6174519 -6e-7,8.035443 z"
     transform="matrix(-1.1,0,0,-1.1,-1.1,0)" />
</marker>
<marker
   inkscape:stockid="Arrow1Mstart"
   orient="auto"
   refY="0"
   refX="0"
   id="Arrow1Mstart-3"
   style="overflow:visible">
  <path
     inkscape:connector-curvature="0"
     id="path3988-7"
     d="M 0,0 5,-5 -12.5,0 5,5 0,0 z"
     style="fill-rule:evenodd;stroke:#000000;stroke-width:1pt;marker-start:none"
     transform="matrix(0.4,0,0,0.4,4,0)" />
</marker>
<marker
   inkscape:stockid="Arrow1Mend"
   orient="auto"
   refY="0"
   refX="0"
   id="Arrow1Mend-5"
   style="overflow:visible">
  <path
     inkscape:connector-curvature="0"
     id="path3991-5"
     d="M 0,0 5,-5 -12.5,0 5,5 0,0 z"
     style="fill-rule:evenodd;stroke:#000000;stroke-width:1pt;marker-start:none"
     transform="matrix(-0.4,0,0,-0.4,-4,0)" />
</marker>
<marker
   inkscape:stockid="Arrow1Mend"
   orient="auto"
   refY="0"
   refX="0"
   id="Arrow1Mend-4"
   style="overflow:visible">
  <path
     inkscape:connector-curvature="0"
     id="path3991-2"
     d="M 0,0 5,-5 -12.5,0 5,5 0,0 z"
     style="fill-rule:evenodd;stroke:#000000;stroke-width:1pt;marker-start:none"
     transform="matrix(-0.4,0,0,-0.4,-4,0)" />
</marker>







</defs>
  <metadata
     id="metadata7">
    <rdf:RDF>
      <cc:Work
         rdf:about="">
        <dc:format>image/svg+xml</dc:format>
        <dc:type
           rdf:resource="http://purl.org/dc/dcmitype/StillImage" />
        <dc:title />
      </cc:Work>
    </rdf:RDF>
  </metadata>
  <g
     inkscape:groupmode="layer"
     id="layer5"
     inkscape:label="Надписи"
     style="display:none" />
  <g
     inkscape:groupmode="layer"
     id="layer4"
     inkscape:label="Слой3"
     style="display:none" />
  <g
     inkscape:label="Слой2"
     id="layer2"
     inkscape:groupmode="layer"
     transform="translate(0,-804.32946)"
     style="display:none">
    <text
       sodipodi:linespacing="125%"
       id="text3997"
       y="849.18628"
       x="114.07245"
       style="font-size:12px;font-style:normal;font-variant:normal;font-weight:normal;font-stretch:normal;line-height:125%;letter-spacing:0px;word-spacing:0px;fill:#000000;fill-opacity:1;stroke:none;font-family:cmmi12;-inkscape-font-specification:cmmi12"
       xml:space="preserve"><tspan
         y="849.18628"
         x="114.07245"
         id="tspan3999"
         sodipodi:role="line" /></text>
    <text
       sodipodi:linespacing="125%"
       id="text4001"
       y="739.52142"
       x="257.33582"
       style="font-size:12px;font-style:normal;font-variant:normal;font-weight:normal;font-stretch:normal;line-height:125%;letter-spacing:0px;word-spacing:0px;fill:#000000;fill-opacity:1;stroke:none;font-family:cmmi12;-inkscape-font-specification:cmmi12"
       xml:space="preserve"><tspan
         y="739.52142"
         x="257.33582"
         id="tspan4003"
         sodipodi:role="line">  </tspan></text>
    <text
       sodipodi:linespacing="125%"
       id="text4009"
       y="837.7204"
       x="125.36874"
       style="font-size:12px;font-style:normal;font-variant:normal;font-weight:normal;font-stretch:normal;line-height:125%;letter-spacing:0px;word-spacing:0px;fill:#000000;fill-opacity:1;stroke:none;font-family:cmmi12;-inkscape-font-specification:cmmi12"
       xml:space="preserve"><tspan
         y="837.7204"
         x="125.36874"
         id="tspan4011"
         sodipodi:role="line" /></text>
  </g>
  <g
     inkscape:label="Слой1"
     id="layer3"
     inkscape:groupmode="layer"
     style="display:inline">
    <path
       transform="matrix(0.65760628,0,0,0.6199578,-7.59206,99.489647)"
       d="m 144.60333,142.84077 a 3.8016686,3.8092825 0 1 1 -7.60333,0 3.8016686,3.8092825 0 1 1 7.60333,0 z"
       sodipodi:ry="3.8092825"
       sodipodi:rx="3.8016686"
       sodipodi:cy="142.84077"
       sodipodi:cx="140.80167"
       id="path8623-5"
       style="fill:#ffffff;fill-rule:evenodd;stroke:#000000;stroke-width:1px;stroke-linecap:butt;stroke-linejoin:miter;stroke-opacity:1;display:inline"
       sodipodi:type="arc" />
    <g
       transform="matrix(1.25,0,0,-1.25,0,1052.5)"
       inkscape:label="ink_ext_XXXXXX"
       id="g3521">
      <g
         transform="scale(0.1,0.1)"
         id="g3523" />
    </g>
    <g
       transform="matrix(1.25,0,0,-1.25,0,1052.5)"
       inkscape:label="ink_ext_XXXXXX"
       id="g3535">
      <g
         transform="scale(0.1,0.1)"
         id="g3537" />
    </g>
    <text
       xml:space="preserve"
       style="font-size:14.93999958px;font-style:normal;font-variant:normal;font-weight:normal;font-stretch:normal;line-height:125%;letter-spacing:0px;word-spacing:0px;fill:#000000;fill-opacity:1;stroke:none;font-family:cmmi12;-inkscape-font-specification:cmmi12"
       x="104"
       y="224.03149"
       id="text6249"
       sodipodi:linespacing="125%"><tspan
         sodipodi:role="line"
         id="tspan6251"
         x="104"
         y="224.03149" /></text>
    <path
       sodipodi:nodetypes="cc"
       inkscape:connector-curvature="0"
       id="path8613"
       d="m 20,188.03149 124.81251,0"
       style="fill:none;stroke:#000000;stroke-width:0.99212599;stroke-linecap:butt;stroke-linejoin:miter;stroke-miterlimit:4;stroke-opacity:1;stroke-dasharray:none;marker-end:url(#Arrow1Mend-4)" />
    <path
       transform="matrix(1.7647059,0,0,1.6951045,-214.41176,-173.07915)"
       d="m 210,168.03149 a 40,30 0 1 1 -80,0 40,30 0 1 1 80,0 z"
       sodipodi:ry="30"
       sodipodi:rx="40"
       sodipodi:cy="168.03149"
       sodipodi:cx="170"
       id="path8615"
       style="fill:#ffffff;fill-rule:evenodd;stroke:#000000;stroke-width:0.40973624;stroke-linecap:butt;stroke-linejoin:miter;stroke-opacity:1;stroke-miterlimit:4;stroke-dasharray:none"
       sodipodi:type="arc" />
    <path
       sodipodi:nodetypes="cc"
       inkscape:connector-curvature="0"
       id="path8619"
       d="M 32.659661,118.94356 C 77.137308,118.3343 89.310319,96.77947 101.29063,75.099677"
       style="fill:none;stroke:#000000;stroke-width:0.99212598;stroke-linecap:butt;stroke-linejoin:miter;stroke-opacity:1;stroke-miterlimit:4;stroke-dasharray:none" />
    <path
       transform="matrix(0.65760628,0,0,0.6199578,-23.09206,23.337836)"
       d="m 144.60333,142.84077 a 3.8016686,3.8092825 0 1 1 -7.60333,0 3.8016686,3.8092825 0 1 1 7.60333,0 z"
       sodipodi:ry="3.8092825"
       sodipodi:rx="3.8016686"
       sodipodi:cy="142.84077"
       sodipodi:cx="140.80167"
       id="path8623"
       style="fill:#ffffff;fill-rule:evenodd;stroke:#000000;stroke-width:1px;stroke-linecap:butt;stroke-linejoin:miter;stroke-opacity:1;display:inline"
       sodipodi:type="arc" />
    <path
       sodipodi:nodetypes="cc"
       inkscape:connector-curvature="0"
       id="path8621"
       d="M 39.779349,135.8946 C 67.721702,102.36345 101.75114,100.9907 136.23002,101.99251"
       style="fill:none;stroke:#000000;stroke-width:0.99212598;stroke-linecap:butt;stroke-linejoin:miter;stroke-opacity:1;stroke-miterlimit:4;stroke-dasharray:none" />
    <path
       sodipodi:nodetypes="cc"
       inkscape:connector-curvature="0"
       id="path8679"
       d="M 115,188.03149 C 112.94652,151.75164 101.82293,124.5419 95,93.031494"
       style="fill:none;stroke:#000000;stroke-width:0.70866142;stroke-linecap:butt;stroke-linejoin:miter;stroke-opacity:1;marker-end:url(#Arrow1Mend-4);stroke-miterlimit:4;stroke-dasharray:none" />
    <path
       sodipodi:nodetypes="cc"
       inkscape:connector-curvature="0"
       id="path8681"
       d="m 115,188.03149 c -1.6823,-28.44966 -1.27508,-56.2028 5,-82"
       style="fill:none;stroke:#000000;stroke-width:0.70866142;stroke-linecap:butt;stroke-linejoin:miter;stroke-opacity:1;marker-mid:none;marker-end:url(#Arrow1Mend-4);stroke-miterlimit:4;stroke-dasharray:none" />
    <path
       style="font-style:normal;font-variant:normal;font-weight:normal;font-stretch:normal;letter-spacing:normal;word-spacing:normal;text-anchor:start;fill:#000000;stroke:#000000;stroke-width:0;stroke-linecap:butt;stroke-linejoin:miter;stroke-miterlimit:10.43299961;stroke-opacity:1;stroke-dasharray:none;stroke-dashoffset:0"
       inkscape:connector-curvature="0"
       d="m 67.915,103.27149 0.015,-0.045 0,-0.045 0.015,-0.045 0.015,-0.06 0.015,-0.045 0.015,-0.075 0.03,-0.06 0.015,-0.06 0.03,-0.075 0.03,-0.075 0.03,-0.075 0.03,-0.075 0.03,-0.075 0.03,-0.075 0.045,-0.075 0.045,-0.06 0.045,-0.075 0.045,-0.075 0.045,-0.075 0.06,-0.06 0.045,-0.06 0.06,-0.06 0.06,-0.06 0.075,-0.06 0.06,-0.045 0.075,-0.045 0.045,-0.015 0.03,-0.015 0.045,-0.03 0.045,-0.015 0.045,0 0.03,-0.015 0.045,-0.015 0.045,0 0.045,-0.015 0.045,0 0.06,0 0.045,0 c 0.075,0 0.435,0 0.75,0.18 -0.42,0.075 -0.72,0.45 -0.72,0.81 0,0.24 0.165,0.525 0.57,0.525 0.33,0 0.795,-0.27 0.795,-0.87 0,-0.78 -0.87,-0.975 -1.38,-0.975 -0.87,0 -1.395,0.78 -1.575,1.125 -0.375,-0.975 -1.185,-1.125 -1.62,-1.125 -1.545,0 -2.4,1.92 -2.4,2.295 0,0.15 0.15,0.15 0.18,0.15 0.12,0 0.165,-0.03 0.195,-0.165 0.51,-1.59 1.5,-1.95 2.01,-1.95 0.27,0 0.795,0.12 0.795,0.99 0,0.465 -0.255,1.47 -0.795,3.555 -0.24,0.93 -0.765,1.56 -1.425,1.56 -0.09,0 -0.435,0 -0.75,-0.195 0.375,-0.075 0.705,-0.39 0.705,-0.81 0,-0.405 -0.33,-0.525 -0.555,-0.525 -0.45,0 -0.825,0.39 -0.825,0.87 0,0.675 0.75,0.975 1.41,0.975 0.99,0 1.53,-1.035 1.575,-1.125 0.165,0.555 0.705,1.125 1.605,1.125 1.545,0 2.4,-1.92 2.4,-2.295 0,-0.15 -0.135,-0.15 -0.18,-0.15 -0.135,0 -0.165,0.06 -0.195,0.165 -0.495,1.605 -1.515,1.965 -1.995,1.965 -0.585,0 -0.825,-0.48 -0.825,-0.99 0,-0.33 0.09,-0.66 0.255,-1.32 z"
       id="path10373" />
    <path
       style="font-style:normal;font-variant:normal;font-weight:normal;font-stretch:normal;letter-spacing:normal;word-spacing:normal;text-anchor:start;fill:#000000;stroke:#000000;stroke-width:0;stroke-linecap:butt;stroke-linejoin:miter;stroke-miterlimit:10.43299961;stroke-opacity:1;stroke-dasharray:none;stroke-dashoffset:0"
       inkscape:connector-curvature="0"
       d="m 69.435,144.61782 0.015,-0.045 0,-0.06 0.015,-0.045 0.015,-0.03 0.015,-0.045 0.015,-0.045 0,-0.03 0.015,-0.03 0.015,-0.045 0.015,-0.03 0.03,-0.03 0.015,-0.015 0.015,-0.03 0.03,-0.03 0.03,-0.015 0.03,-0.015 0.03,-0.03 0.03,-0.015 0.045,-0.015 0.045,-0.015 0.045,-0.015 0.015,0 0.03,-0.015 0.03,0 0.03,0 0.03,-0.015 0.03,0 0.03,0 0.03,0 0.03,-0.015 0.03,0 0.045,0 0.03,0 0.045,0 0.045,0 0.03,-0.015 0.045,0 0.045,0 0.045,0 0.045,0 0.06,0 0.045,0 0.045,0 c 0.345,0 0.48,0 0.48,-0.3 0,-0.165 -0.15,-0.165 -0.405,-0.165 H 68.82 c -0.39,0 -0.405,0 -0.585,0.285 l -5.46,8.52 -1.17,-8.46 c -0.045,-0.345 -0.075,-0.345 -0.465,-0.345 H 59.1 c -0.285,0 -0.45,0 -0.45,0.285 0,0.18 0.135,0.18 0.435,0.18 0.195,0 0.465,0.015 0.645,0.03 0.24,0.03 0.33,0.075 0.33,0.24 0,0.06 -0.015,0.105 -0.06,0.285 l -1.905,7.605 c -0.15,0.585 -0.405,1.065 -1.62,1.11 -0.075,0 -0.27,0.015 -0.27,0.285 0,0.135 0.09,0.18 0.21,0.18 0.48,0 1.005,-0.045 1.5,-0.045 0.51,0 1.05,0.045 1.545,0.045 0.075,0 0.27,0 0.27,-0.3 0,-0.165 -0.165,-0.165 -0.27,-0.165 -0.855,-0.015 -1.02,-0.315 -1.02,-0.66 0,-0.105 0.015,-0.18 0.06,-0.345 l 2.04,-8.13 h 0.015 l 1.275,9.255 c 0.03,0.18 0.045,0.345 0.225,0.345 0.165,0 0.255,-0.165 0.33,-0.27 l 6.045,-9.45 h 0.015 l -2.145,8.55 c -0.15,0.585 -0.18,0.705 -1.35,0.705 -0.255,0 -0.42,0 -0.42,0.285 0,0.18 0.18,0.18 0.225,0.18 0.42,0 1.425,-0.045 1.845,-0.045 0.615,0 1.26,0.045 1.875,0.045 0.09,0 0.285,0 0.285,-0.3 0,-0.165 -0.135,-0.165 -0.42,-0.165 -0.555,0 -0.975,0 -0.975,-0.27 0,-0.06 0,-0.09 0.075,-0.36 z"
       id="path10375" />
    <path
       style="font-style:normal;font-variant:normal;font-weight:normal;font-stretch:normal;letter-spacing:normal;word-spacing:normal;text-anchor:start;fill:#000000;stroke:#000000;stroke-width:0;stroke-linecap:butt;stroke-linejoin:miter;stroke-miterlimit:10.43299961;stroke-opacity:1;stroke-dasharray:none;stroke-dashoffset:0"
       inkscape:connector-curvature="0"
       d="m 120.075,137.73149 0,0 0,0.015 0,0 -0.015,0.015 0,0.015 0,0.015 -0.015,0.015 0,0.015 0,0.015 0,0.015 -0.015,0 0,0.015 0,0.015 0,0 0,0.015 -0.015,0.015 0,0 0,0.015 0,0 0,0.015 0,0 0,0.015 0,0 -0.015,0 0,0.015 0,0.015 0,0.015 0,0.015 0,0 0,0.015 c 0,0.33 0.285,0.42 0.435,0.42 0.075,0 0.405,-0.06 0.555,-0.39 0.045,-0.12 0.12,-0.615 0.525,-2.745 0.135,0.03 0.24,0.03 0.495,0.03 2.475,0 4.785,-2.34 4.785,-4.695 l -0.42,0.33 c 0,1.68 -1.935,3.51 -4.23,3.51 h 0 c -0.12,0 -0.15,0 -0.27,-0.015 -0.18,0 -0.195,-0.015 -0.195,-0.06 0,-0.03 0.255,-1.395 0.3,-1.62 0.465,-1.905 1.62,-3.345 2.955,-3.345 1.035,0 1.44,0.81 1.44,1.53 l 0.42,-0.33 c 0,-1.17 -0.585,-2.055 -1.71,-2.055 -2.175,0 -3.06,2.895 -3.96,5.805 -1.62,-0.3 -2.46,-1.14 -2.46,-2.22 0,-0.405 0.345,-2.055 1.245,-3.09 0.12,-0.12 0.12,-0.165 0.12,-0.195 0,-0.06 -0.03,-0.15 -0.18,-0.15 -0.42,0 -1.575,2.175 -1.575,3.6 0,1.41 0.99,2.505 2.595,2.865 z"
       id="path10377" />
    <path
       style="font-style:normal;font-variant:normal;font-weight:normal;font-stretch:normal;letter-spacing:normal;word-spacing:normal;text-anchor:start;fill:#000000;stroke:#000000;stroke-width:0;stroke-linecap:butt;stroke-linejoin:miter;stroke-miterlimit:10.43299961;stroke-opacity:1;stroke-dasharray:none;stroke-dashoffset:0"
       inkscape:connector-curvature="0"
       d="m 98.17,126.28149 0,0 0,-0.015 0,0 0.015,0 0,-0.015 0,-0.015 0,-0.015 0,-0.015 0.015,-0.015 0,-0.015 0,-0.015 0,-0.015 0.015,-0.015 0,-0.015 0,-0.015 0,-0.015 0,0 0,-0.015 0,0 0,-0.015 c 0,-0.15 -0.105,-0.165 -0.18,-0.165 -0.15,0 -0.165,0.03 -0.225,0.3 l -2.475,9.87 c -1.14,-0.135 -1.71,-0.69 -1.71,-1.665 0,-0.3 0,-0.69 0.81,-2.775 0.06,-0.18 0.165,-0.435 0.165,-0.735 0,-0.675 -0.48,-1.23 -1.23,-1.23 -1.425,0 -1.98,2.16 -1.98,2.295 0,0.15 0.15,0.15 0.195,0.15 0.135,0 0.15,-0.03 0.225,-0.27 0.405,-1.41 1.005,-1.845 1.515,-1.845 0.12,0 0.375,0 0.375,0.48 0,0.39 -0.15,0.765 -0.345,1.275 -0.72,1.89 -0.72,2.28 -0.72,2.535 0,1.41 1.17,2.025 2.61,2.115 -0.12,0.54 -0.12,0.57 -0.33,1.35 -0.045,0.165 -0.345,1.38 -0.345,1.425 0,0.015 0,0.15 0.18,0.15 0.03,0 0.105,0 0.135,-0.06 0.045,-0.03 0.135,-0.405 0.18,-0.615 l 0.57,-2.22 c 0.54,0 1.86,0 3.27,-1.605 0.615,-0.675 0.93,-1.335 1.095,-1.785 0.135,-0.375 0.465,-1.665 0.465,-2.325 0,-0.84 -0.405,-1.05 -0.66,-1.05 -0.375,0 -0.75,0.39 -0.75,0.72 0,0.195 0.09,0.285 0.225,0.405 0.165,0.165 0.54,0.555 0.54,1.26 0,0.96 -0.78,2.19 -1.305,2.715 -1.32,1.335 -2.265,1.335 -2.805,1.335 z"
       id="path10379" />
    <path
       style="font-style:normal;font-variant:normal;font-weight:normal;font-stretch:normal;letter-spacing:normal;word-spacing:normal;text-anchor:start;fill:#000000;stroke:#000000;stroke-width:0;stroke-linecap:butt;stroke-linejoin:miter;stroke-miterlimit:10.43299961;stroke-opacity:1;stroke-dasharray:none;stroke-dashoffset:0"
       inkscape:connector-curvature="0"
       d="m 80,178.03149 0,-0.225 0,-0.225 -0.015,-0.225 0,-0.225 -0.015,-0.21 -0.015,-0.225 -0.03,-0.225 -0.03,-0.225 -0.03,-0.21 -0.045,-0.225 -0.045,-0.21 -0.06,-0.225 -0.06,-0.21 -0.075,-0.21 -0.09,-0.21 -0.045,-0.105 -0.045,-0.105 c -0.69,-1.425 -1.905,-1.665 -2.535,-1.665 -0.9,0 -1.995,0.39 -2.61,1.77 -0.465,1.035 -0.555,2.205 -0.555,3.39 0,1.125 0.06,2.46 0.675,3.6 0.645,1.215 1.74,1.5 2.475,1.5 v -0.315 c -0.585,0 -1.47,-0.375 -1.74,-1.815 -0.165,-0.885 -0.165,-2.265 -0.165,-3.15 0,-0.945 0,-1.935 0.12,-2.745 0.285,-1.77 1.41,-1.905 1.785,-1.905 0.495,0 1.485,0.27 1.755,1.74 0.15,0.84 0.15,1.98 0.15,2.91 0,1.125 0,2.145 -0.165,3.09 -0.21,1.425 -1.065,1.875 -1.74,1.875 h 0 v 0.315 c 0.81,0 1.935,-0.3 2.595,-1.725 0.48,-1.035 0.555,-2.19 0.555,-3.375 z"
       id="path10381" />
    <path
       style="font-style:normal;font-variant:normal;font-weight:normal;font-stretch:normal;letter-spacing:normal;word-spacing:normal;text-anchor:start;fill:#000000;stroke:#000000;stroke-width:0;stroke-linecap:butt;stroke-linejoin:miter;stroke-miterlimit:10.43299961;stroke-opacity:1;stroke-dasharray:none;stroke-dashoffset:0"
       inkscape:connector-curvature="0"
       d="m 142.325,178.03149 h 1.41 c 0.3,0 0.45,0 0.45,-0.3 0,-0.165 -0.15,-0.165 -0.42,-0.165 h -1.32 c 0.54,-2.115 0.615,-2.415 0.615,-2.505 0,-0.255 -0.18,-0.405 -0.435,-0.405 -0.045,0 -0.465,0.015 -0.6,0.54 l -0.585,2.37 h -1.41 c -0.285,0 -0.45,0 -0.45,0.285 0,0.18 0.12,0.18 0.42,0.18 h 1.32 c -1.08,4.245 -1.14,4.5 -1.14,4.755 0,0.81 0.57,1.38 1.38,1.38 1.53,0 2.385,-2.175 2.385,-2.295 0,-0.15 -0.12,-0.15 -0.18,-0.15 -0.135,0 -0.15,0.045 -0.225,0.21 -0.645,1.545 -1.44,1.905 -1.95,1.905 -0.315,0 -0.465,-0.195 -0.465,-0.69 0,-0.36 0.03,-0.45 0.09,-0.705 z"
       id="path10383" />
  </g>
</svg>
