<?xml version="1.0" encoding="UTF-8" standalone="no"?>
<!-- Created with Inkscape (http://www.inkscape.org/) -->

<svg
   xmlns:dc="http://purl.org/dc/elements/1.1/"
   xmlns:cc="http://creativecommons.org/ns#"
   xmlns:rdf="http://www.w3.org/1999/02/22-rdf-syntax-ns#"
   xmlns:svg="http://www.w3.org/2000/svg"
   xmlns="http://www.w3.org/2000/svg"
   xmlns:sodipodi="http://sodipodi.sourceforge.net/DTD/sodipodi-0.dtd"
   xmlns:inkscape="http://www.inkscape.org/namespaces/inkscape"
   width="325.98425"
   height="248.03149"
   id="svg2"
   version="1.1"
   inkscape:version="0.48.0 r9654"
   sodipodi:docname="def1.pdf"
   enable-background="new">
  <sodipodi:namedview
     id="base"
     pagecolor="#ffffff"
     bordercolor="#666666"
     borderopacity="1.0"
     inkscape:pageopacity="0.0"
     inkscape:pageshadow="2"
     inkscape:zoom="0.70710678"
     inkscape:cx="160.45382"
     inkscape:cy="12.212161"
     inkscape:document-units="cm"
     inkscape:current-layer="layer3"
     showgrid="true"
     inkscape:window-width="800"
     inkscape:window-height="579"
     inkscape:window-x="-4"
     inkscape:window-y="-4"
     inkscape:window-maximized="1"
     units="cm"
     width="9.2cm"
     showguides="true"
     inkscape:guide-bbox="true"
     inkscape:showpageshadow="false"
     objecttolerance="4"
     gridtolerance="4">
    <inkscape:grid
       snapvisiblegridlinesonly="true"
       enabled="true"
       visible="true"
       empspacing="5"
       id="grid3254"
       type="xygrid" />
  </sodipodi:namedview>
  <defs
     id="defs4"><marker
   style="overflow:visible;"
   id="Arrow1Send"
   refX="0.0"
   refY="0.0"
   orient="auto"
   inkscape:stockid="Arrow1Send">
  <path
     transform="scale(0.2) rotate(180) translate(6,0)"
     style="fill-rule:evenodd;stroke:#000000;stroke-width:1.0pt;marker-start:none;"
     d="M 0.0,0.0 L 5.0,-5.0 L -12.5,0.0 L 5.0,5.0 L 0.0,0.0 z "
     id="path3997" />
</marker>
<marker
   style="overflow:visible"
   id="Arrow1Sstart"
   refX="0.0"
   refY="0.0"
   orient="auto"
   inkscape:stockid="Arrow1Sstart">
  <path
     transform="scale(0.2) translate(6,0)"
     style="fill-rule:evenodd;stroke:#000000;stroke-width:1.0pt;marker-start:none"
     d="M 0.0,0.0 L 5.0,-5.0 L -12.5,0.0 L 5.0,5.0 L 0.0,0.0 z "
     id="path3994" />
</marker>
<marker
   style="overflow:visible;"
   id="Arrow1Mend"
   refX="0.0"
   refY="0.0"
   orient="auto"
   inkscape:stockid="Arrow1Mend">
  <path
     transform="scale(0.4) rotate(180) translate(10,0)"
     style="fill-rule:evenodd;stroke:#000000;stroke-width:1.0pt;marker-start:none;"
     d="M 0.0,0.0 L 5.0,-5.0 L -12.5,0.0 L 5.0,5.0 L 0.0,0.0 z "
     id="path3991" />
</marker>
<marker
   style="overflow:visible"
   id="Arrow1Mstart"
   refX="0.0"
   refY="0.0"
   orient="auto"
   inkscape:stockid="Arrow1Mstart">
  <path
     transform="scale(0.4) translate(10,0)"
     style="fill-rule:evenodd;stroke:#000000;stroke-width:1.0pt;marker-start:none"
     d="M 0.0,0.0 L 5.0,-5.0 L -12.5,0.0 L 5.0,5.0 L 0.0,0.0 z "
     id="path3988" />
</marker>
<marker
   style="overflow:visible;"
   id="Arrow2Lend"
   refX="0.0"
   refY="0.0"
   orient="auto"
   inkscape:stockid="Arrow2Lend">
  <path
     transform="scale(1.1) rotate(180) translate(1,0)"
     d="M 8.7185878,4.0337352 L -2.2072895,0.016013256 L 8.7185884,-4.0017078 C 6.9730900,-1.6296469 6.9831476,1.6157441 8.7185878,4.0337352 z "
     style="font-size:12.0;fill-rule:evenodd;stroke-width:0.62500000;stroke-linejoin:round;"
     id="path4003" />
</marker>
<marker
   style="overflow:visible"
   id="Arrow2Lstart"
   refX="0.0"
   refY="0.0"
   orient="auto"
   inkscape:stockid="Arrow2Lstart">
  <path
     transform="scale(1.1) translate(1,0)"
     d="M 8.7185878,4.0337352 L -2.2072895,0.016013256 L 8.7185884,-4.0017078 C 6.9730900,-1.6296469 6.9831476,1.6157441 8.7185878,4.0337352 z "
     style="font-size:12.0;fill-rule:evenodd;stroke-width:0.62500000;stroke-linejoin:round"
     id="path4000" />
</marker>
<marker
   inkscape:stockid="Arrow1Lend"
   orient="auto"
   refY="0"
   refX="0"
   id="Arrow1Lend"
   style="overflow:visible">
  <path
     inkscape:connector-curvature="0"
     id="path4440"
     d="M 0,0 5,-5 -12.5,0 5,5 0,0 z"
     style="fill-rule:evenodd;stroke:#000000;stroke-width:1pt;marker-start:none"
     transform="matrix(-0.8,0,0,-0.8,-10,0)" />
</marker>
<marker
   inkscape:stockid="Arrow1Lstart"
   orient="auto"
   refY="0"
   refX="0"
   id="Arrow1Lstart"
   style="overflow:visible">
  <path
     inkscape:connector-curvature="0"
     id="path4437"
     d="M 0,0 5,-5 -12.5,0 5,5 0,0 z"
     style="fill-rule:evenodd;stroke:#000000;stroke-width:1pt;marker-start:none"
     transform="matrix(0.8,0,0,0.8,10,0)" />
</marker>
<marker
   style="overflow:visible"
   id="Arrow2Lstart-4"
   refX="0"
   refY="0"
   orient="auto"
   inkscape:stockid="Arrow2Lstart">
  <path
     transform="matrix(1.1,0,0,1.1,1.1,0)"
     d="M 8.7185878,4.0337352 -2.2072895,0.01601326 8.7185884,-4.0017078 c -1.7454984,2.3720609 -1.7354408,5.6174519 -6e-7,8.035443 z"
     style="font-size:12px;fill-rule:evenodd;stroke-width:0.625;stroke-linejoin:round"
     id="path4000-4"
     inkscape:connector-curvature="0" />
</marker>
<marker
   style="overflow:visible"
   id="Arrow2Lend-3"
   refX="0"
   refY="0"
   orient="auto"
   inkscape:stockid="Arrow2Lend">
  <path
     transform="matrix(-1.1,0,0,-1.1,-1.1,0)"
     d="M 8.7185878,4.0337352 -2.2072895,0.01601326 8.7185884,-4.0017078 c -1.7454984,2.3720609 -1.7354408,5.6174519 -6e-7,8.035443 z"
     style="font-size:12px;fill-rule:evenodd;stroke-width:0.625;stroke-linejoin:round"
     id="path4003-0"
     inkscape:connector-curvature="0" />
</marker>
<marker
   style="overflow:visible"
   id="marker7119"
   refX="0"
   refY="0"
   orient="auto"
   inkscape:stockid="Arrow2Lend">
  <path
     transform="matrix(-1.1,0,0,-1.1,-1.1,0)"
     d="M 8.7185878,4.0337352 -2.2072895,0.01601326 8.7185884,-4.0017078 c -1.7454984,2.3720609 -1.7354408,5.6174519 -6e-7,8.035443 z"
     style="font-size:12px;fill-rule:evenodd;stroke-width:0.625;stroke-linejoin:round"
     id="path7121"
     inkscape:connector-curvature="0" />
</marker>
<marker
   style="overflow:visible"
   id="Arrow1Mstart-3"
   refX="0"
   refY="0"
   orient="auto"
   inkscape:stockid="Arrow1Mstart">
  <path
     transform="matrix(0.4,0,0,0.4,4,0)"
     style="fill-rule:evenodd;stroke:#000000;stroke-width:1pt;marker-start:none"
     d="M 0,0 5,-5 -12.5,0 5,5 0,0 z"
     id="path3988-7"
     inkscape:connector-curvature="0" />
</marker>
<marker
   style="overflow:visible"
   id="Arrow1Mend-5"
   refX="0"
   refY="0"
   orient="auto"
   inkscape:stockid="Arrow1Mend">
  <path
     transform="matrix(-0.4,0,0,-0.4,-4,0)"
     style="fill-rule:evenodd;stroke:#000000;stroke-width:1pt;marker-start:none"
     d="M 0,0 5,-5 -12.5,0 5,5 0,0 z"
     id="path3991-5"
     inkscape:connector-curvature="0" />
</marker>
<marker
   style="overflow:visible"
   id="Arrow1Mend-4"
   refX="0"
   refY="0"
   orient="auto"
   inkscape:stockid="Arrow1Mend">
  <path
     transform="matrix(-0.4,0,0,-0.4,-4,0)"
     style="fill-rule:evenodd;stroke:#000000;stroke-width:1pt;marker-start:none"
     d="M 0,0 5,-5 -12.5,0 5,5 0,0 z"
     id="path3991-2"
     inkscape:connector-curvature="0" />
</marker>




</defs>
  <metadata
     id="metadata7">
    <rdf:RDF>
      <cc:Work
         rdf:about="">
        <dc:format>image/svg+xml</dc:format>
        <dc:type
           rdf:resource="http://purl.org/dc/dcmitype/StillImage" />
        <dc:title></dc:title>
      </cc:Work>
    </rdf:RDF>
  </metadata>
  <g
     style="display:none"
     inkscape:label="Надписи"
     id="layer5"
     inkscape:groupmode="layer" />
  <g
     style="display:none"
     inkscape:label="Слой3"
     id="layer4"
     inkscape:groupmode="layer" />
  <g
     style="display:none"
     transform="translate(0,-804.32946)"
     inkscape:groupmode="layer"
     id="layer2"
     inkscape:label="Слой2">
    <text
       xml:space="preserve"
       style="font-size:12px;font-style:normal;font-variant:normal;font-weight:normal;font-stretch:normal;line-height:125%;letter-spacing:0px;word-spacing:0px;fill:#000000;fill-opacity:1;stroke:none;font-family:cmmi12;-inkscape-font-specification:cmmi12"
       x="114.07245"
       y="849.18628"
       id="text3997"
       sodipodi:linespacing="125%"><tspan
         sodipodi:role="line"
         id="tspan3999"
         x="114.07245"
         y="849.18628" /></text>
    <text
       xml:space="preserve"
       style="font-size:12px;font-style:normal;font-variant:normal;font-weight:normal;font-stretch:normal;line-height:125%;letter-spacing:0px;word-spacing:0px;fill:#000000;fill-opacity:1;stroke:none;font-family:cmmi12;-inkscape-font-specification:cmmi12"
       x="257.33582"
       y="739.52142"
       id="text4001"
       sodipodi:linespacing="125%"><tspan
         sodipodi:role="line"
         id="tspan4003"
         x="257.33582"
         y="739.52142">  </tspan></text>
    <text
       xml:space="preserve"
       style="font-size:12px;font-style:normal;font-variant:normal;font-weight:normal;font-stretch:normal;line-height:125%;letter-spacing:0px;word-spacing:0px;fill:#000000;fill-opacity:1;stroke:none;font-family:cmmi12;-inkscape-font-specification:cmmi12"
       x="125.36874"
       y="837.7204"
       id="text4009"
       sodipodi:linespacing="125%"><tspan
         sodipodi:role="line"
         id="tspan4011"
         x="125.36874"
         y="837.7204" /></text>
  </g>
  <g
     style="display:inline"
     inkscape:groupmode="layer"
     id="layer3"
     inkscape:label="Слой1">
    <path
       inkscape:connector-curvature="0"
       id="path3203"
       d="m 25,88.031494 272.47321,0"
       style="fill:none;stroke:#000000;stroke-width:1px;stroke-linecap:butt;stroke-linejoin:miter;stroke-opacity:1" />
    <path
       inkscape:connector-curvature="0"
       id="path3203-1"
       d="m 25,158.03149 272.47321,0"
       style="fill:none;stroke:#000000;stroke-width:1px;stroke-linecap:butt;stroke-linejoin:miter;stroke-opacity:1;display:inline" />
    <path
       inkscape:connector-curvature="0"
       id="path3256"
       d="m 40,153.03149 0,10"
       style="fill:none;stroke:#000000;stroke-width:1px;stroke-linecap:butt;stroke-linejoin:miter;stroke-opacity:1" />
    <path
       inkscape:connector-curvature="0"
       id="path3258"
       d="m 40,83.031494 0,10"
       style="fill:none;stroke:#000000;stroke-width:1px;stroke-linecap:butt;stroke-linejoin:miter;stroke-opacity:1" />
    <path
       inkscape:connector-curvature="0"
       id="path3260"
       d="m 160,83.738601 0,10"
       style="fill:none;stroke:#000000;stroke-width:1px;stroke-linecap:butt;stroke-linejoin:miter;stroke-opacity:1" />
    <path
       inkscape:connector-curvature="0"
       id="path3262"
       d="m 180,153.7386 0,10"
       style="fill:none;stroke:#000000;stroke-width:1px;stroke-linecap:butt;stroke-linejoin:miter;stroke-opacity:1" />
    <g
       id="g3521"
       inkscape:label="ink_ext_XXXXXX"
       transform="matrix(1.25,0,0,-1.25,0,1052.5)">
      <g
         id="g3523"
         transform="scale(0.1,0.1)" />
    </g>
    <g
       id="g3535"
       inkscape:label="ink_ext_XXXXXX"
       transform="matrix(1.25,0,0,-1.25,0,1052.5)">
      <g
         id="g3537"
         transform="scale(0.1,0.1)" />
    </g>
    <path
       style="font-style:normal;font-variant:normal;font-weight:normal;font-stretch:normal;letter-spacing:normal;word-spacing:normal;text-anchor:start;fill:#000000;fill-opacity:1;fill-rule:evenodd;stroke:#000000;stroke-width:0;stroke-linecap:butt;stroke-linejoin:miter;stroke-miterlimit:10.43299961;stroke-opacity:1;stroke-dasharray:none;stroke-dashoffset:0"
       inkscape:connector-curvature="0"
       d="m 96.61,72.346494 -1.26,-2.97 c -0.045,-0.12 -0.075,-0.18 -0.075,-0.195 0,-0.09 0.255,-0.36 0.885,-0.42 0.15,-0.015 0.3,-0.03 0.3,-0.285 0,-0.18 -0.18,-0.18 -0.225,-0.18 -0.615,0 -1.26,0.045 -1.89,0.045 -0.375,0 -1.305,-0.045 -1.665,-0.045 -0.09,0 -0.27,0 -0.27,0.3 0,0.165 0.15,0.165 0.345,0.165 0.885,0 0.975,0.135 1.11,0.48 l 1.77,4.155 -3.15,3.39 -0.195,0.165 c -0.735,0.795 -1.44,1.035 -2.205,1.08 -0.195,0.015 -0.33,0.015 -0.33,0.3 0,0.015 0,0.15 0.195,0.15 0.45,0 0.945,-0.045 1.41,-0.045 0.555,0 1.14,0.045 1.68,0.045 0.075,0 0.27,0 0.27,-0.285 0,-0.15 -0.15,-0.165 -0.195,-0.165 -0.12,-0.015 -0.585,-0.045 -0.585,-0.465 0,-0.24 0.225,-0.48 0.405,-0.675 l 1.515,-1.62 1.35,-1.455 1.515,3.57 c 0.06,0.165 0.075,0.18 0.075,0.21 0,0.12 -0.285,0.375 -0.87,0.435 -0.165,0.015 -0.3,0.03 -0.3,0.285 0,0.165 0.165,0.165 0.225,0.165 0.42,0 1.455,-0.045 1.875,-0.045 0.375,0 1.29,0.045 1.665,0.045 0.105,0 0.285,0 0.285,-0.27 0,-0.18 -0.15,-0.18 -0.27,-0.18 -1.005,-0.015 -1.035,-0.06 -1.29,-0.66 -0.57,-1.395 -1.575,-3.72 -1.92,-4.62 1.02,-1.035 2.58,-2.82 3.06,-3.24 0.435,-0.345 1.005,-0.705 1.905,-0.75 0.195,-0.015 0.33,-0.015 0.33,-0.3 0,-0.015 0,-0.165 -0.195,-0.165 -0.45,0 -0.945,0.045 -1.41,0.045 -0.555,0 -1.125,-0.045 -1.665,-0.045 -0.09,0 -0.285,0 -0.285,0.3 0,0.105 0.075,0.15 0.18,0.165 0.135,0.015 0.6,0.045 0.6,0.465 0,0.195 -0.165,0.39 -0.285,0.525 z"
       id="path5066" />
    <g
       id="g5183"
       transform="translate(21.595,83.891494)">
      <path
         id="path5068"
         d="M 78.795,58.17 77.535,55.2 C 77.49,55.08 77.46,55.02 77.46,55.005 c 0,-0.09 0.255,-0.36 0.885,-0.42 0.15,-0.015 0.3,-0.03 0.3,-0.285 0,-0.18 -0.18,-0.18 -0.225,-0.18 -0.615,0 -1.26,0.045 -1.89,0.045 -0.375,0 -1.305,-0.045 -1.68,-0.045 -0.075,0 -0.255,0 -0.255,0.3 0,0.165 0.135,0.165 0.345,0.165 0.885,0 0.975,0.135 1.11,0.48 l 1.77,4.155 -3.165,3.39 -0.18,0.165 c -0.735,0.795 -1.44,1.035 -2.205,1.08 -0.195,0.015 -0.33,0.015 -0.33,0.3 0,0.015 0,0.15 0.195,0.15 0.45,0 0.945,-0.045 1.41,-0.045 0.555,0 1.14,0.045 1.665,0.045 0.09,0 0.27,0 0.27,-0.285 0,-0.15 -0.15,-0.165 -0.18,-0.165 -0.135,-0.015 -0.6,-0.045 -0.6,-0.465 0,-0.24 0.24,-0.48 0.405,-0.675 l 1.53,-1.62 1.35,-1.455 1.5,3.57 c 0.075,0.165 0.075,0.18 0.075,0.21 0,0.12 -0.27,0.375 -0.855,0.435 -0.165,0.015 -0.3,0.03 -0.3,0.285 0,0.165 0.165,0.165 0.225,0.165 0.42,0 1.455,-0.045 1.875,-0.045 0.375,0 1.29,0.045 1.665,0.045 0.105,0 0.285,0 0.285,-0.27 0,-0.18 -0.15,-0.18 -0.27,-0.18 -1.005,-0.015 -1.035,-0.06 -1.29,-0.66 -0.585,-1.395 -1.575,-3.72 -1.92,-4.62 1.005,-1.035 2.58,-2.82 3.06,-3.24 0.435,-0.345 1.005,-0.705 1.905,-0.75 0.18,-0.015 0.315,-0.015 0.315,-0.3 0,-0.015 0,-0.165 -0.18,-0.165 -0.45,0 -0.945,0.045 -1.41,0.045 -0.555,0 -1.125,-0.045 -1.665,-0.045 -0.09,0 -0.285,0 -0.285,0.3 0,0.105 0.075,0.15 0.18,0.165 0.135,0.015 0.6,0.045 0.6,0.465 0,0.195 -0.165,0.39 -0.285,0.525 z"
         inkscape:connector-curvature="0"
         style="font-style:normal;font-variant:normal;font-weight:normal;font-stretch:normal;letter-spacing:normal;word-spacing:normal;text-anchor:start;fill:#000000;fill-opacity:1;fill-rule:evenodd;stroke:#000000;stroke-width:0;stroke-linecap:butt;stroke-linejoin:miter;stroke-miterlimit:10.43299961;stroke-opacity:1;stroke-dasharray:none;stroke-dashoffset:0" />
      <path
         id="path5070"
         d="m 94.53,60.885 h 4.17 c 0.21,0 0.495,0 0.495,-0.3 0,-0.3 -0.285,-0.3 -0.495,-0.3 H 94.53 V 56.1 c 0,-0.21 0,-0.495 -0.3,-0.495 -0.3,0 -0.3,0.285 -0.3,0.495 v 4.185 h -4.185 c -0.21,0 -0.495,0 -0.495,0.3 0,0.3 0.285,0.3 0.495,0.3 h 4.185 v 4.17 c 0,0.21 0,0.495 0.3,0.495 0.3,0 0.3,-0.285 0.3,-0.495 z"
         inkscape:connector-curvature="0"
         style="font-style:normal;font-variant:normal;font-weight:normal;font-stretch:normal;letter-spacing:normal;word-spacing:normal;text-anchor:start;fill:#000000;fill-opacity:1;fill-rule:evenodd;stroke:#000000;stroke-width:0;stroke-linecap:butt;stroke-linejoin:miter;stroke-miterlimit:10.43299961;stroke-opacity:1;stroke-dasharray:none;stroke-dashoffset:0" />
      <path
         id="path5072"
         d="m 108.6,63.48 0.015,0.06 0.015,0.045 0.015,0.06 0.03,0.045 0.03,0.06 0.015,0.045 0.03,0.045 0.03,0.045 0.03,0.045 0.045,0.045 0.03,0.045 0.03,0.045 0.045,0.03 0.03,0.045 0.045,0.03 0.045,0.03 0.045,0.045 0.045,0.015 0.045,0.03 0.045,0.03 0.06,0.03 0.045,0.015 0.045,0.03 0.06,0.015 0.06,0.015 0.045,0.015 0.06,0.015 0.06,0 0.06,0.015 0.045,0 0.06,0 0.06,0 c 0.525,0 0.87,-0.33 1.11,-0.81 0.255,-0.54 0.45,-1.455 0.45,-1.485 0,-0.15 -0.135,-0.15 -0.18,-0.15 -0.15,0 -0.165,0.06 -0.21,0.27 -0.21,0.84 -0.495,1.86 -1.125,1.86 -0.3,0 -0.45,-0.195 -0.45,-0.69 0,-0.33 0.18,-1.035 0.285,-1.56 l 0.42,-1.605 c 0.045,-0.225 0.195,-0.795 0.255,-1.02 0.075,-0.345 0.225,-0.915 0.225,-1.005 0,-0.27 -0.21,-0.39 -0.435,-0.39 -0.075,0 -0.465,0 -0.57,0.51 -0.3,1.095 -0.945,3.705 -1.125,4.5 -0.015,0.06 -0.615,1.26 -1.71,1.26 -0.78,0 -0.93,-0.675 -0.93,-1.23 0,-0.84 0.42,-2.01 0.81,-3.045 0.18,-0.45 0.255,-0.66 0.255,-0.945 0,-0.675 -0.48,-1.215 -1.23,-1.215 -1.41,0 -1.965,2.16 -1.965,2.295 0,0.15 0.15,0.15 0.18,0.15 0.15,0 0.165,-0.03 0.24,-0.27 0.375,-1.305 0.93,-1.845 1.5,-1.845 0.135,0 0.375,0.015 0.375,0.48 0,0.36 -0.165,0.795 -0.255,1.02 -0.555,1.47 -0.87,2.4 -0.87,3.135 0,1.425 1.035,1.785 1.845,1.785 0.99,0 1.53,-0.66 1.785,-0.99 z"
         inkscape:connector-curvature="0"
         style="font-style:normal;font-variant:normal;font-weight:normal;font-stretch:normal;letter-spacing:normal;word-spacing:normal;text-anchor:start;fill:#000000;fill-opacity:1;fill-rule:evenodd;stroke:#000000;stroke-width:0;stroke-linecap:butt;stroke-linejoin:miter;stroke-miterlimit:10.43299961;stroke-opacity:1;stroke-dasharray:none;stroke-dashoffset:0" />
    </g>
    <g
       id="g5172"
       transform="translate(57.36,12.921494)">
      <path
         id="path5074"
         d="m 123.51,53.895 -0.015,-0.015 0,-0.03 -0.015,-0.015 -0.015,-0.015 0,-0.015 -0.015,-0.015 0,-0.015 -0.015,0 0,-0.015 -0.015,-0.015 0,-0.015 -0.015,-0.015 0,0 -0.015,-0.015 -0.015,0 0,-0.015 -0.015,-0.015 -0.015,0 0,0 -0.015,-0.015 -0.015,0 -0.015,-0.015 -0.015,0 -0.015,0 -0.015,0 -0.015,-0.015 -0.015,0 -0.015,0 -0.03,0 -0.015,0 -0.015,0 -0.03,0 c -0.255,0 -0.285,0.075 -0.39,0.27 l -0.09,1.215 4.02,8.07 h -8.055 l 4.035,-8.07 0.09,-1.215 -5.055,10.125 c -0.075,0.135 -0.075,0.15 -0.075,0.165 0,0.12 0.09,0.12 0.33,0.12 h 10.38 c 0.24,0 0.33,0 0.33,-0.12 0,-0.015 0,-0.03 -0.075,-0.165 z"
         inkscape:connector-curvature="0"
         style="font-style:normal;font-variant:normal;font-weight:normal;font-stretch:normal;letter-spacing:normal;word-spacing:normal;text-anchor:start;fill:#000000;fill-opacity:1;fill-rule:evenodd;stroke:#000000;stroke-width:0;stroke-linecap:butt;stroke-linejoin:miter;stroke-miterlimit:10.43299961;stroke-opacity:1;stroke-dasharray:none;stroke-dashoffset:0" />
      <path
         id="path5076"
         d="m 136.605,58.17 -1.26,-2.97 c -0.045,-0.12 -0.075,-0.18 -0.075,-0.195 0,-0.09 0.255,-0.36 0.885,-0.42 0.15,-0.015 0.3,-0.03 0.3,-0.285 0,-0.18 -0.18,-0.18 -0.225,-0.18 -0.615,0 -1.26,0.045 -1.89,0.045 -0.36,0 -1.29,-0.045 -1.665,-0.045 -0.09,0 -0.27,0 -0.27,0.3 0,0.165 0.15,0.165 0.345,0.165 0.9,0 0.99,0.135 1.11,0.48 l 1.77,4.155 -3.15,3.39 -0.195,0.165 c -0.735,0.795 -1.44,1.035 -2.205,1.08 -0.195,0.015 -0.33,0.015 -0.33,0.3 0,0.015 0,0.15 0.195,0.15 0.45,0 0.945,-0.045 1.41,-0.045 0.555,0 1.14,0.045 1.68,0.045 0.09,0 0.27,0 0.27,-0.285 0,-0.15 -0.15,-0.165 -0.18,-0.165 -0.135,-0.015 -0.6,-0.045 -0.6,-0.465 0,-0.24 0.225,-0.48 0.405,-0.675 l 1.515,-1.62 1.35,-1.455 1.515,3.57 c 0.06,0.165 0.075,0.18 0.075,0.21 0,0.12 -0.285,0.375 -0.87,0.435 -0.165,0.015 -0.3,0.03 -0.3,0.285 0,0.165 0.165,0.165 0.225,0.165 0.42,0 1.47,-0.045 1.89,-0.045 0.36,0 1.275,0.045 1.65,0.045 0.105,0 0.285,0 0.285,-0.27 0,-0.18 -0.15,-0.18 -0.27,-0.18 -0.99,-0.015 -1.035,-0.06 -1.275,-0.66 -0.585,-1.395 -1.59,-3.72 -1.935,-4.62 1.02,-1.035 2.58,-2.82 3.06,-3.24 0.435,-0.345 1.005,-0.705 1.905,-0.75 0.195,-0.015 0.33,-0.015 0.33,-0.3 0,-0.015 0,-0.165 -0.195,-0.165 -0.45,0 -0.945,0.045 -1.41,0.045 -0.555,0 -1.125,-0.045 -1.65,-0.045 -0.105,0 -0.285,0 -0.285,0.3 0,0.105 0.06,0.15 0.18,0.165 0.135,0.015 0.585,0.045 0.585,0.465 0,0.195 -0.165,0.39 -0.285,0.525 z"
         inkscape:connector-curvature="0"
         style="font-style:normal;font-variant:normal;font-weight:normal;font-stretch:normal;letter-spacing:normal;word-spacing:normal;text-anchor:start;fill:#000000;fill-opacity:1;fill-rule:evenodd;stroke:#000000;stroke-width:0;stroke-linecap:butt;stroke-linejoin:miter;stroke-miterlimit:10.43299961;stroke-opacity:1;stroke-dasharray:none;stroke-dashoffset:0" />
    </g>
    <g
       id="g5176"
       transform="translate(47.27,82.481494)">
      <path
         id="path5078"
         d="m 154.5,53.895 -0.015,-0.015 -0.015,-0.03 0,-0.015 -0.015,-0.015 0,-0.015 -0.015,-0.015 0,-0.015 -0.015,0 0,-0.015 -0.015,-0.015 -0.015,-0.015 0,-0.015 -0.015,0 0,-0.015 -0.015,0 -0.015,-0.015 0,-0.015 -0.015,0 -0.015,0 0,-0.015 -0.015,0 -0.015,-0.015 -0.015,0 -0.015,0 -0.015,0 -0.015,-0.015 -0.015,0 -0.03,0 -0.015,0 -0.015,0 -0.03,0 -0.015,0 c -0.255,0 -0.285,0.075 -0.39,0.27 l -0.09,1.215 4.02,8.07 h -8.055 l 4.035,-8.07 0.09,-1.215 -5.055,10.125 c -0.075,0.135 -0.075,0.15 -0.075,0.165 0,0.12 0.09,0.12 0.33,0.12 h 10.38 c 0.24,0 0.33,0 0.33,-0.12 0,-0.015 0,-0.03 -0.075,-0.165 z"
         inkscape:connector-curvature="0"
         style="font-style:normal;font-variant:normal;font-weight:normal;font-stretch:normal;letter-spacing:normal;word-spacing:normal;text-anchor:start;fill:#000000;fill-opacity:1;fill-rule:evenodd;stroke:#000000;stroke-width:0;stroke-linecap:butt;stroke-linejoin:miter;stroke-miterlimit:10.43299961;stroke-opacity:1;stroke-dasharray:none;stroke-dashoffset:0" />
      <path
         id="path5080"
         d="m 167.595,58.17 -1.26,-2.97 c -0.045,-0.12 -0.075,-0.18 -0.075,-0.195 0,-0.09 0.255,-0.36 0.885,-0.42 0.15,-0.015 0.3,-0.03 0.3,-0.285 0,-0.18 -0.18,-0.18 -0.225,-0.18 -0.615,0 -1.26,0.045 -1.89,0.045 -0.375,0 -1.29,-0.045 -1.665,-0.045 -0.09,0 -0.27,0 -0.27,0.3 0,0.165 0.15,0.165 0.345,0.165 0.885,0 0.975,0.135 1.11,0.48 l 1.77,4.155 -3.15,3.39 -0.195,0.165 c -0.735,0.795 -1.44,1.035 -2.205,1.08 -0.195,0.015 -0.33,0.015 -0.33,0.3 0,0.015 0,0.15 0.195,0.15 0.45,0 0.945,-0.045 1.41,-0.045 0.555,0 1.14,0.045 1.68,0.045 0.075,0 0.255,0 0.255,-0.285 0,-0.15 -0.15,-0.165 -0.18,-0.165 -0.12,-0.015 -0.585,-0.045 -0.585,-0.465 0,-0.24 0.225,-0.48 0.39,-0.675 l 1.53,-1.62 1.35,-1.455 1.515,3.57 c 0.06,0.165 0.075,0.18 0.075,0.21 0,0.12 -0.285,0.375 -0.87,0.435 -0.165,0.015 -0.3,0.03 -0.3,0.285 0,0.165 0.165,0.165 0.225,0.165 0.42,0 1.47,-0.045 1.875,-0.045 0.375,0 1.29,0.045 1.665,0.045 0.105,0 0.285,0 0.285,-0.27 0,-0.18 -0.15,-0.18 -0.27,-0.18 -1.005,-0.015 -1.035,-0.06 -1.29,-0.66 -0.585,-1.395 -1.575,-3.72 -1.92,-4.62 1.005,-1.035 2.58,-2.82 3.06,-3.24 0.435,-0.345 1.005,-0.705 1.905,-0.75 0.195,-0.015 0.33,-0.015 0.33,-0.3 0,-0.015 0,-0.165 -0.195,-0.165 -0.45,0 -0.945,0.045 -1.41,0.045 -0.555,0 -1.125,-0.045 -1.665,-0.045 -0.09,0 -0.285,0 -0.285,0.3 0,0.105 0.075,0.15 0.18,0.165 0.135,0.015 0.6,0.045 0.6,0.465 0,0.195 -0.165,0.39 -0.285,0.525 z"
         inkscape:connector-curvature="0"
         style="font-style:normal;font-variant:normal;font-weight:normal;font-stretch:normal;letter-spacing:normal;word-spacing:normal;text-anchor:start;fill:#000000;fill-opacity:1;fill-rule:evenodd;stroke:#000000;stroke-width:0;stroke-linecap:butt;stroke-linejoin:miter;stroke-miterlimit:10.43299961;stroke-opacity:1;stroke-dasharray:none;stroke-dashoffset:0" />
      <path
         id="path5082"
         d="m 183.33,60.885 h 4.17 c 0.21,0 0.495,0 0.495,-0.3 0,-0.3 -0.285,-0.3 -0.495,-0.3 h -4.17 V 56.1 c 0,-0.21 0,-0.495 -0.3,-0.495 -0.3,0 -0.3,0.285 -0.3,0.495 v 4.185 h -4.185 c -0.21,0 -0.495,0 -0.495,0.3 0,0.3 0.285,0.3 0.495,0.3 h 4.185 v 4.17 c 0,0.21 0,0.495 0.3,0.495 0.3,0 0.3,-0.285 0.3,-0.495 z"
         inkscape:connector-curvature="0"
         style="font-style:normal;font-variant:normal;font-weight:normal;font-stretch:normal;letter-spacing:normal;word-spacing:normal;text-anchor:start;fill:#000000;fill-opacity:1;fill-rule:evenodd;stroke:#000000;stroke-width:0;stroke-linecap:butt;stroke-linejoin:miter;stroke-miterlimit:10.43299961;stroke-opacity:1;stroke-dasharray:none;stroke-dashoffset:0" />
      <path
         id="path5084"
         d="m 198.765,53.895 -0.015,-0.015 0,-0.03 -0.015,-0.015 0,-0.015 -0.015,-0.015 -0.015,-0.015 0,-0.015 -0.015,0 0,-0.015 -0.015,-0.015 0,-0.015 -0.015,-0.015 0,0 -0.015,-0.015 -0.015,0 0,-0.015 -0.015,-0.015 -0.015,0 0,0 -0.015,-0.015 -0.015,0 -0.015,-0.015 -0.015,0 -0.015,0 -0.015,0 -0.015,-0.015 -0.015,0 -0.015,0 -0.03,0 -0.015,0 -0.015,0 -0.03,0 c -0.255,0 -0.285,0.075 -0.39,0.27 l -0.09,1.215 4.02,8.07 h -8.055 l 4.035,-8.07 0.09,-1.215 -5.055,10.125 c -0.075,0.135 -0.075,0.15 -0.075,0.165 0,0.12 0.09,0.12 0.33,0.12 h 10.38 c 0.24,0 0.33,0 0.33,-0.12 0,-0.015 0,-0.03 -0.075,-0.165 z"
         inkscape:connector-curvature="0"
         style="font-style:normal;font-variant:normal;font-weight:normal;font-stretch:normal;letter-spacing:normal;word-spacing:normal;text-anchor:start;fill:#000000;fill-opacity:1;fill-rule:evenodd;stroke:#000000;stroke-width:0;stroke-linecap:butt;stroke-linejoin:miter;stroke-miterlimit:10.43299961;stroke-opacity:1;stroke-dasharray:none;stroke-dashoffset:0" />
      <path
         id="path5086"
         d="m 209.85,63.48 0.015,0.06 0.015,0.045 0.015,0.06 0.03,0.045 0.03,0.06 0.015,0.045 0.03,0.045 0.03,0.045 0.03,0.045 0.045,0.045 0.03,0.045 0.03,0.045 0.045,0.03 0.03,0.045 0.045,0.03 0.045,0.03 0.045,0.045 0.045,0.015 0.045,0.03 0.045,0.03 0.06,0.03 0.045,0.015 0.045,0.03 0.06,0.015 0.06,0.015 0.045,0.015 0.06,0.015 0.06,0 0.06,0.015 0.045,0 0.06,0 0.06,0 c 0.525,0 0.87,-0.33 1.11,-0.81 0.255,-0.54 0.45,-1.455 0.45,-1.485 0,-0.15 -0.135,-0.15 -0.18,-0.15 -0.15,0 -0.165,0.06 -0.21,0.27 -0.21,0.84 -0.495,1.86 -1.125,1.86 -0.3,0 -0.45,-0.195 -0.45,-0.69 0,-0.33 0.18,-1.035 0.285,-1.56 l 0.42,-1.605 c 0.045,-0.225 0.195,-0.795 0.255,-1.02 0.075,-0.345 0.225,-0.915 0.225,-1.005 0,-0.27 -0.21,-0.39 -0.435,-0.39 -0.075,0 -0.465,0 -0.57,0.51 -0.3,1.095 -0.945,3.705 -1.125,4.5 -0.015,0.06 -0.615,1.26 -1.71,1.26 -0.78,0 -0.93,-0.675 -0.93,-1.23 0,-0.84 0.42,-2.01 0.81,-3.045 0.18,-0.45 0.255,-0.66 0.255,-0.945 0,-0.675 -0.48,-1.215 -1.23,-1.215 -1.41,0 -1.965,2.16 -1.965,2.295 0,0.15 0.15,0.15 0.18,0.15 0.15,0 0.165,-0.03 0.24,-0.27 0.375,-1.305 0.93,-1.845 1.5,-1.845 0.135,0 0.375,0.015 0.375,0.48 0,0.36 -0.165,0.795 -0.255,1.02 -0.555,1.47 -0.87,2.4 -0.87,3.135 0,1.425 1.035,1.785 1.845,1.785 0.99,0 1.53,-0.66 1.785,-0.99 z"
         inkscape:connector-curvature="0"
         style="font-style:normal;font-variant:normal;font-weight:normal;font-stretch:normal;letter-spacing:normal;word-spacing:normal;text-anchor:start;fill:#000000;fill-opacity:1;fill-rule:evenodd;stroke:#000000;stroke-width:0;stroke-linecap:butt;stroke-linejoin:miter;stroke-miterlimit:10.43299961;stroke-opacity:1;stroke-dasharray:none;stroke-dashoffset:0" />
    </g>
    <path
       style="font-style:normal;font-variant:normal;font-weight:normal;font-stretch:normal;letter-spacing:normal;word-spacing:normal;text-anchor:start;fill:#000000;fill-opacity:1;fill-rule:evenodd;stroke:#000000;stroke-width:0;stroke-linecap:butt;stroke-linejoin:miter;stroke-miterlimit:10.43299961;stroke-opacity:1;stroke-dasharray:none;stroke-dashoffset:0"
       inkscape:connector-curvature="0"
       d="m 37.59,169.35149 -0.015,-0.225 -0.015,-0.225 -0.015,-0.21 -0.03,-0.21 -0.045,-0.195 -0.045,-0.21 -0.06,-0.18 -0.06,-0.195 -0.075,-0.18 -0.075,-0.18 -0.09,-0.165 -0.105,-0.165 -0.105,-0.15 -0.105,-0.15 -0.12,-0.135 -0.12,-0.135 -0.12,-0.135 -0.15,-0.12 -0.135,-0.12 -0.15,-0.105 -0.15,-0.09 -0.165,-0.09 -0.165,-0.09 -0.165,-0.075 -0.18,-0.06 -0.18,-0.06 -0.18,-0.045 -0.195,-0.045 -0.195,-0.03 -0.195,-0.03 -0.21,-0.015 -0.21,0 -0.09,0.375 c 1.23,0 2.58,0.825 2.58,3.06 0,1.065 -0.405,3.405 -1.89,5.235 -0.72,0.915 -1.935,1.8 -3.195,1.8 h 0 c -1.485,0 -2.52,-1.215 -2.52,-3.18 0,-0.66 0.195,-2.85 1.35,-4.59 1.035,-1.56 2.505,-2.325 3.675,-2.325 l 0.09,-0.375 c -3.225,0 -6.51,3.39 -6.51,6.87 0,2.475 1.665,3.975 3.825,3.975 3.165,0 6.51,-3.27 6.51,-6.825 z"
       id="path5088" />
    <path
       style="font-style:normal;font-variant:normal;font-weight:normal;font-stretch:normal;letter-spacing:normal;word-spacing:normal;text-anchor:start;fill:#000000;fill-opacity:1;fill-rule:evenodd;stroke:#000000;stroke-width:0;stroke-linecap:butt;stroke-linejoin:miter;stroke-miterlimit:10.43299961;stroke-opacity:1;stroke-dasharray:none;stroke-dashoffset:0"
       inkscape:connector-curvature="0"
       d="m 37.575,99.351494 0,-0.225 -0.015,-0.225 -0.03,-0.21 -0.03,-0.21 -0.03,-0.195 -0.06,-0.21 -0.045,-0.18 -0.075,-0.195 -0.06,-0.18 -0.09,-0.18 -0.09,-0.165 -0.09,-0.165 -0.105,-0.15 -0.105,-0.15 -0.12,-0.135 -0.12,-0.135 -0.135,-0.135 -0.135,-0.12 -0.135,-0.12 -0.15,-0.105 -0.165,-0.09 -0.15,-0.09 -0.165,-0.09 -0.18,-0.075 -0.165,-0.06 -0.18,-0.06 -0.195,-0.045 -0.18,-0.045 -0.195,-0.03 -0.21,-0.03 -0.195,-0.015 -0.21,0 -0.09,0.375 c 1.23,0 2.565,0.825 2.565,3.06 0,1.065 -0.39,3.404996 -1.875,5.234996 -0.72,0.915 -1.95,1.8 -3.195,1.8 h 0 c -1.485,0 -2.535,-1.215 -2.535,-3.18 0,-0.66 0.21,-2.849996 1.365,-4.589996 1.035,-1.56 2.49,-2.325 3.675,-2.325 l 0.09,-0.375 c -3.225,0 -6.525,3.39 -6.525,6.869996 0,2.475 1.68,3.975 3.84,3.975 3.165,0 6.495,-3.27 6.495,-6.824996 z"
       id="path5090" />
    <path
       inkscape:connector-curvature="0"
       id="path3262-4"
       d="m 220,83.031494 0,10"
       style="fill:none;stroke:#000000;stroke-width:1px;stroke-linecap:butt;stroke-linejoin:miter;stroke-opacity:1;display:inline" />
    <path
       inkscape:connector-curvature="0"
       id="path3262-5"
       d="m 280,153.03149 0,10"
       style="fill:none;stroke:#000000;stroke-width:1px;stroke-linecap:butt;stroke-linejoin:miter;stroke-opacity:1;display:inline" />
    <path
       style="fill:none;stroke:#000000;stroke-width:2.12598425;stroke-linecap:butt;stroke-linejoin:miter;stroke-opacity:1;stroke-miterlimit:4;stroke-dasharray:none"
       d="m 160,88.031494 60,0"
       id="path5213"
       inkscape:connector-curvature="0" />
    <path
       style="fill:none;stroke:#000000;stroke-width:2.12598425;stroke-linecap:butt;stroke-linejoin:miter;stroke-opacity:1;stroke-miterlimit:4;stroke-dasharray:none"
       d="m 179.60512,157.87538 100.05561,0"
       id="path6067"
       inkscape:connector-curvature="0" />
    <path
       id="path6147"
       d="m 160.855,103.35149 0.06,-0.39 1.02,-4.064992 c 0.135,-0.51 0.165,-0.555 0.81,-0.555 h 1.44 c 1.23,0 2.025,0.405 2.025,1.425 0,0.584992 -0.3,1.874992 -0.885,2.399992 -0.735,0.675 -1.635,0.795 -2.295,0.795 h -2.115 l -0.06,0.39 h 2.55 c 2.115,0 4.2,-1.545 4.2,-3.22499 0,-1.155002 -0.99,-2.250002 -2.94,-2.250002 h -4.845 c -0.285,0 -0.45,0 -0.45,0.285 0,0.18 0.135,0.18 0.435,0.18 0.18,0 0.465,0.015 0.63,0.03 0.24,0.03 0.33,0.075 0.33,0.24 0,0.045 -0.015,0.105 -0.06,0.27 l -1.995,8.024992 c -0.15,0.585 -0.18,0.705 -1.365,0.705 -0.255,0 -0.42,0 -0.42,0.285 0,0.165 0.18,0.165 0.225,0.165 0.42,0 1.485,-0.045 1.905,-0.045 0.315,0 0.645,0.015 0.945,0.015 0.33,0 0.66,0.03 0.975,0.03 0.105,0 0.3,0 0.3,-0.285 0,-0.165 -0.135,-0.165 -0.42,-0.165 -0.54,0 -0.96,0 -0.96,-0.27 0,-0.09 0.015,-0.165 0.045,-0.255 z"
       inkscape:connector-curvature="0"
       style="font-style:normal;font-variant:normal;font-weight:normal;font-stretch:normal;letter-spacing:normal;word-spacing:normal;text-anchor:start;fill:#000000;stroke:#000000;stroke-width:0;stroke-linecap:butt;stroke-linejoin:miter;stroke-miterlimit:10.43299961;stroke-opacity:1;stroke-dasharray:none;stroke-dashoffset:0" />
    <g
       transform="translate(91.945,140.75649)"
       id="g6235">
      <path
         style="font-style:normal;font-variant:normal;font-weight:normal;font-stretch:normal;letter-spacing:normal;word-spacing:normal;text-anchor:start;fill:#000000;stroke:#000000;stroke-width:0;stroke-linecap:butt;stroke-linejoin:miter;stroke-miterlimit:10.43299961;stroke-opacity:1;stroke-dasharray:none;stroke-dashoffset:0"
         inkscape:connector-curvature="0"
         d="m 88.91,32.595 0.06,-0.39 1.02,-4.065 c 0.135,-0.51 0.165,-0.555 0.81,-0.555 h 1.425 c 1.245,0 2.04,0.405 2.04,1.425 0,0.585 -0.3,1.875 -0.885,2.4 -0.75,0.675 -1.635,0.795 -2.295,0.795 H 88.97 l -0.06,0.39 h 2.55 c 2.115,0 4.2,-1.545 4.2,-3.225 0,-1.155 -0.99,-2.25 -2.955,-2.25 H 87.86 c -0.285,0 -0.435,0 -0.435,0.285 0,0.18 0.135,0.18 0.42,0.18 0.195,0 0.465,0.015 0.645,0.03 0.24,0.03 0.33,0.075 0.33,0.24 0,0.045 -0.015,0.105 -0.06,0.27 l -1.995,8.025 c -0.15,0.585 -0.18,0.705 -1.365,0.705 -0.255,0 -0.42,0 -0.42,0.285 0,0.165 0.18,0.165 0.225,0.165 0.42,0 1.485,-0.045 1.905,-0.045 0.315,0 0.63,0.015 0.945,0.015 0.33,0 0.66,0.03 0.975,0.03 0.105,0 0.3,0 0.3,-0.285 0,-0.165 -0.135,-0.165 -0.42,-0.165 -0.555,0 -0.975,0 -0.975,-0.27 0,-0.09 0.03,-0.165 0.045,-0.255 z"
         id="path6149" />
      <path
         style="font-style:normal;font-variant:normal;font-weight:normal;font-stretch:normal;letter-spacing:normal;word-spacing:normal;text-anchor:start;fill:#000000;stroke:#000000;stroke-width:0;stroke-linecap:butt;stroke-linejoin:miter;stroke-miterlimit:10.43299961;stroke-opacity:1;stroke-dasharray:none;stroke-dashoffset:0"
         inkscape:connector-curvature="0"
         d="m 98.735,23.91 0,0 0,0 0,0 0.015,0 0,0 0,0 0,-0.015 0,0 0,0 0,-0.015 0.015,0 0,0 0,-0.015 0,0 0,-0.015 0.015,-0.015 0,0 0,-0.015 0,0 0.015,-0.015 0,-0.015 0,0 0,-0.015 0,-0.015 0.015,-0.015 0,0 0,-0.015 0,-0.015 0,0 0,-0.015 0,-0.015 0,-0.015 0,0 0,-0.015 c 0,-0.27 -0.24,-0.435 -0.465,-0.435 -0.3,0 -0.375,0.225 -0.42,0.345 l -1.14,3.225 c -0.03,0.075 -0.03,0.105 -0.03,0.105 0,0.135 0.315,0.195 0.315,0.195 0.06,0 0.075,-0.03 0.12,-0.12 z"
         id="path6151" />
    </g>
    <text
       sodipodi:linespacing="125%"
       id="text6249"
       y="224.03149"
       x="104"
       style="font-size:14.93999958px;font-style:normal;font-variant:normal;font-weight:normal;font-stretch:normal;line-height:125%;letter-spacing:0px;word-spacing:0px;fill:#000000;fill-opacity:1;stroke:none;font-family:cmmi12;-inkscape-font-specification:cmmi12"
       xml:space="preserve"><tspan
         y="224.03149"
         x="104"
         id="tspan6251"
         sodipodi:role="line" /></text>
    <text
       sodipodi:linespacing="125%"
       id="text6808"
       y="68.031494"
       x="15"
       style="font-size:14.93999958px;font-style:normal;font-variant:normal;font-weight:normal;font-stretch:normal;line-height:125%;letter-spacing:0px;word-spacing:0px;fill:#000000;fill-opacity:1;stroke:none;font-family:cmr12;-inkscape-font-specification:cmr12"
       xml:space="preserve"><tspan
         y="68.031494"
         x="15"
         id="tspan6810"
         sodipodi:role="line">a)</tspan></text>
    <text
       sodipodi:linespacing="125%"
       id="text6812"
       y="140.53149"
       x="15"
       style="font-size:14.93999958px;font-style:normal;font-variant:normal;font-weight:normal;font-stretch:normal;line-height:125%;letter-spacing:0px;word-spacing:0px;fill:#000000;fill-opacity:1;stroke:none;font-family:cmr12;-inkscape-font-specification:cmr12"
       xml:space="preserve"><tspan
         y="140.53149"
         x="15"
         id="tspan6814"
         sodipodi:role="line">b)</tspan></text>
    <path
       style="font-style:normal;font-variant:normal;font-weight:normal;font-stretch:normal;letter-spacing:normal;word-spacing:normal;text-anchor:start;fill:#000000;stroke:#000000;stroke-width:0;stroke-linecap:butt;stroke-linejoin:miter;stroke-miterlimit:10.43299961;stroke-opacity:1;stroke-dasharray:none;stroke-dashoffset:0"
       inkscape:connector-curvature="0"
       d="m 220.48,108.55649 0.21,-0.09 0.225,-0.105 0.21,-0.105 0.21,-0.12 0.21,-0.12 0.21,-0.135 0.21,-0.15 0.195,-0.15 0.195,-0.165 0.195,-0.165 0.195,-0.18 0.18,-0.18 0.18,-0.195 0.165,-0.195 0.18,-0.195 0.15,-0.21 0.165,-0.225 0.135,-0.225 0.15,-0.225 0.12,-0.225 0.135,-0.24 0.105,-0.24 0.105,-0.24 0.105,-0.255 0.075,-0.255 0.075,-0.255 0.075,-0.255 0.045,-0.255 0.045,-0.27 0.03,-0.27 0.015,-0.255 0.015,-0.27 c 0,-2.414988 -1.59,-4.019988 -3.81,-4.019988 l -0.09,0.375 c 1.485,0 2.58,1.155 2.58,3.164988 0,1.485 -0.765,4.98 -3.27,6.39 -0.075,-0.525 -0.225,-1.62 -1.32,-1.62 v 0.33 c 0.63,0 0.915,0.36 0.915,1.275 0,0.225 -0.015,0.24 -0.165,0.3 -0.39,0.165 -0.84,0.255 -1.26,0.255 h 0 c -0.21,0 -0.69,0 -0.69,-0.63 0,-0.6 0.57,-1.2 1.2,-1.2 v -0.33 c -0.795,0 -1.53,0.75 -1.53,1.53 0,0.3 0.09,0.465 0.09,0.48 h 0 c -1.155,-0.465 -1.665,-1.635 -1.665,-2.97 0,-1.035 0.39,-3.15 1.515,-4.76999 1.095,-1.514998 2.505,-2.204998 3.6,-2.204998 l 0.09,-0.375 c -3.24,0 -6.525,3.389988 -6.525,6.869988 0,2.475 1.68,3.975 3.825,3.975 0.375,0 0.885,-0.06 1.47,-0.21 -0.06,0.915 -0.06,0.945 -0.06,1.14 0,0.48 0,1.65 1.245,1.65 1.77,0 2.49,-2.745 2.49,-2.91 0,-0.105 -0.105,-0.135 -0.165,-0.135 -0.12,0 -0.15,0.075 -0.18,0.165 -0.36,1.05 -1.23,1.425 -1.74,1.425 -0.69,0 -0.915,-0.405 -1.065,-1.53 z"
       id="path6900" />
    <g
       id="g6997"
       transform="translate(58.59,70.554994)">
      <g
         id="g6994">
        <path
           style="font-style:normal;font-variant:normal;font-weight:normal;font-stretch:normal;letter-spacing:normal;word-spacing:normal;text-anchor:start;fill:#000000;stroke:#000000;stroke-width:0;stroke-linecap:butt;stroke-linejoin:miter;stroke-miterlimit:10.43299961;stroke-opacity:1;stroke-dasharray:none;stroke-dashoffset:0"
           inkscape:connector-curvature="0"
           d="m 221.89,108.0015 0.225,-0.09 0.21,-0.105 0.21,-0.105 0.21,-0.12 0.225,-0.12 0.195,-0.135 0.21,-0.15 0.195,-0.15 0.21,-0.165 0.18,-0.165 0.195,-0.18 0.18,-0.18 0.18,-0.195 0.18,-0.195 0.165,-0.195 0.165,-0.21 0.15,-0.225 0.15,-0.225 0.135,-0.225 0.135,-0.225 0.12,-0.24 0.12,-0.24 0.105,-0.24 0.09,-0.255 0.09,-0.255 0.075,-0.255 0.06,-0.255 0.06,-0.255 0.045,-0.27 0.03,-0.27 0.015,-0.255 0,-0.27 c 0,-2.415 -1.575,-4.02 -3.81,-4.02 l -0.09,0.375 c 1.5,0 2.595,1.155 2.595,3.165 0,1.485 -0.765,4.98 -3.285,6.39 -0.075,-0.525 -0.225,-1.62 -1.305,-1.62 v 0.33 c 0.615,0 0.9,0.36 0.9,1.275 0,0.225 -0.015,0.24 -0.165,0.3 -0.39,0.165 -0.825,0.255 -1.245,0.255 h 0 c -0.21,0 -0.69,0 -0.69,-0.63 0,-0.6 0.57,-1.2 1.2,-1.2 v -0.33 c -0.795,0 -1.53,0.75 -1.53,1.53 0,0.3 0.09,0.465 0.09,0.48 h 0 c -1.17,-0.465 -1.68,-1.635 -1.68,-2.97 0,-1.035 0.39,-3.15 1.53,-4.77 1.095,-1.515 2.49,-2.205 3.585,-2.205 l 0.09,-0.375 c -3.225,0 -6.525,3.39 -6.525,6.87 0,2.475 1.68,3.975 3.84,3.975 0.375,0 0.87,-0.06 1.455,-0.21 -0.06,0.915 -0.06,0.945 -0.06,1.14 0,0.48 0,1.65 1.245,1.65 1.785,0 2.505,-2.745 2.505,-2.91 0,-0.105 -0.105,-0.135 -0.165,-0.135 -0.12,0 -0.15,0.075 -0.18,0.165 -0.36,1.05 -1.23,1.425 -1.755,1.425 -0.69,0 -0.915,-0.405 -1.065,-1.53 z"
           id="path6902" />
      </g>
      <path
         id="path6904"
         d="m 229.855,94.6815 0,0 0,0 0,0 0,0 0,0 0,0 0,-0.015 0,0 0,0 0.015,-0.015 0,0 0,0 0,-0.015 0,0 0.015,-0.015 0,-0.015 0,0 0,-0.015 0.015,0 0,-0.015 0,-0.015 0,0 0,-0.015 0.015,-0.015 0,-0.015 0,0 0,-0.015 0,-0.015 0,0 0,-0.015 0,-0.015 0.015,-0.015 0,0 0,-0.015 c 0,-0.27 -0.24,-0.435 -0.465,-0.435 -0.315,0 -0.39,0.225 -0.435,0.345 l -1.14,3.225 c -0.03,0.075 -0.03,0.105 -0.03,0.105 0,0.135 0.315,0.195 0.315,0.195 0.075,0 0.09,-0.03 0.135,-0.12 z"
         inkscape:connector-curvature="0"
         style="font-style:normal;font-variant:normal;font-weight:normal;font-stretch:normal;letter-spacing:normal;word-spacing:normal;text-anchor:start;fill:#000000;stroke:#000000;stroke-width:0;stroke-linecap:butt;stroke-linejoin:miter;stroke-miterlimit:10.43299961;stroke-opacity:1;stroke-dasharray:none;stroke-dashoffset:0" />
    </g>
  </g>
</svg>
