<?xml version="1.0" encoding="UTF-8" standalone="no"?>
<!-- Created with Inkscape (http://www.inkscape.org/) -->

<svg
   xmlns:dc="http://purl.org/dc/elements/1.1/"
   xmlns:cc="http://creativecommons.org/ns#"
   xmlns:rdf="http://www.w3.org/1999/02/22-rdf-syntax-ns#"
   xmlns:svg="http://www.w3.org/2000/svg"
   xmlns="http://www.w3.org/2000/svg"
   xmlns:sodipodi="http://sodipodi.sourceforge.net/DTD/sodipodi-0.dtd"
   xmlns:inkscape="http://www.inkscape.org/namespaces/inkscape"
   width="161.22893"
   height="131.03665"
   id="svg2"
   version="1.1"
   inkscape:version="0.48.0 r9654"
   sodipodi:docname="def6.pdf"
   style="enable-background:new">
  <sodipodi:namedview
     id="base"
     pagecolor="#ffffff"
     bordercolor="#666666"
     borderopacity="1.0"
     inkscape:pageopacity="0.0"
     inkscape:pageshadow="2"
     inkscape:zoom="2"
     inkscape:cx="74.283255"
     inkscape:cy="47.060796"
     inkscape:document-units="cm"
     inkscape:current-layer="layer3"
     showgrid="true"
     inkscape:window-width="800"
     inkscape:window-height="579"
     inkscape:window-x="-4"
     inkscape:window-y="-4"
     inkscape:window-maximized="1"
     units="cm"
     width="9.2cm"
     showguides="true"
     inkscape:guide-bbox="true"
     inkscape:showpageshadow="false"
     objecttolerance="4"
     gridtolerance="4"
     fit-margin-top="0"
     fit-margin-left="0"
     fit-margin-right="0"
     fit-margin-bottom="0">
    <inkscape:grid
       snapvisiblegridlinesonly="true"
       enabled="true"
       visible="true"
       empspacing="5"
       id="grid3254"
       type="xygrid" />
  </sodipodi:namedview>
  <defs
     id="defs4">
    <marker
       style="overflow:visible"
       id="Arrow1Send"
       refX="0"
       refY="0"
       orient="auto"
       inkscape:stockid="Arrow1Send">
      <path
         transform="matrix(-0.2,0,0,-0.2,-1.2,0)"
         style="fill-rule:evenodd;stroke:#000000;stroke-width:1pt;marker-start:none"
         d="M 0,0 5,-5 -12.5,0 5,5 0,0 z"
         id="path3997"
         inkscape:connector-curvature="0" />
    </marker>
    <marker
       style="overflow:visible"
       id="Arrow1Sstart"
       refX="0"
       refY="0"
       orient="auto"
       inkscape:stockid="Arrow1Sstart">
      <path
         transform="matrix(0.2,0,0,0.2,1.2,0)"
         style="fill-rule:evenodd;stroke:#000000;stroke-width:1pt;marker-start:none"
         d="M 0,0 5,-5 -12.5,0 5,5 0,0 z"
         id="path3994"
         inkscape:connector-curvature="0" />
    </marker>
    <marker
       style="overflow:visible"
       id="Arrow1Mend"
       refX="0"
       refY="0"
       orient="auto"
       inkscape:stockid="Arrow1Mend">
      <path
         transform="matrix(-0.4,0,0,-0.4,-4,0)"
         style="fill-rule:evenodd;stroke:#000000;stroke-width:1pt;marker-start:none"
         d="M 0,0 5,-5 -12.5,0 5,5 0,0 z"
         id="path3991"
         inkscape:connector-curvature="0" />
    </marker>
    <marker
       style="overflow:visible"
       id="Arrow1Mstart"
       refX="0"
       refY="0"
       orient="auto"
       inkscape:stockid="Arrow1Mstart">
      <path
         transform="matrix(0.4,0,0,0.4,4,0)"
         style="fill-rule:evenodd;stroke:#000000;stroke-width:1pt;marker-start:none"
         d="M 0,0 5,-5 -12.5,0 5,5 0,0 z"
         id="path3988"
         inkscape:connector-curvature="0" />
    </marker>
    <marker
       style="overflow:visible"
       id="Arrow2Lend"
       refX="0"
       refY="0"
       orient="auto"
       inkscape:stockid="Arrow2Lend">
      <path
         transform="matrix(-1.1,0,0,-1.1,-1.1,0)"
         d="M 8.7185878,4.0337352 -2.2072895,0.01601326 8.7185884,-4.0017078 c -1.7454984,2.3720609 -1.7354408,5.6174519 -6e-7,8.035443 z"
         style="font-size:12px;fill-rule:evenodd;stroke-width:0.625;stroke-linejoin:round"
         id="path4003"
         inkscape:connector-curvature="0" />
    </marker>
    <marker
       style="overflow:visible"
       id="Arrow2Lstart"
       refX="0"
       refY="0"
       orient="auto"
       inkscape:stockid="Arrow2Lstart">
      <path
         transform="matrix(1.1,0,0,1.1,1.1,0)"
         d="M 8.7185878,4.0337352 -2.2072895,0.01601326 8.7185884,-4.0017078 c -1.7454984,2.3720609 -1.7354408,5.6174519 -6e-7,8.035443 z"
         style="font-size:12px;fill-rule:evenodd;stroke-width:0.625;stroke-linejoin:round"
         id="path4000"
         inkscape:connector-curvature="0" />
    </marker>
    <marker
       inkscape:stockid="Arrow1Lend"
       orient="auto"
       refY="0"
       refX="0"
       id="Arrow1Lend"
       style="overflow:visible">
      <path
         inkscape:connector-curvature="0"
         id="path4440"
         d="M 0,0 5,-5 -12.5,0 5,5 0,0 z"
         style="fill-rule:evenodd;stroke:#000000;stroke-width:1pt;marker-start:none"
         transform="matrix(-0.8,0,0,-0.8,-10,0)" />
    </marker>
    <marker
       inkscape:stockid="Arrow1Lstart"
       orient="auto"
       refY="0"
       refX="0"
       id="Arrow1Lstart"
       style="overflow:visible">
      <path
         inkscape:connector-curvature="0"
         id="path4437"
         d="M 0,0 5,-5 -12.5,0 5,5 0,0 z"
         style="fill-rule:evenodd;stroke:#000000;stroke-width:1pt;marker-start:none"
         transform="matrix(0.8,0,0,0.8,10,0)" />
    </marker>
    <marker
       style="overflow:visible"
       id="Arrow2Lstart-4"
       refX="0"
       refY="0"
       orient="auto"
       inkscape:stockid="Arrow2Lstart">
      <path
         transform="matrix(1.1,0,0,1.1,1.1,0)"
         d="M 8.7185878,4.0337352 -2.2072895,0.01601326 8.7185884,-4.0017078 c -1.7454984,2.3720609 -1.7354408,5.6174519 -6e-7,8.035443 z"
         style="font-size:12px;fill-rule:evenodd;stroke-width:0.625;stroke-linejoin:round"
         id="path4000-4"
         inkscape:connector-curvature="0" />
    </marker>
    <marker
       style="overflow:visible"
       id="Arrow2Lend-3"
       refX="0"
       refY="0"
       orient="auto"
       inkscape:stockid="Arrow2Lend">
      <path
         transform="matrix(-1.1,0,0,-1.1,-1.1,0)"
         d="M 8.7185878,4.0337352 -2.2072895,0.01601326 8.7185884,-4.0017078 c -1.7454984,2.3720609 -1.7354408,5.6174519 -6e-7,8.035443 z"
         style="font-size:12px;fill-rule:evenodd;stroke-width:0.625;stroke-linejoin:round"
         id="path4003-0"
         inkscape:connector-curvature="0" />
    </marker>
    <marker
       style="overflow:visible"
       id="marker7119"
       refX="0"
       refY="0"
       orient="auto"
       inkscape:stockid="Arrow2Lend">
      <path
         transform="matrix(-1.1,0,0,-1.1,-1.1,0)"
         d="M 8.7185878,4.0337352 -2.2072895,0.01601326 8.7185884,-4.0017078 c -1.7454984,2.3720609 -1.7354408,5.6174519 -6e-7,8.035443 z"
         style="font-size:12px;fill-rule:evenodd;stroke-width:0.625;stroke-linejoin:round"
         id="path7121"
         inkscape:connector-curvature="0" />
    </marker>
    <marker
       style="overflow:visible"
       id="Arrow1Mstart-3"
       refX="0"
       refY="0"
       orient="auto"
       inkscape:stockid="Arrow1Mstart">
      <path
         transform="matrix(0.4,0,0,0.4,4,0)"
         style="fill-rule:evenodd;stroke:#000000;stroke-width:1pt;marker-start:none"
         d="M 0,0 5,-5 -12.5,0 5,5 0,0 z"
         id="path3988-7"
         inkscape:connector-curvature="0" />
    </marker>
    <marker
       style="overflow:visible"
       id="Arrow1Mend-5"
       refX="0"
       refY="0"
       orient="auto"
       inkscape:stockid="Arrow1Mend">
      <path
         transform="matrix(-0.4,0,0,-0.4,-4,0)"
         style="fill-rule:evenodd;stroke:#000000;stroke-width:1pt;marker-start:none"
         d="M 0,0 5,-5 -12.5,0 5,5 0,0 z"
         id="path3991-5"
         inkscape:connector-curvature="0" />
    </marker>
    <marker
       style="overflow:visible"
       id="Arrow1Mend-4"
       refX="0"
       refY="0"
       orient="auto"
       inkscape:stockid="Arrow1Mend">
      <path
         transform="matrix(-0.4,0,0,-0.4,-4,0)"
         style="fill-rule:evenodd;stroke:#000000;stroke-width:1pt;marker-start:none"
         d="M 0,0 5,-5 -12.5,0 5,5 0,0 z"
         id="path3991-2"
         inkscape:connector-curvature="0" />
    </marker>
  </defs>
  <metadata
     id="metadata7">
    <rdf:RDF>
      <cc:Work
         rdf:about="">
        <dc:format>image/svg+xml</dc:format>
        <dc:type
           rdf:resource="http://purl.org/dc/dcmitype/StillImage" />
        <dc:title></dc:title>
      </cc:Work>
    </rdf:RDF>
  </metadata>
  <g
     style="display:none"
     inkscape:label="Надписи"
     id="layer5"
     inkscape:groupmode="layer"
     transform="translate(-29.482797,-17.531494)" />
  <g
     style="display:none"
     inkscape:label="Слой3"
     id="layer4"
     inkscape:groupmode="layer"
     transform="translate(-29.482797,-17.531494)" />
  <g
     style="display:none"
     transform="translate(-29.482797,-821.86095)"
     inkscape:groupmode="layer"
     id="layer2"
     inkscape:label="Слой2">
    <text
       xml:space="preserve"
       style="font-size:12px;font-style:normal;font-variant:normal;font-weight:normal;font-stretch:normal;line-height:125%;letter-spacing:0px;word-spacing:0px;fill:#000000;fill-opacity:1;stroke:none;font-family:cmmi12;-inkscape-font-specification:cmmi12"
       x="114.07245"
       y="849.18628"
       id="text3997"
       sodipodi:linespacing="125%"><tspan
         sodipodi:role="line"
         id="tspan3999"
         x="114.07245"
         y="849.18628" /></text>
    <text
       xml:space="preserve"
       style="font-size:12px;font-style:normal;font-variant:normal;font-weight:normal;font-stretch:normal;line-height:125%;letter-spacing:0px;word-spacing:0px;fill:#000000;fill-opacity:1;stroke:none;font-family:cmmi12;-inkscape-font-specification:cmmi12"
       x="257.33582"
       y="739.52142"
       id="text4001"
       sodipodi:linespacing="125%"><tspan
         sodipodi:role="line"
         id="tspan4003"
         x="257.33582"
         y="739.52142">  </tspan></text>
    <text
       xml:space="preserve"
       style="font-size:12px;font-style:normal;font-variant:normal;font-weight:normal;font-stretch:normal;line-height:125%;letter-spacing:0px;word-spacing:0px;fill:#000000;fill-opacity:1;stroke:none;font-family:cmmi12;-inkscape-font-specification:cmmi12"
       x="125.36874"
       y="837.7204"
       id="text4009"
       sodipodi:linespacing="125%"><tspan
         sodipodi:role="line"
         id="tspan4011"
         x="125.36874"
         y="837.7204" /></text>
  </g>
  <g
     style="display:inline"
     inkscape:groupmode="layer"
     id="layer3"
     inkscape:label="Слой1"
     transform="translate(-29.482797,-17.531494)">
    <g
       id="g3521"
       inkscape:label="ink_ext_XXXXXX"
       transform="matrix(1.25,0,0,-1.25,0,1052.5)">
      <g
         id="g3523"
         transform="scale(0.1,0.1)" />
    </g>
    <g
       id="g3535"
       inkscape:label="ink_ext_XXXXXX"
       transform="matrix(1.25,0,0,-1.25,0,1052.5)">
      <g
         id="g3537"
         transform="scale(0.1,0.1)" />
    </g>
    <text
       sodipodi:linespacing="125%"
       id="text6249"
       y="224.03149"
       x="104"
       style="font-size:14.93999958px;font-style:normal;font-variant:normal;font-weight:normal;font-stretch:normal;line-height:125%;letter-spacing:0px;word-spacing:0px;fill:#000000;fill-opacity:1;stroke:none;font-family:cmmi12;-inkscape-font-specification:cmmi12"
       xml:space="preserve"><tspan
         y="224.03149"
         x="104"
         id="tspan6251"
         sodipodi:role="line" /></text>
    <path
       style="fill:none;stroke:#000000;stroke-width:1px;stroke-linecap:butt;stroke-linejoin:miter;stroke-opacity:1"
       d="m 30,18.031494 0,129.999996 160.21172,0 0,-129.999996 z"
       id="path3167"
       inkscape:connector-curvature="0" />
    <path
       style="fill:none;stroke:#000000;stroke-width:1px;stroke-linecap:butt;stroke-linejoin:miter;stroke-opacity:1"
       d="m 180,18.031494 c 1.38405,43.789851 -0.17513,87.152766 -2.47487,129.999996"
       id="path3175"
       inkscape:connector-curvature="0"
       sodipodi:nodetypes="cc" />
    <path
       style="fill:none;stroke:#000000;stroke-width:1px;stroke-linecap:butt;stroke-linejoin:miter;stroke-opacity:1"
       d="m 165,18.031494 c 1.07357,14.795456 -1.11712,101.864816 -5,129.999996"
       id="path3177"
       inkscape:connector-curvature="0"
       sodipodi:nodetypes="cc" />
    <path
       style="fill:none;stroke:#000000;stroke-width:1px;stroke-linecap:butt;stroke-linejoin:miter;stroke-opacity:1"
       d="M 147.67767,18.031494 C 149.45297,60.745609 144.65129,104.39929 140,148.03149"
       id="path3179"
       inkscape:connector-curvature="0"
       sodipodi:nodetypes="cc" />
    <path
       style="fill:none;stroke:#000000;stroke-width:1px;stroke-linecap:butt;stroke-linejoin:miter;stroke-opacity:1"
       d="m 128.03122,18.031494 c 1.65017,45.145389 -3.80804,87.625136 -9.54594,129.999996"
       id="path3181"
       inkscape:connector-curvature="0"
       sodipodi:nodetypes="cc" />
    <path
       style="fill:none;stroke:#000000;stroke-width:1px;stroke-linecap:butt;stroke-linejoin:miter;stroke-opacity:1"
       d="M 110,18.031494 C 107.21192,75.189305 101.53284,114.27843 95,148.03149"
       id="path3183"
       inkscape:connector-curvature="0"
       sodipodi:nodetypes="cc" />
    <path
       style="fill:none;stroke:#000000;stroke-width:1px;stroke-linecap:butt;stroke-linejoin:miter;stroke-opacity:1"
       d="M 87.830213,18.031494 C 86.982421,64.673352 79.291945,106.54309 70,146.61728"
       id="path3185"
       inkscape:connector-curvature="0"
       sodipodi:nodetypes="cc" />
    <path
       style="fill:none;stroke:#000000;stroke-width:1px;stroke-linecap:butt;stroke-linejoin:miter;stroke-opacity:1;display:inline"
       d="M 65,18.031494 C 64.642735,55.544429 56.637396,100.18224 45,148.03149"
       id="path3185-1"
       inkscape:connector-curvature="0"
       sodipodi:nodetypes="cc" />
    <path
       style="fill:none;stroke:#000000;stroke-width:1px;stroke-linecap:butt;stroke-linejoin:miter;stroke-opacity:1"
       d="M 42.223611,18.031494 C 39.621962,68.845707 34.302241,84.324973 30,113.03149"
       id="path3223"
       inkscape:connector-curvature="0"
       sodipodi:nodetypes="cc" />
    <path
       style="fill:none;stroke:#000000;stroke-width:1px;stroke-linecap:butt;stroke-linejoin:miter;stroke-opacity:1"
       d="m 30,28.031494 c 38.681445,2.082885 81.39567,3.884413 160,3.181981"
       id="path3229"
       inkscape:connector-curvature="0"
       sodipodi:nodetypes="cc" />
    <path
       style="fill:none;stroke:#000000;stroke-width:1px;stroke-linecap:butt;stroke-linejoin:miter;stroke-opacity:1"
       d="m 30,43.031494 c 35.758939,4.270281 99.83483,4.345457 160,5"
       id="path3235"
       inkscape:connector-curvature="0"
       sodipodi:nodetypes="cc" />
    <path
       style="fill:none;stroke:#000000;stroke-width:1px;stroke-linecap:butt;stroke-linejoin:miter;stroke-opacity:1;display:inline"
       d="m 30,61.330177 c 35.758939,4.270281 99.83483,4.345457 160,5"
       id="path3235-4"
       inkscape:connector-curvature="0"
       sodipodi:nodetypes="cc" />
    <path
       style="fill:none;stroke:#000000;stroke-width:1px;stroke-linecap:butt;stroke-linejoin:miter;stroke-opacity:1;display:inline"
       d="m 30.000003,80.42206 c 35.758939,4.270281 99.834827,4.345457 159.999997,5"
       id="path3235-0"
       inkscape:connector-curvature="0"
       sodipodi:nodetypes="cc" />
    <path
       style="fill:none;stroke:#000000;stroke-width:1px;stroke-linecap:butt;stroke-linejoin:miter;stroke-opacity:1;display:inline"
       d="m 29.999999,100.22105 c 35.758939,4.27028 99.834831,4.34546 160.000001,5"
       id="path3235-9"
       inkscape:connector-curvature="0"
       sodipodi:nodetypes="cc" />
    <path
       style="fill:none;stroke:#000000;stroke-width:1px;stroke-linecap:butt;stroke-linejoin:miter;stroke-opacity:1;display:inline"
       d="m 30,123.03149 c 35.758939,4.27029 99.83483,4.34546 160,5"
       id="path3235-48"
       inkscape:connector-curvature="0"
       sodipodi:nodetypes="cc" />
    <path
       sodipodi:type="arc"
       style="fill:#ffffff;fill-rule:evenodd;stroke:#000000;stroke-width:1px;stroke-linecap:butt;stroke-linejoin:miter;stroke-opacity:1"
       id="path3296"
       sodipodi:cx="8.3336306"
       sodipodi:cy="31.258369"
       sodipodi:rx="3.333631"
       sodipodi:ry="3.2268758"
       d="m 11.667262,31.258369 c 0,1.782155 -1.492518,3.226876 -3.3336314,3.226876 -1.8411136,0 -3.3336311,-1.444721 -3.3336311,-3.226876 0,-1.782154 1.4925175,-3.226875 3.3336311,-3.226875 1.8411134,0 3.3336314,1.444721 3.3336314,3.226875 z"
       transform="matrix(1,0,0,1.0964275,56.666369,-4.7790771)" />
    <path
       sodipodi:type="arc"
       style="fill:#ffffff;fill-rule:evenodd;stroke:#000000;stroke-width:1px;stroke-linecap:butt;stroke-linejoin:miter;stroke-opacity:1;display:inline"
       id="path3296-8"
       sodipodi:cx="8.3336306"
       sodipodi:cy="31.258369"
       sodipodi:rx="3.333631"
       sodipodi:ry="3.2268758"
       d="m 11.667262,31.258369 c 0,1.782155 -1.492518,3.226876 -3.3336314,3.226876 -1.8411136,0 -3.3336311,-1.444721 -3.3336311,-3.226876 0,-1.782154 1.4925175,-3.226875 3.3336311,-3.226875 1.8411134,0 3.3336314,1.444721 3.3336314,3.226875 z"
       transform="matrix(1,0,0,1.0964275,33.332738,-5.444145)" />
    <path
       sodipodi:type="arc"
       style="fill:#ffffff;fill-rule:evenodd;stroke:#000000;stroke-width:1px;stroke-linecap:butt;stroke-linejoin:miter;stroke-opacity:1;display:inline"
       id="path3296-2"
       sodipodi:cx="8.3336306"
       sodipodi:cy="31.258369"
       sodipodi:rx="3.333631"
       sodipodi:ry="3.2268758"
       d="m 11.667262,31.258369 c 0,1.782155 -1.492518,3.226876 -3.3336314,3.226876 -1.8411136,0 -3.3336311,-1.444721 -3.3336311,-3.226876 0,-1.782154 1.4925175,-3.226875 3.3336311,-3.226875 1.8411134,0 3.3336314,1.444721 3.3336314,3.226875 z"
       transform="matrix(1,0,0,1.0964275,79.170834,-3.4361299)" />
    <path
       sodipodi:type="arc"
       style="fill:#ffffff;fill-rule:evenodd;stroke:#000000;stroke-width:1px;stroke-linecap:butt;stroke-linejoin:miter;stroke-opacity:1;display:inline"
       id="path3296-4"
       sodipodi:cx="8.3336306"
       sodipodi:cy="31.258369"
       sodipodi:rx="3.333631"
       sodipodi:ry="3.2268758"
       d="m 11.667262,31.258369 c 0,1.782155 -1.492518,3.226876 -3.3336314,3.226876 -1.8411136,0 -3.3336311,-1.444721 -3.3336311,-3.226876 0,-1.782154 1.4925175,-3.226875 3.3336311,-3.226875 1.8411134,0 3.3336314,1.444721 3.3336314,3.226875 z"
       transform="matrix(1,0,0,1.0964275,101.125,-3.2410424)" />
    <path
       sodipodi:type="arc"
       style="fill:#ffffff;fill-rule:evenodd;stroke:#000000;stroke-width:1px;stroke-linecap:butt;stroke-linejoin:miter;stroke-opacity:1;display:inline"
       id="path3296-5"
       sodipodi:cx="8.3336306"
       sodipodi:cy="31.258369"
       sodipodi:rx="3.333631"
       sodipodi:ry="3.2268758"
       d="m 11.667262,31.258369 c 0,1.782155 -1.492518,3.226876 -3.3336314,3.226876 -1.8411136,0 -3.3336311,-1.444721 -3.3336311,-3.226876 0,-1.782154 1.4925175,-3.226875 3.3336311,-3.226875 1.8411134,0 3.3336314,1.444721 3.3336314,3.226875 z"
       transform="matrix(1,0,0,1.0964275,120,-2.9910425)" />
    <path
       sodipodi:type="arc"
       style="fill:#ffffff;fill-rule:evenodd;stroke:#000000;stroke-width:1px;stroke-linecap:butt;stroke-linejoin:miter;stroke-opacity:1;display:inline"
       id="path3296-51"
       sodipodi:cx="8.3336306"
       sodipodi:cy="31.258369"
       sodipodi:rx="3.333631"
       sodipodi:ry="3.2268758"
       d="m 11.667262,31.258369 c 0,1.782155 -1.492518,3.226876 -3.3336314,3.226876 -1.8411136,0 -3.3336311,-1.444721 -3.3336311,-3.226876 0,-1.782154 1.4925175,-3.226875 3.3336311,-3.226875 1.8411134,0 3.3336314,1.444721 3.3336314,3.226875 z"
       transform="matrix(1,0,0,1.0964275,140,-2.616042)" />
    <path
       sodipodi:type="arc"
       style="fill:#ffffff;fill-rule:evenodd;stroke:#000000;stroke-width:1px;stroke-linecap:butt;stroke-linejoin:miter;stroke-opacity:1;display:inline"
       id="path3296-7"
       sodipodi:cx="8.3336306"
       sodipodi:cy="31.258369"
       sodipodi:rx="3.333631"
       sodipodi:ry="3.2268758"
       d="m 11.667262,31.258369 c 0,1.782155 -1.492518,3.226876 -3.3336314,3.226876 -1.8411136,0 -3.3336311,-1.444721 -3.3336311,-3.226876 0,-1.782154 1.4925175,-3.226875 3.3336311,-3.226875 1.8411134,0 3.3336314,1.444721 3.3336314,3.226875 z"
       transform="matrix(1,0,0,1.0964275,156.66637,-2.7030064)" />
    <path
       sodipodi:type="arc"
       style="fill:#ffffff;fill-rule:evenodd;stroke:#000000;stroke-width:1px;stroke-linecap:butt;stroke-linejoin:miter;stroke-opacity:1;display:inline"
       id="path3296-1"
       sodipodi:cx="8.3336306"
       sodipodi:cy="31.258369"
       sodipodi:rx="3.333631"
       sodipodi:ry="3.2268758"
       d="m 11.667262,31.258369 c 0,1.782155 -1.492518,3.226876 -3.3336314,3.226876 -1.8411136,0 -3.3336311,-1.444721 -3.3336311,-3.226876 0,-1.782154 1.4925175,-3.226875 3.3336311,-3.226875 1.8411134,0 3.3336314,1.444721 3.3336314,3.226875 z"
       transform="matrix(1,0,0,1.0964275,171.66637,-2.7030064)" />
    <path
       sodipodi:type="arc"
       style="fill:#ffffff;fill-rule:evenodd;stroke:#000000;stroke-width:1px;stroke-linecap:butt;stroke-linejoin:miter;stroke-opacity:1;display:inline"
       id="path3296-15"
       sodipodi:cx="8.3336306"
       sodipodi:cy="31.258369"
       sodipodi:rx="3.333631"
       sodipodi:ry="3.2268758"
       d="m 11.667262,31.258369 c 0,1.782155 -1.492518,3.226876 -3.3336314,3.226876 -1.8411136,0 -3.3336311,-1.444721 -3.3336311,-3.226876 0,-1.782154 1.4925175,-3.226875 3.3336311,-3.226875 1.8411134,0 3.3336314,1.444721 3.3336314,3.226875 z"
       transform="matrix(1,0,0,1.0964275,172.16637,13.008958)" />
    <path
       sodipodi:type="arc"
       style="fill:#ffffff;fill-rule:evenodd;stroke:#000000;stroke-width:1px;stroke-linecap:butt;stroke-linejoin:miter;stroke-opacity:1;display:inline"
       id="path3296-27"
       sodipodi:cx="8.3336306"
       sodipodi:cy="31.258369"
       sodipodi:rx="3.333631"
       sodipodi:ry="3.2268758"
       d="m 11.667262,31.258369 c 0,1.782155 -1.492518,3.226876 -3.3336314,3.226876 -1.8411136,0 -3.3336311,-1.444721 -3.3336311,-3.226876 0,-1.782154 1.4925175,-3.226875 3.3336311,-3.226875 1.8411134,0 3.3336314,1.444721 3.3336314,3.226875 z"
       transform="matrix(1,0,0,1.0964275,156.66637,13.883958)" />
    <path
       sodipodi:type="arc"
       style="fill:#ffffff;fill-rule:evenodd;stroke:#000000;stroke-width:1px;stroke-linecap:butt;stroke-linejoin:miter;stroke-opacity:1;display:inline"
       id="path3296-6"
       sodipodi:cx="8.3336306"
       sodipodi:cy="31.258369"
       sodipodi:rx="3.333631"
       sodipodi:ry="3.2268758"
       d="m 11.667262,31.258369 c 0,1.782155 -1.492518,3.226876 -3.3336314,3.226876 -1.8411136,0 -3.3336311,-1.444721 -3.3336311,-3.226876 0,-1.782154 1.4925175,-3.226875 3.3336311,-3.226875 1.8411134,0 3.3336314,1.444721 3.3336314,3.226875 z"
       transform="matrix(1,0,0,1.0964275,139.5,13.758958)" />
    <path
       sodipodi:type="arc"
       style="fill:#ffffff;fill-rule:evenodd;stroke:#000000;stroke-width:1px;stroke-linecap:butt;stroke-linejoin:miter;stroke-opacity:1;display:inline"
       id="path3296-14"
       sodipodi:cx="8.3336306"
       sodipodi:cy="31.258369"
       sodipodi:rx="3.333631"
       sodipodi:ry="3.2268758"
       d="m 11.667262,31.258369 c 0,1.782155 -1.492518,3.226876 -3.3336314,3.226876 -1.8411136,0 -3.3336311,-1.444721 -3.3336311,-3.226876 0,-1.782154 1.4925175,-3.226875 3.3336311,-3.226875 1.8411134,0 3.3336314,1.444721 3.3336314,3.226875 z"
       transform="matrix(1,0,0,1.0964275,120,13.758958)" />
    <path
       sodipodi:type="arc"
       style="fill:#ffffff;fill-rule:evenodd;stroke:#000000;stroke-width:1px;stroke-linecap:butt;stroke-linejoin:miter;stroke-opacity:1;display:inline"
       id="path3296-23"
       sodipodi:cx="8.3336306"
       sodipodi:cy="31.258369"
       sodipodi:rx="3.333631"
       sodipodi:ry="3.2268758"
       d="m 11.667262,31.258369 c 0,1.782155 -1.492518,3.226876 -3.3336314,3.226876 -1.8411136,0 -3.3336311,-1.444721 -3.3336311,-3.226876 0,-1.782154 1.4925175,-3.226875 3.3336311,-3.226875 1.8411134,0 3.3336314,1.444721 3.3336314,3.226875 z"
       transform="matrix(1,0,0,1.0964275,100,12.940631)" />
    <path
       sodipodi:type="arc"
       style="fill:#ffffff;fill-rule:evenodd;stroke:#000000;stroke-width:1px;stroke-linecap:butt;stroke-linejoin:miter;stroke-opacity:1;display:inline"
       id="path3296-22"
       sodipodi:cx="8.3336306"
       sodipodi:cy="31.258369"
       sodipodi:rx="3.333631"
       sodipodi:ry="3.2268758"
       d="m 11.667262,31.258369 c 0,1.782155 -1.492518,3.226876 -3.3336314,3.226876 -1.8411136,0 -3.3336311,-1.444721 -3.3336311,-3.226876 0,-1.782154 1.4925175,-3.226875 3.3336311,-3.226875 1.8411134,0 3.3336314,1.444721 3.3336314,3.226875 z"
       transform="matrix(1,0,0,1.0964275,78.332738,12.410301)" />
    <path
       sodipodi:type="arc"
       style="fill:#ffffff;fill-rule:evenodd;stroke:#000000;stroke-width:1px;stroke-linecap:butt;stroke-linejoin:miter;stroke-opacity:1;display:inline"
       id="path3296-16"
       sodipodi:cx="8.3336306"
       sodipodi:cy="31.258369"
       sodipodi:rx="3.333631"
       sodipodi:ry="3.2268758"
       d="m 11.667262,31.258369 c 0,1.782155 -1.492518,3.226876 -3.3336314,3.226876 -1.8411136,0 -3.3336311,-1.444721 -3.3336311,-3.226876 0,-1.782154 1.4925175,-3.226875 3.3336311,-3.226875 1.8411134,0 3.3336314,1.444721 3.3336314,3.226875 z"
       transform="matrix(1,0,0,1.0964275,55,11.703194)" />
    <path
       sodipodi:type="arc"
       style="fill:#ffffff;fill-rule:evenodd;stroke:#000000;stroke-width:1px;stroke-linecap:butt;stroke-linejoin:miter;stroke-opacity:1;display:inline"
       id="path3296-85"
       sodipodi:cx="8.3336306"
       sodipodi:cy="31.258369"
       sodipodi:rx="3.333631"
       sodipodi:ry="3.2268758"
       d="m 11.667262,31.258369 c 0,1.782155 -1.492518,3.226876 -3.3336314,3.226876 -1.8411136,0 -3.3336311,-1.444721 -3.3336311,-3.226876 0,-1.782154 1.4925175,-3.226875 3.3336311,-3.226875 1.8411134,0 3.3336314,1.444721 3.3336314,3.226875 z"
       transform="matrix(1,0,0,1.0964275,31.666369,10.220923)" />
    <path
       sodipodi:type="arc"
       style="fill:#ffffff;fill-rule:evenodd;stroke:#000000;stroke-width:1px;stroke-linecap:butt;stroke-linejoin:miter;stroke-opacity:1;display:inline"
       id="path3296-76"
       sodipodi:cx="8.3336306"
       sodipodi:cy="31.258369"
       sodipodi:rx="3.333631"
       sodipodi:ry="3.2268758"
       d="m 11.667262,31.258369 c 0,1.782155 -1.492518,3.226876 -3.3336314,3.226876 -1.8411136,0 -3.3336311,-1.444721 -3.3336311,-3.226876 0,-1.782154 1.4925175,-3.226875 3.3336311,-3.226875 1.8411134,0 3.3336314,1.444721 3.3336314,3.226875 z"
       transform="matrix(1,0,0,1.0964275,30,27.966651)" />
    <path
       sodipodi:type="arc"
       style="fill:#ffffff;fill-rule:evenodd;stroke:#000000;stroke-width:1px;stroke-linecap:butt;stroke-linejoin:miter;stroke-opacity:1;display:inline"
       id="path3296-18"
       sodipodi:cx="8.3336306"
       sodipodi:cy="31.258369"
       sodipodi:rx="3.333631"
       sodipodi:ry="3.2268758"
       d="m 11.667262,31.258369 c 0,1.782155 -1.492518,3.226876 -3.3336314,3.226876 -1.8411136,0 -3.3336311,-1.444721 -3.3336311,-3.226876 0,-1.782154 1.4925175,-3.226875 3.3336311,-3.226875 1.8411134,0 3.3336314,1.444721 3.3336314,3.226875 z"
       transform="matrix(1,0,0,1.0964275,53.332738,29.557641)" />
    <path
       sodipodi:type="arc"
       style="fill:#ffffff;fill-rule:evenodd;stroke:#000000;stroke-width:1px;stroke-linecap:butt;stroke-linejoin:miter;stroke-opacity:1;display:inline"
       id="path3296-9"
       sodipodi:cx="8.3336306"
       sodipodi:cy="31.258369"
       sodipodi:rx="3.333631"
       sodipodi:ry="3.2268758"
       d="m 11.667262,31.258369 c 0,1.782155 -1.492518,3.226876 -3.3336314,3.226876 -1.8411136,0 -3.3336311,-1.444721 -3.3336311,-3.226876 0,-1.782154 1.4925175,-3.226875 3.3336311,-3.226875 1.8411134,0 3.3336314,1.444721 3.3336314,3.226875 z"
       transform="matrix(1,0,0,1.0964275,76.666369,30.220923)" />
    <path
       sodipodi:type="arc"
       style="fill:#ffffff;fill-rule:evenodd;stroke:#000000;stroke-width:1px;stroke-linecap:butt;stroke-linejoin:miter;stroke-opacity:1;display:inline"
       id="path3296-279"
       sodipodi:cx="8.3336306"
       sodipodi:cy="31.258369"
       sodipodi:rx="3.333631"
       sodipodi:ry="3.2268758"
       d="m 11.667262,31.258369 c 0,1.782155 -1.492518,3.226876 -3.3336314,3.226876 -1.8411136,0 -3.3336311,-1.444721 -3.3336311,-3.226876 0,-1.782154 1.4925175,-3.226875 3.3336311,-3.226875 1.8411134,0 3.3336314,1.444721 3.3336314,3.226875 z"
       transform="matrix(1,0,0,1.0964275,98.332738,30.795079)" />
    <path
       sodipodi:type="arc"
       style="fill:#ffffff;fill-rule:evenodd;stroke:#000000;stroke-width:1px;stroke-linecap:butt;stroke-linejoin:miter;stroke-opacity:1;display:inline"
       id="path3296-54"
       sodipodi:cx="8.3336306"
       sodipodi:cy="31.258369"
       sodipodi:rx="3.333631"
       sodipodi:ry="3.2268758"
       d="m 11.667262,31.258369 c 0,1.782155 -1.492518,3.226876 -3.3336314,3.226876 -1.8411136,0 -3.3336311,-1.444721 -3.3336311,-3.226876 0,-1.782154 1.4925175,-3.226875 3.3336311,-3.226875 1.8411134,0 3.3336314,1.444721 3.3336314,3.226875 z"
       transform="matrix(1,0,0,1.0964275,119.11612,31.148632)" />
    <path
       sodipodi:type="arc"
       style="fill:#ffffff;fill-rule:evenodd;stroke:#000000;stroke-width:1px;stroke-linecap:butt;stroke-linejoin:miter;stroke-opacity:1;display:inline"
       id="path3296-3"
       sodipodi:cx="8.3336306"
       sodipodi:cy="31.258369"
       sodipodi:rx="3.333631"
       sodipodi:ry="3.2268758"
       d="m 11.667262,31.258369 c 0,1.782155 -1.492518,3.226876 -3.3336314,3.226876 -1.8411136,0 -3.3336311,-1.444721 -3.3336311,-3.226876 0,-1.782154 1.4925175,-3.226875 3.3336311,-3.226875 1.8411134,0 3.3336314,1.444721 3.3336314,3.226875 z"
       transform="matrix(1,0,0,1.0964275,139.03985,31.387093)" />
    <path
       sodipodi:type="arc"
       style="fill:#ffffff;fill-rule:evenodd;stroke:#000000;stroke-width:1px;stroke-linecap:butt;stroke-linejoin:miter;stroke-opacity:1;display:inline"
       id="path3296-12"
       sodipodi:cx="8.3336306"
       sodipodi:cy="31.258369"
       sodipodi:rx="3.333631"
       sodipodi:ry="3.2268758"
       d="m 11.667262,31.258369 c 0,1.782155 -1.492518,3.226876 -3.3336314,3.226876 -1.8411136,0 -3.3336311,-1.444721 -3.3336311,-3.226876 0,-1.782154 1.4925175,-3.226875 3.3336311,-3.226875 1.8411134,0 3.3336314,1.444721 3.3336314,3.226875 z"
       transform="matrix(1,0,0,1.0964275,156.66637,31.502185)" />
    <path
       sodipodi:type="arc"
       style="fill:#ffffff;fill-rule:evenodd;stroke:#000000;stroke-width:1px;stroke-linecap:butt;stroke-linejoin:miter;stroke-opacity:1;display:inline"
       id="path3296-33"
       sodipodi:cx="8.3336306"
       sodipodi:cy="31.258369"
       sodipodi:rx="3.333631"
       sodipodi:ry="3.2268758"
       d="m 11.667262,31.258369 c 0,1.782155 -1.492518,3.226876 -3.3336314,3.226876 -1.8411136,0 -3.3336311,-1.444721 -3.3336311,-3.226876 0,-1.782154 1.4925175,-3.226875 3.3336311,-3.226875 1.8411134,0 3.3336314,1.444721 3.3336314,3.226875 z"
       transform="matrix(1,0,0,1.0964275,172.37348,32.296994)" />
    <path
       sodipodi:type="arc"
       style="fill:#ffffff;fill-rule:evenodd;stroke:#000000;stroke-width:1px;stroke-linecap:butt;stroke-linejoin:miter;stroke-opacity:1;display:inline"
       id="path3296-41"
       sodipodi:cx="8.3336306"
       sodipodi:cy="31.258369"
       sodipodi:rx="3.333631"
       sodipodi:ry="3.2268758"
       d="m 11.667262,31.258369 c 0,1.782155 -1.492518,3.226876 -3.3336314,3.226876 -1.8411136,0 -3.3336311,-1.444721 -3.3336311,-3.226876 0,-1.782154 1.4925175,-3.226875 3.3336311,-3.226875 1.8411134,0 3.3336314,1.444721 3.3336314,3.226875 z"
       transform="matrix(1,0,0,1.0964275,26.666369,47.296994)" />
    <path
       sodipodi:type="arc"
       style="fill:#ffffff;fill-rule:evenodd;stroke:#000000;stroke-width:1px;stroke-linecap:butt;stroke-linejoin:miter;stroke-opacity:1;display:inline"
       id="path3296-13"
       sodipodi:cx="8.3336306"
       sodipodi:cy="31.258369"
       sodipodi:rx="3.333631"
       sodipodi:ry="3.2268758"
       d="m 11.667262,31.258369 c 0,1.782155 -1.492518,3.226876 -3.3336314,3.226876 -1.8411136,0 -3.3336311,-1.444721 -3.3336311,-3.226876 0,-1.782154 1.4925175,-3.226875 3.3336311,-3.226875 1.8411134,0 3.3336314,1.444721 3.3336314,3.226875 z"
       transform="matrix(1,0,0,1.0964275,50,48.758958)" />
    <path
       sodipodi:type="arc"
       style="fill:#ffffff;fill-rule:evenodd;stroke:#000000;stroke-width:1px;stroke-linecap:butt;stroke-linejoin:miter;stroke-opacity:1;display:inline"
       id="path3296-87"
       sodipodi:cx="8.3336306"
       sodipodi:cy="31.258369"
       sodipodi:rx="3.333631"
       sodipodi:ry="3.2268758"
       d="m 11.667262,31.258369 c 0,1.782155 -1.492518,3.226876 -3.3336314,3.226876 -1.8411136,0 -3.3336311,-1.444721 -3.3336311,-3.226876 0,-1.782154 1.4925175,-3.226875 3.3336311,-3.226875 1.8411134,0 3.3336314,1.444721 3.3336314,3.226875 z"
       transform="matrix(1,0,0,1.0964275,46.666369,68.271738)" />
    <path
       sodipodi:type="arc"
       style="fill:#ffffff;fill-rule:evenodd;stroke:#000000;stroke-width:1px;stroke-linecap:butt;stroke-linejoin:miter;stroke-opacity:1;display:inline"
       id="path3296-42"
       sodipodi:cx="8.3336306"
       sodipodi:cy="31.258369"
       sodipodi:rx="3.333631"
       sodipodi:ry="3.2268758"
       d="m 11.667262,31.258369 c 0,1.782155 -1.492518,3.226876 -3.3336314,3.226876 -1.8411136,0 -3.3336311,-1.444721 -3.3336311,-3.226876 0,-1.782154 1.4925175,-3.226875 3.3336311,-3.226875 1.8411134,0 3.3336314,1.444721 3.3336314,3.226875 z"
       transform="matrix(1,0,0,1.0964275,41.666369,90.220923)" />
    <path
       sodipodi:type="arc"
       style="fill:#ffffff;fill-rule:evenodd;stroke:#000000;stroke-width:1px;stroke-linecap:butt;stroke-linejoin:miter;stroke-opacity:1;display:inline"
       id="path3296-77"
       sodipodi:cx="8.3336306"
       sodipodi:cy="31.258369"
       sodipodi:rx="3.333631"
       sodipodi:ry="3.2268758"
       d="m 11.667262,31.258369 c 0,1.782155 -1.492518,3.226876 -3.3336314,3.226876 -1.8411136,0 -3.3336311,-1.444721 -3.3336311,-3.226876 0,-1.782154 1.4925175,-3.226875 3.3336311,-3.226875 1.8411134,0 3.3336314,1.444721 3.3336314,3.226875 z"
       transform="matrix(1,0,0,1.0964275,70.875,68.758958)" />
    <path
       sodipodi:type="arc"
       style="fill:#ffffff;fill-rule:evenodd;stroke:#000000;stroke-width:1px;stroke-linecap:butt;stroke-linejoin:miter;stroke-opacity:1;display:inline"
       id="path3296-93"
       sodipodi:cx="8.3336306"
       sodipodi:cy="31.258369"
       sodipodi:rx="3.333631"
       sodipodi:ry="3.2268758"
       d="m 11.667262,31.258369 c 0,1.782155 -1.492518,3.226876 -3.3336314,3.226876 -1.8411136,0 -3.3336311,-1.444721 -3.3336311,-3.226876 0,-1.782154 1.4925175,-3.226875 3.3336311,-3.226875 1.8411134,0 3.3336314,1.444721 3.3336314,3.226875 z"
       transform="matrix(1,0,0,1.0964275,66.04137,92.296994)" />
    <path
       sodipodi:type="arc"
       style="fill:#ffffff;fill-rule:evenodd;stroke:#000000;stroke-width:1px;stroke-linecap:butt;stroke-linejoin:miter;stroke-opacity:1;display:inline"
       id="path3296-19"
       sodipodi:cx="8.3336306"
       sodipodi:cy="31.258369"
       sodipodi:rx="3.333631"
       sodipodi:ry="3.2268758"
       d="m 11.667262,31.258369 c 0,1.782155 -1.492518,3.226876 -3.3336314,3.226876 -1.8411136,0 -3.3336311,-1.444721 -3.3336311,-3.226876 0,-1.782154 1.4925175,-3.226875 3.3336311,-3.226875 1.8411134,0 3.3336314,1.444721 3.3336314,3.226875 z"
       transform="matrix(1,0,0,1.0964275,93.91637,70.220923)" />
    <path
       sodipodi:type="arc"
       style="fill:#ffffff;fill-rule:evenodd;stroke:#000000;stroke-width:1px;stroke-linecap:butt;stroke-linejoin:miter;stroke-opacity:1;display:inline"
       id="path3296-86"
       sodipodi:cx="8.3336306"
       sodipodi:cy="31.258369"
       sodipodi:rx="3.333631"
       sodipodi:ry="3.2268758"
       d="m 11.667262,31.258369 c 0,1.782155 -1.492518,3.226876 -3.3336314,3.226876 -1.8411136,0 -3.3336311,-1.444721 -3.3336311,-3.226876 0,-1.782154 1.4925175,-3.226875 3.3336311,-3.226875 1.8411134,0 3.3336314,1.444721 3.3336314,3.226875 z"
       transform="matrix(1,0,0,1.0964275,90.75,92.883958)" />
    <path
       sodipodi:type="arc"
       style="fill:#ffffff;fill-rule:evenodd;stroke:#000000;stroke-width:1px;stroke-linecap:butt;stroke-linejoin:miter;stroke-opacity:1;display:inline"
       id="path3296-50"
       sodipodi:cx="8.3336306"
       sodipodi:cy="31.258369"
       sodipodi:rx="3.333631"
       sodipodi:ry="3.2268758"
       d="m 11.667262,31.258369 c 0,1.782155 -1.492518,3.226876 -3.3336314,3.226876 -1.8411136,0 -3.3336311,-1.444721 -3.3336311,-3.226876 0,-1.782154 1.4925175,-3.226875 3.3336311,-3.226875 1.8411134,0 3.3336314,1.444721 3.3336314,3.226875 z"
       transform="matrix(1,0,0,1.0964275,74.16637,49.633958)" />
    <path
       sodipodi:type="arc"
       style="fill:#ffffff;fill-rule:evenodd;stroke:#000000;stroke-width:1px;stroke-linecap:butt;stroke-linejoin:miter;stroke-opacity:1;display:inline"
       id="path3296-28"
       sodipodi:cx="8.3336306"
       sodipodi:cy="31.258369"
       sodipodi:rx="3.333631"
       sodipodi:ry="3.2268758"
       d="m 11.667262,31.258369 c 0,1.782155 -1.492518,3.226876 -3.3336314,3.226876 -1.8411136,0 -3.3336311,-1.444721 -3.3336311,-3.226876 0,-1.782154 1.4925175,-3.226875 3.3336311,-3.226875 1.8411134,0 3.3336314,1.444721 3.3336314,3.226875 z"
       transform="matrix(1,0,0,1.0964275,96.125,50.220923)" />
    <path
       sodipodi:type="arc"
       style="fill:#ffffff;fill-rule:evenodd;stroke:#000000;stroke-width:1px;stroke-linecap:butt;stroke-linejoin:miter;stroke-opacity:1;display:inline"
       id="path3296-60"
       sodipodi:cx="8.3336306"
       sodipodi:cy="31.258369"
       sodipodi:rx="3.333631"
       sodipodi:ry="3.2268758"
       d="m 11.667262,31.258369 c 0,1.782155 -1.492518,3.226876 -3.3336314,3.226876 -1.8411136,0 -3.3336311,-1.444721 -3.3336311,-3.226876 0,-1.782154 1.4925175,-3.226875 3.3336311,-3.226875 1.8411134,0 3.3336314,1.444721 3.3336314,3.226875 z"
       transform="matrix(1,0,0,1.0964275,117.41637,50.220923)" />
    <path
       sodipodi:type="arc"
       style="fill:#ffffff;fill-rule:evenodd;stroke:#000000;stroke-width:1px;stroke-linecap:butt;stroke-linejoin:miter;stroke-opacity:1;display:inline"
       id="path3296-24"
       sodipodi:cx="8.3336306"
       sodipodi:cy="31.258369"
       sodipodi:rx="3.333631"
       sodipodi:ry="3.2268758"
       d="m 11.667262,31.258369 c 0,1.782155 -1.492518,3.226876 -3.3336314,3.226876 -1.8411136,0 -3.3336311,-1.444721 -3.3336311,-3.226876 0,-1.782154 1.4925175,-3.226875 3.3336311,-3.226875 1.8411134,0 3.3336314,1.444721 3.3336314,3.226875 z"
       transform="matrix(1,0,0,1.0964275,137.625,51.008958)" />
    <path
       sodipodi:type="arc"
       style="fill:#ffffff;fill-rule:evenodd;stroke:#000000;stroke-width:1px;stroke-linecap:butt;stroke-linejoin:miter;stroke-opacity:1;display:inline"
       id="path3296-865"
       sodipodi:cx="8.3336306"
       sodipodi:cy="31.258369"
       sodipodi:rx="3.333631"
       sodipodi:ry="3.2268758"
       d="m 11.667262,31.258369 c 0,1.782155 -1.492518,3.226876 -3.3336314,3.226876 -1.8411136,0 -3.3336311,-1.444721 -3.3336311,-3.226876 0,-1.782154 1.4925175,-3.226875 3.3336311,-3.226875 1.8411134,0 3.3336314,1.444721 3.3336314,3.226875 z"
       transform="matrix(1,0,0,1.0964275,155.79137,51.258958)" />
    <path
       sodipodi:type="arc"
       style="fill:#ffffff;fill-rule:evenodd;stroke:#000000;stroke-width:1px;stroke-linecap:butt;stroke-linejoin:miter;stroke-opacity:1;display:inline"
       id="path3296-0"
       sodipodi:cx="8.3336306"
       sodipodi:cy="31.258369"
       sodipodi:rx="3.333631"
       sodipodi:ry="3.2268758"
       d="m 11.667262,31.258369 c 0,1.782155 -1.492518,3.226876 -3.3336314,3.226876 -1.8411136,0 -3.3336311,-1.444721 -3.3336311,-3.226876 0,-1.782154 1.4925175,-3.226875 3.3336311,-3.226875 1.8411134,0 3.3336314,1.444721 3.3336314,3.226875 z"
       transform="matrix(1,0,0,1.0964275,171.66637,51.008958)" />
    <path
       sodipodi:type="arc"
       style="fill:#ffffff;fill-rule:evenodd;stroke:#000000;stroke-width:1px;stroke-linecap:butt;stroke-linejoin:miter;stroke-opacity:1;display:inline"
       id="path3296-90"
       sodipodi:cx="8.3336306"
       sodipodi:cy="31.258369"
       sodipodi:rx="3.333631"
       sodipodi:ry="3.2268758"
       d="m 11.667262,31.258369 c 0,1.782155 -1.492518,3.226876 -3.3336314,3.226876 -1.8411136,0 -3.3336311,-1.444721 -3.3336311,-3.226876 0,-1.782154 1.4925175,-3.226875 3.3336311,-3.226875 1.8411134,0 3.3336314,1.444721 3.3336314,3.226875 z"
       transform="matrix(1,0,0,1.0964275,171.66637,70.758958)" />
    <path
       sodipodi:type="arc"
       style="fill:#ffffff;fill-rule:evenodd;stroke:#000000;stroke-width:1px;stroke-linecap:butt;stroke-linejoin:miter;stroke-opacity:1;display:inline"
       id="path3296-06"
       sodipodi:cx="8.3336306"
       sodipodi:cy="31.258369"
       sodipodi:rx="3.333631"
       sodipodi:ry="3.2268758"
       d="m 11.667262,31.258369 c 0,1.782155 -1.492518,3.226876 -3.3336314,3.226876 -1.8411136,0 -3.3336311,-1.444721 -3.3336311,-3.226876 0,-1.782154 1.4925175,-3.226875 3.3336311,-3.226875 1.8411134,0 3.3336314,1.444721 3.3336314,3.226875 z"
       transform="matrix(1,0,0,1.0964275,155,70.883958)" />
    <path
       sodipodi:type="arc"
       style="fill:#ffffff;fill-rule:evenodd;stroke:#000000;stroke-width:1px;stroke-linecap:butt;stroke-linejoin:miter;stroke-opacity:1;display:inline"
       id="path3296-138"
       sodipodi:cx="8.3336306"
       sodipodi:cy="31.258369"
       sodipodi:rx="3.333631"
       sodipodi:ry="3.2268758"
       d="m 11.667262,31.258369 c 0,1.782155 -1.492518,3.226876 -3.3336314,3.226876 -1.8411136,0 -3.3336311,-1.444721 -3.3336311,-3.226876 0,-1.782154 1.4925175,-3.226875 3.3336311,-3.226875 1.8411134,0 3.3336314,1.444721 3.3336314,3.226875 z"
       transform="matrix(1,0,0,1.0964275,135.66637,70.220923)" />
    <path
       sodipodi:type="arc"
       style="fill:#ffffff;fill-rule:evenodd;stroke:#000000;stroke-width:1px;stroke-linecap:butt;stroke-linejoin:miter;stroke-opacity:1;display:inline"
       id="path3296-934"
       sodipodi:cx="8.3336306"
       sodipodi:cy="31.258369"
       sodipodi:rx="3.333631"
       sodipodi:ry="3.2268758"
       d="m 11.667262,31.258369 c 0,1.782155 -1.492518,3.226876 -3.3336314,3.226876 -1.8411136,0 -3.3336311,-1.444721 -3.3336311,-3.226876 0,-1.782154 1.4925175,-3.226875 3.3336311,-3.226875 1.8411134,0 3.3336314,1.444721 3.3336314,3.226875 z"
       transform="matrix(1,0,0,1.0964275,153.33274,93.758958)" />
    <path
       sodipodi:type="arc"
       style="fill:#ffffff;fill-rule:evenodd;stroke:#000000;stroke-width:1px;stroke-linecap:butt;stroke-linejoin:miter;stroke-opacity:1;display:inline"
       id="path3296-46"
       sodipodi:cx="8.3336306"
       sodipodi:cy="31.258369"
       sodipodi:rx="3.333631"
       sodipodi:ry="3.2268758"
       d="m 11.667262,31.258369 c 0,1.782155 -1.492518,3.226876 -3.3336314,3.226876 -1.8411136,0 -3.3336311,-1.444721 -3.3336311,-3.226876 0,-1.782154 1.4925175,-3.226875 3.3336311,-3.226875 1.8411134,0 3.3336314,1.444721 3.3336314,3.226875 z"
       transform="matrix(1,0,0,1.0964275,170,93.758958)" />
    <path
       sodipodi:type="arc"
       style="fill:#ffffff;fill-rule:evenodd;stroke:#000000;stroke-width:1px;stroke-linecap:butt;stroke-linejoin:miter;stroke-opacity:1;display:inline"
       id="path3296-066"
       sodipodi:cx="8.3336306"
       sodipodi:cy="31.258369"
       sodipodi:rx="3.333631"
       sodipodi:ry="3.2268758"
       d="m 11.667262,31.258369 c 0,1.782155 -1.492518,3.226876 -3.3336314,3.226876 -1.8411136,0 -3.3336311,-1.444721 -3.3336311,-3.226876 0,-1.782154 1.4925175,-3.226875 3.3336311,-3.226875 1.8411134,0 3.3336314,1.444721 3.3336314,3.226875 z"
       transform="matrix(1,0,0,1.0964275,134.16637,93.758958)" />
    <path
       sodipodi:type="arc"
       style="fill:#ffffff;fill-rule:evenodd;stroke:#000000;stroke-width:1px;stroke-linecap:butt;stroke-linejoin:miter;stroke-opacity:1;display:inline"
       id="path3296-184"
       sodipodi:cx="8.3336306"
       sodipodi:cy="31.258369"
       sodipodi:rx="3.333631"
       sodipodi:ry="3.2268758"
       d="m 11.667262,31.258369 c 0,1.782155 -1.492518,3.226876 -3.3336314,3.226876 -1.8411136,0 -3.3336311,-1.444721 -3.3336311,-3.226876 0,-1.782154 1.4925175,-3.226875 3.3336311,-3.226875 1.8411134,0 3.3336314,1.444721 3.3336314,3.226875 z"
       transform="matrix(1,0,0,1.0964275,112.79137,92.921996)" />
    <path
       sodipodi:type="arc"
       style="fill:#ffffff;fill-rule:evenodd;stroke:#000000;stroke-width:1px;stroke-linecap:butt;stroke-linejoin:miter;stroke-opacity:1"
       id="path4527"
       sodipodi:cx="13.375"
       sodipodi:cy="141.53149"
       sodipodi:rx="3.375"
       sodipodi:ry="3.4999998"
       d="m 10.000185,141.56815 c -0.019519,-1.9329 1.475614,-3.51622 3.339473,-3.53646 1.863859,-0.0203 3.390638,1.53026 3.410157,3.46315 1.23e-4,0.0122 1.85e-4,0.0244 1.85e-4,0.0366 l -3.375,0 z"
       sodipodi:start="3.1311207"
       sodipodi:end="6.2831853"
       transform="translate(31.625,6.5)" />
    <path
       sodipodi:type="arc"
       style="fill:#ffffff;fill-rule:evenodd;stroke:#000000;stroke-width:1px;stroke-linecap:butt;stroke-linejoin:miter;stroke-opacity:1"
       id="path4547"
       sodipodi:cx="81.4375"
       sodipodi:cy="159.09399"
       sodipodi:rx="3.5624998"
       sodipodi:ry="2.5625"
       d="m 77.875196,159.12083 c -0.0206,-1.41515 1.557592,-2.57438 3.524998,-2.5892 1.967407,-0.0148 3.579007,1.12038 3.59961,2.53553 1.31e-4,0.009 1.96e-4,0.0179 1.96e-4,0.0268 l -3.5625,0 z"
       sodipodi:start="3.1311207"
       sodipodi:end="6.2831853"
       transform="matrix(0.92107791,0,0,0.98963676,-5.2916221,-9.4137707)" />
    <path
       sodipodi:type="arc"
       style="fill:#ffffff;fill-rule:evenodd;stroke:#000000;stroke-width:1px;stroke-linecap:butt;stroke-linejoin:miter;stroke-opacity:1;display:inline"
       id="path4527-3-7"
       sodipodi:cx="13.375"
       sodipodi:cy="141.53149"
       sodipodi:rx="3.375"
       sodipodi:ry="3.4999998"
       d="m 10.000185,141.56815 c -0.019519,-1.9329 1.475614,-3.51622 3.339473,-3.53646 1.863859,-0.0203 3.390638,1.53026 3.410157,3.46315 1.23e-4,0.0122 1.85e-4,0.0244 1.85e-4,0.0366 l -3.375,0 z"
       sodipodi:start="3.1311207"
       sodipodi:end="6.2831853"
       transform="matrix(0.85185185,0,0,0.57666398,83.606482,66.433703)" />
    <path
       sodipodi:type="arc"
       style="fill:#ffffff;fill-rule:evenodd;stroke:#000000;stroke-width:1px;stroke-linecap:butt;stroke-linejoin:miter;stroke-opacity:1"
       id="path4684"
       sodipodi:cx="8.25"
       sodipodi:cy="111.40649"
       sodipodi:rx="3.25"
       sodipodi:ry="3.3749998"
       d="m 8.3180628,108.03223 c 1.7945322,0.039 3.2188142,1.58138 3.1812242,3.44494 -0.03703,1.83601 -1.480886,3.30432 -3.2492869,3.30432 l -10e-8,-3.375 z"
       sodipodi:start="4.7333329"
       sodipodi:end="7.8539816"
       transform="translate(21.75,-10.374992)" />
    <path
       sodipodi:type="arc"
       style="fill:#ffffff;fill-rule:evenodd;stroke:#000000;stroke-width:1.41554403;stroke-linecap:butt;stroke-linejoin:miter;stroke-miterlimit:4;stroke-opacity:1;stroke-dasharray:none;display:inline"
       id="path4527-3-7-8"
       sodipodi:cx="13.375"
       sodipodi:cy="141.53149"
       sodipodi:rx="3.375"
       sodipodi:ry="3.4999998"
       d="m 10.000185,141.56815 c -0.019519,-1.9329 1.475614,-3.51622 3.339473,-3.53646 1.863859,-0.0203 3.390638,1.53026 3.410157,3.46315 1.23e-4,0.0122 1.85e-4,0.0244 1.85e-4,0.0366 l -3.375,0 z"
       sodipodi:start="3.1311207"
       sodipodi:end="6.2831853"
       transform="matrix(0,0.85185185,-0.57666398,0,111.61611,111.63798)" />
    <path
       sodipodi:type="arc"
       style="fill:#ffffff;fill-rule:evenodd;stroke:#000000;stroke-width:1px;stroke-linecap:butt;stroke-linejoin:miter;stroke-opacity:1;display:inline;enable-background:new"
       id="path3296-19-8"
       sodipodi:cx="8.3336306"
       sodipodi:cy="31.258369"
       sodipodi:rx="3.333631"
       sodipodi:ry="3.2268758"
       d="m 11.667262,31.258369 a 3.333631,3.2268758 0 1 1 -6.6672625,0 3.333631,3.2268758 0 1 1 6.6672625,0 z"
       transform="matrix(1,0,0,1.0964275,115.81554,70.29561)" />
  </g>
</svg>
