<?xml version="1.0" encoding="UTF-8" standalone="no"?>
<!-- Created with Inkscape (http://www.inkscape.org/) -->

<svg
   xmlns:dc="http://purl.org/dc/elements/1.1/"
   xmlns:cc="http://creativecommons.org/ns#"
   xmlns:rdf="http://www.w3.org/1999/02/22-rdf-syntax-ns#"
   xmlns:svg="http://www.w3.org/2000/svg"
   xmlns="http://www.w3.org/2000/svg"
   xmlns:sodipodi="http://sodipodi.sourceforge.net/DTD/sodipodi-0.dtd"
   xmlns:inkscape="http://www.inkscape.org/namespaces/inkscape"
   width="325.98425"
   height="248.03149"
   id="svg2"
   version="1.1"
   inkscape:version="0.48.0 r9654"
   sodipodi:docname="dlin_dug_kriv.pdf"
   enable-background="new">
  <sodipodi:namedview
     id="base"
     pagecolor="#ffffff"
     bordercolor="#666666"
     borderopacity="1.0"
     inkscape:pageopacity="0.0"
     inkscape:pageshadow="2"
     inkscape:zoom="1"
     inkscape:cx="144.88281"
     inkscape:cy="104.68038"
     inkscape:document-units="cm"
     inkscape:current-layer="layer3"
     showgrid="true"
     inkscape:window-width="800"
     inkscape:window-height="579"
     inkscape:window-x="-4"
     inkscape:window-y="-4"
     inkscape:window-maximized="1"
     units="cm"
     width="9.2cm"
     showguides="true"
     inkscape:guide-bbox="true"
     inkscape:showpageshadow="false"
     objecttolerance="4"
     gridtolerance="4">
    <inkscape:grid
       type="xygrid"
       id="grid3254"
       empspacing="5"
       visible="true"
       enabled="true"
       snapvisiblegridlinesonly="true" />
  </sodipodi:namedview>
  <defs
     id="defs4"><inkscape:perspective
   id="perspective4264"
   inkscape:persp3d-origin="162.99213 : 82.677165 : 1"
   inkscape:vp_z="325.98425 : 124.01575 : 1"
   inkscape:vp_y="0 : 1000 : 0"
   inkscape:vp_x="0 : 124.01575 : 1"
   sodipodi:type="inkscape:persp3d" />
<marker
   inkscape:stockid="Arrow1Send"
   orient="auto"
   refY="0.0"
   refX="0.0"
   id="Arrow1Send"
   style="overflow:visible;">
  <path
     id="path3997"
     d="M 0.0,0.0 L 5.0,-5.0 L -12.5,0.0 L 5.0,5.0 L 0.0,0.0 z "
     style="fill-rule:evenodd;stroke:#000000;stroke-width:1.0pt;marker-start:none;"
     transform="scale(0.2) rotate(180) translate(6,0)" />
</marker>
<marker
   inkscape:stockid="Arrow1Sstart"
   orient="auto"
   refY="0.0"
   refX="0.0"
   id="Arrow1Sstart"
   style="overflow:visible">
  <path
     id="path3994"
     d="M 0.0,0.0 L 5.0,-5.0 L -12.5,0.0 L 5.0,5.0 L 0.0,0.0 z "
     style="fill-rule:evenodd;stroke:#000000;stroke-width:1.0pt;marker-start:none"
     transform="scale(0.2) translate(6,0)" />
</marker>
<marker
   inkscape:stockid="Arrow1Mend"
   orient="auto"
   refY="0.0"
   refX="0.0"
   id="Arrow1Mend"
   style="overflow:visible;">
  <path
     id="path3991"
     d="M 0.0,0.0 L 5.0,-5.0 L -12.5,0.0 L 5.0,5.0 L 0.0,0.0 z "
     style="fill-rule:evenodd;stroke:#000000;stroke-width:1.0pt;marker-start:none;"
     transform="scale(0.4) rotate(180) translate(10,0)" />
</marker>
<marker
   inkscape:stockid="Arrow1Mstart"
   orient="auto"
   refY="0.0"
   refX="0.0"
   id="Arrow1Mstart"
   style="overflow:visible">
  <path
     id="path3988"
     d="M 0.0,0.0 L 5.0,-5.0 L -12.5,0.0 L 5.0,5.0 L 0.0,0.0 z "
     style="fill-rule:evenodd;stroke:#000000;stroke-width:1.0pt;marker-start:none"
     transform="scale(0.4) translate(10,0)" />
</marker>
<marker
   inkscape:stockid="Arrow2Lend"
   orient="auto"
   refY="0.0"
   refX="0.0"
   id="Arrow2Lend"
   style="overflow:visible;">
  <path
     id="path4003"
     style="font-size:12.0;fill-rule:evenodd;stroke-width:0.62500000;stroke-linejoin:round;"
     d="M 8.7185878,4.0337352 L -2.2072895,0.016013256 L 8.7185884,-4.0017078 C 6.9730900,-1.6296469 6.9831476,1.6157441 8.7185878,4.0337352 z "
     transform="scale(1.1) rotate(180) translate(1,0)" />
</marker>
<marker
   inkscape:stockid="Arrow2Lstart"
   orient="auto"
   refY="0.0"
   refX="0.0"
   id="Arrow2Lstart"
   style="overflow:visible">
  <path
     id="path4000"
     style="font-size:12.0;fill-rule:evenodd;stroke-width:0.62500000;stroke-linejoin:round"
     d="M 8.7185878,4.0337352 L -2.2072895,0.016013256 L 8.7185884,-4.0017078 C 6.9730900,-1.6296469 6.9831476,1.6157441 8.7185878,4.0337352 z "
     transform="scale(1.1) translate(1,0)" />
</marker>
<marker
   style="overflow:visible"
   id="Arrow1Lend"
   refX="0"
   refY="0"
   orient="auto"
   inkscape:stockid="Arrow1Lend">
  <path
     transform="matrix(-0.8,0,0,-0.8,-10,0)"
     style="fill-rule:evenodd;stroke:#000000;stroke-width:1pt;marker-start:none"
     d="M 0,0 5,-5 -12.5,0 5,5 0,0 z"
     id="path4440"
     inkscape:connector-curvature="0" />
</marker>
<marker
   style="overflow:visible"
   id="Arrow1Lstart"
   refX="0"
   refY="0"
   orient="auto"
   inkscape:stockid="Arrow1Lstart">
  <path
     transform="matrix(0.8,0,0,0.8,10,0)"
     style="fill-rule:evenodd;stroke:#000000;stroke-width:1pt;marker-start:none"
     d="M 0,0 5,-5 -12.5,0 5,5 0,0 z"
     id="path4437"
     inkscape:connector-curvature="0" />
</marker>
<marker
   inkscape:stockid="Arrow2Lstart"
   orient="auto"
   refY="0"
   refX="0"
   id="Arrow2Lstart-4"
   style="overflow:visible">
  <path
     inkscape:connector-curvature="0"
     id="path4000-4"
     style="font-size:12px;fill-rule:evenodd;stroke-width:0.625;stroke-linejoin:round"
     d="M 8.7185878,4.0337352 -2.2072895,0.01601326 8.7185884,-4.0017078 c -1.7454984,2.3720609 -1.7354408,5.6174519 -6e-7,8.035443 z"
     transform="matrix(1.1,0,0,1.1,1.1,0)" />
</marker>
<marker
   inkscape:stockid="Arrow2Lend"
   orient="auto"
   refY="0"
   refX="0"
   id="Arrow2Lend-3"
   style="overflow:visible">
  <path
     inkscape:connector-curvature="0"
     id="path4003-0"
     style="font-size:12px;fill-rule:evenodd;stroke-width:0.625;stroke-linejoin:round"
     d="M 8.7185878,4.0337352 -2.2072895,0.01601326 8.7185884,-4.0017078 c -1.7454984,2.3720609 -1.7354408,5.6174519 -6e-7,8.035443 z"
     transform="matrix(-1.1,0,0,-1.1,-1.1,0)" />
</marker>
<marker
   inkscape:stockid="Arrow2Lend"
   orient="auto"
   refY="0"
   refX="0"
   id="marker7119"
   style="overflow:visible">
  <path
     inkscape:connector-curvature="0"
     id="path7121"
     style="font-size:12px;fill-rule:evenodd;stroke-width:0.625;stroke-linejoin:round"
     d="M 8.7185878,4.0337352 -2.2072895,0.01601326 8.7185884,-4.0017078 c -1.7454984,2.3720609 -1.7354408,5.6174519 -6e-7,8.035443 z"
     transform="matrix(-1.1,0,0,-1.1,-1.1,0)" />
</marker>
<marker
   inkscape:stockid="Arrow1Mstart"
   orient="auto"
   refY="0"
   refX="0"
   id="Arrow1Mstart-3"
   style="overflow:visible">
  <path
     inkscape:connector-curvature="0"
     id="path3988-7"
     d="M 0,0 5,-5 -12.5,0 5,5 0,0 z"
     style="fill-rule:evenodd;stroke:#000000;stroke-width:1pt;marker-start:none"
     transform="matrix(0.4,0,0,0.4,4,0)" />
</marker>
<marker
   inkscape:stockid="Arrow1Mend"
   orient="auto"
   refY="0"
   refX="0"
   id="Arrow1Mend-5"
   style="overflow:visible">
  <path
     inkscape:connector-curvature="0"
     id="path3991-5"
     d="M 0,0 5,-5 -12.5,0 5,5 0,0 z"
     style="fill-rule:evenodd;stroke:#000000;stroke-width:1pt;marker-start:none"
     transform="matrix(-0.4,0,0,-0.4,-4,0)" />
</marker>
<marker
   inkscape:stockid="Arrow1Mend"
   orient="auto"
   refY="0"
   refX="0"
   id="Arrow1Mend-4"
   style="overflow:visible">
  <path
     inkscape:connector-curvature="0"
     id="path3991-2"
     d="M 0,0 5,-5 -12.5,0 5,5 0,0 z"
     style="fill-rule:evenodd;stroke:#000000;stroke-width:1pt;marker-start:none"
     transform="matrix(-0.4,0,0,-0.4,-4,0)" />
</marker>


















































</defs>
  <metadata
     id="metadata7">
    <rdf:RDF>
      <cc:Work
         rdf:about="">
        <dc:format>image/svg+xml</dc:format>
        <dc:type
           rdf:resource="http://purl.org/dc/dcmitype/StillImage" />
        <dc:title></dc:title>
      </cc:Work>
    </rdf:RDF>
  </metadata>
  <g
     inkscape:groupmode="layer"
     id="layer5"
     inkscape:label="Надписи"
     style="display:none" />
  <g
     inkscape:groupmode="layer"
     id="layer4"
     inkscape:label="Слой3"
     style="display:none" />
  <g
     inkscape:label="Слой2"
     id="layer2"
     inkscape:groupmode="layer"
     transform="translate(0,-804.32946)"
     style="display:none">
    <text
       sodipodi:linespacing="125%"
       id="text3997"
       y="849.18628"
       x="114.07245"
       style="font-size:12px;font-style:normal;font-variant:normal;font-weight:normal;font-stretch:normal;line-height:125%;letter-spacing:0px;word-spacing:0px;fill:#000000;fill-opacity:1;stroke:none;font-family:cmmi12;-inkscape-font-specification:cmmi12"
       xml:space="preserve"><tspan
         y="849.18628"
         x="114.07245"
         id="tspan3999"
         sodipodi:role="line" /></text>
    <text
       sodipodi:linespacing="125%"
       id="text4001"
       y="739.52142"
       x="257.33582"
       style="font-size:12px;font-style:normal;font-variant:normal;font-weight:normal;font-stretch:normal;line-height:125%;letter-spacing:0px;word-spacing:0px;fill:#000000;fill-opacity:1;stroke:none;font-family:cmmi12;-inkscape-font-specification:cmmi12"
       xml:space="preserve"><tspan
         y="739.52142"
         x="257.33582"
         id="tspan4003"
         sodipodi:role="line">  </tspan></text>
    <text
       sodipodi:linespacing="125%"
       id="text4009"
       y="837.7204"
       x="125.36874"
       style="font-size:12px;font-style:normal;font-variant:normal;font-weight:normal;font-stretch:normal;line-height:125%;letter-spacing:0px;word-spacing:0px;fill:#000000;fill-opacity:1;stroke:none;font-family:cmmi12;-inkscape-font-specification:cmmi12"
       xml:space="preserve"><tspan
         y="837.7204"
         x="125.36874"
         id="tspan4011"
         sodipodi:role="line" /></text>
  </g>
  <g
     inkscape:label="Слой1"
     id="layer3"
     inkscape:groupmode="layer"
     style="display:inline">
    <g
       transform="matrix(1.25,0,0,-1.25,0,1052.5)"
       inkscape:label="ink_ext_XXXXXX"
       id="g3521">
      <g
         transform="scale(0.1,0.1)"
         id="g3523" />
    </g>
    <g
       transform="matrix(1.25,0,0,-1.25,0,1052.5)"
       inkscape:label="ink_ext_XXXXXX"
       id="g3535">
      <g
         transform="scale(0.1,0.1)"
         id="g3537" />
    </g>
    <text
       xml:space="preserve"
       style="font-size:14.93999958px;font-style:normal;font-variant:normal;font-weight:normal;font-stretch:normal;line-height:125%;letter-spacing:0px;word-spacing:0px;fill:#000000;fill-opacity:1;stroke:none;font-family:cmmi12;-inkscape-font-specification:cmmi12"
       x="104"
       y="224.03149"
       id="text6249"
       sodipodi:linespacing="125%"><tspan
         sodipodi:role="line"
         id="tspan6251"
         x="104"
         y="224.03149" /></text>
    <path
       sodipodi:nodetypes="cc"
       inkscape:connector-curvature="0"
       id="path3027"
       d="M 32.828427,168.03149 C 93.965067,28.031494 370,103.48734 255.95837,158.03149"
       style="fill:none;stroke:#000000;stroke-width:0.99212598;stroke-linecap:butt;stroke-linejoin:miter;stroke-opacity:1;stroke-miterlimit:4;stroke-dasharray:none" />
    <path
       inkscape:connector-curvature="0"
       id="path3031-8"
       d="m 160.5,89.531492 c 0,1.38073 -1.11929,2.50001 -2.5,2.50001 -1.38071,0 -2.5,-1.11928 -2.5,-2.50001 0,-1.38071 1.11929,-2.5 2.5,-2.5 1.38071,0 2.5,1.11929 2.5,2.5 z"
       style="fill:#ffffff;stroke:none;stroke-width:0.99212599000000001;stroke-miterlimit:4;stroke-opacity:1;stroke-dasharray:none;display:inline" />
    <path
       inkscape:connector-curvature="0"
       id="path3031-82"
       d="m 178.5,87.53148 c 0,1.38073 -1.11929,2.50001 -2.5,2.50001 -1.38072,0 -2.5,-1.11928 -2.5,-2.50001 0,-1.38071 1.11928,-2.5 2.5,-2.5 1.38071,0 2.5,1.11929 2.5,2.5 z"
       style="fill:#ffffff;stroke:none;stroke-width:0.99212599000000001;stroke-miterlimit:4;stroke-opacity:1;stroke-dasharray:none;display:inline" />
    <path
       inkscape:connector-curvature="0"
       id="path3031-45"
       d="m 192,88.781492 c 0,1.38073 -1.11929,2.50001 -2.5,2.50001 -1.38072,0 -2.5,-1.11928 -2.5,-2.50001 0,-1.38071 1.11928,-2.5 2.5,-2.5 1.38071,0 2.5,1.11929 2.5,2.5 z"
       style="fill:#ffffff;stroke:none;stroke-width:0.99212599000000001;stroke-miterlimit:4;stroke-opacity:1;stroke-dasharray:none;display:inline" />
    <path
       inkscape:connector-curvature="0"
       id="path3031-5"
       d="m 207,89.781492 c 0,1.38073 -1.11929,2.50001 -2.5,2.50001 -1.38072,0 -2.5,-1.11928 -2.5,-2.50001 0,-1.38071 1.11928,-2.5 2.5,-2.5 1.38071,0 2.5,1.11929 2.5,2.5 z"
       style="fill:#ffffff;stroke:none;stroke-width:0.99212599000000001;stroke-miterlimit:4;stroke-opacity:1;stroke-dasharray:none;display:inline" />
    <path
       sodipodi:nodetypes="cc"
       inkscape:connector-curvature="0"
       id="path3967"
       d="M 32.999999,168.03149 45,126.03149"
       style="fill:none;stroke:#000000;stroke-width:0.70866142;stroke-linecap:butt;stroke-linejoin:miter;stroke-opacity:1;stroke-miterlimit:4;stroke-dasharray:none" />
    <path
       sodipodi:nodetypes="cc"
       inkscape:connector-curvature="0"
       id="path3969"
       d="M 62.499999,126.23861 90,99.622484"
       style="fill:none;stroke:#000000;stroke-width:0.70866142;stroke-linecap:butt;stroke-linejoin:miter;stroke-opacity:1;stroke-miterlimit:4;stroke-dasharray:none" />
    <path
       sodipodi:nodetypes="cc"
       inkscape:connector-curvature="0"
       id="path3971"
       d="M 103.35355,101.23861 136.76777,84.976038"
       style="fill:none;stroke:#000000;stroke-width:0.70866142;stroke-linecap:butt;stroke-linejoin:miter;stroke-opacity:1;stroke-miterlimit:4;stroke-dasharray:none" />
    <path
       inkscape:connector-curvature="0"
       id="path3973"
       d="M 32.880465,168.03149 63.462832,126.58591"
       style="fill:none;stroke:#000000;stroke-width:1px;stroke-linecap:butt;stroke-linejoin:miter;stroke-opacity:1" />
    <path
       inkscape:connector-curvature="0"
       id="path3975"
       d="M 63.286056,126.58591 103.41436,101.83717"
       style="fill:none;stroke:#000000;stroke-width:1px;stroke-linecap:butt;stroke-linejoin:miter;stroke-opacity:1" />
    <path
       inkscape:connector-curvature="0"
       id="path3977"
       d="M 237.58787,95.473209 280,119.69162"
       style="fill:none;stroke:#000000;stroke-width:0.70866142;stroke-linecap:butt;stroke-linejoin:miter;stroke-opacity:1;stroke-miterlimit:4;stroke-dasharray:none" />
    <path
       inkscape:connector-curvature="0"
       id="path3979"
       d="m 237.94143,95.119655 41.18897,7.911835"
       style="fill:none;stroke:#000000;stroke-width:0.70866142;stroke-linecap:butt;stroke-linejoin:miter;stroke-opacity:1;stroke-miterlimit:4;stroke-dasharray:none" />
    <path
       inkscape:connector-curvature="0"
       id="path3031"
       d="m 35.5,167.53148 c 0,1.38073 -1.119288,2.50001 -2.5,2.50001 -1.380712,0 -2.5,-1.11928 -2.5,-2.50001 0,-1.38071 1.119288,-2.5 2.5,-2.5 1.380712,0 2.5,1.11929 2.5,2.5 z"
       style="fill:#ffffff;stroke:#000000;stroke-width:0.70866142;stroke-miterlimit:4;stroke-opacity:1;stroke-dasharray:none" />
    <path
       inkscape:connector-curvature="0"
       id="path3031-1"
       d="m 65.5,126.53148 c 0,1.38073 -1.119288,2.50001 -2.5,2.50001 -1.380712,0 -2.5,-1.11928 -2.5,-2.50001 0,-1.38071 1.119288,-2.5 2.5,-2.5 1.380712,0 2.5,1.11929 2.5,2.5 z"
       style="fill:#ffffff;stroke:#000000;stroke-width:0.70866142;stroke-miterlimit:4;stroke-opacity:1;stroke-dasharray:none;display:inline" />
    <path
       inkscape:connector-curvature="0"
       id="path3031-7"
       d="m 105.5,101.53149 c 0,1.38073 -1.11929,2.5 -2.5,2.5 -1.38071,0 -2.5,-1.11927 -2.5,-2.5 0,-1.38071 1.11929,-2.500002 2.5,-2.500002 1.38071,0 2.5,1.119292 2.5,2.500002 z"
       style="fill:#ffffff;stroke:#000000;stroke-width:0.70866142;stroke-miterlimit:4;stroke-opacity:1;stroke-dasharray:none;display:inline" />
    <path
       inkscape:connector-curvature="0"
       id="path3031-17"
       d="m 47.5,126.53148 c 0,1.38073 -1.119288,2.50001 -2.5,2.50001 -1.380712,0 -2.5,-1.11928 -2.5,-2.50001 0,-1.38071 1.119288,-2.5 2.5,-2.5 1.380712,0 2.5,1.11929 2.5,2.5 z"
       style="fill:#ffffff;stroke:#000000;stroke-width:0.70866142;stroke-miterlimit:4;stroke-opacity:1;stroke-dasharray:none;display:inline" />
    <path
       inkscape:connector-curvature="0"
       id="path3031-11"
       d="m 92.5,99.53148 c 0,1.38073 -1.119288,2.50001 -2.5,2.50001 -1.380712,0 -2.5,-1.11928 -2.5,-2.50001 0,-1.38071 1.119288,-2.5 2.5,-2.5 1.380712,0 2.5,1.11929 2.5,2.5 z"
       style="fill:#ffffff;stroke:#000000;stroke-width:0.70866142;stroke-miterlimit:4;stroke-opacity:1;stroke-dasharray:none;display:inline" />
    <path
       inkscape:connector-curvature="0"
       id="path3031-52"
       d="m 139,85.031494 c 0,1.38073 -1.11929,2.50001 -2.5,2.50001 -1.38071,0 -2.5,-1.11928 -2.5,-2.50001 0,-1.38071 1.11929,-2.5 2.5,-2.5 1.38071,0 2.5,1.11929 2.5,2.5 z"
       style="fill:#ffffff;stroke:#000000;stroke-width:0.70866142;stroke-miterlimit:4;stroke-opacity:1;stroke-dasharray:none;display:inline" />
    <path
       inkscape:connector-curvature="0"
       id="path3031-0"
       d="m 240.5,95.531484 c 0,1.38073 -1.11929,2.50001 -2.5,2.50001 -1.38072,0 -2.5,-1.11928 -2.5,-2.50001 0,-1.38071 1.11928,-2.5 2.5,-2.5 1.38071,0 2.5,1.11929 2.5,2.5 z"
       style="fill:#ffffff;stroke:#000000;stroke-width:0.70866142;stroke-miterlimit:4;stroke-opacity:1;stroke-dasharray:none;display:inline" />
    <path
       inkscape:connector-curvature="0"
       id="path3031-4"
       d="m 282.5,119.53148 c 0,1.38073 -1.11929,2.50001 -2.5,2.50001 -1.38071,0 -2.5,-1.11928 -2.5,-2.50001 0,-1.38071 1.11929,-2.5 2.5,-2.5 1.38071,0 2.5,1.11929 2.5,2.5 z"
       style="fill:#ffffff;stroke:#000000;stroke-width:0.70866142;stroke-miterlimit:4;stroke-opacity:1;stroke-dasharray:none;display:inline" />
    <path
       inkscape:connector-curvature="0"
       id="path3031-76"
       d="m 281.5,103.53148 c 0,1.38073 -1.11929,2.50001 -2.5,2.50001 -1.38071,0 -2.5,-1.11928 -2.5,-2.50001 0,-1.38071 1.11929,-2.5 2.5,-2.5 1.38071,0 2.5,1.11929 2.5,2.5 z"
       style="fill:#ffffff;stroke:#000000;stroke-width:0.70866142;stroke-miterlimit:4;stroke-opacity:1;stroke-dasharray:none;display:inline" />
    <g
       id="g4358"
       transform="translate(84.092,142.968)">
      <path
         id="path4092"
         d="m -63.776,18.94349 0.012,-0.036 0.012,-0.036 0.012,-0.036 0,-0.036 0.012,-0.036 0.012,-0.024 0.012,-0.036 0.012,-0.024 0.012,-0.024 0.012,-0.024 0.012,-0.024 0.024,-0.024 0.012,-0.024 0.024,-0.012 0.012,-0.024 0.024,-0.012 0.036,-0.012 0.024,-0.012 0.036,-0.012 0.024,-0.012 0.036,-0.012 0.024,-0.012 0.024,0 0.024,0 0.012,-0.012 0.024,0 0.024,0 0.024,-0.012 0.036,0 0.024,0 0.024,0 0.024,0 0.036,-0.012 0.036,0 0.024,0 0.036,0 0.036,0 0.036,0 0.036,0 0.036,0 0.036,0 0.048,0 0.036,0 c 0.276,0 0.384,0 0.384,-0.24 0,-0.132 -0.12,-0.132 -0.324,-0.132 h -1.584 c -0.312,0 -0.312,0 -0.456,0.228 l -4.368,6.804 -0.936,-6.756 c -0.036,-0.276 -0.06,-0.276 -0.372,-0.276 h -1.644 c -0.216,0 -0.348,0 -0.348,0.228 0,0.144 0.108,0.144 0.336,0.144 0.156,0 0.372,0.012 0.516,0.024 0.192,0.024 0.264,0.06 0.264,0.192 0,0.036 -0.012,0.084 -0.048,0.216 l -1.512,6.084 c -0.12,0.48 -0.324,0.864 -1.296,0.9 -0.06,0 -0.216,0.012 -0.216,0.228 0,0.096 0.072,0.132 0.168,0.132 0.384,0 0.804,-0.036 1.2,-0.036 0.408,0 0.828,0.036 1.224,0.036 0.06,0 0.216,0 0.216,-0.228 0,-0.132 -0.132,-0.132 -0.216,-0.132 -0.672,-0.012 -0.804,-0.252 -0.804,-0.528 0,-0.084 0.012,-0.144 0.048,-0.276 l 1.62,-6.504 h 0.012 l 1.032,7.404 c 0.024,0.144 0.036,0.264 0.18,0.264 0.132,0 0.204,-0.12 0.264,-0.204 l 4.824,-7.56 h 0.024 l -1.716,6.84 c -0.12,0.468 -0.144,0.564 -1.092,0.564 -0.204,0 -0.336,0 -0.336,0.228 0,0.132 0.144,0.132 0.18,0.132 0.336,0 1.152,-0.036 1.488,-0.036 0.492,0 1.008,0.036 1.488,0.036 0.084,0 0.228,0 0.228,-0.228 0,-0.132 -0.108,-0.132 -0.336,-0.132 -0.432,0 -0.768,0 -0.768,-0.216 0,-0.048 0,-0.072 0.06,-0.288 z"
         inkscape:connector-curvature="0"
         style="font-style:normal;font-variant:normal;font-weight:normal;font-stretch:normal;letter-spacing:normal;word-spacing:normal;text-anchor:start;fill:#000000;stroke:#000000;stroke-width:0;stroke-linecap:butt;stroke-linejoin:miter;stroke-miterlimit:10.43299961;stroke-opacity:1;stroke-dasharray:none;stroke-dashoffset:0" />
      <path
         id="path4094"
         d="m -58.94,25.31549 0,-0.168 0,-0.168 -0.012,-0.156 -0.012,-0.144 -0.012,-0.156 -0.012,-0.144 -0.024,-0.132 -0.024,-0.132 -0.036,-0.132 -0.036,-0.132 -0.036,-0.12 -0.048,-0.12 -0.048,-0.12 -0.06,-0.108 -0.06,-0.12 -0.036,-0.048 -0.036,-0.06 c -0.264,-0.384 -0.78,-0.72 -1.452,-0.72 v 0.24 c 0.456,0 0.888,0.276 1.044,0.756 0.132,0.456 0.144,1.056 0.144,1.776 0,0.624 0,1.236 -0.108,1.764 -0.168,0.756 -0.744,0.936 -1.08,0.936 h 0 c -0.372,0 -0.888,-0.216 -1.056,-0.9 -0.12,-0.492 -0.12,-1.176 -0.12,-1.8 0,-0.612 0,-1.248 0.132,-1.704 0.168,-0.66 0.708,-0.828 1.044,-0.828 v -0.24 c -1.932,0 -1.932,2.28 -1.932,2.88 0,0.6 0,2.832 1.932,2.832 1.944,0 1.944,-2.232 1.944,-2.832 z"
         inkscape:connector-curvature="0"
         style="font-style:normal;font-variant:normal;font-weight:normal;font-stretch:normal;letter-spacing:normal;word-spacing:normal;text-anchor:start;fill:#000000;stroke:#000000;stroke-width:0;stroke-linecap:butt;stroke-linejoin:miter;stroke-miterlimit:10.43299961;stroke-opacity:1;stroke-dasharray:none;stroke-dashoffset:0" />
    </g>
    <g
       id="g4362"
       transform="translate(79.012,85.508004)">
      <path
         id="path4096"
         d="m -45.836,33.29549 0.012,-0.036 0,-0.048 0.012,-0.036 0.012,-0.024 0.012,-0.036 0.012,-0.036 0,-0.024 0.012,-0.024 0.012,-0.036 0.012,-0.024 0.024,-0.024 0.012,-0.012 0.012,-0.024 0.024,-0.024 0.024,-0.012 0.024,-0.012 0.024,-0.024 0.024,-0.012 0.036,-0.012 0.036,-0.012 0.036,-0.012 0.012,0 0.024,-0.012 0.024,0 0.024,0 0.024,-0.012 0.024,0 0.024,0 0.024,0 0.024,-0.012 0.024,0 0.036,0 0.024,0 0.036,0 0.036,0 0.024,-0.012 0.036,0 0.036,0 0.036,0 0.036,0 0.048,0 0.036,0 0.036,0 c 0.276,0 0.384,0 0.384,-0.24 0,-0.132 -0.12,-0.132 -0.324,-0.132 h -1.572 c -0.312,0 -0.324,0 -0.468,0.228 l -4.368,6.816 -0.936,-6.768 c -0.036,-0.276 -0.06,-0.276 -0.372,-0.276 h -1.632 c -0.228,0 -0.36,0 -0.36,0.228 0,0.144 0.108,0.144 0.348,0.144 0.156,0 0.372,0.012 0.516,0.024 0.192,0.024 0.264,0.06 0.264,0.192 0,0.048 -0.012,0.084 -0.048,0.228 l -1.524,6.084 c -0.12,0.468 -0.324,0.852 -1.296,0.888 -0.06,0 -0.216,0.012 -0.216,0.228 0,0.108 0.072,0.144 0.168,0.144 0.384,0 0.804,-0.036 1.2,-0.036 0.408,0 0.84,0.036 1.236,0.036 0.06,0 0.216,0 0.216,-0.24 0,-0.132 -0.132,-0.132 -0.216,-0.132 -0.684,-0.012 -0.816,-0.252 -0.816,-0.528 0,-0.084 0.012,-0.144 0.048,-0.276 l 1.632,-6.504 h 0.012 l 1.02,7.404 c 0.024,0.144 0.036,0.276 0.18,0.276 0.132,0 0.204,-0.132 0.264,-0.216 l 4.836,-7.56 h 0.012 l -1.716,6.84 c -0.12,0.468 -0.144,0.564 -1.08,0.564 -0.204,0 -0.336,0 -0.336,0.228 0,0.144 0.144,0.144 0.18,0.144 0.336,0 1.14,-0.036 1.476,-0.036 0.492,0 1.008,0.036 1.5,0.036 0.072,0 0.228,0 0.228,-0.24 0,-0.132 -0.108,-0.132 -0.336,-0.132 -0.444,0 -0.78,0 -0.78,-0.216 0,-0.048 0,-0.072 0.06,-0.288 z"
         inkscape:connector-curvature="0"
         style="font-style:normal;font-variant:normal;font-weight:normal;font-stretch:normal;letter-spacing:normal;word-spacing:normal;text-anchor:start;fill:#000000;stroke:#000000;stroke-width:0;stroke-linecap:butt;stroke-linejoin:miter;stroke-miterlimit:10.43299961;stroke-opacity:1;stroke-dasharray:none;stroke-dashoffset:0" />
      <path
         id="path4098"
         d="m -41.588,32.25149 0,-0.012 0.012,-0.012 0,-0.012 0.012,-0.012 0,-0.012 0,-0.012 0.012,-0.012 0,0 0,-0.012 0.012,-0.012 0,-0.012 0,-0.012 0,0 0.012,-0.012 0,-0.012 0,0 0,-0.012 0,-0.012 0,0 0,-0.012 0,0 0.012,-0.012 0,-0.012 0,0 0,-0.012 0,-0.012 0,-0.012 0,-0.012 c 0,-0.264 -0.24,-0.456 -0.492,-0.456 -0.324,0 -0.42,0.252 -0.468,0.396 l -1.092,3.612 c -0.012,0.012 -0.048,0.12 -0.048,0.132 0,0.096 0.264,0.18 0.324,0.18 0.06,0 0.072,-0.012 0.132,-0.144 z"
         inkscape:connector-curvature="0"
         style="font-style:normal;font-variant:normal;font-weight:normal;font-stretch:normal;letter-spacing:normal;word-spacing:normal;text-anchor:start;fill:#000000;stroke:#000000;stroke-width:0;stroke-linecap:butt;stroke-linejoin:miter;stroke-miterlimit:10.43299961;stroke-opacity:1;stroke-dasharray:none;stroke-dashoffset:0" />
      <path
         id="path4100"
         d="m -41.012,40.84349 0,-0.18 0,-0.156 -0.012,-0.156 0,-0.156 -0.024,-0.144 -0.012,-0.144 -0.024,-0.144 -0.024,-0.132 -0.036,-0.132 -0.036,-0.12 -0.036,-0.132 -0.048,-0.12 -0.048,-0.108 -0.06,-0.12 -0.06,-0.108 -0.036,-0.06 -0.036,-0.06 c -0.252,-0.384 -0.768,-0.708 -1.44,-0.708 v 0.228 c 0.456,0 0.888,0.276 1.032,0.756 0.132,0.456 0.144,1.056 0.144,1.776 0,0.624 0,1.236 -0.108,1.764 -0.168,0.756 -0.732,0.948 -1.068,0.948 h 0 c -0.384,0 -0.9,-0.228 -1.068,-0.912 -0.108,-0.492 -0.108,-1.176 -0.108,-1.8 0,-0.6 0,-1.236 0.12,-1.692 0.18,-0.66 0.708,-0.84 1.056,-0.84 v -0.228 c -1.944,0 -1.944,2.268 -1.944,2.88 0,0.6 0,2.82 1.944,2.82 1.932,0 1.932,-2.22 1.932,-2.82 z"
         inkscape:connector-curvature="0"
         style="font-style:normal;font-variant:normal;font-weight:normal;font-stretch:normal;letter-spacing:normal;word-spacing:normal;text-anchor:start;fill:#000000;stroke:#000000;stroke-width:0;stroke-linecap:butt;stroke-linejoin:miter;stroke-miterlimit:10.43299961;stroke-opacity:1;stroke-dasharray:none;stroke-dashoffset:0" />
    </g>
    <g
       id="g4367"
       transform="translate(103.344,64.084004)">
      <path
         id="path4102"
         d="m -45.836,47.63549 0.012,-0.036 0,-0.036 0.012,-0.036 0.012,-0.036 0.012,-0.036 0.012,-0.024 0,-0.036 0.012,-0.024 0.012,-0.024 0.012,-0.024 0.024,-0.024 0.012,-0.024 0.012,-0.024 0.024,-0.012 0.024,-0.024 0.024,-0.012 0.024,-0.012 0.024,-0.012 0.036,-0.012 0.036,-0.012 0.036,-0.012 0.012,-0.012 0.024,0 0.024,0 0.024,-0.012 0.024,0 0.024,0 0.024,-0.012 0.024,0 0.024,0 0.024,0 0.036,0 0.024,-0.012 0.036,0 0.036,0 0.024,0 0.036,0 0.036,0 0.036,0 0.036,0 0.048,0 0.036,0 0.036,0 c 0.276,0 0.384,0 0.384,-0.24 0,-0.132 -0.12,-0.132 -0.324,-0.132 h -1.572 c -0.312,0 -0.324,0 -0.468,0.228 l -4.368,6.804 -0.936,-6.756 c -0.036,-0.276 -0.06,-0.276 -0.372,-0.276 h -1.632 c -0.228,0 -0.36,0 -0.36,0.228 0,0.144 0.108,0.144 0.348,0.144 0.156,0 0.372,0.012 0.516,0.024 0.192,0.024 0.264,0.06 0.264,0.18 0,0.06 -0.012,0.084 -0.048,0.228 l -1.524,6.084 c -0.12,0.48 -0.324,0.864 -1.296,0.9 -0.06,0 -0.216,0.012 -0.216,0.228 0,0.108 0.072,0.132 0.168,0.132 0.384,0 0.804,-0.024 1.2,-0.024 0.408,0 0.84,0.024 1.236,0.024 0.06,0 0.216,0 0.216,-0.228 0,-0.132 -0.132,-0.132 -0.216,-0.132 -0.684,-0.012 -0.816,-0.252 -0.816,-0.528 0,-0.084 0.012,-0.144 0.048,-0.276 l 1.632,-6.504 h 0.012 l 1.02,7.404 c 0.024,0.144 0.036,0.264 0.18,0.264 0.132,0 0.204,-0.12 0.264,-0.204 l 4.836,-7.56 h 0.012 l -1.716,6.84 c -0.12,0.468 -0.144,0.564 -1.08,0.564 -0.204,0 -0.336,0 -0.336,0.228 0,0.132 0.144,0.132 0.18,0.132 0.336,0 1.14,-0.024 1.476,-0.024 0.492,0 1.008,0.024 1.5,0.024 0.072,0 0.228,0 0.228,-0.228 0,-0.132 -0.108,-0.132 -0.336,-0.132 -0.444,0 -0.78,0 -0.78,-0.216 0,-0.048 0,-0.072 0.06,-0.288 z"
         inkscape:connector-curvature="0"
         style="font-style:normal;font-variant:normal;font-weight:normal;font-stretch:normal;letter-spacing:normal;word-spacing:normal;text-anchor:start;fill:#000000;stroke:#000000;stroke-width:0;stroke-linecap:butt;stroke-linejoin:miter;stroke-miterlimit:10.43299961;stroke-opacity:1;stroke-dasharray:none;stroke-dashoffset:0" />
      <path
         id="path4104"
         d="m -42.524,51.36749 0,-0.012 0,-0.012 0,-0.012 0,-0.012 0,0 0,-0.012 0,-0.012 0,0 0,-0.012 0,-0.012 0,0 0,-0.012 0,-0.012 0,0 0,-0.012 0,0 0,-0.012 0,0 -0.012,-0.012 0,-0.012 0,-0.012 0,0 -0.012,-0.012 0,0 -0.012,-0.012 0,0 -0.012,-0.012 -0.012,0 0,0 -0.012,-0.012 -0.012,0 -0.012,0 0,0 -0.012,0 -0.012,0 0,0 -0.012,0 0,-0.012 -0.012,0 -0.012,0 0,0 -0.012,0 -0.012,0 0,0 -0.012,0 -0.012,0 -0.012,0 -0.012,0 -0.012,0 -0.012,0 c -0.528,0.528 -1.284,0.54 -1.632,0.54 v 0.3 c 0.204,0 0.756,0 1.212,-0.24 v 4.26 c 0,0.276 0,0.384 -0.84,0.384 h -0.312 v 0.3 c 0.144,-0.012 1.176,-0.036 1.488,-0.036 0.252,0 1.308,0.024 1.5,0.036 v -0.3 h -0.324 c -0.84,0 -0.84,-0.108 -0.84,-0.384 z"
         inkscape:connector-curvature="0"
         style="font-style:normal;font-variant:normal;font-weight:normal;font-stretch:normal;letter-spacing:normal;word-spacing:normal;text-anchor:start;fill:#000000;stroke:#000000;stroke-width:0;stroke-linecap:butt;stroke-linejoin:miter;stroke-miterlimit:10.43299961;stroke-opacity:1;stroke-dasharray:none;stroke-dashoffset:0" />
    </g>
    <g
       id="g4371"
       transform="translate(123.292,28.488004)">
      <path
         id="path4106"
         d="m -45.836,61.98749 0.012,-0.036 0,-0.048 0.012,-0.036 0.012,-0.024 0.012,-0.036 0.012,-0.036 0,-0.024 0.012,-0.024 0.012,-0.036 0.012,-0.024 0.024,-0.024 0.012,-0.012 0.012,-0.024 0.024,-0.024 0.024,-0.012 0.024,-0.012 0.024,-0.024 0.024,-0.012 0.036,-0.012 0.036,-0.012 0.036,-0.012 0.012,0 0.024,0 0.024,-0.012 0.024,0 0.024,0 0.024,-0.012 0.024,0 0.024,0 0.024,-0.012 0.024,0 0.036,0 0.024,0 0.036,0 0.036,0 0.024,-0.012 0.036,0 0.036,0 0.036,0 0.036,0 0.048,0 0.036,0 0.036,0 c 0.276,0 0.384,0 0.384,-0.24 0,-0.132 -0.12,-0.132 -0.324,-0.132 h -1.572 c -0.312,0 -0.324,0 -0.468,0.228 l -4.368,6.804 -0.936,-6.756 c -0.036,-0.276 -0.06,-0.276 -0.372,-0.276 h -1.632 c -0.228,0 -0.36,0 -0.36,0.228 0,0.144 0.108,0.144 0.348,0.144 0.156,0 0.372,0.012 0.516,0.024 0.192,0.024 0.264,0.06 0.264,0.192 0,0.048 -0.012,0.084 -0.048,0.228 l -1.524,6.072 c -0.12,0.48 -0.324,0.864 -1.296,0.9 -0.06,0 -0.216,0.012 -0.216,0.228 0,0.108 0.072,0.144 0.168,0.144 0.384,0 0.804,-0.036 1.2,-0.036 0.408,0 0.84,0.036 1.236,0.036 0.06,0 0.216,0 0.216,-0.24 0,-0.132 -0.132,-0.132 -0.216,-0.132 -0.684,-0.012 -0.816,-0.252 -0.816,-0.528 0,-0.084 0.012,-0.144 0.048,-0.264 l 1.632,-6.516 h 0.012 l 1.02,7.404 c 0.024,0.144 0.036,0.276 0.18,0.276 0.132,0 0.204,-0.132 0.264,-0.216 l 4.836,-7.56 h 0.012 l -1.716,6.84 c -0.12,0.468 -0.144,0.564 -1.08,0.564 -0.204,0 -0.336,0 -0.336,0.228 0,0.144 0.144,0.144 0.18,0.144 0.336,0 1.14,-0.036 1.476,-0.036 0.492,0 1.008,0.036 1.5,0.036 0.072,0 0.228,0 0.228,-0.24 0,-0.132 -0.108,-0.132 -0.336,-0.132 -0.444,0 -0.78,0 -0.78,-0.216 0,-0.048 0,-0.072 0.06,-0.288 z"
         inkscape:connector-curvature="0"
         style="font-style:normal;font-variant:normal;font-weight:normal;font-stretch:normal;letter-spacing:normal;word-spacing:normal;text-anchor:start;fill:#000000;stroke:#000000;stroke-width:0;stroke-linecap:butt;stroke-linejoin:miter;stroke-miterlimit:10.43299961;stroke-opacity:1;stroke-dasharray:none;stroke-dashoffset:0" />
      <path
         id="path4108"
         d="m -41.588,60.94349 0,-0.012 0.012,-0.012 0,-0.012 0.012,-0.012 0,-0.012 0,-0.012 0.012,-0.012 0,0 0,-0.012 0.012,-0.012 0,-0.012 0,-0.012 0,0 0.012,-0.012 0,-0.012 0,0 0,-0.012 0,-0.012 0,0 0,-0.012 0,0 0.012,-0.012 0,-0.012 0,0 0,-0.012 0,-0.012 0,-0.012 0,-0.012 c 0,-0.252 -0.24,-0.456 -0.492,-0.456 -0.324,0 -0.42,0.252 -0.456,0.396 l -1.104,3.612 c -0.012,0.012 -0.048,0.12 -0.048,0.132 0,0.096 0.264,0.18 0.324,0.18 0.06,0 0.072,-0.012 0.132,-0.144 z"
         inkscape:connector-curvature="0"
         style="font-style:normal;font-variant:normal;font-weight:normal;font-stretch:normal;letter-spacing:normal;word-spacing:normal;text-anchor:start;fill:#000000;stroke:#000000;stroke-width:0;stroke-linecap:butt;stroke-linejoin:miter;stroke-miterlimit:10.43299961;stroke-opacity:1;stroke-dasharray:none;stroke-dashoffset:0" />
      <path
         id="path4110"
         d="m -42.524,66.88349 0,-0.012 0,-0.012 0,0 0,-0.012 0,-0.012 0,-0.012 0,0 0,-0.012 0,-0.012 0,0 0,-0.012 0,-0.012 0,0 0,-0.012 0,0 0,-0.012 0,0 0,-0.012 -0.012,-0.012 0,-0.012 0,0 0,-0.012 -0.012,-0.012 0,0 -0.012,-0.012 0,0 -0.012,-0.012 -0.012,0 0,0 -0.012,0 -0.012,-0.012 -0.012,0 0,0 -0.012,0 -0.012,0 0,0 -0.012,0 0,0 -0.012,0 -0.012,0 0,0 -0.012,0 -0.012,0 0,0 -0.012,0 -0.012,0 -0.012,0 -0.012,0 -0.012,0 -0.012,0 c -0.528,0.516 -1.284,0.528 -1.632,0.528 v 0.3 c 0.204,0 0.756,0 1.212,-0.228 v 4.248 c 0,0.276 0,0.384 -0.84,0.384 h -0.312 v 0.3 c 0.144,0 1.176,-0.036 1.488,-0.036 0.252,0 1.308,0.036 1.5,0.036 v -0.3 h -0.324 c -0.84,0 -0.84,-0.108 -0.84,-0.384 z"
         inkscape:connector-curvature="0"
         style="font-style:normal;font-variant:normal;font-weight:normal;font-stretch:normal;letter-spacing:normal;word-spacing:normal;text-anchor:start;fill:#000000;stroke:#000000;stroke-width:0;stroke-linecap:butt;stroke-linejoin:miter;stroke-miterlimit:10.43299961;stroke-opacity:1;stroke-dasharray:none;stroke-dashoffset:0" />
    </g>
    <g
       id="g4376"
       transform="translate(151.74,9.4560041)">
      <path
         id="path4112"
         d="m -45.836,76.32749 0.012,-0.036 0,-0.036 0.012,-0.036 0.012,-0.036 0.012,-0.024 0.012,-0.036 0,-0.024 0.012,-0.036 0.012,-0.024 0.012,-0.024 0.024,-0.024 0.012,-0.024 0.012,-0.012 0.024,-0.024 0.024,-0.012 0.024,-0.024 0.024,-0.012 0.024,-0.012 0.036,-0.012 0.036,-0.012 0.036,-0.012 0.012,-0.012 0.024,0 0.024,0 0.024,-0.012 0.024,0 0.024,0 0.024,0 0.024,-0.012 0.024,0 0.024,0 0.036,0 0.024,-0.012 0.036,0 0.036,0 0.024,0 0.036,0 0.036,0 0.036,0 0.036,0 0.048,0 0.036,0 0.036,0 c 0.276,0 0.384,0 0.384,-0.24 0,-0.132 -0.12,-0.132 -0.324,-0.132 h -1.572 c -0.312,0 -0.324,0 -0.468,0.228 l -4.368,6.804 -0.936,-6.756 c -0.036,-0.276 -0.06,-0.276 -0.372,-0.276 h -1.632 c -0.228,0 -0.36,0 -0.36,0.228 0,0.144 0.108,0.144 0.348,0.144 0.156,0 0.372,0.012 0.516,0.024 0.192,0.024 0.264,0.06 0.264,0.192 0,0.048 -0.012,0.084 -0.048,0.228 l -1.524,6.072 c -0.12,0.48 -0.324,0.864 -1.296,0.9 -0.06,0 -0.216,0.012 -0.216,0.228 0,0.108 0.072,0.144 0.168,0.144 0.384,0 0.804,-0.036 1.2,-0.036 0.408,0 0.84,0.036 1.236,0.036 0.06,0 0.216,0 0.216,-0.24 0,-0.132 -0.132,-0.132 -0.216,-0.132 -0.684,-0.012 -0.816,-0.252 -0.816,-0.528 0,-0.084 0.012,-0.144 0.048,-0.276 l 1.632,-6.504 h 0.012 l 1.02,7.404 c 0.024,0.144 0.036,0.276 0.18,0.276 0.132,0 0.204,-0.132 0.264,-0.216 l 4.836,-7.56 h 0.012 l -1.716,6.84 c -0.12,0.468 -0.144,0.564 -1.08,0.564 -0.204,0 -0.336,0 -0.336,0.228 0,0.144 0.144,0.144 0.18,0.144 0.336,0 1.14,-0.036 1.476,-0.036 0.492,0 1.008,0.036 1.5,0.036 0.072,0 0.228,0 0.228,-0.24 0,-0.132 -0.108,-0.132 -0.336,-0.132 -0.444,0 -0.78,0 -0.78,-0.216 0,-0.048 0,-0.072 0.06,-0.288 z"
         inkscape:connector-curvature="0"
         style="font-style:normal;font-variant:normal;font-weight:normal;font-stretch:normal;letter-spacing:normal;word-spacing:normal;text-anchor:start;fill:#000000;stroke:#000000;stroke-width:0;stroke-linecap:butt;stroke-linejoin:miter;stroke-miterlimit:10.43299961;stroke-opacity:1;stroke-dasharray:none;stroke-dashoffset:0" />
      <path
         id="path4114"
         d="m -41.096,83.83949 h -0.288 c -0.024,0.192 -0.108,0.684 -0.216,0.768 -0.06,0.048 -0.708,0.048 -0.828,0.048 h -1.536 c 0.876,-0.78 1.164,-1.008 1.668,-1.404 0.624,-0.492 1.2,-1.008 1.2,-1.8 0,-1.008 -0.888,-1.632 -1.956,-1.632 -1.032,0 -1.74,0.732 -1.74,1.5 0,0.42 0.36,0.468 0.444,0.468 0.204,0 0.444,-0.144 0.444,-0.444 0,-0.156 -0.06,-0.444 -0.492,-0.444 0.252,-0.588 0.828,-0.78 1.212,-0.78 0.84,0 1.272,0.66 1.272,1.332 0,0.72 -0.516,1.296 -0.78,1.596 l -2.016,1.992 c -0.084,0.072 -0.084,0.084 -0.084,0.324 h 3.444 z"
         inkscape:connector-curvature="0"
         style="font-style:normal;font-variant:normal;font-weight:normal;font-stretch:normal;letter-spacing:normal;word-spacing:normal;text-anchor:start;fill:#000000;stroke:#000000;stroke-width:0;stroke-linecap:butt;stroke-linejoin:miter;stroke-miterlimit:10.43299961;stroke-opacity:1;stroke-dasharray:none;stroke-dashoffset:0" />
    </g>
    <g
       id="g4380"
       transform="translate(288.344,-8.9479959)">
      <path
         id="path4116"
         d="m -45.836,90.67949 0.012,-0.036 0,-0.036 0.012,-0.036 0.012,-0.036 0.012,-0.036 0.012,-0.036 0,-0.024 0.012,-0.024 0.012,-0.024 0.012,-0.024 0.024,-0.024 0.012,-0.024 0.012,-0.024 0.024,-0.012 0.024,-0.024 0.024,-0.012 0.024,-0.024 0.024,-0.012 0.036,-0.012 0.036,-0.012 0.036,-0.012 0.012,0 0.024,0 0.024,-0.012 0.024,0 0.024,0 0.024,-0.012 0.024,0 0.024,0 0.024,0 0.024,-0.012 0.036,0 0.024,0 0.036,0 0.036,0 0.024,0 0.036,-0.012 0.036,0 0.036,0 0.036,0 0.048,0 0.036,0 0.036,0 c 0.276,0 0.384,0 0.384,-0.24 0,-0.132 -0.12,-0.132 -0.324,-0.132 h -1.572 c -0.312,0 -0.324,0 -0.468,0.228 l -4.368,6.816 -0.936,-6.768 c -0.036,-0.276 -0.06,-0.276 -0.372,-0.276 h -1.632 c -0.228,0 -0.36,0 -0.36,0.228 0,0.144 0.108,0.144 0.348,0.144 0.156,0 0.372,0.012 0.516,0.024 0.192,0.024 0.264,0.06 0.264,0.192 0,0.048 -0.012,0.084 -0.048,0.228 l -1.524,6.084 c -0.12,0.468 -0.324,0.852 -1.296,0.888 -0.06,0 -0.216,0.012 -0.216,0.228 0,0.108 0.072,0.144 0.168,0.144 0.384,0 0.804,-0.036 1.2,-0.036 0.408,0 0.84,0.036 1.236,0.036 0.06,0 0.216,0 0.216,-0.24 0,-0.132 -0.132,-0.132 -0.216,-0.132 -0.684,-0.012 -0.816,-0.252 -0.816,-0.516 0,-0.084 0.012,-0.156 0.048,-0.276 l 1.632,-6.516 h 0.012 l 1.02,7.404 c 0.024,0.144 0.036,0.276 0.18,0.276 0.132,0 0.204,-0.132 0.264,-0.216 l 4.836,-7.56 h 0.012 l -1.716,6.84 c -0.12,0.468 -0.144,0.564 -1.08,0.564 -0.204,0 -0.336,0 -0.336,0.228 0,0.144 0.144,0.144 0.18,0.144 0.336,0 1.14,-0.036 1.476,-0.036 0.492,0 1.008,0.036 1.5,0.036 0.072,0 0.228,0 0.228,-0.24 0,-0.132 -0.108,-0.132 -0.336,-0.132 -0.444,0 -0.78,0 -0.78,-0.216 0,-0.048 0,-0.072 0.06,-0.288 z"
         inkscape:connector-curvature="0"
         style="font-style:normal;font-variant:normal;font-weight:normal;font-stretch:normal;letter-spacing:normal;word-spacing:normal;text-anchor:start;fill:#000000;stroke:#000000;stroke-width:0;stroke-linecap:butt;stroke-linejoin:miter;stroke-miterlimit:10.43299961;stroke-opacity:1;stroke-dasharray:none;stroke-dashoffset:0" />
      <path
         id="path4118"
         d="m -42.608,94.49549 0,-0.012 0,-0.012 -0.012,-0.012 0,-0.012 0,-0.024 0,-0.012 -0.012,-0.012 0,-0.012 0,-0.012 -0.012,-0.012 0,-0.012 -0.012,-0.012 -0.012,-0.012 0,-0.012 -0.012,-0.012 -0.012,-0.012 -0.012,-0.012 -0.012,-0.012 -0.012,-0.012 -0.012,-0.012 -0.012,-0.012 -0.012,-0.012 -0.012,0 -0.024,-0.012 -0.012,-0.012 -0.012,0 -0.024,0 -0.012,-0.012 -0.024,0 -0.024,0 -0.012,0 -0.024,-0.012 c -0.228,0 -0.468,0.228 -0.468,0.468 0,0.144 0.108,0.312 0.336,0.312 0.24,0 0.468,-0.228 0.468,-0.456 z"
         inkscape:connector-curvature="0"
         style="font-style:normal;font-variant:normal;font-weight:normal;font-stretch:normal;letter-spacing:normal;word-spacing:normal;text-anchor:start;fill:#000000;stroke:#000000;stroke-width:0;stroke-linecap:butt;stroke-linejoin:miter;stroke-miterlimit:10.43299961;stroke-opacity:1;stroke-dasharray:none;stroke-dashoffset:0" />
      <path
         id="path4120"
         d="m -44.312,98.73149 -0.012,0.024 0,0.024 -0.012,0.036 -0.012,0.024 -0.012,0.012 0,0.024 -0.012,0.024 0,0.012 0,0.024 -0.012,0.024 0,0.024 0,0.012 0,0.012 0,0.012 0,0.012 -0.012,0.012 0,0.012 0,0.012 0,0.012 c 0,0.396 0.336,0.72 0.804,0.72 0.828,0 1.2,-1.152 1.2,-1.284 0,-0.108 -0.108,-0.108 -0.132,-0.108 -0.12,0 -0.132,0.048 -0.156,0.144 -0.204,0.66 -0.564,1.008 -0.888,1.008 -0.168,0 -0.216,-0.108 -0.216,-0.288 0,-0.192 0.06,-0.36 0.132,-0.54 0.084,-0.228 0.18,-0.444 0.276,-0.66 0.072,-0.204 0.372,-0.96 0.408,-1.068 0.024,-0.084 0.048,-0.18 0.048,-0.264 0,-0.396 -0.336,-0.708 -0.792,-0.708 -0.828,0 -1.212,1.128 -1.212,1.272 0,0.108 0.12,0.108 0.144,0.108 0.108,0 0.12,-0.036 0.144,-0.132 0.216,-0.72 0.588,-1.02 0.9,-1.02 0.132,0 0.204,0.072 0.204,0.3 0,0.192 -0.048,0.312 -0.252,0.828 z"
         inkscape:connector-curvature="0"
         style="font-style:normal;font-variant:normal;font-weight:normal;font-stretch:normal;letter-spacing:normal;word-spacing:normal;text-anchor:start;fill:#000000;stroke:#000000;stroke-width:0;stroke-linecap:butt;stroke-linejoin:miter;stroke-miterlimit:10.43299961;stroke-opacity:1;stroke-dasharray:none;stroke-dashoffset:0" />
    </g>
    <g
       id="g4385"
       transform="translate(332.716,-16.895996)">
      <path
         id="path4122"
         d="m -45.836,105.03149 0.012,-0.048 0,-0.036 0.012,-0.036 0.012,-0.036 0.012,-0.024 0.012,-0.036 0,-0.024 0.012,-0.036 0.012,-0.024 0.012,-0.024 0.024,-0.024 0.012,-0.024 0.012,-0.012 0.024,-0.024 0.024,-0.012 0.024,-0.024 0.024,-0.012 0.024,-0.012 0.036,-0.012 0.036,-0.012 0.036,-0.012 0.012,-0.012 0.024,0 0.024,0 0.024,-0.012 0.024,0 0.024,0 0.024,0 0.024,-0.012 0.024,0 0.024,0 0.036,0 0.024,-0.012 0.036,0 0.036,0 0.024,0 0.036,0 0.036,0 0.036,0 0.036,0 0.048,0 0.036,0 0.036,0 c 0.276,0 0.384,0 0.384,-0.24 0,-0.132 -0.12,-0.132 -0.324,-0.132 h -1.572 c -0.312,0 -0.324,0 -0.468,0.228 l -4.368,6.804 -0.936,-6.756 c -0.036,-0.276 -0.06,-0.276 -0.372,-0.276 h -1.632 c -0.228,0 -0.36,0 -0.36,0.228 0,0.144 0.108,0.144 0.348,0.144 0.156,0 0.372,0.012 0.516,0.024 0.192,0.024 0.264,0.06 0.264,0.192 0,0.048 -0.012,0.084 -0.048,0.216 l -1.524,6.084 c -0.12,0.48 -0.324,0.864 -1.296,0.9 -0.06,0 -0.216,0.012 -0.216,0.228 0,0.108 0.072,0.144 0.168,0.144 0.384,0 0.804,-0.036 1.2,-0.036 0.408,0 0.84,0.036 1.236,0.036 0.06,0 0.216,0 0.216,-0.24 0,-0.132 -0.132,-0.132 -0.216,-0.132 -0.684,-0.012 -0.816,-0.252 -0.816,-0.528 0,-0.084 0.012,-0.144 0.048,-0.276 l 1.632,-6.504 h 0.012 l 1.02,7.404 c 0.024,0.144 0.036,0.276 0.18,0.276 0.132,0 0.204,-0.132 0.264,-0.216 l 4.836,-7.56 h 0.012 l -1.716,6.84 c -0.12,0.468 -0.144,0.564 -1.08,0.564 -0.204,0 -0.336,0 -0.336,0.228 0,0.144 0.144,0.144 0.18,0.144 0.336,0 1.14,-0.036 1.476,-0.036 0.492,0 1.008,0.036 1.5,0.036 0.072,0 0.228,0 0.228,-0.24 0,-0.132 -0.108,-0.132 -0.336,-0.132 -0.444,0 -0.78,0 -0.78,-0.216 0,-0.048 0,-0.072 0.06,-0.288 z"
         inkscape:connector-curvature="0"
         style="font-style:normal;font-variant:normal;font-weight:normal;font-stretch:normal;letter-spacing:normal;word-spacing:normal;text-anchor:start;fill:#000000;stroke:#000000;stroke-width:0;stroke-linecap:butt;stroke-linejoin:miter;stroke-miterlimit:10.43299961;stroke-opacity:1;stroke-dasharray:none;stroke-dashoffset:0" />
      <path
         id="path4124"
         d="m -41.588,103.98749 0,-0.012 0.012,-0.012 0,-0.012 0.012,-0.012 0,-0.012 0,-0.012 0.012,-0.012 0,-0.012 0,-0.012 0.012,-0.012 0,0 0,-0.012 0,-0.012 0.012,0 0,-0.012 0,-0.012 0,0 0,-0.012 0,-0.012 0,0 0,-0.012 0.012,0 0,-0.012 0,0 0,-0.012 0,-0.012 0,-0.012 0,-0.012 c 0,-0.264 -0.24,-0.468 -0.492,-0.468 -0.324,0 -0.42,0.264 -0.456,0.396 l -1.104,3.612 c -0.012,0.024 -0.048,0.132 -0.048,0.132 0,0.108 0.264,0.192 0.324,0.192 0.06,0 0.072,-0.024 0.132,-0.144 z"
         inkscape:connector-curvature="0"
         style="font-style:normal;font-variant:normal;font-weight:normal;font-stretch:normal;letter-spacing:normal;word-spacing:normal;text-anchor:start;fill:#000000;stroke:#000000;stroke-width:0;stroke-linecap:butt;stroke-linejoin:miter;stroke-miterlimit:10.43299961;stroke-opacity:1;stroke-dasharray:none;stroke-dashoffset:0" />
      <path
         id="path4126"
         d="m -42.608,110.15549 0,-0.012 0,-0.012 -0.012,-0.012 0,-0.012 0,-0.012 0,-0.012 -0.012,-0.012 0,-0.024 0,-0.012 -0.012,-0.012 0,-0.012 -0.012,-0.012 -0.012,-0.012 0,-0.012 -0.012,-0.012 -0.012,-0.012 -0.012,-0.012 -0.012,-0.012 -0.012,-0.012 -0.012,-0.012 -0.012,0 -0.012,-0.012 -0.012,-0.012 -0.024,-0.012 -0.012,0 -0.012,-0.012 -0.024,0 -0.012,0 -0.024,-0.012 -0.024,0 -0.012,0 -0.024,0 c -0.228,0 -0.468,0.216 -0.468,0.456 0,0.144 0.108,0.324 0.336,0.324 0.24,0 0.468,-0.24 0.468,-0.468 z"
         inkscape:connector-curvature="0"
         style="font-style:normal;font-variant:normal;font-weight:normal;font-stretch:normal;letter-spacing:normal;word-spacing:normal;text-anchor:start;fill:#000000;stroke:#000000;stroke-width:0;stroke-linecap:butt;stroke-linejoin:miter;stroke-miterlimit:10.43299961;stroke-opacity:1;stroke-dasharray:none;stroke-dashoffset:0" />
      <path
         id="path4128"
         d="m -44.312,114.40349 -0.012,0.012 0,0.024 -0.012,0.036 -0.012,0.024 -0.012,0.024 0,0.012 -0.012,0.024 0,0.024 0,0.024 -0.012,0.024 0,0.012 0,0.012 0,0.012 0,0.012 0,0.012 -0.012,0.024 0,0.012 0,0.012 0,0.012 c 0,0.384 0.336,0.708 0.804,0.708 0.828,0 1.2,-1.152 1.2,-1.272 0,-0.12 -0.108,-0.12 -0.132,-0.12 -0.12,0 -0.132,0.06 -0.156,0.144 -0.204,0.672 -0.564,1.008 -0.888,1.008 -0.168,0 -0.216,-0.108 -0.216,-0.288 0,-0.192 0.06,-0.348 0.132,-0.528 0.084,-0.228 0.18,-0.456 0.276,-0.672 0.072,-0.204 0.372,-0.96 0.408,-1.056 0.024,-0.084 0.048,-0.192 0.048,-0.276 0,-0.384 -0.336,-0.708 -0.792,-0.708 -0.828,0 -1.212,1.14 -1.212,1.284 0,0.108 0.12,0.108 0.144,0.108 0.108,0 0.12,-0.048 0.144,-0.132 0.216,-0.72 0.588,-1.02 0.9,-1.02 0.132,0 0.204,0.06 0.204,0.288 0,0.192 -0.048,0.324 -0.252,0.84 z"
         inkscape:connector-curvature="0"
         style="font-style:normal;font-variant:normal;font-weight:normal;font-stretch:normal;letter-spacing:normal;word-spacing:normal;text-anchor:start;fill:#000000;stroke:#000000;stroke-width:0;stroke-linecap:butt;stroke-linejoin:miter;stroke-miterlimit:10.43299961;stroke-opacity:1;stroke-dasharray:none;stroke-dashoffset:0" />
    </g>
    <g
       id="g4391"
       transform="translate(344.00276,-5.4159959)">
      <path
         id="path4130"
         d="m -45.836,119.37149 0.012,-0.036 0,-0.036 0.012,-0.036 0.012,-0.036 0.012,-0.036 0.012,-0.036 0,-0.024 0.012,-0.024 0.012,-0.024 0.012,-0.024 0.024,-0.024 0.012,-0.024 0.012,-0.024 0.024,-0.012 0.024,-0.024 0.024,-0.012 0.024,-0.024 0.024,-0.012 0.036,-0.012 0.036,-0.012 0.036,-0.012 0.012,0 0.024,0 0.024,-0.012 0.024,0 0.024,0 0.024,-0.012 0.024,0 0.024,0 0.024,0 0.024,-0.012 0.036,0 0.024,0 0.036,0 0.036,0 0.024,0 0.036,-0.012 0.036,0 0.036,0 0.036,0 0.048,0 0.036,0 0.036,0 c 0.276,0 0.384,0 0.384,-0.24 0,-0.132 -0.12,-0.132 -0.324,-0.132 h -1.572 c -0.312,0 -0.324,0 -0.468,0.228 l -4.368,6.816 -0.936,-6.768 c -0.036,-0.276 -0.06,-0.276 -0.372,-0.276 h -1.632 c -0.228,0 -0.36,0 -0.36,0.228 0,0.144 0.108,0.144 0.348,0.144 0.156,0 0.372,0.012 0.516,0.024 0.192,0.024 0.264,0.06 0.264,0.192 0,0.048 -0.012,0.084 -0.048,0.228 l -1.524,6.084 c -0.12,0.468 -0.324,0.852 -1.296,0.888 -0.06,0 -0.216,0.012 -0.216,0.228 0,0.108 0.072,0.144 0.168,0.144 0.384,0 0.804,-0.036 1.2,-0.036 0.408,0 0.84,0.036 1.236,0.036 0.06,0 0.216,0 0.216,-0.24 0,-0.132 -0.132,-0.132 -0.216,-0.132 -0.684,-0.012 -0.816,-0.252 -0.816,-0.516 0,-0.096 0.012,-0.144 0.048,-0.276 l 1.632,-6.516 h 0.012 l 1.02,7.404 c 0.024,0.144 0.036,0.276 0.18,0.276 0.132,0 0.204,-0.132 0.264,-0.216 l 4.836,-7.56 h 0.012 l -1.716,6.84 c -0.12,0.468 -0.144,0.564 -1.08,0.564 -0.204,0 -0.336,0 -0.336,0.228 0,0.144 0.144,0.144 0.18,0.144 0.336,0 1.14,-0.036 1.476,-0.036 0.492,0 1.008,0.036 1.5,0.036 0.072,0 0.228,0 0.228,-0.24 0,-0.132 -0.108,-0.132 -0.336,-0.132 -0.444,0 -0.78,0 -0.78,-0.216 0,-0.048 0,-0.072 0.06,-0.276 z"
         inkscape:connector-curvature="0"
         style="font-style:normal;font-variant:normal;font-weight:normal;font-stretch:normal;letter-spacing:normal;word-spacing:normal;text-anchor:start;fill:#000000;stroke:#000000;stroke-width:0;stroke-linecap:butt;stroke-linejoin:miter;stroke-miterlimit:10.43299961;stroke-opacity:1;stroke-dasharray:none;stroke-dashoffset:0" />
      <path
         id="path4132"
         d="m -42.608,123.18749 0,-0.012 0,-0.012 -0.012,-0.012 0,-0.012 0,-0.024 0,-0.012 -0.012,-0.012 0,-0.012 0,-0.012 -0.012,-0.012 0,-0.012 -0.012,-0.012 -0.012,-0.012 0,-0.012 -0.012,-0.012 -0.012,-0.012 -0.012,-0.012 -0.012,-0.012 -0.012,-0.012 -0.012,-0.012 -0.012,-0.012 -0.012,-0.012 -0.012,0 -0.024,-0.012 -0.012,-0.012 -0.012,0 -0.024,0 -0.012,-0.012 -0.024,0 -0.024,0 -0.012,0 -0.024,0 c -0.228,0 -0.468,0.216 -0.468,0.456 0,0.144 0.108,0.312 0.336,0.312 0.24,0 0.468,-0.228 0.468,-0.456 z"
         inkscape:connector-curvature="0"
         style="font-style:normal;font-variant:normal;font-weight:normal;font-stretch:normal;letter-spacing:normal;word-spacing:normal;text-anchor:start;fill:#000000;stroke:#000000;stroke-width:0;stroke-linecap:butt;stroke-linejoin:miter;stroke-miterlimit:10.43299961;stroke-opacity:1;stroke-dasharray:none;stroke-dashoffset:0" />
      <path
         id="path4134"
         d="m -44.312,127.42349 -0.012,0.024 0,0.024 -0.012,0.036 -0.012,0.024 -0.012,0.012 0,0.024 -0.012,0.024 0,0.012 0,0.024 -0.012,0.024 0,0.024 0,0.012 0,0.012 0,0.012 0,0.012 -0.012,0.012 0,0.012 0,0.012 0,0.012 c 0,0.396 0.336,0.708 0.804,0.708 0.828,0 1.2,-1.152 1.2,-1.272 0,-0.108 -0.108,-0.108 -0.132,-0.108 -0.12,0 -0.132,0.048 -0.156,0.144 -0.204,0.672 -0.564,1.008 -0.888,1.008 -0.168,0 -0.216,-0.108 -0.216,-0.288 0,-0.192 0.06,-0.348 0.132,-0.54 0.084,-0.228 0.18,-0.444 0.276,-0.672 0.072,-0.192 0.372,-0.948 0.408,-1.056 0.024,-0.084 0.048,-0.18 0.048,-0.264 0,-0.396 -0.336,-0.708 -0.792,-0.708 -0.828,0 -1.212,1.128 -1.212,1.272 0,0.108 0.12,0.108 0.144,0.108 0.108,0 0.12,-0.036 0.144,-0.132 0.216,-0.72 0.588,-1.02 0.9,-1.02 0.132,0 0.204,0.072 0.204,0.3 0,0.192 -0.048,0.312 -0.252,0.828 z"
         inkscape:connector-curvature="0"
         style="font-style:normal;font-variant:normal;font-weight:normal;font-stretch:normal;letter-spacing:normal;word-spacing:normal;text-anchor:start;fill:#000000;stroke:#000000;stroke-width:0;stroke-linecap:butt;stroke-linejoin:miter;stroke-miterlimit:10.43299961;stroke-opacity:1;stroke-dasharray:none;stroke-dashoffset:0" />
      <path
         id="path4136"
         d="m -38.06,126.51149 h 2.556 c 0.108,0 0.3,0 0.3,-0.192 0,-0.216 -0.192,-0.216 -0.3,-0.216 h -2.556 v -2.556 c 0,-0.108 0,-0.312 -0.204,-0.312 -0.216,0 -0.216,0.192 -0.216,0.312 v 2.556 h -2.568 c -0.108,0 -0.3,0 -0.3,0.204 0,0.204 0.192,0.204 0.3,0.204 h 2.568 v 2.568 c 0,0.108 0,0.312 0.204,0.312 0.216,0 0.216,-0.192 0.216,-0.312 z"
         inkscape:connector-curvature="0"
         style="font-style:normal;font-variant:normal;font-weight:normal;font-stretch:normal;letter-spacing:normal;word-spacing:normal;text-anchor:start;fill:#000000;stroke:#000000;stroke-width:0;stroke-linecap:butt;stroke-linejoin:miter;stroke-miterlimit:10.43299961;stroke-opacity:1;stroke-dasharray:none;stroke-dashoffset:0" />
      <path
         id="path4138"
         d="m -31.796,123.09149 0,-0.012 0,0 0,-0.012 0,-0.012 0,-0.012 0,-0.012 0,0 0,-0.012 0,-0.012 0,0 0,-0.012 0,0 0,-0.012 0,-0.012 -0.012,0 0,-0.012 0,0 0,-0.012 0,-0.012 0,0 -0.012,-0.012 0,-0.012 0,0 -0.012,-0.012 0,-0.012 -0.012,0 0,0 -0.012,-0.012 -0.012,0 -0.012,0 -0.012,0 0,-0.012 -0.012,0 -0.012,0 0,0 -0.012,0 0,0 -0.012,0 0,0 -0.012,0 -0.012,0 -0.012,0 0,0 -0.012,0 -0.012,0 -0.012,0 0,0 -0.012,0 -0.012,0 -0.012,0 c -0.54,0.528 -1.296,0.528 -1.644,0.528 v 0.3 c 0.204,0 0.756,0 1.212,-0.228 v 4.248 c 0,0.276 0,0.384 -0.828,0.384 h -0.324 v 0.3 c 0.156,0 1.188,-0.024 1.488,-0.024 0.264,0 1.32,0.024 1.5,0.024 v -0.3 h -0.312 c -0.84,0 -0.84,-0.108 -0.84,-0.384 z"
         inkscape:connector-curvature="0"
         style="font-style:normal;font-variant:normal;font-weight:normal;font-stretch:normal;letter-spacing:normal;word-spacing:normal;text-anchor:start;fill:#000000;stroke:#000000;stroke-width:0;stroke-linecap:butt;stroke-linejoin:miter;stroke-miterlimit:10.43299961;stroke-opacity:1;stroke-dasharray:none;stroke-dashoffset:0" />
    </g>
    <g
       id="g4398"
       transform="translate(318.616,25.896004)">
      <path
         id="path4140"
         d="m -45.836,133.71149 0.012,-0.036 0,-0.036 0.012,-0.036 0.012,-0.036 0.012,-0.024 0.012,-0.036 0,-0.024 0.012,-0.036 0.012,-0.024 0.012,-0.024 0.024,-0.024 0.012,-0.024 0.012,-0.012 0.024,-0.024 0.024,-0.012 0.024,-0.024 0.024,-0.012 0.024,-0.012 0.036,-0.012 0.036,-0.012 0.036,-0.012 0.012,-0.012 0.024,0 0.024,0 0.024,-0.012 0.024,0 0.024,0 0.024,0 0.024,-0.012 0.024,0 0.024,0 0.036,0 0.024,-0.012 0.036,0 0.036,0 0.024,0 0.036,0 0.036,0 0.036,0 0.036,0 0.048,0 0.036,0 0.036,0 c 0.276,0 0.384,0 0.384,-0.24 0,-0.132 -0.12,-0.132 -0.324,-0.132 h -1.572 c -0.312,0 -0.324,0 -0.468,0.228 l -4.368,6.804 -0.936,-6.756 c -0.036,-0.276 -0.06,-0.276 -0.372,-0.276 h -1.632 c -0.228,0 -0.36,0 -0.36,0.228 0,0.144 0.108,0.144 0.348,0.144 0.156,0 0.372,0.012 0.516,0.024 0.192,0.024 0.264,0.06 0.264,0.192 0,0.048 -0.012,0.084 -0.048,0.228 l -1.524,6.072 c -0.12,0.48 -0.324,0.864 -1.296,0.9 -0.06,0 -0.216,0.012 -0.216,0.228 0,0.108 0.072,0.144 0.168,0.144 0.384,0 0.804,-0.036 1.2,-0.036 0.408,0 0.84,0.036 1.236,0.036 0.06,0 0.216,0 0.216,-0.24 0,-0.132 -0.132,-0.132 -0.216,-0.132 -0.684,-0.012 -0.816,-0.252 -0.816,-0.528 0,-0.084 0.012,-0.144 0.048,-0.276 l 1.632,-6.504 h 0.012 l 1.02,7.404 c 0.024,0.144 0.036,0.276 0.18,0.276 0.132,0 0.204,-0.132 0.264,-0.216 l 4.836,-7.56 h 0.012 l -1.716,6.84 c -0.12,0.468 -0.144,0.564 -1.08,0.564 -0.204,0 -0.336,0 -0.336,0.228 0,0.144 0.144,0.144 0.18,0.144 0.336,0 1.14,-0.036 1.476,-0.036 0.492,0 1.008,0.036 1.5,0.036 0.072,0 0.228,0 0.228,-0.24 0,-0.132 -0.108,-0.132 -0.336,-0.132 -0.444,0 -0.78,0 -0.78,-0.216 0,-0.048 0,-0.072 0.06,-0.288 z"
         inkscape:connector-curvature="0"
         style="font-style:normal;font-variant:normal;font-weight:normal;font-stretch:normal;letter-spacing:normal;word-spacing:normal;text-anchor:start;fill:#000000;stroke:#000000;stroke-width:0;stroke-linecap:butt;stroke-linejoin:miter;stroke-miterlimit:10.43299961;stroke-opacity:1;stroke-dasharray:none;stroke-dashoffset:0" />
      <path
         id="path4142"
         d="m -44.3,142.21949 0,0.012 0,0.012 -0.012,0.012 0,0.012 0,0.012 -0.012,0.012 0,0.012 0,0.012 -0.012,0.024 0,0.036 -0.012,0.024 0,0.024 -0.012,0.012 0,0.012 0,0.012 0,0.012 -0.012,0.012 0,0.012 0,0.012 0,0.012 0,0 0,0.012 -0.012,0.012 0,0 0,0.012 0,0 0,0 0,0.012 0,0 0,0 c 0,0.18 0.156,0.264 0.288,0.264 0.144,0 0.276,-0.108 0.324,-0.18 0.036,-0.084 0.108,-0.348 0.156,-0.516 0.036,-0.168 0.132,-0.552 0.18,-0.756 0.048,-0.18 0.096,-0.36 0.144,-0.552 0.084,-0.348 0.108,-0.42 0.348,-0.756 0.228,-0.336 0.624,-0.768 1.248,-0.768 0.492,0 0.504,0.42 0.504,0.588 0,0.492 -0.36,1.428 -0.504,1.776 -0.084,0.228 -0.12,0.3 -0.12,0.444 0,0.444 0.372,0.72 0.792,0.72 0.84,0 1.2,-1.152 1.2,-1.272 0,-0.108 -0.108,-0.108 -0.132,-0.108 -0.12,0 -0.12,0.048 -0.156,0.132 -0.192,0.672 -0.552,1.02 -0.888,1.02 -0.18,0 -0.204,-0.12 -0.204,-0.3 0,-0.192 0.036,-0.3 0.192,-0.672 0.096,-0.264 0.444,-1.14 0.444,-1.608 0,-0.816 -0.648,-0.948 -1.092,-0.948 -0.696,0 -1.164,0.42 -1.416,0.756 -0.048,-0.576 -0.54,-0.756 -0.888,-0.756 -0.36,0 -0.552,0.252 -0.66,0.444 -0.18,0.312 -0.3,0.78 -0.3,0.828 0,0.108 0.12,0.108 0.144,0.108 0.108,0 0.12,-0.024 0.18,-0.252 0.12,-0.492 0.288,-0.9 0.612,-0.9 0.216,0 0.276,0.18 0.276,0.408 0,0.156 -0.072,0.468 -0.132,0.696 -0.06,0.216 -0.144,0.564 -0.192,0.744 z"
         inkscape:connector-curvature="0"
         style="font-style:normal;font-variant:normal;font-weight:normal;font-stretch:normal;letter-spacing:normal;word-spacing:normal;text-anchor:start;fill:#000000;stroke:#000000;stroke-width:0;stroke-linecap:butt;stroke-linejoin:miter;stroke-miterlimit:10.43299961;stroke-opacity:1;stroke-dasharray:none;stroke-dashoffset:0" />
    </g>
    <g
       id="g4452"
       transform="translate(96.648,18)">
      <path
         id="path4144"
         d="m -54.452,150.52349 h 1.128 c 0.24,0 0.36,0 0.36,-0.24 0,-0.132 -0.12,-0.132 -0.336,-0.132 h -1.056 c 0.432,-1.692 0.492,-1.932 0.492,-2.004 0,-0.204 -0.144,-0.324 -0.348,-0.324 -0.036,0 -0.372,0.012 -0.48,0.432 l -0.468,1.896 h -1.128 c -0.228,0 -0.36,0 -0.36,0.228 0,0.144 0.096,0.144 0.336,0.144 h 1.056 c -0.864,3.396 -0.912,3.6 -0.912,3.804 0,0.648 0.456,1.104 1.104,1.104 1.224,0 1.908,-1.74 1.908,-1.836 0,-0.12 -0.096,-0.12 -0.144,-0.12 -0.108,0 -0.12,0.036 -0.18,0.168 -0.516,1.236 -1.152,1.524 -1.56,1.524 -0.252,0 -0.372,-0.156 -0.372,-0.552 0,-0.288 0.024,-0.372 0.072,-0.564 z"
         inkscape:connector-curvature="0"
         style="font-style:normal;font-variant:normal;font-weight:normal;font-stretch:normal;letter-spacing:normal;word-spacing:normal;text-anchor:start;fill:#000000;stroke:#000000;stroke-width:0;stroke-linecap:butt;stroke-linejoin:miter;stroke-miterlimit:10.43299961;stroke-opacity:1;stroke-dasharray:none;stroke-dashoffset:0" />
      <path
         id="path4146"
         d="m -48.284,154.43549 0,-0.168 -0.012,-0.168 0,-0.156 -0.012,-0.156 -0.012,-0.144 -0.024,-0.144 -0.024,-0.132 -0.024,-0.144 -0.024,-0.132 -0.036,-0.12 -0.048,-0.12 -0.036,-0.12 -0.06,-0.12 -0.048,-0.12 -0.072,-0.108 -0.024,-0.06 -0.036,-0.048 c -0.264,-0.384 -0.78,-0.72 -1.452,-0.72 v 0.228 c 0.456,0 0.888,0.276 1.044,0.768 0.132,0.444 0.132,1.044 0.132,1.776 0,0.612 0,1.236 -0.108,1.752 -0.168,0.768 -0.732,0.948 -1.068,0.948 h 0 c -0.384,0 -0.888,-0.228 -1.056,-0.912 -0.12,-0.492 -0.12,-1.176 -0.12,-1.788 0,-0.612 0,-1.248 0.12,-1.704 0.18,-0.66 0.72,-0.84 1.056,-0.84 v -0.228 c -1.932,0 -1.932,2.28 -1.932,2.88 0,0.6 0,2.82 1.932,2.82 1.944,0 1.944,-2.22 1.944,-2.82 z"
         inkscape:connector-curvature="0"
         style="font-style:normal;font-variant:normal;font-weight:normal;font-stretch:normal;letter-spacing:normal;word-spacing:normal;text-anchor:start;fill:#000000;stroke:#000000;stroke-width:0;stroke-linecap:butt;stroke-linejoin:miter;stroke-miterlimit:10.43299961;stroke-opacity:1;stroke-dasharray:none;stroke-dashoffset:0" />
      <path
         id="path4148"
         d="m -35.696,151.39949 0.036,0 0.036,0 0.024,0 0.024,-0.012 0.012,0 0.024,0 0.012,0 0.024,0 0.012,0 0.012,-0.012 0.024,0 0.012,0 0.012,-0.012 0.024,0 0.012,-0.012 0.012,0 0.012,-0.012 0.012,-0.012 0.012,-0.012 0.012,-0.012 0.012,-0.012 0,0 0,-0.012 0.012,0 0,-0.012 0,-0.012 0,0 0.012,-0.012 0,-0.012 0,0 0,-0.012 0,-0.012 0,-0.012 0.012,-0.012 0,0 0,-0.012 0,-0.012 c 0,-0.24 -0.228,-0.24 -0.396,-0.24 h -7.164 c -0.168,0 -0.396,0 -0.396,0.24 0,0.24 0.228,0.24 0.408,0.24 z"
         inkscape:connector-curvature="0"
         style="font-style:normal;font-variant:normal;font-weight:normal;font-stretch:normal;letter-spacing:normal;word-spacing:normal;text-anchor:start;fill:#000000;stroke:#000000;stroke-width:0;stroke-linecap:butt;stroke-linejoin:miter;stroke-miterlimit:10.43299961;stroke-opacity:1;stroke-dasharray:none;stroke-dashoffset:0" />
      <path
         id="path4150"
         d="m -35.684,153.71549 0.024,0 0.036,0 0.036,0 0.012,0 0.024,-0.012 0.012,0 0.024,0 0.012,0 0.012,0 0.024,-0.012 0.012,0 0.012,0 0.024,-0.012 0.012,0 0.012,-0.012 0.012,0 0.012,-0.012 0.012,-0.012 0.012,-0.012 0.012,-0.012 0,0 0.012,-0.012 0,0 0,-0.012 0.012,0 0,-0.012 0,-0.012 0,0 0.012,-0.012 0,-0.012 0,0 0,-0.012 0,-0.012 0,-0.012 0.012,-0.012 0,0 0,-0.012 0,-0.012 c 0,-0.24 -0.228,-0.24 -0.408,-0.24 h -7.14 c -0.18,0 -0.408,0 -0.408,0.24 0,0.24 0.228,0.24 0.396,0.24 z"
         inkscape:connector-curvature="0"
         style="font-style:normal;font-variant:normal;font-weight:normal;font-stretch:normal;letter-spacing:normal;word-spacing:normal;text-anchor:start;fill:#000000;stroke:#000000;stroke-width:0;stroke-linecap:butt;stroke-linejoin:miter;stroke-miterlimit:10.43299961;stroke-opacity:1;stroke-dasharray:none;stroke-dashoffset:0" />
      <path
         id="path4152"
         d="m -26.192,148.05149 0.012,-0.036 0.012,-0.024 0,-0.024 0.012,-0.024 0,-0.036 0.012,-0.012 0.012,-0.024 0,-0.024 0.012,-0.024 0,-0.012 0.012,-0.024 0,-0.012 0.012,-0.012 0.012,-0.024 0,-0.012 0.012,-0.012 0,-0.012 0.012,-0.012 0.012,0 0.012,-0.012 0,-0.012 0.012,-0.012 0.012,0 0.012,-0.012 0,0 0.012,-0.012 0.012,0 0.012,-0.012 0.012,0 0.012,0 0.012,-0.012 0.012,0 c 0.108,-0.024 0.504,-0.024 0.756,-0.024 1.212,0 1.752,0.048 1.752,0.984 0,0.18 -0.048,0.648 -0.108,0.948 -0.012,0.048 -0.024,0.192 -0.024,0.228 0,0.072 0.024,0.156 0.132,0.156 0.144,0 0.156,-0.096 0.18,-0.276 l 0.324,-2.076 c 0.012,-0.048 0.024,-0.168 0.024,-0.204 0,-0.132 -0.12,-0.132 -0.312,-0.132 h -6.648 c -0.288,0 -0.3,0.012 -0.384,0.24 l -0.72,2.1 c 0,0.024 -0.072,0.192 -0.072,0.216 0,0.072 0.072,0.132 0.144,0.132 0.12,0 0.144,-0.06 0.204,-0.252 0.648,-1.848 0.96,-2.064 2.736,-2.064 h 0.468 c 0.336,0 0.336,0.048 0.336,0.144 0,0.072 -0.036,0.216 -0.06,0.252 l -1.596,6.372 c -0.108,0.444 -0.144,0.576 -1.428,0.576 -0.432,0 -0.504,0 -0.504,0.228 0,0.144 0.132,0.144 0.204,0.144 0.324,0 0.66,-0.024 0.984,-0.024 0.336,0 0.684,-0.012 1.02,-0.012 0.336,0 0.672,0.012 0.996,0.012 0.348,0 0.696,0.024 1.032,0.024 0.12,0 0.264,0 0.264,-0.24 0,-0.132 -0.096,-0.132 -0.408,-0.132 -0.3,0 -0.456,0 -0.756,-0.024 -0.348,-0.036 -0.444,-0.072 -0.444,-0.264 0,-0.012 0,-0.072 0.048,-0.24 z"
         inkscape:connector-curvature="0"
         style="font-style:normal;font-variant:normal;font-weight:normal;font-stretch:normal;letter-spacing:normal;word-spacing:normal;text-anchor:start;fill:#000000;stroke:#000000;stroke-width:0;stroke-linecap:butt;stroke-linejoin:miter;stroke-miterlimit:10.43299961;stroke-opacity:1;stroke-dasharray:none;stroke-dashoffset:0" />
      <path
         id="path4154"
         d="m -20,154.43549 0,-0.168 0,-0.168 -0.012,-0.156 -0.012,-0.156 -0.012,-0.144 -0.012,-0.144 -0.024,-0.132 -0.024,-0.144 -0.036,-0.132 -0.036,-0.12 -0.036,-0.12 -0.048,-0.12 -0.048,-0.12 -0.06,-0.12 -0.06,-0.108 -0.036,-0.06 -0.036,-0.048 c -0.252,-0.384 -0.78,-0.72 -1.44,-0.72 v 0.228 c 0.444,0 0.876,0.276 1.032,0.768 0.132,0.444 0.144,1.044 0.144,1.776 0,0.612 0,1.236 -0.108,1.752 -0.168,0.768 -0.744,0.948 -1.068,0.948 h 0 c -0.384,0 -0.9,-0.228 -1.068,-0.912 -0.12,-0.492 -0.12,-1.176 -0.12,-1.788 0,-0.612 0,-1.248 0.132,-1.704 0.18,-0.66 0.708,-0.84 1.056,-0.84 v -0.228 c -1.944,0 -1.944,2.28 -1.944,2.88 0,0.6 0,2.82 1.944,2.82 1.932,0 1.932,-2.22 1.932,-2.82 z"
         inkscape:connector-curvature="0"
         style="font-style:normal;font-variant:normal;font-weight:normal;font-stretch:normal;letter-spacing:normal;word-spacing:normal;text-anchor:start;fill:#000000;stroke:#000000;stroke-width:0;stroke-linecap:butt;stroke-linejoin:miter;stroke-miterlimit:10.43299961;stroke-opacity:1;stroke-dasharray:none;stroke-dashoffset:0" />
    </g>
    <g
       id="g4460"
       transform="translate(123.156,-29.903996)">
      <path
         id="path4156"
         d="m -54.452,164.87549 h 1.128 c 0.24,0 0.36,0 0.36,-0.24 0,-0.132 -0.12,-0.132 -0.336,-0.132 h -1.056 c 0.432,-1.704 0.492,-1.932 0.492,-2.004 0,-0.204 -0.144,-0.324 -0.348,-0.324 -0.036,0 -0.372,0.012 -0.48,0.42 l -0.468,1.908 h -1.128 c -0.228,0 -0.36,0 -0.36,0.228 0,0.144 0.096,0.144 0.336,0.144 h 1.056 c -0.864,3.384 -0.912,3.588 -0.912,3.804 0,0.648 0.456,1.104 1.104,1.104 1.224,0 1.908,-1.752 1.908,-1.848 0,-0.12 -0.096,-0.12 -0.144,-0.12 -0.108,0 -0.12,0.036 -0.18,0.168 -0.516,1.248 -1.152,1.536 -1.56,1.536 -0.252,0 -0.372,-0.156 -0.372,-0.552 0,-0.288 0.024,-0.372 0.072,-0.576 z"
         inkscape:connector-curvature="0"
         style="font-style:normal;font-variant:normal;font-weight:normal;font-stretch:normal;letter-spacing:normal;word-spacing:normal;text-anchor:start;fill:#000000;stroke:#000000;stroke-width:0;stroke-linecap:butt;stroke-linejoin:miter;stroke-miterlimit:10.43299961;stroke-opacity:1;stroke-dasharray:none;stroke-dashoffset:0" />
      <path
         id="path4158"
         d="m -49.796,166.13549 0,-0.012 0,-0.012 0,-0.012 0,0 0,-0.012 0,-0.012 0,-0.012 0,0 0,-0.012 0,-0.012 -0.012,0 0,-0.012 0,0 0,-0.012 0,-0.012 0,0 0,-0.012 0,0 0,-0.012 0,-0.012 -0.012,-0.012 0,0 -0.012,-0.012 0,0 0,-0.012 -0.012,0 -0.012,-0.012 0,0 -0.012,0 -0.012,-0.012 -0.012,0 -0.012,0 0,0 -0.012,0 0,0 -0.012,0 0,0 -0.012,0 -0.012,0 0,0 -0.012,-0.012 -0.012,0 0,0 -0.012,0 -0.012,0 -0.012,0 -0.012,0 0,0 -0.012,0 -0.012,0 c -0.54,0.528 -1.296,0.54 -1.644,0.54 v 0.3 c 0.204,0 0.756,0 1.212,-0.24 v 4.26 c 0,0.276 0,0.384 -0.828,0.384 h -0.324 v 0.3 c 0.156,-0.012 1.176,-0.036 1.488,-0.036 0.264,0 1.32,0.024 1.5,0.036 v -0.3 h -0.324 c -0.828,0 -0.828,-0.108 -0.828,-0.384 z"
         inkscape:connector-curvature="0"
         style="font-style:normal;font-variant:normal;font-weight:normal;font-stretch:normal;letter-spacing:normal;word-spacing:normal;text-anchor:start;fill:#000000;stroke:#000000;stroke-width:0;stroke-linecap:butt;stroke-linejoin:miter;stroke-miterlimit:10.43299961;stroke-opacity:1;stroke-dasharray:none;stroke-dashoffset:0" />
    </g>
    <g
       id="g4464"
       transform="translate(163.38,-71.235996)">
      <path
         id="path4160"
         d="m -54.452,179.21549 h 1.128 c 0.24,0 0.36,0 0.36,-0.24 0,-0.132 -0.12,-0.132 -0.336,-0.132 h -1.056 c 0.432,-1.692 0.492,-1.932 0.492,-2.004 0,-0.204 -0.144,-0.324 -0.348,-0.324 -0.036,0 -0.372,0.012 -0.48,0.432 l -0.468,1.896 h -1.128 c -0.228,0 -0.36,0 -0.36,0.228 0,0.144 0.096,0.144 0.336,0.144 h 1.056 c -0.864,3.396 -0.912,3.6 -0.912,3.816 0,0.636 0.456,1.092 1.104,1.092 1.224,0 1.908,-1.74 1.908,-1.836 0,-0.12 -0.096,-0.12 -0.144,-0.12 -0.108,0 -0.12,0.036 -0.18,0.168 -0.516,1.236 -1.152,1.524 -1.56,1.524 -0.252,0 -0.372,-0.156 -0.372,-0.54 0,-0.288 0.024,-0.372 0.072,-0.576 z"
         inkscape:connector-curvature="0"
         style="font-style:normal;font-variant:normal;font-weight:normal;font-stretch:normal;letter-spacing:normal;word-spacing:normal;text-anchor:start;fill:#000000;stroke:#000000;stroke-width:0;stroke-linecap:butt;stroke-linejoin:miter;stroke-miterlimit:10.43299961;stroke-opacity:1;stroke-dasharray:none;stroke-dashoffset:0" />
      <path
         id="path4162"
         d="m -48.38,184.26749 h -0.288 c -0.024,0.18 -0.108,0.672 -0.216,0.756 -0.06,0.048 -0.708,0.048 -0.828,0.048 h -1.536 c 0.876,-0.768 1.176,-1.008 1.668,-1.392 0.624,-0.492 1.2,-1.008 1.2,-1.812 0,-1.008 -0.888,-1.62 -1.956,-1.62 -1.032,0 -1.74,0.72 -1.74,1.488 0,0.432 0.36,0.468 0.444,0.468 0.204,0 0.444,-0.132 0.444,-0.432 0,-0.156 -0.06,-0.444 -0.492,-0.444 0.264,-0.6 0.828,-0.78 1.224,-0.78 0.828,0 1.272,0.648 1.272,1.32 0,0.732 -0.528,1.308 -0.792,1.608 l -2.016,1.98 c -0.084,0.084 -0.084,0.096 -0.084,0.336 h 3.444 z"
         inkscape:connector-curvature="0"
         style="font-style:normal;font-variant:normal;font-weight:normal;font-stretch:normal;letter-spacing:normal;word-spacing:normal;text-anchor:start;fill:#000000;stroke:#000000;stroke-width:0;stroke-linecap:butt;stroke-linejoin:miter;stroke-miterlimit:10.43299961;stroke-opacity:1;stroke-dasharray:none;stroke-dashoffset:0" />
    </g>
    <g
       id="g4468"
       transform="translate(285.252,-89.399996)">
      <path
         id="path4164"
         d="m -54.452,193.56749 h 1.128 c 0.24,0 0.36,0 0.36,-0.24 0,-0.132 -0.12,-0.132 -0.336,-0.132 h -1.056 c 0.432,-1.704 0.492,-1.944 0.492,-2.004 0,-0.204 -0.144,-0.324 -0.348,-0.324 -0.036,0 -0.372,0.012 -0.48,0.432 l -0.468,1.896 h -1.128 c -0.228,0 -0.36,0 -0.36,0.228 0,0.144 0.096,0.144 0.336,0.144 h 1.056 c -0.864,3.384 -0.912,3.588 -0.912,3.804 0,0.648 0.456,1.104 1.104,1.104 1.224,0 1.908,-1.752 1.908,-1.848 0,-0.12 -0.096,-0.12 -0.144,-0.12 -0.108,0 -0.12,0.036 -0.18,0.168 -0.516,1.248 -1.152,1.536 -1.56,1.536 -0.252,0 -0.372,-0.156 -0.372,-0.552 0,-0.288 0.024,-0.372 0.072,-0.576 z"
         inkscape:connector-curvature="0"
         style="font-style:normal;font-variant:normal;font-weight:normal;font-stretch:normal;letter-spacing:normal;word-spacing:normal;text-anchor:start;fill:#000000;stroke:#000000;stroke-width:0;stroke-linecap:butt;stroke-linejoin:miter;stroke-miterlimit:10.43299961;stroke-opacity:1;stroke-dasharray:none;stroke-dashoffset:0" />
      <path
         id="path4166"
         d="m -49.892,194.91149 0,-0.012 0,-0.012 0,-0.012 0,-0.012 -0.012,-0.012 0,-0.012 0,-0.012 -0.012,-0.012 0,-0.012 0,-0.024 -0.012,-0.012 -0.012,-0.012 0,-0.012 -0.012,-0.012 -0.012,-0.012 -0.012,-0.012 0,-0.012 -0.012,-0.012 -0.012,-0.012 -0.012,0 -0.024,-0.012 -0.012,-0.012 -0.012,-0.012 -0.012,0 -0.024,-0.012 -0.012,0 -0.012,-0.012 -0.024,0 -0.024,-0.012 -0.012,0 -0.024,0 -0.024,0 c -0.228,0 -0.468,0.216 -0.468,0.456 0,0.144 0.108,0.324 0.336,0.324 0.24,0 0.468,-0.24 0.468,-0.468 z"
         inkscape:connector-curvature="0"
         style="font-style:normal;font-variant:normal;font-weight:normal;font-stretch:normal;letter-spacing:normal;word-spacing:normal;text-anchor:start;fill:#000000;stroke:#000000;stroke-width:0;stroke-linecap:butt;stroke-linejoin:miter;stroke-miterlimit:10.43299961;stroke-opacity:1;stroke-dasharray:none;stroke-dashoffset:0" />
      <path
         id="path4168"
         d="m -51.596,199.15949 -0.012,0.012 0,0.024 -0.012,0.036 -0.012,0.024 0,0.024 -0.012,0.024 0,0.012 -0.012,0.024 0,0.024 0,0.024 -0.012,0.024 0,0.012 0,0.012 0,0.012 0,0.012 0,0.012 0,0.012 0,0.012 0,0.012 c 0,0.396 0.336,0.708 0.792,0.708 0.828,0 1.2,-1.152 1.2,-1.272 0,-0.108 -0.108,-0.108 -0.132,-0.108 -0.12,0 -0.12,0.048 -0.156,0.132 -0.192,0.672 -0.564,1.02 -0.888,1.02 -0.168,0 -0.204,-0.108 -0.204,-0.3 0,-0.192 0.048,-0.348 0.132,-0.528 0.084,-0.228 0.168,-0.456 0.264,-0.672 0.072,-0.204 0.372,-0.96 0.408,-1.056 0.024,-0.084 0.048,-0.192 0.048,-0.264 0,-0.396 -0.336,-0.708 -0.792,-0.708 -0.828,0 -1.212,1.128 -1.212,1.272 0,0.108 0.12,0.108 0.144,0.108 0.12,0 0.12,-0.048 0.144,-0.132 0.228,-0.72 0.588,-1.02 0.9,-1.02 0.132,0 0.204,0.072 0.204,0.288 0,0.192 -0.048,0.324 -0.252,0.84 z"
         inkscape:connector-curvature="0"
         style="font-style:normal;font-variant:normal;font-weight:normal;font-stretch:normal;letter-spacing:normal;word-spacing:normal;text-anchor:start;fill:#000000;stroke:#000000;stroke-width:0;stroke-linecap:butt;stroke-linejoin:miter;stroke-miterlimit:10.43299961;stroke-opacity:1;stroke-dasharray:none;stroke-dashoffset:0" />
    </g>
    <g
       id="g4473"
       transform="translate(310.696,-86.375996)">
      <path
         id="path4170"
         d="m -54.452,207.90749 h 1.128 c 0.24,0 0.36,0 0.36,-0.24 0,-0.132 -0.12,-0.132 -0.336,-0.132 h -1.056 c 0.432,-1.692 0.492,-1.932 0.492,-2.004 0,-0.204 -0.144,-0.324 -0.348,-0.324 -0.036,0 -0.372,0.012 -0.48,0.432 l -0.468,1.896 h -1.128 c -0.228,0 -0.36,0 -0.36,0.228 0,0.144 0.096,0.144 0.336,0.144 h 1.056 c -0.864,3.396 -0.912,3.6 -0.912,3.816 0,0.636 0.456,1.092 1.104,1.092 1.224,0 1.908,-1.74 1.908,-1.836 0,-0.12 -0.096,-0.12 -0.144,-0.12 -0.108,0 -0.12,0.036 -0.18,0.168 -0.516,1.236 -1.152,1.524 -1.56,1.524 -0.252,0 -0.372,-0.156 -0.372,-0.552 0,-0.276 0.024,-0.36 0.072,-0.564 z"
         inkscape:connector-curvature="0"
         style="font-style:normal;font-variant:normal;font-weight:normal;font-stretch:normal;letter-spacing:normal;word-spacing:normal;text-anchor:start;fill:#000000;stroke:#000000;stroke-width:0;stroke-linecap:butt;stroke-linejoin:miter;stroke-miterlimit:10.43299961;stroke-opacity:1;stroke-dasharray:none;stroke-dashoffset:0" />
      <path
         id="path4172"
         d="m -49.892,209.26349 0,-0.012 0,-0.012 0,-0.012 0,-0.012 -0.012,-0.012 0,-0.012 0,-0.024 -0.012,-0.012 0,-0.012 0,-0.012 -0.012,-0.012 -0.012,-0.012 0,-0.012 -0.012,-0.012 -0.012,-0.012 -0.012,-0.012 0,-0.012 -0.012,-0.012 -0.012,-0.012 -0.012,-0.012 -0.024,-0.012 -0.012,0 -0.012,-0.012 -0.012,-0.012 -0.024,0 -0.012,-0.012 -0.012,0 -0.024,-0.012 -0.024,0 -0.012,0 -0.024,0 -0.024,0 c -0.228,0 -0.468,0.216 -0.468,0.456 0,0.144 0.108,0.312 0.336,0.312 0.24,0 0.468,-0.228 0.468,-0.456 z"
         inkscape:connector-curvature="0"
         style="font-style:normal;font-variant:normal;font-weight:normal;font-stretch:normal;letter-spacing:normal;word-spacing:normal;text-anchor:start;fill:#000000;stroke:#000000;stroke-width:0;stroke-linecap:butt;stroke-linejoin:miter;stroke-miterlimit:10.43299961;stroke-opacity:1;stroke-dasharray:none;stroke-dashoffset:0" />
      <path
         id="path4174"
         d="m -51.596,213.49949 -0.012,0.024 0,0.024 -0.012,0.036 -0.012,0.024 0,0.012 -0.012,0.024 0,0.024 -0.012,0.024 0,0.024 0,0.012 -0.012,0.024 0,0.012 0,0.012 0,0.012 0,0.012 0,0.012 0,0.012 0,0.012 0,0.024 c 0,0.384 0.336,0.708 0.792,0.708 0.828,0 1.2,-1.152 1.2,-1.284 0,-0.108 -0.108,-0.108 -0.132,-0.108 -0.12,0 -0.12,0.048 -0.156,0.144 -0.192,0.672 -0.564,1.008 -0.888,1.008 -0.168,0 -0.204,-0.108 -0.204,-0.288 0,-0.192 0.048,-0.348 0.132,-0.54 0.084,-0.216 0.168,-0.444 0.264,-0.66 0.072,-0.204 0.372,-0.96 0.408,-1.068 0.024,-0.072 0.048,-0.18 0.048,-0.264 0,-0.396 -0.336,-0.708 -0.792,-0.708 -0.828,0 -1.212,1.14 -1.212,1.272 0,0.108 0.12,0.108 0.144,0.108 0.12,0 0.12,-0.036 0.144,-0.132 0.228,-0.708 0.588,-1.02 0.9,-1.02 0.132,0 0.204,0.072 0.204,0.3 0,0.192 -0.048,0.312 -0.252,0.828 z"
         inkscape:connector-curvature="0"
         style="font-style:normal;font-variant:normal;font-weight:normal;font-stretch:normal;letter-spacing:normal;word-spacing:normal;text-anchor:start;fill:#000000;stroke:#000000;stroke-width:0;stroke-linecap:butt;stroke-linejoin:miter;stroke-miterlimit:10.43299961;stroke-opacity:1;stroke-dasharray:none;stroke-dashoffset:0" />
      <path
         id="path4176"
         d="m -45.344,212.59949 h 2.556 c 0.108,0 0.3,0 0.3,-0.204 0,-0.216 -0.192,-0.216 -0.3,-0.216 h -2.556 v -2.556 c 0,-0.108 0,-0.312 -0.204,-0.312 -0.204,0 -0.204,0.192 -0.204,0.312 v 2.556 h -2.568 c -0.108,0 -0.312,0 -0.312,0.204 0,0.216 0.192,0.216 0.312,0.216 h 2.568 v 2.556 c 0,0.108 0,0.312 0.192,0.312 0.216,0 0.216,-0.192 0.216,-0.312 z"
         inkscape:connector-curvature="0"
         style="font-style:normal;font-variant:normal;font-weight:normal;font-stretch:normal;letter-spacing:normal;word-spacing:normal;text-anchor:start;fill:#000000;stroke:#000000;stroke-width:0;stroke-linecap:butt;stroke-linejoin:miter;stroke-miterlimit:10.43299961;stroke-opacity:1;stroke-dasharray:none;stroke-dashoffset:0" />
      <path
         id="path4178"
         d="m -39.08,209.16749 0,0 0,-0.012 0,-0.012 0,-0.012 0,-0.012 0,0 0,-0.012 0,-0.012 0,0 0,-0.012 0,-0.012 0,0 0,-0.012 0,0 0,-0.012 0,0 -0.012,-0.012 0,0 0,-0.012 0,-0.012 0,-0.012 -0.012,-0.012 0,0 -0.012,-0.012 0,0 -0.012,-0.012 0,0 -0.012,0 -0.012,-0.012 0,0 -0.012,0 -0.012,0 -0.012,-0.012 0,0 -0.012,0 0,0 -0.012,0 -0.012,0 0,0 -0.012,0 -0.012,0 0,0 -0.012,0 -0.012,0 -0.012,0 0,0 -0.012,0 -0.012,0 -0.012,0 -0.012,0 c -0.528,0.528 -1.296,0.528 -1.632,0.528 v 0.3 c 0.192,0 0.744,0 1.212,-0.228 v 4.26 c 0,0.276 0,0.384 -0.84,0.384 h -0.312 v 0.3 c 0.144,-0.012 1.176,-0.036 1.488,-0.036 0.252,0 1.308,0.024 1.488,0.036 v -0.3 h -0.312 c -0.84,0 -0.84,-0.108 -0.84,-0.384 z"
         inkscape:connector-curvature="0"
         style="font-style:normal;font-variant:normal;font-weight:normal;font-stretch:normal;letter-spacing:normal;word-spacing:normal;text-anchor:start;fill:#000000;stroke:#000000;stroke-width:0;stroke-linecap:butt;stroke-linejoin:miter;stroke-miterlimit:10.43299961;stroke-opacity:1;stroke-dasharray:none;stroke-dashoffset:0" />
    </g>
    <g
       id="g4480"
       transform="translate(271.728,-65.875996)">
      <path
         id="path4180"
         d="m -54.452,222.25949 h 1.128 c 0.24,0 0.36,0 0.36,-0.24 0,-0.132 -0.12,-0.132 -0.336,-0.132 h -1.056 c 0.432,-1.704 0.492,-1.944 0.492,-2.004 0,-0.204 -0.144,-0.324 -0.348,-0.324 -0.036,0 -0.372,0.012 -0.48,0.42 l -0.468,1.908 h -1.128 c -0.228,0 -0.36,0 -0.36,0.228 0,0.144 0.096,0.144 0.336,0.144 h 1.056 c -0.864,3.384 -0.912,3.588 -0.912,3.804 0,0.648 0.456,1.104 1.104,1.104 1.224,0 1.908,-1.752 1.908,-1.848 0,-0.12 -0.096,-0.12 -0.144,-0.12 -0.108,0 -0.12,0.036 -0.18,0.168 -0.516,1.248 -1.152,1.536 -1.56,1.536 -0.252,0 -0.372,-0.156 -0.372,-0.552 0,-0.288 0.024,-0.372 0.072,-0.576 z"
         inkscape:connector-curvature="0"
         style="font-style:normal;font-variant:normal;font-weight:normal;font-stretch:normal;letter-spacing:normal;word-spacing:normal;text-anchor:start;fill:#000000;stroke:#000000;stroke-width:0;stroke-linecap:butt;stroke-linejoin:miter;stroke-miterlimit:10.43299961;stroke-opacity:1;stroke-dasharray:none;stroke-dashoffset:0" />
      <path
         id="path4182"
         d="m -51.584,228.29549 0,0.012 0,0.012 0,0.012 -0.012,0.012 0,0.012 0,0.012 -0.012,0.012 0,0.012 0,0.036 -0.012,0.024 -0.012,0.024 0,0.024 0,0.012 -0.012,0.012 0,0.012 0,0.012 0,0.012 -0.012,0.012 0,0.012 0,0.012 0,0.012 0,0 0,0.012 0,0 0,0.012 -0.012,0 0,0.012 0,0 0,0 0,0 c 0,0.18 0.156,0.264 0.288,0.264 0.156,0 0.288,-0.108 0.324,-0.18 0.048,-0.072 0.108,-0.348 0.156,-0.516 0.036,-0.156 0.132,-0.54 0.18,-0.756 0.048,-0.18 0.108,-0.36 0.144,-0.552 0.096,-0.348 0.108,-0.42 0.348,-0.756 0.24,-0.336 0.624,-0.768 1.26,-0.768 0.48,0 0.492,0.42 0.492,0.588 0,0.492 -0.36,1.428 -0.492,1.776 -0.096,0.228 -0.132,0.312 -0.132,0.444 0,0.444 0.372,0.72 0.792,0.72 0.84,0 1.212,-1.152 1.212,-1.272 0,-0.108 -0.108,-0.108 -0.132,-0.108 -0.12,0 -0.132,0.048 -0.168,0.144 -0.192,0.66 -0.552,1.008 -0.888,1.008 -0.168,0 -0.204,-0.12 -0.204,-0.3 0,-0.192 0.036,-0.3 0.192,-0.672 0.096,-0.264 0.444,-1.14 0.444,-1.608 0,-0.816 -0.648,-0.948 -1.092,-0.948 -0.684,0 -1.152,0.42 -1.404,0.756 -0.06,-0.576 -0.552,-0.756 -0.9,-0.756 -0.36,0 -0.552,0.252 -0.66,0.444 -0.18,0.312 -0.3,0.792 -0.3,0.828 0,0.108 0.12,0.108 0.144,0.108 0.12,0 0.12,-0.024 0.18,-0.252 0.132,-0.492 0.288,-0.9 0.612,-0.9 0.216,0 0.276,0.18 0.276,0.408 0,0.156 -0.072,0.468 -0.132,0.696 -0.06,0.228 -0.144,0.564 -0.18,0.744 z"
         inkscape:connector-curvature="0"
         style="font-style:normal;font-variant:normal;font-weight:normal;font-stretch:normal;letter-spacing:normal;word-spacing:normal;text-anchor:start;fill:#000000;stroke:#000000;stroke-width:0;stroke-linecap:butt;stroke-linejoin:miter;stroke-miterlimit:10.43299961;stroke-opacity:1;stroke-dasharray:none;stroke-dashoffset:0" />
      <path
         id="path4184"
         d="m -34.556,223.12349 0.036,0 0.036,0 0.036,0 0.012,0 0.024,0 0.012,0 0.024,0 0.012,-0.012 0.024,0 0.012,0 0.012,0 0.024,-0.012 0.012,0 0.012,-0.012 0.012,0 0.012,-0.012 0.012,-0.012 0.012,0 0.012,-0.012 0.012,-0.012 0.012,-0.012 0,-0.012 0.012,0 0,-0.012 0,0 0.012,-0.012 0,-0.012 0,0 0,-0.012 0,-0.012 0.012,-0.012 0,0 0,-0.012 0,-0.012 0,-0.012 0,-0.012 0,-0.012 c 0,-0.24 -0.228,-0.24 -0.396,-0.24 h -7.164 c -0.168,0 -0.396,0 -0.396,0.24 0,0.24 0.228,0.24 0.408,0.24 z"
         inkscape:connector-curvature="0"
         style="font-style:normal;font-variant:normal;font-weight:normal;font-stretch:normal;letter-spacing:normal;word-spacing:normal;text-anchor:start;fill:#000000;stroke:#000000;stroke-width:0;stroke-linecap:butt;stroke-linejoin:miter;stroke-miterlimit:10.43299961;stroke-opacity:1;stroke-dasharray:none;stroke-dashoffset:0" />
      <path
         id="path4186"
         d="m -34.544,225.43949 0.036,0 0.036,0 0.024,0 0.024,0 0.012,0 0.024,0 0.012,0 0.012,0 0.024,-0.012 0.012,0 0.012,0 0.024,-0.012 0.012,0 0.012,-0.012 0.012,0 0.012,-0.012 0.012,0 0.012,-0.012 0.012,-0.012 0.012,-0.012 0.012,-0.012 0,0 0,-0.012 0.012,0 0,-0.012 0,0 0.012,-0.012 0,-0.012 0,0 0,-0.012 0,-0.012 0.012,0 0,-0.012 0,-0.012 0,-0.012 0,-0.012 0,-0.012 0,-0.012 c 0,-0.228 -0.228,-0.228 -0.408,-0.228 h -7.14 c -0.18,0 -0.408,0 -0.408,0.228 0,0.24 0.228,0.24 0.396,0.24 z"
         inkscape:connector-curvature="0"
         style="font-style:normal;font-variant:normal;font-weight:normal;font-stretch:normal;letter-spacing:normal;word-spacing:normal;text-anchor:start;fill:#000000;stroke:#000000;stroke-width:0;stroke-linecap:butt;stroke-linejoin:miter;stroke-miterlimit:10.43299961;stroke-opacity:1;stroke-dasharray:none;stroke-dashoffset:0" />
      <path
         id="path4188"
         d="m -25.04,219.78749 0,-0.036 0.012,-0.024 0.012,-0.036 0,-0.024 0.012,-0.024 0,-0.024 0.012,-0.024 0.012,-0.012 0,-0.024 0.012,-0.024 0,-0.012 0.012,-0.024 0,-0.012 0.012,-0.012 0.012,-0.012 0,-0.012 0.012,-0.012 0.012,-0.012 0,-0.012 0.012,-0.012 0.012,0 0,-0.012 0.012,-0.012 0.012,0 0.012,-0.012 0.012,0 0.012,-0.012 0,0 0.012,0 0.012,-0.012 0.012,0 0.024,0 c 0.108,-0.024 0.492,-0.024 0.744,-0.024 1.212,0 1.752,0.048 1.752,0.972 0,0.18 -0.048,0.648 -0.096,0.96 -0.012,0.048 -0.036,0.192 -0.036,0.228 0,0.072 0.036,0.156 0.144,0.156 0.132,0 0.156,-0.096 0.18,-0.276 l 0.324,-2.076 c 0.012,-0.048 0.024,-0.168 0.024,-0.204 0,-0.132 -0.12,-0.132 -0.324,-0.132 h -6.636 c -0.288,0 -0.3,0.012 -0.384,0.24 l -0.72,2.1 c -0.012,0.024 -0.072,0.192 -0.072,0.216 0,0.072 0.06,0.132 0.144,0.132 0.12,0 0.132,-0.06 0.204,-0.252 0.648,-1.848 0.96,-2.064 2.724,-2.064 h 0.468 c 0.336,0 0.336,0.048 0.336,0.144 0,0.072 -0.036,0.216 -0.048,0.252 l -1.608,6.372 c -0.108,0.444 -0.144,0.576 -1.416,0.576 -0.432,0 -0.504,0 -0.504,0.228 0,0.144 0.132,0.144 0.204,0.144 0.324,0 0.66,-0.024 0.972,-0.024 0.336,0 0.684,-0.012 1.02,-0.012 0.336,0 0.672,0.012 0.996,0.012 0.348,0 0.708,0.024 1.044,0.024 0.12,0 0.264,0 0.264,-0.24 0,-0.132 -0.096,-0.132 -0.408,-0.132 -0.3,0 -0.456,0 -0.768,-0.024 -0.348,-0.036 -0.444,-0.072 -0.444,-0.264 0,-0.012 0,-0.072 0.048,-0.252 z"
         inkscape:connector-curvature="0"
         style="font-style:normal;font-variant:normal;font-weight:normal;font-stretch:normal;letter-spacing:normal;word-spacing:normal;text-anchor:start;fill:#000000;stroke:#000000;stroke-width:0;stroke-linecap:butt;stroke-linejoin:miter;stroke-miterlimit:10.43299961;stroke-opacity:1;stroke-dasharray:none;stroke-dashoffset:0" />
    </g>
    <path
       inkscape:connector-curvature="0"
       id="path3031-5-1"
       d="m 285.5,131.53148 c 0,1.38073 -1.11929,2.50001 -2.5,2.50001 -1.38072,0 -2.5,-1.11928 -2.5,-2.50001 0,-1.38071 1.11928,-2.5 2.5,-2.5 1.38071,0 2.5,1.11929 2.5,2.5 z"
       style="fill:#ffffff;stroke:none;display:inline" />
    <path
       inkscape:connector-curvature="0"
       id="path3031-5-4"
       d="m 282,139.78149 c 0,1.38073 -1.11929,2.50001 -2.5,2.50001 -1.38072,0 -2.5,-1.11928 -2.5,-2.50001 0,-1.38071 1.11928,-2.5 2.5,-2.5 1.38071,0 2.5,1.11929 2.5,2.5 z"
       style="fill:#ffffff;stroke:none;display:inline" />
    <path
       inkscape:connector-curvature="0"
       id="path3031-5-2"
       d="m 277,147.53149 c 0,1.38073 -1.11929,2.50001 -2.5,2.50001 -1.38072,0 -2.5,-1.11928 -2.5,-2.50001 0,-1.38071 1.11928,-2.5 2.5,-2.5 1.38071,0 2.5,1.11929 2.5,2.5 z"
       style="fill:#ffffff;stroke:none;display:inline" />
    <path
       inkscape:connector-curvature="0"
       id="path3031-0-3"
       d="m 258.8262,157.87538 c 0,1.38073 -1.11929,2.50001 -2.5,2.50001 -1.38072,0 -2.5,-1.11928 -2.5,-2.50001 0,-1.38071 1.11928,-2.5 2.5,-2.5 1.38071,0 2.5,1.11929 2.5,2.5 z"
       style="fill:#ffffff;stroke:#000000;stroke-width:0.70866144;stroke-miterlimit:4;stroke-opacity:1;stroke-dasharray:none;display:inline" />
  </g>
</svg>
