<?xml version="1.0" encoding="UTF-8" standalone="no"?>
<!-- Created with Inkscape (http://www.inkscape.org/) -->

<svg
   xmlns:dc="http://purl.org/dc/elements/1.1/"
   xmlns:cc="http://creativecommons.org/ns#"
   xmlns:rdf="http://www.w3.org/1999/02/22-rdf-syntax-ns#"
   xmlns:svg="http://www.w3.org/2000/svg"
   xmlns="http://www.w3.org/2000/svg"
   xmlns:sodipodi="http://sodipodi.sourceforge.net/DTD/sodipodi-0.dtd"
   xmlns:inkscape="http://www.inkscape.org/namespaces/inkscape"
   width="325.98425"
   height="248.03149"
   id="svg2"
   version="1.1"
   inkscape:version="0.48.0 r9654"
   sodipodi:docname="geom_torsion.pdf"
   enable-background="new">
  <sodipodi:namedview
     id="base"
     pagecolor="#ffffff"
     bordercolor="#666666"
     borderopacity="1.0"
     inkscape:pageopacity="0.0"
     inkscape:pageshadow="2"
     inkscape:zoom="2"
     inkscape:cx="132.85187"
     inkscape:cy="136.83759"
     inkscape:document-units="cm"
     inkscape:current-layer="layer3"
     showgrid="true"
     inkscape:window-width="800"
     inkscape:window-height="578"
     inkscape:window-x="-4"
     inkscape:window-y="-4"
     inkscape:window-maximized="1"
     units="cm"
     width="9.2cm"
     showguides="true"
     inkscape:guide-bbox="true"
     inkscape:showpageshadow="false"
     objecttolerance="4"
     gridtolerance="4">
    <inkscape:grid
       type="xygrid"
       id="grid3254"
       empspacing="5"
       visible="true"
       enabled="true"
       snapvisiblegridlinesonly="true" />
  </sodipodi:namedview>
  <defs
     id="defs4"><marker
   inkscape:stockid="Arrow1Send"
   orient="auto"
   refY="0.0"
   refX="0.0"
   id="Arrow1Send"
   style="overflow:visible;">
  <path
     id="path3997"
     d="M 0.0,0.0 L 5.0,-5.0 L -12.5,0.0 L 5.0,5.0 L 0.0,0.0 z "
     style="fill-rule:evenodd;stroke:#000000;stroke-width:1.0pt;marker-start:none;"
     transform="scale(0.2) rotate(180) translate(6,0)" />
</marker>
<marker
   inkscape:stockid="Arrow1Sstart"
   orient="auto"
   refY="0.0"
   refX="0.0"
   id="Arrow1Sstart"
   style="overflow:visible">
  <path
     id="path3994"
     d="M 0.0,0.0 L 5.0,-5.0 L -12.5,0.0 L 5.0,5.0 L 0.0,0.0 z "
     style="fill-rule:evenodd;stroke:#000000;stroke-width:1.0pt;marker-start:none"
     transform="scale(0.2) translate(6,0)" />
</marker>
<marker
   inkscape:stockid="Arrow1Mend"
   orient="auto"
   refY="0.0"
   refX="0.0"
   id="Arrow1Mend"
   style="overflow:visible;">
  <path
     id="path3991"
     d="M 0.0,0.0 L 5.0,-5.0 L -12.5,0.0 L 5.0,5.0 L 0.0,0.0 z "
     style="fill-rule:evenodd;stroke:#000000;stroke-width:1.0pt;marker-start:none;"
     transform="scale(0.4) rotate(180) translate(10,0)" />
</marker>
<marker
   inkscape:stockid="Arrow1Mstart"
   orient="auto"
   refY="0.0"
   refX="0.0"
   id="Arrow1Mstart"
   style="overflow:visible">
  <path
     id="path3988"
     d="M 0.0,0.0 L 5.0,-5.0 L -12.5,0.0 L 5.0,5.0 L 0.0,0.0 z "
     style="fill-rule:evenodd;stroke:#000000;stroke-width:1.0pt;marker-start:none"
     transform="scale(0.4) translate(10,0)" />
</marker>
<marker
   inkscape:stockid="Arrow2Lend"
   orient="auto"
   refY="0.0"
   refX="0.0"
   id="Arrow2Lend"
   style="overflow:visible;">
  <path
     id="path4003"
     style="font-size:12.0;fill-rule:evenodd;stroke-width:0.62500000;stroke-linejoin:round;"
     d="M 8.7185878,4.0337352 L -2.2072895,0.016013256 L 8.7185884,-4.0017078 C 6.9730900,-1.6296469 6.9831476,1.6157441 8.7185878,4.0337352 z "
     transform="scale(1.1) rotate(180) translate(1,0)" />
</marker>
<marker
   inkscape:stockid="Arrow2Lstart"
   orient="auto"
   refY="0.0"
   refX="0.0"
   id="Arrow2Lstart"
   style="overflow:visible">
  <path
     id="path4000"
     style="font-size:12.0;fill-rule:evenodd;stroke-width:0.62500000;stroke-linejoin:round"
     d="M 8.7185878,4.0337352 L -2.2072895,0.016013256 L 8.7185884,-4.0017078 C 6.9730900,-1.6296469 6.9831476,1.6157441 8.7185878,4.0337352 z "
     transform="scale(1.1) translate(1,0)" />
</marker>
<marker
   style="overflow:visible"
   id="Arrow1Lend"
   refX="0"
   refY="0"
   orient="auto"
   inkscape:stockid="Arrow1Lend">
  <path
     transform="matrix(-0.8,0,0,-0.8,-10,0)"
     style="fill-rule:evenodd;stroke:#000000;stroke-width:1pt;marker-start:none"
     d="M 0,0 5,-5 -12.5,0 5,5 0,0 z"
     id="path4440"
     inkscape:connector-curvature="0" />
</marker>
<marker
   style="overflow:visible"
   id="Arrow1Lstart"
   refX="0"
   refY="0"
   orient="auto"
   inkscape:stockid="Arrow1Lstart">
  <path
     transform="matrix(0.8,0,0,0.8,10,0)"
     style="fill-rule:evenodd;stroke:#000000;stroke-width:1pt;marker-start:none"
     d="M 0,0 5,-5 -12.5,0 5,5 0,0 z"
     id="path4437"
     inkscape:connector-curvature="0" />
</marker>
<marker
   inkscape:stockid="Arrow2Lstart"
   orient="auto"
   refY="0"
   refX="0"
   id="Arrow2Lstart-4"
   style="overflow:visible">
  <path
     inkscape:connector-curvature="0"
     id="path4000-4"
     style="font-size:12px;fill-rule:evenodd;stroke-width:0.625;stroke-linejoin:round"
     d="M 8.7185878,4.0337352 -2.2072895,0.01601326 8.7185884,-4.0017078 c -1.7454984,2.3720609 -1.7354408,5.6174519 -6e-7,8.035443 z"
     transform="matrix(1.1,0,0,1.1,1.1,0)" />
</marker>
<marker
   inkscape:stockid="Arrow2Lend"
   orient="auto"
   refY="0"
   refX="0"
   id="Arrow2Lend-3"
   style="overflow:visible">
  <path
     inkscape:connector-curvature="0"
     id="path4003-0"
     style="font-size:12px;fill-rule:evenodd;stroke-width:0.625;stroke-linejoin:round"
     d="M 8.7185878,4.0337352 -2.2072895,0.01601326 8.7185884,-4.0017078 c -1.7454984,2.3720609 -1.7354408,5.6174519 -6e-7,8.035443 z"
     transform="matrix(-1.1,0,0,-1.1,-1.1,0)" />
</marker>
<marker
   inkscape:stockid="Arrow2Lend"
   orient="auto"
   refY="0"
   refX="0"
   id="marker7119"
   style="overflow:visible">
  <path
     inkscape:connector-curvature="0"
     id="path7121"
     style="font-size:12px;fill-rule:evenodd;stroke-width:0.625;stroke-linejoin:round"
     d="M 8.7185878,4.0337352 -2.2072895,0.01601326 8.7185884,-4.0017078 c -1.7454984,2.3720609 -1.7354408,5.6174519 -6e-7,8.035443 z"
     transform="matrix(-1.1,0,0,-1.1,-1.1,0)" />
</marker>
<marker
   inkscape:stockid="Arrow1Mstart"
   orient="auto"
   refY="0"
   refX="0"
   id="Arrow1Mstart-3"
   style="overflow:visible">
  <path
     inkscape:connector-curvature="0"
     id="path3988-7"
     d="M 0,0 5,-5 -12.5,0 5,5 0,0 z"
     style="fill-rule:evenodd;stroke:#000000;stroke-width:1pt;marker-start:none"
     transform="matrix(0.4,0,0,0.4,4,0)" />
</marker>
<marker
   inkscape:stockid="Arrow1Mend"
   orient="auto"
   refY="0"
   refX="0"
   id="Arrow1Mend-5"
   style="overflow:visible">
  <path
     inkscape:connector-curvature="0"
     id="path3991-5"
     d="M 0,0 5,-5 -12.5,0 5,5 0,0 z"
     style="fill-rule:evenodd;stroke:#000000;stroke-width:1pt;marker-start:none"
     transform="matrix(-0.4,0,0,-0.4,-4,0)" />
</marker>
<marker
   inkscape:stockid="Arrow1Mend"
   orient="auto"
   refY="0"
   refX="0"
   id="Arrow1Mend-4"
   style="overflow:visible">
  <path
     inkscape:connector-curvature="0"
     id="path3991-2"
     d="M 0,0 5,-5 -12.5,0 5,5 0,0 z"
     style="fill-rule:evenodd;stroke:#000000;stroke-width:1pt;marker-start:none"
     transform="matrix(-0.4,0,0,-0.4,-4,0)" />
</marker>




</defs>
  <metadata
     id="metadata7">
    <rdf:RDF>
      <cc:Work
         rdf:about="">
        <dc:format>image/svg+xml</dc:format>
        <dc:type
           rdf:resource="http://purl.org/dc/dcmitype/StillImage" />
        <dc:title></dc:title>
      </cc:Work>
    </rdf:RDF>
  </metadata>
  <g
     inkscape:groupmode="layer"
     id="layer5"
     inkscape:label="Надписи"
     style="display:none" />
  <g
     inkscape:groupmode="layer"
     id="layer4"
     inkscape:label="Слой3"
     style="display:none" />
  <g
     inkscape:label="Слой2"
     id="layer2"
     inkscape:groupmode="layer"
     transform="translate(0,-804.32946)"
     style="display:none">
    <text
       sodipodi:linespacing="125%"
       id="text3997"
       y="849.18628"
       x="114.07245"
       style="font-size:12px;font-style:normal;font-variant:normal;font-weight:normal;font-stretch:normal;line-height:125%;letter-spacing:0px;word-spacing:0px;fill:#000000;fill-opacity:1;stroke:none;font-family:cmmi12;-inkscape-font-specification:cmmi12"
       xml:space="preserve"><tspan
         y="849.18628"
         x="114.07245"
         id="tspan3999"
         sodipodi:role="line" /></text>
    <text
       sodipodi:linespacing="125%"
       id="text4001"
       y="739.52142"
       x="257.33582"
       style="font-size:12px;font-style:normal;font-variant:normal;font-weight:normal;font-stretch:normal;line-height:125%;letter-spacing:0px;word-spacing:0px;fill:#000000;fill-opacity:1;stroke:none;font-family:cmmi12;-inkscape-font-specification:cmmi12"
       xml:space="preserve"><tspan
         y="739.52142"
         x="257.33582"
         id="tspan4003"
         sodipodi:role="line">  </tspan></text>
    <text
       sodipodi:linespacing="125%"
       id="text4009"
       y="837.7204"
       x="125.36874"
       style="font-size:12px;font-style:normal;font-variant:normal;font-weight:normal;font-stretch:normal;line-height:125%;letter-spacing:0px;word-spacing:0px;fill:#000000;fill-opacity:1;stroke:none;font-family:cmmi12;-inkscape-font-specification:cmmi12"
       xml:space="preserve"><tspan
         y="837.7204"
         x="125.36874"
         id="tspan4011"
         sodipodi:role="line" /></text>
  </g>
  <g
     inkscape:label="Слой1"
     id="layer3"
     inkscape:groupmode="layer"
     style="display:inline">
    <g
       transform="matrix(1.25,0,0,-1.25,0,1052.5)"
       inkscape:label="ink_ext_XXXXXX"
       id="g3521">
      <g
         transform="scale(0.1,0.1)"
         id="g3523" />
    </g>
    <g
       transform="matrix(1.25,0,0,-1.25,0,1052.5)"
       inkscape:label="ink_ext_XXXXXX"
       id="g3535">
      <g
         transform="scale(0.1,0.1)"
         id="g3537" />
    </g>
    <text
       xml:space="preserve"
       style="font-size:14.93999958px;font-style:normal;font-variant:normal;font-weight:normal;font-stretch:normal;line-height:125%;letter-spacing:0px;word-spacing:0px;fill:#000000;fill-opacity:1;stroke:none;font-family:cmmi12;-inkscape-font-specification:cmmi12"
       x="104"
       y="224.03149"
       id="text6249"
       sodipodi:linespacing="125%"><tspan
         sodipodi:role="line"
         id="tspan6251"
         x="104"
         y="224.03149" /></text>
    <path
       sodipodi:nodetypes="cc"
       inkscape:connector-curvature="0"
       id="path3185"
       d="m 94.008,47.075494 c 0.769593,35.174264 -0.357019,73.279026 -20,139.999996"
       style="fill:none;stroke:#000000;stroke-width:1px;stroke-linecap:butt;stroke-linejoin:miter;stroke-opacity:1" />
    <path
       sodipodi:nodetypes="cc"
       inkscape:connector-curvature="0"
       id="path3187"
       d="m 94.008,47.075494 c 46.66667,3.409371 93.33333,0.318552 140,-5.667569"
       style="fill:none;stroke:#000000;stroke-width:1px;stroke-linecap:butt;stroke-linejoin:miter;stroke-opacity:1" />
    <path
       sodipodi:nodetypes="cc"
       inkscape:connector-curvature="0"
       id="path3189"
       d="m 74.008,187.07549 c 44.41372,-9.82063 88.82744,-9.22971 133.24116,-10"
       style="fill:none;stroke:#000000;stroke-width:1px;stroke-linecap:butt;stroke-linejoin:miter;stroke-opacity:1" />
    <path
       sodipodi:nodetypes="cc"
       inkscape:connector-curvature="0"
       id="path3191"
       d="m 207.258,177.07549 c 4.63103,-30.00007 17.03434,-66.80088 36.75,-109.999996"
       style="fill:none;stroke:#000000;stroke-width:1px;stroke-linecap:butt;stroke-linejoin:miter;stroke-opacity:1" />
    <path
       sodipodi:nodetypes="cc"
       inkscape:connector-curvature="0"
       id="path3193"
       d="M 244.008,67.605824 233.56606,41.075494"
       style="fill:none;stroke:#000000;stroke-width:1px;stroke-linecap:butt;stroke-linejoin:miter;stroke-opacity:1" />
    <path
       inkscape:connector-curvature="0"
       id="path3199"
       d="m 235.52167,53.502851 -0.35514,-8.53662 5.88069,6.19818 0,0 z"
       style="fill:#280b0b;stroke:#000000;stroke-width:1px;stroke-linecap:butt;stroke-linejoin:miter;stroke-opacity:1" />
    <path
       inkscape:connector-curvature="0"
       id="path3199-1"
       d="m 80.924468,150.29348 4.268126,-7.40156 1.651069,8.38296 0,0 z"
       style="fill:#280b0b;stroke:#000000;stroke-width:1px;stroke-linecap:butt;stroke-linejoin:miter;stroke-opacity:1;display:inline" />
    <path
       inkscape:transform-center-y="-3.50597"
       inkscape:transform-center-x="-3.1224831"
       inkscape:connector-curvature="0"
       id="path3199-7"
       d="m 115.78541,177.85087 8.22259,2.05335 -7.65687,3.92551 0,0 z"
       style="fill:#280b0b;stroke:#000000;stroke-width:1px;stroke-linecap:butt;stroke-linejoin:miter;stroke-opacity:1;display:inline" />
    <path
       style="font-style:normal;font-variant:normal;font-weight:normal;font-stretch:normal;letter-spacing:normal;word-spacing:normal;text-anchor:start;fill:#000000;stroke:#000000;stroke-width:0;stroke-linecap:butt;stroke-linejoin:miter;stroke-miterlimit:10.43299961;stroke-opacity:1;stroke-dasharray:none;stroke-dashoffset:0"
       inkscape:connector-curvature="0"
       d="m 73.144,195.63949 0.048,-0.312 0.816,-3.252 c 0.108,-0.408 0.132,-0.444 0.648,-0.444 h 1.14 c 0.996,0 1.632,0.324 1.632,1.14 0,0.468 -0.24,1.5 -0.708,1.92 -0.6,0.54 -1.308,0.636 -1.836,0.636 h -1.692 l -0.048,0.312 h 2.04 c 1.692,0 3.36,-1.236 3.36,-2.58 0,-0.924 -0.792,-1.8 -2.364,-1.8 h -3.864 c -0.228,0 -0.36,0 -0.36,0.228 0,0.144 0.096,0.144 0.336,0.144 0.156,0 0.372,0.012 0.516,0.024 0.192,0.024 0.264,0.06 0.264,0.192 0,0.036 -0.012,0.084 -0.048,0.216 l -1.596,6.42 c -0.12,0.468 -0.144,0.564 -1.092,0.564 -0.204,0 -0.336,0 -0.336,0.228 0,0.132 0.144,0.132 0.18,0.132 0.336,0 1.188,-0.036 1.524,-0.036 0.252,0 0.516,0.012 0.756,0.012 0.264,0 0.528,0.024 0.78,0.024 0.084,0 0.24,0 0.24,-0.228 0,-0.132 -0.108,-0.132 -0.336,-0.132 -0.444,0 -0.78,0 -0.78,-0.216 0,-0.072 0.024,-0.132 0.036,-0.204 z"
       id="path3640" />
    <g
       id="g3787"
       transform="translate(260.488,131.104)">
      <path
         id="path3642"
         d="m -55.044,60.45949 0.168,-0.072 0.18,-0.072 0.168,-0.096 0.168,-0.084 0.168,-0.108 0.168,-0.108 0.168,-0.108 0.156,-0.132 0.156,-0.12 0.156,-0.144 0.156,-0.132 0.144,-0.156 0.144,-0.144 0.132,-0.156 0.144,-0.168 0.12,-0.168 0.132,-0.168 0.108,-0.18 0.12,-0.18 0.096,-0.192 0.108,-0.18 0.084,-0.192 0.084,-0.204 0.084,-0.192 0.06,-0.204 0.06,-0.204 0.06,-0.204 0.036,-0.216 0.036,-0.204 0.024,-0.216 0.012,-0.216 0.012,-0.216 c 0,-1.92 -1.272,-3.216 -3.048,-3.216 l -0.072,0.3 c 1.188,0 2.064,0.936 2.064,2.532 0,1.2 -0.612,3.996 -2.616,5.112 -0.06,-0.42 -0.18,-1.284 -1.056,-1.284 v 0.264 c 0.504,0 0.732,0.288 0.732,1.008 0,0.18 -0.012,0.192 -0.132,0.24 -0.312,0.132 -0.672,0.216 -1.008,0.216 h 0 c -0.168,0 -0.552,0 -0.552,-0.516 0,-0.48 0.456,-0.948 0.96,-0.948 v -0.264 c -0.636,0 -1.224,0.588 -1.224,1.212 0,0.24 0.072,0.372 0.072,0.384 h 0 c -0.924,-0.372 -1.332,-1.296 -1.332,-2.376 0,-0.828 0.312,-2.52 1.212,-3.816 0.876,-1.212 2.004,-1.764 2.88,-1.764 l 0.072,-0.3 c -2.592,0 -5.22,2.712 -5.22,5.496 0,1.98 1.344,3.192 3.06,3.192 0.3,0 0.708,-0.048 1.176,-0.18 -0.048,0.744 -0.048,0.768 -0.048,0.924 0,0.372 0,1.308 0.996,1.308 1.416,0 1.992,-2.184 1.992,-2.316 0,-0.084 -0.084,-0.12 -0.132,-0.12 -0.096,0 -0.12,0.06 -0.144,0.132 -0.288,0.852 -0.984,1.14 -1.392,1.14 -0.552,0 -0.732,-0.312 -0.852,-1.224 z"
         inkscape:connector-curvature="0"
         style="font-style:normal;font-variant:normal;font-weight:normal;font-stretch:normal;letter-spacing:normal;word-spacing:normal;text-anchor:start;fill:#000000;stroke:#000000;stroke-width:0;stroke-linecap:butt;stroke-linejoin:miter;stroke-miterlimit:10.43299961;stroke-opacity:1;stroke-dasharray:none;stroke-dashoffset:0" />
      <path
         id="path3644"
         d="m -47.316,52.88749 0,-0.012 0,-0.012 0,-0.012 0,-0.012 0,-0.012 0,-0.012 0,-0.012 0,-0.012 0,-0.012 0,-0.012 0,0 0,-0.012 0,-0.012 0,-0.012 0,0 0,-0.012 -0.012,-0.012 0,0 0,-0.024 0,-0.012 0,-0.012 -0.012,-0.012 0,0 0,-0.012 -0.012,-0.012 -0.012,0 0,-0.012 -0.012,0 -0.012,-0.012 -0.012,0 0,0 -0.012,-0.012 0,0 -0.012,0 0,0 -0.012,0 0,0 -0.012,0 -0.012,0 0,0 -0.012,-0.012 -0.012,0 -0.012,0 -0.012,0 0,0 -0.012,0 -0.012,0 -0.012,0 -0.012,0 -0.012,0 -0.012,0 -0.012,0 c -0.744,0.768 -1.8,0.768 -2.172,0.768 v 0.372 c 0.24,0 0.936,0 1.56,-0.312 v 6.18 c 0,0.432 -0.036,0.576 -1.116,0.576 h -0.372 v 0.372 c 0.408,-0.036 1.452,-0.036 1.932,-0.036 0.48,0 1.524,0 1.944,0.036 v -0.372 H -46.2 c -1.08,0 -1.116,-0.132 -1.116,-0.576 z"
         inkscape:connector-curvature="0"
         style="font-style:normal;font-variant:normal;font-weight:normal;font-stretch:normal;letter-spacing:normal;word-spacing:normal;text-anchor:start;fill:#000000;stroke:#000000;stroke-width:0;stroke-linecap:butt;stroke-linejoin:miter;stroke-miterlimit:10.43299961;stroke-opacity:1;stroke-dasharray:none;stroke-dashoffset:0" />
    </g>
    <g
       id="g3791"
       transform="translate(135.824,-24.471996)">
      <path
         id="path3646"
         d="m -55.044,74.79949 0.168,-0.06 0.18,-0.084 0.168,-0.084 0.168,-0.096 0.168,-0.096 0.168,-0.108 0.168,-0.12 0.156,-0.12 0.156,-0.132 0.156,-0.132 0.156,-0.144 0.144,-0.144 0.144,-0.156 0.132,-0.156 0.144,-0.156 0.12,-0.168 0.132,-0.18 0.108,-0.18 0.12,-0.18 0.096,-0.18 0.108,-0.192 0.084,-0.192 0.084,-0.192 0.084,-0.204 0.06,-0.204 0.06,-0.204 0.06,-0.204 0.036,-0.204 0.036,-0.216 0.024,-0.216 0.012,-0.204 0.012,-0.216 c 0,-1.932 -1.272,-3.216 -3.048,-3.216 l -0.072,0.3 c 1.188,0 2.064,0.924 2.064,2.532 0,1.188 -0.612,3.984 -2.616,5.112 -0.06,-0.42 -0.18,-1.296 -1.056,-1.296 v 0.264 c 0.504,0 0.732,0.288 0.732,1.02 0,0.18 -0.012,0.192 -0.132,0.24 -0.312,0.132 -0.672,0.216 -1.008,0.216 h 0 c -0.168,0 -0.552,0 -0.552,-0.516 0,-0.48 0.456,-0.96 0.96,-0.96 v -0.264 c -0.636,0 -1.224,0.6 -1.224,1.224 0,0.24 0.072,0.372 0.072,0.384 h 0 c -0.924,-0.372 -1.332,-1.308 -1.332,-2.388 0,-0.816 0.312,-2.508 1.212,-3.804 0.876,-1.224 2.004,-1.764 2.88,-1.764 l 0.072,-0.3 c -2.592,0 -5.22,2.712 -5.22,5.496 0,1.98 1.344,3.18 3.06,3.18 0.3,0 0.708,-0.048 1.176,-0.18 -0.048,0.744 -0.048,0.768 -0.048,0.924 0,0.384 0,1.32 0.996,1.32 1.416,0 1.992,-2.196 1.992,-2.328 0,-0.072 -0.084,-0.108 -0.132,-0.108 -0.096,0 -0.12,0.048 -0.144,0.12 -0.288,0.852 -0.984,1.152 -1.392,1.152 -0.552,0 -0.732,-0.324 -0.852,-1.236 z"
         inkscape:connector-curvature="0"
         style="font-style:normal;font-variant:normal;font-weight:normal;font-stretch:normal;letter-spacing:normal;word-spacing:normal;text-anchor:start;fill:#000000;stroke:#000000;stroke-width:0;stroke-linecap:butt;stroke-linejoin:miter;stroke-miterlimit:10.43299961;stroke-opacity:1;stroke-dasharray:none;stroke-dashoffset:0" />
      <path
         id="path3648"
         d="m -49.32,73.95949 1.272,-1.236 c 1.872,-1.644 2.58,-2.292 2.58,-3.48 0,-1.368 -1.068,-2.316 -2.532,-2.316 -1.356,0 -2.232,1.092 -2.232,2.16 0,0.672 0.588,0.672 0.636,0.672 0.192,0 0.612,-0.144 0.612,-0.636 0,-0.312 -0.216,-0.624 -0.636,-0.624 -0.096,0 -0.108,0 -0.144,0.012 0.264,-0.78 0.912,-1.212 1.608,-1.212 1.092,0 1.608,0.96 1.608,1.944 0,0.948 -0.6,1.896 -1.26,2.64 l -2.292,2.556 c -0.132,0.132 -0.132,0.156 -0.132,0.432 h 4.44 l 0.324,-2.076 h -0.288 c -0.06,0.36 -0.156,0.888 -0.264,1.068 -0.084,0.096 -0.876,0.096 -1.14,0.096 z"
         inkscape:connector-curvature="0"
         style="font-style:normal;font-variant:normal;font-weight:normal;font-stretch:normal;letter-spacing:normal;word-spacing:normal;text-anchor:start;fill:#000000;stroke:#000000;stroke-width:0;stroke-linecap:butt;stroke-linejoin:miter;stroke-miterlimit:10.43299961;stroke-opacity:1;stroke-dasharray:none;stroke-dashoffset:0" />
    </g>
    <g
       id="g3795"
       transform="translate(303.988,-6.7759959)">
      <path
         id="path3650"
         d="m -54.072,85.16749 0.108,-0.036 0.12,-0.024 0.108,-0.036 0.12,-0.036 0.12,-0.036 0.108,-0.048 0.12,-0.036 0.108,-0.06 0.12,-0.048 0.108,-0.048 0.108,-0.06 0.108,-0.06 0.108,-0.072 0.108,-0.06 0.096,-0.072 0.096,-0.072 0.096,-0.072 0.084,-0.084 0.084,-0.072 0.084,-0.084 0.072,-0.084 0.072,-0.096 0.072,-0.084 0.06,-0.096 0.048,-0.096 0.048,-0.096 0.048,-0.108 0.036,-0.096 0.024,-0.108 0.024,-0.108 0.012,-0.108 0,-0.12 c 0,-1.02 -1.08,-1.788 -2.64,-1.788 h -3.408 c -0.252,0 -0.348,0 -0.348,0.24 0,0.132 0.096,0.132 0.324,0.132 0.024,0 0.252,0 0.456,0.024 0.216,0.024 0.324,0.036 0.324,0.192 0,0.048 -0.012,0.084 -0.048,0.228 l -1.596,6.408 c -0.12,0.468 -0.144,0.564 -1.092,0.564 -0.216,0 -0.324,0 -0.324,0.24 0,0.132 0.144,0.132 0.168,0.132 0.336,0 1.176,-0.036 1.512,-0.036 0.324,0 1.176,0.036 1.512,0.036 0.096,0 0.24,0 0.24,-0.24 0,-0.132 -0.108,-0.132 -0.336,-0.132 -0.444,0 -0.78,0 -0.78,-0.216 0,-0.072 0.024,-0.132 0.036,-0.204 l 0.792,-3.156 h 1.428 l -0.012,-0.264 h -1.344 l 0.78,-3.12 c 0.072,-0.288 0.108,-0.408 0.336,-0.444 0.108,-0.012 0.492,-0.012 0.732,-0.012 0.84,0 2.172,0 2.172,1.188 0,0.408 -0.192,1.224 -0.66,1.692 -0.312,0.312 -0.936,0.696 -2.016,0.696 l 0.012,0.264 c 1.092,0 1.308,0.66 1.308,1.08 0,0.18 -0.108,0.552 -0.168,0.828 -0.084,0.336 -0.192,0.768 -0.192,1.008 0,1.296 1.428,1.296 1.584,1.296 1.02,0 1.44,-1.212 1.44,-1.368 0,-0.144 -0.132,-0.144 -0.144,-0.144 -0.108,0 -0.132,0.084 -0.156,0.156 -0.3,0.888 -0.816,1.092 -1.092,1.092 -0.396,0 -0.48,-0.264 -0.48,-0.732 0,-0.372 0.072,-0.972 0.12,-1.356 0.024,-0.168 0.048,-0.396 0.048,-0.564 0,-0.924 -0.792,-1.284 -1.116,-1.404 z"
         inkscape:connector-curvature="0"
         style="font-style:normal;font-variant:normal;font-weight:normal;font-stretch:normal;letter-spacing:normal;word-spacing:normal;text-anchor:start;fill:#000000;stroke:#000000;stroke-width:0;stroke-linecap:butt;stroke-linejoin:miter;stroke-miterlimit:10.43299961;stroke-opacity:1;stroke-dasharray:none;stroke-dashoffset:0" />
      <path
         id="path3652"
         d="m -47.592,81.57949 0,-0.012 -0.012,-0.012 0,-0.012 0,-0.012 0,-0.012 0,-0.012 0,-0.012 0,-0.012 0,-0.012 0,-0.012 0,0 0,-0.012 0,-0.012 0,-0.012 0,0 0,-0.012 0,-0.012 0,0 0,-0.024 0,-0.012 -0.012,-0.012 0,-0.012 0,0 -0.012,-0.012 0,-0.012 -0.012,0 -0.012,-0.012 0,0 -0.012,-0.012 -0.012,0 0,0 -0.012,-0.012 0,0 -0.012,0 -0.012,0 0,0 -0.012,0 0,0 -0.012,0 -0.012,0 -0.012,-0.012 0,0 -0.012,0 -0.012,0 -0.012,0 -0.012,0 -0.012,0 0,0 -0.012,0 -0.012,0 -0.012,0 -0.024,0 c -0.732,0.768 -1.788,0.768 -2.172,0.768 v 0.372 c 0.24,0 0.948,0 1.572,-0.312 v 6.18 c 0,0.432 -0.036,0.576 -1.116,0.576 h -0.384 v 0.372 c 0.42,-0.036 1.464,-0.036 1.944,-0.036 0.48,0 1.512,0 1.932,0.036 v -0.372 h -0.384 c -1.068,0 -1.104,-0.132 -1.104,-0.576 z"
         inkscape:connector-curvature="0"
         style="font-style:normal;font-variant:normal;font-weight:normal;font-stretch:normal;letter-spacing:normal;word-spacing:normal;text-anchor:start;fill:#000000;stroke:#000000;stroke-width:0;stroke-linecap:butt;stroke-linejoin:miter;stroke-miterlimit:10.43299961;stroke-opacity:1;stroke-dasharray:none;stroke-dashoffset:0" />
    </g>
    <g
       id="g3799"
       transform="translate(277.852,-67.383996)">
      <path
         id="path3654"
         d="m -54.072,99.50749 0.108,-0.024 0.12,-0.024 0.108,-0.036 0.12,-0.036 0.12,-0.036 0.108,-0.048 0.12,-0.048 0.108,-0.048 0.12,-0.048 0.108,-0.06 0.108,-0.06 0.108,-0.06 0.108,-0.06 0.108,-0.072 0.096,-0.06 0.096,-0.072 0.096,-0.084 0.084,-0.072 0.084,-0.084 0.084,-0.084 0.072,-0.084 0.072,-0.084 0.072,-0.096 0.06,-0.096 0.048,-0.096 0.048,-0.096 0.048,-0.096 0.036,-0.108 0.024,-0.096 0.024,-0.108 0.012,-0.12 0,-0.108 c 0,-1.02 -1.08,-1.788 -2.64,-1.788 h -3.408 c -0.252,0 -0.348,0 -0.348,0.24 0,0.132 0.096,0.132 0.324,0.132 0.024,0 0.252,0 0.456,0.024 0.216,0.024 0.324,0.036 0.324,0.192 0,0.048 -0.012,0.084 -0.048,0.228 l -1.596,6.408 c -0.12,0.468 -0.144,0.564 -1.092,0.564 -0.216,0 -0.324,0 -0.324,0.24 0,0.132 0.144,0.132 0.168,0.132 0.336,0 1.176,-0.036 1.512,-0.036 0.324,0 1.176,0.036 1.512,0.036 0.096,0 0.24,0 0.24,-0.24 0,-0.132 -0.108,-0.132 -0.336,-0.132 -0.444,0 -0.78,0 -0.78,-0.216 0,-0.072 0.024,-0.132 0.036,-0.204 l 0.792,-3.168 h 1.428 l -0.012,-0.264 h -1.344 l 0.78,-3.108 c 0.072,-0.288 0.108,-0.408 0.336,-0.444 0.108,-0.012 0.492,-0.012 0.732,-0.012 0.84,0 2.172,0 2.172,1.176 0,0.408 -0.192,1.236 -0.66,1.704 -0.312,0.3 -0.936,0.684 -2.016,0.684 l 0.012,0.264 c 1.092,0 1.308,0.672 1.308,1.092 0,0.18 -0.108,0.552 -0.168,0.816 -0.084,0.336 -0.192,0.78 -0.192,1.02 0,1.284 1.428,1.284 1.584,1.284 1.02,0 1.44,-1.2 1.44,-1.368 0,-0.144 -0.132,-0.144 -0.144,-0.144 -0.108,0 -0.132,0.084 -0.156,0.168 -0.3,0.888 -0.816,1.092 -1.092,1.092 -0.396,0 -0.48,-0.264 -0.48,-0.732 0,-0.372 0.072,-0.984 0.12,-1.368 0.024,-0.156 0.048,-0.384 0.048,-0.552 0,-0.924 -0.792,-1.296 -1.116,-1.416 z"
         inkscape:connector-curvature="0"
         style="font-style:normal;font-variant:normal;font-weight:normal;font-stretch:normal;letter-spacing:normal;word-spacing:normal;text-anchor:start;fill:#000000;stroke:#000000;stroke-width:0;stroke-linecap:butt;stroke-linejoin:miter;stroke-miterlimit:10.43299961;stroke-opacity:1;stroke-dasharray:none;stroke-dashoffset:0" />
      <path
         id="path3656"
         d="m -49.596,102.65149 1.272,-1.224 c 1.86,-1.656 2.58,-2.304 2.58,-3.492 0,-1.368 -1.08,-2.316 -2.532,-2.316 -1.356,0 -2.244,1.092 -2.244,2.16 0,0.672 0.6,0.672 0.636,0.672 0.204,0 0.624,-0.144 0.624,-0.636 0,-0.312 -0.216,-0.624 -0.636,-0.624 -0.096,0 -0.12,0 -0.156,0.012 0.276,-0.78 0.924,-1.212 1.62,-1.212 1.08,0 1.596,0.96 1.596,1.944 0,0.948 -0.6,1.896 -1.248,2.64 l -2.304,2.556 c -0.132,0.132 -0.132,0.156 -0.132,0.444 h 4.44 l 0.336,-2.088 h -0.3 c -0.06,0.36 -0.144,0.888 -0.264,1.068 -0.084,0.096 -0.876,0.096 -1.14,0.096 z"
         inkscape:connector-curvature="0"
         style="font-style:normal;font-variant:normal;font-weight:normal;font-stretch:normal;letter-spacing:normal;word-spacing:normal;text-anchor:start;fill:#000000;stroke:#000000;stroke-width:0;stroke-linecap:butt;stroke-linejoin:miter;stroke-miterlimit:10.43299961;stroke-opacity:1;stroke-dasharray:none;stroke-dashoffset:0" />
    </g>
    <g
       id="g3858"
       transform="translate(304.008,-97.52)">
      <g
         id="g3850">
        <path
           style="font-style:normal;font-variant:normal;font-weight:normal;font-stretch:normal;letter-spacing:normal;word-spacing:normal;text-anchor:start;fill:#000000;stroke:#000000;stroke-width:0;stroke-linecap:butt;stroke-linejoin:miter;stroke-miterlimit:10.43299961;stroke-opacity:1;stroke-dasharray:none;stroke-dashoffset:0"
           inkscape:connector-curvature="0"
           d="m -55.176,139.35949 0,-0.036 0.012,-0.024 0.012,-0.024 0,-0.024 0.012,-0.036 0,-0.012 0.012,-0.024 0.012,-0.024 0,-0.024 0.012,-0.012 0,-0.024 0.012,-0.012 0.012,-0.012 0,-0.024 0.012,-0.012 0,-0.012 0.012,-0.012 0.012,-0.012 0,0 0.012,-0.012 0.012,-0.012 0.012,-0.012 0,0 0.012,-0.012 0.012,0 0.012,-0.012 0.012,0 0.012,-0.012 0.012,0 0.012,0 0.012,-0.012 0.012,0 c 0.108,-0.024 0.504,-0.024 0.756,-0.024 1.2,0 1.74,0.048 1.74,0.984 0,0.18 -0.048,0.636 -0.096,0.948 -0.012,0.048 -0.036,0.192 -0.036,0.228 0,0.072 0.036,0.156 0.144,0.156 0.132,0 0.156,-0.096 0.18,-0.276 l 0.324,-2.076 c 0.012,-0.048 0.024,-0.168 0.024,-0.204 0,-0.132 -0.12,-0.132 -0.324,-0.132 h -6.636 c -0.288,0 -0.3,0.012 -0.384,0.24 l -0.72,2.1 c -0.012,0.024 -0.072,0.192 -0.072,0.216 0,0.072 0.06,0.132 0.144,0.132 0.12,0 0.132,-0.06 0.204,-0.252 0.648,-1.848 0.96,-2.064 2.724,-2.064 h 0.468 c 0.336,0 0.336,0.048 0.336,0.144 0,0.072 -0.036,0.216 -0.048,0.252 l -1.608,6.384 c -0.096,0.432 -0.132,0.564 -1.416,0.564 -0.432,0 -0.504,0 -0.504,0.228 0,0.144 0.132,0.144 0.204,0.144 0.324,0 0.66,-0.024 0.984,-0.024 0.336,0 0.684,-0.012 1.02,-0.012 0.324,0 0.66,0.012 0.984,0.012 0.348,0 0.708,0.024 1.044,0.024 0.12,0 0.264,0 0.264,-0.24 0,-0.132 -0.096,-0.132 -0.408,-0.132 -0.3,0 -0.456,0 -0.768,-0.024 -0.348,-0.036 -0.444,-0.072 -0.444,-0.264 0,-0.012 0,-0.072 0.048,-0.252 z"
           id="path3664" />
        <path
           style="font-style:normal;font-variant:normal;font-weight:normal;font-stretch:normal;letter-spacing:normal;word-spacing:normal;text-anchor:start;fill:#000000;stroke:#000000;stroke-width:0;stroke-linecap:butt;stroke-linejoin:miter;stroke-miterlimit:10.43299961;stroke-opacity:1;stroke-dasharray:none;stroke-dashoffset:0"
           inkscape:connector-curvature="0"
           d="m -47.676,149.47549 0,-0.012 0,0 0,0 0,-0.012 0,0 0,0 -0.012,-0.012 0,0 0,0 0,-0.012 0,0 -0.012,-0.012 0,0 0,-0.012 -0.012,0 0,-0.012 -0.012,-0.012 0,0 -0.012,-0.012 0,0 0,-0.012 -0.012,0 0,0 -0.012,-0.012 0,0 0,-0.012 -0.012,0 0,-0.012 -0.012,0 0,-0.012 -0.012,0 0,-0.012 -0.012,-0.012 -0.012,0 0,-0.012 -0.012,-0.012 -0.012,0 0,-0.012 -0.012,-0.012 -0.012,0 0,-0.012 -0.012,-0.012 c -1.5,-1.5 -1.884,-3.756 -1.884,-5.592 0,-2.076 0.456,-4.152 1.932,-5.652 0.156,-0.132 0.156,-0.156 0.156,-0.192 0,-0.084 -0.048,-0.12 -0.12,-0.12 -0.12,0 -1.2,0.804 -1.908,2.328 -0.612,1.308 -0.744,2.64 -0.744,3.636 0,0.936 0.132,2.376 0.78,3.732 0.72,1.464 1.752,2.244 1.872,2.244 0.072,0 0.12,-0.036 0.12,-0.12 z"
           id="path3666" />
        <path
           style="font-style:normal;font-variant:normal;font-weight:normal;font-stretch:normal;letter-spacing:normal;word-spacing:normal;text-anchor:start;fill:#000000;stroke:#000000;stroke-width:0;stroke-linecap:butt;stroke-linejoin:miter;stroke-miterlimit:10.43299961;stroke-opacity:1;stroke-dasharray:none;stroke-dashoffset:0"
           inkscape:connector-curvature="0"
           d="m -45.144,142.95949 -0.12,0.072 -0.12,0.084 -0.108,0.084 -0.096,0.084 -0.096,0.084 -0.096,0.096 -0.084,0.084 -0.084,0.084 -0.072,0.084 -0.072,0.096 -0.06,0.084 -0.06,0.084 -0.06,0.084 -0.06,0.096 -0.048,0.084 -0.036,0.084 -0.048,0.072 -0.036,0.084 -0.036,0.084 -0.024,0.072 -0.024,0.072 -0.024,0.084 -0.024,0.06 -0.024,0.072 -0.012,0.072 -0.012,0.06 -0.012,0.06 -0.012,0.06 0,0.048 -0.012,0.048 0,0.048 0,0.048 c 0,0.564 0.324,0.9 0.348,0.936 0.384,0.396 0.492,0.444 1.392,0.78 l 1.44,0.564 c 0.18,0.084 0.42,0.168 0.42,0.504 0,0.276 -0.216,0.636 -0.588,0.636 -0.516,0 -0.912,-0.288 -1.044,-0.384 -0.072,-0.048 -0.084,-0.06 -0.132,-0.06 -0.096,0 -0.12,0.084 -0.12,0.132 0,0.144 0.636,0.576 1.296,0.576 0.744,0 1.248,-0.696 1.248,-1.272 0,-0.576 -0.444,-0.792 -0.576,-0.852 -0.168,-0.06 -0.576,-0.216 -0.732,-0.276 -0.24,-0.096 -0.48,-0.192 -0.72,-0.276 l -0.72,-0.288 c -0.54,-0.216 -0.9,-0.564 -0.9,-1.056 0,-0.492 0.468,-1.536 1.476,-2.04 0.444,0.156 0.792,0.156 1.044,0.156 0.36,0 1.116,0 1.116,-0.36 0,-0.3 -0.516,-0.324 -0.984,-0.324 l -0.012,0.264 c 0.42,0 0.468,0.012 0.684,0.072 -0.096,0.048 -0.216,0.096 -0.768,0.096 -0.276,0 -0.384,0 -0.6,-0.096 h 0 c 0.276,-0.072 0.54,-0.072 0.684,-0.072 l 0.012,-0.264 c -0.216,0 -0.564,0 -0.996,0.144 -0.312,-0.312 -0.36,-0.708 -0.36,-0.936 0,-0.672 0.42,-1.584 1.32,-2.028 0.216,0.264 0.492,0.264 0.768,0.264 0.3,0 1.068,0 1.068,-0.372 0,-0.312 -0.528,-0.324 -0.996,-0.324 l 0.012,0.264 c 0.408,0 0.456,0.012 0.672,0.072 -0.096,0.036 -0.216,0.096 -0.744,0.096 -0.228,0 -0.372,0 -0.504,-0.108 h 0 c 0.192,-0.06 0.444,-0.06 0.576,-0.06 l -0.012,-0.264 c -0.156,0 -0.444,0 -0.756,0.06 -0.036,-0.108 -0.06,-0.192 -0.06,-0.396 0,-0.168 0.06,-0.42 0.06,-0.444 0,-0.096 -0.06,-0.156 -0.144,-0.156 -0.216,0 -0.216,0.552 -0.216,0.588 0,0.24 0.072,0.42 0.084,0.468 -1.272,0.36 -2.088,1.308 -2.088,2.232 0,0.444 0.216,0.948 0.78,1.272 z"
           id="path3668" />
        <path
           style="font-style:normal;font-variant:normal;font-weight:normal;font-stretch:normal;letter-spacing:normal;word-spacing:normal;text-anchor:start;fill:#000000;stroke:#000000;stroke-width:0;stroke-linecap:butt;stroke-linejoin:miter;stroke-miterlimit:10.43299961;stroke-opacity:1;stroke-dasharray:none;stroke-dashoffset:0"
           inkscape:connector-curvature="0"
           d="m -38.784,146.59549 0,-0.072 0,-0.072 0,-0.072 -0.012,-0.06 -0.012,-0.072 0,-0.06 -0.012,-0.06 -0.012,-0.06 -0.012,-0.06 -0.024,-0.048 -0.012,-0.06 -0.024,-0.048 -0.012,-0.048 -0.024,-0.048 -0.024,-0.036 -0.024,-0.048 -0.024,-0.036 -0.024,-0.036 -0.036,-0.036 -0.024,-0.036 -0.036,-0.024 -0.036,-0.024 -0.024,-0.024 -0.036,-0.024 -0.036,-0.024 -0.036,-0.012 -0.036,-0.024 -0.048,-0.012 -0.036,0 -0.036,-0.012 -0.048,0 -0.048,0 c -0.384,0 -0.624,0.3 -0.624,0.624 0,0.324 0.24,0.636 0.624,0.636 0.144,0 0.3,-0.048 0.42,-0.156 0.036,-0.024 0.048,-0.036 0.06,-0.036 0.012,0 0.024,0.012 0.024,0.18 0,0.888 -0.42,1.608 -0.804,1.992 -0.132,0.132 -0.132,0.156 -0.132,0.192 0,0.084 0.06,0.132 0.12,0.132 0.12,0 1.08,-0.912 1.08,-2.316 z"
           id="path3670" />
        <path
           style="font-style:normal;font-variant:normal;font-weight:normal;font-stretch:normal;letter-spacing:normal;word-spacing:normal;text-anchor:start;fill:#000000;stroke:#000000;stroke-width:0;stroke-linecap:butt;stroke-linejoin:miter;stroke-miterlimit:10.43299961;stroke-opacity:1;stroke-dasharray:none;stroke-dashoffset:0"
           inkscape:connector-curvature="0"
           d="m -32.016,139.69549 0.024,0.024 0.012,0.012 0.024,0.012 0.024,0.024 0.024,0.012 0.024,0.012 0.012,0.012 0.024,0.012 0.024,0.012 0.024,0.012 0.024,0.012 0.024,0 0.024,0.012 0.024,0.012 0.024,0 0.024,0.012 0.024,0 0.024,0 0.048,0.012 0.036,0 0.048,0.012 0.048,0 0.048,0 0.048,0 0.048,0 c 0.3,0 1.068,0 1.068,-0.372 0,-0.3 -0.48,-0.324 -0.96,-0.324 l -0.012,0.264 c 0.396,0 0.444,0.012 0.66,0.072 -0.096,0.036 -0.216,0.096 -0.744,0.096 -0.252,0 -0.336,0 -0.468,-0.084 h 0 c 0.18,-0.084 0.396,-0.084 0.552,-0.084 l 0.012,-0.264 c -0.132,0 -0.456,0 -0.768,0.12 -0.06,-0.144 -0.084,-0.204 -0.084,-0.456 0,-0.168 0.06,-0.42 0.06,-0.444 0,-0.096 -0.06,-0.156 -0.144,-0.156 -0.216,0 -0.216,0.552 -0.216,0.588 0,0.204 0.036,0.42 0.132,0.6 -1.26,0.636 -3.144,2.832 -3.144,5.148 0,1.68 1.092,2.04 1.944,2.328 0.36,0.132 0.384,0.132 0.732,0.252 0.252,0.084 0.744,0.252 0.744,0.816 0,0.312 -0.228,0.78 -0.672,0.78 -0.312,0 -0.636,-0.144 -0.888,-0.36 -0.084,-0.072 -0.096,-0.084 -0.144,-0.084 -0.06,0 -0.12,0.048 -0.12,0.132 0,0.12 0.516,0.576 1.152,0.576 0.744,0 1.308,-0.768 1.308,-1.44 0,-0.456 -0.228,-0.708 -0.324,-0.804 -0.204,-0.228 -0.432,-0.3 -1.14,-0.54 -0.96,-0.324 -1.14,-0.384 -1.428,-0.624 -0.504,-0.456 -0.504,-1.14 -0.504,-1.368 0,-1.848 1.452,-3.936 2.664,-4.584 z"
           id="path3672" />
        <path
           style="font-style:normal;font-variant:normal;font-weight:normal;font-stretch:normal;letter-spacing:normal;word-spacing:normal;text-anchor:start;fill:#000000;stroke:#000000;stroke-width:0;stroke-linecap:butt;stroke-linejoin:miter;stroke-miterlimit:10.43299961;stroke-opacity:1;stroke-dasharray:none;stroke-dashoffset:0"
           inkscape:connector-curvature="0"
           d="m -26.328,143.61949 0,-0.084 0,-0.096 0,-0.096 0,-0.096 -0.012,-0.204 -0.012,-0.204 -0.024,-0.216 -0.024,-0.228 -0.036,-0.24 -0.036,-0.24 -0.048,-0.24 -0.06,-0.252 -0.06,-0.252 -0.072,-0.252 -0.084,-0.252 -0.096,-0.264 -0.048,-0.12 -0.06,-0.132 -0.06,-0.132 -0.06,-0.12 c -0.708,-1.476 -1.74,-2.244 -1.86,-2.244 -0.072,0 -0.12,0.048 -0.12,0.12 0,0.036 0,0.06 0.228,0.264 1.176,1.188 1.848,3.084 1.848,5.58 0,2.052 -0.432,4.152 -1.92,5.652 -0.156,0.144 -0.156,0.168 -0.156,0.204 0,0.072 0.048,0.12 0.12,0.12 0.12,0 1.2,-0.816 1.896,-2.328 0.612,-1.32 0.756,-2.64 0.756,-3.648 z"
           id="path3674" />
      </g>
    </g>
    <path
       id="path3953"
       d="m 123.84,187.94749 -0.12,0.084 -0.12,0.084 -0.108,0.084 -0.096,0.084 -0.096,0.084 -0.096,0.084 -0.084,0.084 -0.084,0.096 -0.072,0.084 -0.072,0.084 -0.06,0.084 -0.06,0.096 -0.06,0.084 -0.06,0.084 -0.048,0.084 -0.036,0.084 -0.048,0.084 -0.036,0.084 -0.036,0.072 -0.024,0.084 -0.024,0.072 -0.024,0.072 -0.024,0.072 -0.024,0.072 -0.012,0.06 -0.012,0.06 -0.012,0.06 -0.012,0.06 0,0.048 -0.012,0.06 0,0.036 0,0.048 c 0,0.576 0.324,0.912 0.348,0.948 0.384,0.396 0.492,0.432 1.392,0.768 l 1.44,0.564 c 0.18,0.084 0.42,0.168 0.42,0.516 0,0.276 -0.216,0.636 -0.588,0.636 -0.516,0 -0.912,-0.288 -1.044,-0.384 -0.072,-0.048 -0.084,-0.06 -0.132,-0.06 -0.096,0 -0.12,0.084 -0.12,0.132 0,0.144 0.636,0.564 1.296,0.564 0.744,0 1.248,-0.684 1.248,-1.272 0,-0.576 -0.444,-0.792 -0.576,-0.852 -0.168,-0.06 -0.576,-0.204 -0.732,-0.276 -0.24,-0.084 -0.468,-0.18 -0.732,-0.264 l -0.708,-0.288 c -0.54,-0.216 -0.9,-0.564 -0.9,-1.068 0,-0.492 0.468,-1.524 1.476,-2.028 0.432,0.156 0.792,0.156 1.044,0.156 0.36,0 1.116,0 1.116,-0.372 0,-0.3 -0.516,-0.324 -0.984,-0.324 l -0.012,0.264 c 0.42,0 0.468,0.012 0.684,0.072 -0.096,0.048 -0.216,0.096 -0.768,0.096 -0.276,0 -0.384,0 -0.6,-0.096 h 0 c 0.276,-0.072 0.54,-0.072 0.684,-0.072 l 0.012,-0.264 c -0.216,0 -0.564,0 -1.008,0.144 -0.3,-0.312 -0.348,-0.708 -0.348,-0.924 0,-0.672 0.42,-1.596 1.32,-2.04 0.216,0.264 0.492,0.264 0.768,0.264 0.3,0 1.068,0 1.068,-0.372 0,-0.312 -0.528,-0.324 -0.996,-0.324 l 0.012,0.264 c 0.408,0 0.456,0.012 0.672,0.072 -0.096,0.036 -0.216,0.096 -0.744,0.096 -0.228,0 -0.372,0 -0.504,-0.108 h 0 c 0.192,-0.06 0.444,-0.06 0.576,-0.06 l -0.012,-0.264 c -0.156,0 -0.444,0 -0.756,0.06 -0.036,-0.108 -0.06,-0.192 -0.06,-0.384 0,-0.168 0.06,-0.42 0.06,-0.444 0,-0.096 -0.06,-0.156 -0.144,-0.156 -0.216,0 -0.216,0.552 -0.216,0.588 0,0.228 0.072,0.408 0.084,0.456 -1.272,0.36 -2.088,1.32 -2.088,2.232 0,0.444 0.216,0.948 0.78,1.272 z"
       inkscape:connector-curvature="0"
       style="font-style:normal;font-variant:normal;font-weight:normal;font-stretch:normal;letter-spacing:normal;word-spacing:normal;text-anchor:start;fill:#000000;stroke:#000000;stroke-width:0;stroke-linecap:butt;stroke-linejoin:miter;stroke-miterlimit:10.43299961;stroke-opacity:1;stroke-dasharray:none;stroke-dashoffset:0" />
    <path
       id="path3955"
       d="m 76.18,136.13549 0.012,0.012 0.024,0.024 0.024,0.012 0.024,0.024 0.012,0.012 0.024,0.012 0.024,0.012 0.024,0.012 0.024,0.012 0.024,0.012 0.024,0.012 0.012,0 0.024,0.012 0.024,0.012 0.024,0 0.024,0 0.024,0.012 0.024,0 0.048,0.012 0.048,0 0.048,0 0.048,0.012 0.048,0 0.048,0 0.036,0 0.012,-0.264 c -0.252,0 -0.324,0 -0.456,-0.084 h 0 c 0.18,-0.084 0.384,-0.084 0.54,-0.084 0.396,0 0.444,0.012 0.66,0.072 -0.096,0.036 -0.216,0.096 -0.744,0.096 l -0.012,0.264 c 0.3,0 1.068,0 1.068,-0.372 0,-0.3 -0.48,-0.324 -0.96,-0.324 -0.132,0 -0.444,0 -0.756,0.12 -0.06,-0.144 -0.084,-0.204 -0.084,-0.456 0,-0.168 0.06,-0.42 0.06,-0.444 0,-0.096 -0.06,-0.156 -0.144,-0.156 -0.216,0 -0.216,0.552 -0.216,0.588 0,0.204 0.036,0.42 0.132,0.6 -1.26,0.636 -3.144,2.832 -3.144,5.148 0,1.68 1.08,2.04 1.944,2.328 0.36,0.132 0.384,0.132 0.732,0.252 0.252,0.084 0.744,0.252 0.744,0.804 0,0.324 -0.228,0.792 -0.672,0.792 -0.312,0 -0.636,-0.144 -0.888,-0.36 -0.084,-0.072 -0.096,-0.084 -0.144,-0.084 -0.06,0 -0.12,0.048 -0.12,0.132 0,0.12 0.516,0.576 1.152,0.576 0.732,0 1.296,-0.768 1.296,-1.44 0,-0.456 -0.228,-0.708 -0.312,-0.804 -0.216,-0.228 -0.432,-0.3 -1.14,-0.54 -0.96,-0.324 -1.152,-0.384 -1.44,-0.636 -0.504,-0.444 -0.504,-1.128 -0.504,-1.356 0,-1.848 1.464,-3.948 2.676,-4.584 z"
       inkscape:connector-curvature="0"
       style="font-style:normal;font-variant:normal;font-weight:normal;font-stretch:normal;letter-spacing:normal;word-spacing:normal;text-anchor:start;fill:#000000;stroke:#000000;stroke-width:0;stroke-linecap:butt;stroke-linejoin:miter;stroke-miterlimit:10.43299961;stroke-opacity:1;stroke-dasharray:none;stroke-dashoffset:0" />
    <path
       style="font-style:normal;font-variant:normal;font-weight:normal;font-stretch:normal;letter-spacing:normal;word-spacing:normal;text-anchor:start;fill:#000000;fill-opacity:1;fill-rule:evenodd;stroke:#000000;stroke-width:0;stroke-linecap:butt;stroke-linejoin:miter;stroke-miterlimit:10.43299961;stroke-opacity:1;stroke-dasharray:none;stroke-dashoffset:0"
       inkscape:connector-curvature="0"
       d="m 80.871,110.24949 0.039,0 0.039,0 0.039,-0.013 0.026,0 0.013,0 0.026,0 0.013,0 0.026,0 0.013,0 0.013,-0.013 0.026,0 0.013,0 0.013,-0.013 0.013,0 0.026,0 0.013,-0.013 0.013,-0.013 0.013,0 0.013,-0.013 0,-0.013 0.013,-0.013 0.013,-0.013 0,0 0,-0.013 0.013,0 0,-0.013 0,0 0,-0.013 0.013,0 0,-0.013 0,-0.013 0,0 0,-0.013 0,-0.013 0,-0.013 0,0 c 0,-0.182 -0.156,-0.182 -0.377,-0.182 h -2.093 c 0.312,-1.105 1.027,-1.859 2.21,-1.859 h 0.403 c 0.221,0 0.429,0 0.429,-0.221 0,-0.169 -0.169,-0.169 -0.39,-0.169 H 81.04 c -1.677,0 -3.419,1.287 -3.419,3.263 0,1.43 0.975,2.444 2.353,2.444 0.832,0 1.677,-0.507 1.677,-0.65 0,-0.039 -0.013,-0.182 -0.13,-0.182 -0.026,0 -0.052,0 -0.169,0.078 -0.403,0.26 -0.884,0.481 -1.352,0.481 -0.754,0 -1.404,-0.546 -1.404,-1.69 0,-0.455 0.104,-0.949 0.143,-1.092 z"
       id="path4601" />
    <g
       id="g4698"
       transform="translate(171.245,-5.3225059)">
      <path
         id="path4603"
         d="m 53.755,68.354 0.039,0 0.039,0 0.039,0 0.013,0 0.026,0 0.013,0 0.026,0 0.013,-0.013 0.013,0 0.026,0 0.013,0 0.013,-0.013 0.026,0 0.013,0 0.013,-0.013 0.013,0 0.013,-0.013 0.013,-0.013 0.013,0 0.013,-0.013 0.013,-0.013 0,-0.013 0.013,-0.013 0,0 0,-0.013 0,0 0.013,-0.013 0,0 0,-0.013 0,-0.013 0,0 0,-0.013 0,-0.013 0.013,0 0,-0.013 0,-0.013 c 0,-0.182 -0.156,-0.182 -0.377,-0.182 h -2.106 c 0.312,-1.092 1.04,-1.846 2.223,-1.846 h 0.39 c 0.221,0 0.429,0 0.429,-0.221 0,-0.182 -0.169,-0.182 -0.39,-0.182 h -0.442 c -1.69,0 -3.419,1.3 -3.419,3.276 0,1.417 0.962,2.444 2.34,2.444 0.845,0 1.69,-0.52 1.69,-0.663 0,-0.039 -0.026,-0.182 -0.13,-0.182 -0.039,0 -0.065,0 -0.182,0.078 -0.39,0.26 -0.871,0.481 -1.352,0.481 -0.754,0 -1.404,-0.546 -1.404,-1.677 0,-0.455 0.104,-0.949 0.143,-1.105 z"
         inkscape:connector-curvature="0"
         style="font-style:normal;font-variant:normal;font-weight:normal;font-stretch:normal;letter-spacing:normal;word-spacing:normal;text-anchor:start;fill:#000000;fill-opacity:1;fill-rule:evenodd;stroke:#000000;stroke-width:0;stroke-linecap:butt;stroke-linejoin:miter;stroke-miterlimit:10.43299961;stroke-opacity:1;stroke-dasharray:none;stroke-dashoffset:0" />
      <path
         id="path4605"
         d="M 59.722,64.935 H 59.41 c -0.026,0.195 -0.117,0.728 -0.234,0.819 -0.078,0.052 -0.767,0.052 -0.897,0.052 h -1.664 c 0.949,-0.832 1.261,-1.092 1.807,-1.508 0.676,-0.533 1.3,-1.105 1.3,-1.963 0,-1.092 -0.962,-1.755 -2.119,-1.755 -1.131,0 -1.885,0.78 -1.885,1.612 0,0.468 0.39,0.507 0.481,0.507 0.221,0 0.481,-0.156 0.481,-0.481 0,-0.156 -0.065,-0.481 -0.533,-0.481 0.273,-0.637 0.897,-0.832 1.313,-0.832 0.91,0 1.378,0.702 1.378,1.43 0,0.793 -0.559,1.417 -0.845,1.742 l -2.184,2.145 c -0.091,0.091 -0.091,0.104 -0.091,0.364 h 3.731 z"
         inkscape:connector-curvature="0"
         style="font-style:normal;font-variant:normal;font-weight:normal;font-stretch:normal;letter-spacing:normal;word-spacing:normal;text-anchor:start;fill:#000000;fill-opacity:1;fill-rule:evenodd;stroke:#000000;stroke-width:0;stroke-linecap:butt;stroke-linejoin:miter;stroke-miterlimit:10.43299961;stroke-opacity:1;stroke-dasharray:none;stroke-dashoffset:0" />
    </g>
    <path
       style="font-style:normal;font-variant:normal;font-weight:normal;font-stretch:normal;letter-spacing:normal;word-spacing:normal;text-anchor:start;fill:#000000;fill-opacity:1;fill-rule:evenodd;stroke:#000000;stroke-width:0;stroke-linecap:butt;stroke-linejoin:miter;stroke-miterlimit:10.43299961;stroke-opacity:1;stroke-dasharray:none;stroke-dashoffset:0;display:inline"
       inkscape:connector-curvature="0"
       d="m 169.519,40.730494 0.039,0 0.039,0 0.039,-0.013 0.026,0 0.013,0 0.026,0 0.013,0 0.026,0 0.013,0 0.013,-0.013 0.026,0 0.013,0 0.013,-0.013 0.013,0 0.026,0 0.013,-0.013 0.013,-0.013 0.013,0 0.013,-0.013 0,-0.013 0.013,-0.013 0.013,-0.013 0,0 0,-0.013 0.013,0 0,-0.013 0,0 0,-0.013 0.013,0 0,-0.013 0,-0.013 0,0 0,-0.013 0,-0.013 0,-0.013 0,0 c 0,-0.182 -0.156,-0.182 -0.377,-0.182 h -2.093 c 0.312,-1.105 1.027,-1.859 2.21,-1.859 h 0.403 c 0.221,0 0.429,0 0.429,-0.221 0,-0.169 -0.169,-0.169 -0.39,-0.169 h -0.455 c -1.677,0 -3.419,1.287 -3.419,3.263 0,1.43 0.975,2.444 2.353,2.444 0.832,0 1.677,-0.507 1.677,-0.65 0,-0.039 -0.013,-0.182 -0.13,-0.182 -0.026,0 -0.052,0 -0.169,0.078 -0.403,0.26 -0.884,0.481 -1.352,0.481 -0.754,0 -1.404,-0.546 -1.404,-1.69 0,-0.455 0.104,-0.949 0.143,-1.092 z"
       id="path4601-8" />
    <path
       style="font-style:normal;font-variant:normal;font-weight:normal;font-stretch:normal;letter-spacing:normal;word-spacing:normal;text-anchor:start;fill:#000000;fill-opacity:1;fill-rule:evenodd;stroke:#000000;stroke-width:0;stroke-linecap:butt;stroke-linejoin:miter;stroke-miterlimit:10.43299961;stroke-opacity:1;stroke-dasharray:none;stroke-dashoffset:0;display:inline"
       inkscape:connector-curvature="0"
       d="m 150.897,184.97649 0.039,0 0.039,0 0.039,-0.013 0.026,0 0.013,0 0.026,0 0.013,0 0.026,0 0.013,0 0.013,-0.013 0.026,0 0.013,0 0.013,-0.013 0.013,0 0.026,0 0.013,-0.013 0.013,-0.013 0.013,0 0.013,-0.013 0,-0.013 0.013,-0.013 0.013,-0.013 0,0 0,-0.013 0.013,0 0,-0.013 0,0 0,-0.013 0.013,0 0,-0.013 0,-0.013 0,0 0,-0.013 0,-0.013 0,-0.013 0,0 c 0,-0.182 -0.156,-0.182 -0.377,-0.182 h -2.093 c 0.312,-1.105 1.027,-1.859 2.21,-1.859 h 0.403 c 0.221,0 0.429,0 0.429,-0.221 0,-0.169 -0.169,-0.169 -0.39,-0.169 h -0.455 c -1.677,0 -3.419,1.287 -3.419,3.263 0,1.43 0.975,2.444 2.353,2.444 0.832,0 1.677,-0.507 1.677,-0.65 0,-0.039 -0.013,-0.182 -0.13,-0.182 -0.026,0 -0.052,0 -0.169,0.078 -0.403,0.26 -0.884,0.481 -1.352,0.481 -0.754,0 -1.404,-0.546 -1.404,-1.69 0,-0.455 0.104,-0.949 0.143,-1.092 z"
       id="path4601-2" />
    <path
       style="font-style:normal;font-variant:normal;font-weight:normal;font-stretch:normal;letter-spacing:normal;word-spacing:normal;text-anchor:start;fill:#000000;fill-opacity:1;fill-rule:evenodd;stroke:#000000;stroke-width:0;stroke-linecap:butt;stroke-linejoin:miter;stroke-miterlimit:10.43299961;stroke-opacity:1;stroke-dasharray:none;stroke-dashoffset:0;display:inline"
       inkscape:connector-curvature="0"
       d="m 228.25,127.42049 0.039,0 0.039,0 0.039,-0.013 0.026,0 0.013,0 0.026,0 0.013,0 0.026,0 0.013,0 0.013,-0.013 0.026,0 0.013,0 0.013,-0.013 0.013,0 0.026,0 0.013,-0.013 0.013,-0.013 0.013,0 0.013,-0.013 0,-0.013 0.013,-0.013 0.013,-0.013 0,0 0,-0.013 0.013,0 0,-0.013 0,0 0,-0.013 0.013,0 0,-0.013 0,-0.013 0,0 0,-0.013 0,-0.013 0,-0.013 0,0 c 0,-0.182 -0.156,-0.182 -0.377,-0.182 h -2.093 c 0.312,-1.105 1.027,-1.859 2.21,-1.859 h 0.403 c 0.221,0 0.429,0 0.429,-0.221 0,-0.169 -0.169,-0.169 -0.39,-0.169 h -0.455 c -1.677,0 -3.419,1.287 -3.419,3.263 0,1.43 0.975,2.444 2.353,2.444 0.832,0 1.677,-0.507 1.677,-0.65 0,-0.039 -0.013,-0.182 -0.13,-0.182 -0.026,0 -0.052,0 -0.169,0.078 -0.403,0.26 -0.884,0.481 -1.352,0.481 -0.754,0 -1.404,-0.546 -1.404,-1.69 0,-0.455 0.104,-0.949 0.143,-1.092 z"
       id="path4601-4" />
  </g>
</svg>
