<?xml version="1.0" encoding="UTF-8" standalone="no"?>
<!-- Created with Inkscape (http://www.inkscape.org/) -->

<svg
   xmlns:dc="http://purl.org/dc/elements/1.1/"
   xmlns:cc="http://creativecommons.org/ns#"
   xmlns:rdf="http://www.w3.org/1999/02/22-rdf-syntax-ns#"
   xmlns:svg="http://www.w3.org/2000/svg"
   xmlns="http://www.w3.org/2000/svg"
   xmlns:sodipodi="http://sodipodi.sourceforge.net/DTD/sodipodi-0.dtd"
   xmlns:inkscape="http://www.inkscape.org/namespaces/inkscape"
   width="220.2308"
   height="95.424637"
   id="svg2"
   version="1.1"
   inkscape:version="0.48.0 r9654"
   sodipodi:docname="frame.svg"
   style="enable-background:new">
  <sodipodi:namedview
     id="base"
     pagecolor="#ffffff"
     bordercolor="#666666"
     borderopacity="1.0"
     inkscape:pageopacity="0.0"
     inkscape:pageshadow="2"
     inkscape:zoom="1"
     inkscape:cx="271.37882"
     inkscape:cy="24.508491"
     inkscape:document-units="cm"
     inkscape:current-layer="layer3"
     showgrid="true"
     inkscape:window-width="800"
     inkscape:window-height="579"
     inkscape:window-x="-4"
     inkscape:window-y="-4"
     inkscape:window-maximized="1"
     units="cm"
     width="9.2cm"
     showguides="true"
     inkscape:guide-bbox="true"
     inkscape:showpageshadow="false"
     objecttolerance="4"
     gridtolerance="4"
     inkscape:snap-global="false"
     fit-margin-top="0"
     fit-margin-left="0"
     fit-margin-right="0"
     fit-margin-bottom="0">
    <inkscape:grid
       snapvisiblegridlinesonly="true"
       enabled="true"
       visible="true"
       empspacing="5"
       id="grid3254"
       type="xygrid" />
  </sodipodi:namedview>
  <defs
     id="defs4"><inkscape:perspective
   sodipodi:type="inkscape:persp3d"
   inkscape:vp_x="0 : 124.01575 : 1"
   inkscape:vp_y="0 : 1000 : 0"
   inkscape:vp_z="325.98425 : 124.01575 : 1"
   inkscape:persp3d-origin="162.99213 : 82.677165 : 1"
   id="perspective4264" />
<marker
   style="overflow:visible"
   id="Arrow1Send"
   refX="0"
   refY="0"
   orient="auto"
   inkscape:stockid="Arrow1Send">
  <path
     transform="matrix(-0.2,0,0,-0.2,-1.2,0)"
     style="fill-rule:evenodd;stroke:#000000;stroke-width:1pt;marker-start:none"
     d="M 0,0 5,-5 -12.5,0 5,5 0,0 z"
     id="path3997"
     inkscape:connector-curvature="0" />
</marker>
<marker
   style="overflow:visible"
   id="Arrow1Sstart"
   refX="0"
   refY="0"
   orient="auto"
   inkscape:stockid="Arrow1Sstart">
  <path
     transform="matrix(0.2,0,0,0.2,1.2,0)"
     style="fill-rule:evenodd;stroke:#000000;stroke-width:1pt;marker-start:none"
     d="M 0,0 5,-5 -12.5,0 5,5 0,0 z"
     id="path3994"
     inkscape:connector-curvature="0" />
</marker>
<marker
   style="overflow:visible"
   id="Arrow1Mend"
   refX="0"
   refY="0"
   orient="auto"
   inkscape:stockid="Arrow1Mend">
  <path
     transform="matrix(-0.4,0,0,-0.4,-4,0)"
     style="fill-rule:evenodd;stroke:#000000;stroke-width:1pt;marker-start:none"
     d="M 0,0 5,-5 -12.5,0 5,5 0,0 z"
     id="path3991"
     inkscape:connector-curvature="0" />
</marker>
<marker
   style="overflow:visible"
   id="Arrow1Mstart"
   refX="0"
   refY="0"
   orient="auto"
   inkscape:stockid="Arrow1Mstart">
  <path
     transform="matrix(0.4,0,0,0.4,4,0)"
     style="fill-rule:evenodd;stroke:#000000;stroke-width:1pt;marker-start:none"
     d="M 0,0 5,-5 -12.5,0 5,5 0,0 z"
     id="path3988"
     inkscape:connector-curvature="0" />
</marker>
<marker
   style="overflow:visible"
   id="Arrow2Lend"
   refX="0"
   refY="0"
   orient="auto"
   inkscape:stockid="Arrow2Lend">
  <path
     transform="matrix(-1.1,0,0,-1.1,-1.1,0)"
     d="M 8.7185878,4.0337352 -2.2072895,0.01601326 8.7185884,-4.0017078 c -1.7454984,2.3720609 -1.7354408,5.6174519 -6e-7,8.035443 z"
     style="font-size:12px;fill-rule:evenodd;stroke-width:0.625;stroke-linejoin:round"
     id="path4003"
     inkscape:connector-curvature="0" />
</marker>
<marker
   style="overflow:visible"
   id="Arrow2Lstart"
   refX="0"
   refY="0"
   orient="auto"
   inkscape:stockid="Arrow2Lstart">
  <path
     transform="matrix(1.1,0,0,1.1,1.1,0)"
     d="M 8.7185878,4.0337352 -2.2072895,0.01601326 8.7185884,-4.0017078 c -1.7454984,2.3720609 -1.7354408,5.6174519 -6e-7,8.035443 z"
     style="font-size:12px;fill-rule:evenodd;stroke-width:0.625;stroke-linejoin:round"
     id="path4000"
     inkscape:connector-curvature="0" />
</marker>
<marker
   inkscape:stockid="Arrow1Lend"
   orient="auto"
   refY="0"
   refX="0"
   id="Arrow1Lend"
   style="overflow:visible">
  <path
     inkscape:connector-curvature="0"
     id="path4440"
     d="M 0,0 5,-5 -12.5,0 5,5 0,0 z"
     style="fill-rule:evenodd;stroke:#000000;stroke-width:1pt;marker-start:none"
     transform="matrix(-0.8,0,0,-0.8,-10,0)" />
</marker>
<marker
   inkscape:stockid="Arrow1Lstart"
   orient="auto"
   refY="0"
   refX="0"
   id="Arrow1Lstart"
   style="overflow:visible">
  <path
     inkscape:connector-curvature="0"
     id="path4437"
     d="M 0,0 5,-5 -12.5,0 5,5 0,0 z"
     style="fill-rule:evenodd;stroke:#000000;stroke-width:1pt;marker-start:none"
     transform="matrix(0.8,0,0,0.8,10,0)" />
</marker>
<marker
   style="overflow:visible"
   id="Arrow2Lstart-4"
   refX="0"
   refY="0"
   orient="auto"
   inkscape:stockid="Arrow2Lstart">
  <path
     transform="matrix(1.1,0,0,1.1,1.1,0)"
     d="M 8.7185878,4.0337352 -2.2072895,0.01601326 8.7185884,-4.0017078 c -1.7454984,2.3720609 -1.7354408,5.6174519 -6e-7,8.035443 z"
     style="font-size:12px;fill-rule:evenodd;stroke-width:0.625;stroke-linejoin:round"
     id="path4000-4"
     inkscape:connector-curvature="0" />
</marker>
<marker
   style="overflow:visible"
   id="Arrow2Lend-3"
   refX="0"
   refY="0"
   orient="auto"
   inkscape:stockid="Arrow2Lend">
  <path
     transform="matrix(-1.1,0,0,-1.1,-1.1,0)"
     d="M 8.7185878,4.0337352 -2.2072895,0.01601326 8.7185884,-4.0017078 c -1.7454984,2.3720609 -1.7354408,5.6174519 -6e-7,8.035443 z"
     style="font-size:12px;fill-rule:evenodd;stroke-width:0.625;stroke-linejoin:round"
     id="path4003-0"
     inkscape:connector-curvature="0" />
</marker>
<marker
   style="overflow:visible"
   id="marker7119"
   refX="0"
   refY="0"
   orient="auto"
   inkscape:stockid="Arrow2Lend">
  <path
     transform="matrix(-1.1,0,0,-1.1,-1.1,0)"
     d="M 8.7185878,4.0337352 -2.2072895,0.01601326 8.7185884,-4.0017078 c -1.7454984,2.3720609 -1.7354408,5.6174519 -6e-7,8.035443 z"
     style="font-size:12px;fill-rule:evenodd;stroke-width:0.625;stroke-linejoin:round"
     id="path7121"
     inkscape:connector-curvature="0" />
</marker>
<marker
   style="overflow:visible"
   id="Arrow1Mstart-3"
   refX="0"
   refY="0"
   orient="auto"
   inkscape:stockid="Arrow1Mstart">
  <path
     transform="matrix(0.4,0,0,0.4,4,0)"
     style="fill-rule:evenodd;stroke:#000000;stroke-width:1pt;marker-start:none"
     d="M 0,0 5,-5 -12.5,0 5,5 0,0 z"
     id="path3988-7"
     inkscape:connector-curvature="0" />
</marker>
<marker
   style="overflow:visible"
   id="Arrow1Mend-5"
   refX="0"
   refY="0"
   orient="auto"
   inkscape:stockid="Arrow1Mend">
  <path
     transform="matrix(-0.4,0,0,-0.4,-4,0)"
     style="fill-rule:evenodd;stroke:#000000;stroke-width:1pt;marker-start:none"
     d="M 0,0 5,-5 -12.5,0 5,5 0,0 z"
     id="path3991-5"
     inkscape:connector-curvature="0" />
</marker>
<marker
   style="overflow:visible"
   id="Arrow1Mend-4"
   refX="0"
   refY="0"
   orient="auto"
   inkscape:stockid="Arrow1Mend">
  <path
     transform="matrix(-0.4,0,0,-0.4,-4,0)"
     style="fill-rule:evenodd;stroke:#000000;stroke-width:1pt;marker-start:none"
     d="M 0,0 5,-5 -12.5,0 5,5 0,0 z"
     id="path3991-2"
     inkscape:connector-curvature="0" />
</marker>
<marker
   style="overflow:visible"
   id="Arrow1Mend-4-4"
   refX="0"
   refY="0"
   orient="auto"
   inkscape:stockid="Arrow1Mend">
  <path
     transform="matrix(-0.4,0,0,-0.4,-4,0)"
     style="fill-rule:evenodd;stroke:#000000;stroke-width:1pt;marker-start:none"
     d="M 0,0 5,-5 -12.5,0 5,5 0,0 z"
     id="path3991-2-8"
     inkscape:connector-curvature="0" />
</marker>






</defs>
  <metadata
     id="metadata7">
    <rdf:RDF>
      <cc:Work
         rdf:about="">
        <dc:format>image/svg+xml</dc:format>
        <dc:type
           rdf:resource="http://purl.org/dc/dcmitype/StillImage" />
        <dc:title></dc:title>
      </cc:Work>
    </rdf:RDF>
  </metadata>
  <g
     style="display:none"
     inkscape:label="Надписи"
     id="layer5"
     inkscape:groupmode="layer"
     transform="translate(-44.384598,-84.115017)" />
  <g
     style="display:none"
     inkscape:label="Слой3"
     id="layer4"
     inkscape:groupmode="layer"
     transform="translate(-44.384598,-84.115017)" />
  <g
     style="display:none"
     transform="translate(-44.384598,-888.44448)"
     inkscape:groupmode="layer"
     id="layer2"
     inkscape:label="Слой2">
    <text
       xml:space="preserve"
       style="font-size:12px;font-style:normal;font-variant:normal;font-weight:normal;font-stretch:normal;line-height:125%;letter-spacing:0px;word-spacing:0px;fill:#000000;fill-opacity:1;stroke:none;font-family:cmmi12;-inkscape-font-specification:cmmi12"
       x="114.07245"
       y="849.18628"
       id="text3997"
       sodipodi:linespacing="125%"><tspan
         sodipodi:role="line"
         id="tspan3999"
         x="114.07245"
         y="849.18628" /></text>
    <text
       xml:space="preserve"
       style="font-size:12px;font-style:normal;font-variant:normal;font-weight:normal;font-stretch:normal;line-height:125%;letter-spacing:0px;word-spacing:0px;fill:#000000;fill-opacity:1;stroke:none;font-family:cmmi12;-inkscape-font-specification:cmmi12"
       x="257.33582"
       y="739.52142"
       id="text4001"
       sodipodi:linespacing="125%"><tspan
         sodipodi:role="line"
         id="tspan4003"
         x="257.33582"
         y="739.52142">  </tspan></text>
    <text
       xml:space="preserve"
       style="font-size:12px;font-style:normal;font-variant:normal;font-weight:normal;font-stretch:normal;line-height:125%;letter-spacing:0px;word-spacing:0px;fill:#000000;fill-opacity:1;stroke:none;font-family:cmmi12;-inkscape-font-specification:cmmi12"
       x="125.36874"
       y="837.7204"
       id="text4009"
       sodipodi:linespacing="125%"><tspan
         sodipodi:role="line"
         id="tspan4011"
         x="125.36874"
         y="837.7204" /></text>
  </g>
  <g
     style="display:inline"
     inkscape:groupmode="layer"
     id="layer3"
     inkscape:label="Слой1"
     transform="translate(-44.384598,-84.115017)">
    <g
       id="g3521"
       inkscape:label="ink_ext_XXXXXX"
       transform="matrix(1.25,0,0,-1.25,0,1052.5)">
      <g
         id="g3523"
         transform="scale(0.1,0.1)" />
    </g>
    <g
       id="g3535"
       inkscape:label="ink_ext_XXXXXX"
       transform="matrix(1.25,0,0,-1.25,0,1052.5)">
      <g
         id="g3537"
         transform="scale(0.1,0.1)" />
    </g>
    <text
       sodipodi:linespacing="125%"
       id="text6249"
       y="224.03149"
       x="104"
       style="font-size:14.93999958px;font-style:normal;font-variant:normal;font-weight:normal;font-stretch:normal;line-height:125%;letter-spacing:0px;word-spacing:0px;fill:#000000;fill-opacity:1;stroke:none;font-family:cmmi12;-inkscape-font-specification:cmmi12"
       xml:space="preserve"><tspan
         y="224.03149"
         x="104"
         id="tspan6251"
         sodipodi:role="line" /></text>
    <path
       sodipodi:nodetypes="cc"
       inkscape:connector-curvature="0"
       id="path3030"
       d="M 62.518171,174.67597 C 148.24066,153.8018 180.86269,162.56088 223.91714,163.81464"
       style="fill:none;stroke:#000000;stroke-width:0.99212599;stroke-linecap:butt;stroke-linejoin:miter;stroke-miterlimit:4;stroke-opacity:1;stroke-dasharray:none" />
    <path
       inkscape:connector-curvature="0"
       id="path3032"
       d="m 141.21838,165.05917 0,0"
       style="fill:none;stroke:#000000;stroke-width:0.99212599;stroke-linecap:butt;stroke-linejoin:miter;stroke-miterlimit:4;stroke-opacity:1;stroke-dasharray:none" />
    <path
       sodipodi:nodetypes="cc"
       inkscape:connector-curvature="0"
       id="path3034"
       d="m 263.46101,98.165995 c -22.17168,19.322375 -38.2517,29.557505 -38.2517,66.893175"
       style="fill:none;stroke:#000000;stroke-width:0.99212599;stroke-linecap:butt;stroke-linejoin:miter;stroke-miterlimit:4;stroke-opacity:1;stroke-dasharray:none" />
    <path
       sodipodi:nodetypes="ccc"
       inkscape:connector-curvature="0"
       id="path3036"
       d="m 62.396126,175.01535 c 6.839658,-25.18368 8.131435,-44.61158 31.012033,-72.1823 C 160.82019,74.402553 230.61244,84.492579 263.35155,97.826615"
       style="fill:none;stroke:#000000;stroke-width:0.99212599;stroke-linecap:butt;stroke-linejoin:miter;stroke-miterlimit:4;stroke-opacity:1;stroke-dasharray:none" />
    <path
       sodipodi:nodetypes="cc"
       inkscape:connector-curvature="0"
       id="path3044"
       d="M 44.880661,130.86841 C 154.61652,80.805018 227.52287,99.928687 264.11934,179.04359"
       style="fill:none;stroke:#000000;stroke-width:0.99212599;stroke-linecap:butt;stroke-linejoin:miter;stroke-miterlimit:4;stroke-opacity:1;stroke-dasharray:none" />
    <path
       sodipodi:nodetypes="cc"
       inkscape:connector-curvature="0"
       id="path3048"
       d="M 69,147.00295 C 151.12461,95.473178 224.69602,101.96102 240.92157,118.60111"
       style="fill:none;stroke:#000000;stroke-width:0.70866144;stroke-linecap:butt;stroke-linejoin:miter;stroke-miterlimit:4;stroke-opacity:1;stroke-dasharray:none" />
    <path
       sodipodi:nodetypes="cc"
       inkscape:connector-curvature="0"
       id="path3937"
       d="m 165.81654,103.8701 0,4.67202"
       style="fill:none;stroke:#000000;stroke-width:0.70866144;stroke-linecap:butt;stroke-linejoin:miter;stroke-miterlimit:4;stroke-opacity:1;stroke-dasharray:none" />
    <path
       sodipodi:nodetypes="cc"
       inkscape:connector-curvature="0"
       id="path3937-1"
       d="m 160.15969,103.42815 0.25,6.18979"
       style="fill:none;stroke:#000000;stroke-width:0.70866144;stroke-linecap:butt;stroke-linejoin:miter;stroke-miterlimit:4;stroke-opacity:1;stroke-dasharray:none;display:inline" />
    <path
       sodipodi:nodetypes="cc"
       inkscape:connector-curvature="0"
       id="path3937-7"
       d="m 155.20994,103.0746 0,7.76561"
       style="fill:none;stroke:#000000;stroke-width:0.70866144;stroke-linecap:butt;stroke-linejoin:miter;stroke-miterlimit:4;stroke-opacity:1;stroke-dasharray:none;display:inline" />
    <path
       sodipodi:nodetypes="cc"
       inkscape:connector-curvature="0"
       id="path3937-4"
       d="m 149.99503,103.33977 -0.0884,9.63433"
       style="fill:none;stroke:#000000;stroke-width:0.70866144;stroke-linecap:butt;stroke-linejoin:miter;stroke-miterlimit:4;stroke-opacity:1;stroke-dasharray:none;display:inline" />
    <path
       sodipodi:nodetypes="cc"
       inkscape:connector-curvature="0"
       id="path3937-0"
       d="m 145.04528,103.42815 -0.0884,10.78338"
       style="fill:none;stroke:#000000;stroke-width:0.70866144;stroke-linecap:butt;stroke-linejoin:miter;stroke-miterlimit:4;stroke-opacity:1;stroke-dasharray:none;display:inline" />
    <path
       sodipodi:nodetypes="cc"
       inkscape:connector-curvature="0"
       id="path3937-9"
       d="m 140.3607,103.69332 -0.0884,10.68243"
       style="fill:none;stroke:#000000;stroke-width:0.70866144;stroke-linecap:butt;stroke-linejoin:miter;stroke-miterlimit:4;stroke-opacity:1;stroke-dasharray:none;display:inline" />
    <path
       sodipodi:nodetypes="cc"
       inkscape:connector-curvature="0"
       id="path3937-48"
       d="m 170.76629,104.84237 0,2.94975"
       style="fill:none;stroke:#000000;stroke-width:0.70866144;stroke-linecap:butt;stroke-linejoin:miter;stroke-miterlimit:4;stroke-opacity:1;stroke-dasharray:none;display:inline" />
    <path
       sodipodi:nodetypes="cc"
       inkscape:connector-curvature="0"
       id="path3937-8"
       d="m 175.27409,105.01915 0,2.41941"
       style="fill:none;stroke:#000000;stroke-width:0.70866144;stroke-linecap:butt;stroke-linejoin:miter;stroke-miterlimit:4;stroke-opacity:1;stroke-dasharray:none;display:inline" />
    <path
       sodipodi:nodetypes="cc"
       inkscape:connector-curvature="0"
       id="path3937-2"
       d="m 180.66578,105.99142 0,0.99003"
       style="fill:none;stroke:#000000;stroke-width:0.70866144;stroke-linecap:butt;stroke-linejoin:miter;stroke-miterlimit:4;stroke-opacity:1;stroke-dasharray:none;display:inline" />
    <path
       sodipodi:nodetypes="cc"
       inkscape:connector-curvature="0"
       id="path3937-45"
       d="m 135.41095,104.04687 0.3384,11.6547"
       style="fill:none;stroke:#000000;stroke-width:0.70866144;stroke-linecap:butt;stroke-linejoin:miter;stroke-miterlimit:4;stroke-opacity:1;stroke-dasharray:none;display:inline" />
    <path
       sodipodi:nodetypes="cc"
       inkscape:connector-curvature="0"
       id="path3937-5"
       d="m 130.19604,104.6656 0,12.96535"
       style="fill:none;stroke:#000000;stroke-width:0.70866144;stroke-linecap:butt;stroke-linejoin:miter;stroke-miterlimit:4;stroke-opacity:1;stroke-dasharray:none;display:inline" />
    <path
       sodipodi:nodetypes="cc"
       inkscape:connector-curvature="0"
       id="path3937-17"
       d="m 125.06951,105.37271 0,14.76085"
       style="fill:none;stroke:#000000;stroke-width:0.70866144;stroke-linecap:butt;stroke-linejoin:miter;stroke-miterlimit:4;stroke-opacity:1;stroke-dasharray:none;display:inline" />
    <path
       sodipodi:nodetypes="cc"
       inkscape:connector-curvature="0"
       id="path3937-11"
       d="m 119.94299,106.16819 -0.0884,15.73313"
       style="fill:none;stroke:#000000;stroke-width:0.70866144;stroke-linecap:butt;stroke-linejoin:miter;stroke-miterlimit:4;stroke-opacity:1;stroke-dasharray:none;display:inline" />
    <path
       sodipodi:nodetypes="cc"
       inkscape:connector-curvature="0"
       id="path3937-52"
       d="m 115.3468,107.31725 -0.0884,16.44023"
       style="fill:none;stroke:#000000;stroke-width:0.70866144;stroke-linecap:butt;stroke-linejoin:miter;stroke-miterlimit:4;stroke-opacity:1;stroke-dasharray:none;display:inline" />
    <path
       sodipodi:nodetypes="cc"
       inkscape:connector-curvature="0"
       id="path3937-76"
       d="m 110.7506,108.02435 0,17.23573"
       style="fill:none;stroke:#000000;stroke-width:0.70866144;stroke-linecap:butt;stroke-linejoin:miter;stroke-miterlimit:4;stroke-opacity:1;stroke-dasharray:none;display:inline" />
    <path
       sodipodi:nodetypes="cc"
       inkscape:connector-curvature="0"
       id="path3937-9-1"
       d="m 104.91697,109.70373 0.0884,18.11961"
       style="fill:none;stroke:#000000;stroke-width:0.70866144;stroke-linecap:butt;stroke-linejoin:miter;stroke-miterlimit:4;stroke-opacity:1;stroke-dasharray:none;display:inline" />
    <path
       sodipodi:nodetypes="cc"
       inkscape:connector-curvature="0"
       id="path3937-45-4"
       d="m 100.05561,110.85278 0,19.09188"
       style="fill:none;stroke:#000000;stroke-width:0.70866144;stroke-linecap:butt;stroke-linejoin:miter;stroke-miterlimit:4;stroke-opacity:1;stroke-dasharray:none;display:inline" />
    <path
       sodipodi:nodetypes="cc"
       inkscape:connector-curvature="0"
       id="path3937-5-2"
       d="m 94.663926,112.09022 -0.08839,20.4177"
       style="fill:none;stroke:#000000;stroke-width:0.70866144;stroke-linecap:butt;stroke-linejoin:miter;stroke-miterlimit:4;stroke-opacity:1;stroke-dasharray:none;display:inline" />
    <path
       sodipodi:nodetypes="cc"
       inkscape:connector-curvature="0"
       id="path3937-17-3"
       d="m 89.890952,113.85799 0,21.38997"
       style="fill:none;stroke:#000000;stroke-width:0.70866144;stroke-linecap:butt;stroke-linejoin:miter;stroke-miterlimit:4;stroke-opacity:1;stroke-dasharray:none;display:inline" />
    <path
       sodipodi:nodetypes="cc"
       inkscape:connector-curvature="0"
       id="path3937-11-2"
       d="m 84.764424,115.44897 0.08839,22.36225"
       style="fill:none;stroke:#000000;stroke-width:0.70866144;stroke-linecap:butt;stroke-linejoin:miter;stroke-miterlimit:4;stroke-opacity:1;stroke-dasharray:none;display:inline" />
    <path
       sodipodi:nodetypes="cc"
       inkscape:connector-curvature="0"
       id="path3937-52-2"
       d="m 79.991457,116.86319 0,23.15774"
       style="fill:none;stroke:#000000;stroke-width:0.70866144;stroke-linecap:butt;stroke-linejoin:miter;stroke-miterlimit:4;stroke-opacity:1;stroke-dasharray:none;display:inline" />
    <path
       sodipodi:nodetypes="cc"
       inkscape:connector-curvature="0"
       id="path3937-76-1"
       d="m 75.306869,118.55297 0,24.73833"
       style="fill:none;stroke:#000000;stroke-width:0.70866144;stroke-linecap:butt;stroke-linejoin:miter;stroke-miterlimit:4;stroke-opacity:1;stroke-dasharray:none;display:inline" />
    <path
       sodipodi:nodetypes="cc"
       inkscape:connector-curvature="0"
       id="path3937-76-1-6"
       d="m 70.25,120.41233 0,25.61333"
       style="fill:none;stroke:#000000;stroke-width:0.70866144;stroke-linecap:butt;stroke-linejoin:miter;stroke-miterlimit:4;stroke-opacity:1;stroke-dasharray:none;display:inline" />
    <path
       sodipodi:nodetypes="cc"
       inkscape:connector-curvature="0"
       id="path3937-76-1-8"
       d="m 240.23953,117.92905 -0.17678,23.32412"
       style="fill:none;stroke:#000000;stroke-width:0.70866144;stroke-linecap:butt;stroke-linejoin:miter;stroke-miterlimit:4;stroke-opacity:1;stroke-dasharray:none;display:inline" />
    <path
       sodipodi:nodetypes="cc"
       inkscape:connector-curvature="0"
       id="path3937-76-1-5"
       d="m 235.113,126.06078 0,10.41942"
       style="fill:none;stroke:#000000;stroke-width:0.70866144;stroke-linecap:butt;stroke-linejoin:miter;stroke-miterlimit:4;stroke-opacity:1;stroke-dasharray:none;display:inline" />
    <path
       style="fill:#ffffff;stroke:#000000;stroke-width:0.70866144;stroke-miterlimit:4;stroke-opacity:1;stroke-dasharray:none;display:inline;enable-background:new"
       d="m 187.85433,107.17362 c 0,1.38073 -1.11929,2.50001 -2.5,2.50001 -1.38071,0 -2.5,-1.11928 -2.5,-2.50001 0,-1.38071 1.11929,-2.5 2.5,-2.5 1.38071,0 2.5,1.11929 2.5,2.5 z"
       id="path3031-52-7"
       inkscape:connector-curvature="0" />
    <path
       style="fill:#ffffff;stroke:none;display:inline;enable-background:new"
       d="m 197.66147,110.85277 c 0,1.38073 -1.11929,2.50001 -2.5,2.50001 -1.38071,0 -2.5,-1.11928 -2.5,-2.50001 0,-1.38071 1.11929,-2.5 2.5,-2.5 1.38071,0 2.5,1.11929 2.5,2.5 z"
       id="path3031-52-7-7"
       inkscape:connector-curvature="0" />
    <path
       style="fill:#ffffff;stroke:none;display:inline;enable-background:new"
       d="m 209.5,115.53149 c 0,1.38073 -1.11929,2.50001 -2.5,2.50001 -1.38071,0 -2.5,-1.11928 -2.5,-2.50001 0,-1.38071 1.11929,-2.5 2.5,-2.5 1.38071,0 2.5,1.11929 2.5,2.5 z"
       id="path3031-52-7-7-6"
       inkscape:connector-curvature="0" />
    <path
       style="fill:#ffffff;stroke:none;display:inline;enable-background:new"
       d="m 218.5,121.03149 c 0,1.38073 -1.11929,2.50001 -2.5,2.50001 -1.38071,0 -2.5,-1.11928 -2.5,-2.50001 0,-1.38071 1.11929,-2.5 2.5,-2.5 1.38071,0 2.5,1.11929 2.5,2.5 z"
       id="path3031-52-7-7-1"
       inkscape:connector-curvature="0" />
    <path
       style="fill:#ffffff;stroke:none;display:inline;enable-background:new"
       d="m 228,127.03149 c 0,1.38073 -1.11929,2.50001 -2.5,2.50001 -1.38071,0 -2.5,-1.11928 -2.5,-2.50001 0,-1.38071 1.11929,-2.5 2.5,-2.5 1.38071,0 2.5,1.11929 2.5,2.5 z"
       id="path3031-52-7-7-8"
       inkscape:connector-curvature="0" />
    <path
       style="font-style:normal;font-variant:normal;font-weight:normal;font-stretch:normal;letter-spacing:normal;word-spacing:normal;text-anchor:start;fill:#000000;stroke:#000000;stroke-width:0;stroke-linecap:butt;stroke-linejoin:miter;stroke-miterlimit:10.43299961;stroke-opacity:1;stroke-dasharray:none;stroke-dashoffset:0"
       inkscape:connector-curvature="0"
       d="m 67.192,109.708 0.012,-0.036 0.012,-0.036 0.012,-0.036 0,-0.036 0.012,-0.036 0.012,-0.024 0.012,-0.036 0.012,-0.024 0.012,-0.024 0.012,-0.024 0.012,-0.024 0.024,-0.024 0.012,-0.024 0.024,-0.012 0.012,-0.024 0.024,-0.012 0.036,-0.012 0.024,-0.012 0.036,-0.012 0.024,-0.012 0.036,-0.012 0.024,-0.012 0.024,0 0.024,0 0.012,-0.012 0.024,0 0.024,0 0.024,-0.012 0.036,0 0.024,0 0.024,0 0.024,0 0.036,-0.012 0.036,0 0.024,0 0.036,0 0.036,0 0.036,0 0.036,0 0.036,0 0.036,0 0.048,0 0.036,0 c 0.276,0 0.384,0 0.384,-0.24 0,-0.132 -0.12,-0.132 -0.324,-0.132 H 66.7 c -0.312,0 -0.312,0 -0.456,0.228 l -4.368,6.804 -0.936,-6.756 c -0.036,-0.276 -0.06,-0.276 -0.372,-0.276 h -1.644 c -0.216,0 -0.348,0 -0.348,0.228 0,0.144 0.108,0.144 0.336,0.144 0.156,0 0.372,0.012 0.516,0.024 0.192,0.024 0.264,0.06 0.264,0.192 0,0.036 -0.012,0.084 -0.048,0.216 l -1.512,6.084 c -0.12,0.48 -0.324,0.864 -1.296,0.9 -0.06,0 -0.216,0.012 -0.216,0.228 0,0.096 0.072,0.132 0.168,0.132 0.384,0 0.804,-0.036 1.2,-0.036 0.408,0 0.828,0.036 1.224,0.036 0.06,0 0.216,0 0.216,-0.228 0,-0.132 -0.132,-0.132 -0.216,-0.132 -0.672,-0.012 -0.804,-0.252 -0.804,-0.528 0,-0.084 0.012,-0.144 0.048,-0.276 l 1.62,-6.504 h 0.012 l 1.032,7.404 c 0.024,0.144 0.036,0.264 0.18,0.264 0.132,0 0.204,-0.12 0.264,-0.204 l 4.824,-7.56 h 0.024 l -1.716,6.84 c -0.12,0.468 -0.144,0.564 -1.092,0.564 -0.204,0 -0.336,0 -0.336,0.228 0,0.132 0.144,0.132 0.18,0.132 0.336,0 1.152,-0.036 1.488,-0.036 0.492,0 1.008,0.036 1.488,0.036 0.084,0 0.228,0 0.228,-0.228 0,-0.132 -0.108,-0.132 -0.336,-0.132 -0.432,0 -0.768,0 -0.768,-0.216 0,-0.048 0,-0.072 0.06,-0.288 z"
       id="path4277" />
    <g
       id="g4389"
       transform="translate(4.75,105.5)">
      <path
         id="path4279"
         d="m 55.132,41.56 0.012,-0.036 0,-0.048 0.012,-0.036 0.012,-0.024 0.012,-0.036 0.012,-0.036 0,-0.024 0.012,-0.024 0.012,-0.036 0.012,-0.024 0.024,-0.024 0.012,-0.012 0.012,-0.024 0.024,-0.024 0.024,-0.012 0.024,-0.012 0.024,-0.024 0.024,-0.012 0.036,-0.012 0.036,-0.012 0.036,-0.012 0.012,0 0.024,-0.012 0.024,0 0.024,0 0.024,-0.012 0.024,0 0.024,0 0.024,0 0.024,-0.012 0.024,0 0.036,0 0.024,0 0.036,0 0.036,0 0.024,-0.012 0.036,0 0.036,0 0.036,0 0.036,0 0.048,0 0.036,0 0.036,0 c 0.276,0 0.384,0 0.384,-0.24 0,-0.132 -0.12,-0.132 -0.324,-0.132 H 54.64 c -0.312,0 -0.324,0 -0.468,0.228 l -4.368,6.816 -0.936,-6.768 c -0.036,-0.276 -0.06,-0.276 -0.372,-0.276 h -1.632 c -0.228,0 -0.36,0 -0.36,0.228 0,0.144 0.108,0.144 0.348,0.144 0.156,0 0.372,0.012 0.516,0.024 0.192,0.024 0.264,0.06 0.264,0.192 0,0.048 -0.012,0.084 -0.048,0.228 l -1.524,6.084 c -0.12,0.468 -0.324,0.852 -1.296,0.888 -0.06,0 -0.216,0.012 -0.216,0.228 0,0.108 0.072,0.144 0.168,0.144 0.384,0 0.804,-0.036 1.2,-0.036 0.408,0 0.84,0.036 1.236,0.036 0.06,0 0.216,0 0.216,-0.24 0,-0.132 -0.132,-0.132 -0.216,-0.132 -0.684,-0.012 -0.816,-0.252 -0.816,-0.528 0,-0.084 0.012,-0.144 0.048,-0.276 l 1.632,-6.504 h 0.012 l 1.02,7.404 c 0.024,0.144 0.036,0.276 0.18,0.276 0.132,0 0.204,-0.132 0.264,-0.216 l 4.836,-7.56 h 0.012 l -1.716,6.84 c -0.12,0.468 -0.144,0.564 -1.08,0.564 -0.204,0 -0.336,0 -0.336,0.228 0,0.144 0.144,0.144 0.18,0.144 0.336,0 1.14,-0.036 1.476,-0.036 0.492,0 1.008,0.036 1.5,0.036 0.072,0 0.228,0 0.228,-0.24 0,-0.132 -0.108,-0.132 -0.336,-0.132 -0.444,0 -0.78,0 -0.78,-0.216 0,-0.048 0,-0.072 0.06,-0.288 z"
         inkscape:connector-curvature="0"
         style="font-style:normal;font-variant:normal;font-weight:normal;font-stretch:normal;letter-spacing:normal;word-spacing:normal;text-anchor:start;fill:#000000;stroke:#000000;stroke-width:0;stroke-linecap:butt;stroke-linejoin:miter;stroke-miterlimit:10.43299961;stroke-opacity:1;stroke-dasharray:none;stroke-dashoffset:0" />
      <path
         id="path4281"
         d="m 59.38,40.516 0,-0.012 0.012,-0.012 0,-0.012 0.012,-0.012 0,-0.012 0,-0.012 0.012,-0.012 0,0 0,-0.012 0.012,-0.012 0,-0.012 0,-0.012 0,0 0.012,-0.012 0,-0.012 0,0 0,-0.012 0,-0.012 0,0 0,-0.012 0,0 0.012,-0.012 0,-0.012 0,0 0,-0.012 0,-0.012 0,-0.012 0,-0.012 c 0,-0.264 -0.24,-0.456 -0.492,-0.456 -0.324,0 -0.42,0.252 -0.468,0.396 L 57.4,43.804 c -0.012,0.012 -0.048,0.12 -0.048,0.132 0,0.096 0.264,0.18 0.324,0.18 0.06,0 0.072,-0.012 0.132,-0.144 z"
         inkscape:connector-curvature="0"
         style="font-style:normal;font-variant:normal;font-weight:normal;font-stretch:normal;letter-spacing:normal;word-spacing:normal;text-anchor:start;fill:#000000;stroke:#000000;stroke-width:0;stroke-linecap:butt;stroke-linejoin:miter;stroke-miterlimit:10.43299961;stroke-opacity:1;stroke-dasharray:none;stroke-dashoffset:0" />
    </g>
    <g
       id="g4393"
       transform="translate(131,60)">
      <path
         id="path4283"
         d="m 55.132,55.9 0.012,-0.036 0,-0.036 0.012,-0.036 0.012,-0.036 0.012,-0.036 0.012,-0.024 0,-0.036 0.012,-0.024 0.012,-0.024 0.012,-0.024 0.024,-0.024 0.012,-0.024 0.012,-0.024 0.024,-0.012 0.024,-0.024 0.024,-0.012 0.024,-0.012 0.024,-0.012 0.036,-0.012 0.036,-0.012 0.036,-0.012 0.012,-0.012 0.024,0 0.024,0 0.024,-0.012 0.024,0 0.024,0 0.024,-0.012 0.024,0 0.024,0 0.024,0 0.036,0 0.024,-0.012 0.036,0 0.036,0 0.024,0 0.036,0 0.036,0 0.036,0 0.036,0 0.048,0 0.036,0 0.036,0 c 0.276,0 0.384,0 0.384,-0.24 0,-0.132 -0.12,-0.132 -0.324,-0.132 H 54.64 c -0.312,0 -0.324,0 -0.468,0.228 l -4.368,6.804 -0.936,-6.756 c -0.036,-0.276 -0.06,-0.276 -0.372,-0.276 h -1.632 c -0.228,0 -0.36,0 -0.36,0.228 0,0.144 0.108,0.144 0.348,0.144 0.156,0 0.372,0.012 0.516,0.024 0.192,0.024 0.264,0.06 0.264,0.18 0,0.06 -0.012,0.084 -0.048,0.228 l -1.524,6.084 c -0.12,0.48 -0.324,0.864 -1.296,0.9 -0.06,0 -0.216,0.012 -0.216,0.228 0,0.108 0.072,0.132 0.168,0.132 0.384,0 0.804,-0.024 1.2,-0.024 0.408,0 0.84,0.024 1.236,0.024 0.06,0 0.216,0 0.216,-0.228 0,-0.132 -0.132,-0.132 -0.216,-0.132 -0.684,-0.012 -0.816,-0.252 -0.816,-0.528 0,-0.084 0.012,-0.144 0.048,-0.276 l 1.632,-6.504 h 0.012 l 1.02,7.404 c 0.024,0.144 0.036,0.264 0.18,0.264 0.132,0 0.204,-0.12 0.264,-0.204 l 4.836,-7.56 h 0.012 l -1.716,6.84 c -0.12,0.468 -0.144,0.564 -1.08,0.564 -0.204,0 -0.336,0 -0.336,0.228 0,0.132 0.144,0.132 0.18,0.132 0.336,0 1.14,-0.024 1.476,-0.024 0.492,0 1.008,0.024 1.5,0.024 0.072,0 0.228,0 0.228,-0.228 0,-0.132 -0.108,-0.132 -0.336,-0.132 -0.444,0 -0.78,0 -0.78,-0.216 0,-0.048 0,-0.072 0.06,-0.288 z"
         inkscape:connector-curvature="0"
         style="font-style:normal;font-variant:normal;font-weight:normal;font-stretch:normal;letter-spacing:normal;word-spacing:normal;text-anchor:start;fill:#000000;stroke:#000000;stroke-width:0;stroke-linecap:butt;stroke-linejoin:miter;stroke-miterlimit:10.43299961;stroke-opacity:1;stroke-dasharray:none;stroke-dashoffset:0" />
      <path
         id="path4285"
         d="m 59.956,62.272 0,-0.168 0,-0.168 -0.012,-0.156 0,-0.144 -0.024,-0.156 -0.012,-0.144 -0.024,-0.132 -0.024,-0.132 -0.036,-0.132 -0.036,-0.132 -0.036,-0.12 -0.048,-0.12 -0.048,-0.12 -0.06,-0.108 -0.06,-0.12 -0.036,-0.048 -0.036,-0.06 c -0.252,-0.384 -0.768,-0.72 -1.44,-0.72 v 0.24 c 0.456,0 0.888,0.276 1.032,0.756 0.132,0.456 0.144,1.056 0.144,1.776 0,0.624 0,1.236 -0.108,1.764 -0.168,0.756 -0.732,0.936 -1.068,0.936 h 0 c -0.384,0 -0.9,-0.216 -1.068,-0.9 -0.108,-0.492 -0.108,-1.176 -0.108,-1.8 0,-0.612 0,-1.248 0.12,-1.704 0.18,-0.66 0.708,-0.828 1.056,-0.828 v -0.24 c -1.944,0 -1.944,2.28 -1.944,2.88 0,0.6 0,2.832 1.944,2.832 1.932,0 1.932,-2.232 1.932,-2.832 z"
         inkscape:connector-curvature="0"
         style="font-style:normal;font-variant:normal;font-weight:normal;font-stretch:normal;letter-spacing:normal;word-spacing:normal;text-anchor:start;fill:#000000;stroke:#000000;stroke-width:0;stroke-linecap:butt;stroke-linejoin:miter;stroke-miterlimit:10.43299961;stroke-opacity:1;stroke-dasharray:none;stroke-dashoffset:0" />
    </g>
    <path
       style="fill:#ffffff;stroke:#000000;stroke-width:0.70866144;stroke-miterlimit:4;stroke-opacity:1;stroke-dasharray:none;display:inline;enable-background:new"
       d="m 72.75,145.28149 c 0,1.38073 -1.11929,2.50001 -2.5,2.50001 -1.38071,0 -2.5,-1.11928 -2.5,-2.50001 0,-1.38071 1.11929,-2.5 2.5,-2.5 1.38071,0 2.5,1.11929 2.5,2.5 z"
       id="path3031-52-7-9"
       inkscape:connector-curvature="0" />
    <path
       style="fill:#ffffff;stroke:#000000;stroke-width:0.70866144;stroke-miterlimit:4;stroke-opacity:1;stroke-dasharray:none;display:inline;enable-background:new"
       d="m 72.75,120.53149 c 0,1.38073 -1.11929,2.50001 -2.5,2.50001 -1.38071,0 -2.5,-1.11928 -2.5,-2.50001 0,-1.38071 1.11929,-2.5 2.5,-2.5 1.38071,0 2.5,1.11929 2.5,2.5 z"
       id="path3031-52-7-2"
       inkscape:connector-curvature="0" />
  </g>
</svg>
