<?xml version="1.0" encoding="UTF-8" standalone="no"?>
<!-- Created with Inkscape (http://www.inkscape.org/) -->

<svg
   xmlns:dc="http://purl.org/dc/elements/1.1/"
   xmlns:cc="http://creativecommons.org/ns#"
   xmlns:rdf="http://www.w3.org/1999/02/22-rdf-syntax-ns#"
   xmlns:svg="http://www.w3.org/2000/svg"
   xmlns="http://www.w3.org/2000/svg"
   xmlns:sodipodi="http://sodipodi.sourceforge.net/DTD/sodipodi-0.dtd"
   xmlns:inkscape="http://www.inkscape.org/namespaces/inkscape"
   width="205.51601"
   height="129.45033"
   id="svg2"
   version="1.1"
   inkscape:version="0.48.0 r9654"
   sodipodi:docname="kasanie_krivih.pdf"
   style="enable-background:new">
  <sodipodi:namedview
     id="base"
     pagecolor="#ffffff"
     bordercolor="#666666"
     borderopacity="1.0"
     inkscape:pageopacity="0.0"
     inkscape:pageshadow="2"
     inkscape:zoom="2"
     inkscape:cx="54.278474"
     inkscape:cy="42.647065"
     inkscape:document-units="cm"
     inkscape:current-layer="layer3"
     showgrid="true"
     inkscape:window-width="800"
     inkscape:window-height="579"
     inkscape:window-x="-4"
     inkscape:window-y="-4"
     inkscape:window-maximized="1"
     units="cm"
     width="9.2cm"
     showguides="true"
     inkscape:guide-bbox="true"
     inkscape:showpageshadow="false"
     objecttolerance="4"
     gridtolerance="4"
     fit-margin-top="0"
     fit-margin-left="0"
     fit-margin-right="0"
     fit-margin-bottom="0">
    <inkscape:grid
       type="xygrid"
       id="grid3254"
       empspacing="5"
       visible="true"
       enabled="true"
       snapvisiblegridlinesonly="true" />
  </sodipodi:namedview>
  <defs
     id="defs4"><inkscape:perspective
   id="perspective4264"
   inkscape:persp3d-origin="162.99213 : 82.677165 : 1"
   inkscape:vp_z="325.98425 : 124.01575 : 1"
   inkscape:vp_y="0 : 1000 : 0"
   inkscape:vp_x="0 : 124.01575 : 1"
   sodipodi:type="inkscape:persp3d" />
<marker
   inkscape:stockid="Arrow1Send"
   orient="auto"
   refY="0"
   refX="0"
   id="Arrow1Send"
   style="overflow:visible">
  <path
     id="path3997"
     d="M 0,0 5,-5 -12.5,0 5,5 0,0 z"
     style="fill-rule:evenodd;stroke:#000000;stroke-width:1pt;marker-start:none"
     transform="matrix(-0.2,0,0,-0.2,-1.2,0)"
     inkscape:connector-curvature="0" />
</marker>
<marker
   inkscape:stockid="Arrow1Sstart"
   orient="auto"
   refY="0"
   refX="0"
   id="Arrow1Sstart"
   style="overflow:visible">
  <path
     id="path3994"
     d="M 0,0 5,-5 -12.5,0 5,5 0,0 z"
     style="fill-rule:evenodd;stroke:#000000;stroke-width:1pt;marker-start:none"
     transform="matrix(0.2,0,0,0.2,1.2,0)"
     inkscape:connector-curvature="0" />
</marker>
<marker
   inkscape:stockid="Arrow1Mend"
   orient="auto"
   refY="0"
   refX="0"
   id="Arrow1Mend"
   style="overflow:visible">
  <path
     id="path3991"
     d="M 0,0 5,-5 -12.5,0 5,5 0,0 z"
     style="fill-rule:evenodd;stroke:#000000;stroke-width:1pt;marker-start:none"
     transform="matrix(-0.4,0,0,-0.4,-4,0)"
     inkscape:connector-curvature="0" />
</marker>
<marker
   inkscape:stockid="Arrow1Mstart"
   orient="auto"
   refY="0"
   refX="0"
   id="Arrow1Mstart"
   style="overflow:visible">
  <path
     id="path3988"
     d="M 0,0 5,-5 -12.5,0 5,5 0,0 z"
     style="fill-rule:evenodd;stroke:#000000;stroke-width:1pt;marker-start:none"
     transform="matrix(0.4,0,0,0.4,4,0)"
     inkscape:connector-curvature="0" />
</marker>
<marker
   inkscape:stockid="Arrow2Lend"
   orient="auto"
   refY="0"
   refX="0"
   id="Arrow2Lend"
   style="overflow:visible">
  <path
     id="path4003"
     style="font-size:12px;fill-rule:evenodd;stroke-width:0.625;stroke-linejoin:round"
     d="M 8.7185878,4.0337352 -2.2072895,0.01601326 8.7185884,-4.0017078 c -1.7454984,2.3720609 -1.7354408,5.6174519 -6e-7,8.035443 z"
     transform="matrix(-1.1,0,0,-1.1,-1.1,0)"
     inkscape:connector-curvature="0" />
</marker>
<marker
   inkscape:stockid="Arrow2Lstart"
   orient="auto"
   refY="0"
   refX="0"
   id="Arrow2Lstart"
   style="overflow:visible">
  <path
     id="path4000"
     style="font-size:12px;fill-rule:evenodd;stroke-width:0.625;stroke-linejoin:round"
     d="M 8.7185878,4.0337352 -2.2072895,0.01601326 8.7185884,-4.0017078 c -1.7454984,2.3720609 -1.7354408,5.6174519 -6e-7,8.035443 z"
     transform="matrix(1.1,0,0,1.1,1.1,0)"
     inkscape:connector-curvature="0" />
</marker>
<marker
   style="overflow:visible"
   id="Arrow1Lend"
   refX="0"
   refY="0"
   orient="auto"
   inkscape:stockid="Arrow1Lend">
  <path
     transform="matrix(-0.8,0,0,-0.8,-10,0)"
     style="fill-rule:evenodd;stroke:#000000;stroke-width:1pt;marker-start:none"
     d="M 0,0 5,-5 -12.5,0 5,5 0,0 z"
     id="path4440"
     inkscape:connector-curvature="0" />
</marker>
<marker
   style="overflow:visible"
   id="Arrow1Lstart"
   refX="0"
   refY="0"
   orient="auto"
   inkscape:stockid="Arrow1Lstart">
  <path
     transform="matrix(0.8,0,0,0.8,10,0)"
     style="fill-rule:evenodd;stroke:#000000;stroke-width:1pt;marker-start:none"
     d="M 0,0 5,-5 -12.5,0 5,5 0,0 z"
     id="path4437"
     inkscape:connector-curvature="0" />
</marker>
<marker
   inkscape:stockid="Arrow2Lstart"
   orient="auto"
   refY="0"
   refX="0"
   id="Arrow2Lstart-4"
   style="overflow:visible">
  <path
     inkscape:connector-curvature="0"
     id="path4000-4"
     style="font-size:12px;fill-rule:evenodd;stroke-width:0.625;stroke-linejoin:round"
     d="M 8.7185878,4.0337352 -2.2072895,0.01601326 8.7185884,-4.0017078 c -1.7454984,2.3720609 -1.7354408,5.6174519 -6e-7,8.035443 z"
     transform="matrix(1.1,0,0,1.1,1.1,0)" />
</marker>
<marker
   inkscape:stockid="Arrow2Lend"
   orient="auto"
   refY="0"
   refX="0"
   id="Arrow2Lend-3"
   style="overflow:visible">
  <path
     inkscape:connector-curvature="0"
     id="path4003-0"
     style="font-size:12px;fill-rule:evenodd;stroke-width:0.625;stroke-linejoin:round"
     d="M 8.7185878,4.0337352 -2.2072895,0.01601326 8.7185884,-4.0017078 c -1.7454984,2.3720609 -1.7354408,5.6174519 -6e-7,8.035443 z"
     transform="matrix(-1.1,0,0,-1.1,-1.1,0)" />
</marker>
<marker
   inkscape:stockid="Arrow2Lend"
   orient="auto"
   refY="0"
   refX="0"
   id="marker7119"
   style="overflow:visible">
  <path
     inkscape:connector-curvature="0"
     id="path7121"
     style="font-size:12px;fill-rule:evenodd;stroke-width:0.625;stroke-linejoin:round"
     d="M 8.7185878,4.0337352 -2.2072895,0.01601326 8.7185884,-4.0017078 c -1.7454984,2.3720609 -1.7354408,5.6174519 -6e-7,8.035443 z"
     transform="matrix(-1.1,0,0,-1.1,-1.1,0)" />
</marker>
<marker
   inkscape:stockid="Arrow1Mstart"
   orient="auto"
   refY="0"
   refX="0"
   id="Arrow1Mstart-3"
   style="overflow:visible">
  <path
     inkscape:connector-curvature="0"
     id="path3988-7"
     d="M 0,0 5,-5 -12.5,0 5,5 0,0 z"
     style="fill-rule:evenodd;stroke:#000000;stroke-width:1pt;marker-start:none"
     transform="matrix(0.4,0,0,0.4,4,0)" />
</marker>
<marker
   inkscape:stockid="Arrow1Mend"
   orient="auto"
   refY="0"
   refX="0"
   id="Arrow1Mend-5"
   style="overflow:visible">
  <path
     inkscape:connector-curvature="0"
     id="path3991-5"
     d="M 0,0 5,-5 -12.5,0 5,5 0,0 z"
     style="fill-rule:evenodd;stroke:#000000;stroke-width:1pt;marker-start:none"
     transform="matrix(-0.4,0,0,-0.4,-4,0)" />
</marker>
<marker
   inkscape:stockid="Arrow1Mend"
   orient="auto"
   refY="0"
   refX="0"
   id="Arrow1Mend-4"
   style="overflow:visible">
  <path
     inkscape:connector-curvature="0"
     id="path3991-2"
     d="M 0,0 5,-5 -12.5,0 5,5 0,0 z"
     style="fill-rule:evenodd;stroke:#000000;stroke-width:1pt;marker-start:none"
     transform="matrix(-0.4,0,0,-0.4,-4,0)" />
</marker>
<marker
   inkscape:stockid="Arrow1Mend"
   orient="auto"
   refY="0"
   refX="0"
   id="Arrow1Mend-4-4"
   style="overflow:visible">
  <path
     inkscape:connector-curvature="0"
     id="path3991-2-8"
     d="M 0,0 5,-5 -12.5,0 5,5 0,0 z"
     style="fill-rule:evenodd;stroke:#000000;stroke-width:1pt;marker-start:none"
     transform="matrix(-0.4,0,0,-0.4,-4,0)" />
</marker>


















<marker
   inkscape:stockid="Arrow1Mend"
   orient="auto"
   refY="0"
   refX="0"
   id="Arrow1Mend-4-4-4"
   style="overflow:visible">
  <path
     inkscape:connector-curvature="0"
     id="path3991-2-8-5"
     d="M 0,0 5,-5 -12.5,0 5,5 0,0 z"
     style="fill-rule:evenodd;stroke:#000000;stroke-width:1pt;marker-start:none"
     transform="matrix(-0.4,0,0,-0.4,-4,0)" />
</marker>
</defs>
  <metadata
     id="metadata7">
    <rdf:RDF>
      <cc:Work
         rdf:about="">
        <dc:format>image/svg+xml</dc:format>
        <dc:type
           rdf:resource="http://purl.org/dc/dcmitype/StillImage" />
        <dc:title></dc:title>
      </cc:Work>
    </rdf:RDF>
  </metadata>
  <g
     inkscape:groupmode="layer"
     id="layer5"
     inkscape:label="Надписи"
     style="display:none"
     transform="translate(-39.5,-40.435494)" />
  <g
     inkscape:groupmode="layer"
     id="layer4"
     inkscape:label="Слой3"
     style="display:none"
     transform="translate(-39.5,-40.435494)" />
  <g
     inkscape:label="Слой2"
     id="layer2"
     inkscape:groupmode="layer"
     transform="translate(-39.5,-844.76495)"
     style="display:none">
    <text
       sodipodi:linespacing="125%"
       id="text3997"
       y="849.18628"
       x="114.07245"
       style="font-size:12px;font-style:normal;font-variant:normal;font-weight:normal;font-stretch:normal;line-height:125%;letter-spacing:0px;word-spacing:0px;fill:#000000;fill-opacity:1;stroke:none;font-family:cmmi12;-inkscape-font-specification:cmmi12"
       xml:space="preserve"><tspan
         y="849.18628"
         x="114.07245"
         id="tspan3999"
         sodipodi:role="line" /></text>
    <text
       sodipodi:linespacing="125%"
       id="text4001"
       y="739.52142"
       x="257.33582"
       style="font-size:12px;font-style:normal;font-variant:normal;font-weight:normal;font-stretch:normal;line-height:125%;letter-spacing:0px;word-spacing:0px;fill:#000000;fill-opacity:1;stroke:none;font-family:cmmi12;-inkscape-font-specification:cmmi12"
       xml:space="preserve"><tspan
         y="739.52142"
         x="257.33582"
         id="tspan4003"
         sodipodi:role="line">  </tspan></text>
    <text
       sodipodi:linespacing="125%"
       id="text4009"
       y="837.7204"
       x="125.36874"
       style="font-size:12px;font-style:normal;font-variant:normal;font-weight:normal;font-stretch:normal;line-height:125%;letter-spacing:0px;word-spacing:0px;fill:#000000;fill-opacity:1;stroke:none;font-family:cmmi12;-inkscape-font-specification:cmmi12"
       xml:space="preserve"><tspan
         y="837.7204"
         x="125.36874"
         id="tspan4011"
         sodipodi:role="line" /></text>
  </g>
  <g
     inkscape:label="Слой1"
     id="layer3"
     inkscape:groupmode="layer"
     style="display:inline"
     transform="translate(-39.5,-40.435494)">
    <g
       transform="matrix(1.25,0,0,-1.25,0,1052.5)"
       inkscape:label="ink_ext_XXXXXX"
       id="g3521">
      <g
         transform="scale(0.1,0.1)"
         id="g3523" />
    </g>
    <g
       transform="matrix(1.25,0,0,-1.25,0,1052.5)"
       inkscape:label="ink_ext_XXXXXX"
       id="g3535">
      <g
         transform="scale(0.1,0.1)"
         id="g3537" />
    </g>
    <text
       xml:space="preserve"
       style="font-size:14.93999958px;font-style:normal;font-variant:normal;font-weight:normal;font-stretch:normal;line-height:125%;letter-spacing:0px;word-spacing:0px;fill:#000000;fill-opacity:1;stroke:none;font-family:cmmi12;-inkscape-font-specification:cmmi12"
       x="104"
       y="224.03149"
       id="text6249"
       sodipodi:linespacing="125%"><tspan
         sodipodi:role="line"
         id="tspan6251"
         x="104"
         y="224.03149" /></text>
    <g
       id="g3031">
      <path
         style="fill:none;stroke:#000000;stroke-width:1px;stroke-linecap:butt;stroke-linejoin:miter;stroke-opacity:1"
         d="M 40,98.031494 C 92.002262,74.529847 154.71672,87.449674 225.56706,128.03149"
         id="path3027"
         inkscape:connector-curvature="0"
         sodipodi:nodetypes="cc" />
      <path
         style="fill:none;stroke:#000000;stroke-width:1px;stroke-linecap:butt;stroke-linejoin:miter;stroke-opacity:1"
         d="M 70,128.03149 C 90.91935,68.246585 170.96442,65.422812 239.70562,64.097508"
         id="path3029"
         inkscape:connector-curvature="0"
         sodipodi:nodetypes="cc" />
    </g>
    <path
       inkscape:connector-curvature="0"
       id="path3031-52-7-0"
       d="m 176.68718,103.03149 c 0,1.38073 -1.11929,2.50001 -2.5,2.50001 -1.38071,0 -2.5,-1.11928 -2.5,-2.50001 0,-1.38071 1.11929,-2.5 2.5,-2.5 1.38071,0 2.5,1.11929 2.5,2.5 z"
       style="fill:#ffffff;stroke:#000000;stroke-width:0.70866144;stroke-miterlimit:4;stroke-opacity:1;stroke-dasharray:none;display:inline;enable-background:new" />
    <path
       inkscape:connector-curvature="0"
       id="path3031-52-7-9"
       d="m 160,69.647609 c 0,1.38073 -1.11929,2.50001 -2.5,2.50001 -1.38071,0 -2.5,-1.11928 -2.5,-2.50001 0,-1.38071 1.11929,-2.499999 2.5,-2.499999 1.38071,0 2.5,1.119289 2.5,2.499999 z"
       style="fill:#ffffff;stroke:#000000;stroke-width:0.70866144;stroke-miterlimit:4;stroke-opacity:1;stroke-dasharray:none;display:inline;enable-background:new" />
    <path
       sodipodi:nodetypes="cc"
       inkscape:connector-curvature="0"
       id="path3230"
       d="M 65,109.79926 160,53.031494"
       style="fill:none;stroke:#000000;stroke-width:0.63779527;stroke-linecap:butt;stroke-linejoin:miter;stroke-miterlimit:4;stroke-opacity:1;stroke-dasharray:none;marker-end:url(#Arrow1Mend-4)" />
    <path
       sodipodi:nodetypes="cc"
       inkscape:connector-curvature="0"
       id="path3230-8"
       d="m 65,83.915378 132.17157,7.701903"
       style="fill:none;stroke:#000000;stroke-width:0.63779527;stroke-linecap:butt;stroke-linejoin:miter;stroke-miterlimit:4;stroke-opacity:1;stroke-dasharray:none;marker-end:url(#Arrow1Mend-4);display:inline" />
    <path
       inkscape:connector-curvature="0"
       id="path3031-52-7-4"
       d="m 107.5,86.750057 c 0,1.38073 -1.11929,2.50001 -2.5,2.50001 -1.38071,0 -2.5,-1.11928 -2.5,-2.50001 0,-1.38071 1.11929,-2.5 2.5,-2.5 1.38071,0 2.5,1.11929 2.5,2.5 z"
       style="fill:#ffffff;stroke:#000000;stroke-width:0.70866144;stroke-miterlimit:4;stroke-opacity:1;stroke-dasharray:none;display:inline;enable-background:new" />
    <path
       sodipodi:nodetypes="cc"
       inkscape:connector-curvature="0"
       id="path4316"
       d="m 100,168.03149 71.47339,-62.12845"
       style="fill:none;stroke:#000000;stroke-width:0.63779527;stroke-linecap:butt;stroke-linejoin:miter;stroke-miterlimit:4;stroke-opacity:1;stroke-dasharray:none;marker-end:url(#Arrow1Mend-4-4)" />
    <path
       sodipodi:nodetypes="cc"
       inkscape:connector-curvature="0"
       id="path4320"
       d="M 100,168.03149 155,73.031494"
       style="fill:none;stroke:#000000;stroke-width:0.63779527;stroke-linecap:butt;stroke-linejoin:miter;stroke-miterlimit:4;stroke-opacity:1;stroke-dasharray:none;marker-end:url(#Arrow1Mend-4-4)" />
    <path
       style="font-style:normal;font-variant:normal;font-weight:normal;font-stretch:normal;letter-spacing:normal;word-spacing:normal;text-anchor:start;fill:#000000;stroke:#000000;stroke-width:0;stroke-linecap:butt;stroke-linejoin:miter;stroke-miterlimit:10.43299961;stroke-opacity:1;stroke-dasharray:none;stroke-dashoffset:0"
       inkscape:connector-curvature="0"
       d="m 95.568,161.4915 0,-0.18 -0.012,-0.18 -0.024,-0.168 -0.024,-0.168 -0.036,-0.156 -0.036,-0.168 -0.048,-0.144 -0.048,-0.156 -0.06,-0.144 -0.06,-0.144 -0.072,-0.132 -0.072,-0.132 -0.084,-0.12 -0.096,-0.12 -0.084,-0.108 -0.108,-0.108 -0.096,-0.108 -0.108,-0.096 -0.12,-0.096 -0.12,-0.084 -0.12,-0.072 -0.132,-0.072 -0.132,-0.072 -0.132,-0.06 -0.144,-0.048 -0.144,-0.048 -0.144,-0.036 -0.156,-0.036 -0.156,-0.024 -0.156,-0.024 -0.168,-0.012 -0.156,0 -0.072,0.3 c 0.972,0 2.052,0.66 2.052,2.448 0,0.852 -0.324,2.724 -1.512,4.188 -0.564,0.732 -1.548,1.44 -2.556,1.44 h 0 c -1.188,0 -2.016,-0.972 -2.016,-2.544 0,-0.528 0.168,-2.28 1.092,-3.672 0.816,-1.248 1.992,-1.86 2.94,-1.86 l 0.072,-0.3 c -2.592,0 -5.22,2.712 -5.22,5.496 0,1.98 1.344,3.18 3.06,3.18 2.544,0 5.208,-2.616 5.208,-5.46 z"
       id="path5036" />
    <g
       id="g5168"
       transform="translate(144.08,8.8120041)">
      <path
         id="path5038"
         d="m -41.572,62.91949 0.012,-0.036 0,-0.048 0.012,-0.036 0.012,-0.024 0.012,-0.036 0.012,-0.036 0,-0.024 0.012,-0.024 0.012,-0.036 0.012,-0.024 0.024,-0.024 0.012,-0.012 0.012,-0.024 0.024,-0.024 0.024,-0.012 0.024,-0.012 0.024,-0.024 0.024,-0.012 0.036,-0.012 0.036,-0.012 0.036,-0.012 0.012,0 0.024,-0.012 0.024,0 0.024,0 0.024,-0.012 0.024,0 0.024,0 0.024,0 0.024,-0.012 0.024,0 0.036,0 0.024,0 0.036,0 0.036,0 0.024,-0.012 0.036,0 0.036,0 0.036,0 0.036,0 0.048,0 0.036,0 0.036,0 c 0.276,0 0.384,0 0.384,-0.24 0,-0.132 -0.12,-0.132 -0.324,-0.132 h -1.572 c -0.312,0 -0.324,0 -0.468,0.228 l -4.368,6.816 -0.936,-6.768 c -0.036,-0.276 -0.06,-0.276 -0.372,-0.276 h -1.632 c -0.228,0 -0.36,0 -0.36,0.228 0,0.144 0.108,0.144 0.348,0.144 0.156,0 0.372,0.012 0.516,0.024 0.192,0.024 0.264,0.06 0.264,0.192 0,0.048 -0.012,0.084 -0.048,0.228 l -1.524,6.084 c -0.12,0.468 -0.324,0.852 -1.296,0.888 -0.06,0 -0.216,0.012 -0.216,0.228 0,0.108 0.072,0.144 0.168,0.144 0.384,0 0.804,-0.036 1.2,-0.036 0.408,0 0.84,0.036 1.236,0.036 0.06,0 0.216,0 0.216,-0.24 0,-0.132 -0.132,-0.132 -0.216,-0.132 -0.684,-0.012 -0.816,-0.252 -0.816,-0.528 0,-0.084 0.012,-0.144 0.048,-0.276 l 1.632,-6.504 h 0.012 l 1.02,7.404 c 0.024,0.144 0.036,0.276 0.18,0.276 0.132,0 0.204,-0.132 0.264,-0.216 l 4.836,-7.56 h 0.012 l -1.716,6.84 c -0.12,0.468 -0.144,0.564 -1.08,0.564 -0.204,0 -0.336,0 -0.336,0.228 0,0.144 0.144,0.144 0.18,0.144 0.336,0 1.14,-0.036 1.476,-0.036 0.492,0 1.008,0.036 1.5,0.036 0.072,0 0.228,0 0.228,-0.24 0,-0.132 -0.108,-0.132 -0.336,-0.132 -0.444,0 -0.78,0 -0.78,-0.216 0,-0.048 0,-0.072 0.06,-0.288 z"
         inkscape:connector-curvature="0"
         style="font-style:normal;font-variant:normal;font-weight:normal;font-stretch:normal;letter-spacing:normal;word-spacing:normal;text-anchor:start;fill:#000000;stroke:#000000;stroke-width:0;stroke-linecap:butt;stroke-linejoin:miter;stroke-miterlimit:10.43299961;stroke-opacity:1;stroke-dasharray:none;stroke-dashoffset:0" />
      <path
         id="path5040"
         d="m -36.748,69.29149 0,-0.168 0,-0.168 -0.012,-0.156 0,-0.156 -0.024,-0.144 -0.012,-0.144 -0.024,-0.144 -0.024,-0.132 -0.036,-0.132 -0.036,-0.12 -0.036,-0.132 -0.048,-0.12 -0.048,-0.108 -0.06,-0.12 -0.06,-0.108 -0.036,-0.06 -0.036,-0.06 c -0.252,-0.384 -0.768,-0.708 -1.44,-0.708 v 0.228 c 0.456,0 0.888,0.276 1.032,0.756 0.132,0.456 0.144,1.056 0.144,1.788 0,0.612 0,1.224 -0.108,1.752 -0.168,0.756 -0.732,0.948 -1.068,0.948 h 0 c -0.384,0 -0.9,-0.228 -1.068,-0.912 -0.108,-0.492 -0.108,-1.176 -0.108,-1.788 0,-0.612 0,-1.248 0.12,-1.704 0.18,-0.66 0.708,-0.84 1.056,-0.84 v -0.228 c -1.944,0 -1.944,2.268 -1.944,2.88 0,0.6 0,2.82 1.944,2.82 1.932,0 1.932,-2.22 1.932,-2.82 z"
         inkscape:connector-curvature="0"
         style="font-style:normal;font-variant:normal;font-weight:normal;font-stretch:normal;letter-spacing:normal;word-spacing:normal;text-anchor:start;fill:#000000;stroke:#000000;stroke-width:0;stroke-linecap:butt;stroke-linejoin:miter;stroke-miterlimit:10.43299961;stroke-opacity:1;stroke-dasharray:none;stroke-dashoffset:0" />
    </g>
    <g
       id="g5172"
       transform="translate(224.08,34.460004)">
      <path
         id="path5042"
         d="m -41.572,77.25949 0.012,-0.036 0,-0.036 0.012,-0.036 0.012,-0.036 0.012,-0.036 0.012,-0.024 0,-0.036 0.012,-0.024 0.012,-0.024 0.012,-0.024 0.024,-0.024 0.012,-0.024 0.012,-0.024 0.024,-0.012 0.024,-0.024 0.024,-0.012 0.024,-0.012 0.024,-0.012 0.036,-0.012 0.036,-0.012 0.036,-0.012 0.012,-0.012 0.024,0 0.024,0 0.024,-0.012 0.024,0 0.024,0 0.024,-0.012 0.024,0 0.024,0 0.024,0 0.036,0 0.024,-0.012 0.036,0 0.036,0 0.024,0 0.036,0 0.036,0 0.036,0 0.036,0 0.048,0 0.036,0 0.036,0 c 0.276,0 0.384,0 0.384,-0.24 0,-0.132 -0.12,-0.132 -0.324,-0.132 h -1.572 c -0.312,0 -0.324,0 -0.468,0.228 l -4.368,6.804 -0.936,-6.756 c -0.036,-0.276 -0.06,-0.276 -0.372,-0.276 h -1.632 c -0.228,0 -0.36,0 -0.36,0.228 0,0.144 0.108,0.144 0.348,0.144 0.156,0 0.372,0.012 0.516,0.024 0.192,0.024 0.264,0.06 0.264,0.18 0,0.06 -0.012,0.084 -0.048,0.228 l -1.524,6.084 c -0.12,0.48 -0.324,0.864 -1.296,0.9 -0.06,0 -0.216,0.012 -0.216,0.228 0,0.108 0.072,0.132 0.168,0.132 0.384,0 0.804,-0.024 1.2,-0.024 0.408,0 0.84,0.024 1.236,0.024 0.06,0 0.216,0 0.216,-0.228 0,-0.132 -0.132,-0.132 -0.216,-0.132 -0.684,-0.012 -0.816,-0.252 -0.816,-0.528 0,-0.084 0.012,-0.144 0.048,-0.276 l 1.632,-6.504 h 0.012 l 1.02,7.404 c 0.024,0.144 0.036,0.264 0.18,0.264 0.132,0 0.204,-0.12 0.264,-0.204 l 4.836,-7.56 h 0.012 l -1.716,6.84 c -0.12,0.468 -0.144,0.564 -1.08,0.564 -0.204,0 -0.336,0 -0.336,0.228 0,0.132 0.144,0.132 0.18,0.132 0.336,0 1.14,-0.024 1.476,-0.024 0.492,0 1.008,0.024 1.5,0.024 0.072,0 0.228,0 0.228,-0.228 0,-0.132 -0.108,-0.132 -0.336,-0.132 -0.444,0 -0.78,0 -0.78,-0.216 0,-0.048 0,-0.072 0.06,-0.288 z"
         inkscape:connector-curvature="0"
         style="font-style:normal;font-variant:normal;font-weight:normal;font-stretch:normal;letter-spacing:normal;word-spacing:normal;text-anchor:start;fill:#000000;stroke:#000000;stroke-width:0;stroke-linecap:butt;stroke-linejoin:miter;stroke-miterlimit:10.43299961;stroke-opacity:1;stroke-dasharray:none;stroke-dashoffset:0" />
      <path
         id="path5044"
         d="m -38.26,80.99149 0,-0.012 0,-0.012 0,-0.012 0,-0.012 0,0 0,-0.012 0,-0.012 0,0 0,-0.012 0,-0.012 0,0 0,-0.012 0,-0.012 0,0 0,-0.012 0,0 0,-0.012 0,0 -0.012,-0.012 0,-0.012 0,-0.012 0,0 -0.012,-0.012 0,0 -0.012,-0.012 0,0 -0.012,-0.012 -0.012,0 0,0 -0.012,-0.012 -0.012,0 -0.012,0 0,0 -0.012,0 -0.012,0 0,0 -0.012,0 0,-0.012 -0.012,0 -0.012,0 0,0 -0.012,0 -0.012,0 0,0 -0.012,0 -0.012,0 -0.012,0 -0.012,0 -0.012,0 -0.012,0 c -0.528,0.528 -1.284,0.54 -1.632,0.54 v 0.3 c 0.204,0 0.756,0 1.212,-0.24 v 4.26 c 0,0.276 0,0.384 -0.84,0.384 h -0.312 v 0.3 c 0.144,-0.012 1.176,-0.036 1.488,-0.036 0.252,0 1.308,0.024 1.5,0.036 v -0.3 h -0.324 c -0.84,0 -0.84,-0.108 -0.84,-0.384 z"
         inkscape:connector-curvature="0"
         style="font-style:normal;font-variant:normal;font-weight:normal;font-stretch:normal;letter-spacing:normal;word-spacing:normal;text-anchor:start;fill:#000000;stroke:#000000;stroke-width:0;stroke-linecap:butt;stroke-linejoin:miter;stroke-miterlimit:10.43299961;stroke-opacity:1;stroke-dasharray:none;stroke-dashoffset:0" />
    </g>
    <g
       id="g5176"
       transform="translate(212.648,-18.691996)">
      <path
         id="path5046"
         d="m -41.572,91.61149 0.012,-0.036 0,-0.048 0.012,-0.036 0.012,-0.024 0.012,-0.036 0.012,-0.036 0,-0.024 0.012,-0.024 0.012,-0.036 0.012,-0.024 0.024,-0.024 0.012,-0.012 0.012,-0.024 0.024,-0.024 0.024,-0.012 0.024,-0.012 0.024,-0.024 0.024,-0.012 0.036,-0.012 0.036,-0.012 0.036,-0.012 0.012,0 0.024,0 0.024,-0.012 0.024,0 0.024,0 0.024,-0.012 0.024,0 0.024,0 0.024,-0.012 0.024,0 0.036,0 0.024,0 0.036,0 0.036,0 0.024,-0.012 0.036,0 0.036,0 0.036,0 0.036,0 0.048,0 0.036,0 0.036,0 c 0.276,0 0.384,0 0.384,-0.24 0,-0.132 -0.12,-0.132 -0.324,-0.132 h -1.572 c -0.312,0 -0.324,0 -0.468,0.228 l -4.368,6.804 -0.936,-6.756 c -0.036,-0.276 -0.06,-0.276 -0.372,-0.276 h -1.632 c -0.228,0 -0.36,0 -0.36,0.228 0,0.144 0.108,0.144 0.348,0.144 0.156,0 0.372,0.012 0.516,0.024 0.192,0.024 0.264,0.06 0.264,0.192 0,0.048 -0.012,0.084 -0.048,0.228 l -1.524,6.072 c -0.12,0.48 -0.324,0.864 -1.296,0.9 -0.06,0 -0.216,0.012 -0.216,0.228 0,0.108 0.072,0.144 0.168,0.144 0.384,0 0.804,-0.036 1.2,-0.036 0.408,0 0.84,0.036 1.236,0.036 0.06,0 0.216,0 0.216,-0.24 0,-0.132 -0.132,-0.132 -0.216,-0.132 -0.684,-0.012 -0.816,-0.252 -0.816,-0.528 0,-0.084 0.012,-0.144 0.048,-0.264 l 1.632,-6.516 h 0.012 l 1.02,7.404 c 0.024,0.144 0.036,0.276 0.18,0.276 0.132,0 0.204,-0.132 0.264,-0.216 l 4.836,-7.56 h 0.012 l -1.716,6.84 c -0.12,0.468 -0.144,0.564 -1.08,0.564 -0.204,0 -0.336,0 -0.336,0.228 0,0.144 0.144,0.144 0.18,0.144 0.336,0 1.14,-0.036 1.476,-0.036 0.492,0 1.008,0.036 1.5,0.036 0.072,0 0.228,0 0.228,-0.24 0,-0.132 -0.108,-0.132 -0.336,-0.132 -0.444,0 -0.78,0 -0.78,-0.216 0,-0.048 0,-0.072 0.06,-0.288 z"
         inkscape:connector-curvature="0"
         style="font-style:normal;font-variant:normal;font-weight:normal;font-stretch:normal;letter-spacing:normal;word-spacing:normal;text-anchor:start;fill:#000000;stroke:#000000;stroke-width:0;stroke-linecap:butt;stroke-linejoin:miter;stroke-miterlimit:10.43299961;stroke-opacity:1;stroke-dasharray:none;stroke-dashoffset:0" />
      <path
         id="path5048"
         d="m -36.832,99.12349 h -0.288 c -0.024,0.18 -0.108,0.672 -0.216,0.756 -0.072,0.048 -0.708,0.048 -0.828,0.048 H -39.7 c 0.876,-0.768 1.164,-1.008 1.668,-1.392 0.624,-0.492 1.2,-1.008 1.2,-1.812 0,-1.008 -0.888,-1.62 -1.956,-1.62 -1.032,0 -1.74,0.72 -1.74,1.488 0,0.432 0.36,0.468 0.444,0.468 0.204,0 0.444,-0.144 0.444,-0.444 0,-0.144 -0.06,-0.432 -0.492,-0.432 0.252,-0.6 0.828,-0.78 1.212,-0.78 0.84,0 1.272,0.648 1.272,1.32 0,0.732 -0.516,1.308 -0.78,1.608 l -2.016,1.98 c -0.084,0.084 -0.084,0.096 -0.084,0.324 h 3.444 z"
         inkscape:connector-curvature="0"
         style="font-style:normal;font-variant:normal;font-weight:normal;font-stretch:normal;letter-spacing:normal;word-spacing:normal;text-anchor:start;fill:#000000;stroke:#000000;stroke-width:0;stroke-linecap:butt;stroke-linejoin:miter;stroke-miterlimit:10.43299961;stroke-opacity:1;stroke-dasharray:none;stroke-dashoffset:0" />
    </g>
    <g
       id="g5180"
       transform="translate(268.192,28.048004)">
      <path
         id="path5050"
         d="m -43.564,104.89549 0,0 0,-0.012 0,0 0,0 0,-0.012 0,0 0,-0.012 0,0 0,0 -0.012,-0.012 0,0 0,-0.012 0,0 0,0 -0.012,-0.012 0,0 0,-0.012 -0.012,0 0,0 0,-0.012 -0.012,0 0,0 -0.012,-0.012 0,0 -0.012,0 0,0 0,0 -0.012,0 0,-0.012 0,0 -0.012,0 0,0 0,0 -0.012,0 0,0 -0.012,0 0,0 0,0 -0.012,0 c -0.036,0 -0.048,0.012 -0.18,0.144 l -0.84,0.924 c -0.108,-0.168 -0.648,-1.068 -1.98,-1.068 -2.664,0 -5.364,2.64 -5.364,5.412 0,1.968 1.416,3.264 3.252,3.264 1.032,0 1.944,-0.468 2.58,-1.02 1.116,-0.984 1.32,-2.064 1.32,-2.1 0,-0.12 -0.12,-0.12 -0.144,-0.12 -0.072,0 -0.132,0.024 -0.156,0.12 -0.108,0.348 -0.384,1.188 -1.212,1.884 -0.828,0.672 -1.584,0.876 -2.196,0.876 -1.08,0 -2.352,-0.624 -2.352,-2.484 0,-0.684 0.252,-2.616 1.452,-4.02 0.732,-0.84 1.848,-1.44 2.916,-1.44 1.224,0 1.92,0.912 1.92,2.304 0,0.48 -0.036,0.492 -0.036,0.612 0,0.12 0.132,0.12 0.192,0.12 0.144,0 0.144,-0.024 0.204,-0.24 z"
         inkscape:connector-curvature="0"
         style="font-style:normal;font-variant:normal;font-weight:normal;font-stretch:normal;letter-spacing:normal;word-spacing:normal;text-anchor:start;fill:#000000;stroke:#000000;stroke-width:0;stroke-linecap:butt;stroke-linejoin:miter;stroke-miterlimit:10.43299961;stroke-opacity:1;stroke-dasharray:none;stroke-dashoffset:0" />
      <path
         id="path5052"
         d="m -41.308,109.68349 0,-0.012 0,-0.012 0,-0.012 0,-0.012 0,0 0,-0.012 0,-0.012 0,0 0,-0.012 0,-0.012 0,0 0,-0.012 0,-0.012 0,0 0,-0.012 -0.012,0 0,-0.012 0,0 0,-0.012 0,-0.012 0,-0.012 -0.012,0 0,-0.012 -0.012,0 0,-0.012 -0.012,0 0,-0.012 -0.012,0 -0.012,0 -0.012,-0.012 0,0 -0.012,0 -0.012,0 0,0 -0.012,0 -0.012,0 0,0 -0.012,-0.012 0,0 -0.012,0 -0.012,0 0,0 -0.012,0 -0.012,0 -0.012,0 0,0 -0.012,0 -0.012,0 -0.012,0 -0.012,0 c -0.528,0.528 -1.296,0.54 -1.632,0.54 v 0.3 c 0.192,0 0.744,0 1.212,-0.24 v 4.26 c 0,0.276 0,0.384 -0.84,0.384 h -0.324 v 0.3 c 0.156,-0.012 1.188,-0.036 1.488,-0.036 0.264,0 1.32,0.024 1.5,0.036 v -0.3 h -0.312 c -0.84,0 -0.84,-0.108 -0.84,-0.384 z"
         inkscape:connector-curvature="0"
         style="font-style:normal;font-variant:normal;font-weight:normal;font-stretch:normal;letter-spacing:normal;word-spacing:normal;text-anchor:start;fill:#000000;stroke:#000000;stroke-width:0;stroke-linecap:butt;stroke-linejoin:miter;stroke-miterlimit:10.43299961;stroke-opacity:1;stroke-dasharray:none;stroke-dashoffset:0" />
    </g>
    <g
       id="g5184"
       transform="translate(284.908,-51.639996)">
      <path
         id="path5054"
         d="m -43.564,119.23549 0,0 0,0 0,-0.012 0,0 0,0 0,-0.012 0,0 0,0 0,-0.012 -0.012,0 0,-0.012 0,0 0,0 0,-0.012 -0.012,0 0,-0.012 0,0 -0.012,0 0,-0.012 0,0 -0.012,0 0,-0.012 -0.012,0 0,0 -0.012,-0.012 0,0 0,0 -0.012,0 0,0 0,0 -0.012,0 0,0 0,0 -0.012,0 0,0 -0.012,0 0,0 0,0 -0.012,0 c -0.036,0 -0.048,0.012 -0.18,0.132 l -0.84,0.924 c -0.108,-0.168 -0.648,-1.056 -1.98,-1.056 -2.664,0 -5.364,2.628 -5.364,5.4 0,1.968 1.416,3.276 3.252,3.276 1.032,0 1.944,-0.48 2.58,-1.032 1.116,-0.972 1.32,-2.064 1.32,-2.1 0,-0.12 -0.12,-0.12 -0.144,-0.12 -0.072,0 -0.132,0.024 -0.156,0.12 -0.108,0.348 -0.384,1.2 -1.212,1.896 -0.828,0.66 -1.584,0.864 -2.196,0.864 -1.08,0 -2.352,-0.624 -2.352,-2.484 0,-0.684 0.252,-2.616 1.452,-4.008 0.732,-0.852 1.848,-1.452 2.916,-1.452 1.224,0 1.92,0.924 1.92,2.304 0,0.48 -0.036,0.492 -0.036,0.612 0,0.12 0.132,0.12 0.192,0.12 0.144,0 0.144,-0.024 0.204,-0.24 z"
         inkscape:connector-curvature="0"
         style="font-style:normal;font-variant:normal;font-weight:normal;font-stretch:normal;letter-spacing:normal;word-spacing:normal;text-anchor:start;fill:#000000;stroke:#000000;stroke-width:0;stroke-linecap:butt;stroke-linejoin:miter;stroke-miterlimit:10.43299961;stroke-opacity:1;stroke-dasharray:none;stroke-dashoffset:0" />
      <path
         id="path5056"
         d="m -39.892,127.81549 h -0.276 c -0.024,0.18 -0.108,0.672 -0.216,0.756 -0.072,0.048 -0.72,0.048 -0.828,0.048 h -1.536 c 0.876,-0.768 1.164,-1.008 1.668,-1.392 0.612,-0.492 1.188,-1.02 1.188,-1.812 0,-1.008 -0.876,-1.62 -1.956,-1.62 -1.032,0 -1.728,0.72 -1.728,1.488 0,0.432 0.36,0.468 0.432,0.468 0.204,0 0.444,-0.144 0.444,-0.444 0,-0.144 -0.048,-0.444 -0.492,-0.444 0.264,-0.588 0.828,-0.768 1.224,-0.768 0.84,0 1.272,0.648 1.272,1.32 0,0.732 -0.516,1.308 -0.792,1.608 l -2.004,1.98 c -0.084,0.084 -0.084,0.096 -0.084,0.336 h 3.432 z"
         inkscape:connector-curvature="0"
         style="font-style:normal;font-variant:normal;font-weight:normal;font-stretch:normal;letter-spacing:normal;word-spacing:normal;text-anchor:start;fill:#000000;stroke:#000000;stroke-width:0;stroke-linecap:butt;stroke-linejoin:miter;stroke-miterlimit:10.43299961;stroke-opacity:1;stroke-dasharray:none;stroke-dashoffset:0" />
    </g>
    <g
       id="g5188"
       transform="translate(204.048,-93.295996)">
      <path
         id="path5058"
         d="m -49.18,134.36749 0,-0.036 -0.012,-0.024 0,-0.036 0,-0.024 -0.012,-0.036 -0.012,-0.024 -0.012,-0.024 0,-0.036 -0.012,-0.024 -0.024,-0.024 -0.012,-0.036 -0.012,-0.024 -0.024,-0.024 -0.012,-0.024 -0.024,-0.024 -0.024,-0.024 -0.012,-0.024 -0.024,-0.012 -0.024,-0.024 -0.024,-0.012 -0.024,-0.024 -0.036,-0.012 -0.024,-0.012 -0.024,-0.024 -0.036,-0.012 -0.024,0 -0.036,-0.012 -0.024,-0.012 -0.036,0 -0.036,-0.012 -0.024,0 -0.036,0 c -0.408,0 -0.648,0.336 -0.648,0.636 0,0.324 0.276,0.624 0.636,0.624 0.408,0 0.648,-0.324 0.648,-0.624 z"
         inkscape:connector-curvature="0"
         style="font-style:normal;font-variant:normal;font-weight:normal;font-stretch:normal;letter-spacing:normal;word-spacing:normal;text-anchor:start;fill:#000000;stroke:#000000;stroke-width:0;stroke-linecap:butt;stroke-linejoin:miter;stroke-miterlimit:10.43299961;stroke-opacity:1;stroke-dasharray:none;stroke-dashoffset:0" />
      <path
         id="path5060"
         d="m -50.224,137.85949 v -1.344 l -1.992,0.096 v 0.552 c 0.744,0 0.828,0 0.828,0.468 v 3.696 h -0.828 v 0.564 c 0.42,-0.012 0.96,-0.036 1.512,-0.036 0.456,0 1.224,0 1.656,0.036 v -0.564 h -1.044 v -2.088 c 0,-0.84 0.3,-2.292 1.5,-2.292 -0.024,0.012 -0.228,0.204 -0.228,0.54 0,0.492 0.372,0.732 0.72,0.732 0.348,0 0.732,-0.252 0.732,-0.732 0,-0.624 -0.648,-0.972 -1.26,-0.972 -0.84,0 -1.32,0.588 -1.596,1.344 z"
         inkscape:connector-curvature="0"
         style="font-style:normal;font-variant:normal;font-weight:normal;font-stretch:normal;letter-spacing:normal;word-spacing:normal;text-anchor:start;fill:#000000;stroke:#000000;stroke-width:0;stroke-linecap:butt;stroke-linejoin:miter;stroke-miterlimit:10.43299961;stroke-opacity:1;stroke-dasharray:none;stroke-dashoffset:0" />
      <path
         id="path5062"
         d="m -42.772,142.16749 h -0.288 c -0.024,0.18 -0.108,0.672 -0.216,0.756 -0.06,0.048 -0.708,0.048 -0.828,0.048 h -1.536 c 0.876,-0.78 1.176,-1.008 1.68,-1.404 0.612,-0.492 1.188,-1.008 1.188,-1.8 0,-1.008 -0.888,-1.632 -1.956,-1.632 -1.032,0 -1.74,0.732 -1.74,1.5 0,0.42 0.36,0.468 0.444,0.468 0.204,0 0.444,-0.144 0.444,-0.444 0,-0.156 -0.06,-0.444 -0.492,-0.444 0.264,-0.588 0.828,-0.78 1.224,-0.78 0.828,0 1.26,0.66 1.26,1.332 0,0.72 -0.516,1.296 -0.78,1.596 l -2.016,1.992 c -0.084,0.072 -0.084,0.096 -0.084,0.324 h 3.444 z"
         inkscape:connector-curvature="0"
         style="font-style:normal;font-variant:normal;font-weight:normal;font-stretch:normal;letter-spacing:normal;word-spacing:normal;text-anchor:start;fill:#000000;stroke:#000000;stroke-width:0;stroke-linecap:butt;stroke-linejoin:miter;stroke-miterlimit:10.43299961;stroke-opacity:1;stroke-dasharray:none;stroke-dashoffset:0" />
    </g>
    <g
       id="g5193"
       transform="translate(244.44,-69.455996)">
      <path
         id="path5064"
         d="m -49.18,148.70749 0,-0.024 -0.012,-0.036 0,-0.024 0,-0.036 -0.012,-0.024 -0.012,-0.036 -0.012,-0.024 0,-0.024 -0.012,-0.036 -0.024,-0.024 -0.012,-0.024 -0.012,-0.024 -0.024,-0.024 -0.012,-0.024 -0.024,-0.024 -0.024,-0.024 -0.012,-0.024 -0.024,-0.024 -0.024,-0.012 -0.024,-0.024 -0.024,-0.012 -0.036,-0.024 -0.024,-0.012 -0.024,-0.012 -0.036,-0.012 -0.024,-0.012 -0.036,-0.012 -0.024,0 -0.036,-0.012 -0.036,0 -0.024,0 -0.036,0 c -0.408,0 -0.648,0.324 -0.648,0.624 0,0.324 0.276,0.636 0.636,0.636 0.408,0 0.648,-0.336 0.648,-0.636 z"
         inkscape:connector-curvature="0"
         style="font-style:normal;font-variant:normal;font-weight:normal;font-stretch:normal;letter-spacing:normal;word-spacing:normal;text-anchor:start;fill:#000000;stroke:#000000;stroke-width:0;stroke-linecap:butt;stroke-linejoin:miter;stroke-miterlimit:10.43299961;stroke-opacity:1;stroke-dasharray:none;stroke-dashoffset:0" />
      <path
         id="path5066"
         d="m -50.224,152.21149 v -1.356 l -1.992,0.096 v 0.564 c 0.744,0 0.828,0 0.828,0.468 v 3.684 h -0.828 v 0.564 c 0.42,-0.012 0.96,-0.036 1.512,-0.036 0.456,0 1.224,0 1.656,0.036 v -0.564 h -1.044 v -2.088 c 0,-0.828 0.3,-2.292 1.5,-2.292 -0.024,0.012 -0.228,0.204 -0.228,0.552 0,0.492 0.372,0.732 0.72,0.732 0.348,0 0.732,-0.252 0.732,-0.732 0,-0.636 -0.648,-0.984 -1.26,-0.984 -0.84,0 -1.32,0.6 -1.596,1.356 z"
         inkscape:connector-curvature="0"
         style="font-style:normal;font-variant:normal;font-weight:normal;font-stretch:normal;letter-spacing:normal;word-spacing:normal;text-anchor:start;fill:#000000;stroke:#000000;stroke-width:0;stroke-linecap:butt;stroke-linejoin:miter;stroke-miterlimit:10.43299961;stroke-opacity:1;stroke-dasharray:none;stroke-dashoffset:0" />
      <path
         id="path5068"
         d="m -44.188,152.71549 0,0 0,-0.012 0,-0.012 0,-0.012 0,-0.012 0,0 0,-0.012 0,-0.012 0,-0.012 0,0 -0.012,-0.012 0,0 0,-0.012 0,-0.012 0,0 0,-0.012 0,0 0,-0.012 0,0 0,-0.012 -0.012,-0.012 0,-0.012 -0.012,0 0,-0.012 0,0 -0.012,-0.012 -0.012,0 0,-0.012 -0.012,0 -0.012,0 -0.012,0 -0.012,-0.012 0,0 -0.012,0 0,0 -0.012,0 0,0 -0.012,0 -0.012,0 0,0 -0.012,0 -0.012,0 0,0 -0.012,0 -0.012,0 -0.012,0 -0.012,0 0,0 -0.012,0 -0.012,0 c -0.54,0.528 -1.296,0.528 -1.644,0.528 v 0.3 c 0.204,0 0.756,0 1.212,-0.228 v 4.26 c 0,0.276 0,0.384 -0.828,0.384 h -0.324 v 0.3 c 0.156,-0.012 1.176,-0.036 1.488,-0.036 0.264,0 1.32,0.024 1.5,0.036 v -0.3 h -0.324 c -0.828,0 -0.828,-0.108 -0.828,-0.384 z"
         inkscape:connector-curvature="0"
         style="font-style:normal;font-variant:normal;font-weight:normal;font-stretch:normal;letter-spacing:normal;word-spacing:normal;text-anchor:start;fill:#000000;stroke:#000000;stroke-width:0;stroke-linecap:butt;stroke-linejoin:miter;stroke-miterlimit:10.43299961;stroke-opacity:1;stroke-dasharray:none;stroke-dashoffset:0" />
    </g>
    <path
       sodipodi:nodetypes="cc"
       inkscape:connector-curvature="0"
       id="path4316-5"
       d="M 100.9988,166.35471 105,90.153044"
       style="fill:none;stroke:#000000;stroke-width:0.63779527;stroke-linecap:butt;stroke-linejoin:miter;stroke-miterlimit:4;stroke-opacity:1;stroke-dasharray:none;marker-end:url(#Arrow1Mend-4-4);display:inline" />
    <path
       inkscape:connector-curvature="0"
       id="path3031-52-7-0-2"
       d="m 103.20711,167.03149 c 0,1.38073 -1.11929,2.50001 -2.5,2.50001 -1.380712,0 -2.500002,-1.11928 -2.500002,-2.50001 0,-1.38071 1.11929,-2.5 2.500002,-2.5 1.38071,0 2.5,1.11929 2.5,2.5 z"
       style="fill:#ffffff;stroke:#000000;stroke-width:0.70866144;stroke-miterlimit:4;stroke-opacity:1;stroke-dasharray:none;display:inline;enable-background:new" />
  </g>
</svg>
