<?xml version="1.0" encoding="UTF-8" standalone="no"?>
<!-- Created with Inkscape (http://www.inkscape.org/) -->

<svg
   xmlns:dc="http://purl.org/dc/elements/1.1/"
   xmlns:cc="http://creativecommons.org/ns#"
   xmlns:rdf="http://www.w3.org/1999/02/22-rdf-syntax-ns#"
   xmlns:svg="http://www.w3.org/2000/svg"
   xmlns="http://www.w3.org/2000/svg"
   xmlns:sodipodi="http://sodipodi.sourceforge.net/DTD/sodipodi-0.dtd"
   xmlns:inkscape="http://www.inkscape.org/namespaces/inkscape"
   width="325.98425"
   height="248.03149"
   id="svg2"
   version="1.1"
   inkscape:version="0.48.0 r9654"
   sodipodi:docname="def1.svg"
   enable-background="new">
  <sodipodi:namedview
     id="base"
     pagecolor="#ffffff"
     bordercolor="#666666"
     borderopacity="1.0"
     inkscape:pageopacity="0.0"
     inkscape:pageshadow="2"
     inkscape:zoom="2"
     inkscape:cx="160.45382"
     inkscape:cy="129.18845"
     inkscape:document-units="cm"
     inkscape:current-layer="layer3"
     showgrid="true"
     inkscape:window-width="800"
     inkscape:window-height="579"
     inkscape:window-x="-4"
     inkscape:window-y="-4"
     inkscape:window-maximized="1"
     units="cm"
     width="9.2cm"
     showguides="true"
     inkscape:guide-bbox="true"
     inkscape:showpageshadow="false"
     objecttolerance="4"
     gridtolerance="4">
    <inkscape:grid
       snapvisiblegridlinesonly="true"
       enabled="true"
       visible="true"
       empspacing="5"
       id="grid3254"
       type="xygrid" />
  </sodipodi:namedview>
  <defs
     id="defs4">
    <marker
       style="overflow:visible;"
       id="Arrow1Send"
       refX="0.0"
       refY="0.0"
       orient="auto"
       inkscape:stockid="Arrow1Send">
      <path
         transform="scale(0.2) rotate(180) translate(6,0)"
         style="fill-rule:evenodd;stroke:#000000;stroke-width:1.0pt;marker-start:none;"
         d="M 0.0,0.0 L 5.0,-5.0 L -12.5,0.0 L 5.0,5.0 L 0.0,0.0 z "
         id="path3997" />
    </marker>
    <marker
       style="overflow:visible"
       id="Arrow1Sstart"
       refX="0.0"
       refY="0.0"
       orient="auto"
       inkscape:stockid="Arrow1Sstart">
      <path
         transform="scale(0.2) translate(6,0)"
         style="fill-rule:evenodd;stroke:#000000;stroke-width:1.0pt;marker-start:none"
         d="M 0.0,0.0 L 5.0,-5.0 L -12.5,0.0 L 5.0,5.0 L 0.0,0.0 z "
         id="path3994" />
    </marker>
    <marker
       style="overflow:visible;"
       id="Arrow1Mend"
       refX="0.0"
       refY="0.0"
       orient="auto"
       inkscape:stockid="Arrow1Mend">
      <path
         transform="scale(0.4) rotate(180) translate(10,0)"
         style="fill-rule:evenodd;stroke:#000000;stroke-width:1.0pt;marker-start:none;"
         d="M 0.0,0.0 L 5.0,-5.0 L -12.5,0.0 L 5.0,5.0 L 0.0,0.0 z "
         id="path3991" />
    </marker>
    <marker
       style="overflow:visible"
       id="Arrow1Mstart"
       refX="0.0"
       refY="0.0"
       orient="auto"
       inkscape:stockid="Arrow1Mstart">
      <path
         transform="scale(0.4) translate(10,0)"
         style="fill-rule:evenodd;stroke:#000000;stroke-width:1.0pt;marker-start:none"
         d="M 0.0,0.0 L 5.0,-5.0 L -12.5,0.0 L 5.0,5.0 L 0.0,0.0 z "
         id="path3988" />
    </marker>
    <marker
       style="overflow:visible;"
       id="Arrow2Lend"
       refX="0.0"
       refY="0.0"
       orient="auto"
       inkscape:stockid="Arrow2Lend">
      <path
         transform="scale(1.1) rotate(180) translate(1,0)"
         d="M 8.7185878,4.0337352 L -2.2072895,0.016013256 L 8.7185884,-4.0017078 C 6.9730900,-1.6296469 6.9831476,1.6157441 8.7185878,4.0337352 z "
         style="font-size:12.0;fill-rule:evenodd;stroke-width:0.62500000;stroke-linejoin:round;"
         id="path4003" />
    </marker>
    <marker
       style="overflow:visible"
       id="Arrow2Lstart"
       refX="0.0"
       refY="0.0"
       orient="auto"
       inkscape:stockid="Arrow2Lstart">
      <path
         transform="scale(1.1) translate(1,0)"
         d="M 8.7185878,4.0337352 L -2.2072895,0.016013256 L 8.7185884,-4.0017078 C 6.9730900,-1.6296469 6.9831476,1.6157441 8.7185878,4.0337352 z "
         style="font-size:12.0;fill-rule:evenodd;stroke-width:0.62500000;stroke-linejoin:round"
         id="path4000" />
    </marker>
    <marker
       inkscape:stockid="Arrow1Lend"
       orient="auto"
       refY="0"
       refX="0"
       id="Arrow1Lend"
       style="overflow:visible">
      <path
         inkscape:connector-curvature="0"
         id="path4440"
         d="M 0,0 5,-5 -12.5,0 5,5 0,0 z"
         style="fill-rule:evenodd;stroke:#000000;stroke-width:1pt;marker-start:none"
         transform="matrix(-0.8,0,0,-0.8,-10,0)" />
    </marker>
    <marker
       inkscape:stockid="Arrow1Lstart"
       orient="auto"
       refY="0"
       refX="0"
       id="Arrow1Lstart"
       style="overflow:visible">
      <path
         inkscape:connector-curvature="0"
         id="path4437"
         d="M 0,0 5,-5 -12.5,0 5,5 0,0 z"
         style="fill-rule:evenodd;stroke:#000000;stroke-width:1pt;marker-start:none"
         transform="matrix(0.8,0,0,0.8,10,0)" />
    </marker>
    <marker
       style="overflow:visible"
       id="Arrow2Lstart-4"
       refX="0"
       refY="0"
       orient="auto"
       inkscape:stockid="Arrow2Lstart">
      <path
         transform="matrix(1.1,0,0,1.1,1.1,0)"
         d="M 8.7185878,4.0337352 -2.2072895,0.01601326 8.7185884,-4.0017078 c -1.7454984,2.3720609 -1.7354408,5.6174519 -6e-7,8.035443 z"
         style="font-size:12px;fill-rule:evenodd;stroke-width:0.625;stroke-linejoin:round"
         id="path4000-4"
         inkscape:connector-curvature="0" />
    </marker>
    <marker
       style="overflow:visible"
       id="Arrow2Lend-3"
       refX="0"
       refY="0"
       orient="auto"
       inkscape:stockid="Arrow2Lend">
      <path
         transform="matrix(-1.1,0,0,-1.1,-1.1,0)"
         d="M 8.7185878,4.0337352 -2.2072895,0.01601326 8.7185884,-4.0017078 c -1.7454984,2.3720609 -1.7354408,5.6174519 -6e-7,8.035443 z"
         style="font-size:12px;fill-rule:evenodd;stroke-width:0.625;stroke-linejoin:round"
         id="path4003-0"
         inkscape:connector-curvature="0" />
    </marker>
    <marker
       style="overflow:visible"
       id="marker7119"
       refX="0"
       refY="0"
       orient="auto"
       inkscape:stockid="Arrow2Lend">
      <path
         transform="matrix(-1.1,0,0,-1.1,-1.1,0)"
         d="M 8.7185878,4.0337352 -2.2072895,0.01601326 8.7185884,-4.0017078 c -1.7454984,2.3720609 -1.7354408,5.6174519 -6e-7,8.035443 z"
         style="font-size:12px;fill-rule:evenodd;stroke-width:0.625;stroke-linejoin:round"
         id="path7121"
         inkscape:connector-curvature="0" />
    </marker>
    <marker
       style="overflow:visible"
       id="Arrow1Mstart-3"
       refX="0"
       refY="0"
       orient="auto"
       inkscape:stockid="Arrow1Mstart">
      <path
         transform="matrix(0.4,0,0,0.4,4,0)"
         style="fill-rule:evenodd;stroke:#000000;stroke-width:1pt;marker-start:none"
         d="M 0,0 5,-5 -12.5,0 5,5 0,0 z"
         id="path3988-7"
         inkscape:connector-curvature="0" />
    </marker>
    <marker
       style="overflow:visible"
       id="Arrow1Mend-5"
       refX="0"
       refY="0"
       orient="auto"
       inkscape:stockid="Arrow1Mend">
      <path
         transform="matrix(-0.4,0,0,-0.4,-4,0)"
         style="fill-rule:evenodd;stroke:#000000;stroke-width:1pt;marker-start:none"
         d="M 0,0 5,-5 -12.5,0 5,5 0,0 z"
         id="path3991-5"
         inkscape:connector-curvature="0" />
    </marker>
    <marker
       style="overflow:visible"
       id="Arrow1Mend-4"
       refX="0"
       refY="0"
       orient="auto"
       inkscape:stockid="Arrow1Mend">
      <path
         transform="matrix(-0.4,0,0,-0.4,-4,0)"
         style="fill-rule:evenodd;stroke:#000000;stroke-width:1pt;marker-start:none"
         d="M 0,0 5,-5 -12.5,0 5,5 0,0 z"
         id="path3991-2"
         inkscape:connector-curvature="0" />
    </marker>
    <marker
       style="overflow:visible"
       id="Arrow1Mend-4-1"
       refX="0"
       refY="0"
       orient="auto"
       inkscape:stockid="Arrow1Mend">
      <path
         transform="matrix(-0.4,0,0,-0.4,-4,0)"
         style="fill-rule:evenodd;stroke:#000000;stroke-width:1pt;marker-start:none"
         d="M 0,0 5,-5 -12.5,0 5,5 0,0 z"
         id="path3991-2-7"
         inkscape:connector-curvature="0" />
    </marker>
    <marker
       style="overflow:visible"
       id="Arrow1Mstart-3-4"
       refX="0"
       refY="0"
       orient="auto"
       inkscape:stockid="Arrow1Mstart">
      <path
         transform="matrix(0.4,0,0,0.4,4,0)"
         style="fill-rule:evenodd;stroke:#000000;stroke-width:1pt;marker-start:none"
         d="M 0,0 5,-5 -12.5,0 5,5 0,0 z"
         id="path3988-7-0"
         inkscape:connector-curvature="0" />
    </marker>
    <marker
       style="overflow:visible"
       id="marker3209"
       refX="0"
       refY="0"
       orient="auto"
       inkscape:stockid="Arrow1Mend">
      <path
         transform="matrix(-0.4,0,0,-0.4,-4,0)"
         style="fill-rule:evenodd;stroke:#000000;stroke-width:1pt;marker-start:none"
         d="M 0,0 5,-5 -12.5,0 5,5 0,0 z"
         id="path3211"
         inkscape:connector-curvature="0" />
    </marker>
  </defs>
  <metadata
     id="metadata7">
    <rdf:RDF>
      <cc:Work
         rdf:about="">
        <dc:format>image/svg+xml</dc:format>
        <dc:type
           rdf:resource="http://purl.org/dc/dcmitype/StillImage" />
        <dc:title></dc:title>
      </cc:Work>
    </rdf:RDF>
  </metadata>
  <g
     style="display:none"
     inkscape:label="Надписи"
     id="layer5"
     inkscape:groupmode="layer" />
  <g
     style="display:none"
     inkscape:label="Слой3"
     id="layer4"
     inkscape:groupmode="layer" />
  <g
     style="display:none"
     transform="translate(0,-804.32946)"
     inkscape:groupmode="layer"
     id="layer2"
     inkscape:label="Слой2">
    <text
       xml:space="preserve"
       style="font-size:12px;font-style:normal;font-variant:normal;font-weight:normal;font-stretch:normal;line-height:125%;letter-spacing:0px;word-spacing:0px;fill:#000000;fill-opacity:1;stroke:none;font-family:cmmi12;-inkscape-font-specification:cmmi12"
       x="114.07245"
       y="849.18628"
       id="text3997"
       sodipodi:linespacing="125%"><tspan
         sodipodi:role="line"
         id="tspan3999"
         x="114.07245"
         y="849.18628" /></text>
    <text
       xml:space="preserve"
       style="font-size:12px;font-style:normal;font-variant:normal;font-weight:normal;font-stretch:normal;line-height:125%;letter-spacing:0px;word-spacing:0px;fill:#000000;fill-opacity:1;stroke:none;font-family:cmmi12;-inkscape-font-specification:cmmi12"
       x="257.33582"
       y="739.52142"
       id="text4001"
       sodipodi:linespacing="125%"><tspan
         sodipodi:role="line"
         id="tspan4003"
         x="257.33582"
         y="739.52142">  </tspan></text>
    <text
       xml:space="preserve"
       style="font-size:12px;font-style:normal;font-variant:normal;font-weight:normal;font-stretch:normal;line-height:125%;letter-spacing:0px;word-spacing:0px;fill:#000000;fill-opacity:1;stroke:none;font-family:cmmi12;-inkscape-font-specification:cmmi12"
       x="125.36874"
       y="837.7204"
       id="text4009"
       sodipodi:linespacing="125%"><tspan
         sodipodi:role="line"
         id="tspan4011"
         x="125.36874"
         y="837.7204" /></text>
  </g>
  <g
     style="display:inline"
     inkscape:groupmode="layer"
     id="layer3"
     inkscape:label="Слой1">
    <g
       style="display:inline;enable-background:new"
       id="g3521"
       inkscape:label="ink_ext_XXXXXX"
       transform="matrix(1.25,0,0,-1.25,3.109772,1050.7955)">
      <g
         id="g3523"
         transform="scale(0.1,0.1)" />
    </g>
    <g
       style="display:inline;enable-background:new"
       id="g3535"
       inkscape:label="ink_ext_XXXXXX"
       transform="matrix(1.25,0,0,-1.25,3.109772,1050.7955)">
      <g
         id="g3537"
         transform="scale(0.1,0.1)" />
    </g>
    <text
       sodipodi:linespacing="125%"
       id="text6249"
       y="222.32698"
       x="107.10977"
       style="font-size:14.93999958px;font-style:normal;font-variant:normal;font-weight:normal;font-stretch:normal;line-height:125%;letter-spacing:0px;word-spacing:0px;fill:#000000;fill-opacity:1;stroke:none;display:inline;enable-background:new;font-family:cmmi12;-inkscape-font-specification:cmmi12"
       xml:space="preserve"><tspan
         y="222.32698"
         x="107.10977"
         id="tspan6251"
         sodipodi:role="line" /></text>
    <path
       style="fill:none;stroke:#000000;stroke-width:0.64363134;stroke-linecap:butt;stroke-linejoin:miter;stroke-miterlimit:4;stroke-opacity:1;stroke-dasharray:none;display:inline;enable-background:new"
       d="M 37.511471,50.934474 C 55.674002,15.248452 115.26642,33.90505 115.26642,76.326991 c 0,0 -0.5538,28.472759 -2.15665,32.930309 -18.180342,50.55983 -123.787075,37.68438 -75.598299,-58.322826 z"
       id="path3169"
       inkscape:connector-curvature="0"
       sodipodi:nodetypes="cssc" />
    <path
       style="fill:none;stroke:#000000;stroke-width:0.63779527;stroke-linecap:butt;stroke-linejoin:miter;stroke-miterlimit:4;stroke-opacity:1;stroke-dasharray:none;display:inline;enable-background:new"
       d="m 193.10977,46.32699 c 27.00224,-31.854623 115.59831,-15.201074 115.59831,22.666271 0,0 0.4787,25.79143 -3.2063,29.39477 C 259.02483,143.83514 121.46751,132.02646 193.10977,46.32699 z"
       id="path3169-1"
       inkscape:connector-curvature="0"
       sodipodi:nodetypes="cssc" />
    <path
       sodipodi:nodetypes="cc"
       inkscape:connector-curvature="0"
       id="path3317"
       d="m 79.707062,177.33077 -32.15795,-72.3467"
       style="fill:none;stroke:#000000;stroke-width:0.70866144;stroke-linecap:butt;stroke-linejoin:miter;stroke-miterlimit:4;stroke-opacity:1;stroke-dasharray:none;marker-end:url(#Arrow1Mend-4);display:inline;enable-background:new" />
    <path
       sodipodi:nodetypes="cc"
       inkscape:connector-curvature="0"
       id="path3321"
       d="m 112.08485,59.781501 c 13.33333,-8.606033 79.28888,-7.536179 92.62221,1.25"
       style="fill:none;stroke:#000000;stroke-width:0.70866144;stroke-linecap:butt;stroke-linejoin:miter;stroke-miterlimit:4;stroke-opacity:1;stroke-dasharray:none;marker-end:url(#Arrow1Mend-4);display:inline;enable-background:new" />
    <path
       transform="matrix(0.70959304,0,0,-0.85087876,-126.22365,143.28784)"
       d="m 235.46655,60.400509 a 2.7332759,2.369014 0 1 1 -5.46655,0 2.7332759,2.369014 0 1 1 5.46655,0 z"
       sodipodi:ry="2.369014"
       sodipodi:rx="2.7332759"
       sodipodi:cy="60.400509"
       sodipodi:cx="232.73328"
       id="path6727-4-7"
       style="fill:#ffffff;fill-rule:evenodd;stroke:#000000;stroke-width:1px;stroke-linecap:butt;stroke-linejoin:miter;stroke-opacity:1;display:inline;enable-background:new"
       sodipodi:type="arc" />
    <path
       sodipodi:nodetypes="cc"
       inkscape:connector-curvature="0"
       id="path3323"
       d="M 33.109772,106.32699 C 38.407144,76.160091 70.079657,70.609991 103.10977,66.326991"
       style="fill:none;stroke:#000000;stroke-width:1px;stroke-linecap:butt;stroke-linejoin:miter;stroke-opacity:1;display:inline;enable-background:new" />
    <path
       transform="matrix(0.70959304,0,0,-0.85087876,59.621635,116.42501)"
       d="m 235.46655,60.400509 a 2.7332759,2.369014 0 1 1 -5.46655,0 2.7332759,2.369014 0 1 1 5.46655,0 z"
       sodipodi:ry="2.369014"
       sodipodi:rx="2.7332759"
       sodipodi:cy="60.400509"
       sodipodi:cx="232.73328"
       id="path6727-4-7-4"
       style="fill:#ffffff;fill-rule:evenodd;stroke:#000000;stroke-width:1px;stroke-linecap:butt;stroke-linejoin:miter;stroke-opacity:1;display:inline;enable-background:new"
       sodipodi:type="arc" />
    <g
       style="stroke-width:0.63611442;stroke-miterlimit:4;stroke-dasharray:none;display:inline;enable-background:new"
       transform="matrix(1.123739,-0.6002758,0.8434098,0.79979308,-84.671178,154.89172)"
       id="g3189">
      <path
         style="fill:none;stroke:#000000;stroke-width:0.63611442;stroke-linecap:butt;stroke-linejoin:miter;stroke-miterlimit:4;stroke-opacity:1;stroke-dasharray:none"
         d="m 180,36.89592 c -7,-30.0000002 54.5,-16.375 54.5,-16.375"
         id="path3182"
         inkscape:connector-curvature="0"
         transform="translate(21.59729,30.840085)"
         sodipodi:nodetypes="cc" />
      <g
         style="stroke-width:0.63611442;stroke-miterlimit:4;stroke-dasharray:none"
         id="g3186">
        <path
           sodipodi:nodetypes="ccc"
           inkscape:connector-curvature="0"
           id="path3184"
           d="m 255.97229,51.486005 c 35.37246,6.04049 1.94067,47.697436 -4.375,51.249995 -35,30.00001 -50,-34.999995 -50,-34.999995"
           style="fill:none;stroke:#000000;stroke-width:0.63611442;stroke-linecap:butt;stroke-linejoin:miter;stroke-miterlimit:4;stroke-opacity:1;stroke-dasharray:none" />
      </g>
    </g>
    <path
       sodipodi:nodetypes="cc"
       inkscape:connector-curvature="0"
       id="path3196"
       d="m 214.86241,82.073761 c 8.79821,-29.857352 27.22571,-21.028907 49.6855,-21.397831"
       style="fill:none;stroke:#000000;stroke-width:1px;stroke-linecap:butt;stroke-linejoin:miter;stroke-opacity:1;display:inline;enable-background:new" />
    <path
       transform="matrix(0.70959304,0,0,-0.85087876,-82.986208,237.40926)"
       d="m 235.46655,60.400509 a 2.7332759,2.369014 0 1 1 -5.46655,0 2.7332759,2.369014 0 1 1 5.46655,0 z"
       sodipodi:ry="2.369014"
       sodipodi:rx="2.7332759"
       sodipodi:cy="60.400509"
       sodipodi:cx="232.73328"
       id="path6727-4-7-7"
       style="fill:#ffffff;fill-rule:evenodd;stroke:#000000;stroke-width:1px;stroke-linecap:butt;stroke-linejoin:miter;stroke-opacity:1;display:inline;enable-background:new"
       sodipodi:type="arc" />
    <path
       inkscape:connector-curvature="0"
       id="path3198"
       d="m 34.707062,186.0315 105.249998,0"
       style="fill:none;stroke:#000000;stroke-width:1px;stroke-linecap:butt;stroke-linejoin:miter;stroke-opacity:1;display:inline;enable-background:new" />
    <path
       style="font-style:normal;font-variant:normal;font-weight:normal;font-stretch:normal;letter-spacing:normal;word-spacing:normal;text-anchor:start;fill:#000000;stroke:#000000;stroke-width:0;stroke-linecap:butt;stroke-linejoin:miter;stroke-miterlimit:10.43299961;stroke-opacity:1;stroke-dasharray:none;stroke-dashoffset:0;display:inline;enable-background:new"
       inkscape:connector-curvature="0"
       d="m 31.932062,176.19649 v -0.525 -3.69 c 0,-0.315 0,-0.81 0.93,-0.81 1.26,0 1.89,0.525 1.89,2.28 h 0.525 c 0,-0.705 -0.09,-1.5 -0.57,-2.115 0.615,0.135 2.1,0.6 2.1,2.1 0,0.975 -0.45,1.74 -1.995,2.025 h 0 c 0.42,-0.555 0.465,-1.35 0.465,-2.01 h -0.525 c 0,1.935 -0.465,2.22 -2.82,2.22 v 0.525 h 0.54 l 2.235,3.45 c 0.15,0.24 0.51,0.825 0.675,1.05 l 0.39,-0.345 -2.685,-4.155 c 0.09,-0.015 0.165,-0.03 0.27,-0.03 0.225,0 0.555,-0.03 0.78,-0.06 0.225,0.345 1.845,3.015 3.09,4.245 h -1.455 l -0.39,0.345 c 0.105,0.18 0.15,0.18 0.495,0.18 h 2.055 c 0.27,0 0.495,0 0.495,-0.27 0,-0.12 -0.09,-0.225 -0.225,-0.255 -0.54,-0.12 -1.275,-1.095 -1.635,-1.575 -0.105,-0.15 -0.855,-1.14 -1.86,-2.745 1.335,-0.24 2.625,-0.81 2.625,-2.595 0,-2.07 -2.205,-2.79 -3.975,-2.79 h -4.695 c -0.255,0 -0.495,0 -0.495,0.27 0,0.255 0.285,0.255 0.39,0.255 0.855,0 0.93,0.105 0.93,0.855 v 7.485 l 0.525,0.015 v -7.53 c 0,-0.15 0,-0.555 -0.12,-0.825 h 1.71 c -0.195,0.24 -0.195,0.54 -0.195,0.765 v 7.59 c 0,0.165 0,0.555 0.12,0.825 h -1.635 c 0.12,-0.27 0.12,-0.675 0.12,-0.825 l -0.525,-0.015 c 0,0.735 -0.075,0.84 -0.93,0.84 -0.105,0 -0.39,0 -0.39,0.255 0,0.27 0.24,0.27 0.495,0.27 h 4.11 c 0.27,0 0.48,0 0.48,-0.27 0,-0.255 -0.255,-0.255 -0.405,-0.255 -0.855,0 -0.915,-0.12 -0.915,-0.84 z"
       id="path4633" />
    <path
       style="font-style:normal;font-variant:normal;font-weight:normal;font-stretch:normal;letter-spacing:normal;word-spacing:normal;text-anchor:start;fill:#000000;stroke:#000000;stroke-width:0;stroke-linecap:butt;stroke-linejoin:miter;stroke-miterlimit:10.43299961;stroke-opacity:1;stroke-dasharray:none;stroke-dashoffset:0;display:inline;enable-background:new"
       inkscape:connector-curvature="0"
       d="m 39.202062,65.266501 -0.06,0.09 -0.045,0.09 -0.06,0.09 -0.06,0.075 -0.06,0.075 -0.045,0.06 -0.06,0.075 -0.06,0.06 -0.045,0.06 -0.06,0.045 -0.06,0.06 -0.06,0.045 -0.045,0.045 -0.06,0.045 -0.06,0.03 -0.06,0.045 -0.06,0.03 -0.045,0.03 -0.06,0.03 -0.06,0.03 -0.06,0.015 -0.06,0.015 -0.06,0.03 -0.06,0.015 -0.045,0.015 -0.06,0.015 -0.06,0 -0.06,0.015 -0.12,0.015 -0.135,0.015 c -0.165,0.015 -0.3,0.015 -0.3,0.3 0,0.09 0.06,0.165 0.18,0.165 0.405,0 0.87,-0.045 1.29,-0.045 0.495,0 1.02,0.045 1.5,0.045 0.09,0 0.285,0 0.285,-0.285 0,-0.165 -0.135,-0.18 -0.24,-0.18 -0.345,-0.03 -0.705,-0.15 -0.705,-0.525 0,-0.18 0.09,-0.345 0.21,-0.555 l 1.14,-1.905 h 3.75 l -0.045,-0.465 h -3.42 l 2.94,-4.935 0.48,4.935 0.045,0.465 c 0.03,0.315 0.24,2.34 0.24,2.49 0,0.45 -0.78,0.495 -1.08,0.495 -0.21,0 -0.36,0 -0.36,0.3 0,0.165 0.18,0.165 0.21,0.165 0.615,0 1.26,-0.045 1.875,-0.045 0.375,0 1.305,0.045 1.68,0.045 0.09,0 0.27,0 0.27,-0.3 0,-0.165 -0.15,-0.165 -0.345,-0.165 -0.915,0 -0.915,-0.105 -0.96,-0.54 l -0.915,-9.33 c -0.03,-0.3 -0.03,-0.36 -0.285,-0.36 -0.24,0 -0.3,0.105 -0.39,0.255 z"
       id="path4635" />
    <path
       style="font-style:normal;font-variant:normal;font-weight:normal;font-stretch:normal;letter-spacing:normal;word-spacing:normal;text-anchor:start;fill:#000000;stroke:#000000;stroke-width:0;stroke-linecap:butt;stroke-linejoin:miter;stroke-miterlimit:10.43299961;stroke-opacity:1;stroke-dasharray:none;stroke-dashoffset:0;display:inline;enable-background:new"
       inkscape:connector-curvature="0"
       d="m 192.53206,110.0065 -0.015,0.045 -0.015,0.045 -0.015,0.06 0,0.045 -0.015,0.045 -0.015,0.03 -0.015,0.045 -0.015,0.03 -0.015,0.03 -0.03,0.045 -0.015,0.03 -0.015,0.015 -0.03,0.03 -0.03,0.03 -0.015,0.015 -0.03,0.015 -0.045,0.03 -0.03,0.015 -0.045,0.015 -0.045,0.015 -0.045,0.015 -0.03,0 -0.03,0 -0.03,0.015 -0.03,0 -0.03,0 -0.03,0 -0.03,0.015 -0.03,0 -0.03,0 -0.045,0 -0.03,0 -0.045,0.015 -0.045,0 -0.045,0 -0.03,0 -0.045,0 -0.06,0 -0.045,0 -0.045,0 -0.045,0 -0.06,0 -0.06,0 c -0.255,0 -0.405,0 -0.405,0.3 0,0.165 0.135,0.165 0.405,0.165 h 5.34 c 2.37,0 4.125,-1.755 4.125,-3.225 0,-1.08 -0.855,-1.935 -2.31,-2.1 1.56,-0.285 3.12,-1.395 3.12,-2.805 0,-1.11 -0.99,-2.07 -2.775,-2.07 l -0.21,0.465 c 1.32,0 1.635,0.885 1.635,1.545 0,1.305 -1.29,2.73 -3.12,2.73 h -2.175 l -0.09,0.33 h 2.82 c 1.44,0 1.725,1.095 1.725,1.74 0,1.485 -1.335,2.925 -3.105,2.925 h -2.025 c -0.21,0 -0.24,0 -0.33,-0.015 -0.15,-0.015 -0.195,-0.03 -0.195,-0.15 0,-0.045 0,-0.075 0.075,-0.345 l 1.035,-4.155 0.09,-0.33 0.915,-3.705 c 0.135,-0.525 0.165,-0.57 0.81,-0.57 h 1.935 l 0.21,-0.465 h -5.025 c -0.285,0 -0.435,0 -0.435,0.3 0,0.165 0.135,0.165 0.42,0.165 0.03,0 0.315,0 0.57,0.03 0.27,0.03 0.405,0.045 0.405,0.24 0,0.06 -0.015,0.105 -0.06,0.285 z"
       id="path4637" />
  </g>
</svg>
