<?xml version="1.0" encoding="UTF-8" standalone="no"?>
<!-- Created with Inkscape (http://www.inkscape.org/) -->

<svg
   xmlns:dc="http://purl.org/dc/elements/1.1/"
   xmlns:cc="http://creativecommons.org/ns#"
   xmlns:rdf="http://www.w3.org/1999/02/22-rdf-syntax-ns#"
   xmlns:svg="http://www.w3.org/2000/svg"
   xmlns="http://www.w3.org/2000/svg"
   xmlns:sodipodi="http://sodipodi.sourceforge.net/DTD/sodipodi-0.dtd"
   xmlns:inkscape="http://www.inkscape.org/namespaces/inkscape"
   width="285.52982"
   height="162.40427"
   id="svg2"
   version="1.1"
   inkscape:version="0.48.0 r9654"
   sodipodi:docname="kova.eps"
   style="enable-background:new">
  <sodipodi:namedview
     id="base"
     pagecolor="#ffffff"
     bordercolor="#666666"
     borderopacity="1.0"
     inkscape:pageopacity="0.0"
     inkscape:pageshadow="2"
     inkscape:zoom="1"
     inkscape:cx="273.578"
     inkscape:cy="73.321477"
     inkscape:document-units="cm"
     inkscape:current-layer="layer3"
     showgrid="true"
     inkscape:window-width="800"
     inkscape:window-height="579"
     inkscape:window-x="-4"
     inkscape:window-y="-4"
     inkscape:window-maximized="1"
     units="cm"
     width="9.2cm"
     showguides="true"
     inkscape:guide-bbox="true"
     inkscape:showpageshadow="false"
     objecttolerance="4"
     gridtolerance="4"
     fit-margin-top="0"
     fit-margin-left="0"
     fit-margin-right="0"
     fit-margin-bottom="0">
    <inkscape:grid
       type="xygrid"
       id="grid3254"
       empspacing="5"
       visible="true"
       enabled="true"
       snapvisiblegridlinesonly="true" />
  </sodipodi:namedview>
  <defs
     id="defs4"><marker
   inkscape:stockid="Arrow1Send"
   orient="auto"
   refY="0"
   refX="0"
   id="Arrow1Send"
   style="overflow:visible">
  <path
     id="path3997"
     d="M 0,0 5,-5 -12.5,0 5,5 0,0 z"
     style="fill-rule:evenodd;stroke:#000000;stroke-width:1pt;marker-start:none"
     transform="matrix(-0.2,0,0,-0.2,-1.2,0)"
     inkscape:connector-curvature="0" />
</marker>
<marker
   inkscape:stockid="Arrow1Sstart"
   orient="auto"
   refY="0"
   refX="0"
   id="Arrow1Sstart"
   style="overflow:visible">
  <path
     id="path3994"
     d="M 0,0 5,-5 -12.5,0 5,5 0,0 z"
     style="fill-rule:evenodd;stroke:#000000;stroke-width:1pt;marker-start:none"
     transform="matrix(0.2,0,0,0.2,1.2,0)"
     inkscape:connector-curvature="0" />
</marker>
<marker
   inkscape:stockid="Arrow1Mend"
   orient="auto"
   refY="0"
   refX="0"
   id="Arrow1Mend"
   style="overflow:visible">
  <path
     id="path3991"
     d="M 0,0 5,-5 -12.5,0 5,5 0,0 z"
     style="fill-rule:evenodd;stroke:#000000;stroke-width:1pt;marker-start:none"
     transform="matrix(-0.4,0,0,-0.4,-4,0)"
     inkscape:connector-curvature="0" />
</marker>
<marker
   inkscape:stockid="Arrow1Mstart"
   orient="auto"
   refY="0"
   refX="0"
   id="Arrow1Mstart"
   style="overflow:visible">
  <path
     id="path3988"
     d="M 0,0 5,-5 -12.5,0 5,5 0,0 z"
     style="fill-rule:evenodd;stroke:#000000;stroke-width:1pt;marker-start:none"
     transform="matrix(0.4,0,0,0.4,4,0)"
     inkscape:connector-curvature="0" />
</marker>
<marker
   inkscape:stockid="Arrow2Lend"
   orient="auto"
   refY="0"
   refX="0"
   id="Arrow2Lend"
   style="overflow:visible">
  <path
     id="path4003"
     style="font-size:12px;fill-rule:evenodd;stroke-width:0.625;stroke-linejoin:round"
     d="M 8.7185878,4.0337352 -2.2072895,0.01601326 8.7185884,-4.0017078 c -1.7454984,2.3720609 -1.7354408,5.6174519 -6e-7,8.035443 z"
     transform="matrix(-1.1,0,0,-1.1,-1.1,0)"
     inkscape:connector-curvature="0" />
</marker>
<marker
   inkscape:stockid="Arrow2Lstart"
   orient="auto"
   refY="0"
   refX="0"
   id="Arrow2Lstart"
   style="overflow:visible">
  <path
     id="path4000"
     style="font-size:12px;fill-rule:evenodd;stroke-width:0.625;stroke-linejoin:round"
     d="M 8.7185878,4.0337352 -2.2072895,0.01601326 8.7185884,-4.0017078 c -1.7454984,2.3720609 -1.7354408,5.6174519 -6e-7,8.035443 z"
     transform="matrix(1.1,0,0,1.1,1.1,0)"
     inkscape:connector-curvature="0" />
</marker>
<marker
   style="overflow:visible"
   id="Arrow1Lend"
   refX="0"
   refY="0"
   orient="auto"
   inkscape:stockid="Arrow1Lend">
  <path
     transform="matrix(-0.8,0,0,-0.8,-10,0)"
     style="fill-rule:evenodd;stroke:#000000;stroke-width:1pt;marker-start:none"
     d="M 0,0 5,-5 -12.5,0 5,5 0,0 z"
     id="path4440"
     inkscape:connector-curvature="0" />
</marker>
<marker
   style="overflow:visible"
   id="Arrow1Lstart"
   refX="0"
   refY="0"
   orient="auto"
   inkscape:stockid="Arrow1Lstart">
  <path
     transform="matrix(0.8,0,0,0.8,10,0)"
     style="fill-rule:evenodd;stroke:#000000;stroke-width:1pt;marker-start:none"
     d="M 0,0 5,-5 -12.5,0 5,5 0,0 z"
     id="path4437"
     inkscape:connector-curvature="0" />
</marker>
<marker
   inkscape:stockid="Arrow2Lstart"
   orient="auto"
   refY="0"
   refX="0"
   id="Arrow2Lstart-4"
   style="overflow:visible">
  <path
     inkscape:connector-curvature="0"
     id="path4000-4"
     style="font-size:12px;fill-rule:evenodd;stroke-width:0.625;stroke-linejoin:round"
     d="M 8.7185878,4.0337352 -2.2072895,0.01601326 8.7185884,-4.0017078 c -1.7454984,2.3720609 -1.7354408,5.6174519 -6e-7,8.035443 z"
     transform="matrix(1.1,0,0,1.1,1.1,0)" />
</marker>
<marker
   inkscape:stockid="Arrow2Lend"
   orient="auto"
   refY="0"
   refX="0"
   id="Arrow2Lend-3"
   style="overflow:visible">
  <path
     inkscape:connector-curvature="0"
     id="path4003-0"
     style="font-size:12px;fill-rule:evenodd;stroke-width:0.625;stroke-linejoin:round"
     d="M 8.7185878,4.0337352 -2.2072895,0.01601326 8.7185884,-4.0017078 c -1.7454984,2.3720609 -1.7354408,5.6174519 -6e-7,8.035443 z"
     transform="matrix(-1.1,0,0,-1.1,-1.1,0)" />
</marker>
<marker
   inkscape:stockid="Arrow2Lend"
   orient="auto"
   refY="0"
   refX="0"
   id="marker7119"
   style="overflow:visible">
  <path
     inkscape:connector-curvature="0"
     id="path7121"
     style="font-size:12px;fill-rule:evenodd;stroke-width:0.625;stroke-linejoin:round"
     d="M 8.7185878,4.0337352 -2.2072895,0.01601326 8.7185884,-4.0017078 c -1.7454984,2.3720609 -1.7354408,5.6174519 -6e-7,8.035443 z"
     transform="matrix(-1.1,0,0,-1.1,-1.1,0)" />
</marker>
<marker
   inkscape:stockid="Arrow1Mstart"
   orient="auto"
   refY="0"
   refX="0"
   id="Arrow1Mstart-3"
   style="overflow:visible">
  <path
     inkscape:connector-curvature="0"
     id="path3988-7"
     d="M 0,0 5,-5 -12.5,0 5,5 0,0 z"
     style="fill-rule:evenodd;stroke:#000000;stroke-width:1pt;marker-start:none"
     transform="matrix(0.4,0,0,0.4,4,0)" />
</marker>
<marker
   inkscape:stockid="Arrow1Mend"
   orient="auto"
   refY="0"
   refX="0"
   id="Arrow1Mend-5"
   style="overflow:visible">
  <path
     inkscape:connector-curvature="0"
     id="path3991-5"
     d="M 0,0 5,-5 -12.5,0 5,5 0,0 z"
     style="fill-rule:evenodd;stroke:#000000;stroke-width:1pt;marker-start:none"
     transform="matrix(-0.4,0,0,-0.4,-4,0)" />
</marker>
<marker
   inkscape:stockid="Arrow1Mend"
   orient="auto"
   refY="0"
   refX="0"
   id="Arrow1Mend-4"
   style="overflow:visible">
  <path
     inkscape:connector-curvature="0"
     id="path3991-2"
     d="M 0,0 5,-5 -12.5,0 5,5 0,0 z"
     style="fill-rule:evenodd;stroke:#000000;stroke-width:1pt;marker-start:none"
     transform="matrix(-0.4,0,0,-0.4,-4,0)" />
</marker>
<marker
   inkscape:stockid="Arrow1Mend"
   orient="auto"
   refY="0"
   refX="0"
   id="Arrow1Mend-4-1"
   style="overflow:visible">
  <path
     inkscape:connector-curvature="0"
     id="path3991-2-7"
     d="M 0,0 5,-5 -12.5,0 5,5 0,0 z"
     style="fill-rule:evenodd;stroke:#000000;stroke-width:1pt;marker-start:none"
     transform="matrix(-0.4,0,0,-0.4,-4,0)" />
</marker>
<marker
   inkscape:stockid="Arrow1Mstart"
   orient="auto"
   refY="0"
   refX="0"
   id="Arrow1Mstart-3-4"
   style="overflow:visible">
  <path
     inkscape:connector-curvature="0"
     id="path3988-7-0"
     d="M 0,0 5,-5 -12.5,0 5,5 0,0 z"
     style="fill-rule:evenodd;stroke:#000000;stroke-width:1pt;marker-start:none"
     transform="matrix(0.4,0,0,0.4,4,0)" />
</marker>
<marker
   inkscape:stockid="Arrow1Mend"
   orient="auto"
   refY="0"
   refX="0"
   id="marker3209"
   style="overflow:visible">
  <path
     inkscape:connector-curvature="0"
     id="path3211"
     d="M 0,0 5,-5 -12.5,0 5,5 0,0 z"
     style="fill-rule:evenodd;stroke:#000000;stroke-width:1pt;marker-start:none"
     transform="matrix(-0.4,0,0,-0.4,-4,0)" />
</marker>































































<marker
   inkscape:stockid="Arrow1Mend"
   orient="auto"
   refY="0"
   refX="0"
   id="marker3209-5"
   style="overflow:visible">
  <path
     inkscape:connector-curvature="0"
     id="path3211-5"
     d="M 0,0 5,-5 -12.5,0 5,5 0,0 z"
     style="fill-rule:evenodd;stroke:#000000;stroke-width:1pt;marker-start:none"
     transform="matrix(-0.4,0,0,-0.4,-4,0)" />
</marker>
</defs>
  <metadata
     id="metadata7">
    <rdf:RDF>
      <cc:Work
         rdf:about="">
        <dc:format>image/svg+xml</dc:format>
        <dc:type
           rdf:resource="http://purl.org/dc/dcmitype/StillImage" />
        <dc:title></dc:title>
      </cc:Work>
    </rdf:RDF>
  </metadata>
  <g
     inkscape:groupmode="layer"
     id="layer5"
     inkscape:label="Надписи"
     style="display:none"
     transform="translate(-24.707062,-28.031495)" />
  <g
     inkscape:groupmode="layer"
     id="layer4"
     inkscape:label="Слой3"
     style="display:none"
     transform="translate(-24.707062,-28.031495)" />
  <g
     inkscape:label="Слой2"
     id="layer2"
     inkscape:groupmode="layer"
     transform="translate(-24.707062,-832.36095)"
     style="display:none">
    <text
       sodipodi:linespacing="125%"
       id="text3997"
       y="849.18628"
       x="114.07245"
       style="font-size:12px;font-style:normal;font-variant:normal;font-weight:normal;font-stretch:normal;line-height:125%;letter-spacing:0px;word-spacing:0px;fill:#000000;fill-opacity:1;stroke:none;font-family:cmmi12;-inkscape-font-specification:cmmi12"
       xml:space="preserve"><tspan
         y="849.18628"
         x="114.07245"
         id="tspan3999"
         sodipodi:role="line" /></text>
    <text
       sodipodi:linespacing="125%"
       id="text4001"
       y="739.52142"
       x="257.33582"
       style="font-size:12px;font-style:normal;font-variant:normal;font-weight:normal;font-stretch:normal;line-height:125%;letter-spacing:0px;word-spacing:0px;fill:#000000;fill-opacity:1;stroke:none;font-family:cmmi12;-inkscape-font-specification:cmmi12"
       xml:space="preserve"><tspan
         y="739.52142"
         x="257.33582"
         id="tspan4003"
         sodipodi:role="line">  </tspan></text>
    <text
       sodipodi:linespacing="125%"
       id="text4009"
       y="837.7204"
       x="125.36874"
       style="font-size:12px;font-style:normal;font-variant:normal;font-weight:normal;font-stretch:normal;line-height:125%;letter-spacing:0px;word-spacing:0px;fill:#000000;fill-opacity:1;stroke:none;font-family:cmmi12;-inkscape-font-specification:cmmi12"
       xml:space="preserve"><tspan
         y="837.7204"
         x="125.36874"
         id="tspan4011"
         sodipodi:role="line" /></text>
  </g>
  <g
     inkscape:label="Слой1"
     id="layer3"
     inkscape:groupmode="layer"
     style="display:inline"
     transform="translate(-24.707062,-28.031495)">
    <path
       sodipodi:nodetypes="cssc"
       inkscape:connector-curvature="0"
       id="path3169"
       d="M 37.511471,50.934474 C 55.674002,15.248452 115.26642,33.90505 115.26642,76.326991 c 0,0 -0.5538,28.472759 -2.15665,32.930309 -18.180342,50.55983 -123.787075,37.68438 -75.598299,-58.322826 z"
       style="fill:none;stroke:#000000;stroke-width:0.64363134;stroke-linecap:butt;stroke-linejoin:miter;stroke-miterlimit:4;stroke-opacity:1;stroke-dasharray:none;display:inline;enable-background:new" />
    <g
       transform="matrix(1.25,0,0,-1.25,3.109772,1050.7955)"
       inkscape:label="ink_ext_XXXXXX"
       id="g3521"
       style="display:inline;enable-background:new">
      <g
         transform="scale(0.1,0.1)"
         id="g3523" />
    </g>
    <g
       transform="matrix(1.25,0,0,-1.25,3.109772,1050.7955)"
       inkscape:label="ink_ext_XXXXXX"
       id="g3535"
       style="display:inline;enable-background:new">
      <g
         transform="scale(0.1,0.1)"
         id="g3537" />
    </g>
    <text
       xml:space="preserve"
       style="font-size:14.93999958px;font-style:normal;font-variant:normal;font-weight:normal;font-stretch:normal;line-height:125%;letter-spacing:0px;word-spacing:0px;fill:#000000;fill-opacity:1;stroke:none;display:inline;enable-background:new;font-family:cmmi12;-inkscape-font-specification:cmmi12"
       x="107.10977"
       y="222.32698"
       id="text6249"
       sodipodi:linespacing="125%"><tspan
         sodipodi:role="line"
         id="tspan6251"
         x="107.10977"
         y="222.32698" /></text>
    <path
       sodipodi:nodetypes="cssc"
       inkscape:connector-curvature="0"
       id="path3169-1"
       d="m 193.10977,46.32699 c 27.00224,-31.854623 115.59831,-15.201074 115.59831,22.666271 0,0 0.4787,25.79143 -3.2063,29.39477 C 259.02483,143.83514 121.46751,132.02646 193.10977,46.32699 z"
       style="fill:none;stroke:#000000;stroke-width:0.63779527;stroke-linecap:butt;stroke-linejoin:miter;stroke-miterlimit:4;stroke-opacity:1;stroke-dasharray:none;display:inline;enable-background:new" />
    <path
       style="fill:none;stroke:#000000;stroke-width:0.70866144;stroke-linecap:butt;stroke-linejoin:miter;stroke-miterlimit:4;stroke-opacity:1;stroke-dasharray:none;marker-end:url(#Arrow1Mend-4);display:inline;enable-background:new"
       d="M 230,73.561089 250,173.90779"
       id="path3317"
       inkscape:connector-curvature="0"
       sodipodi:nodetypes="cc" />
    <path
       style="fill:none;stroke:#000000;stroke-width:0.70866144;stroke-linecap:butt;stroke-linejoin:miter;stroke-miterlimit:4;stroke-opacity:1;stroke-dasharray:none;marker-end:url(#Arrow1Mend-4);display:inline;enable-background:new"
       d="M 112.08485,59.781501 C 125.41818,51.175468 166.66667,54.245315 180,63.031494"
       id="path3321"
       inkscape:connector-curvature="0"
       sodipodi:nodetypes="cc" />
    <path
       sodipodi:type="arc"
       style="fill:#ffffff;fill-rule:evenodd;stroke:#000000;stroke-width:1px;stroke-linecap:butt;stroke-linejoin:miter;stroke-opacity:1;display:inline;enable-background:new"
       id="path6727-4-7"
       sodipodi:cx="232.73328"
       sodipodi:cy="60.400509"
       sodipodi:rx="2.7332759"
       sodipodi:ry="2.369014"
       d="m 235.46655,60.400509 c 0,1.30837 -1.22373,2.369014 -2.73327,2.369014 -1.50955,0 -2.73328,-1.060644 -2.73328,-2.369014 0,-1.30837 1.22373,-2.369014 2.73328,-2.369014 1.50954,0 2.73327,1.060644 2.73327,2.369014 z"
       transform="matrix(0.70959304,0,0,-0.85087876,-126.22365,143.28784)" />
    <path
       style="fill:none;stroke:#000000;stroke-width:1px;stroke-linecap:butt;stroke-linejoin:miter;stroke-opacity:1;display:inline;enable-background:new"
       d="M 33.109772,106.32699 C 38.407144,76.160091 70.079657,70.609991 103.10977,66.326991"
       id="path3323"
       inkscape:connector-curvature="0"
       sodipodi:nodetypes="cc" />
    <path
       sodipodi:type="arc"
       style="fill:#ffffff;fill-rule:evenodd;stroke:#000000;stroke-width:1px;stroke-linecap:butt;stroke-linejoin:miter;stroke-opacity:1;display:inline;enable-background:new"
       id="path6727-4-7-4"
       sodipodi:cx="232.73328"
       sodipodi:cy="60.400509"
       sodipodi:rx="2.7332759"
       sodipodi:ry="2.369014"
       d="m 235.46655,60.400509 c 0,1.30837 -1.22373,2.369014 -2.73327,2.369014 -1.50955,0 -2.73328,-1.060644 -2.73328,-2.369014 0,-1.30837 1.22373,-2.369014 2.73328,-2.369014 1.50954,0 2.73327,1.060644 2.73327,2.369014 z"
       transform="matrix(0.70959304,0,0,-0.85087876,62.854087,118.40926)" />
    <path
       style="fill:none;stroke:#000000;stroke-width:1px;stroke-linecap:butt;stroke-linejoin:miter;stroke-opacity:1;display:inline;enable-background:new"
       d="m 205,93.031494 c 8.79821,-29.857352 55.1778,-39.631076 77.63759,-40"
       id="path3196"
       inkscape:connector-curvature="0"
       sodipodi:nodetypes="cc" />
    <g
       id="g5436"
       transform="translate(169.77981,2.0157442)">
      <path
         transform="matrix(0.70959304,0,0,-0.85087876,-82.986208,237.40926)"
         d="m 235.46655,60.400509 c 0,1.30837 -1.22373,2.369014 -2.73327,2.369014 -1.50955,0 -2.73328,-1.060644 -2.73328,-2.369014 0,-1.30837 1.22373,-2.369014 2.73328,-2.369014 1.50954,0 2.73327,1.060644 2.73327,2.369014 z"
         sodipodi:ry="2.369014"
         sodipodi:rx="2.7332759"
         sodipodi:cy="60.400509"
         sodipodi:cx="232.73328"
         id="path6727-4-7-7"
         style="fill:#ffffff;fill-rule:evenodd;stroke:#000000;stroke-width:1px;stroke-linecap:butt;stroke-linejoin:miter;stroke-opacity:1;display:inline;enable-background:new"
         sodipodi:type="arc" />
      <path
         inkscape:connector-curvature="0"
         id="path3198"
         d="m 34.707062,186.0315 105.249998,0"
         style="fill:none;stroke:#000000;stroke-width:1px;stroke-linecap:butt;stroke-linejoin:miter;stroke-opacity:1;display:inline;enable-background:new" />
      <path
         style="font-style:normal;font-variant:normal;font-weight:normal;font-stretch:normal;letter-spacing:normal;word-spacing:normal;text-anchor:start;fill:#000000;stroke:#000000;stroke-width:0;stroke-linecap:butt;stroke-linejoin:miter;stroke-miterlimit:10.43299961;stroke-opacity:1;stroke-dasharray:none;stroke-dashoffset:0;display:inline;enable-background:new"
         inkscape:connector-curvature="0"
         d="m 31.932062,176.19649 v -0.525 -3.69 c 0,-0.315 0,-0.81 0.93,-0.81 1.26,0 1.89,0.525 1.89,2.28 h 0.525 c 0,-0.705 -0.09,-1.5 -0.57,-2.115 0.615,0.135 2.1,0.6 2.1,2.1 0,0.975 -0.45,1.74 -1.995,2.025 h 0 c 0.42,-0.555 0.465,-1.35 0.465,-2.01 h -0.525 c 0,1.935 -0.465,2.22 -2.82,2.22 v 0.525 h 0.54 l 2.235,3.45 c 0.15,0.24 0.51,0.825 0.675,1.05 l 0.39,-0.345 -2.685,-4.155 c 0.09,-0.015 0.165,-0.03 0.27,-0.03 0.225,0 0.555,-0.03 0.78,-0.06 0.225,0.345 1.845,3.015 3.09,4.245 h -1.455 l -0.39,0.345 c 0.105,0.18 0.15,0.18 0.495,0.18 h 2.055 c 0.27,0 0.495,0 0.495,-0.27 0,-0.12 -0.09,-0.225 -0.225,-0.255 -0.54,-0.12 -1.275,-1.095 -1.635,-1.575 -0.105,-0.15 -0.855,-1.14 -1.86,-2.745 1.335,-0.24 2.625,-0.81 2.625,-2.595 0,-2.07 -2.205,-2.79 -3.975,-2.79 h -4.695 c -0.255,0 -0.495,0 -0.495,0.27 0,0.255 0.285,0.255 0.39,0.255 0.855,0 0.93,0.105 0.93,0.855 v 7.485 l 0.525,0.015 v -7.53 c 0,-0.15 0,-0.555 -0.12,-0.825 h 1.71 c -0.195,0.24 -0.195,0.54 -0.195,0.765 v 7.59 c 0,0.165 0,0.555 0.12,0.825 h -1.635 c 0.12,-0.27 0.12,-0.675 0.12,-0.825 l -0.525,-0.015 c 0,0.735 -0.075,0.84 -0.93,0.84 -0.105,0 -0.39,0 -0.39,0.255 0,0.27 0.24,0.27 0.495,0.27 h 4.11 c 0.27,0 0.48,0 0.48,-0.27 0,-0.255 -0.255,-0.255 -0.405,-0.255 -0.855,0 -0.915,-0.12 -0.915,-0.84 z"
         id="path4633" />
    </g>
    <path
       id="path4635"
       d="m 80.675,126.35149 -0.06,0.09 -0.045,0.09 -0.06,0.09 -0.06,0.075 -0.06,0.075 -0.045,0.06 -0.06,0.075 -0.06,0.06 -0.045,0.06 -0.06,0.045 -0.06,0.06 -0.06,0.045 -0.045,0.045 -0.06,0.045 -0.06,0.03 -0.06,0.045 -0.06,0.03 -0.045,0.03 -0.06,0.03 -0.06,0.03 -0.06,0.015 -0.06,0.015 -0.06,0.03 -0.06,0.015 -0.045,0.015 -0.06,0.015 -0.06,0 -0.06,0.015 -0.12,0.015 -0.135,0.015 c -0.165,0.015 -0.3,0.015 -0.3,0.3 0,0.09 0.06,0.165 0.18,0.165 0.405,0 0.87,-0.045 1.29,-0.045 0.495,0 1.02,0.045 1.5,0.045 0.09,0 0.285,0 0.285,-0.285 0,-0.165 -0.135,-0.18 -0.24,-0.18 -0.345,-0.03 -0.705,-0.15 -0.705,-0.525 0,-0.18 0.09,-0.345 0.21,-0.555 l 1.14,-1.905 h 3.75 l -0.045,-0.465 h -3.42 l 2.94,-4.935 0.48,4.935 0.045,0.465 c 0.03,0.315 0.24,2.34 0.24,2.49 0,0.45 -0.78,0.495 -1.08,0.495 -0.21,0 -0.36,0 -0.36,0.3 0,0.165 0.18,0.165 0.21,0.165 0.615,0 1.26,-0.045 1.875,-0.045 0.375,0 1.305,0.045 1.68,0.045 0.09,0 0.27,0 0.27,-0.3 0,-0.165 -0.15,-0.165 -0.345,-0.165 -0.915,0 -0.915,-0.105 -0.96,-0.54 l -0.915,-9.33 c -0.03,-0.3 -0.03,-0.36 -0.285,-0.36 -0.24,0 -0.3,0.105 -0.39,0.255 z"
       inkscape:connector-curvature="0"
       style="font-style:normal;font-variant:normal;font-weight:normal;font-stretch:normal;letter-spacing:normal;word-spacing:normal;text-anchor:start;fill:#000000;stroke:#000000;stroke-width:0;stroke-linecap:butt;stroke-linejoin:miter;stroke-miterlimit:10.43299961;stroke-opacity:1;stroke-dasharray:none;stroke-dashoffset:0;display:inline;enable-background:new" />
    <path
       id="path4637"
       d="m 282.44,95.066494 -0.015,0.045 -0.015,0.045 -0.015,0.06 0,0.045 -0.015,0.045 -0.015,0.03 -0.015,0.045 -0.015,0.03 -0.015,0.03 -0.03,0.045 -0.015,0.03 -0.015,0.015 -0.03,0.03 -0.03,0.03 -0.015,0.015 -0.03,0.015 -0.045,0.03 -0.03,0.015 -0.045,0.015 -0.045,0.015 -0.045,0.015 -0.03,0 -0.03,0 -0.03,0.015 -0.03,0 -0.03,0 -0.03,0 -0.03,0.015 -0.03,0 -0.03,0 -0.045,0 -0.03,0 -0.045,0.015 -0.045,0 -0.045,0 -0.03,0 -0.045,0 -0.06,0 -0.045,0 -0.045,0 -0.045,0 -0.06,0 -0.06,0 c -0.255,0 -0.405,0 -0.405,0.3 0,0.165 0.135,0.165 0.405,0.165 h 5.34 c 2.37,0 4.125,-1.755 4.125,-3.225 0,-1.08 -0.855,-1.935 -2.31,-2.1 1.56,-0.285 3.12,-1.395 3.12,-2.805 0,-1.11 -0.99,-2.07 -2.775,-2.07 l -0.21,0.465 c 1.32,0 1.635,0.885 1.635,1.545 0,1.305 -1.29,2.73 -3.12,2.73 h -2.175 l -0.09,0.33 h 2.82 c 1.44,0 1.725,1.095 1.725,1.74 0,1.485 -1.335,2.925 -3.105,2.925 h -2.025 c -0.21,0 -0.24,0 -0.33,-0.015 -0.15,-0.015 -0.195,-0.03 -0.195,-0.15 0,-0.045 0,-0.075 0.075,-0.345 l 1.035,-4.155 0.09,-0.33 0.915,-3.705 c 0.135,-0.525 0.165,-0.57 0.81,-0.57 h 1.935 l 0.21,-0.465 h -5.025 c -0.285,0 -0.435,0 -0.435,0.3 0,0.165 0.135,0.165 0.42,0.165 0.03,0 0.315,0 0.57,0.03 0.27,0.03 0.405,0.045 0.405,0.24 0,0.06 -0.015,0.105 -0.06,0.285 z"
       inkscape:connector-curvature="0"
       style="font-style:normal;font-variant:normal;font-weight:normal;font-stretch:normal;letter-spacing:normal;word-spacing:normal;text-anchor:start;fill:#000000;stroke:#000000;stroke-width:0;stroke-linecap:butt;stroke-linejoin:miter;stroke-miterlimit:10.43299961;stroke-opacity:1;stroke-dasharray:none;stroke-dashoffset:0;display:inline;enable-background:new" />
    <g
       id="g5390"
       transform="translate(-5.000009,1.7634161)">
      <path
         id="path3839"
         d="m 55.604928,53.617798 0,-0.02472 0,-0.03708 0,-0.02472 0,-0.02472 0,-0.03708 -0.0128,-0.02472 0,-0.02472 0,-0.02472 -0.0128,-0.04944 0,-0.04944 -0.0128,-0.04944 -0.0128,-0.03708 -0.0128,-0.04944 -0.0128,-0.03708 -0.02559,-0.03708 -0.0128,-0.02472 -0.0128,-0.03708 -0.02559,-0.02472 -0.0128,-0.03708 -0.02559,-0.02472 -0.02559,-0.02472 -0.0128,-0.01236 -0.02559,-0.02472 -0.02559,-0.02472 -0.02559,-0.01236 -0.02559,-0.01236 -0.0128,-0.01236 -0.02559,-0.01236 -0.02559,-0.01236 -0.02559,-0.01236 -0.02559,0 -0.02559,-0.01236 -0.0128,0 -0.02559,0 -0.02559,0 -0.02559,0 c -0.319916,0 -0.627035,0.321336 -0.627035,0.580877 0,0.160668 0.06398,0.234823 0.204746,0.370772 0.26873,0.247182 0.435086,0.568518 0.435086,1.013445 0,0.519081 -0.780595,3.336951 -2.265006,3.336951 -0.652629,0 -0.946952,-0.432568 -0.946952,-1.07524 0,-0.692108 0.345509,-1.581962 0.742205,-2.607765 0.08958,-0.210105 0.15356,-0.383132 0.15356,-0.617954 0,-0.556159 -0.409493,-1.001086 -1.049325,-1.001086 -1.202885,0 -1.689158,1.779708 -1.689158,1.890939 0,0.123591 0.127967,0.123591 0.166357,0.123591 0.11517,0 0.127966,-0.02472 0.19195,-0.222463 0.371102,-1.248267 0.921358,-1.532526 1.292461,-1.532526 0.102373,0 0.319916,0 0.319916,0.39549 0,0.308977 -0.127966,0.642673 -0.217543,0.865136 -0.563052,1.433653 -0.729409,1.989812 -0.729409,2.521252 0,1.322421 1.126105,1.520167 1.714751,1.520167 2.13704,0 2.866449,-4.066137 2.866449,-4.708809 z"
         inkscape:connector-curvature="0"
         style="font-style:normal;font-variant:normal;font-weight:normal;font-stretch:normal;letter-spacing:normal;word-spacing:normal;text-anchor:start;fill:#000000;stroke:#000000;stroke-width:0;stroke-linecap:butt;stroke-linejoin:miter;stroke-miterlimit:10.43299961;stroke-opacity:1;stroke-dasharray:none;stroke-dashoffset:0" />
      <path
         id="path3841"
         d="m 59.162396,48.35283 0,-0.01236 0,-0.01236 0,-0.01236 0,-0.01236 -0.0128,-0.01236 0,-0.01236 0,-0.01236 -0.0128,-0.01236 0,-0.02472 -0.0128,-0.01236 0,-0.01236 -0.0128,-0.01236 0,-0.01236 -0.0128,-0.01236 -0.0128,-0.01236 -0.0128,-0.01236 -0.0128,-0.01236 0,-0.01236 -0.0128,-0.01236 -0.02559,-0.01236 -0.0128,0 -0.0128,-0.01236 -0.0128,-0.01236 -0.0128,0 -0.02559,-0.01236 -0.0128,-0.01236 -0.02559,0 -0.0128,0 -0.02559,-0.01236 -0.0128,0 -0.02559,0 -0.02559,0 c -0.243137,0 -0.49907,0.222464 -0.49907,0.469645 0,0.148309 0.11517,0.333695 0.358307,0.333695 0.255933,0 0.499069,-0.247181 0.499069,-0.482004 z"
         inkscape:connector-curvature="0"
         style="font-style:normal;font-variant:normal;font-weight:normal;font-stretch:normal;letter-spacing:normal;word-spacing:normal;text-anchor:start;fill:#000000;stroke:#000000;stroke-width:0;stroke-linecap:butt;stroke-linejoin:miter;stroke-miterlimit:10.43299961;stroke-opacity:1;stroke-dasharray:none;stroke-dashoffset:0" />
      <path
         id="path3843"
         d="m 57.345272,52.727944 -0.0128,0.01236 0,0.02472 -0.0128,0.03708 -0.0128,0.02472 0,0.02472 -0.0128,0.01236 0,0.02472 -0.0128,0.02472 0,0.02472 -0.0128,0.02472 0,0.02472 0,0.01236 0,0.01236 0,0.01236 0,0.01236 0,0.01236 0,0.01236 0,0.01236 0,0.01236 c 0,0.395491 0.358306,0.729186 0.844579,0.729186 0.882968,0 1.279664,-1.186472 1.279664,-1.310062 0,-0.111232 -0.115169,-0.111232 -0.140763,-0.111232 -0.127966,0 -0.127966,0.04944 -0.166356,0.13595 -0.204746,0.692108 -0.601442,1.038162 -0.946952,1.038162 -0.179153,0 -0.23034,-0.09887 -0.23034,-0.296617 0,-0.197746 0.06398,-0.358414 0.15356,-0.5438 0.08958,-0.234822 0.179153,-0.469645 0.281526,-0.692108 0.07678,-0.210105 0.396696,-0.988727 0.435086,-1.087599 0.02559,-0.08651 0.05119,-0.197745 0.05119,-0.2719 0,-0.407849 -0.358306,-0.741545 -0.844579,-0.741545 -0.882968,0 -1.292461,1.174113 -1.292461,1.322422 0,0.111231 0.127966,0.111231 0.15356,0.111231 0.127966,0 0.127966,-0.04944 0.153559,-0.135949 0.243137,-0.741545 0.627036,-1.050522 0.959749,-1.050522 0.140763,0 0.217543,0.0618 0.217543,0.296618 0,0.197745 -0.05119,0.333695 -0.26873,0.865135 z"
         inkscape:connector-curvature="0"
         style="font-style:normal;font-variant:normal;font-weight:normal;font-stretch:normal;letter-spacing:normal;word-spacing:normal;text-anchor:start;fill:#000000;stroke:#000000;stroke-width:0;stroke-linecap:butt;stroke-linejoin:miter;stroke-miterlimit:10.43299961;stroke-opacity:1;stroke-dasharray:none;stroke-dashoffset:0" />
      <path
         id="path3845"
         d="m 72.816418,54.173956 0.03839,0 0.03839,0 0.03839,0 0.02559,0 0.0128,0 0.02559,0 0.0128,-0.01236 0.0128,0 0.02559,0 0.0128,0 0.02559,-0.01236 0.0128,0 0.0128,0 0.0128,-0.01236 0.0128,0 0.02559,-0.01236 0.0128,-0.01236 0.0128,-0.01236 0.0128,0 0,-0.01236 0.0128,-0.01236 0.0128,-0.01236 0,0 0,-0.01236 0.0128,-0.01236 0,0 0,-0.01236 0,-0.01236 0.0128,0 0,-0.01236 0,-0.01236 0,0 0,-0.01236 0,-0.01236 0,-0.01236 0,-0.01236 0,-0.01236 c 0,-0.247182 -0.243136,-0.247182 -0.409492,-0.247182 h -7.652395 c -0.166357,0 -0.409493,0 -0.409493,0.247182 0,0.247181 0.243136,0.247181 0.422289,0.247181 z"
         inkscape:connector-curvature="0"
         style="font-style:normal;font-variant:normal;font-weight:normal;font-stretch:normal;letter-spacing:normal;word-spacing:normal;text-anchor:start;fill:#000000;stroke:#000000;stroke-width:0;stroke-linecap:butt;stroke-linejoin:miter;stroke-miterlimit:10.43299961;stroke-opacity:1;stroke-dasharray:none;stroke-dashoffset:0" />
      <path
         id="path3847"
         d="m 72.842012,56.559258 0.02559,0 0.03839,0 0.03839,0 0.0128,0 0.02559,0 0.0128,0 0.0128,-0.01236 0.02559,0 0.0128,0 0.0128,0 0.02559,-0.01236 0.0128,0 0.0128,0 0.0128,-0.01236 0.02559,0 0.0128,-0.01236 0.0128,-0.01236 0.0128,-0.01236 0.0128,0 0,-0.01236 0.0128,-0.01236 0,0 0.0128,-0.01236 0,0 0,-0.01236 0.0128,-0.01236 0,0 0,-0.01236 0,-0.01236 0.0128,0 0,-0.01236 0,-0.01236 0,0 0,-0.01236 0,-0.01236 0,-0.01236 0,-0.01236 0,-0.01236 c 0,-0.247182 -0.243136,-0.247182 -0.435086,-0.247182 h -7.614005 c -0.179153,0 -0.422289,0 -0.422289,0.247182 0,0.247181 0.243136,0.247181 0.409493,0.247181 z"
         inkscape:connector-curvature="0"
         style="font-style:normal;font-variant:normal;font-weight:normal;font-stretch:normal;letter-spacing:normal;word-spacing:normal;text-anchor:start;fill:#000000;stroke:#000000;stroke-width:0;stroke-linecap:butt;stroke-linejoin:miter;stroke-miterlimit:10.43299961;stroke-opacity:1;stroke-dasharray:none;stroke-dashoffset:0" />
      <path
         id="path3849"
         d="m 78.03745,55.076169 0.02559,-0.07415 0.02559,-0.0618 0.02559,-0.06179 0.02559,-0.04944 0.02559,-0.06179 0.03839,-0.0618 0.02559,-0.04944 0.03839,-0.04944 0.02559,-0.04944 0.03839,-0.04944 0.03839,-0.04944 0.02559,-0.03708 0.07678,-0.08651 0.07678,-0.08651 0.07678,-0.0618 0.07678,-0.07415 0.07678,-0.0618 0.08958,-0.04944 0.07678,-0.04944 0.07678,-0.04944 0.08958,-0.03708 0.07678,-0.03708 0.07678,-0.02472 0.07678,-0.03708 0.07678,-0.02472 0.07678,-0.01236 0.07678,-0.02472 0.06398,-0.01236 0.06398,-0.01236 0.06398,-0.01236 0.05119,0 0.05119,-0.01236 0.05119,0 0.03839,0 0.03839,-0.01236 0.03839,0 0.0128,0 0.02559,0 c 1.919497,0 2.06026,2.15048 2.06026,3.126847 0,0.753903 -0.06398,0.964008 -0.153559,1.211189 -0.281527,0.889854 -0.665426,2.323507 -0.665426,2.644843 0,0.123591 0.06398,0.210104 0.166356,0.210104 0.166357,0 0.26873,-0.25954 0.409493,-0.729185 0.294323,-1.038163 0.42229,-1.74263 0.473476,-2.113403 0.02559,-0.160668 0.05119,-0.321336 0.102373,-0.482004 0.409493,-1.223548 1.228478,-3.052692 1.740344,-4.029059 0.08958,-0.148309 0.243137,-0.40785 0.243137,-0.469645 0,-0.123591 -0.127967,-0.123591 -0.15356,-0.123591 -0.03839,0 -0.11517,0 -0.15356,0.09887 -0.665426,1.161753 -1.177291,2.397661 -1.689157,3.633569 -0.0128,-0.383132 -0.02559,-1.310063 -0.524663,-2.508893 -0.307119,-0.753904 -0.818985,-1.34714 -1.689157,-1.34714 -1.599581,0 -2.495347,1.866221 -2.495347,2.249353 0,0.12359 0.11517,0.12359 0.243137,0.12359 z"
         inkscape:connector-curvature="0"
         style="font-style:normal;font-variant:normal;font-weight:normal;font-stretch:normal;letter-spacing:normal;word-spacing:normal;text-anchor:start;fill:#000000;stroke:#000000;stroke-width:0;stroke-linecap:butt;stroke-linejoin:miter;stroke-miterlimit:10.43299961;stroke-opacity:1;stroke-dasharray:none;stroke-dashoffset:0" />
      <path
         id="path3851"
         d="m 87.0079,54.668319 0,-0.01236 0,-0.01236 -0.0128,-0.01236 0,-0.01236 0,-0.01236 0,-0.01236 -0.0128,-0.01236 0,-0.01236 0,-0.02472 -0.0128,-0.01236 0,-0.01236 -0.0128,-0.01236 -0.0128,-0.01236 0,-0.01236 -0.0128,-0.01236 -0.0128,-0.01236 -0.0128,-0.01236 -0.0128,-0.01236 -0.0128,-0.01236 -0.0128,-0.01236 -0.0128,0 -0.0128,-0.01236 -0.0128,-0.01236 -0.02559,0 -0.0128,-0.01236 -0.0128,-0.01236 -0.02559,0 -0.0128,0 -0.02559,-0.01236 -0.02559,0 -0.0128,0 -0.02559,0 c -0.243136,0 -0.499069,0.222464 -0.499069,0.469645 0,0.148309 0.115169,0.333695 0.358306,0.333695 0.255933,0 0.499069,-0.247181 0.499069,-0.482004 z"
         inkscape:connector-curvature="0"
         style="font-style:normal;font-variant:normal;font-weight:normal;font-stretch:normal;letter-spacing:normal;word-spacing:normal;text-anchor:start;fill:#000000;stroke:#000000;stroke-width:0;stroke-linecap:butt;stroke-linejoin:miter;stroke-miterlimit:10.43299961;stroke-opacity:1;stroke-dasharray:none;stroke-dashoffset:0" />
      <path
         id="path3853"
         d="m 85.190776,59.043433 -0.0128,0.01236 0,0.02472 -0.0128,0.03708 -0.0128,0.02472 -0.0128,0.02472 0,0.01236 -0.0128,0.02472 0,0.02472 0,0.02472 -0.0128,0.02472 0,0.02472 0,0.01236 0,0.01236 0,0.01236 0,0.01236 -0.0128,0.01236 0,0.01236 0,0.01236 0,0.01236 c 0,0.40785 0.358306,0.729186 0.857375,0.729186 0.882969,0 1.279665,-1.186472 1.279665,-1.310062 0,-0.111232 -0.11517,-0.111232 -0.140763,-0.111232 -0.127967,0 -0.140764,0.04944 -0.166357,0.13595 -0.204746,0.692108 -0.601442,1.050521 -0.946952,1.050521 -0.179153,0 -0.230339,-0.111231 -0.230339,-0.308976 0,-0.197746 0.06398,-0.358414 0.140763,-0.5438 0.08958,-0.234822 0.191949,-0.469645 0.294323,-0.692108 0.07678,-0.210105 0.396696,-0.988727 0.435086,-1.087599 0.02559,-0.08651 0.05119,-0.197745 0.05119,-0.284259 0,-0.39549 -0.358306,-0.729186 -0.844579,-0.729186 -0.882968,0 -1.292461,1.174113 -1.292461,1.322422 0,0.111231 0.127967,0.111231 0.15356,0.111231 0.11517,0 0.127966,-0.04944 0.15356,-0.135949 0.230339,-0.741545 0.627035,-1.050522 0.959748,-1.050522 0.140763,0 0.217543,0.06179 0.217543,0.296618 0,0.197745 -0.05119,0.333695 -0.268729,0.865135 z"
         inkscape:connector-curvature="0"
         style="font-style:normal;font-variant:normal;font-weight:normal;font-stretch:normal;letter-spacing:normal;word-spacing:normal;text-anchor:start;fill:#000000;stroke:#000000;stroke-width:0;stroke-linecap:butt;stroke-linejoin:miter;stroke-miterlimit:10.43299961;stroke-opacity:1;stroke-dasharray:none;stroke-dashoffset:0" />
      <path
         id="path3855"
         d="m 92.587238,61.144476 0,0 0,-0.01236 0,0 0,0 0,-0.01236 0,0 -0.0128,0 0,-0.01236 0,0 0,0 0,-0.01236 -0.0128,0 0,-0.01236 0,0 -0.0128,-0.01236 0,-0.01236 -0.0128,0 0,-0.01236 -0.0128,0 0,-0.01236 0,0 -0.0128,-0.01236 0,0 -0.0128,0 0,-0.01236 0,0 -0.0128,-0.01236 0,0 -0.0128,-0.01236 0,0 -0.0128,-0.01236 0,-0.01236 -0.0128,0 -0.0128,-0.01236 0,0 -0.0128,-0.01236 -0.0128,-0.01236 0,-0.01236 -0.0128,0 -0.0128,-0.01236 0,-0.01236 -0.0128,0 c -1.599581,-1.557244 -2.009073,-3.880751 -2.009073,-5.759331 0,-2.13812 0.486272,-4.2886 2.06026,-5.821126 0.166356,-0.148309 0.166356,-0.173027 0.166356,-0.210104 0,-0.08651 -0.05119,-0.123591 -0.127966,-0.123591 -0.127967,0 -1.279665,0.840418 -2.034667,2.397661 -0.652629,1.359499 -0.793392,2.718998 -0.793392,3.75716 0,0.951649 0.127966,2.447098 0.831782,3.831315 0.767799,1.520166 1.86831,2.311147 1.996277,2.311147 0.07678,0 0.127966,-0.03708 0.127966,-0.123591 z"
         inkscape:connector-curvature="0"
         style="font-style:normal;font-variant:normal;font-weight:normal;font-stretch:normal;letter-spacing:normal;word-spacing:normal;text-anchor:start;fill:#000000;stroke:#000000;stroke-width:0;stroke-linecap:butt;stroke-linejoin:miter;stroke-miterlimit:10.43299961;stroke-opacity:1;stroke-dasharray:none;stroke-dashoffset:0" />
      <path
         id="path3857"
         d="m 99.190308,54.26047 0,-0.185386 0,-0.185387 -0.0128,-0.185386 -0.0128,-0.185386 0,-0.173027 -0.02559,-0.185386 -0.0128,-0.185386 -0.02559,-0.185387 -0.02559,-0.173027 -0.03839,-0.185386 -0.03839,-0.173027 -0.05119,-0.185386 -0.05119,-0.173027 -0.06398,-0.173027 -0.07678,-0.173027 -0.03839,-0.08651 -0.03839,-0.08651 c -0.588646,-1.174113 -1.637971,-1.371858 -2.162633,-1.371858 -0.767799,0 -1.701954,0.308977 -2.226617,1.458371 -0.409492,0.852777 -0.473476,1.804426 -0.473476,2.793152 0,0.926931 0.05119,2.026889 0.575849,2.966179 0.550256,0.988726 1.484412,1.235907 2.098651,1.235907 v -0.271899 c -0.486273,0 -1.241275,-0.296618 -1.471615,-1.48309 -0.140763,-0.741544 -0.140763,-1.866221 -0.140763,-2.595406 0,-0.790981 0,-1.594321 0.102373,-2.261711 0.243137,-1.458372 1.190088,-1.569603 1.510005,-1.569603 0.422289,0 1.266868,0.210104 1.510004,1.433653 0.127966,0.692108 0.127966,1.619039 0.127966,2.397661 0,0.926931 0,1.754989 -0.140763,2.54597 -0.191949,1.174112 -0.921358,1.532526 -1.497207,1.532526 h 0 v 0.271899 c 0.691019,0 1.663564,-0.25954 2.226616,-1.421294 0.409493,-0.852776 0.473476,-1.804425 0.473476,-2.780792 z"
         inkscape:connector-curvature="0"
         style="font-style:normal;font-variant:normal;font-weight:normal;font-stretch:normal;letter-spacing:normal;word-spacing:normal;text-anchor:start;fill:#000000;stroke:#000000;stroke-width:0;stroke-linecap:butt;stroke-linejoin:miter;stroke-miterlimit:10.43299961;stroke-opacity:1;stroke-dasharray:none;stroke-dashoffset:0" />
      <path
         id="path3859"
         d="m 103.38761,55.125605 -0.0128,-0.09887 0,-0.08651 0,-0.09887 0,-0.09887 -0.0128,-0.210104 -0.0128,-0.222464 -0.0256,-0.222463 -0.0256,-0.234823 -0.0384,-0.247181 -0.0384,-0.247182 -0.0512,-0.247181 -0.0512,-0.259541 -0.0768,-0.259541 -0.0768,-0.25954 -0.0896,-0.259541 -0.10237,-0.259541 -0.0512,-0.13595 -0.064,-0.135949 -0.0512,-0.123591 -0.064,-0.13595 c -0.7678,-1.507808 -1.86831,-2.311148 -1.99628,-2.311148 -0.0768,0 -0.12796,0.04944 -0.12796,0.123591 0,0.03708 0,0.0618 0.24313,0.284259 1.25407,1.21119 1.98348,3.176283 1.98348,5.746971 0,2.101044 -0.47347,4.263882 -2.06026,5.808767 -0.16635,0.148309 -0.16635,0.173027 -0.16635,0.210104 0,0.07416 0.0512,0.123591 0.12796,0.123591 0.12797,0 1.27967,-0.828058 2.03467,-2.397661 0.65263,-1.34714 0.80619,-2.718997 0.80619,-3.744801 z"
         inkscape:connector-curvature="0"
         style="font-style:normal;font-variant:normal;font-weight:normal;font-stretch:normal;letter-spacing:normal;word-spacing:normal;text-anchor:start;fill:#000000;stroke:#000000;stroke-width:0;stroke-linecap:butt;stroke-linejoin:miter;stroke-miterlimit:10.43299961;stroke-opacity:1;stroke-dasharray:none;stroke-dashoffset:0" />
    </g>
    <g
       id="g4158"
       transform="matrix(0.77988443,0,0,0.78767329,-177.66518,28.286307)">
      <path
         id="path3861"
         d="m 368.845,6.3965 0,-0.015 0.015,-0.015 0,-0.015 0,-0.03 0,-0.03 0.015,-0.015 0,-0.015 0,-0.015 0,-0.015 0.015,-0.015 0,-0.015 0,-0.015 0,-0.03 0,0 0,-0.015 0,0 0,-0.015 c 0,-0.255 -0.18,-0.405 -0.435,-0.405 -0.15,0 -0.555,0.105 -0.615,0.645 -0.27,-0.555 -0.78,-0.945 -1.38,-0.945 l 0.015,0.33 c 0.975,0 1.185,1.215 1.185,1.29 0,0.075 -0.03,0.165 -0.045,0.225 l -0.72,2.85 c -0.09,0.375 -0.42,0.75 -0.75,1.035 -0.315,0.27 -0.78,0.54 -1.215,0.54 -0.75,0 -0.975,-0.78 -0.975,-1.38 0,-0.705 0.435,-2.475 0.84,-3.225 0.405,-0.735 1.05,-1.335 1.68,-1.335 l -0.015,-0.33 c -1.71,0 -3.57,2.085 -3.57,4.245 0,1.47 0.915,2.355 1.995,2.355 0.885,0 1.59,-0.705 1.74,-0.87 l 0.015,0.015 c -0.315,1.335 -0.495,1.95 -0.495,1.98 -0.06,0.135 -0.57,1.605 -2.16,1.605 -0.285,0 -0.78,-0.015 -1.2,-0.15 0.45,-0.135 0.615,-0.525 0.615,-0.78 0,-0.24 -0.165,-0.51 -0.57,-0.51 -0.315,0 -0.795,0.27 -0.795,0.855 0,0.615 0.54,0.915 1.98,0.915 1.875,0 2.955,-1.17 3.165,-2.055 z"
         inkscape:connector-curvature="0"
         style="font-style:normal;font-variant:normal;font-weight:normal;font-stretch:normal;letter-spacing:normal;word-spacing:normal;text-anchor:start;fill:#000000;stroke:#000000;stroke-width:0;stroke-linecap:butt;stroke-linejoin:miter;stroke-miterlimit:10.43299961;stroke-opacity:1;stroke-dasharray:none;stroke-dashoffset:0" />
      <path
         id="path3863"
         d="m 372.85,0.0815 0,-0.015 0,-0.015 0,-0.015 0,-0.015 -0.015,-0.03 0,-0.015 0,-0.015 -0.015,-0.015 0,-0.015 0,-0.015 -0.015,-0.015 -0.015,-0.015 0,-0.015 -0.015,-0.015 -0.015,-0.015 0,-0.015 -0.015,-0.015 -0.015,-0.015 -0.015,-0.015 -0.015,-0.015 -0.015,-0.015 -0.03,-0.015 -0.015,0 -0.015,-0.015 -0.015,-0.015 -0.03,0 -0.015,0 -0.03,-0.015 -0.03,0 -0.015,0 -0.03,0 -0.03,0 c -0.285,0 -0.585,0.27 -0.585,0.57 0,0.18 0.135,0.39 0.42,0.39 0.3,0 0.585,-0.285 0.585,-0.57 z"
         inkscape:connector-curvature="0"
         style="font-style:normal;font-variant:normal;font-weight:normal;font-stretch:normal;letter-spacing:normal;word-spacing:normal;text-anchor:start;fill:#000000;stroke:#000000;stroke-width:0;stroke-linecap:butt;stroke-linejoin:miter;stroke-miterlimit:10.43299961;stroke-opacity:1;stroke-dasharray:none;stroke-dashoffset:0" />
      <path
         id="path3865"
         d="m 370.72,5.3765 0,0.03 -0.015,0.03 -0.015,0.045 -0.015,0.03 0,0.015 -0.015,0.03 0,0.03 -0.015,0.015 0,0.03 0,0.03 -0.015,0.03 0,0.015 0,0.015 0,0.015 0,0.015 0,0.015 0,0.015 0,0.015 0,0.015 c 0,0.495 0.42,0.9 0.99,0.9 1.05,0 1.5,-1.455 1.5,-1.605 0,-0.135 -0.135,-0.135 -0.165,-0.135 -0.15,0 -0.15,0.06 -0.195,0.18 -0.24,0.84 -0.705,1.26 -1.11,1.26 -0.21,0 -0.255,-0.135 -0.255,-0.36 0,-0.24 0.075,-0.45 0.165,-0.675 0.105,-0.285 0.21,-0.555 0.33,-0.825 0.09,-0.255 0.465,-1.2 0.51,-1.335 0.03,-0.105 0.06,-0.225 0.06,-0.33 0,-0.495 -0.405,-0.885 -0.99,-0.885 -1.035,0 -1.515,1.41 -1.515,1.59 0,0.135 0.15,0.135 0.18,0.135 0.15,0 0.165,-0.045 0.195,-0.165 0.27,-0.9 0.72,-1.275 1.11,-1.275 0.165,0 0.27,0.09 0.27,0.375 0,0.24 -0.075,0.39 -0.33,1.035 z"
         inkscape:connector-curvature="0"
         style="font-style:normal;font-variant:normal;font-weight:normal;font-stretch:normal;letter-spacing:normal;word-spacing:normal;text-anchor:start;fill:#000000;stroke:#000000;stroke-width:0;stroke-linecap:butt;stroke-linejoin:miter;stroke-miterlimit:10.43299961;stroke-opacity:1;stroke-dasharray:none;stroke-dashoffset:0" />
      <path
         id="path3867"
         d="m 379.39,15.6065 0,-0.015 0,0 0,0 0,-0.015 0,0 0,0 0,-0.015 0,0 0,0 -0.015,-0.015 0,0 0,-0.015 -0.015,0 0,-0.015 0,0 -0.015,-0.015 0,-0.015 -0.015,0 0,-0.015 -0.015,0 0,-0.015 0,0 -0.015,0 0,-0.015 -0.015,0 0,-0.015 0,0 -0.015,-0.015 0,0 -0.015,-0.015 0,-0.015 -0.015,0 -0.015,-0.015 0,0 -0.015,-0.015 0,-0.015 -0.015,0 -0.015,-0.015 -0.015,-0.015 0,0 -0.015,-0.015 -0.015,-0.015 c -1.86,-1.875 -2.34,-4.695 -2.34,-6.99 0,-2.595 0.57,-5.19 2.4,-7.065 0.195,-0.18 0.195,-0.195 0.195,-0.255 0,-0.09 -0.06,-0.135 -0.15,-0.135 -0.15,0 -1.485,1.005 -2.37,2.91 -0.765,1.635 -0.945,3.3 -0.945,4.545 0,1.17 0.165,2.97 0.99,4.665 0.885,1.83 2.175,2.805 2.325,2.805 0.09,0 0.15,-0.045 0.15,-0.15 z"
         inkscape:connector-curvature="0"
         style="font-style:normal;font-variant:normal;font-weight:normal;font-stretch:normal;letter-spacing:normal;word-spacing:normal;text-anchor:start;fill:#000000;stroke:#000000;stroke-width:0;stroke-linecap:butt;stroke-linejoin:miter;stroke-miterlimit:10.43299961;stroke-opacity:1;stroke-dasharray:none;stroke-dashoffset:0" />
      <path
         id="path3869"
         d="m 385.255,7.5065 0,-0.03 0.015,-0.045 0.015,-0.045 0.015,-0.06 0.015,-0.06 0.015,-0.06 0.015,-0.06 0.03,-0.075 0.015,-0.06 0.03,-0.075 0.03,-0.075 0.03,-0.075 0.03,-0.075 0.045,-0.075 0.03,-0.075 0.045,-0.075 0.045,-0.075 0.045,-0.075 0.045,-0.06 0.06,-0.075 0.06,-0.06 0.06,-0.06 0.06,-0.06 0.06,-0.045 0.075,-0.045 0.075,-0.045 0.03,-0.03 0.045,-0.015 0.045,-0.015 0.03,-0.015 0.045,-0.015 0.045,-0.015 0.045,0 0.045,-0.015 0.045,0 0.045,-0.015 0.045,0 0.045,0 c 0.075,0 0.435,0 0.75,0.195 -0.42,0.075 -0.72,0.45 -0.72,0.81 0,0.24 0.165,0.525 0.57,0.525 0.33,0 0.81,-0.27 0.81,-0.87 0,-0.78 -0.885,-0.99 -1.395,-0.99 -0.855,0 -1.38,0.795 -1.56,1.14 -0.375,-0.99 -1.185,-1.14 -1.62,-1.14 -1.56,0 -2.415,1.92 -2.415,2.295 0,0.15 0.165,0.15 0.195,0.15 0.105,0 0.15,-0.03 0.18,-0.165 0.51,-1.575 1.5,-1.95 2.01,-1.95 0.285,0 0.81,0.135 0.81,1.005 0,0.45 -0.255,1.455 -0.81,3.555 -0.24,0.915 -0.765,1.545 -1.425,1.545 -0.09,0 -0.435,0 -0.75,-0.195 0.375,-0.075 0.705,-0.39 0.705,-0.81 0,-0.39 -0.33,-0.525 -0.555,-0.525 -0.45,0 -0.81,0.39 -0.81,0.87 0,0.69 0.735,0.99 1.395,0.99 0.99,0 1.53,-1.05 1.575,-1.14 0.18,0.555 0.72,1.14 1.62,1.14 1.53,0 2.385,-1.92 2.385,-2.295 0,-0.15 -0.135,-0.15 -0.18,-0.15 -0.135,0 -0.165,0.06 -0.195,0.165 -0.495,1.59 -1.5,1.95 -1.98,1.95 -0.585,0 -0.825,-0.48 -0.825,-0.99 0,-0.315 0.09,-0.645 0.255,-1.305 z"
         inkscape:connector-curvature="0"
         style="font-style:normal;font-variant:normal;font-weight:normal;font-stretch:normal;letter-spacing:normal;word-spacing:normal;text-anchor:start;fill:#000000;stroke:#000000;stroke-width:0;stroke-linecap:butt;stroke-linejoin:miter;stroke-miterlimit:10.43299961;stroke-opacity:1;stroke-dasharray:none;stroke-dashoffset:0" />
      <path
         id="path3871"
         d="m 392.29,-0.0385 0,-0.015 0,0 0,-0.015 0,-0.015 0,-0.015 0,-0.015 0,0 0,-0.015 0,-0.015 0,0 0,-0.015 0,0 0,-0.015 0,-0.015 0,0 0,-0.015 0,0 0,-0.015 -0.015,-0.015 0,0 0,-0.015 -0.015,-0.015 0,0 0,-0.015 -0.015,0 0,-0.015 -0.015,0 -0.015,-0.015 0,0 -0.015,0 -0.015,0 -0.015,-0.015 -0.015,0 0,0 -0.015,0 0,0 -0.015,0 0,0 -0.015,0 -0.015,0 0,0 -0.015,0 -0.015,0 -0.015,0 0,0 -0.015,0 -0.015,0 -0.015,0 -0.015,0 -0.015,0 c -0.66,0.66 -1.605,0.66 -2.04,0.66 v 0.375 c 0.255,0 0.945,0 1.515,-0.285 v 5.31 c 0,0.345 0,0.48 -1.05,0.48 h -0.39 v 0.375 c 0.18,0 1.47,-0.03 1.86,-0.03 0.315,0 1.635,0.03 1.86,0.03 v -0.375 h -0.39 c -1.05,0 -1.05,-0.135 -1.05,-0.48 z"
         inkscape:connector-curvature="0"
         style="font-style:normal;font-variant:normal;font-weight:normal;font-stretch:normal;letter-spacing:normal;word-spacing:normal;text-anchor:start;fill:#000000;stroke:#000000;stroke-width:0;stroke-linecap:butt;stroke-linejoin:miter;stroke-miterlimit:10.43299961;stroke-opacity:1;stroke-dasharray:none;stroke-dashoffset:0" />
      <path
         id="path3873"
         d="m 398.53,12.0065 0,-0.09 0,-0.09 0,-0.09 -0.015,-0.075 0,-0.09 -0.015,-0.075 -0.015,-0.075 -0.015,-0.075 -0.015,-0.075 -0.03,-0.06 -0.015,-0.075 -0.03,-0.06 -0.015,-0.06 -0.03,-0.06 -0.03,-0.045 -0.03,-0.06 -0.03,-0.045 -0.03,-0.045 -0.045,-0.045 -0.03,-0.045 -0.045,-0.03 -0.03,-0.03 -0.045,-0.045 -0.045,-0.015 -0.045,-0.03 -0.045,-0.015 -0.045,-0.03 -0.06,-0.015 -0.045,0 -0.045,-0.015 -0.06,0 -0.045,-0.015 c -0.495,0 -0.795,0.375 -0.795,0.795 0,0.405 0.3,0.795 0.795,0.795 0.18,0 0.375,-0.06 0.51,-0.195 0.045,-0.03 0.06,-0.045 0.075,-0.045 0.015,0 0.03,0.015 0.03,0.225 0,1.11 -0.51,1.995 -1.005,2.49 -0.165,0.165 -0.165,0.195 -0.165,0.24 0,0.105 0.075,0.165 0.15,0.165 0.165,0 1.35,-1.14 1.35,-2.895 z"
         inkscape:connector-curvature="0"
         style="font-style:normal;font-variant:normal;font-weight:normal;font-stretch:normal;letter-spacing:normal;word-spacing:normal;text-anchor:start;fill:#000000;stroke:#000000;stroke-width:0;stroke-linecap:butt;stroke-linejoin:miter;stroke-miterlimit:10.43299961;stroke-opacity:1;stroke-dasharray:none;stroke-dashoffset:0" />
      <path
         id="path3875"
         d="m 405.01,11.2265 0,-0.03 0,-0.045 0,-0.045 -0.015,-0.03 0,-0.045 -0.015,-0.03 -0.015,-0.045 -0.015,-0.03 -0.015,-0.03 -0.015,-0.045 -0.015,-0.03 -0.03,-0.03 -0.015,-0.03 -0.03,-0.03 -0.015,-0.03 -0.03,-0.03 -0.03,-0.03 -0.03,-0.015 -0.03,-0.03 -0.03,-0.015 -0.03,-0.03 -0.03,-0.015 -0.045,-0.015 -0.03,-0.015 -0.03,-0.015 -0.045,-0.015 -0.03,-0.015 -0.045,0 -0.03,-0.015 -0.045,0 -0.045,0 -0.03,-0.015 c -0.435,0 -0.795,0.36 -0.795,0.795 0,0.435 0.36,0.795 0.795,0.795 0.435,0 0.78,-0.36 0.78,-0.795 z"
         inkscape:connector-curvature="0"
         style="font-style:normal;font-variant:normal;font-weight:normal;font-stretch:normal;letter-spacing:normal;word-spacing:normal;text-anchor:start;fill:#000000;stroke:#000000;stroke-width:0;stroke-linecap:butt;stroke-linejoin:miter;stroke-miterlimit:10.43299961;stroke-opacity:1;stroke-dasharray:none;stroke-dashoffset:0" />
      <path
         id="path3877"
         d="m 409.165,11.2265 0,-0.03 0,-0.045 0,-0.045 -0.015,-0.03 0,-0.045 -0.015,-0.03 -0.015,-0.045 -0.015,-0.03 -0.015,-0.03 -0.015,-0.045 -0.015,-0.03 -0.03,-0.03 -0.015,-0.03 -0.03,-0.03 -0.03,-0.03 -0.015,-0.03 -0.03,-0.03 -0.03,-0.015 -0.03,-0.03 -0.03,-0.015 -0.03,-0.03 -0.03,-0.015 -0.045,-0.015 -0.03,-0.015 -0.03,-0.015 -0.045,-0.015 -0.03,-0.015 -0.045,0 -0.045,-0.015 -0.03,0 -0.045,0 -0.045,-0.015 c -0.42,0 -0.78,0.36 -0.78,0.795 0,0.435 0.36,0.795 0.78,0.795 0.435,0 0.795,-0.36 0.795,-0.795 z"
         inkscape:connector-curvature="0"
         style="font-style:normal;font-variant:normal;font-weight:normal;font-stretch:normal;letter-spacing:normal;word-spacing:normal;text-anchor:start;fill:#000000;stroke:#000000;stroke-width:0;stroke-linecap:butt;stroke-linejoin:miter;stroke-miterlimit:10.43299961;stroke-opacity:1;stroke-dasharray:none;stroke-dashoffset:0" />
      <path
         id="path3879"
         d="m 413.32,11.2265 0,-0.03 0,-0.045 -0.015,-0.045 0,-0.03 -0.015,-0.045 0,-0.03 -0.015,-0.045 -0.015,-0.03 -0.015,-0.03 -0.015,-0.045 -0.03,-0.03 -0.015,-0.03 -0.03,-0.03 -0.015,-0.03 -0.03,-0.03 -0.03,-0.03 -0.015,-0.03 -0.03,-0.015 -0.03,-0.03 -0.03,-0.015 -0.045,-0.03 -0.03,-0.015 -0.03,-0.015 -0.03,-0.015 -0.045,-0.015 -0.03,-0.015 -0.045,-0.015 -0.03,0 -0.045,-0.015 -0.03,0 -0.045,0 -0.045,-0.015 c -0.435,0 -0.795,0.36 -0.795,0.795 0,0.435 0.36,0.795 0.795,0.795 0.435,0 0.795,-0.36 0.795,-0.795 z"
         inkscape:connector-curvature="0"
         style="font-style:normal;font-variant:normal;font-weight:normal;font-stretch:normal;letter-spacing:normal;word-spacing:normal;text-anchor:start;fill:#000000;stroke:#000000;stroke-width:0;stroke-linecap:butt;stroke-linejoin:miter;stroke-miterlimit:10.43299961;stroke-opacity:1;stroke-dasharray:none;stroke-dashoffset:0" />
      <path
         id="path3881"
         d="m 417.64,12.0065 0,-0.09 0,-0.09 -0.015,-0.09 0,-0.075 -0.015,-0.09 -0.015,-0.075 -0.015,-0.075 -0.015,-0.075 -0.015,-0.075 -0.015,-0.06 -0.03,-0.075 -0.015,-0.06 -0.03,-0.06 -0.03,-0.06 -0.03,-0.045 -0.03,-0.06 -0.03,-0.045 -0.03,-0.045 -0.03,-0.045 -0.045,-0.045 -0.03,-0.03 -0.045,-0.03 -0.045,-0.045 -0.045,-0.015 -0.045,-0.03 -0.045,-0.015 -0.045,-0.03 -0.045,-0.015 -0.045,0 -0.06,-0.015 -0.045,0 -0.06,-0.015 c -0.495,0 -0.795,0.375 -0.795,0.795 0,0.405 0.3,0.795 0.795,0.795 0.18,0 0.375,-0.06 0.525,-0.195 0.045,-0.03 0.06,-0.045 0.075,-0.045 0.015,0 0.03,0.015 0.03,0.225 0,1.11 -0.525,1.995 -1.02,2.49 -0.165,0.165 -0.165,0.195 -0.165,0.24 0,0.105 0.075,0.165 0.15,0.165 0.165,0 1.365,-1.14 1.365,-2.895 z"
         inkscape:connector-curvature="0"
         style="font-style:normal;font-variant:normal;font-weight:normal;font-stretch:normal;letter-spacing:normal;word-spacing:normal;text-anchor:start;fill:#000000;stroke:#000000;stroke-width:0;stroke-linecap:butt;stroke-linejoin:miter;stroke-miterlimit:10.43299961;stroke-opacity:1;stroke-dasharray:none;stroke-dashoffset:0" />
      <path
         id="path3883"
         d="m 426.235,7.5065 0,-0.03 0.015,-0.045 0.015,-0.045 0.015,-0.06 0.015,-0.06 0.015,-0.06 0.015,-0.06 0.03,-0.075 0.015,-0.06 0.03,-0.075 0.03,-0.075 0.03,-0.075 0.03,-0.075 0.045,-0.075 0.03,-0.075 0.045,-0.075 0.045,-0.075 0.045,-0.075 0.045,-0.06 0.06,-0.075 0.06,-0.06 0.06,-0.06 0.06,-0.06 0.06,-0.045 0.075,-0.045 0.075,-0.045 0.03,-0.03 0.045,-0.015 0.03,-0.015 0.045,-0.015 0.045,-0.015 0.045,-0.015 0.045,0 0.045,-0.015 0.045,0 0.045,-0.015 0.045,0 0.045,0 c 0.075,0 0.435,0 0.75,0.195 -0.42,0.075 -0.72,0.45 -0.72,0.81 0,0.24 0.165,0.525 0.57,0.525 0.33,0 0.81,-0.27 0.81,-0.87 0,-0.78 -0.885,-0.99 -1.395,-0.99 -0.87,0 -1.395,0.795 -1.575,1.14 -0.36,-0.99 -1.17,-1.14 -1.605,-1.14 -1.56,0 -2.415,1.92 -2.415,2.295 0,0.15 0.15,0.15 0.18,0.15 0.12,0 0.165,-0.03 0.195,-0.165 0.51,-1.575 1.5,-1.95 2.01,-1.95 0.285,0 0.81,0.135 0.81,1.005 0,0.45 -0.255,1.455 -0.81,3.555 -0.24,0.915 -0.765,1.545 -1.425,1.545 -0.09,0 -0.435,0 -0.75,-0.195 0.375,-0.075 0.705,-0.39 0.705,-0.81 0,-0.39 -0.33,-0.525 -0.555,-0.525 -0.45,0 -0.81,0.39 -0.81,0.87 0,0.69 0.735,0.99 1.395,0.99 0.99,0 1.53,-1.05 1.575,-1.14 0.18,0.555 0.72,1.14 1.62,1.14 1.53,0 2.385,-1.92 2.385,-2.295 0,-0.15 -0.135,-0.15 -0.18,-0.15 -0.135,0 -0.165,0.06 -0.195,0.165 -0.495,1.59 -1.515,1.95 -1.995,1.95 -0.57,0 -0.81,-0.48 -0.81,-0.99 0,-0.315 0.09,-0.645 0.255,-1.305 z"
         inkscape:connector-curvature="0"
         style="font-style:normal;font-variant:normal;font-weight:normal;font-stretch:normal;letter-spacing:normal;word-spacing:normal;text-anchor:start;fill:#000000;stroke:#000000;stroke-width:0;stroke-linecap:butt;stroke-linejoin:miter;stroke-miterlimit:10.43299961;stroke-opacity:1;stroke-dasharray:none;stroke-dashoffset:0" />
      <path
         id="path3885"
         d="m 431.05,5.9465 0,0.015 0,0 -0.015,0.015 0,0.015 0,0.015 0,0.015 -0.015,0.03 0,0.015 -0.015,0.03 0,0.03 -0.015,0.03 0,0.045 -0.015,0.015 0,0.015 0,0.015 0,0.015 -0.015,0.015 0,0 0,0.015 0,0.015 0,0.015 0,0.015 -0.015,0 0,0.015 0,0 0,0.015 0,0 0,0 0,0 0,0 c 0,0.225 0.195,0.345 0.36,0.345 0.18,0 0.36,-0.15 0.405,-0.24 0.06,-0.09 0.135,-0.42 0.195,-0.645 0.045,-0.195 0.165,-0.675 0.225,-0.945 0.06,-0.225 0.12,-0.45 0.18,-0.69 0.105,-0.435 0.135,-0.51 0.435,-0.945 0.285,-0.42 0.78,-0.96 1.56,-0.96 0.615,0 0.63,0.54 0.63,0.735 0,0.63 -0.45,1.785 -0.63,2.22 -0.105,0.3 -0.15,0.39 -0.15,0.57 0,0.555 0.465,0.9 0.99,0.9 1.05,0 1.5,-1.455 1.5,-1.605 0,-0.135 -0.135,-0.135 -0.165,-0.135 -0.135,0 -0.15,0.06 -0.195,0.18 -0.24,0.84 -0.69,1.26 -1.11,1.26 -0.21,0 -0.255,-0.15 -0.255,-0.36 0,-0.24 0.045,-0.375 0.24,-0.855 0.12,-0.315 0.555,-1.425 0.555,-2.01 0,-1.005 -0.81,-1.185 -1.365,-1.185 -0.87,0 -1.455,0.525 -1.755,0.945 -0.075,-0.72 -0.69,-0.945 -1.125,-0.945 -0.45,0 -0.69,0.315 -0.825,0.555 -0.225,0.39 -0.375,0.99 -0.375,1.035 0,0.135 0.15,0.135 0.18,0.135 0.135,0 0.15,-0.03 0.225,-0.315 0.15,-0.615 0.36,-1.125 0.765,-1.125 0.27,0 0.345,0.24 0.345,0.51 0,0.21 -0.09,0.585 -0.165,0.87 -0.075,0.285 -0.18,0.705 -0.24,0.945 z"
         inkscape:connector-curvature="0"
         style="font-style:normal;font-variant:normal;font-weight:normal;font-stretch:normal;letter-spacing:normal;word-spacing:normal;text-anchor:start;fill:#000000;stroke:#000000;stroke-width:0;stroke-linecap:butt;stroke-linejoin:miter;stroke-miterlimit:10.43299961;stroke-opacity:1;stroke-dasharray:none;stroke-dashoffset:0" />
      <path
         id="path3887"
         d="m 442.24,8.2865 0,-0.105 -0.015,-0.12 0,-0.12 0,-0.12 -0.015,-0.255 -0.015,-0.255 -0.03,-0.285 -0.03,-0.285 -0.03,-0.285 -0.06,-0.3 -0.06,-0.3 -0.06,-0.315 -0.09,-0.315 -0.09,-0.315 -0.105,-0.33 -0.12,-0.315 -0.06,-0.165 -0.06,-0.15 -0.075,-0.165 -0.075,-0.15 c -0.9,-1.845 -2.19,-2.805 -2.34,-2.805 -0.09,0 -0.15,0.06 -0.15,0.135 0,0.06 0,0.075 0.285,0.345 1.47,1.485 2.325,3.855 2.325,6.975 0,2.55 -0.555,5.19 -2.415,7.065 -0.195,0.18 -0.195,0.21 -0.195,0.255 0,0.09 0.06,0.15 0.15,0.15 0.15,0 1.5,-1.02 2.385,-2.91 0.765,-1.65 0.945,-3.3 0.945,-4.56 z"
         inkscape:connector-curvature="0"
         style="font-style:normal;font-variant:normal;font-weight:normal;font-stretch:normal;letter-spacing:normal;word-spacing:normal;text-anchor:start;fill:#000000;stroke:#000000;stroke-width:0;stroke-linecap:butt;stroke-linejoin:miter;stroke-miterlimit:10.43299961;stroke-opacity:1;stroke-dasharray:none;stroke-dashoffset:0" />
      <path
         id="path3889"
         d="m 458.155,7.1465 0.045,0 0.03,0 0.045,-0.015 0.03,0 0.015,0 0.03,0 0.015,0 0.03,0 0.015,0 0.015,-0.015 0.03,0 0.015,0 0.015,-0.015 0.015,0 0.03,-0.015 0.015,-0.015 0.015,0 0.015,-0.015 0.015,-0.015 0.015,-0.015 0,-0.015 0.015,0 0,-0.015 0,0 0.015,-0.015 0,-0.015 0,0 0.015,-0.015 0,-0.015 0,0 0,-0.015 0,-0.015 0,-0.015 0,-0.015 0.015,0 0,-0.015 0,-0.015 c 0,-0.3 -0.285,-0.3 -0.495,-0.3 h -8.955 c -0.21,0 -0.495,0 -0.495,0.3 0,0.3 0.285,0.3 0.51,0.3 z"
         inkscape:connector-curvature="0"
         style="font-style:normal;font-variant:normal;font-weight:normal;font-stretch:normal;letter-spacing:normal;word-spacing:normal;text-anchor:start;fill:#000000;stroke:#000000;stroke-width:0;stroke-linecap:butt;stroke-linejoin:miter;stroke-miterlimit:10.43299961;stroke-opacity:1;stroke-dasharray:none;stroke-dashoffset:0" />
      <path
         id="path3891"
         d="m 458.17,10.0415 0.03,0 0.045,0 0.045,-0.015 0.015,0 0.03,0 0.015,0 0.03,0 0.015,0 0.015,0 0.03,-0.015 0.015,0 0.015,0 0.015,-0.015 0.03,0 0.015,-0.015 0.015,-0.015 0.015,0 0.015,-0.015 0.015,-0.015 0.015,-0.015 0,0 0,-0.015 0.015,0 0,-0.015 0,0 0.015,-0.015 0,-0.015 0,0 0.015,-0.015 0,-0.015 0,0 0,-0.015 0,-0.015 0,-0.015 0,-0.015 0.015,0 0,-0.015 0,-0.015 c 0,-0.3 -0.285,-0.3 -0.51,-0.3 h -8.925 c -0.225,0 -0.51,0 -0.51,0.3 0,0.3 0.285,0.3 0.495,0.3 z"
         inkscape:connector-curvature="0"
         style="font-style:normal;font-variant:normal;font-weight:normal;font-stretch:normal;letter-spacing:normal;word-spacing:normal;text-anchor:start;fill:#000000;stroke:#000000;stroke-width:0;stroke-linecap:butt;stroke-linejoin:miter;stroke-miterlimit:10.43299961;stroke-opacity:1;stroke-dasharray:none;stroke-dashoffset:0" />
      <polygon
         transform="matrix(1.5,0,0,-1.5,4.24,1018.9115)"
         id="polygon3893"
         points="309.4,678.17 308.06,676.81 308.24,676.63 309.4,677.65 310.54,676.63 310.72,676.81 "
         style="font-style:normal;font-variant:normal;font-weight:normal;font-stretch:normal;letter-spacing:normal;word-spacing:normal;text-anchor:start;fill:#000000;stroke:#000000;stroke-width:0;stroke-linecap:butt;stroke-linejoin:miter;stroke-miterlimit:10.43299961;stroke-opacity:1;stroke-dasharray:none;stroke-dashoffset:0" />
      <path
         id="path3895"
         d="m 468.64,7.5065 0.015,-0.03 0,-0.045 0.015,-0.045 0.015,-0.06 0.015,-0.06 0.015,-0.06 0.03,-0.06 0.015,-0.075 0.03,-0.06 0.03,-0.075 0.03,-0.075 0.03,-0.075 0.03,-0.075 0.03,-0.075 0.045,-0.075 0.045,-0.075 0.045,-0.075 0.045,-0.075 0.045,-0.06 0.06,-0.075 0.045,-0.06 0.06,-0.06 0.06,-0.06 0.075,-0.045 0.06,-0.045 0.075,-0.045 0.045,-0.03 0.03,-0.015 0.045,-0.015 0.045,-0.015 0.045,-0.015 0.03,-0.015 0.045,0 0.045,-0.015 0.045,0 0.045,-0.015 0.06,0 0.045,0 c 0.075,0 0.435,0 0.75,0.195 -0.42,0.075 -0.72,0.45 -0.72,0.81 0,0.24 0.165,0.525 0.57,0.525 0.33,0 0.795,-0.27 0.795,-0.87 0,-0.78 -0.87,-0.99 -1.38,-0.99 -0.87,0 -1.395,0.795 -1.575,1.14 -0.375,-0.99 -1.185,-1.14 -1.605,-1.14 -1.56,0 -2.415,1.92 -2.415,2.295 0,0.15 0.15,0.15 0.18,0.15 0.12,0 0.165,-0.03 0.195,-0.165 0.51,-1.575 1.5,-1.95 1.995,-1.95 0.285,0 0.81,0.135 0.81,1.005 0,0.45 -0.255,1.455 -0.81,3.555 -0.225,0.915 -0.75,1.545 -1.41,1.545 -0.09,0 -0.435,0 -0.75,-0.195 0.375,-0.075 0.705,-0.39 0.705,-0.81 0,-0.39 -0.33,-0.525 -0.555,-0.525 -0.45,0 -0.825,0.39 -0.825,0.87 0,0.69 0.75,0.99 1.41,0.99 0.99,0 1.53,-1.05 1.575,-1.14 0.165,0.555 0.705,1.14 1.605,1.14 1.545,0 2.4,-1.92 2.4,-2.295 0,-0.15 -0.135,-0.15 -0.18,-0.15 -0.135,0 -0.165,0.06 -0.195,0.165 -0.495,1.59 -1.515,1.95 -1.995,1.95 -0.585,0 -0.825,-0.48 -0.825,-0.99 0,-0.315 0.09,-0.645 0.255,-1.305 z"
         inkscape:connector-curvature="0"
         style="font-style:normal;font-variant:normal;font-weight:normal;font-stretch:normal;letter-spacing:normal;word-spacing:normal;text-anchor:start;fill:#000000;stroke:#000000;stroke-width:0;stroke-linecap:butt;stroke-linejoin:miter;stroke-miterlimit:10.43299961;stroke-opacity:1;stroke-dasharray:none;stroke-dashoffset:0" />
      <path
         id="path3897"
         d="m 475.57,0.0815 0,-0.015 0,-0.015 0,-0.015 0,-0.015 0,-0.03 -0.015,-0.015 0,-0.015 0,-0.015 -0.015,-0.015 0,-0.015 -0.015,-0.015 0,-0.015 -0.015,-0.015 -0.015,-0.015 -0.015,-0.015 0,-0.015 -0.015,-0.015 -0.015,-0.015 -0.015,-0.015 -0.015,-0.015 -0.015,-0.015 -0.03,-0.015 -0.015,0 -0.015,-0.015 -0.015,-0.015 -0.03,0 -0.015,0 -0.03,-0.015 -0.015,0 -0.03,0 -0.03,0 -0.03,0 c -0.27,0 -0.585,0.27 -0.585,0.57 0,0.18 0.135,0.39 0.42,0.39 0.3,0 0.585,-0.285 0.585,-0.57 z"
         inkscape:connector-curvature="0"
         style="font-style:normal;font-variant:normal;font-weight:normal;font-stretch:normal;letter-spacing:normal;word-spacing:normal;text-anchor:start;fill:#000000;stroke:#000000;stroke-width:0;stroke-linecap:butt;stroke-linejoin:miter;stroke-miterlimit:10.43299961;stroke-opacity:1;stroke-dasharray:none;stroke-dashoffset:0" />
      <path
         id="path3899"
         d="m 473.44,5.3765 0,0.03 -0.015,0.03 -0.015,0.045 -0.015,0.03 0,0.015 -0.015,0.03 0,0.03 0,0.015 -0.015,0.03 0,0.03 -0.015,0.03 0,0.015 0,0.015 0,0.015 0,0.015 0,0.015 0,0.015 0,0.015 0,0.015 c 0,0.495 0.42,0.9 0.99,0.9 1.05,0 1.5,-1.455 1.5,-1.605 0,-0.135 -0.135,-0.135 -0.165,-0.135 -0.135,0 -0.15,0.06 -0.195,0.18 -0.24,0.84 -0.705,1.26 -1.11,1.26 -0.21,0 -0.255,-0.135 -0.255,-0.36 0,-0.24 0.075,-0.45 0.165,-0.675 0.105,-0.285 0.225,-0.555 0.33,-0.825 0.09,-0.255 0.465,-1.2 0.51,-1.335 0.03,-0.105 0.06,-0.225 0.06,-0.33 0,-0.495 -0.405,-0.885 -0.99,-0.885 -1.035,0 -1.515,1.41 -1.515,1.59 0,0.135 0.15,0.135 0.18,0.135 0.15,0 0.165,-0.045 0.195,-0.165 0.27,-0.9 0.72,-1.275 1.11,-1.275 0.165,0 0.27,0.09 0.27,0.375 0,0.24 -0.06,0.39 -0.33,1.035 z"
         inkscape:connector-curvature="0"
         style="font-style:normal;font-variant:normal;font-weight:normal;font-stretch:normal;letter-spacing:normal;word-spacing:normal;text-anchor:start;fill:#000000;stroke:#000000;stroke-width:0;stroke-linecap:butt;stroke-linejoin:miter;stroke-miterlimit:10.43299961;stroke-opacity:1;stroke-dasharray:none;stroke-dashoffset:0" />
    </g>
    <g
       id="g4265"
       transform="matrix(0.92549909,0,0,0.9560257,-165.57672,104.05291)">
      <path
         id="path3909"
         d="m 367.285,41.9165 h 1.29 c 0.3,0 0.45,0 0.45,-0.3 0,-0.165 -0.15,-0.165 -0.405,-0.165 h -1.245 l 0.315,-1.695 c 0.06,-0.315 0.27,-1.38 0.36,-1.56 0.135,-0.285 0.39,-0.51 0.705,-0.51 0.06,0 0.45,0 0.735,0.27 -0.66,0.06 -0.81,0.585 -0.81,0.81 0,0.345 0.27,0.525 0.555,0.525 0.39,0 0.825,-0.33 0.825,-0.9 0,-0.69 -0.69,-1.02 -1.305,-1.02 -0.51,0 -1.455,0.255 -1.905,1.74 -0.09,0.315 -0.12,0.465 -0.48,2.34 h -1.035 c -0.285,0 -0.45,0 -0.45,0.285 0,0.18 0.135,0.18 0.42,0.18 h 0.99 l -1.125,5.895 c -0.27,1.455 -0.525,2.805 -1.305,2.805 -0.06,0 -0.435,0 -0.72,-0.27 0.69,-0.045 0.825,-0.57 0.825,-0.795 0,-0.345 -0.27,-0.525 -0.555,-0.525 -0.39,0 -0.825,0.33 -0.825,0.9 0,0.66 0.66,1.02 1.275,1.02 0.825,0 1.425,-0.885 1.695,-1.44 0.48,-0.945 0.825,-2.745 0.84,-2.85 z"
         inkscape:connector-curvature="0"
         style="font-style:normal;font-variant:normal;font-weight:normal;font-stretch:normal;letter-spacing:normal;word-spacing:normal;text-anchor:start;fill:#000000;stroke:#000000;stroke-width:0;stroke-linecap:butt;stroke-linejoin:miter;stroke-miterlimit:10.43299961;stroke-opacity:1;stroke-dasharray:none;stroke-dashoffset:0" />
      <path
         id="path3911"
         d="m 375.685,51.4715 0,-0.015 0,0 0,0 -0.015,-0.015 0,0 0,0 0,-0.015 0,0 0,0 0,-0.015 -0.015,0 0,-0.015 0,0 -0.015,-0.015 0,0 0,-0.015 -0.015,-0.015 -0.015,0 0,-0.015 0,0 -0.015,-0.015 0,0 0,0 -0.015,-0.015 0,0 -0.015,-0.015 0,0 -0.015,-0.015 0,0 -0.015,-0.015 0,0 -0.015,-0.015 0,-0.015 -0.015,0 0,-0.015 -0.015,-0.015 -0.015,0 0,-0.015 -0.015,-0.015 -0.015,0 -0.015,-0.015 0,-0.015 c -1.875,-1.875 -2.355,-4.695 -2.355,-6.99 0,-2.595 0.57,-5.19 2.415,-7.05 0.195,-0.18 0.195,-0.21 0.195,-0.255 0,-0.105 -0.06,-0.15 -0.15,-0.15 -0.15,0 -1.5,1.005 -2.385,2.91 -0.765,1.635 -0.945,3.3 -0.945,4.545 0,1.17 0.165,2.97 0.99,4.665 0.9,1.83 2.19,2.805 2.34,2.805 0.09,0 0.15,-0.045 0.15,-0.15 z"
         inkscape:connector-curvature="0"
         style="font-style:normal;font-variant:normal;font-weight:normal;font-stretch:normal;letter-spacing:normal;word-spacing:normal;text-anchor:start;fill:#000000;stroke:#000000;stroke-width:0;stroke-linecap:butt;stroke-linejoin:miter;stroke-miterlimit:10.43299961;stroke-opacity:1;stroke-dasharray:none;stroke-dashoffset:0" />
      <polygon
         transform="matrix(1.5,0,0,-1.5,4.24,1018.9115)"
         id="polygon3913"
         points="252.48,652.72 252.66,652.9 251.33,654.26 249.99,652.9 250.17,652.72 251.33,653.74 "
         style="font-style:normal;font-variant:normal;font-weight:normal;font-stretch:normal;letter-spacing:normal;word-spacing:normal;text-anchor:start;fill:#000000;stroke:#000000;stroke-width:0;stroke-linecap:butt;stroke-linejoin:miter;stroke-miterlimit:10.43299961;stroke-opacity:1;stroke-dasharray:none;stroke-dashoffset:0" />
      <path
         id="path3915"
         d="m 381.535,43.3865 0.015,-0.045 0,-0.045 0.015,-0.045 0.015,-0.06 0.015,-0.06 0.015,-0.06 0.03,-0.06 0.015,-0.075 0.03,-0.06 0.015,-0.075 0.03,-0.075 0.03,-0.075 0.045,-0.075 0.03,-0.075 0.045,-0.075 0.03,-0.075 0.045,-0.075 0.045,-0.06 0.06,-0.075 0.045,-0.075 0.06,-0.06 0.06,-0.06 0.06,-0.06 0.075,-0.045 0.06,-0.045 0.075,-0.045 0.045,-0.03 0.03,-0.015 0.045,-0.015 0.045,-0.015 0.03,-0.015 0.045,-0.015 0.045,0 0.045,-0.015 0.045,0 0.045,-0.015 0.045,0 0.06,0 c 0.075,0 0.42,0 0.735,0.195 -0.405,0.075 -0.705,0.45 -0.705,0.81 0,0.24 0.165,0.525 0.555,0.525 0.33,0 0.81,-0.27 0.81,-0.87 0,-0.78 -0.87,-0.99 -1.38,-0.99 -0.87,0 -1.395,0.795 -1.575,1.14 -0.375,-0.99 -1.185,-1.14 -1.62,-1.14 -1.545,0 -2.4,1.935 -2.4,2.295 0,0.15 0.15,0.15 0.18,0.15 0.12,0 0.165,-0.03 0.195,-0.15 0.51,-1.59 1.485,-1.965 1.995,-1.965 0.285,0 0.81,0.135 0.81,1.005 0,0.465 -0.255,1.455 -0.81,3.555 -0.24,0.915 -0.75,1.545 -1.41,1.545 -0.09,0 -0.435,0 -0.75,-0.195 0.375,-0.075 0.705,-0.39 0.705,-0.81 0,-0.39 -0.33,-0.51 -0.555,-0.51 -0.45,0 -0.825,0.375 -0.825,0.855 0,0.69 0.75,0.99 1.41,0.99 0.975,0 1.515,-1.05 1.56,-1.14 0.18,0.555 0.72,1.14 1.62,1.14 1.545,0 2.385,-1.92 2.385,-2.295 0,-0.15 -0.135,-0.15 -0.18,-0.15 -0.135,0 -0.165,0.06 -0.18,0.165 -0.495,1.59 -1.515,1.95 -1.995,1.95 -0.585,0 -0.825,-0.48 -0.825,-0.975 0,-0.33 0.09,-0.66 0.255,-1.32 z"
         inkscape:connector-curvature="0"
         style="font-style:normal;font-variant:normal;font-weight:normal;font-stretch:normal;letter-spacing:normal;word-spacing:normal;text-anchor:start;fill:#000000;stroke:#000000;stroke-width:0;stroke-linecap:butt;stroke-linejoin:miter;stroke-miterlimit:10.43299961;stroke-opacity:1;stroke-dasharray:none;stroke-dashoffset:0" />
      <path
         id="path3917"
         d="m 388.585,35.8265 0,-0.015 0,0 0,-0.015 0,-0.015 0,-0.015 0,-0.015 0,0 0,-0.015 0,-0.015 0,0 -0.015,-0.015 0,0 0,-0.015 0,-0.015 0,0 0,-0.015 0,0 0,-0.015 0,-0.015 0,0 -0.015,-0.015 0,-0.015 -0.015,0 0,-0.015 0,0 -0.015,-0.015 -0.015,0 0,-0.015 -0.015,0 -0.015,0 -0.015,0 -0.015,-0.015 0,0 -0.015,0 0,0 -0.015,0 0,0 -0.015,0 -0.015,0 0,0 -0.015,0 -0.015,0 0,0 -0.015,0 -0.015,0 -0.015,0 -0.015,0 0,0 -0.015,0 -0.015,0 c -0.675,0.66 -1.62,0.66 -2.055,0.66 v 0.375 c 0.255,0 0.945,0 1.515,-0.285 v 5.325 c 0,0.33 0,0.465 -1.035,0.465 h -0.405 v 0.375 c 0.195,0 1.47,-0.03 1.86,-0.03 0.33,0 1.65,0.03 1.875,0.03 v -0.375 h -0.405 c -1.035,0 -1.035,-0.135 -1.035,-0.465 z"
         inkscape:connector-curvature="0"
         style="font-style:normal;font-variant:normal;font-weight:normal;font-stretch:normal;letter-spacing:normal;word-spacing:normal;text-anchor:start;fill:#000000;stroke:#000000;stroke-width:0;stroke-linecap:butt;stroke-linejoin:miter;stroke-miterlimit:10.43299961;stroke-opacity:1;stroke-dasharray:none;stroke-dashoffset:0" />
      <path
         id="path3919"
         d="m 394.825,47.8715 0,-0.09 0,-0.09 -0.015,-0.09 0,-0.075 -0.015,-0.09 -0.015,-0.075 -0.015,-0.075 -0.015,-0.075 -0.015,-0.075 -0.015,-0.06 -0.03,-0.075 -0.015,-0.06 -0.03,-0.06 -0.03,-0.06 -0.03,-0.045 -0.03,-0.06 -0.03,-0.045 -0.03,-0.045 -0.03,-0.045 -0.045,-0.045 -0.03,-0.03 -0.045,-0.03 -0.045,-0.03 -0.045,-0.03 -0.045,-0.03 -0.045,-0.015 -0.045,-0.03 -0.045,-0.015 -0.045,0 -0.06,-0.015 -0.045,0 -0.06,0 c -0.495,0 -0.795,0.36 -0.795,0.78 0,0.405 0.3,0.795 0.795,0.795 0.18,0 0.375,-0.06 0.525,-0.195 0.045,-0.03 0.06,-0.045 0.075,-0.045 0.015,0 0.03,0.015 0.03,0.225 0,1.11 -0.525,1.995 -1.02,2.49 -0.165,0.165 -0.165,0.195 -0.165,0.24 0,0.105 0.075,0.165 0.15,0.165 0.165,0 1.365,-1.14 1.365,-2.895 z"
         inkscape:connector-curvature="0"
         style="font-style:normal;font-variant:normal;font-weight:normal;font-stretch:normal;letter-spacing:normal;word-spacing:normal;text-anchor:start;fill:#000000;stroke:#000000;stroke-width:0;stroke-linecap:butt;stroke-linejoin:miter;stroke-miterlimit:10.43299961;stroke-opacity:1;stroke-dasharray:none;stroke-dashoffset:0" />
      <path
         id="path3921"
         d="m 401.305,47.0915 0,-0.03 0,-0.045 -0.015,-0.045 0,-0.03 -0.015,-0.045 0,-0.03 -0.015,-0.045 -0.015,-0.03 -0.015,-0.03 -0.03,-0.045 -0.015,-0.03 -0.015,-0.03 -0.03,-0.03 -0.015,-0.03 -0.03,-0.03 -0.03,-0.03 -0.03,-0.03 -0.015,-0.015 -0.03,-0.03 -0.03,-0.015 -0.045,-0.03 -0.03,-0.015 -0.03,-0.015 -0.03,-0.015 -0.045,-0.015 -0.03,-0.015 -0.045,-0.015 -0.03,0 -0.045,-0.015 -0.045,0 -0.03,0 -0.045,0 c -0.435,0 -0.795,0.36 -0.795,0.78 0,0.435 0.36,0.795 0.795,0.795 0.435,0 0.795,-0.36 0.795,-0.795 z"
         inkscape:connector-curvature="0"
         style="font-style:normal;font-variant:normal;font-weight:normal;font-stretch:normal;letter-spacing:normal;word-spacing:normal;text-anchor:start;fill:#000000;stroke:#000000;stroke-width:0;stroke-linecap:butt;stroke-linejoin:miter;stroke-miterlimit:10.43299961;stroke-opacity:1;stroke-dasharray:none;stroke-dashoffset:0" />
      <path
         id="path3923"
         d="m 405.46,47.0915 0,-0.03 -0.015,-0.045 0,-0.045 0,-0.03 -0.015,-0.045 -0.015,-0.03 -0.015,-0.045 0,-0.03 -0.03,-0.03 -0.015,-0.045 -0.015,-0.03 -0.015,-0.03 -0.03,-0.03 -0.015,-0.03 -0.03,-0.03 -0.03,-0.03 -0.03,-0.03 -0.03,-0.015 -0.03,-0.03 -0.03,-0.015 -0.03,-0.03 -0.03,-0.015 -0.03,-0.015 -0.045,-0.015 -0.03,-0.015 -0.03,-0.015 -0.045,-0.015 -0.045,0 -0.03,-0.015 -0.045,0 -0.03,0 -0.045,0 c -0.435,0 -0.795,0.36 -0.795,0.78 0,0.435 0.36,0.795 0.795,0.795 0.435,0 0.795,-0.36 0.795,-0.795 z"
         inkscape:connector-curvature="0"
         style="font-style:normal;font-variant:normal;font-weight:normal;font-stretch:normal;letter-spacing:normal;word-spacing:normal;text-anchor:start;fill:#000000;stroke:#000000;stroke-width:0;stroke-linecap:butt;stroke-linejoin:miter;stroke-miterlimit:10.43299961;stroke-opacity:1;stroke-dasharray:none;stroke-dashoffset:0" />
      <path
         id="path3925"
         d="m 409.6,47.0915 0,-0.03 0,-0.045 0,-0.045 -0.015,-0.03 0,-0.045 -0.015,-0.03 -0.015,-0.045 -0.015,-0.03 -0.015,-0.03 -0.015,-0.045 -0.015,-0.03 -0.03,-0.03 -0.015,-0.03 -0.03,-0.03 -0.015,-0.03 -0.03,-0.03 -0.03,-0.03 -0.03,-0.015 -0.03,-0.03 -0.03,-0.015 -0.03,-0.03 -0.03,-0.015 -0.045,-0.015 -0.03,-0.015 -0.03,-0.015 -0.045,-0.015 -0.03,-0.015 -0.045,0 -0.03,-0.015 -0.045,0 -0.045,0 -0.03,0 c -0.435,0 -0.795,0.36 -0.795,0.78 0,0.435 0.36,0.795 0.795,0.795 0.435,0 0.78,-0.36 0.78,-0.795 z"
         inkscape:connector-curvature="0"
         style="font-style:normal;font-variant:normal;font-weight:normal;font-stretch:normal;letter-spacing:normal;word-spacing:normal;text-anchor:start;fill:#000000;stroke:#000000;stroke-width:0;stroke-linecap:butt;stroke-linejoin:miter;stroke-miterlimit:10.43299961;stroke-opacity:1;stroke-dasharray:none;stroke-dashoffset:0" />
      <path
         id="path3927"
         d="m 413.92,47.8715 0,-0.09 0,-0.09 0,-0.09 -0.015,-0.075 -0.015,-0.09 0,-0.075 -0.015,-0.075 -0.015,-0.075 -0.015,-0.075 -0.03,-0.06 -0.015,-0.075 -0.03,-0.06 -0.015,-0.06 -0.03,-0.06 -0.03,-0.045 -0.03,-0.06 -0.03,-0.045 -0.045,-0.045 -0.03,-0.045 -0.03,-0.045 -0.045,-0.03 -0.045,-0.03 -0.03,-0.03 -0.045,-0.03 -0.045,-0.03 -0.045,-0.015 -0.045,-0.03 -0.06,-0.015 -0.045,0 -0.045,-0.015 -0.06,0 -0.06,0 c -0.495,0 -0.795,0.36 -0.795,0.78 0,0.405 0.3,0.795 0.795,0.795 0.18,0 0.375,-0.06 0.525,-0.195 0.045,-0.03 0.06,-0.045 0.075,-0.045 0.015,0 0.03,0.015 0.03,0.225 0,1.11 -0.525,1.995 -1.02,2.49 -0.165,0.165 -0.165,0.195 -0.165,0.24 0,0.105 0.09,0.165 0.15,0.165 0.165,0 1.365,-1.14 1.365,-2.895 z"
         inkscape:connector-curvature="0"
         style="font-style:normal;font-variant:normal;font-weight:normal;font-stretch:normal;letter-spacing:normal;word-spacing:normal;text-anchor:start;fill:#000000;stroke:#000000;stroke-width:0;stroke-linecap:butt;stroke-linejoin:miter;stroke-miterlimit:10.43299961;stroke-opacity:1;stroke-dasharray:none;stroke-dashoffset:0" />
      <polygon
         transform="matrix(1.5,0,0,-1.5,4.24,1018.9115)"
         id="polygon3929"
         points="279.79,652.72 279.97,652.9 278.65,654.26 277.31,652.9 277.49,652.72 278.65,653.74 "
         style="font-style:normal;font-variant:normal;font-weight:normal;font-stretch:normal;letter-spacing:normal;word-spacing:normal;text-anchor:start;fill:#000000;stroke:#000000;stroke-width:0;stroke-linecap:butt;stroke-linejoin:miter;stroke-miterlimit:10.43299961;stroke-opacity:1;stroke-dasharray:none;stroke-dashoffset:0" />
      <path
         id="path3931"
         d="m 422.515,43.3865 0.015,-0.045 0,-0.045 0.015,-0.045 0.015,-0.06 0.015,-0.06 0.015,-0.06 0.03,-0.06 0.015,-0.075 0.03,-0.06 0.015,-0.075 0.03,-0.075 0.03,-0.075 0.045,-0.075 0.03,-0.075 0.045,-0.075 0.03,-0.075 0.045,-0.075 0.06,-0.06 0.045,-0.075 0.045,-0.075 0.06,-0.06 0.06,-0.06 0.06,-0.06 0.075,-0.045 0.06,-0.045 0.075,-0.045 0.045,-0.03 0.03,-0.015 0.045,-0.015 0.045,-0.015 0.03,-0.015 0.045,-0.015 0.045,0 0.045,-0.015 0.045,0 0.045,-0.015 0.045,0 0.06,0 c 0.075,0 0.435,0 0.75,0.195 -0.42,0.075 -0.72,0.45 -0.72,0.81 0,0.24 0.165,0.525 0.57,0.525 0.315,0 0.795,-0.27 0.795,-0.87 0,-0.78 -0.87,-0.99 -1.38,-0.99 -0.87,0 -1.395,0.795 -1.575,1.14 -0.375,-0.99 -1.185,-1.14 -1.62,-1.14 -1.545,0 -2.4,1.935 -2.4,2.295 0,0.15 0.15,0.15 0.18,0.15 0.12,0 0.165,-0.03 0.195,-0.15 0.51,-1.59 1.485,-1.965 1.995,-1.965 0.285,0 0.81,0.135 0.81,1.005 0,0.465 -0.255,1.455 -0.81,3.555 -0.225,0.915 -0.75,1.545 -1.41,1.545 -0.09,0 -0.435,0 -0.75,-0.195 0.375,-0.075 0.705,-0.39 0.705,-0.81 0,-0.39 -0.33,-0.51 -0.555,-0.51 -0.45,0 -0.825,0.375 -0.825,0.855 0,0.69 0.75,0.99 1.41,0.99 0.975,0 1.515,-1.05 1.56,-1.14 0.18,0.555 0.72,1.14 1.62,1.14 1.545,0 2.385,-1.92 2.385,-2.295 0,-0.15 -0.12,-0.15 -0.165,-0.15 -0.135,0 -0.165,0.06 -0.195,0.165 -0.495,1.59 -1.515,1.95 -1.995,1.95 -0.585,0 -0.825,-0.48 -0.825,-0.975 0,-0.33 0.09,-0.66 0.255,-1.32 z"
         inkscape:connector-curvature="0"
         style="font-style:normal;font-variant:normal;font-weight:normal;font-stretch:normal;letter-spacing:normal;word-spacing:normal;text-anchor:start;fill:#000000;stroke:#000000;stroke-width:0;stroke-linecap:butt;stroke-linejoin:miter;stroke-miterlimit:10.43299961;stroke-opacity:1;stroke-dasharray:none;stroke-dashoffset:0" />
      <path
         id="path3933"
         d="m 427.345,41.8115 -0.015,0.015 0,0 0,0.015 -0.015,0.015 0,0.015 0,0.015 0,0.03 -0.015,0.015 0,0.03 -0.015,0.03 -0.015,0.03 0,0.045 0,0.015 -0.015,0.015 0,0.015 0,0.015 0,0.015 0,0 -0.015,0.015 0,0.015 0,0.015 0,0.015 0,0 0,0.015 0,0 0,0.015 0,0 0,0 0,0 -0.015,0 c 0,0.225 0.195,0.33 0.36,0.33 0.195,0 0.36,-0.135 0.405,-0.225 0.06,-0.09 0.135,-0.42 0.195,-0.645 0.045,-0.195 0.165,-0.675 0.225,-0.93 0.06,-0.24 0.135,-0.465 0.18,-0.705 0.12,-0.435 0.135,-0.51 0.435,-0.945 0.3,-0.405 0.78,-0.96 1.575,-0.96 0.6,0 0.615,0.54 0.615,0.735 0,0.63 -0.45,1.785 -0.615,2.22 -0.12,0.3 -0.165,0.39 -0.165,0.57 0,0.54 0.465,0.885 1.005,0.885 1.035,0 1.5,-1.425 1.5,-1.59 0,-0.135 -0.135,-0.135 -0.165,-0.135 -0.15,0 -0.165,0.06 -0.21,0.18 -0.24,0.825 -0.69,1.26 -1.095,1.26 -0.225,0 -0.27,-0.15 -0.27,-0.36 0,-0.24 0.06,-0.375 0.24,-0.855 0.135,-0.315 0.555,-1.425 0.555,-2.01 0,-1.005 -0.81,-1.185 -1.35,-1.185 -0.87,0 -1.455,0.525 -1.77,0.945 -0.075,-0.72 -0.69,-0.945 -1.125,-0.945 -0.45,0 -0.69,0.315 -0.825,0.555 -0.225,0.39 -0.375,0.99 -0.375,1.035 0,0.135 0.15,0.135 0.18,0.135 0.15,0 0.165,-0.03 0.225,-0.315 0.165,-0.615 0.36,-1.125 0.765,-1.125 0.27,0 0.345,0.24 0.345,0.51 0,0.21 -0.09,0.585 -0.165,0.87 -0.075,0.285 -0.18,0.705 -0.225,0.945 z"
         inkscape:connector-curvature="0"
         style="font-style:normal;font-variant:normal;font-weight:normal;font-stretch:normal;letter-spacing:normal;word-spacing:normal;text-anchor:start;fill:#000000;stroke:#000000;stroke-width:0;stroke-linecap:butt;stroke-linejoin:miter;stroke-miterlimit:10.43299961;stroke-opacity:1;stroke-dasharray:none;stroke-dashoffset:0" />
      <path
         id="path3935"
         d="m 438.52,44.1515 0,-0.105 0,-0.12 0,-0.12 -0.015,-0.12 0,-0.255 -0.03,-0.255 -0.015,-0.27 -0.03,-0.285 -0.045,-0.3 -0.045,-0.3 -0.06,-0.3 -0.075,-0.315 -0.075,-0.315 -0.105,-0.315 -0.09,-0.315 -0.12,-0.33 -0.075,-0.15 -0.06,-0.165 -0.075,-0.165 -0.075,-0.15 c -0.9,-1.845 -2.175,-2.805 -2.325,-2.805 -0.09,0 -0.15,0.06 -0.15,0.15 0,0.045 0,0.075 0.285,0.345 1.455,1.47 2.31,3.84 2.31,6.96 0,2.55 -0.555,5.19 -2.4,7.065 -0.195,0.18 -0.195,0.21 -0.195,0.255 0,0.09 0.06,0.15 0.15,0.15 0.15,0 1.485,-1.02 2.37,-2.91 0.765,-1.65 0.945,-3.3 0.945,-4.56 z"
         inkscape:connector-curvature="0"
         style="font-style:normal;font-variant:normal;font-weight:normal;font-stretch:normal;letter-spacing:normal;word-spacing:normal;text-anchor:start;fill:#000000;stroke:#000000;stroke-width:0;stroke-linecap:butt;stroke-linejoin:miter;stroke-miterlimit:10.43299961;stroke-opacity:1;stroke-dasharray:none;stroke-dashoffset:0" />
    </g>
    <g
       id="g5427"
       transform="translate(7.345,-2.0450059)">
      <polygon
         transform="matrix(1.5,0,0,-1.5,-116.2,1037.3665)"
         id="polygon3901"
         points="242.39,664.68 242.57,664.86 241.25,666.21 239.91,664.86 240.09,664.68 241.25,665.69 "
         style="font-style:normal;font-variant:normal;font-weight:normal;font-stretch:normal;letter-spacing:normal;word-spacing:normal;text-anchor:start;fill:#000000;stroke:#000000;stroke-width:0;stroke-linecap:butt;stroke-linejoin:miter;stroke-miterlimit:10.43299961;stroke-opacity:1;stroke-dasharray:none;stroke-dashoffset:0" />
      <path
         id="path3839-8"
         d="m 248.02016,42.265294 0,-0.02472 0,-0.03708 0,-0.02472 0,-0.02472 0,-0.03708 -0.0128,-0.02472 0,-0.02472 0,-0.02472 -0.0128,-0.04944 0,-0.04944 -0.0128,-0.04944 -0.0128,-0.03708 -0.0128,-0.04944 -0.0128,-0.03708 -0.0256,-0.03708 -0.0128,-0.02472 -0.0128,-0.03708 -0.0256,-0.02472 -0.0128,-0.03708 -0.0256,-0.02472 -0.0256,-0.02472 -0.0128,-0.01236 -0.0256,-0.02472 -0.0256,-0.02472 -0.0256,-0.01236 -0.0256,-0.01236 -0.0128,-0.01236 -0.0256,-0.01236 -0.0256,-0.01236 -0.0256,-0.01236 -0.0256,0 -0.0256,-0.01236 -0.0128,0 -0.0256,0 -0.0256,0 -0.0256,0 c -0.31992,0 -0.62704,0.321336 -0.62704,0.580877 0,0.160668 0.064,0.234823 0.20475,0.370772 0.26873,0.247182 0.43508,0.568518 0.43508,1.013445 0,0.519081 -0.78059,3.336951 -2.265,3.336951 -0.65263,0 -0.94695,-0.432568 -0.94695,-1.07524 0,-0.692108 0.34551,-1.581962 0.7422,-2.607765 0.0896,-0.210105 0.15356,-0.383132 0.15356,-0.617954 0,-0.556159 -0.40949,-1.001086 -1.04932,-1.001086 -1.20289,0 -1.68916,1.779708 -1.68916,1.890939 0,0.123591 0.12797,0.123591 0.16636,0.123591 0.11517,0 0.12796,-0.02472 0.19195,-0.222463 0.3711,-1.248267 0.92135,-1.532526 1.29246,-1.532526 0.10237,0 0.31991,0 0.31991,0.39549 0,0.308977 -0.12796,0.642673 -0.21754,0.865136 -0.56305,1.433653 -0.72941,1.989812 -0.72941,2.521252 0,1.322421 1.12611,1.520167 1.71475,1.520167 2.13704,0 2.86645,-4.066137 2.86645,-4.708809 z"
         inkscape:connector-curvature="0"
         style="font-style:normal;font-variant:normal;font-weight:normal;font-stretch:normal;letter-spacing:normal;word-spacing:normal;text-anchor:start;fill:#000000;stroke:#000000;stroke-width:0;stroke-linecap:butt;stroke-linejoin:miter;stroke-miterlimit:10.43299961;stroke-opacity:1;stroke-dasharray:none;stroke-dashoffset:0;display:inline" />
      <g
         transform="translate(-1.28341,2.7140625e-5)"
         id="g4261">
        <path
           style="font-style:normal;font-variant:normal;font-weight:normal;font-stretch:normal;letter-spacing:normal;word-spacing:normal;text-anchor:start;fill:#000000;stroke:#000000;stroke-width:0;stroke-linecap:butt;stroke-linejoin:miter;stroke-miterlimit:10.43299961;stroke-opacity:1;stroke-dasharray:none;stroke-dashoffset:0"
           inkscape:connector-curvature="0"
           d="m 252.53,36.461494 0,-0.015 0,-0.015 0,-0.015 0,-0.015 -0.015,-0.015 0,-0.015 0,-0.015 -0.015,-0.015 0,-0.03 -0.015,-0.015 0,-0.015 -0.015,-0.015 0,-0.015 -0.015,-0.015 -0.015,-0.015 -0.015,-0.015 -0.015,-0.015 0,-0.015 -0.015,-0.015 -0.03,-0.015 -0.015,0 -0.015,-0.015 -0.015,-0.015 -0.015,0 -0.03,-0.015 -0.015,-0.015 -0.03,0 -0.015,0 -0.03,-0.015 -0.015,0 -0.03,0 -0.03,0 c -0.285,0 -0.585,0.27 -0.585,0.57 0,0.18 0.135,0.405 0.42,0.405 0.3,0 0.585,-0.3 0.585,-0.585 z"
           id="path3905" />
        <path
           style="font-style:normal;font-variant:normal;font-weight:normal;font-stretch:normal;letter-spacing:normal;word-spacing:normal;text-anchor:start;fill:#000000;stroke:#000000;stroke-width:0;stroke-linecap:butt;stroke-linejoin:miter;stroke-miterlimit:10.43299961;stroke-opacity:1;stroke-dasharray:none;stroke-dashoffset:0;display:inline"
           inkscape:connector-curvature="0"
           d="m 251.28341,40.031467 -0.0128,0.01236 0,0.02472 -0.0128,0.03708 -0.0128,0.02472 0,0.02472 -0.0128,0.01236 0,0.02472 -0.0128,0.02472 0,0.02472 -0.0128,0.02472 0,0.02472 0,0.01236 0,0.01236 0,0.01236 0,0.01236 0,0.01236 0,0.01236 0,0.01236 0,0.01236 c 0,0.395491 0.35831,0.729186 0.84458,0.729186 0.88297,0 1.27967,-1.186472 1.27967,-1.310062 0,-0.111232 -0.11517,-0.111232 -0.14077,-0.111232 -0.12796,0 -0.12796,0.04944 -0.16635,0.13595 -0.20475,0.692108 -0.60145,1.038162 -0.94696,1.038162 -0.17915,0 -0.23034,-0.09887 -0.23034,-0.296617 0,-0.197746 0.064,-0.358414 0.15356,-0.5438 0.0896,-0.234822 0.17916,-0.469645 0.28153,-0.692108 0.0768,-0.210105 0.3967,-0.988727 0.43509,-1.087599 0.0256,-0.08651 0.0512,-0.197745 0.0512,-0.2719 0,-0.407849 -0.35831,-0.741545 -0.84458,-0.741545 -0.88297,0 -1.29246,1.174113 -1.29246,1.322422 0,0.111231 0.12796,0.111231 0.15356,0.111231 0.12796,0 0.12796,-0.04944 0.15356,-0.135949 0.24313,-0.741545 0.62703,-1.050522 0.95974,-1.050522 0.14077,0 0.21755,0.0618 0.21755,0.296618 0,0.197745 -0.0512,0.333695 -0.26873,0.865135 z"
           id="path3843-2" />
      </g>
    </g>
    <path
       style="fill:none;stroke:#000000;stroke-width:0.70866144;stroke-linecap:butt;stroke-linejoin:miter;stroke-miterlimit:4;stroke-opacity:1;stroke-dasharray:none;marker-end:url(#marker3209)"
       d="M 38.53732,91.584118 39,91.031494 l 16,-23"
       id="path4304"
       inkscape:connector-curvature="0"
       sodipodi:nodetypes="ccc" />
    <path
       style="fill:none;stroke:#000000;stroke-width:0.70866144;stroke-linecap:butt;stroke-linejoin:miter;stroke-miterlimit:4;stroke-opacity:1;stroke-dasharray:none;marker-end:url(#marker3209);display:inline"
       d="m 228,67.031494 0.46268,-0.552624 30.11619,-19.447376"
       id="path4304-1"
       inkscape:connector-curvature="0"
       sodipodi:nodetypes="ccc" />
  </g>
</svg>
