<?xml version="1.0" encoding="UTF-8" standalone="no"?>
<!-- Created with Inkscape (http://www.inkscape.org/) -->

<svg
   xmlns:dc="http://purl.org/dc/elements/1.1/"
   xmlns:cc="http://creativecommons.org/ns#"
   xmlns:rdf="http://www.w3.org/1999/02/22-rdf-syntax-ns#"
   xmlns:svg="http://www.w3.org/2000/svg"
   xmlns="http://www.w3.org/2000/svg"
   xmlns:sodipodi="http://sodipodi.sourceforge.net/DTD/sodipodi-0.dtd"
   xmlns:inkscape="http://www.inkscape.org/namespaces/inkscape"
   width="271.38583"
   height="161.82788"
   id="svg2"
   version="1.1"
   inkscape:version="0.48.0 r9654"
   sodipodi:docname="kriv_kriv.svg"
   style="enable-background:new">
  <sodipodi:namedview
     id="base"
     pagecolor="#ffffff"
     bordercolor="#666666"
     borderopacity="1.0"
     inkscape:pageopacity="0.0"
     inkscape:pageshadow="2"
     inkscape:zoom="2"
     inkscape:cx="118.12399"
     inkscape:cy="90.120348"
     inkscape:document-units="cm"
     inkscape:current-layer="layer3"
     showgrid="true"
     inkscape:window-width="800"
     inkscape:window-height="579"
     inkscape:window-x="-4"
     inkscape:window-y="-4"
     inkscape:window-maximized="1"
     units="cm"
     width="9.2cm"
     showguides="true"
     inkscape:guide-bbox="true"
     inkscape:showpageshadow="false"
     objecttolerance="4"
     gridtolerance="4"
     fit-margin-top="0"
     fit-margin-left="0"
     fit-margin-right="0"
     fit-margin-bottom="0">
    <inkscape:grid
       snapvisiblegridlinesonly="true"
       enabled="true"
       visible="true"
       empspacing="5"
       id="grid3254"
       type="xygrid" />
  </sodipodi:namedview>
  <defs
     id="defs4"><inkscape:perspective
   sodipodi:type="inkscape:persp3d"
   inkscape:vp_x="0 : 124.01575 : 1"
   inkscape:vp_y="0 : 1000 : 0"
   inkscape:vp_z="325.98425 : 124.01575 : 1"
   inkscape:persp3d-origin="162.99213 : 82.677165 : 1"
   id="perspective4264" />
<marker
   style="overflow:visible"
   id="Arrow1Send"
   refX="0"
   refY="0"
   orient="auto"
   inkscape:stockid="Arrow1Send">
  <path
     transform="matrix(-0.2,0,0,-0.2,-1.2,0)"
     style="fill-rule:evenodd;stroke:#000000;stroke-width:1pt;marker-start:none"
     d="M 0,0 5,-5 -12.5,0 5,5 0,0 z"
     id="path3997"
     inkscape:connector-curvature="0" />
</marker>
<marker
   style="overflow:visible"
   id="Arrow1Sstart"
   refX="0"
   refY="0"
   orient="auto"
   inkscape:stockid="Arrow1Sstart">
  <path
     transform="matrix(0.2,0,0,0.2,1.2,0)"
     style="fill-rule:evenodd;stroke:#000000;stroke-width:1pt;marker-start:none"
     d="M 0,0 5,-5 -12.5,0 5,5 0,0 z"
     id="path3994"
     inkscape:connector-curvature="0" />
</marker>
<marker
   style="overflow:visible"
   id="Arrow1Mend"
   refX="0"
   refY="0"
   orient="auto"
   inkscape:stockid="Arrow1Mend">
  <path
     transform="matrix(-0.4,0,0,-0.4,-4,0)"
     style="fill-rule:evenodd;stroke:#000000;stroke-width:1pt;marker-start:none"
     d="M 0,0 5,-5 -12.5,0 5,5 0,0 z"
     id="path3991"
     inkscape:connector-curvature="0" />
</marker>
<marker
   style="overflow:visible"
   id="Arrow1Mstart"
   refX="0"
   refY="0"
   orient="auto"
   inkscape:stockid="Arrow1Mstart">
  <path
     transform="matrix(0.4,0,0,0.4,4,0)"
     style="fill-rule:evenodd;stroke:#000000;stroke-width:1pt;marker-start:none"
     d="M 0,0 5,-5 -12.5,0 5,5 0,0 z"
     id="path3988"
     inkscape:connector-curvature="0" />
</marker>
<marker
   style="overflow:visible"
   id="Arrow2Lend"
   refX="0"
   refY="0"
   orient="auto"
   inkscape:stockid="Arrow2Lend">
  <path
     transform="matrix(-1.1,0,0,-1.1,-1.1,0)"
     d="M 8.7185878,4.0337352 -2.2072895,0.01601326 8.7185884,-4.0017078 c -1.7454984,2.3720609 -1.7354408,5.6174519 -6e-7,8.035443 z"
     style="font-size:12px;fill-rule:evenodd;stroke-width:0.625;stroke-linejoin:round"
     id="path4003"
     inkscape:connector-curvature="0" />
</marker>
<marker
   style="overflow:visible"
   id="Arrow2Lstart"
   refX="0"
   refY="0"
   orient="auto"
   inkscape:stockid="Arrow2Lstart">
  <path
     transform="matrix(1.1,0,0,1.1,1.1,0)"
     d="M 8.7185878,4.0337352 -2.2072895,0.01601326 8.7185884,-4.0017078 c -1.7454984,2.3720609 -1.7354408,5.6174519 -6e-7,8.035443 z"
     style="font-size:12px;fill-rule:evenodd;stroke-width:0.625;stroke-linejoin:round"
     id="path4000"
     inkscape:connector-curvature="0" />
</marker>
<marker
   inkscape:stockid="Arrow1Lend"
   orient="auto"
   refY="0"
   refX="0"
   id="Arrow1Lend"
   style="overflow:visible">
  <path
     inkscape:connector-curvature="0"
     id="path4440"
     d="M 0,0 5,-5 -12.5,0 5,5 0,0 z"
     style="fill-rule:evenodd;stroke:#000000;stroke-width:1pt;marker-start:none"
     transform="matrix(-0.8,0,0,-0.8,-10,0)" />
</marker>
<marker
   inkscape:stockid="Arrow1Lstart"
   orient="auto"
   refY="0"
   refX="0"
   id="Arrow1Lstart"
   style="overflow:visible">
  <path
     inkscape:connector-curvature="0"
     id="path4437"
     d="M 0,0 5,-5 -12.5,0 5,5 0,0 z"
     style="fill-rule:evenodd;stroke:#000000;stroke-width:1pt;marker-start:none"
     transform="matrix(0.8,0,0,0.8,10,0)" />
</marker>
<marker
   style="overflow:visible"
   id="Arrow2Lstart-4"
   refX="0"
   refY="0"
   orient="auto"
   inkscape:stockid="Arrow2Lstart">
  <path
     transform="matrix(1.1,0,0,1.1,1.1,0)"
     d="M 8.7185878,4.0337352 -2.2072895,0.01601326 8.7185884,-4.0017078 c -1.7454984,2.3720609 -1.7354408,5.6174519 -6e-7,8.035443 z"
     style="font-size:12px;fill-rule:evenodd;stroke-width:0.625;stroke-linejoin:round"
     id="path4000-4"
     inkscape:connector-curvature="0" />
</marker>
<marker
   style="overflow:visible"
   id="Arrow2Lend-3"
   refX="0"
   refY="0"
   orient="auto"
   inkscape:stockid="Arrow2Lend">
  <path
     transform="matrix(-1.1,0,0,-1.1,-1.1,0)"
     d="M 8.7185878,4.0337352 -2.2072895,0.01601326 8.7185884,-4.0017078 c -1.7454984,2.3720609 -1.7354408,5.6174519 -6e-7,8.035443 z"
     style="font-size:12px;fill-rule:evenodd;stroke-width:0.625;stroke-linejoin:round"
     id="path4003-0"
     inkscape:connector-curvature="0" />
</marker>
<marker
   style="overflow:visible"
   id="marker7119"
   refX="0"
   refY="0"
   orient="auto"
   inkscape:stockid="Arrow2Lend">
  <path
     transform="matrix(-1.1,0,0,-1.1,-1.1,0)"
     d="M 8.7185878,4.0337352 -2.2072895,0.01601326 8.7185884,-4.0017078 c -1.7454984,2.3720609 -1.7354408,5.6174519 -6e-7,8.035443 z"
     style="font-size:12px;fill-rule:evenodd;stroke-width:0.625;stroke-linejoin:round"
     id="path7121"
     inkscape:connector-curvature="0" />
</marker>
<marker
   style="overflow:visible"
   id="Arrow1Mstart-3"
   refX="0"
   refY="0"
   orient="auto"
   inkscape:stockid="Arrow1Mstart">
  <path
     transform="matrix(0.4,0,0,0.4,4,0)"
     style="fill-rule:evenodd;stroke:#000000;stroke-width:1pt;marker-start:none"
     d="M 0,0 5,-5 -12.5,0 5,5 0,0 z"
     id="path3988-7"
     inkscape:connector-curvature="0" />
</marker>
<marker
   style="overflow:visible"
   id="Arrow1Mend-5"
   refX="0"
   refY="0"
   orient="auto"
   inkscape:stockid="Arrow1Mend">
  <path
     transform="matrix(-0.4,0,0,-0.4,-4,0)"
     style="fill-rule:evenodd;stroke:#000000;stroke-width:1pt;marker-start:none"
     d="M 0,0 5,-5 -12.5,0 5,5 0,0 z"
     id="path3991-5"
     inkscape:connector-curvature="0" />
</marker>
<marker
   style="overflow:visible"
   id="Arrow1Mend-4"
   refX="0"
   refY="0"
   orient="auto"
   inkscape:stockid="Arrow1Mend">
  <path
     transform="matrix(-0.4,0,0,-0.4,-4,0)"
     style="fill-rule:evenodd;stroke:#000000;stroke-width:1pt;marker-start:none"
     d="M 0,0 5,-5 -12.5,0 5,5 0,0 z"
     id="path3991-2"
     inkscape:connector-curvature="0" />
</marker>
<marker
   style="overflow:visible"
   id="Arrow1Mend-4-4"
   refX="0"
   refY="0"
   orient="auto"
   inkscape:stockid="Arrow1Mend">
  <path
     transform="matrix(-0.4,0,0,-0.4,-4,0)"
     style="fill-rule:evenodd;stroke:#000000;stroke-width:1pt;marker-start:none"
     d="M 0,0 5,-5 -12.5,0 5,5 0,0 z"
     id="path3991-2-8"
     inkscape:connector-curvature="0" />
</marker>














</defs>
  <metadata
     id="metadata7">
    <rdf:RDF>
      <cc:Work
         rdf:about="">
        <dc:format>image/svg+xml</dc:format>
        <dc:type
           rdf:resource="http://purl.org/dc/dcmitype/StillImage" />
        <dc:title />
      </cc:Work>
    </rdf:RDF>
  </metadata>
  <g
     style="display:none"
     inkscape:label="Надписи"
     id="layer5"
     inkscape:groupmode="layer"
     transform="translate(-19.5,-63.327494)" />
  <g
     style="display:none"
     inkscape:label="Слой3"
     id="layer4"
     inkscape:groupmode="layer"
     transform="translate(-19.5,-63.327494)" />
  <g
     style="display:none"
     transform="translate(-19.5,-867.65695)"
     inkscape:groupmode="layer"
     id="layer2"
     inkscape:label="Слой2">
    <text
       xml:space="preserve"
       style="font-size:12px;font-style:normal;font-variant:normal;font-weight:normal;font-stretch:normal;line-height:125%;letter-spacing:0px;word-spacing:0px;fill:#000000;fill-opacity:1;stroke:none;font-family:cmmi12;-inkscape-font-specification:cmmi12"
       x="114.07245"
       y="849.18628"
       id="text3997"
       sodipodi:linespacing="125%"><tspan
         sodipodi:role="line"
         id="tspan3999"
         x="114.07245"
         y="849.18628" /></text>
    <text
       xml:space="preserve"
       style="font-size:12px;font-style:normal;font-variant:normal;font-weight:normal;font-stretch:normal;line-height:125%;letter-spacing:0px;word-spacing:0px;fill:#000000;fill-opacity:1;stroke:none;font-family:cmmi12;-inkscape-font-specification:cmmi12"
       x="257.33582"
       y="739.52142"
       id="text4001"
       sodipodi:linespacing="125%"><tspan
         sodipodi:role="line"
         id="tspan4003"
         x="257.33582"
         y="739.52142">  </tspan></text>
    <text
       xml:space="preserve"
       style="font-size:12px;font-style:normal;font-variant:normal;font-weight:normal;font-stretch:normal;line-height:125%;letter-spacing:0px;word-spacing:0px;fill:#000000;fill-opacity:1;stroke:none;font-family:cmmi12;-inkscape-font-specification:cmmi12"
       x="125.36874"
       y="837.7204"
       id="text4009"
       sodipodi:linespacing="125%"><tspan
         sodipodi:role="line"
         id="tspan4011"
         x="125.36874"
         y="837.7204" /></text>
  </g>
  <g
     style="display:inline"
     inkscape:groupmode="layer"
     id="layer3"
     inkscape:label="Слой1"
     transform="translate(-19.5,-63.327494)">
    <g
       id="g3521"
       inkscape:label="ink_ext_XXXXXX"
       transform="matrix(1.25,0,0,-1.25,0,1052.5)">
      <g
         id="g3523"
         transform="scale(0.1,0.1)" />
    </g>
    <g
       id="g3535"
       inkscape:label="ink_ext_XXXXXX"
       transform="matrix(1.25,0,0,-1.25,0,1052.5)">
      <g
         id="g3537"
         transform="scale(0.1,0.1)" />
    </g>
    <text
       sodipodi:linespacing="125%"
       id="text6249"
       y="224.03149"
       x="104"
       style="font-size:14.93999958px;font-style:normal;font-variant:normal;font-weight:normal;font-stretch:normal;line-height:125%;letter-spacing:0px;word-spacing:0px;fill:#000000;fill-opacity:1;stroke:none;font-family:cmmi12;-inkscape-font-specification:cmmi12"
       xml:space="preserve"><tspan
         y="224.03149"
         x="104"
         id="tspan6251"
         sodipodi:role="line" /></text>
    <path
       sodipodi:nodetypes="ccc"
       inkscape:connector-curvature="0"
       id="path3030"
       d="m 80,68.031494 0,139.999996 210,0"
       style="fill:none;stroke:#000000;stroke-width:0.70866144;stroke-linecap:butt;stroke-linejoin:miter;stroke-miterlimit:4;stroke-opacity:1;stroke-dasharray:none;marker-start:url(#Arrow1Mstart-3);marker-end:url(#Arrow1Mend-4-4)" />
    <path
       inkscape:connector-curvature="0"
       id="path3032"
       d="m 80,208.03149 -60,0"
       style="fill:none;stroke:#000000;stroke-width:1px;stroke-linecap:butt;stroke-linejoin:miter;stroke-opacity:1" />
    <path
       sodipodi:nodetypes="cc"
       inkscape:connector-curvature="0"
       id="path3034"
       d="M 20,218.03149 275.05025,122.78023"
       style="fill:none;stroke:#000000;stroke-width:0.70866144;stroke-linecap:butt;stroke-linejoin:miter;stroke-miterlimit:4;stroke-opacity:1;stroke-dasharray:none" />
    <path
       style="fill:#ffffff;stroke:#000000;stroke-width:0.70866144;stroke-miterlimit:4;stroke-opacity:1;stroke-dasharray:none;display:inline;enable-background:new"
       d="m 50,208.03149 c 0,1.38073 -1.11929,2.50001 -2.5,2.50001 -1.380709,0 -2.499999,-1.11928 -2.499999,-2.50001 0,-1.38071 1.11929,-2.5 2.499999,-2.5 1.38071,0 2.5,1.11929 2.5,2.5 z"
       id="path3031-52-7-1"
       inkscape:connector-curvature="0" />
    <path
       sodipodi:nodetypes="cc"
       inkscape:connector-curvature="0"
       id="path3034-4"
       d="M 174.40947,224.80104 255,78.781494"
       style="fill:none;stroke:#000000;stroke-width:0.70866144;stroke-linecap:butt;stroke-linejoin:miter;stroke-miterlimit:4;stroke-opacity:1;stroke-dasharray:none;display:inline" />
    <path
       sodipodi:nodetypes="cc"
       inkscape:connector-curvature="0"
       id="path3108"
       d="M 30,172.37107 C 173.87916,182.70805 237.97921,144.03785 250,73.376119"
       style="fill:none;stroke:#000000;stroke-width:1px;stroke-linecap:butt;stroke-linejoin:miter;stroke-opacity:1" />
    <path
       style="fill:#ffffff;stroke:#000000;stroke-width:0.70866144;stroke-miterlimit:4;stroke-opacity:1;stroke-dasharray:none;display:inline;enable-background:new"
       d="m 180,158.03149 c 0,1.38073 -1.11929,2.50001 -2.5,2.50001 -1.38071,0 -2.5,-1.11928 -2.5,-2.50001 0,-1.38071 1.11929,-2.5 2.5,-2.5 1.38071,0 2.5,1.11929 2.5,2.5 z"
       id="path3031-52-7-7"
       inkscape:connector-curvature="0" />
    <path
       style="fill:#ffffff;stroke:#000000;stroke-width:0.70866144;stroke-miterlimit:4;stroke-opacity:1;stroke-dasharray:none;display:inline;enable-background:new"
       d="m 241.25,108.03149 c 0,1.38073 -1.11929,2.50001 -2.5,2.50001 -1.38071,0 -2.5,-1.11928 -2.5,-2.50001 0,-1.38071 1.11929,-2.5 2.5,-2.5 1.38071,0 2.5,1.11929 2.5,2.5 z"
       id="path3031-52-7-7-0"
       inkscape:connector-curvature="0" />
    <path
       sodipodi:nodetypes="cc"
       inkscape:connector-curvature="0"
       id="path3110"
       d="m 89.25,192.15649 c 7.100329,3.56378 8.64684,8.97883 5.75,15.875"
       style="fill:none;stroke:#000000;stroke-width:0.70866144;stroke-linecap:butt;stroke-linejoin:miter;stroke-miterlimit:4;stroke-opacity:1;stroke-dasharray:none" />
    <path
       sodipodi:nodetypes="cc"
       inkscape:connector-curvature="0"
       id="path3112"
       d="m 191.53033,193.56182 c 7.47977,2.21886 11.71438,6.60116 10.71967,14.46967"
       style="fill:none;stroke:#000000;stroke-width:0.70866144;stroke-linecap:butt;stroke-linejoin:miter;stroke-miterlimit:4;stroke-opacity:1;stroke-dasharray:none" />
    <path
       style="font-style:normal;font-variant:normal;font-weight:normal;font-stretch:normal;letter-spacing:normal;word-spacing:normal;text-anchor:start;fill:#000000;stroke:#000000;stroke-width:0;stroke-linecap:butt;stroke-linejoin:miter;stroke-miterlimit:10.43299961;stroke-opacity:1;stroke-dasharray:none;stroke-dashoffset:0"
       inkscape:connector-curvature="0"
       d="m 105,198.03149 0,-0.096 -0.012,-0.084 0,-0.084 0,-0.072 -0.024,-0.168 -0.012,-0.144 -0.036,-0.144 -0.024,-0.132 -0.036,-0.132 -0.048,-0.12 -0.048,-0.12 -0.048,-0.108 -0.06,-0.108 -0.06,-0.096 -0.06,-0.096 -0.06,-0.084 -0.072,-0.072 -0.072,-0.072 -0.072,-0.072 -0.072,-0.06 -0.084,-0.06 -0.084,-0.06 -0.084,-0.048 -0.072,-0.036 -0.096,-0.048 -0.084,-0.024 -0.084,-0.036 -0.084,-0.024 -0.084,-0.024 -0.084,-0.012 -0.096,-0.012 -0.084,-0.012 -0.084,0 -0.084,0 c -1.632,0 -3.216,1.704 -3.216,3.384 0,1.116 0.72,2.016 1.944,2.016 l 0.024,-0.252 c -0.72,0 -1.08,-0.54 -1.08,-1.308 0,-0.588 0.312,-1.872 0.696,-2.484 0.564,-0.876 1.2,-1.092 1.62,-1.092 1.188,0 1.188,1.56 1.188,2.496 0,0.432 0,1.128 0.024,1.332 h 0 c -1.056,0.924 -1.98,1.056 -2.448,1.056 l -0.024,0.252 c 0.744,0 1.608,-0.264 2.52,-0.996 0.156,0.636 0.552,0.996 1.092,0.996 0.624,0 0.996,-0.648 0.996,-0.84 0,-0.084 -0.072,-0.12 -0.144,-0.12 -0.084,0 -0.12,0.036 -0.156,0.12 -0.204,0.588 -0.636,0.588 -0.66,0.588 -0.372,0 -0.372,-0.936 -0.372,-1.224 0,-0.252 0,-0.276 0.12,-0.42 1.116,-1.404 1.368,-2.796 1.368,-2.808 0,-0.024 -0.012,-0.12 -0.144,-0.12 -0.12,0 -0.12,0.036 -0.18,0.252 -0.216,0.756 -0.612,1.668 -1.164,2.364 z"
       id="path4455" />
    <path
       style="font-style:normal;font-variant:normal;font-weight:normal;font-stretch:normal;letter-spacing:normal;word-spacing:normal;text-anchor:start;fill:#000000;stroke:#000000;stroke-width:0;stroke-linecap:butt;stroke-linejoin:miter;stroke-miterlimit:10.43299961;stroke-opacity:1;stroke-dasharray:none;stroke-dashoffset:0"
       inkscape:connector-curvature="0"
       d="m 76.056,213.49949 0,-0.18 -0.012,-0.168 -0.012,-0.18 -0.036,-0.156 -0.024,-0.168 -0.036,-0.156 -0.048,-0.156 -0.06,-0.144 -0.048,-0.144 -0.072,-0.144 -0.072,-0.132 -0.072,-0.132 -0.084,-0.12 -0.084,-0.12 -0.096,-0.12 -0.096,-0.108 -0.108,-0.096 -0.108,-0.096 -0.108,-0.096 -0.12,-0.084 -0.12,-0.084 -0.132,-0.072 -0.132,-0.06 -0.144,-0.06 -0.132,-0.06 -0.144,-0.048 -0.156,-0.036 -0.144,-0.036 -0.156,-0.024 -0.168,-0.012 -0.156,-0.012 -0.168,-0.012 -0.072,0.3 c 0.984,0 2.064,0.672 2.064,2.448 0,0.864 -0.324,2.724 -1.512,4.2 -0.576,0.72 -1.56,1.428 -2.556,1.428 h 0 c -1.188,0 -2.028,-0.972 -2.028,-2.544 0,-0.528 0.168,-2.268 1.092,-3.672 0.828,-1.236 1.992,-1.86 2.94,-1.86 l 0.072,-0.3 c -2.58,0 -5.22,2.712 -5.22,5.496 0,1.98 1.344,3.192 3.072,3.192 2.532,0 5.196,-2.616 5.196,-5.472 z"
       id="path4457" />
    <g
       id="g4568"
       transform="translate(248.04,106.04)">
      <path
         id="path4459"
         d="m -38.768,89.18349 0,-0.096 0,-0.084 0,-0.084 -0.012,-0.072 -0.012,-0.168 -0.024,-0.144 -0.024,-0.144 -0.036,-0.132 -0.036,-0.132 -0.048,-0.12 -0.036,-0.12 -0.06,-0.108 -0.048,-0.108 -0.06,-0.096 -0.06,-0.096 -0.072,-0.084 -0.072,-0.072 -0.06,-0.072 -0.084,-0.072 -0.072,-0.06 -0.084,-0.06 -0.072,-0.06 -0.084,-0.048 -0.084,-0.036 -0.084,-0.048 -0.084,-0.024 -0.084,-0.036 -0.096,-0.024 -0.084,-0.024 -0.084,-0.012 -0.084,-0.012 -0.084,-0.012 -0.084,0 -0.084,0 c -1.644,0 -3.216,1.704 -3.216,3.384 0,1.116 0.708,2.016 1.932,2.016 l 0.024,-0.252 c -0.72,0 -1.08,-0.54 -1.08,-1.308 0,-0.588 0.312,-1.872 0.696,-2.484 0.564,-0.876 1.212,-1.104 1.632,-1.104 1.176,0 1.176,1.572 1.176,2.496 0,0.444 0,1.14 0.024,1.344 h 0 c -1.044,0.924 -1.968,1.056 -2.448,1.056 l -0.024,0.252 c 0.756,0 1.608,-0.264 2.52,-0.996 0.156,0.636 0.552,0.996 1.092,0.996 0.636,0 1.008,-0.648 1.008,-0.84 0,-0.084 -0.072,-0.12 -0.144,-0.12 -0.084,0 -0.12,0.036 -0.156,0.12 -0.216,0.588 -0.648,0.588 -0.672,0.588 -0.372,0 -0.372,-0.936 -0.372,-1.224 0,-0.252 0,-0.276 0.12,-0.42 1.128,-1.404 1.38,-2.796 1.38,-2.808 0,-0.024 -0.012,-0.12 -0.144,-0.12 -0.12,0 -0.12,0.036 -0.18,0.252 -0.216,0.756 -0.612,1.668 -1.176,2.364 z"
         inkscape:connector-curvature="0"
         style="font-style:normal;font-variant:normal;font-weight:normal;font-stretch:normal;letter-spacing:normal;word-spacing:normal;text-anchor:start;fill:#000000;stroke:#000000;stroke-width:0;stroke-linecap:butt;stroke-linejoin:miter;stroke-miterlimit:10.43299961;stroke-opacity:1;stroke-dasharray:none;stroke-dashoffset:0" />
      <path
         id="path4461"
         d="m -29.228,89.25549 h 3.336 c 0.168,0 0.396,0 0.396,-0.24 0,-0.24 -0.228,-0.24 -0.396,-0.24 h -3.336 v -3.348 c 0,-0.168 0,-0.396 -0.24,-0.396 -0.24,0 -0.24,0.228 -0.24,0.396 v 3.348 h -3.348 c -0.168,0 -0.396,0 -0.396,0.24 0,0.24 0.228,0.24 0.396,0.24 h 3.348 v 3.336 c 0,0.168 0,0.396 0.24,0.396 0.24,0 0.24,-0.228 0.24,-0.396 z"
         inkscape:connector-curvature="0"
         style="font-style:normal;font-variant:normal;font-weight:normal;font-stretch:normal;letter-spacing:normal;word-spacing:normal;text-anchor:start;fill:#000000;stroke:#000000;stroke-width:0;stroke-linecap:butt;stroke-linejoin:miter;stroke-miterlimit:10.43299961;stroke-opacity:1;stroke-dasharray:none;stroke-dashoffset:0" />
      <path
         id="path4463"
         d="m -16.88,83.66349 -0.012,-0.012 -0.012,-0.024 0,-0.012 -0.012,-0.012 0,-0.012 -0.012,-0.012 0,-0.012 -0.012,0 0,-0.012 -0.012,-0.012 -0.012,-0.012 0,-0.012 -0.012,0 0,-0.012 -0.012,0 -0.012,-0.012 0,-0.012 -0.012,0 -0.012,0 0,-0.012 -0.012,0 -0.012,-0.012 -0.012,0 -0.012,0 -0.012,0 -0.012,-0.012 -0.012,0 -0.024,0 -0.012,0 -0.012,0 -0.024,0 -0.012,0 c -0.204,0 -0.228,0.06 -0.312,0.216 l -0.072,0.972 3.216,6.456 h -6.444 l 3.228,-6.456 0.072,-0.972 -4.044,8.1 c -0.06,0.108 -0.06,0.132 -0.06,0.144 0,0.084 0.072,0.084 0.264,0.084 h 8.304 c 0.192,0 0.264,0 0.264,-0.084 0,-0.012 0,-0.036 -0.06,-0.144 z"
         inkscape:connector-curvature="0"
         style="font-style:normal;font-variant:normal;font-weight:normal;font-stretch:normal;letter-spacing:normal;word-spacing:normal;text-anchor:start;fill:#000000;stroke:#000000;stroke-width:0;stroke-linecap:butt;stroke-linejoin:miter;stroke-miterlimit:10.43299961;stroke-opacity:1;stroke-dasharray:none;stroke-dashoffset:0" />
      <path
         id="path4465"
         d="m -6.5,89.18349 0,-0.096 0,-0.084 -0.012,-0.084 0,-0.072 -0.012,-0.168 -0.024,-0.144 -0.024,-0.144 -0.036,-0.132 -0.036,-0.132 -0.048,-0.12 -0.048,-0.12 -0.048,-0.108 -0.048,-0.108 -0.06,-0.096 -0.06,-0.096 -0.072,-0.084 -0.072,-0.072 -0.072,-0.072 -0.072,-0.072 -0.072,-0.06 -0.084,-0.06 -0.072,-0.06 -0.084,-0.048 -0.084,-0.036 -0.084,-0.048 -0.084,-0.024 -0.096,-0.036 -0.084,-0.024 -0.084,-0.024 -0.084,-0.012 -0.084,-0.012 -0.084,-0.012 -0.096,0 -0.072,0 c -1.644,0 -3.228,1.704 -3.228,3.384 0,1.116 0.72,2.016 1.944,2.016 l 0.024,-0.252 c -0.72,0 -1.08,-0.54 -1.08,-1.308 0,-0.588 0.312,-1.872 0.696,-2.484 0.564,-0.876 1.212,-1.104 1.632,-1.104 1.176,0 1.176,1.572 1.176,2.496 0,0.444 0,1.14 0.024,1.344 h 0 c -1.044,0.924 -1.968,1.056 -2.448,1.056 l -0.024,0.252 c 0.756,0 1.608,-0.264 2.52,-0.996 0.156,0.636 0.552,0.996 1.092,0.996 0.636,0 1.008,-0.648 1.008,-0.84 0,-0.084 -0.072,-0.12 -0.144,-0.12 -0.084,0 -0.12,0.036 -0.156,0.12 -0.216,0.588 -0.648,0.588 -0.672,0.588 -0.372,0 -0.372,-0.936 -0.372,-1.224 0,-0.252 0,-0.276 0.12,-0.42 1.128,-1.404 1.38,-2.796 1.38,-2.808 0,-0.024 -0.012,-0.12 -0.144,-0.12 -0.12,0 -0.12,0.036 -0.18,0.252 -0.216,0.756 -0.612,1.668 -1.176,2.364 z"
         inkscape:connector-curvature="0"
         style="font-style:normal;font-variant:normal;font-weight:normal;font-stretch:normal;letter-spacing:normal;word-spacing:normal;text-anchor:start;fill:#000000;stroke:#000000;stroke-width:0;stroke-linecap:butt;stroke-linejoin:miter;stroke-miterlimit:10.43299961;stroke-opacity:1;stroke-dasharray:none;stroke-dashoffset:0" />
    </g>
    <path
       style="font-style:normal;font-variant:normal;font-weight:normal;font-stretch:normal;letter-spacing:normal;word-spacing:normal;text-anchor:start;fill:#000000;stroke:#000000;stroke-width:0;stroke-linecap:butt;stroke-linejoin:miter;stroke-miterlimit:10.43299961;stroke-opacity:1;stroke-dasharray:none;stroke-dashoffset:0"
       inkscape:connector-curvature="0"
       d="m 180.768,145.79549 0.012,-0.036 0,-0.048 0.012,-0.036 0.012,-0.024 0.012,-0.036 0.012,-0.036 0,-0.024 0.012,-0.024 0.012,-0.036 0.012,-0.024 0.024,-0.024 0.012,-0.012 0.012,-0.024 0.024,-0.024 0.024,-0.012 0.024,-0.012 0.024,-0.024 0.024,-0.012 0.036,-0.012 0.036,-0.012 0.036,-0.012 0.012,0 0.024,0 0.024,-0.012 0.024,0 0.024,0 0.024,-0.012 0.024,0 0.024,0 0.024,-0.012 0.024,0 0.036,0 0.024,0 0.036,0 0.036,0 0.024,-0.012 0.036,0 0.036,0 0.036,0 0.036,0 0.048,0 0.036,0 0.036,0 c 0.276,0 0.384,0 0.384,-0.24 0,-0.132 -0.12,-0.132 -0.324,-0.132 h -1.572 c -0.312,0 -0.324,0 -0.468,0.228 l -4.368,6.804 -0.936,-6.756 c -0.036,-0.276 -0.06,-0.276 -0.372,-0.276 H 172.5 c -0.228,0 -0.36,0 -0.36,0.228 0,0.144 0.108,0.144 0.348,0.144 0.156,0 0.372,0.012 0.516,0.024 0.192,0.024 0.264,0.06 0.264,0.192 0,0.048 -0.012,0.084 -0.048,0.228 l -1.524,6.072 c -0.12,0.48 -0.324,0.864 -1.296,0.9 -0.06,0 -0.216,0.012 -0.216,0.228 0,0.108 0.072,0.144 0.168,0.144 0.384,0 0.804,-0.036 1.2,-0.036 0.408,0 0.84,0.036 1.236,0.036 0.06,0 0.216,0 0.216,-0.24 0,-0.132 -0.132,-0.132 -0.216,-0.132 -0.684,-0.012 -0.816,-0.252 -0.816,-0.528 0,-0.084 0.012,-0.144 0.048,-0.264 l 1.632,-6.516 h 0.012 l 1.02,7.404 c 0.024,0.144 0.036,0.276 0.18,0.276 0.132,0 0.204,-0.132 0.264,-0.216 l 4.836,-7.56 h 0.012 l -1.716,6.84 c -0.12,0.468 -0.144,0.564 -1.08,0.564 -0.204,0 -0.336,0 -0.336,0.228 0,0.144 0.144,0.144 0.18,0.144 0.336,0 1.14,-0.036 1.476,-0.036 0.492,0 1.008,0.036 1.5,0.036 0.072,0 0.228,0 0.228,-0.24 0,-0.132 -0.108,-0.132 -0.336,-0.132 -0.444,0 -0.78,0 -0.78,-0.216 0,-0.048 0,-0.072 0.06,-0.288 z"
       id="path4467" />
    <g
       id="g4574"
       transform="translate(263.392,-10.415996)">
      <path
         id="path4469"
         d="m -33.392,113.44749 0.012,-0.036 0,-0.036 0.012,-0.036 0.012,-0.036 0.012,-0.024 0.012,-0.036 0,-0.024 0.012,-0.036 0.012,-0.024 0.012,-0.024 0.024,-0.024 0.012,-0.024 0.012,-0.012 0.024,-0.024 0.024,-0.012 0.024,-0.024 0.024,-0.012 0.024,-0.012 0.036,-0.012 0.036,-0.012 0.036,-0.012 0.012,-0.012 0.024,0 0.024,0 0.024,-0.012 0.024,0 0.024,0 0.024,0 0.024,-0.012 0.024,0 0.024,0 0.036,0 0.024,-0.012 0.036,0 0.036,0 0.024,0 0.036,0 0.036,0 0.036,0 0.036,0 0.048,0 0.036,0 0.036,0 c 0.276,0 0.384,0 0.384,-0.24 0,-0.132 -0.12,-0.132 -0.324,-0.132 h -1.572 c -0.312,0 -0.324,0 -0.468,0.228 l -4.368,6.804 -0.936,-6.756 c -0.036,-0.276 -0.06,-0.276 -0.372,-0.276 h -1.632 c -0.228,0 -0.36,0 -0.36,0.228 0,0.144 0.108,0.144 0.348,0.144 0.156,0 0.372,0.012 0.516,0.024 0.192,0.024 0.264,0.06 0.264,0.192 0,0.048 -0.012,0.084 -0.048,0.228 l -1.524,6.072 c -0.12,0.48 -0.324,0.864 -1.296,0.9 -0.06,0 -0.216,0.012 -0.216,0.228 0,0.108 0.072,0.144 0.168,0.144 0.384,0 0.804,-0.036 1.2,-0.036 0.408,0 0.84,0.036 1.236,0.036 0.06,0 0.216,0 0.216,-0.24 0,-0.132 -0.132,-0.132 -0.216,-0.132 -0.684,-0.012 -0.816,-0.252 -0.816,-0.528 0,-0.084 0.012,-0.144 0.048,-0.276 l 1.632,-6.504 h 0.012 l 1.02,7.404 c 0.024,0.144 0.036,0.276 0.18,0.276 0.132,0 0.204,-0.132 0.264,-0.216 l 4.836,-7.56 h 0.012 l -1.716,6.84 c -0.12,0.468 -0.144,0.564 -1.08,0.564 -0.204,0 -0.336,0 -0.336,0.228 0,0.144 0.144,0.144 0.18,0.144 0.336,0 1.14,-0.036 1.476,-0.036 0.492,0 1.008,0.036 1.5,0.036 0.072,0 0.228,0 0.228,-0.24 0,-0.132 -0.108,-0.132 -0.336,-0.132 -0.444,0 -0.78,0 -0.78,-0.216 0,-0.048 0,-0.072 0.06,-0.288 z"
         inkscape:connector-curvature="0"
         style="font-style:normal;font-variant:normal;font-weight:normal;font-stretch:normal;letter-spacing:normal;word-spacing:normal;text-anchor:start;fill:#000000;stroke:#000000;stroke-width:0;stroke-linecap:butt;stroke-linejoin:miter;stroke-miterlimit:10.43299961;stroke-opacity:1;stroke-dasharray:none;stroke-dashoffset:0" />
      <path
         id="path4471"
         d="m -29.144,112.41549 0,-0.012 0.012,-0.012 0,-0.012 0.012,-0.012 0,-0.012 0,-0.012 0.012,-0.012 0,-0.012 0,-0.012 0.012,-0.012 0,0 0,-0.012 0,-0.012 0.012,-0.012 0,0 0,-0.012 0,-0.012 0,0 0,-0.012 0,0 0,-0.012 0.012,-0.012 0,0 0,-0.012 0,-0.012 0,-0.012 0,0 0,-0.012 c 0,-0.264 -0.24,-0.468 -0.492,-0.468 -0.324,0 -0.42,0.264 -0.468,0.396 l -1.092,3.612 c -0.012,0.012 -0.048,0.132 -0.048,0.132 0,0.096 0.264,0.18 0.324,0.18 0.06,0 0.072,-0.012 0.132,-0.132 z"
         inkscape:connector-curvature="0"
         style="font-style:normal;font-variant:normal;font-weight:normal;font-stretch:normal;letter-spacing:normal;word-spacing:normal;text-anchor:start;fill:#000000;stroke:#000000;stroke-width:0;stroke-linecap:butt;stroke-linejoin:miter;stroke-miterlimit:10.43299961;stroke-opacity:1;stroke-dasharray:none;stroke-dashoffset:0" />
    </g>
    <path
       style="font-style:normal;font-variant:normal;font-weight:normal;font-stretch:normal;letter-spacing:normal;word-spacing:normal;text-anchor:start;fill:#000000;stroke:#000000;stroke-width:0;stroke-linecap:butt;stroke-linejoin:miter;stroke-miterlimit:10.43299961;stroke-opacity:1;stroke-dasharray:none;stroke-dashoffset:0"
       inkscape:connector-curvature="0"
       d="m 284.856,217.71949 -1.008,-2.388 c -0.036,-0.084 -0.06,-0.132 -0.06,-0.144 0,-0.072 0.204,-0.3 0.708,-0.348 0.12,-0.012 0.24,-0.024 0.24,-0.228 0,-0.144 -0.144,-0.144 -0.18,-0.144 -0.492,0 -1.008,0.036 -1.5,0.036 -0.3,0 -1.044,-0.036 -1.344,-0.036 -0.072,0 -0.216,0 -0.216,0.24 0,0.132 0.12,0.132 0.276,0.132 0.72,0 0.792,0.12 0.9,0.372 l 1.404,3.336 -2.52,2.712 -0.156,0.132 c -0.588,0.636 -1.152,0.828 -1.764,0.864 -0.144,0.012 -0.252,0.012 -0.252,0.24 0,0.012 0,0.132 0.144,0.132 0.36,0 0.756,-0.036 1.128,-0.036 0.444,0 0.912,0.036 1.344,0.036 0.072,0 0.216,0 0.216,-0.24 0,-0.12 -0.12,-0.132 -0.144,-0.132 -0.108,-0.012 -0.48,-0.036 -0.48,-0.372 0,-0.192 0.18,-0.384 0.324,-0.54 l 1.212,-1.284 1.08,-1.176 1.212,2.856 c 0.048,0.132 0.06,0.144 0.06,0.168 0,0.096 -0.228,0.3 -0.696,0.348 -0.132,0.012 -0.24,0.024 -0.24,0.228 0,0.144 0.132,0.144 0.18,0.144 0.336,0 1.176,-0.036 1.512,-0.036 0.3,0 1.02,0.036 1.32,0.036 0.084,0 0.228,0 0.228,-0.228 0,-0.144 -0.12,-0.144 -0.216,-0.144 -0.792,-0.012 -0.816,-0.048 -1.02,-0.528 -0.468,-1.116 -1.272,-2.976 -1.548,-3.696 0.816,-0.828 2.064,-2.256 2.448,-2.592 0.348,-0.276 0.804,-0.564 1.524,-0.6 0.156,-0.012 0.264,-0.012 0.264,-0.24 0,-0.012 0,-0.132 -0.156,-0.132 -0.36,0 -0.756,0.036 -1.128,0.036 -0.444,0 -0.9,-0.036 -1.32,-0.036 -0.072,0 -0.228,0 -0.228,0.24 0,0.084 0.06,0.12 0.144,0.132 0.108,0.012 0.468,0.036 0.468,0.372 0,0.168 -0.132,0.312 -0.216,0.42 z"
       id="path4477" />
    <path
       style="font-style:normal;font-variant:normal;font-weight:normal;font-stretch:normal;letter-spacing:normal;word-spacing:normal;text-anchor:start;fill:#000000;stroke:#000000;stroke-width:0;stroke-linecap:butt;stroke-linejoin:miter;stroke-miterlimit:10.43299961;stroke-opacity:1;stroke-dasharray:none;stroke-dashoffset:0"
       inkscape:connector-curvature="0"
       d="m 74.104,64.695494 0.168,-0.168 c 0.36,-0.36 0.756,-0.768 1.56,-0.828 0.132,-0.012 0.24,-0.012 0.24,-0.228 0,-0.096 -0.06,-0.144 -0.156,-0.144 -0.312,0 -0.66,0.036 -0.984,0.036 -0.384,0 -0.804,-0.036 -1.188,-0.036 -0.072,0 -0.228,0 -0.228,0.228 0,0.132 0.12,0.144 0.18,0.144 0.084,0 0.432,0.024 0.432,0.276 0,0.204 -0.276,0.516 -0.324,0.576 l -2.784,3.192 -1.308,-3.552 c -0.072,-0.168 -0.072,-0.192 -0.072,-0.204 0,-0.288 0.588,-0.288 0.708,-0.288 0.168,0 0.288,0 0.288,-0.24 0,-0.132 -0.144,-0.132 -0.18,-0.132 -0.336,0 -1.176,0.036 -1.512,0.036 -0.3,0 -1.044,-0.036 -1.344,-0.036 -0.072,0 -0.216,0 -0.216,0.24 0,0.132 0.108,0.132 0.264,0.132 0.72,0 0.768,0.108 0.876,0.408 l 1.476,3.924 c 0.012,0.048 0.048,0.168 0.048,0.204 0,0.036 -0.48,1.968 -0.54,2.172 -0.156,0.66 -0.168,0.696 -1.128,0.708 -0.228,0 -0.324,0 -0.324,0.24 0,0.132 0.144,0.132 0.168,0.132 0.336,0 1.176,-0.036 1.512,-0.036 0.336,0 1.2,0.036 1.524,0.036 0.084,0 0.228,0 0.228,-0.24 0,-0.132 -0.108,-0.132 -0.324,-0.132 -0.036,0 -0.252,0 -0.456,-0.024 -0.252,-0.024 -0.324,-0.048 -0.324,-0.192 0,-0.084 0.108,-0.492 0.168,-0.744 l 0.408,-1.692 c 0.06,-0.228 0.072,-0.264 0.168,-0.372 z"
       id="path4479" />
    <g
       id="g4582"
       transform="translate(239.884,0.35200414)">
      <path
         style="font-style:normal;font-variant:normal;font-weight:normal;font-stretch:normal;letter-spacing:normal;word-spacing:normal;text-anchor:start;fill:#000000;stroke:#000000;stroke-width:0;stroke-linecap:butt;stroke-linejoin:miter;stroke-miterlimit:10.43299961;stroke-opacity:1;stroke-dasharray:none;stroke-dashoffset:0"
         inkscape:connector-curvature="0"
         d="m -39.188,126.69549 0,-0.012 -0.012,-0.012 -0.012,-0.012 0,-0.012 -0.012,-0.012 0,-0.012 -0.012,-0.012 0,-0.012 -0.012,-0.012 -0.012,0 0,-0.012 -0.012,-0.012 0,-0.012 -0.012,0 0,-0.012 -0.012,0 -0.012,-0.012 0,0 -0.012,-0.012 -0.012,0 -0.012,-0.012 -0.012,0 -0.012,0 -0.012,-0.012 -0.012,0 -0.012,0 -0.012,0 -0.012,0 -0.012,0 -0.024,0 -0.012,0 -0.024,0 c -0.204,0 -0.228,0.06 -0.312,0.204 l -0.072,0.984 3.216,6.456 h -6.444 l 3.228,-6.456 0.072,-0.984 -4.044,8.1 c -0.048,0.108 -0.048,0.132 -0.048,0.144 0,0.096 0.06,0.096 0.252,0.096 h 8.304 c 0.192,0 0.264,0 0.264,-0.096 0,-0.012 0,-0.036 -0.06,-0.144 z"
         id="path4578" />
      <path
         style="font-style:normal;font-variant:normal;font-weight:normal;font-stretch:normal;letter-spacing:normal;word-spacing:normal;text-anchor:start;fill:#000000;stroke:#000000;stroke-width:0;stroke-linecap:butt;stroke-linejoin:miter;stroke-miterlimit:10.43299961;stroke-opacity:1;stroke-dasharray:none;stroke-dashoffset:0"
         inkscape:connector-curvature="0"
         d="m -29.828,130.57149 -0.036,0 -0.036,0 -0.024,0.012 -0.024,0 -0.036,0.012 -0.024,0.012 -0.024,0 -0.036,0.012 -0.024,0.012 -0.024,0.012 -0.024,0.012 -0.024,0.024 -0.024,0.012 -0.012,0.012 -0.024,0.024 -0.024,0.012 -0.012,0.024 -0.024,0.024 -0.012,0.012 -0.024,0.024 -0.012,0.024 -0.012,0.024 -0.012,0.024 -0.012,0.024 -0.012,0.024 0,0.024 -0.012,0.024 0,0.024 -0.012,0.024 0,0.024 0,0.024 0,0.024 c 0,0.168 0.108,0.336 0.372,0.336 0.264,0 0.552,-0.192 0.552,-0.66 0,-0.54 -0.516,-1.032 -1.428,-1.032 -1.584,0 -2.028,1.224 -2.028,1.752 0,0.924 0.888,1.104 1.236,1.176 0.624,0.12 1.248,0.252 1.248,0.912 0,0.312 -0.276,1.308 -1.716,1.308 -0.168,0 -1.08,0 -1.368,-0.636 0.456,0.06 0.756,-0.288 0.756,-0.624 0,-0.276 -0.192,-0.42 -0.432,-0.42 -0.324,0 -0.672,0.252 -0.672,0.78 0,0.684 0.672,1.164 1.704,1.164 1.944,0 2.412,-1.44 2.412,-1.98 0,-0.432 -0.228,-0.732 -0.372,-0.876 -0.324,-0.336 -0.672,-0.396 -1.2,-0.504 -0.432,-0.096 -0.912,-0.168 -0.912,-0.708 0,-0.348 0.288,-1.08 1.344,-1.08 0.3,0 0.9,0.084 1.08,0.552 z"
         id="path4580" />
    </g>
  </g>
</svg>
