<?xml version="1.0" encoding="UTF-8" standalone="no"?>
<!-- Created with Inkscape (http://www.inkscape.org/) -->

<svg
   xmlns:ns0="http://www.iki.fi/pav/software/textext/"
   xmlns:dc="http://purl.org/dc/elements/1.1/"
   xmlns:cc="http://creativecommons.org/ns#"
   xmlns:rdf="http://www.w3.org/1999/02/22-rdf-syntax-ns#"
   xmlns:svg="http://www.w3.org/2000/svg"
   xmlns="http://www.w3.org/2000/svg"
   xmlns:sodipodi="http://sodipodi.sourceforge.net/DTD/sodipodi-0.dtd"
   xmlns:inkscape="http://www.inkscape.org/namespaces/inkscape"
   width="285.00821"
   height="177.18111"
   id="svg2"
   version="1.1"
   inkscape:version="0.48.0 r9654"
   sodipodi:docname="loc_chastoti.pdf"
   style="enable-background:new">
  <sodipodi:namedview
     id="base"
     pagecolor="#ffffff"
     bordercolor="#666666"
     borderopacity="1.0"
     inkscape:pageopacity="0.0"
     inkscape:pageshadow="2"
     inkscape:zoom="1"
     inkscape:cx="95.020683"
     inkscape:cy="-7.9973759"
     inkscape:document-units="cm"
     inkscape:current-layer="layer3"
     showgrid="true"
     inkscape:window-width="800"
     inkscape:window-height="579"
     inkscape:window-x="-4"
     inkscape:window-y="-4"
     inkscape:window-maximized="1"
     units="cm"
     width="9.2cm"
     showguides="true"
     inkscape:guide-bbox="true"
     inkscape:showpageshadow="false"
     objecttolerance="4"
     gridtolerance="4"
     fit-margin-top="0"
     fit-margin-left="0"
     fit-margin-right="0"
     fit-margin-bottom="0">
    <inkscape:grid
       snapvisiblegridlinesonly="true"
       enabled="true"
       visible="true"
       empspacing="5"
       id="grid3254"
       type="xygrid" />
  </sodipodi:namedview>
  <defs
     id="defs4">
    <marker
       style="overflow:visible"
       id="Arrow1Send"
       refX="0"
       refY="0"
       orient="auto"
       inkscape:stockid="Arrow1Send">
      <path
         inkscape:connector-curvature="0"
         transform="matrix(-0.2,0,0,-0.2,-1.2,0)"
         style="fill-rule:evenodd;stroke:#000000;stroke-width:1pt;marker-start:none"
         d="M 0,0 5,-5 -12.5,0 5,5 0,0 z"
         id="path3997" />
    </marker>
    <marker
       style="overflow:visible"
       id="Arrow1Sstart"
       refX="0"
       refY="0"
       orient="auto"
       inkscape:stockid="Arrow1Sstart">
      <path
         inkscape:connector-curvature="0"
         transform="matrix(0.2,0,0,0.2,1.2,0)"
         style="fill-rule:evenodd;stroke:#000000;stroke-width:1pt;marker-start:none"
         d="M 0,0 5,-5 -12.5,0 5,5 0,0 z"
         id="path3994" />
    </marker>
    <marker
       style="overflow:visible"
       id="Arrow1Mend"
       refX="0"
       refY="0"
       orient="auto"
       inkscape:stockid="Arrow1Mend">
      <path
         inkscape:connector-curvature="0"
         transform="matrix(-0.4,0,0,-0.4,-4,0)"
         style="fill-rule:evenodd;stroke:#000000;stroke-width:1pt;marker-start:none"
         d="M 0,0 5,-5 -12.5,0 5,5 0,0 z"
         id="path3991" />
    </marker>
    <marker
       style="overflow:visible"
       id="Arrow1Mstart"
       refX="0"
       refY="0"
       orient="auto"
       inkscape:stockid="Arrow1Mstart">
      <path
         inkscape:connector-curvature="0"
         transform="matrix(0.4,0,0,0.4,4,0)"
         style="fill-rule:evenodd;stroke:#000000;stroke-width:1pt;marker-start:none"
         d="M 0,0 5,-5 -12.5,0 5,5 0,0 z"
         id="path3988" />
    </marker>
    <marker
       style="overflow:visible"
       id="Arrow2Lend"
       refX="0"
       refY="0"
       orient="auto"
       inkscape:stockid="Arrow2Lend">
      <path
         inkscape:connector-curvature="0"
         transform="matrix(-1.1,0,0,-1.1,-1.1,0)"
         d="M 8.7185878,4.0337352 -2.2072895,0.01601326 8.7185884,-4.0017078 c -1.7454984,2.3720609 -1.7354408,5.6174519 -6e-7,8.035443 z"
         style="font-size:12px;fill-rule:evenodd;stroke-width:0.625;stroke-linejoin:round"
         id="path4003" />
    </marker>
    <marker
       style="overflow:visible"
       id="Arrow2Lstart"
       refX="0"
       refY="0"
       orient="auto"
       inkscape:stockid="Arrow2Lstart">
      <path
         inkscape:connector-curvature="0"
         transform="matrix(1.1,0,0,1.1,1.1,0)"
         d="M 8.7185878,4.0337352 -2.2072895,0.01601326 8.7185884,-4.0017078 c -1.7454984,2.3720609 -1.7354408,5.6174519 -6e-7,8.035443 z"
         style="font-size:12px;fill-rule:evenodd;stroke-width:0.625;stroke-linejoin:round"
         id="path4000" />
    </marker>
    <marker
       inkscape:stockid="Arrow1Lend"
       orient="auto"
       refY="0"
       refX="0"
       id="Arrow1Lend"
       style="overflow:visible">
      <path
         inkscape:connector-curvature="0"
         id="path4440"
         d="M 0,0 5,-5 -12.5,0 5,5 0,0 z"
         style="fill-rule:evenodd;stroke:#000000;stroke-width:1pt;marker-start:none"
         transform="matrix(-0.8,0,0,-0.8,-10,0)" />
    </marker>
    <marker
       inkscape:stockid="Arrow1Lstart"
       orient="auto"
       refY="0"
       refX="0"
       id="Arrow1Lstart"
       style="overflow:visible">
      <path
         inkscape:connector-curvature="0"
         id="path4437"
         d="M 0,0 5,-5 -12.5,0 5,5 0,0 z"
         style="fill-rule:evenodd;stroke:#000000;stroke-width:1pt;marker-start:none"
         transform="matrix(0.8,0,0,0.8,10,0)" />
    </marker>
    <marker
       style="overflow:visible"
       id="Arrow2Lstart-4"
       refX="0"
       refY="0"
       orient="auto"
       inkscape:stockid="Arrow2Lstart">
      <path
         transform="matrix(1.1,0,0,1.1,1.1,0)"
         d="M 8.7185878,4.0337352 -2.2072895,0.01601326 8.7185884,-4.0017078 c -1.7454984,2.3720609 -1.7354408,5.6174519 -6e-7,8.035443 z"
         style="font-size:12px;fill-rule:evenodd;stroke-width:0.625;stroke-linejoin:round"
         id="path4000-4"
         inkscape:connector-curvature="0" />
    </marker>
    <marker
       style="overflow:visible"
       id="Arrow2Lend-3"
       refX="0"
       refY="0"
       orient="auto"
       inkscape:stockid="Arrow2Lend">
      <path
         transform="matrix(-1.1,0,0,-1.1,-1.1,0)"
         d="M 8.7185878,4.0337352 -2.2072895,0.01601326 8.7185884,-4.0017078 c -1.7454984,2.3720609 -1.7354408,5.6174519 -6e-7,8.035443 z"
         style="font-size:12px;fill-rule:evenodd;stroke-width:0.625;stroke-linejoin:round"
         id="path4003-0"
         inkscape:connector-curvature="0" />
    </marker>
    <marker
       style="overflow:visible"
       id="marker7119"
       refX="0"
       refY="0"
       orient="auto"
       inkscape:stockid="Arrow2Lend">
      <path
         transform="matrix(-1.1,0,0,-1.1,-1.1,0)"
         d="M 8.7185878,4.0337352 -2.2072895,0.01601326 8.7185884,-4.0017078 c -1.7454984,2.3720609 -1.7354408,5.6174519 -6e-7,8.035443 z"
         style="font-size:12px;fill-rule:evenodd;stroke-width:0.625;stroke-linejoin:round"
         id="path7121"
         inkscape:connector-curvature="0" />
    </marker>
    <marker
       style="overflow:visible"
       id="Arrow1Mstart-3"
       refX="0"
       refY="0"
       orient="auto"
       inkscape:stockid="Arrow1Mstart">
      <path
         transform="matrix(0.4,0,0,0.4,4,0)"
         style="fill-rule:evenodd;stroke:#000000;stroke-width:1pt;marker-start:none"
         d="M 0,0 5,-5 -12.5,0 5,5 0,0 z"
         id="path3988-7"
         inkscape:connector-curvature="0" />
    </marker>
    <marker
       style="overflow:visible"
       id="Arrow1Mend-5"
       refX="0"
       refY="0"
       orient="auto"
       inkscape:stockid="Arrow1Mend">
      <path
         transform="matrix(-0.4,0,0,-0.4,-4,0)"
         style="fill-rule:evenodd;stroke:#000000;stroke-width:1pt;marker-start:none"
         d="M 0,0 5,-5 -12.5,0 5,5 0,0 z"
         id="path3991-5"
         inkscape:connector-curvature="0" />
    </marker>
    <marker
       style="overflow:visible"
       id="Arrow1Mend-4"
       refX="0"
       refY="0"
       orient="auto"
       inkscape:stockid="Arrow1Mend">
      <path
         transform="matrix(-0.4,0,0,-0.4,-4,0)"
         style="fill-rule:evenodd;stroke:#000000;stroke-width:1pt;marker-start:none"
         d="M 0,0 5,-5 -12.5,0 5,5 0,0 z"
         id="path3991-2"
         inkscape:connector-curvature="0" />
    </marker>
  </defs>
  <metadata
     id="metadata7">
    <rdf:RDF>
      <cc:Work
         rdf:about="">
        <dc:format>image/svg+xml</dc:format>
        <dc:type
           rdf:resource="http://purl.org/dc/dcmitype/StillImage" />
        <dc:title></dc:title>
      </cc:Work>
    </rdf:RDF>
  </metadata>
  <g
     transform="translate(-6.6543018,-17.090379)"
     style="display:none"
     inkscape:label="Надписи"
     id="layer5"
     inkscape:groupmode="layer" />
  <g
     transform="translate(-6.6543018,-17.090379)"
     style="display:none"
     inkscape:label="Слой3"
     id="layer4"
     inkscape:groupmode="layer" />
  <g
     style="display:none"
     transform="translate(-6.6543018,-821.41984)"
     inkscape:groupmode="layer"
     id="layer2"
     inkscape:label="Слой2">
    <text
       xml:space="preserve"
       style="font-size:12px;font-style:normal;font-variant:normal;font-weight:normal;font-stretch:normal;line-height:125%;letter-spacing:0px;word-spacing:0px;fill:#000000;fill-opacity:1;stroke:none;font-family:cmmi12;-inkscape-font-specification:cmmi12"
       x="114.07245"
       y="849.18628"
       id="text3997"
       sodipodi:linespacing="125%"><tspan
         sodipodi:role="line"
         id="tspan3999"
         x="114.07245"
         y="849.18628" /></text>
    <text
       xml:space="preserve"
       style="font-size:12px;font-style:normal;font-variant:normal;font-weight:normal;font-stretch:normal;line-height:125%;letter-spacing:0px;word-spacing:0px;fill:#000000;fill-opacity:1;stroke:none;font-family:cmmi12;-inkscape-font-specification:cmmi12"
       x="257.33582"
       y="739.52142"
       id="text4001"
       sodipodi:linespacing="125%"><tspan
         sodipodi:role="line"
         id="tspan4003"
         x="257.33582"
         y="739.52142">  </tspan></text>
    <text
       xml:space="preserve"
       style="font-size:12px;font-style:normal;font-variant:normal;font-weight:normal;font-stretch:normal;line-height:125%;letter-spacing:0px;word-spacing:0px;fill:#000000;fill-opacity:1;stroke:none;font-family:cmmi12;-inkscape-font-specification:cmmi12"
       x="125.36874"
       y="837.7204"
       id="text4009"
       sodipodi:linespacing="125%"><tspan
         sodipodi:role="line"
         id="tspan4011"
         x="125.36874"
         y="837.7204" /></text>
  </g>
  <g
     transform="translate(-6.6543018,-17.090379)"
     style="display:inline"
     inkscape:groupmode="layer"
     id="layer3"
     inkscape:label="Слой1">
    <g
       id="g3521"
       inkscape:label="ink_ext_XXXXXX"
       transform="matrix(1.25,0,0,-1.25,0,1052.5)">
      <g
         id="g3523"
         transform="scale(0.1,0.1)" />
    </g>
    <g
       id="g3535"
       inkscape:label="ink_ext_XXXXXX"
       transform="matrix(1.25,0,0,-1.25,0,1052.5)">
      <g
         id="g3537"
         transform="scale(0.1,0.1)" />
    </g>
    <text
       sodipodi:linespacing="125%"
       id="text6249"
       y="224.03149"
       x="104"
       style="font-size:14.93999958px;font-style:normal;font-variant:normal;font-weight:normal;font-stretch:normal;line-height:125%;letter-spacing:0px;word-spacing:0px;fill:#000000;fill-opacity:1;stroke:none;font-family:cmmi12;-inkscape-font-specification:cmmi12"
       xml:space="preserve"><tspan
         y="224.03149"
         x="104"
         id="tspan6251"
         sodipodi:role="line" /></text>
    <path
       style="fill:none;stroke:#000000;stroke-width:0.70866144;stroke-linecap:butt;stroke-linejoin:miter;stroke-miterlimit:4;stroke-opacity:1;stroke-dasharray:none;marker-start:url(#Arrow2Lstart-4);marker-end:url(#marker7119)"
       d="m 40,18.031494 0,159.999996 250.72139,0"
       id="path3165"
       inkscape:connector-curvature="0" />
    <path
       style="fill:none;stroke:#000000;stroke-width:0.70866144;stroke-linecap:butt;stroke-linejoin:miter;stroke-miterlimit:4;stroke-opacity:1;stroke-dasharray:none"
       d="m 40,178.03149 -30,0"
       id="path3167"
       inkscape:connector-curvature="0" />
    <path
       style="fill:none;stroke:#000000;stroke-width:0.70866144;stroke-linecap:butt;stroke-linejoin:miter;stroke-miterlimit:4;stroke-opacity:1;stroke-dasharray:4.25196862, 4.25196862;stroke-dashoffset:0"
       d="m 40,138.03149 210,0"
       id="path4438"
       inkscape:connector-curvature="0" />
    <path
       style="fill:none;stroke:#000000;stroke-width:1px;stroke-linecap:butt;stroke-linejoin:miter;stroke-opacity:1"
       d="M 40,48.031494 C 85.966075,125.39743 154.56065,135.58443 222.82843,134.89441"
       id="path4441"
       inkscape:connector-curvature="0"
       sodipodi:nodetypes="cc" />
    <path
       style="fill:none;stroke:#000000;stroke-width:0.70866144;stroke-linecap:butt;stroke-linejoin:miter;stroke-miterlimit:4;stroke-opacity:1;stroke-dasharray:none"
       d="m 20,98.031494 250,0"
       id="path4443"
       inkscape:connector-curvature="0" />
    <path
       style="fill:none;stroke:#000000;stroke-width:1px;stroke-linecap:butt;stroke-linejoin:miter;stroke-opacity:1"
       d="m 35,48.031494 10,0"
       id="path4445"
       inkscape:connector-curvature="0" />
    <path
       style="fill:none;stroke:#000000;stroke-width:0.70866144;stroke-linecap:butt;stroke-linejoin:miter;stroke-miterlimit:4;stroke-opacity:1;stroke-dasharray:none"
       d="m 15,173.03149 -5,5"
       id="path4447"
       inkscape:connector-curvature="0" />
    <path
       style="fill:none;stroke:#000000;stroke-width:0.70866144;stroke-linecap:butt;stroke-linejoin:miter;stroke-miterlimit:4;stroke-opacity:1;stroke-dasharray:none;display:inline"
       d="m 19.116117,173.03149 -5,5"
       id="path4447-1"
       inkscape:connector-curvature="0" />
    <path
       style="fill:none;stroke:#000000;stroke-width:0.70866144;stroke-linecap:butt;stroke-linejoin:miter;stroke-miterlimit:4;stroke-opacity:1;stroke-dasharray:none;display:inline"
       d="m 23.006097,173.03149 -5,5"
       id="path4447-7"
       inkscape:connector-curvature="0" />
    <path
       style="fill:none;stroke:#000000;stroke-width:0.70866144;stroke-linecap:butt;stroke-linejoin:miter;stroke-miterlimit:4;stroke-opacity:1;stroke-dasharray:none;display:inline"
       d="m 27.12132,173.03149 -5,5"
       id="path4447-4"
       inkscape:connector-curvature="0" />
    <path
       style="fill:none;stroke:#000000;stroke-width:0.70866144;stroke-linecap:butt;stroke-linejoin:miter;stroke-miterlimit:4;stroke-opacity:1;stroke-dasharray:none;display:inline"
       d="m 30.833631,173.03149 -5,5"
       id="path4447-0"
       inkscape:connector-curvature="0" />
    <path
       style="fill:none;stroke:#000000;stroke-width:0.70866144;stroke-linecap:butt;stroke-linejoin:miter;stroke-miterlimit:4;stroke-opacity:1;stroke-dasharray:none;display:inline"
       d="m 35,173.03149 -5,5"
       id="path4447-9"
       inkscape:connector-curvature="0" />
    <path
       style="fill:none;stroke:#000000;stroke-width:0.70866144;stroke-linecap:butt;stroke-linejoin:miter;stroke-miterlimit:4;stroke-opacity:1;stroke-dasharray:none;display:inline"
       d="m 39.269552,173.03149 -5,5"
       id="path4447-48"
       inkscape:connector-curvature="0" />
    <path
       id="path4565"
       d="m 19.73,23.636494 h 1.455 c 1.125,0 1.245,0.24 1.245,0.675 0,0.105 0,0.285 -0.105,0.735 -0.03,0.075 -0.045,0.135 -0.045,0.15 0,0.135 0.09,0.18 0.18,0.18 0.15,0 0.15,-0.03 0.225,-0.3 l 0.81,-3.24 c 0.045,-0.165 0.045,-0.195 0.045,-0.24 0,-0.03 -0.03,-0.165 -0.165,-0.165 -0.165,0 -0.18,0.075 -0.225,0.315 -0.315,1.155 -0.66,1.425 -1.935,1.425 H 19.85 l 0.96,-3.795 c 0.135,-0.51 0.15,-0.57 0.81,-0.57 h 1.965 c 1.845,0 2.19,0.48 2.19,1.635 0,0.345 0,0.405 -0.045,0.81 -0.03,0.195 -0.03,0.225 -0.03,0.27 0,0.075 0.045,0.18 0.18,0.18 0.165,0 0.18,-0.09 0.21,-0.375 l 0.3,-2.58 c 0.045,-0.405 -0.03,-0.405 -0.405,-0.405 h -7.32 c -0.3,0 -0.45,0 -0.45,0.3 0,0.165 0.12,0.165 0.405,0.165 0.555,0 0.975,0 0.975,0.255 0,0.075 0,0.105 -0.075,0.36 l -1.965,7.905 c -0.15,0.585 -0.18,0.705 -1.365,0.705 -0.255,0 -0.42,0 -0.42,0.285 0,0.165 0.18,0.165 0.225,0.165 0.435,0 1.545,-0.045 1.98,-0.045 0.48,0 1.725,0.045 2.22,0.045 0.135,0 0.315,0 0.315,-0.27 0,-0.12 -0.09,-0.15 -0.09,-0.165 -0.045,-0.015 -0.075,-0.015 -0.42,-0.015 -0.33,0 -0.405,0 -0.78,-0.03 -0.435,-0.045 -0.48,-0.105 -0.48,-0.3 0,-0.03 0,-0.12 0.06,-0.345 z"
       inkscape:connector-curvature="0"
       style="font-style:normal;font-variant:normal;font-weight:normal;font-stretch:normal;letter-spacing:normal;word-spacing:normal;text-anchor:start;fill:#000000;stroke:#000000;stroke-width:0;stroke-linecap:butt;stroke-linejoin:miter;stroke-miterlimit:10.43299961;stroke-opacity:1;stroke-dasharray:none;stroke-dashoffset:0" />
    <g
       transform="translate(-132.11,14.839994)"
       id="g4689">
      <path
         style="font-style:normal;font-variant:normal;font-weight:normal;font-stretch:normal;letter-spacing:normal;word-spacing:normal;text-anchor:start;fill:#000000;stroke:#000000;stroke-width:0;stroke-linecap:butt;stroke-linejoin:miter;stroke-miterlimit:10.43299961;stroke-opacity:1;stroke-dasharray:none;stroke-dashoffset:0"
         inkscape:connector-curvature="0"
         d="m 150.625,33.6565 h 1.455 c 1.125,0 1.245,0.24 1.245,0.675 0,0.105 0,0.285 -0.105,0.735 -0.03,0.075 -0.045,0.135 -0.045,0.15 0,0.135 0.09,0.18 0.18,0.18 0.15,0 0.15,-0.03 0.225,-0.3 l 0.81,-3.24 c 0.045,-0.165 0.045,-0.195 0.045,-0.24 0,-0.03 -0.03,-0.165 -0.18,-0.165 -0.15,0 -0.165,0.075 -0.21,0.315 -0.315,1.155 -0.66,1.425 -1.935,1.425 h -1.365 l 0.96,-3.795 c 0.135,-0.51 0.15,-0.57 0.81,-0.57 h 1.965 c 1.845,0 2.19,0.48 2.19,1.635 0,0.345 0,0.405 -0.045,0.81 -0.03,0.195 -0.03,0.225 -0.03,0.27 0,0.075 0.045,0.18 0.18,0.18 0.165,0 0.18,-0.09 0.21,-0.375 l 0.3,-2.58 c 0.045,-0.405 -0.03,-0.405 -0.405,-0.405 h -7.335 c -0.285,0 -0.45,0 -0.45,0.3 0,0.165 0.135,0.165 0.42,0.165 0.555,0 0.975,0 0.975,0.255 0,0.075 0,0.105 -0.075,0.36 l -1.965,7.905 c -0.15,0.585 -0.18,0.705 -1.365,0.705 -0.255,0 -0.42,0 -0.42,0.285 0,0.165 0.18,0.165 0.225,0.165 0.435,0 1.545,-0.045 1.965,-0.045 0.495,0 1.74,0.045 2.235,0.045 0.135,0 0.315,0 0.315,-0.27 0,-0.12 -0.09,-0.15 -0.09,-0.165 -0.045,-0.015 -0.075,-0.015 -0.42,-0.015 -0.33,0 -0.405,0 -0.78,-0.03 -0.435,-0.045 -0.48,-0.105 -0.48,-0.3 0,-0.03 0,-0.12 0.06,-0.345 z"
         id="path4567" />
      <g
         id="g4686">
        <path
           id="path4569"
           d="m 160.24,39.9115 0,0.015 0,0.015 -0.015,0.03 0,0.015 -0.015,0.03 0,0.015 -0.015,0.045 -0.015,0.06 0,0.045 -0.015,0.045 -0.015,0.015 0,0.03 0,0.015 -0.015,0.03 0,0.015 0,0.03 -0.015,0.015 0,0.015 0,0.03 0,0.015 -0.015,0.015 0,0.015 0,0.015 0,0 0,0.015 0,0.015 0,0 0,0.015 c 0,0.225 0.18,0.33 0.345,0.33 0.195,0 0.36,-0.135 0.405,-0.225 0.06,-0.105 0.135,-0.435 0.195,-0.66 0.045,-0.195 0.165,-0.675 0.225,-0.93 0.06,-0.225 0.135,-0.465 0.18,-0.705 0.12,-0.45 0.12,-0.465 0.33,-0.795 0.33,-0.51 0.855,-1.095 1.665,-1.095 0.585,0 0.615,0.48 0.615,0.72 0,0.63 -0.45,1.785 -0.615,2.235 -0.12,0.285 -0.15,0.375 -0.15,0.555 0,0.555 0.45,0.9 0.99,0.9 1.035,0 1.5,-1.44 1.5,-1.605 0,-0.135 -0.135,-0.135 -0.165,-0.135 -0.15,0 -0.15,0.075 -0.195,0.18 -0.24,0.84 -0.69,1.26 -1.11,1.26 -0.225,0 -0.27,-0.135 -0.27,-0.36 0,-0.24 0.06,-0.375 0.255,-0.84 0.12,-0.33 0.54,-1.44 0.54,-2.025 0,-0.165 0,-0.6 -0.375,-0.9 -0.18,-0.135 -0.48,-0.285 -0.975,-0.285 -0.945,0 -1.515,0.615 -1.845,1.065 -0.09,-0.9 -0.825,-1.065 -1.365,-1.065 -0.87,0 -1.455,0.54 -1.77,0.945 -0.075,-0.705 -0.69,-0.945 -1.11,-0.945 -0.45,0 -0.69,0.33 -0.825,0.57 -0.225,0.375 -0.375,0.975 -0.375,1.035 0,0.135 0.15,0.135 0.18,0.135 0.135,0 0.15,-0.03 0.225,-0.315 0.15,-0.615 0.36,-1.125 0.765,-1.125 0.27,0 0.345,0.225 0.345,0.51 0,0.195 -0.09,0.585 -0.165,0.855 -0.075,0.285 -0.18,0.72 -0.24,0.945 l -0.33,1.335 c -0.045,0.135 -0.105,0.405 -0.105,0.435 0,0.225 0.18,0.33 0.36,0.33 0.18,0 0.345,-0.135 0.405,-0.225 0.045,-0.105 0.135,-0.435 0.18,-0.66 0.06,-0.195 0.18,-0.675 0.24,-0.93 0.06,-0.225 0.12,-0.465 0.165,-0.705 0.12,-0.42 0.15,-0.51 0.45,-0.93 0.285,-0.42 0.78,-0.96 1.56,-0.96 0.615,0 0.615,0.525 0.615,0.72 0,0.27 -0.03,0.405 -0.18,0.99 z"
           inkscape:connector-curvature="0"
           style="font-style:normal;font-variant:normal;font-weight:normal;font-stretch:normal;letter-spacing:normal;word-spacing:normal;text-anchor:start;fill:#000000;stroke:#000000;stroke-width:0;stroke-linecap:butt;stroke-linejoin:miter;stroke-miterlimit:10.43299961;stroke-opacity:1;stroke-dasharray:none;stroke-dashoffset:0" />
      </g>
    </g>
    <g
       transform="translate(-166.8772,49.999994)"
       id="g4694">
      <path
         style="font-style:normal;font-variant:normal;font-weight:normal;font-stretch:normal;letter-spacing:normal;word-spacing:normal;text-anchor:start;fill:#000000;stroke:#000000;stroke-width:0;stroke-linecap:butt;stroke-linejoin:miter;stroke-miterlimit:10.43299961;stroke-opacity:1;stroke-dasharray:none;stroke-dashoffset:0"
         inkscape:connector-curvature="0"
         d="m 186.835,31.7815 -0.015,0.015 0,0.03 -0.015,0.015 0,0.03 0,0.015 -0.015,0.03 -0.015,0.045 0,0.045 -0.015,0.045 -0.015,0.045 0,0.03 -0.015,0.015 0,0.03 0,0.015 -0.015,0.03 0,0.015 0,0.015 -0.015,0.03 0,0.015 0,0.015 0,0.015 -0.015,0.015 0,0.015 0,0.015 0,0 0,0.015 0,0.015 0,0 c 0,0.225 0.18,0.33 0.345,0.33 0.195,0 0.36,-0.135 0.42,-0.225 0.045,-0.09 0.135,-0.435 0.18,-0.645 0.06,-0.21 0.165,-0.69 0.225,-0.945 0.075,-0.225 0.135,-0.45 0.18,-0.69 0.12,-0.45 0.12,-0.48 0.33,-0.795 0.33,-0.51 0.855,-1.11 1.665,-1.11 0.585,0 0.615,0.48 0.615,0.735 0,0.615 -0.45,1.785 -0.615,2.22 -0.105,0.285 -0.15,0.375 -0.15,0.555 0,0.555 0.465,0.9 0.99,0.9 1.05,0 1.5,-1.44 1.5,-1.59 0,-0.135 -0.135,-0.135 -0.165,-0.135 -0.15,0 -0.15,0.06 -0.195,0.165 -0.24,0.84 -0.69,1.275 -1.11,1.275 -0.225,0 -0.255,-0.15 -0.255,-0.375 0,-0.24 0.045,-0.375 0.24,-0.84 0.12,-0.33 0.555,-1.425 0.555,-2.01 0,-0.165 0,-0.6 -0.39,-0.915 -0.18,-0.135 -0.48,-0.27 -0.975,-0.27 -0.945,0 -1.515,0.615 -1.845,1.05 -0.09,-0.885 -0.825,-1.05 -1.365,-1.05 -0.87,0 -1.455,0.525 -1.755,0.945 -0.075,-0.72 -0.69,-0.945 -1.125,-0.945 -0.45,0 -0.69,0.315 -0.825,0.555 -0.225,0.39 -0.375,0.975 -0.375,1.035 0,0.135 0.15,0.135 0.18,0.135 0.135,0 0.15,-0.03 0.225,-0.315 0.165,-0.615 0.36,-1.125 0.765,-1.125 0.27,0 0.345,0.225 0.345,0.51 0,0.195 -0.09,0.585 -0.165,0.87 -0.075,0.285 -0.18,0.705 -0.24,0.93 l -0.33,1.335 c -0.045,0.135 -0.105,0.405 -0.105,0.435 0,0.225 0.195,0.33 0.36,0.33 0.18,0 0.36,-0.135 0.405,-0.225 0.045,-0.09 0.135,-0.435 0.195,-0.645 0.045,-0.21 0.165,-0.69 0.225,-0.945 0.06,-0.225 0.12,-0.45 0.18,-0.69 0.105,-0.435 0.135,-0.51 0.435,-0.945 0.3,-0.42 0.78,-0.96 1.575,-0.96 0.6,0 0.615,0.525 0.615,0.735 0,0.255 -0.045,0.39 -0.18,0.975 z"
         id="path4571" />
      <line
         style="font-style:normal;font-variant:normal;font-weight:normal;font-stretch:normal;letter-spacing:normal;word-spacing:normal;text-anchor:start;fill:none;stroke:#000000;stroke-width:0.597;stroke-linecap:butt;stroke-linejoin:miter;stroke-miterlimit:10.43299961;stroke-opacity:1;stroke-dasharray:none;stroke-dashoffset:0"
         x1="173.83"
         y1="34.766506"
         x2="201.35501"
         y2="34.766506"
         id="line4573" />
      <path
         style="font-style:normal;font-variant:normal;font-weight:normal;font-stretch:normal;letter-spacing:normal;word-spacing:normal;text-anchor:start;fill:#000000;stroke:#000000;stroke-width:0;stroke-linecap:butt;stroke-linejoin:miter;stroke-miterlimit:10.43299961;stroke-opacity:1;stroke-dasharray:none;stroke-dashoffset:0"
         inkscape:connector-curvature="0"
         d="m 175.855,36.2515 0,-0.015 0,-0.015 0,-0.015 0,-0.03 0,-0.03 0,-0.015 0,-0.015 0,-0.015 0,-0.015 0,-0.015 0,-0.03 -0.015,-0.015 0,-0.015 0,-0.015 -0.015,-0.015 0,-0.015 0,-0.015 -0.015,-0.015 -0.015,-0.015 0,-0.015 -0.015,0 -0.015,-0.015 0,0 -0.015,-0.015 0,0 0,0 -0.015,-0.015 0,0 -0.015,0 -0.015,0 0,-0.015 -0.015,0 0,0 -0.015,0 -0.015,0 0,0 -0.015,0 -0.015,0 0,0 -0.015,-0.015 c -0.27,0 -0.27,0.255 -0.27,0.42 v 9.615 c 0,0.15 0,0.405 0.255,0.405 0.255,0 0.255,-0.24 0.255,-0.405 z"
         id="path4575" />
      <path
         style="font-style:normal;font-variant:normal;font-weight:normal;font-stretch:normal;letter-spacing:normal;word-spacing:normal;text-anchor:start;fill:#000000;stroke:#000000;stroke-width:0;stroke-linecap:butt;stroke-linejoin:miter;stroke-miterlimit:10.43299961;stroke-opacity:1;stroke-dasharray:none;stroke-dashoffset:0"
         inkscape:connector-curvature="0"
         d="m 182.62,36.4615 -0.015,-0.015 0,-0.015 -0.015,-0.015 0,-0.015 -0.015,-0.015 -0.015,-0.015 0,-0.015 -0.015,-0.015 0,0 -0.015,-0.015 0,-0.015 -0.015,0 0,-0.015 -0.015,0 0,-0.015 -0.015,0 -0.015,-0.015 0,0 -0.015,-0.015 0,0 -0.015,0 -0.015,-0.015 -0.015,0 -0.015,0 0,0 -0.015,0 -0.015,-0.015 -0.015,0 -0.015,0 -0.03,0 -0.015,0 -0.015,0 c -0.12,0 -0.225,0.03 -0.33,0.195 l -0.015,0.825 3.075,5.565 h -6.15 l 3.075,-5.565 0.015,-0.825 -3.855,6.99 c -0.075,0.12 -0.075,0.135 -0.075,0.15 0,0.105 0.09,0.105 0.255,0.105 h 8.01 c 0.18,0 0.255,0 0.255,-0.105 0,-0.015 0,-0.03 -0.075,-0.15 z"
         id="path4577" />
      <path
         style="font-style:normal;font-variant:normal;font-weight:normal;font-stretch:normal;letter-spacing:normal;word-spacing:normal;text-anchor:start;fill:#000000;stroke:#000000;stroke-width:0;stroke-linecap:butt;stroke-linejoin:miter;stroke-miterlimit:10.43299961;stroke-opacity:1;stroke-dasharray:none;stroke-dashoffset:0"
         inkscape:connector-curvature="0"
         d="m 191.74,42.8215 -0.015,0.015 0,0.015 0,0.03 -0.015,0.015 0,0.03 0,0.015 -0.015,0.045 -0.015,0.06 -0.015,0.045 -0.015,0.045 0,0.03 0,0.015 -0.015,0.03 0,0.015 0,0.015 -0.015,0.03 0,0.015 0,0.015 -0.015,0.03 0,0.015 0,0.015 0,0.015 -0.015,0.015 0,0.015 0,0 0,0.015 0,0 0,0.015 c 0,0.225 0.18,0.33 0.36,0.33 0.18,0 0.345,-0.135 0.405,-0.225 0.045,-0.105 0.135,-0.435 0.18,-0.66 0.06,-0.195 0.165,-0.675 0.24,-0.93 0.06,-0.225 0.12,-0.465 0.165,-0.705 0.12,-0.435 0.12,-0.465 0.33,-0.795 0.33,-0.495 0.855,-1.095 1.68,-1.095 0.585,0 0.615,0.48 0.615,0.72 0,0.63 -0.45,1.785 -0.615,2.235 -0.12,0.285 -0.165,0.375 -0.165,0.555 0,0.555 0.465,0.9 0.99,0.9 1.05,0 1.515,-1.44 1.515,-1.59 0,-0.15 -0.135,-0.15 -0.18,-0.15 -0.135,0 -0.15,0.075 -0.195,0.18 -0.24,0.84 -0.69,1.26 -1.11,1.26 -0.21,0 -0.255,-0.135 -0.255,-0.36 0,-0.24 0.045,-0.375 0.24,-0.84 0.12,-0.33 0.555,-1.425 0.555,-2.01 0,-0.18 0,-0.615 -0.39,-0.915 -0.18,-0.135 -0.48,-0.285 -0.975,-0.285 -0.93,0 -1.515,0.615 -1.845,1.065 -0.075,-0.9 -0.825,-1.065 -1.365,-1.065 -0.855,0 -1.44,0.54 -1.755,0.96 -0.075,-0.72 -0.69,-0.96 -1.125,-0.96 -0.45,0 -0.69,0.33 -0.825,0.57 -0.225,0.39 -0.375,0.975 -0.375,1.035 0,0.135 0.15,0.135 0.18,0.135 0.15,0 0.15,-0.03 0.225,-0.315 0.165,-0.615 0.36,-1.125 0.765,-1.125 0.27,0 0.345,0.225 0.345,0.51 0,0.195 -0.09,0.585 -0.165,0.87 -0.075,0.27 -0.18,0.705 -0.225,0.93 l -0.33,1.335 c -0.045,0.135 -0.105,0.405 -0.105,0.435 0,0.225 0.18,0.33 0.345,0.33 0.195,0 0.36,-0.135 0.405,-0.225 0.06,-0.105 0.135,-0.435 0.195,-0.66 0.045,-0.195 0.165,-0.675 0.225,-0.93 0.06,-0.225 0.135,-0.465 0.18,-0.705 0.12,-0.42 0.135,-0.51 0.435,-0.93 0.3,-0.42 0.795,-0.96 1.575,-0.96 0.6,0 0.615,0.525 0.615,0.72 0,0.27 -0.03,0.405 -0.18,0.99 z"
         id="path4579" />
      <path
         style="font-style:normal;font-variant:normal;font-weight:normal;font-stretch:normal;letter-spacing:normal;word-spacing:normal;text-anchor:start;fill:#000000;stroke:#000000;stroke-width:0;stroke-linecap:butt;stroke-linejoin:miter;stroke-miterlimit:10.43299961;stroke-opacity:1;stroke-dasharray:none;stroke-dashoffset:0"
         inkscape:connector-curvature="0"
         d="m 199.84,36.2515 0,-0.015 0,-0.015 0,-0.015 0,-0.03 -0.015,-0.03 0,-0.015 0,-0.015 0,-0.015 0,-0.015 0,-0.015 0,-0.03 -0.015,-0.015 0,-0.015 0,-0.015 0,-0.015 -0.015,-0.015 0,-0.015 -0.015,-0.015 0,-0.015 -0.015,-0.015 -0.015,0 -0.015,-0.015 0,0 0,-0.015 -0.015,0 0,0 -0.015,-0.015 0,0 -0.015,0 0,0 -0.015,-0.015 -0.015,0 0,0 -0.015,0 0,0 -0.015,0 -0.015,0 -0.015,0 0,0 -0.015,-0.015 c -0.27,0 -0.27,0.255 -0.27,0.42 v 9.615 c 0,0.15 0,0.405 0.255,0.405 0.27,0 0.27,-0.24 0.27,-0.405 z"
         id="path4581" />
    </g>
    <path
       id="path4583"
       d="m 32.505,132.9062 0,-0.03 0,-0.015 0,-0.015 0,-0.015 0,-0.015 0,-0.015 0,-0.015 0,0 0,-0.015 0,-0.015 0,-0.015 0,-0.015 0,0 0,-0.015 0,-0.015 -0.015,-0.015 0,0 0,-0.015 0,-0.015 0,-0.015 0,-0.015 -0.015,-0.015 0,-0.015 -0.015,-0.015 0,0 -0.015,-0.015 0,0 -0.015,-0.015 -0.015,0 -0.015,-0.015 0,0 -0.015,0 0,0 -0.015,0 0,-0.015 -0.015,0 -0.015,0 0,0 -0.015,0 -0.015,0 0,0 -0.015,0 -0.015,0 -0.015,0 0,0 -0.015,0 -0.015,0 -0.015,0 -0.015,0 -0.015,0 -0.015,0 -0.015,0 c -0.93,0.945 -2.25,0.945 -2.73,0.945 v 0.465 c 0.3,0 1.185,0 1.965,-0.39 v 7.74 c 0,0.54 -0.045,0.72 -1.395,0.72 h -0.48 v 0.45 c 0.525,-0.045 1.83,-0.045 2.43,-0.045 0.6,0 1.905,0 2.415,0.045 v -0.45 H 33.9 c -1.35,0 -1.395,-0.165 -1.395,-0.72 z"
       inkscape:connector-curvature="0"
       style="font-style:normal;font-variant:normal;font-weight:normal;font-stretch:normal;letter-spacing:normal;word-spacing:normal;text-anchor:start;fill:#000000;stroke:#000000;stroke-width:0;stroke-linecap:butt;stroke-linejoin:miter;stroke-miterlimit:10.43299961;stroke-opacity:1;stroke-dasharray:none;stroke-dashoffset:0" />
    <path
       id="path4585"
       d="m 285.695,190.56649 0.045,0.015 0.045,0.015 0.045,0.015 0.045,0.015 0.045,0.015 0.045,0.015 0.045,0.015 0.03,0.015 0.045,0 0.045,0.015 0.09,0.015 0.075,0.015 0.09,0.015 0.075,0 0.075,0.015 0.075,0 0.075,0 0.075,0 0.075,0 0.075,0 0.06,0.015 v -0.33 c -0.33,0 -0.51,0 -0.795,-0.075 h 0 c 0.345,-0.12 0.66,-0.135 0.915,-0.135 0.375,0 0.435,0.015 0.705,0.09 -0.225,0.105 -0.255,0.12 -0.825,0.12 v 0.33 c 0.39,0 1.215,0 1.215,-0.465 0,-0.36 -0.525,-0.405 -1.095,-0.405 -0.315,0 -0.84,0.03 -1.395,0.285 -0.33,-0.18 -0.585,-0.465 -0.585,-0.87 0,-0.915 1.455,-1.455 2.805,-1.455 0.24,0 0.78,0 1.38,0.42 0.165,0.12 0.195,0.15 0.3,0.15 0.195,0 0.405,-0.195 0.405,-0.405 0,-0.285 -0.915,-0.84 -1.935,-0.84 -1.725,0 -3.33,0.99 -3.33,2.13 0,0.645 0.54,1.02 0.585,1.065 -0.87,0.495 -1.35,1.32 -1.35,2.01 0,0.975 0.855,1.875 2.43,1.875 1.98,0 2.82,-1.305 2.82,-1.53 0,-0.09 -0.075,-0.15 -0.165,-0.15 -0.075,0 -0.12,0.06 -0.15,0.105 -0.21,0.345 -0.57,0.9 -2.37,0.9 -0.9,0 -2.175,-0.225 -2.175,-1.29 0,-0.51 0.42,-1.305 1.335,-1.74 z"
       inkscape:connector-curvature="0"
       style="font-style:normal;font-variant:normal;font-weight:normal;font-stretch:normal;letter-spacing:normal;word-spacing:normal;text-anchor:start;fill:#000000;stroke:#000000;stroke-width:0;stroke-linecap:butt;stroke-linejoin:miter;stroke-miterlimit:10.43299961;stroke-opacity:1;stroke-dasharray:none;stroke-dashoffset:0" />
    <g
       transform="translate(-197.13,153.15999)"
       id="g4706">
      <path
         style="font-style:normal;font-variant:normal;font-weight:normal;font-stretch:normal;letter-spacing:normal;word-spacing:normal;text-anchor:start;fill:#000000;stroke:#000000;stroke-width:0;stroke-linecap:butt;stroke-linejoin:miter;stroke-miterlimit:10.43299961;stroke-opacity:1;stroke-dasharray:none;stroke-dashoffset:0"
         inkscape:connector-curvature="0"
         d="m 234.64,35.1265 0.045,0.015 0.045,0.015 0.045,0.015 0.045,0.015 0.045,0.015 0.045,0.015 0.045,0.015 0.045,0.015 0.045,0 0.03,0.015 0.09,0.015 0.09,0.015 0.075,0.015 0.075,0 0.09,0.015 0.075,0 0.075,0 0.075,0 0.06,0 0.075,0 0.06,0.015 v -0.33 c -0.315,0 -0.495,0 -0.78,-0.075 h 0 c 0.345,-0.12 0.645,-0.135 0.915,-0.135 0.36,0 0.42,0.015 0.69,0.09 -0.225,0.105 -0.255,0.12 -0.825,0.12 v 0.33 c 0.39,0 1.215,0 1.215,-0.465 0,-0.36 -0.525,-0.405 -1.08,-0.405 -0.315,0 -0.84,0.03 -1.395,0.285 -0.345,-0.18 -0.6,-0.465 -0.6,-0.87 0,-0.915 1.47,-1.455 2.805,-1.455 0.24,0 0.78,0 1.38,0.42 0.165,0.12 0.195,0.15 0.3,0.15 0.195,0 0.405,-0.195 0.405,-0.405 0,-0.285 -0.915,-0.84 -1.935,-0.84 -1.71,0 -3.33,0.99 -3.33,2.13 0,0.645 0.54,1.02 0.6,1.065 -0.885,0.495 -1.365,1.32 -1.365,2.01 0,0.975 0.855,1.875 2.445,1.875 1.965,0 2.805,-1.305 2.805,-1.53 0,-0.09 -0.075,-0.15 -0.165,-0.15 -0.075,0 -0.12,0.06 -0.15,0.105 -0.21,0.345 -0.57,0.9 -2.355,0.9 -0.915,0 -2.19,-0.225 -2.19,-1.29 0,-0.51 0.42,-1.305 1.335,-1.74 z"
         id="path4587" />
      <path
         style="font-style:normal;font-variant:normal;font-weight:normal;font-stretch:normal;letter-spacing:normal;word-spacing:normal;text-anchor:start;fill:#000000;stroke:#000000;stroke-width:0;stroke-linecap:butt;stroke-linejoin:miter;stroke-miterlimit:10.43299961;stroke-opacity:1;stroke-dasharray:none;stroke-dashoffset:0"
         inkscape:connector-curvature="0"
         d="m 244.03,39.9115 0,0.015 0,0.015 -0.015,0.03 0,0.015 0,0.03 -0.015,0.015 -0.015,0.045 0,0.06 -0.015,0.045 -0.015,0.045 0,0.015 -0.015,0.03 0,0.015 0,0.03 -0.015,0.015 0,0.03 0,0.015 -0.015,0.015 0,0.03 0,0.015 0,0.015 -0.015,0.015 0,0.015 0,0 0,0.015 0,0.015 0,0 0,0.015 c 0,0.225 0.18,0.33 0.345,0.33 0.195,0 0.36,-0.135 0.405,-0.225 0.06,-0.105 0.15,-0.435 0.195,-0.66 0.06,-0.195 0.165,-0.675 0.225,-0.93 0.075,-0.225 0.135,-0.465 0.18,-0.705 0.12,-0.45 0.12,-0.465 0.33,-0.795 0.33,-0.51 0.855,-1.095 1.665,-1.095 0.585,0 0.615,0.48 0.615,0.72 0,0.63 -0.45,1.785 -0.615,2.235 -0.105,0.285 -0.15,0.375 -0.15,0.555 0,0.555 0.45,0.9 0.99,0.9 1.05,0 1.5,-1.44 1.5,-1.605 0,-0.135 -0.135,-0.135 -0.165,-0.135 -0.15,0 -0.15,0.075 -0.195,0.18 -0.24,0.84 -0.69,1.26 -1.11,1.26 -0.225,0 -0.255,-0.135 -0.255,-0.36 0,-0.24 0.045,-0.375 0.24,-0.84 0.12,-0.33 0.555,-1.44 0.555,-2.025 0,-0.165 0,-0.6 -0.39,-0.9 -0.18,-0.135 -0.48,-0.285 -0.975,-0.285 -0.945,0 -1.515,0.615 -1.845,1.065 -0.09,-0.9 -0.825,-1.065 -1.365,-1.065 -0.87,0 -1.455,0.54 -1.77,0.945 -0.06,-0.705 -0.675,-0.945 -1.11,-0.945 -0.45,0 -0.69,0.33 -0.825,0.57 -0.225,0.375 -0.375,0.975 -0.375,1.035 0,0.135 0.15,0.135 0.18,0.135 0.15,0 0.15,-0.03 0.225,-0.315 0.165,-0.615 0.36,-1.125 0.765,-1.125 0.27,0 0.345,0.225 0.345,0.51 0,0.195 -0.09,0.585 -0.165,0.855 -0.075,0.285 -0.18,0.72 -0.225,0.945 l -0.345,1.335 c -0.045,0.135 -0.105,0.405 -0.105,0.435 0,0.225 0.195,0.33 0.36,0.33 0.18,0 0.36,-0.135 0.405,-0.225 0.06,-0.105 0.135,-0.435 0.195,-0.66 0.045,-0.195 0.165,-0.675 0.225,-0.93 0.06,-0.225 0.12,-0.465 0.18,-0.705 0.105,-0.42 0.135,-0.51 0.435,-0.93 0.285,-0.42 0.78,-0.96 1.56,-0.96 0.615,0 0.615,0.525 0.615,0.72 0,0.27 -0.015,0.405 -0.165,0.99 z"
         id="path4589" />
    </g>
    <path
       inkscape:connector-curvature="0"
       id="path4710"
       d="m 83.4386,98.031494 0,79.999996"
       style="fill:none;stroke:#000000;stroke-width:0.70866144;stroke-linecap:butt;stroke-linejoin:miter;stroke-miterlimit:4;stroke-opacity:1;stroke-dasharray:4.25196862, 4.25196862;stroke-dashoffset:0" />
    <g
       ns0:preamble=""
       ns0:text="$ \\varepsilon_{l} $"
       word-spacing="normal"
       letter-spacing="normal"
       font-size-adjust="none"
       font-stretch="normal"
       font-weight="normal"
       font-variant="normal"
       font-style="normal"
       stroke-miterlimit="10.433"
       xml:space="preserve"
       transform="matrix(1.5,0,0,-1.5,-256.1307,1252.3854)"
       id="content"
       style="font-style:normal;font-variant:normal;font-weight:normal;font-stretch:normal;letter-spacing:normal;word-spacing:normal;text-anchor:start;fill:none;stroke:#000000;stroke-linecap:butt;stroke-linejoin:miter;stroke-miterlimit:10.43299961;stroke-opacity:1;stroke-dasharray:none;stroke-dashoffset:0">
<path
   id="path4796"
   d="m 224.84,709.38 0.03,-0.01 0.03,-0.01 0.03,-0.01 0.03,-0.01 0.03,-0.01 0.03,-0.01 0.03,-0.01 0.03,-0.01 0.03,0 0.02,-0.01 0.06,-0.01 0.06,-0.01 0.05,-0.01 0.05,0 0.06,-0.01 0.05,0 0.05,0 0.05,0 0.04,0 0.05,0 0.05,-0.01 v 0.22 c -0.22,0 -0.34,0 -0.53,0.05 h 0 c 0.23,0.08 0.43,0.09 0.6,0.09 0.25,0 0.29,-0.01 0.47,-0.06 -0.15,-0.07 -0.17,-0.08 -0.54,-0.08 v -0.22 c 0.25,0 0.8,0 0.8,0.31 0,0.24 -0.35,0.27 -0.73,0.27 -0.2,0 -0.55,-0.02 -0.92,-0.19 -0.23,0.12 -0.4,0.31 -0.4,0.58 0,0.61 0.98,0.97 1.87,0.97 0.16,0 0.52,0 0.92,-0.28 0.11,-0.08 0.13,-0.1 0.2,-0.1 0.13,0 0.27,0.13 0.27,0.27 0,0.19 -0.61,0.56 -1.29,0.56 -1.14,0 -2.22,-0.66 -2.22,-1.42 0,-0.43 0.36,-0.68 0.4,-0.71 -0.59,-0.33 -0.91,-0.88 -0.91,-1.34 0,-0.65 0.57,-1.25 1.63,-1.25 1.31,0 1.87,0.87 1.87,1.02 0,0.06 -0.05,0.1 -0.11,0.1 -0.05,0 -0.08,-0.04 -0.1,-0.07 -0.14,-0.23 -0.38,-0.6 -1.57,-0.6 -0.61,0 -1.46,0.15 -1.46,0.86 0,0.34 0.28,0.87 0.89,1.16 z"
   inkscape:connector-curvature="0"
   style="fill:#000000;stroke-width:0" />
<path
   id="path4798"
   d="m 230.04,710.25 0,0 0,0 0,0 0,0 0,0 0,0 0,0.01 0.01,0 0,0 0,0 0,0.01 0,0 0,0 0,0.01 0,0 0,0.01 0.01,0 0,0.01 0,0.01 0,0.01 0,0 0,0 0,0.01 0,0 0.01,0.01 0,0 0,0 0,0.01 0,0 0,0 0,0 0,0 0,0 0,0 0,0.01 0,0 0,0 0,0 0,0 0,0 c 0,0.03 -0.03,0.1 -0.11,0.1 -0.14,0 -0.72,-0.06 -0.89,-0.07 -0.05,-0.01 -0.15,-0.02 -0.15,-0.16 0,-0.1 0.1,-0.1 0.18,-0.1 0.33,0 0.33,-0.05 0.33,-0.1 0,-0.05 -0.02,-0.1 -0.03,-0.16 l -0.86,-3.43 c -0.02,-0.07 -0.03,-0.15 -0.03,-0.22 0,-0.44 0.4,-0.66 0.73,-0.66 0.17,0 0.38,0.06 0.56,0.37 0.14,0.26 0.24,0.67 0.24,0.7 0,0.09 -0.09,0.09 -0.11,0.09 -0.1,0 -0.11,-0.05 -0.14,-0.17 -0.09,-0.35 -0.22,-0.79 -0.52,-0.79 -0.19,0 -0.24,0.17 -0.24,0.34 0,0.07 0.02,0.2 0.04,0.28 z"
   inkscape:connector-curvature="0"
   style="fill:#000000;stroke-width:0" />
</g>  </g>
</svg>
