<?xml version="1.0" encoding="UTF-8" standalone="no"?>
<!-- Created with Inkscape (http://www.inkscape.org/) -->

<svg
   xmlns:ns0="http://www.iki.fi/pav/software/textext/"
   xmlns:dc="http://purl.org/dc/elements/1.1/"
   xmlns:cc="http://creativecommons.org/ns#"
   xmlns:rdf="http://www.w3.org/1999/02/22-rdf-syntax-ns#"
   xmlns:svg="http://www.w3.org/2000/svg"
   xmlns="http://www.w3.org/2000/svg"
   xmlns:sodipodi="http://sodipodi.sourceforge.net/DTD/sodipodi-0.dtd"
   xmlns:inkscape="http://www.inkscape.org/namespaces/inkscape"
   width="284.39212"
   height="166.89592"
   id="svg2"
   version="1.1"
   inkscape:version="0.48.0 r9654"
   sodipodi:docname="otobr_vec.svg"
   style="enable-background:new">
  <sodipodi:namedview
     id="base"
     pagecolor="#ffffff"
     bordercolor="#666666"
     borderopacity="1.0"
     inkscape:pageopacity="0.0"
     inkscape:pageshadow="2"
     inkscape:zoom="1"
     inkscape:cx="202.16819"
     inkscape:cy="144.95001"
     inkscape:document-units="cm"
     inkscape:current-layer="layer3"
     showgrid="true"
     inkscape:window-width="800"
     inkscape:window-height="579"
     inkscape:window-x="-4"
     inkscape:window-y="-4"
     inkscape:window-maximized="1"
     units="cm"
     width="9.2cm"
     showguides="true"
     inkscape:guide-bbox="true"
     inkscape:showpageshadow="false"
     objecttolerance="4"
     gridtolerance="4"
     fit-margin-top="0"
     fit-margin-left="0"
     fit-margin-right="0"
     fit-margin-bottom="0">
    <inkscape:grid
       type="xygrid"
       id="grid3254"
       empspacing="5"
       visible="true"
       enabled="true"
       snapvisiblegridlinesonly="true" />
  </sodipodi:namedview>
  <defs
     id="defs4"><inkscape:path-effect
   is_visible="true"
   id="path-effect3167"
   effect="spiro" />
<marker
   inkscape:stockid="Arrow1Send"
   orient="auto"
   refY="0"
   refX="0"
   id="Arrow1Send"
   style="overflow:visible">
  <path
     id="path3997"
     d="M 0,0 5,-5 -12.5,0 5,5 0,0 z"
     style="fill-rule:evenodd;stroke:#000000;stroke-width:1pt;marker-start:none"
     transform="matrix(-0.2,0,0,-0.2,-1.2,0)"
     inkscape:connector-curvature="0" />
</marker>
<marker
   inkscape:stockid="Arrow1Sstart"
   orient="auto"
   refY="0"
   refX="0"
   id="Arrow1Sstart"
   style="overflow:visible">
  <path
     id="path3994"
     d="M 0,0 5,-5 -12.5,0 5,5 0,0 z"
     style="fill-rule:evenodd;stroke:#000000;stroke-width:1pt;marker-start:none"
     transform="matrix(0.2,0,0,0.2,1.2,0)"
     inkscape:connector-curvature="0" />
</marker>
<marker
   inkscape:stockid="Arrow1Mend"
   orient="auto"
   refY="0"
   refX="0"
   id="Arrow1Mend"
   style="overflow:visible">
  <path
     id="path3991"
     d="M 0,0 5,-5 -12.5,0 5,5 0,0 z"
     style="fill-rule:evenodd;stroke:#000000;stroke-width:1pt;marker-start:none"
     transform="matrix(-0.4,0,0,-0.4,-4,0)"
     inkscape:connector-curvature="0" />
</marker>
<marker
   inkscape:stockid="Arrow1Mstart"
   orient="auto"
   refY="0"
   refX="0"
   id="Arrow1Mstart"
   style="overflow:visible">
  <path
     id="path3988"
     d="M 0,0 5,-5 -12.5,0 5,5 0,0 z"
     style="fill-rule:evenodd;stroke:#000000;stroke-width:1pt;marker-start:none"
     transform="matrix(0.4,0,0,0.4,4,0)"
     inkscape:connector-curvature="0" />
</marker>
<marker
   inkscape:stockid="Arrow2Lend"
   orient="auto"
   refY="0"
   refX="0"
   id="Arrow2Lend"
   style="overflow:visible">
  <path
     id="path4003"
     style="font-size:12px;fill-rule:evenodd;stroke-width:0.625;stroke-linejoin:round"
     d="M 8.7185878,4.0337352 -2.2072895,0.01601326 8.7185884,-4.0017078 c -1.7454984,2.3720609 -1.7354408,5.6174519 -6e-7,8.035443 z"
     transform="matrix(-1.1,0,0,-1.1,-1.1,0)"
     inkscape:connector-curvature="0" />
</marker>
<marker
   inkscape:stockid="Arrow2Lstart"
   orient="auto"
   refY="0"
   refX="0"
   id="Arrow2Lstart"
   style="overflow:visible">
  <path
     id="path4000"
     style="font-size:12px;fill-rule:evenodd;stroke-width:0.625;stroke-linejoin:round"
     d="M 8.7185878,4.0337352 -2.2072895,0.01601326 8.7185884,-4.0017078 c -1.7454984,2.3720609 -1.7354408,5.6174519 -6e-7,8.035443 z"
     transform="matrix(1.1,0,0,1.1,1.1,0)"
     inkscape:connector-curvature="0" />
</marker>
<marker
   style="overflow:visible"
   id="Arrow1Lend"
   refX="0"
   refY="0"
   orient="auto"
   inkscape:stockid="Arrow1Lend">
  <path
     transform="matrix(-0.8,0,0,-0.8,-10,0)"
     style="fill-rule:evenodd;stroke:#000000;stroke-width:1pt;marker-start:none"
     d="M 0,0 5,-5 -12.5,0 5,5 0,0 z"
     id="path4440"
     inkscape:connector-curvature="0" />
</marker>
<marker
   style="overflow:visible"
   id="Arrow1Lstart"
   refX="0"
   refY="0"
   orient="auto"
   inkscape:stockid="Arrow1Lstart">
  <path
     transform="matrix(0.8,0,0,0.8,10,0)"
     style="fill-rule:evenodd;stroke:#000000;stroke-width:1pt;marker-start:none"
     d="M 0,0 5,-5 -12.5,0 5,5 0,0 z"
     id="path4437"
     inkscape:connector-curvature="0" />
</marker>
<marker
   inkscape:stockid="Arrow2Lstart"
   orient="auto"
   refY="0"
   refX="0"
   id="Arrow2Lstart-4"
   style="overflow:visible">
  <path
     inkscape:connector-curvature="0"
     id="path4000-4"
     style="font-size:12px;fill-rule:evenodd;stroke-width:0.625;stroke-linejoin:round"
     d="M 8.7185878,4.0337352 -2.2072895,0.01601326 8.7185884,-4.0017078 c -1.7454984,2.3720609 -1.7354408,5.6174519 -6e-7,8.035443 z"
     transform="matrix(1.1,0,0,1.1,1.1,0)" />
</marker>
<marker
   inkscape:stockid="Arrow2Lend"
   orient="auto"
   refY="0"
   refX="0"
   id="Arrow2Lend-3"
   style="overflow:visible">
  <path
     inkscape:connector-curvature="0"
     id="path4003-0"
     style="font-size:12px;fill-rule:evenodd;stroke-width:0.625;stroke-linejoin:round"
     d="M 8.7185878,4.0337352 -2.2072895,0.01601326 8.7185884,-4.0017078 c -1.7454984,2.3720609 -1.7354408,5.6174519 -6e-7,8.035443 z"
     transform="matrix(-1.1,0,0,-1.1,-1.1,0)" />
</marker>
<marker
   inkscape:stockid="Arrow2Lend"
   orient="auto"
   refY="0"
   refX="0"
   id="marker7119"
   style="overflow:visible">
  <path
     inkscape:connector-curvature="0"
     id="path7121"
     style="font-size:12px;fill-rule:evenodd;stroke-width:0.625;stroke-linejoin:round"
     d="M 8.7185878,4.0337352 -2.2072895,0.01601326 8.7185884,-4.0017078 c -1.7454984,2.3720609 -1.7354408,5.6174519 -6e-7,8.035443 z"
     transform="matrix(-1.1,0,0,-1.1,-1.1,0)" />
</marker>
<marker
   inkscape:stockid="Arrow1Mstart"
   orient="auto"
   refY="0"
   refX="0"
   id="Arrow1Mstart-3"
   style="overflow:visible">
  <path
     inkscape:connector-curvature="0"
     id="path3988-7"
     d="M 0,0 5,-5 -12.5,0 5,5 0,0 z"
     style="fill-rule:evenodd;stroke:#000000;stroke-width:1pt;marker-start:none"
     transform="matrix(0.4,0,0,0.4,4,0)" />
</marker>
<marker
   inkscape:stockid="Arrow1Mend"
   orient="auto"
   refY="0"
   refX="0"
   id="Arrow1Mend-5"
   style="overflow:visible">
  <path
     inkscape:connector-curvature="0"
     id="path3991-5"
     d="M 0,0 5,-5 -12.5,0 5,5 0,0 z"
     style="fill-rule:evenodd;stroke:#000000;stroke-width:1pt;marker-start:none"
     transform="matrix(-0.4,0,0,-0.4,-4,0)" />
</marker>
<marker
   inkscape:stockid="Arrow1Mend"
   orient="auto"
   refY="0"
   refX="0"
   id="Arrow1Mend-4"
   style="overflow:visible">
  <path
     inkscape:connector-curvature="0"
     id="path3991-2"
     d="M 0,0 5,-5 -12.5,0 5,5 0,0 z"
     style="fill-rule:evenodd;stroke:#000000;stroke-width:1pt;marker-start:none"
     transform="matrix(-0.4,0,0,-0.4,-4,0)" />
</marker>




</defs>
  <metadata
     id="metadata7">
    <rdf:RDF>
      <cc:Work
         rdf:about="">
        <dc:format>image/svg+xml</dc:format>
        <dc:type
           rdf:resource="http://purl.org/dc/dcmitype/StillImage" />
        <dc:title />
      </cc:Work>
    </rdf:RDF>
  </metadata>
  <g
     inkscape:groupmode="layer"
     id="layer5"
     inkscape:label="Надписи"
     style="display:none"
     transform="translate(-21.59729,-30.840085)" />
  <g
     inkscape:groupmode="layer"
     id="layer4"
     inkscape:label="Слой3"
     style="display:none"
     transform="translate(-21.59729,-30.840085)" />
  <g
     inkscape:label="Слой2"
     id="layer2"
     inkscape:groupmode="layer"
     transform="translate(-21.59729,-835.16955)"
     style="display:none">
    <text
       sodipodi:linespacing="125%"
       id="text3997"
       y="849.18628"
       x="114.07245"
       style="font-size:12px;font-style:normal;font-variant:normal;font-weight:normal;font-stretch:normal;line-height:125%;letter-spacing:0px;word-spacing:0px;fill:#000000;fill-opacity:1;stroke:none;font-family:cmmi12;-inkscape-font-specification:cmmi12"
       xml:space="preserve"><tspan
         y="849.18628"
         x="114.07245"
         id="tspan3999"
         sodipodi:role="line" /></text>
    <text
       sodipodi:linespacing="125%"
       id="text4001"
       y="739.52142"
       x="257.33582"
       style="font-size:12px;font-style:normal;font-variant:normal;font-weight:normal;font-stretch:normal;line-height:125%;letter-spacing:0px;word-spacing:0px;fill:#000000;fill-opacity:1;stroke:none;font-family:cmmi12;-inkscape-font-specification:cmmi12"
       xml:space="preserve"><tspan
         y="739.52142"
         x="257.33582"
         id="tspan4003"
         sodipodi:role="line">  </tspan></text>
    <text
       sodipodi:linespacing="125%"
       id="text4009"
       y="837.7204"
       x="125.36874"
       style="font-size:12px;font-style:normal;font-variant:normal;font-weight:normal;font-stretch:normal;line-height:125%;letter-spacing:0px;word-spacing:0px;fill:#000000;fill-opacity:1;stroke:none;font-family:cmmi12;-inkscape-font-specification:cmmi12"
       xml:space="preserve"><tspan
         y="837.7204"
         x="125.36874"
         id="tspan4011"
         sodipodi:role="line" /></text>
  </g>
  <g
     inkscape:label="Слой1"
     id="layer3"
     inkscape:groupmode="layer"
     style="display:inline"
     transform="translate(-21.59729,-30.840085)">
    <path
       sodipodi:type="arc"
       style="fill:#ffffff;fill-rule:evenodd;stroke:#000000;stroke-width:1px;stroke-linecap:butt;stroke-linejoin:miter;stroke-opacity:1;display:inline"
       id="path6727-4"
       sodipodi:cx="232.73328"
       sodipodi:cy="60.400509"
       sodipodi:rx="2.7332759"
       sodipodi:ry="2.369014"
       d="m 235.46655,60.400509 c 0,1.30837 -1.22373,2.369014 -2.73327,2.369014 -1.50955,0 -2.73328,-1.060644 -2.73328,-2.369014 0,-1.30837 1.22373,-2.369014 2.73328,-2.369014 1.50954,0 2.73327,1.060644 2.73327,2.369014 z"
       transform="matrix(1,0,0,1.1331744,-85.733276,111.90268)" />
    <g
       transform="matrix(1.25,0,0,-1.25,0,1052.5)"
       inkscape:label="ink_ext_XXXXXX"
       id="g3521">
      <g
         transform="scale(0.1,0.1)"
         id="g3523" />
    </g>
    <g
       transform="matrix(1.25,0,0,-1.25,0,1052.5)"
       inkscape:label="ink_ext_XXXXXX"
       id="g3535">
      <g
         transform="scale(0.1,0.1)"
         id="g3537" />
    </g>
    <text
       xml:space="preserve"
       style="font-size:14.93999958px;font-style:normal;font-variant:normal;font-weight:normal;font-stretch:normal;line-height:125%;letter-spacing:0px;word-spacing:0px;fill:#000000;fill-opacity:1;stroke:none;font-family:cmmi12;-inkscape-font-specification:cmmi12"
       x="104"
       y="224.03149"
       id="text6249"
       sodipodi:linespacing="125%"><tspan
         sodipodi:role="line"
         id="tspan6251"
         x="104"
         y="224.03149" /></text>
    <path
       inkscape:connector-curvature="0"
       id="path3161"
       d="m 58.305093,180.716 191.961627,0"
       style="fill:none;stroke:#000000;stroke-width:0.70866144;stroke-linecap:butt;stroke-linejoin:miter;stroke-miterlimit:4;stroke-opacity:1;stroke-dasharray:none;marker-end:url(#marker7119)" />
    <path
       sodipodi:nodetypes="cssc"
       inkscape:connector-curvature="0"
       id="path3169"
       d="M 34.401699,52.638978 C 52.56423,16.952956 112.15665,35.609554 112.15665,78.031494 c 0,0 -0.5538,28.472756 -2.15665,32.930306 -18.180344,50.55984 -123.787077,37.68439 -75.598301,-58.322822 z"
       style="fill:none;stroke:#000000;stroke-width:0.64363134;stroke-linecap:butt;stroke-linejoin:miter;stroke-miterlimit:4;stroke-opacity:1;stroke-dasharray:none" />
    <path
       id="path7207"
       d="m 243.01172,190.896 h 1.41 c 0.3,0 0.45,0 0.45,-0.3 0,-0.165 -0.15,-0.165 -0.42,-0.165 h -1.32 c 0.54,-2.115 0.615,-2.415 0.615,-2.505 0,-0.255 -0.18,-0.405 -0.435,-0.405 -0.045,0 -0.465,0.03 -0.6,0.54 l -0.585,2.37 h -1.41 c -0.285,0 -0.45,0 -0.45,0.285 0,0.18 0.12,0.18 0.42,0.18 h 1.32 c -1.08,4.245 -1.14,4.5 -1.14,4.77 0,0.81 0.57,1.365 1.38,1.365 1.53,0 2.385,-2.175 2.385,-2.295 0,-0.15 -0.12,-0.15 -0.18,-0.15 -0.135,0 -0.15,0.045 -0.225,0.21 -0.645,1.56 -1.44,1.92 -1.95,1.92 -0.315,0 -0.465,-0.195 -0.465,-0.69 0,-0.36 0.03,-0.465 0.09,-0.72 z"
       inkscape:connector-curvature="0"
       style="font-style:normal;font-variant:normal;font-weight:normal;font-stretch:normal;letter-spacing:normal;word-spacing:normal;text-anchor:start;fill:#000000;stroke:#000000;stroke-width:0;stroke-linecap:butt;stroke-linejoin:miter;stroke-miterlimit:10.43299961;stroke-opacity:1;stroke-dasharray:none;stroke-dashoffset:0" />
    <path
       id="path7209"
       d="m 57.431724,192.336 0.135,-0.045 0.15,-0.03 0.15,-0.045 0.135,-0.045 0.15,-0.045 0.15,-0.06 0.135,-0.045 0.15,-0.075 0.135,-0.06 0.135,-0.06 0.15,-0.075 0.135,-0.075 0.12,-0.09 0.135,-0.075 0.12,-0.09 0.12,-0.09 0.12,-0.09 0.12,-0.105 0.105,-0.09 0.09,-0.105 0.105,-0.105 0.09,-0.12 0.075,-0.105 0.075,-0.12 0.075,-0.12 0.06,-0.12 0.045,-0.135 0.045,-0.12 0.03,-0.135 0.03,-0.135 0.015,-0.135 0,-0.15 c 0,-1.275 -1.335,-2.235 -3.3,-2.235 h -4.26 c -0.3,0 -0.435,0 -0.435,0.3 0,0.165 0.135,0.165 0.42,0.165 0.03,0 0.315,0 0.57,0.03 0.27,0.03 0.405,0.045 0.405,0.24 0,0.06 -0.015,0.105 -0.06,0.285 l -2.01,8.01 c -0.15,0.585 -0.18,0.705 -1.365,0.705 -0.27,0 -0.39,0 -0.39,0.3 0,0.165 0.165,0.165 0.195,0.165 0.42,0 1.47,-0.045 1.89,-0.045 0.42,0 1.485,0.045 1.905,0.045 0.12,0 0.3,0 0.3,-0.3 0,-0.165 -0.135,-0.165 -0.42,-0.165 -0.555,0 -0.975,0 -0.975,-0.27 0,-0.09 0.03,-0.165 0.045,-0.255 l 0.99,-3.945 h 1.77 l -0.015,-0.33 h -1.665 l 0.96,-3.9 c 0.09,-0.36 0.135,-0.51 0.42,-0.555 0.135,-0.015 0.615,-0.015 0.915,-0.015 1.065,0 2.73,0 2.73,1.485 0,0.51 -0.24,1.53 -0.825,2.115 -0.39,0.39 -1.185,0.87 -2.535,0.87 l 0.015,0.33 c 1.365,0 1.635,0.825 1.635,1.35 0,0.225 -0.12,0.69 -0.21,1.035 -0.105,0.42 -0.24,0.96 -0.24,1.26 0,1.62 1.8,1.62 1.995,1.62 1.26,0 1.785,-1.515 1.785,-1.71 0,-0.18 -0.165,-0.18 -0.18,-0.18 -0.135,0 -0.165,0.105 -0.195,0.195 -0.375,1.11 -1.005,1.365 -1.35,1.365 -0.495,0 -0.6,-0.33 -0.6,-0.915 0,-0.465 0.09,-1.215 0.15,-1.695 0.03,-0.21 0.06,-0.495 0.06,-0.705 0,-1.155 -1.005,-1.605 -1.41,-1.755 z"
       inkscape:connector-curvature="0"
       style="font-style:normal;font-variant:normal;font-weight:normal;font-stretch:normal;letter-spacing:normal;word-spacing:normal;text-anchor:start;fill:#000000;stroke:#000000;stroke-width:0;stroke-linecap:butt;stroke-linejoin:miter;stroke-miterlimit:10.43299961;stroke-opacity:1;stroke-dasharray:none;stroke-dashoffset:0" />
    <path
       id="path7211"
       d="m 100.96,113.9715 0.015,-0.045 0,-0.045 0.015,-0.045 0.015,-0.045 0.015,-0.03 0.015,-0.045 0,-0.03 0.015,-0.045 0.015,-0.03 0.015,-0.03 0.03,-0.03 0.015,-0.03 0.015,-0.015 0.03,-0.03 0.03,-0.015 0.03,-0.03 0.03,-0.015 0.03,-0.015 0.045,-0.015 0.045,-0.015 0.045,-0.015 0.015,-0.015 0.03,0 0.03,0 0.03,-0.015 0.03,0 0.03,0 0.03,0 0.03,-0.015 0.03,0 0.03,0 0.045,0 0.03,-0.015 0.045,0 0.045,0 0.03,0 0.045,0 0.045,0 0.045,0 0.045,0 0.06,0 0.045,0 0.045,0 c 0.345,0 0.48,0 0.48,-0.3 0,-0.165 -0.15,-0.165 -0.405,-0.165 h -1.965 c -0.39,0 -0.405,0 -0.585,0.285 l -5.46,8.50499 -1.17,-8.44499 c -0.045,-0.345 -0.075,-0.345 -0.465,-0.345 h -2.04 c -0.285,0 -0.45,0 -0.45,0.285 0,0.18 0.135,0.18 0.435,0.18 0.195,0 0.465,0.015 0.645,0.03 0.24,0.03 0.33,0.075 0.33,0.24 0,0.06 -0.015,0.10499 -0.06,0.28499 l -1.905,7.59 c -0.15,0.6 -0.405,1.08 -1.62,1.125 -0.075,0 -0.27,0.015 -0.27,0.285 0,0.135 0.09,0.18 0.21,0.18 0.48,0 1.005,-0.045 1.5,-0.045 0.51,0 1.05,0.045 1.545,0.045 0.075,0 0.27,0 0.27,-0.3 0,-0.165 -0.165,-0.165 -0.27,-0.165 -0.855,-0.015 -1.02,-0.315 -1.02,-0.66 0,-0.105 0.015,-0.18 0.06,-0.345 l 2.04,-8.12999 h 0.015 l 1.275,9.25499 c 0.03,0.18 0.045,0.345 0.225,0.345 0.165,0 0.255,-0.165 0.33,-0.27 l 6.045,-9.44999 h 0.015 l -2.145,8.54999 c -0.15,0.585 -0.18,0.705 -1.35,0.705 -0.255,0 -0.42,0 -0.42,0.285 0,0.18 0.18,0.18 0.225,0.18 0.42,0 1.425,-0.045 1.845,-0.045 0.615,0 1.26,0.045 1.875,0.045 0.09,0 0.285,0 0.285,-0.3 0,-0.165 -0.135,-0.165 -0.42,-0.165 -0.555,0 -0.975,0 -0.975,-0.27 0,-0.06 0,-0.09 0.075,-0.36 z"
       inkscape:connector-curvature="0"
       style="font-style:normal;font-variant:normal;font-weight:normal;font-stretch:normal;letter-spacing:normal;word-spacing:normal;text-anchor:start;fill:#000000;stroke:#000000;stroke-width:0;stroke-linecap:butt;stroke-linejoin:miter;stroke-miterlimit:10.43299961;stroke-opacity:1;stroke-dasharray:none;stroke-dashoffset:0" />
    <g
       ns0:preamble="F:\\Program Files\\Inkscape\\share\\extensions\\head.ini"
       ns0:text="$ \\varphi $"
       word-spacing="normal"
       letter-spacing="normal"
       font-size-adjust="none"
       font-stretch="normal"
       font-weight="normal"
       font-variant="normal"
       font-style="normal"
       stroke-miterlimit="10.433"
       xml:space="preserve"
       transform="matrix(1.5,0,0,-1.5,-259.585,1221.1115)"
       id="content"
       style="font-style:normal;font-variant:normal;font-weight:normal;font-stretch:normal;letter-spacing:normal;word-spacing:normal;text-anchor:start;fill:none;stroke:#000000;stroke-linecap:butt;stroke-linejoin:miter;stroke-miterlimit:10.43299961;stroke-opacity:1;stroke-dasharray:none;stroke-dashoffset:0">
<path
   id="path7369"
   d="m 225.13,705.43 0,0 -0.01,-0.01 0,0 0,-0.01 0,-0.01 -0.01,-0.01 0,-0.01 0,-0.01 -0.01,-0.01 0,-0.01 0,0 0,-0.01 0,-0.01 -0.01,0 0,-0.01 0,-0.01 0,0 0,-0.01 0,0 -0.01,-0.01 0,0 0,-0.01 0,0 0,0 0,-0.01 0,-0.01 0,-0.01 0,-0.01 0,0 0,-0.01 c 0,-0.21 0.19,-0.27 0.29,-0.27 0.05,0 0.26,0.02 0.37,0.25 0.02,0.08 0.07,0.41 0.34,1.82 0.09,0 0.16,-0.01 0.33,-0.01 1.66,0 3.19,1.56 3.19,3.13 l -0.28,-0.22 c 0,-1.12 -1.28,-2.34 -2.82,-2.34 h 0 c -0.08,0 -0.1,0 -0.18,0.01 -0.12,0 -0.13,0.01 -0.13,0.04 0,0.02 0.17,0.93 0.2,1.08 0.31,1.27 1.09,2.23 1.98,2.23 0.68,0 0.95,-0.54 0.95,-1.02 l 0.28,0.22 c 0,0.78 -0.39,1.37 -1.13,1.37 -1.45,0 -2.05,-1.93 -2.65,-3.87 -1.07,0.2 -1.63,0.76 -1.63,1.48 0,0.27 0.23,1.37 0.83,2.06 0.08,0.09 0.08,0.1 0.08,0.13 0,0.03 -0.02,0.09 -0.12,0.09 -0.28,0 -1.05,-1.44 -1.05,-2.39 0,-0.94 0.66,-1.67 1.72,-1.92 z"
   inkscape:connector-curvature="0"
   style="fill:#000000;stroke-width:0" />
</g>    <path
       sodipodi:nodetypes="cssc"
       inkscape:connector-curvature="0"
       id="path3169-1"
       d="m 190,48.031494 c 27.00224,-31.854623 115.59831,-15.201074 115.59831,22.666271 0,0 0.4787,25.791429 -3.2063,29.394765 C 255.91506,145.53965 118.35774,133.73097 190,48.031494 z"
       style="fill:none;stroke:#000000;stroke-width:0.74145716;stroke-linecap:butt;stroke-linejoin:miter;stroke-miterlimit:4;stroke-opacity:1;stroke-dasharray:none;display:inline" />
    <path
       style="fill:none;stroke:#000000;stroke-width:0.70866144;stroke-linecap:butt;stroke-linejoin:miter;stroke-miterlimit:4;stroke-opacity:1;stroke-dasharray:none;marker-end:url(#Arrow1Mend-4)"
       d="M 110,173.78528 50,115.09542"
       id="path3317"
       inkscape:connector-curvature="0" />
    <path
       style="fill:none;stroke:#000000;stroke-width:0.70866144;stroke-linecap:butt;stroke-linejoin:miter;stroke-miterlimit:4;stroke-opacity:1;stroke-dasharray:none;marker-end:url(#Arrow1Mend-4)"
       d="M 180,173.07818 203,95.031494"
       id="path3319"
       inkscape:connector-curvature="0"
       sodipodi:nodetypes="cc" />
    <path
       style="fill:none;stroke:#000000;stroke-width:0.70866144;stroke-linecap:butt;stroke-linejoin:miter;stroke-miterlimit:4;stroke-opacity:1;stroke-dasharray:none;marker-end:url(#Arrow1Mend-4)"
       d="m 120,68.031494 c 13.33333,-4.149624 26.66667,-2.42274 40,2.828428"
       id="path3321"
       inkscape:connector-curvature="0"
       sodipodi:nodetypes="cc" />
    <path
       sodipodi:type="arc"
       style="fill:#ffffff;fill-rule:evenodd;stroke:#000000;stroke-width:1px;stroke-linecap:butt;stroke-linejoin:miter;stroke-opacity:1;display:inline"
       id="path6727-4-7"
       sodipodi:cx="232.73328"
       sodipodi:cy="60.400509"
       sodipodi:rx="2.7332759"
       sodipodi:ry="2.369014"
       d="m 235.46655,60.400509 c 0,1.30837 -1.22373,2.369014 -2.73327,2.369014 -1.50955,0 -2.73328,-1.060644 -2.73328,-2.369014 0,-1.30837 1.22373,-2.369014 2.73328,-2.369014 1.50954,0 2.73327,1.060644 2.73327,2.369014 z"
       transform="matrix(0.70959304,0,0,-0.85087876,-129.33342,144.99234)" />
    <path
       style="fill:none;stroke:#000000;stroke-width:1px;stroke-linecap:butt;stroke-linejoin:miter;stroke-opacity:1"
       d="M 30,108.03149 C 35.297372,77.864594 66.969885,72.314497 100,68.031494"
       id="path3323"
       inkscape:connector-curvature="0"
       sodipodi:nodetypes="cc" />
    <path
       style="fill:none;stroke:#000000;stroke-width:1px;stroke-linecap:butt;stroke-linejoin:miter;stroke-opacity:1"
       d="m 186.36396,108.03149 c 16.92212,-52.224282 61.83829,-43.794821 100,-49.999996"
       id="path3333"
       inkscape:connector-curvature="0"
       sodipodi:nodetypes="cc" />
    <path
       sodipodi:type="arc"
       style="fill:#ffffff;fill-rule:evenodd;stroke:#000000;stroke-width:1px;stroke-linecap:butt;stroke-linejoin:miter;stroke-opacity:1;display:inline"
       id="path6727-4-7-4"
       sodipodi:cx="232.73328"
       sodipodi:cy="60.400509"
       sodipodi:rx="2.7332759"
       sodipodi:ry="2.369014"
       d="m 235.46655,60.400509 c 0,1.30837 -1.22373,2.369014 -2.73327,2.369014 -1.50955,0 -2.73328,-1.060644 -2.73328,-2.369014 0,-1.30837 1.22373,-2.369014 2.73328,-2.369014 1.50954,0 2.73327,1.060644 2.73327,2.369014 z"
       transform="matrix(0.70959304,0,0,-0.85087876,41.979087,127.40926)" />
    <path
       style="fill:none;stroke:#000000;stroke-width:1px;stroke-linecap:butt;stroke-linejoin:miter;stroke-opacity:1;marker-end:url(#Arrow1Mend-4)"
       d="m 205.06097,78.031494 29.93903,-25"
       id="path3335"
       inkscape:connector-curvature="0"
       sodipodi:nodetypes="cc" />
    <path
       style="fill:none;stroke:#000000;stroke-width:1px;stroke-linecap:butt;stroke-linejoin:miter;stroke-opacity:1;marker-end:url(#Arrow1Mend-4)"
       d="M 35,94.589323 50,71.608352"
       id="path3337"
       inkscape:connector-curvature="0"
       sodipodi:nodetypes="cc" />
    <path
       id="path5568"
       d="m 44.51,95.976494 0,-0.03 0.015,-0.045 0.015,-0.045 0.015,-0.06 0.015,-0.06 0.015,-0.06 0.015,-0.06 0.03,-0.075 0.015,-0.06 0.03,-0.075 0.03,-0.075 0.03,-0.075 0.03,-0.075 0.045,-0.075 0.03,-0.075 0.045,-0.075 0.045,-0.075 0.045,-0.075 0.045,-0.06 0.06,-0.075 0.06,-0.06 0.06,-0.06 0.06,-0.06 0.06,-0.045 0.075,-0.045 0.075,-0.045 0.03,-0.03 0.045,-0.015 0.03,-0.015 0.045,-0.015 0.045,-0.015 0.045,-0.015 0.045,0 0.045,-0.015 0.045,0 0.045,-0.015 0.045,0 0.045,0 c 0.075,0 0.435,0 0.75,0.195 -0.42,0.075 -0.72,0.45 -0.72,0.81 0,0.24 0.165,0.51 0.57,0.51 0.33,0 0.81,-0.255 0.81,-0.855 0,-0.78 -0.885,-0.99 -1.395,-0.99 -0.87,0 -1.395,0.795 -1.56,1.14 -0.375,-0.99 -1.185,-1.14 -1.62,-1.14 -1.56,0 -2.415,1.935 -2.415,2.295 0,0.15 0.15,0.15 0.18,0.15 0.12,0 0.165,-0.03 0.195,-0.165 0.51,-1.575 1.5,-1.95 2.01,-1.95 0.285,0 0.81,0.135 0.81,1.005 0,0.45 -0.255,1.455 -0.81,3.54 -0.24,0.93 -0.765,1.559996 -1.425,1.559996 -0.09,0 -0.435,0 -0.75,-0.195 0.375,-0.075 0.705,-0.389996 0.705,-0.809996 0,-0.405 -0.33,-0.51 -0.555,-0.51 -0.45,0 -0.825,0.375 -0.825,0.855 0,0.689996 0.75,0.989996 1.41,0.989996 0.99,0 1.53,-1.049996 1.575,-1.139996 0.18,0.554996 0.72,1.139996 1.62,1.139996 1.53,0 2.385,-1.919996 2.385,-2.294996 0,-0.15 -0.135,-0.15 -0.18,-0.15 -0.135,0 -0.165,0.06 -0.195,0.165 -0.495,1.59 -1.515,1.949996 -1.995,1.949996 -0.57,0 -0.81,-0.479996 -0.81,-0.989996 0,-0.33 0.09,-0.645 0.255,-1.305 z"
       inkscape:connector-curvature="0"
       style="font-style:normal;font-variant:normal;font-weight:normal;font-stretch:normal;letter-spacing:normal;word-spacing:normal;text-anchor:start;fill:#000000;stroke:#000000;stroke-width:0;stroke-linecap:butt;stroke-linejoin:miter;stroke-miterlimit:10.43299961;stroke-opacity:1;stroke-dasharray:none;stroke-dashoffset:0" />
    <path
       id="path5570"
       d="m 288.85,95.981494 0.03,-0.105 0.015,-0.06 0.015,-0.045 0.03,-0.06 0.015,-0.045 0.015,-0.045 0.03,-0.06 0.03,-0.045 0.03,-0.045 0.03,-0.045 0.03,-0.045 0.03,-0.045 0.03,-0.03 0.045,-0.045 0.045,-0.03 0.045,-0.045 0.045,-0.03 0.06,-0.03 0.045,-0.03 0.06,-0.03 0.075,-0.03 0.06,-0.03 0.075,-0.015 0.075,-0.03 0.075,-0.015 0.09,-0.015 0.09,-0.015 0.09,-0.015 0.105,-0.015 0.105,0 0.045,0 0.06,0 c 0.075,0 0.255,-0.015 0.255,-0.3 0,-0.015 0,-0.165 -0.195,-0.165 -0.495,0 -1.02,0.045 -1.515,0.045 -0.51,0 -1.035,-0.045 -1.515,-0.045 -0.09,0 -0.27,0 -0.27,0.3 0,0.165 0.15,0.165 0.27,0.165 0.84,0.015 1.005,0.33 1.005,0.645 0,0.045 -0.03,0.27 -0.045,0.315 l -1.665,6.644996 -3.315,-7.784996 c -0.12,-0.27 -0.135,-0.285 -0.48,-0.285 h -1.995 c -0.3,0 -0.435,0 -0.435,0.3 0,0.165 0.135,0.165 0.42,0.165 0.075,0 1.02,0 1.02,0.135 L 280,103.03149 c -0.15,0.6 -0.405,1.08 -1.62,1.125 -0.09,0 -0.255,0.015 -0.255,0.3 0,0.09 0.09,0.15 0.195,0.15 0.48,0 1.005,-0.03 1.5,-0.03 0.51,0 1.05,0.03 1.545,0.03 0.075,0 0.27,0 0.27,-0.285 0,-0.15 -0.135,-0.165 -0.3,-0.165 -0.87,-0.03 -0.99,-0.36 -0.99,-0.66 0,-0.105 0.015,-0.18 0.06,-0.345 l 1.98,-7.889996 c 0.06,0.09 0.06,0.12 0.135,0.27 l 3.72,8.804996 c 0.105,0.255 0.15,0.27 0.285,0.27 0.165,0 0.165,-0.03 0.24,-0.3 z"
       inkscape:connector-curvature="0"
       style="font-style:normal;font-variant:normal;font-weight:normal;font-stretch:normal;letter-spacing:normal;word-spacing:normal;text-anchor:start;fill:#000000;stroke:#000000;stroke-width:0;stroke-linecap:butt;stroke-linejoin:miter;stroke-miterlimit:10.43299961;stroke-opacity:1;stroke-dasharray:none;stroke-dashoffset:0" />
    <g
       transform="translate(-256.305,59.769994)"
       id="g5697">
      <path
         style="font-style:normal;font-variant:normal;font-weight:normal;font-stretch:normal;letter-spacing:normal;word-spacing:normal;text-anchor:start;fill:#000000;stroke:#000000;stroke-width:0;stroke-linecap:butt;stroke-linejoin:miter;stroke-miterlimit:10.43299961;stroke-opacity:1;stroke-dasharray:none;stroke-dashoffset:0"
         inkscape:connector-curvature="0"
         d="m 453.195,97.2715 h 1.29 c 0.3,0 0.45,0 0.45,-0.3 0,-0.165 -0.15,-0.165 -0.405,-0.165 h -1.245 l 0.315,-1.695 c 0.06,-0.315 0.27,-1.38 0.36,-1.56 0.135,-0.285 0.39,-0.51 0.705,-0.51 0.06,0 0.45,0 0.735,0.27 -0.66,0.06 -0.81,0.585 -0.81,0.81 0,0.345 0.27,0.525 0.555,0.525 0.39,0 0.825,-0.33 0.825,-0.9 0,-0.69 -0.69,-1.035 -1.305,-1.035 -0.51,0 -1.455,0.27 -1.905,1.755 -0.075,0.315 -0.12,0.465 -0.48,2.34 h -1.035 c -0.285,0 -0.45,0 -0.45,0.285 0,0.18 0.135,0.18 0.42,0.18 h 0.99 l -1.125,5.895 c -0.27,1.455 -0.525,2.805 -1.305,2.805 -0.06,0 -0.435,0 -0.72,-0.27 0.69,-0.045 0.825,-0.585 0.825,-0.81 0,-0.33 -0.27,-0.51 -0.555,-0.51 -0.39,0 -0.825,0.33 -0.825,0.885 0,0.675 0.66,1.035 1.275,1.035 0.825,0 1.425,-0.885 1.695,-1.44 0.48,-0.945 0.825,-2.76 0.84,-2.865 z"
         id="path5572" />
      <path
         style="font-style:normal;font-variant:normal;font-weight:normal;font-stretch:normal;letter-spacing:normal;word-spacing:normal;text-anchor:start;fill:#000000;stroke:#000000;stroke-width:0;stroke-linecap:butt;stroke-linejoin:miter;stroke-miterlimit:10.43299961;stroke-opacity:1;stroke-dasharray:none;stroke-dashoffset:0"
         inkscape:connector-curvature="0"
         d="m 466.605,99.5065 -0.015,-0.15 0,-0.15 -0.03,-0.135 -0.015,-0.15 -0.045,-0.135 -0.03,-0.135 -0.045,-0.135 -0.06,-0.135 -0.06,-0.12 -0.06,-0.135 -0.075,-0.12 -0.075,-0.12 -0.075,-0.105 -0.09,-0.12 -0.09,-0.105 -0.105,-0.09 -0.105,-0.105 -0.105,-0.09 -0.105,-0.075 -0.12,-0.09 -0.105,-0.075 -0.135,-0.075 -0.12,-0.06 -0.12,-0.06 -0.135,-0.045 -0.135,-0.045 -0.135,-0.045 -0.135,-0.03 -0.15,-0.03 -0.135,-0.015 -0.15,-0.015 -0.15,0 v 0.6 c 1.245,0 2.31,1.02 2.31,2.295 0,1.29 -1.065,2.295 -2.31,2.295 h 0 c -1.305,0 -2.31,-1.035 -2.31,-2.295 0,-1.245 1.035,-2.295 2.31,-2.295 v -0.6 c -1.605,0 -2.91,1.335 -2.91,2.895 0,1.59 1.305,2.895 2.91,2.895 1.575,0 2.91,-1.29 2.91,-2.895 z"
         id="path5574" />
      <path
         style="font-style:normal;font-variant:normal;font-weight:normal;font-stretch:normal;letter-spacing:normal;word-spacing:normal;text-anchor:start;fill:#000000;stroke:#000000;stroke-width:0;stroke-linecap:butt;stroke-linejoin:miter;stroke-miterlimit:10.43299961;stroke-opacity:1;stroke-dasharray:none;stroke-dashoffset:0"
         inkscape:connector-curvature="0"
         d="m 473.295,105.7765 0,0.015 0,0 -0.015,0.015 0,0 0,0.03 0,0.015 -0.015,0.015 0,0 0,0.015 0,0.015 -0.015,0.015 0,0.015 0,0 0,0.015 -0.015,0 0,0.015 0,0.015 0,0 0,0.015 0,0 0,0.015 0,0 -0.015,0 0,0.015 0,0.015 0,0.015 0,0 0,0.015 0,0.015 0,0 c 0,0.33 0.285,0.42 0.435,0.42 0.075,0 0.405,-0.045 0.555,-0.39 0.045,-0.12 0.12,-0.615 0.525,-2.73 0.135,0.015 0.24,0.03 0.495,0.03 2.475,0 4.77,-2.34 4.77,-4.695 l -0.405,0.315 c 0,1.695 -1.935,3.51 -4.245,3.51 h 0 c -0.105,0 -0.135,0 -0.255,-0.015 -0.18,0 -0.195,-0.015 -0.195,-0.06 0,-0.03 0.255,-1.38 0.3,-1.605 0.465,-1.92 1.62,-3.345 2.955,-3.345 1.035,0 1.44,0.81 1.44,1.515 L 480,98.7115 c 0,-1.17 -0.57,-2.07 -1.695,-2.07 -2.175,0 -3.06,2.895 -3.96,5.805 -1.62,-0.3 -2.46,-1.125 -2.46,-2.205 0,-0.42 0.345,-2.055 1.245,-3.09 0.12,-0.135 0.12,-0.165 0.12,-0.195 0,-0.06 -0.03,-0.15 -0.18,-0.15 -0.42,0 -1.575,2.16 -1.575,3.6 0,1.395 0.99,2.49 2.595,2.865 z"
         id="path5576" />
    </g>
    <path
       id="path5578"
       d="m 146.3,168.03149 0,-0.225 0,-0.225 -0.015,-0.225 0,-0.225 -0.015,-0.21 -0.015,-0.225 -0.03,-0.225 -0.03,-0.225 -0.03,-0.21 -0.045,-0.225 -0.045,-0.21 -0.06,-0.225 -0.06,-0.21 -0.075,-0.21 -0.09,-0.21 -0.045,-0.105 -0.045,-0.105 c -0.69,-1.425 -1.905,-1.665 -2.535,-1.665 -0.9,0 -1.995,0.39 -2.61,1.77 -0.465,1.035 -0.555,2.205 -0.555,3.39 0,1.125 0.06,2.46 0.675,3.6 0.645,1.215 1.74,1.5 2.475,1.5 v -0.315 c -0.585,0 -1.47,-0.375 -1.74,-1.815 -0.165,-0.885 -0.165,-2.265 -0.165,-3.15 0,-0.945 0,-1.935 0.12,-2.745 0.285,-1.77 1.41,-1.905 1.785,-1.905 0.495,0 1.485,0.27 1.755,1.74 0.15,0.84 0.15,1.98 0.15,2.91 0,1.125 0,2.145 -0.165,3.09 -0.21,1.425 -1.065,1.875 -1.74,1.875 h 0 v 0.315 c 0.81,0 1.935,-0.3 2.595,-1.725 0.48,-1.035 0.555,-2.19 0.555,-3.375 z"
       inkscape:connector-curvature="0"
       style="font-style:normal;font-variant:normal;font-weight:normal;font-stretch:normal;letter-spacing:normal;word-spacing:normal;text-anchor:start;fill:#000000;stroke:#000000;stroke-width:0;stroke-linecap:butt;stroke-linejoin:miter;stroke-miterlimit:10.43299961;stroke-opacity:1;stroke-dasharray:none;stroke-dashoffset:0" />
    <g
       transform="translate(-239.28,-53.640006)"
       id="g5702">
      <path
         style="font-style:normal;font-variant:normal;font-weight:normal;font-stretch:normal;letter-spacing:normal;word-spacing:normal;text-anchor:start;fill:#000000;stroke:#000000;stroke-width:0;stroke-linecap:butt;stroke-linejoin:miter;stroke-miterlimit:10.43299961;stroke-opacity:1;stroke-dasharray:none;stroke-dashoffset:0"
         inkscape:connector-curvature="0"
         d="m 453.195,133.1365 h 1.29 c 0.3,0 0.45,0 0.45,-0.3 0,-0.165 -0.15,-0.165 -0.405,-0.165 h -1.245 l 0.315,-1.695 c 0.06,-0.315 0.27,-1.38 0.36,-1.56 0.135,-0.285 0.39,-0.51 0.705,-0.51 0.06,0 0.45,0 0.735,0.27 -0.66,0.06 -0.81,0.585 -0.81,0.81 0,0.345 0.27,0.525 0.555,0.525 0.39,0 0.825,-0.33 0.825,-0.9 0,-0.69 -0.69,-1.02 -1.305,-1.02 -0.51,0 -1.455,0.255 -1.905,1.74 -0.075,0.315 -0.12,0.465 -0.48,2.34 h -1.035 c -0.285,0 -0.45,0 -0.45,0.285 0,0.18 0.135,0.18 0.42,0.18 h 0.99 l -1.125,5.895 c -0.27,1.455 -0.525,2.805 -1.305,2.805 -0.06,0 -0.435,0 -0.72,-0.27 0.69,-0.045 0.825,-0.57 0.825,-0.795 0,-0.345 -0.27,-0.525 -0.555,-0.525 -0.39,0 -0.825,0.33 -0.825,0.9 0,0.66 0.66,1.02 1.275,1.02 0.825,0 1.425,-0.885 1.695,-1.44 0.48,-0.945 0.825,-2.745 0.84,-2.85 z"
         id="path5580" />
      <path
         style="font-style:normal;font-variant:normal;font-weight:normal;font-stretch:normal;letter-spacing:normal;word-spacing:normal;text-anchor:start;fill:#000000;stroke:#000000;stroke-width:0;stroke-linecap:butt;stroke-linejoin:miter;stroke-miterlimit:10.43299961;stroke-opacity:1;stroke-dasharray:none;stroke-dashoffset:0"
         inkscape:connector-curvature="0"
         d="m 461.595,142.6915 0,-0.015 0,0 0,0 -0.015,-0.015 0,0 0,0 0,-0.015 0,0 0,0 0,-0.015 -0.015,0 0,-0.015 0,0 -0.015,-0.015 0,0 0,-0.015 -0.015,-0.015 -0.015,0 0,-0.015 0,0 -0.015,-0.015 0,0 0,0 -0.015,-0.015 0,0 -0.015,-0.015 0,0 -0.015,-0.015 0,0 -0.015,-0.015 0,0 -0.015,-0.015 0,-0.015 -0.015,0 0,-0.015 -0.015,-0.015 -0.015,0 0,-0.015 -0.015,-0.015 -0.015,0 -0.015,-0.015 0,-0.015 c -1.875,-1.875 -2.355,-4.695 -2.355,-6.99 0,-2.595 0.57,-5.19 2.415,-7.05 0.195,-0.18 0.195,-0.21 0.195,-0.255 0,-0.105 -0.06,-0.15 -0.15,-0.15 -0.15,0 -1.5,1.005 -2.385,2.91 -0.765,1.635 -0.945,3.3 -0.945,4.545 0,1.17 0.165,2.97 0.99,4.665 0.9,1.83 2.19,2.805 2.34,2.805 0.09,0 0.15,-0.045 0.15,-0.15 z"
         id="path5582" />
      <path
         style="font-style:normal;font-variant:normal;font-weight:normal;font-stretch:normal;letter-spacing:normal;word-spacing:normal;text-anchor:start;fill:#000000;stroke:#000000;stroke-width:0;stroke-linecap:butt;stroke-linejoin:miter;stroke-miterlimit:10.43299961;stroke-opacity:1;stroke-dasharray:none;stroke-dashoffset:0"
         inkscape:connector-curvature="0"
         d="m 467.445,134.6065 0.015,-0.045 0,-0.045 0.015,-0.045 0.015,-0.06 0.015,-0.06 0.015,-0.06 0.03,-0.06 0.015,-0.075 0.03,-0.06 0.015,-0.075 0.03,-0.075 0.03,-0.075 0.045,-0.075 0.03,-0.075 0.045,-0.075 0.03,-0.075 0.045,-0.075 0.045,-0.06 0.06,-0.075 0.045,-0.075 0.06,-0.06 0.06,-0.06 0.06,-0.06 0.075,-0.045 0.06,-0.045 0.075,-0.045 0.045,-0.03 0.03,-0.015 0.045,-0.015 0.045,-0.015 0.03,-0.015 0.045,-0.015 0.045,0 0.045,-0.015 0.045,0 0.045,-0.015 0.045,0 0.06,0 c 0.075,0 0.42,0 0.735,0.195 -0.405,0.075 -0.705,0.45 -0.705,0.81 0,0.24 0.165,0.525 0.555,0.525 0.33,0 0.81,-0.27 0.81,-0.87 0,-0.78 -0.87,-0.99 -1.38,-0.99 -0.87,0 -1.395,0.795 -1.575,1.14 -0.375,-0.99 -1.185,-1.14 -1.62,-1.14 -1.545,0 -2.4,1.935 -2.4,2.295 0,0.15 0.15,0.15 0.18,0.15 0.12,0 0.165,-0.03 0.195,-0.15 0.51,-1.59 1.485,-1.965 1.995,-1.965 0.285,0 0.81,0.135 0.81,1.005 0,0.465 -0.255,1.455 -0.81,3.555 -0.24,0.915 -0.75,1.545 -1.41,1.545 -0.09,0 -0.435,0 -0.75,-0.195 0.375,-0.075 0.705,-0.39 0.705,-0.81 0,-0.39 -0.33,-0.51 -0.555,-0.51 -0.45,0 -0.825,0.375 -0.825,0.855 0,0.69 0.75,0.99 1.41,0.99 0.975,0 1.515,-1.05 1.56,-1.14 0.18,0.555 0.72,1.14 1.62,1.14 1.545,0 2.385,-1.92 2.385,-2.295 0,-0.15 -0.135,-0.15 -0.18,-0.15 -0.135,0 -0.165,0.06 -0.18,0.165 -0.495,1.59 -1.515,1.95 -1.995,1.95 -0.585,0 -0.825,-0.48 -0.825,-0.975 0,-0.33 0.09,-0.66 0.255,-1.32 z"
         id="path5584" />
      <path
         style="font-style:normal;font-variant:normal;font-weight:normal;font-stretch:normal;letter-spacing:normal;word-spacing:normal;text-anchor:start;fill:#000000;stroke:#000000;stroke-width:0;stroke-linecap:butt;stroke-linejoin:miter;stroke-miterlimit:10.43299961;stroke-opacity:1;stroke-dasharray:none;stroke-dashoffset:0"
         inkscape:connector-curvature="0"
         d="m 475.305,135.3715 0,-0.105 0,-0.12 0,-0.12 0,-0.12 -0.015,-0.255 -0.015,-0.255 -0.03,-0.27 -0.03,-0.285 -0.045,-0.3 -0.045,-0.3 -0.06,-0.3 -0.06,-0.315 -0.09,-0.315 -0.09,-0.315 -0.105,-0.315 -0.12,-0.33 -0.06,-0.15 -0.075,-0.165 -0.06,-0.165 -0.075,-0.15 c -0.9,-1.845 -2.19,-2.805 -2.34,-2.805 -0.09,0 -0.15,0.06 -0.15,0.15 0,0.045 0,0.075 0.285,0.345 1.47,1.47 2.325,3.84 2.325,6.96 0,2.55 -0.555,5.19 -2.415,7.065 -0.195,0.18 -0.195,0.21 -0.195,0.255 0,0.09 0.06,0.15 0.15,0.15 0.15,0 1.5,-1.02 2.385,-2.91 0.75,-1.65 0.93,-3.3 0.93,-4.56 z"
         id="path5586" />
    </g>
    <path
       id="path5588"
       d="m 204.075,49.05149 h 1.29 c 0.3,0 0.45,0 0.45,-0.285 0,-0.165 -0.15,-0.165 -0.405,-0.165 h -1.245 l 0.315,-1.71 c 0.06,-0.315 0.27,-1.365 0.36,-1.545 0.135,-0.285 0.39,-0.51 0.705,-0.51 0.06,0 0.45,0 0.735,0.27 -0.66,0.06 -0.81,0.585 -0.81,0.81 0,0.33 0.27,0.51 0.555,0.51 0.39,0 0.825,-0.33 0.825,-0.885 0,-0.69 -0.69,-1.035 -1.305,-1.035 -0.51,0 -1.455,0.27 -1.905,1.74 -0.075,0.315 -0.12,0.465 -0.48,2.355 h -1.035 c -0.285,0 -0.45,0 -0.45,0.285 0,0.165 0.135,0.165 0.42,0.165 h 0.99 l -1.125,5.91 c -0.27,1.44 -0.525,2.805 -1.305,2.805 -0.06,0 -0.435,0 -0.72,-0.27 0.69,-0.045 0.825,-0.585 0.825,-0.81 0,-0.345 -0.27,-0.525 -0.555,-0.525 -0.39,0 -0.825,0.33 -0.825,0.9 0,0.675 0.66,1.035 1.275,1.035 0.825,0 1.425,-0.885 1.695,-1.455 0.48,-0.945 0.825,-2.745 0.84,-2.85 z"
       inkscape:connector-curvature="0"
       style="font-style:normal;font-variant:normal;font-weight:normal;font-stretch:normal;letter-spacing:normal;word-spacing:normal;text-anchor:start;fill:#000000;stroke:#000000;stroke-width:0;stroke-linecap:butt;stroke-linejoin:miter;stroke-miterlimit:10.43299961;stroke-opacity:1;stroke-dasharray:none;stroke-dashoffset:0" />
    <path
       id="path5590"
       d="m 209.28,54.67649 0.09,-0.03 0.075,-0.045 0.075,-0.03 0.06,-0.03 0.075,-0.03 0.06,-0.03 0.075,-0.03 0.06,-0.015 0.06,-0.03 0.045,-0.03 0.06,-0.015 0.06,-0.03 0.045,-0.015 0.045,-0.015 0.045,-0.03 0.045,-0.015 0.045,-0.015 0.045,-0.015 0.045,-0.015 0.03,-0.03 0.045,-0.015 0.03,-0.015 0.03,-0.015 0.045,0 0.03,-0.015 0.03,-0.015 0.06,-0.03 0.045,-0.03 0.06,-0.015 c 0.195,-0.09 0.285,-0.135 0.285,-0.33 0,-0.18 -0.135,-0.33 -0.315,-0.33 -0.075,0 -0.105,0 -0.225,0.09 l -1.425,0.96 0.165,-1.545 c 0.015,-0.195 0,-0.45 -0.315,-0.45 -0.135,0 -0.33,0.075 -0.33,0.315 0,0.09 0.045,0.405 0.06,0.51 0.015,0.165 0.09,0.915 0.105,1.17 l -1.41,-0.96 c -0.105,-0.06 -0.135,-0.09 -0.225,-0.09 -0.195,0 -0.33,0.15 -0.33,0.33 0,0.21 0.135,0.27 0.225,0.3 l 1.575,0.66 c -0.855,0.375 -1.245,0.525 -1.5,0.645 -0.195,0.09 -0.3,0.135 -0.3,0.33 0,0.18 0.135,0.33 0.33,0.33 0.075,0 0.09,0 0.225,-0.09 l 1.41,-0.945 -0.165,1.68 c 0,0.225 0.195,0.3 0.33,0.3 0.12,0 0.315,-0.075 0.315,-0.3 0,-0.105 -0.03,-0.42 -0.045,-0.525 -0.015,-0.165 -0.09,-0.915 -0.12,-1.155 l 1.26,0.825 c 0.27,0.21 0.285,0.21 0.39,0.21 0.18,0 0.315,-0.15 0.315,-0.33 0,-0.21 -0.12,-0.255 -0.225,-0.3 z"
       inkscape:connector-curvature="0"
       style="font-style:normal;font-variant:normal;font-weight:normal;font-stretch:normal;letter-spacing:normal;word-spacing:normal;text-anchor:start;fill:#000000;stroke:#000000;stroke-width:0;stroke-linecap:butt;stroke-linejoin:miter;stroke-miterlimit:10.43299961;stroke-opacity:1;stroke-dasharray:none;stroke-dashoffset:0" />
    <path
       id="path5592"
       d="m 214.635,56.16149 -0.015,0.045 0,0.03 -0.015,0.03 -0.015,0.045 -0.015,0.03 -0.03,0.045 -0.015,0.03 -0.015,0.045 -0.03,0.03 -0.015,0.045 -0.03,0.045 -0.015,0.03 -0.03,0.045 -0.03,0.03 -0.03,0.03 -0.03,0.045 -0.03,0.03 -0.03,0.03 -0.045,0.03 -0.03,0.03 -0.03,0.03 -0.045,0.03 -0.03,0.03 -0.045,0.015 -0.045,0.03 -0.045,0.015 -0.045,0.015 -0.045,0.015 -0.045,0.015 -0.045,0 -0.045,0 -0.045,0 c -0.03,0 -0.345,0 -0.57,-0.135 0.42,-0.135 0.465,-0.51 0.465,-0.585 0,-0.225 -0.18,-0.375 -0.42,-0.375 -0.3,0 -0.6,0.255 -0.6,0.63 0,0.525 0.585,0.765 1.095,0.765 0.48,0 0.915,-0.3 1.17,-0.735 0.255,0.54 0.825,0.735 1.245,0.735 1.2,0 1.845,-1.305 1.845,-1.59 0,-0.135 -0.135,-0.135 -0.165,-0.135 -0.15,0 -0.165,0.045 -0.21,0.165 -0.21,0.72 -0.84,1.26 -1.425,1.26 -0.42,0 -0.645,-0.27 -0.645,-0.675 0,-0.27 0.255,-1.215 0.555,-2.37 0.21,-0.81 0.675,-1.065 1.02,-1.065 0.015,0 0.345,0 0.555,0.15 -0.33,0.09 -0.45,0.375 -0.45,0.57 0,0.225 0.18,0.39 0.42,0.39 0.24,0 0.585,-0.21 0.585,-0.645 0,-0.585 -0.675,-0.765 -1.095,-0.765 -0.525,0 -0.945,0.345 -1.17,0.75 -0.18,-0.435 -0.66,-0.75 -1.245,-0.75 -1.17,0 -1.845,1.29 -1.845,1.605 0,0.135 0.15,0.135 0.18,0.135 0.135,0 0.15,-0.045 0.195,-0.18 0.27,-0.81 0.915,-1.26 1.44,-1.26 0.33,0 0.615,0.18 0.615,0.69 0,0.21 -0.12,0.72 -0.21,1.08 z"
       inkscape:connector-curvature="0"
       style="font-style:normal;font-variant:normal;font-weight:normal;font-stretch:normal;letter-spacing:normal;word-spacing:normal;text-anchor:start;fill:#000000;stroke:#000000;stroke-width:0;stroke-linecap:butt;stroke-linejoin:miter;stroke-miterlimit:10.43299961;stroke-opacity:1;stroke-dasharray:none;stroke-dashoffset:0" />
    <path
       id="path5596"
       d="m 136.725,75.441494 h 1.29 c 0.3,0 0.45,0 0.45,-0.3 0,-0.165 -0.15,-0.165 -0.405,-0.165 h -1.245 l 0.315,-1.695 c 0.06,-0.315 0.27,-1.38 0.36,-1.56 0.135,-0.285 0.39,-0.51 0.705,-0.51 0.06,0 0.45,0 0.735,0.27 -0.66,0.06 -0.81,0.585 -0.81,0.81 0,0.345 0.27,0.525 0.555,0.525 0.39,0 0.825,-0.33 0.825,-0.9 0,-0.69 -0.69,-1.035 -1.305,-1.035 -0.51,0 -1.455,0.27 -1.905,1.755 -0.075,0.315 -0.12,0.465 -0.48,2.34 h -1.035 c -0.285,0 -0.45,0 -0.45,0.285 0,0.18 0.135,0.18 0.42,0.18 h 0.99 l -1.125,5.895 c -0.27,1.455 -0.525,2.805 -1.305,2.805 -0.06,0 -0.435,0 -0.72,-0.27 0.69,-0.045 0.825,-0.57 0.825,-0.795 0,-0.345 -0.27,-0.525 -0.555,-0.525 -0.39,0 -0.825,0.33 -0.825,0.885 0,0.675 0.66,1.035 1.275,1.035 0.825,0 1.425,-0.885 1.695,-1.44 0.48,-0.945 0.825,-2.76 0.84,-2.865 z"
       inkscape:connector-curvature="0"
       style="font-style:normal;font-variant:normal;font-weight:normal;font-stretch:normal;letter-spacing:normal;word-spacing:normal;text-anchor:start;fill:#000000;stroke:#000000;stroke-width:0;stroke-linecap:butt;stroke-linejoin:miter;stroke-miterlimit:10.43299961;stroke-opacity:1;stroke-dasharray:none;stroke-dashoffset:0" />
    <path
       style="font-style:normal;font-variant:normal;font-weight:normal;font-stretch:normal;letter-spacing:normal;word-spacing:normal;text-anchor:start;fill:#000000;stroke:#000000;stroke-width:0;stroke-linecap:butt;stroke-linejoin:miter;stroke-miterlimit:10.43299961;stroke-opacity:1;stroke-dasharray:none;stroke-dashoffset:0"
       inkscape:connector-curvature="0"
       d="m 46.3,67.356494 0,-0.06 0,-0.075 0,-0.075 0,-0.075 0,-0.075 0,-0.09 0,-0.09 -0.015,-0.09 0,-0.105 0,-0.09 -0.015,-0.09 -0.015,-0.105 -0.015,-0.09 -0.015,-0.105 -0.015,-0.09 -0.015,-0.105 -0.03,-0.09 -0.015,-0.09 -0.03,-0.09 -0.03,-0.075 -0.045,-0.09 -0.03,-0.075 -0.045,-0.06 -0.06,-0.075 -0.015,-0.03 -0.03,-0.03 -0.03,-0.03 -0.03,-0.015 -0.03,-0.03 -0.03,-0.015 -0.03,-0.03 -0.03,-0.015 -0.045,-0.015 -0.03,-0.015 -0.045,-0.015 -0.03,-0.015 -0.045,0 -0.045,0 -0.045,-0.015 -0.045,0 c -0.42,0 -0.615,0.375 -0.615,0.75 0,1.14 0.9,2.07 0.9,3.255 0,1.14 -0.66,2.49 -1.95,2.49 -1.095,0 -1.29,-0.87 -1.29,-1.755 0,-0.93 0.105,-1.86 0.105,-2.775 0,-0.9 -0.39,-1.965 -1.455,-1.965 -1.185,0 -1.395,0.93 -1.395,1.92 H 40 c 0,-0.465 0.09,-1.38 0.72,-1.38 0.435,0 0.525,0.525 0.525,0.855 0,1.065 -0.12,2.16 -0.12,3.24 0,1.41 0.81,2.4 2.28,2.4 2.505,0 2.895,-2.76 2.895,-4.71 z"
       id="path3155" />
    <path
       style="font-style:normal;font-variant:normal;font-weight:normal;font-stretch:normal;letter-spacing:normal;word-spacing:normal;text-anchor:start;fill:#000000;stroke:#000000;stroke-width:0;stroke-linecap:butt;stroke-linejoin:miter;stroke-miterlimit:10.43299961;stroke-opacity:1;stroke-dasharray:none;stroke-dashoffset:0;display:inline"
       inkscape:connector-curvature="0"
       d="m 225.895,51.321494 0,-0.06 0,-0.075 0,-0.075 0,-0.075 0,-0.075 0,-0.09 0,-0.09 -0.015,-0.09 0,-0.105 0,-0.09 -0.015,-0.09 -0.015,-0.105 -0.015,-0.09 -0.015,-0.105 -0.015,-0.09 -0.015,-0.105 -0.03,-0.09 -0.015,-0.09 -0.03,-0.09 -0.03,-0.075 -0.045,-0.09 -0.03,-0.075 -0.045,-0.06 -0.06,-0.075 -0.015,-0.03 -0.03,-0.03 -0.03,-0.03 -0.03,-0.015 -0.03,-0.03 -0.03,-0.015 -0.03,-0.03 -0.03,-0.015 -0.045,-0.015 -0.03,-0.015 -0.045,-0.015 -0.03,-0.015 -0.045,0 -0.045,0 -0.045,-0.015 -0.045,0 c -0.42,0 -0.615,0.375 -0.615,0.75 0,1.14 0.9,2.07 0.9,3.255 0,1.14 -0.66,2.49 -1.95,2.49 -1.095,0 -1.29,-0.87 -1.29,-1.755 0,-0.93 0.105,-1.86 0.105,-2.775 0,-0.9 -0.39,-1.965 -1.455,-1.965 -1.185,0 -1.395,0.93 -1.395,1.92 h 0.345 c 0,-0.465 0.09,-1.38 0.72,-1.38 0.435,0 0.525,0.525 0.525,0.855 0,1.065 -0.12,2.16 -0.12,3.24 0,1.41 0.81,2.4 2.28,2.4 2.505,0 2.895,-2.76 2.895,-4.71 z"
       id="path3155-1" />
  </g>
</svg>
