<?xml version="1.0" encoding="UTF-8" standalone="no"?>
<!-- Created with Inkscape (http://www.inkscape.org/) -->

<svg
   xmlns:dc="http://purl.org/dc/elements/1.1/"
   xmlns:cc="http://creativecommons.org/ns#"
   xmlns:rdf="http://www.w3.org/1999/02/22-rdf-syntax-ns#"
   xmlns:svg="http://www.w3.org/2000/svg"
   xmlns="http://www.w3.org/2000/svg"
   xmlns:sodipodi="http://sodipodi.sourceforge.net/DTD/sodipodi-0.dtd"
   xmlns:inkscape="http://www.inkscape.org/namespaces/inkscape"
   width="287.95865"
   height="57.832001"
   id="svg2"
   version="1.1"
   inkscape:version="0.48.0 r9654"
   sodipodi:docname="param_dlin_dug.pdf"
   style="enable-background:new">
  <sodipodi:namedview
     id="base"
     pagecolor="#ffffff"
     bordercolor="#666666"
     borderopacity="1.0"
     inkscape:pageopacity="0.0"
     inkscape:pageshadow="2"
     inkscape:zoom="1"
     inkscape:cx="97.265748"
     inkscape:cy="23.314074"
     inkscape:document-units="cm"
     inkscape:current-layer="layer3"
     showgrid="true"
     inkscape:window-width="800"
     inkscape:window-height="579"
     inkscape:window-x="-4"
     inkscape:window-y="-4"
     inkscape:window-maximized="1"
     units="cm"
     width="9.2cm"
     showguides="true"
     inkscape:guide-bbox="true"
     inkscape:showpageshadow="false"
     objecttolerance="4"
     gridtolerance="4"
     fit-margin-top="0"
     fit-margin-left="0"
     fit-margin-right="0"
     fit-margin-bottom="0">
    <inkscape:grid
       type="xygrid"
       id="grid3254"
       empspacing="5"
       visible="true"
       enabled="true"
       snapvisiblegridlinesonly="true" />
  </sodipodi:namedview>
  <defs
     id="defs4"><inkscape:perspective
   id="perspective4264"
   inkscape:persp3d-origin="162.99213 : 82.677165 : 1"
   inkscape:vp_z="325.98425 : 124.01575 : 1"
   inkscape:vp_y="0 : 1000 : 0"
   inkscape:vp_x="0 : 124.01575 : 1"
   sodipodi:type="inkscape:persp3d" />
<marker
   inkscape:stockid="Arrow1Send"
   orient="auto"
   refY="0"
   refX="0"
   id="Arrow1Send"
   style="overflow:visible">
  <path
     id="path3997"
     d="M 0,0 5,-5 -12.5,0 5,5 0,0 z"
     style="fill-rule:evenodd;stroke:#000000;stroke-width:1pt;marker-start:none"
     transform="matrix(-0.2,0,0,-0.2,-1.2,0)"
     inkscape:connector-curvature="0" />
</marker>
<marker
   inkscape:stockid="Arrow1Sstart"
   orient="auto"
   refY="0"
   refX="0"
   id="Arrow1Sstart"
   style="overflow:visible">
  <path
     id="path3994"
     d="M 0,0 5,-5 -12.5,0 5,5 0,0 z"
     style="fill-rule:evenodd;stroke:#000000;stroke-width:1pt;marker-start:none"
     transform="matrix(0.2,0,0,0.2,1.2,0)"
     inkscape:connector-curvature="0" />
</marker>
<marker
   inkscape:stockid="Arrow1Mend"
   orient="auto"
   refY="0"
   refX="0"
   id="Arrow1Mend"
   style="overflow:visible">
  <path
     id="path3991"
     d="M 0,0 5,-5 -12.5,0 5,5 0,0 z"
     style="fill-rule:evenodd;stroke:#000000;stroke-width:1pt;marker-start:none"
     transform="matrix(-0.4,0,0,-0.4,-4,0)"
     inkscape:connector-curvature="0" />
</marker>
<marker
   inkscape:stockid="Arrow1Mstart"
   orient="auto"
   refY="0"
   refX="0"
   id="Arrow1Mstart"
   style="overflow:visible">
  <path
     id="path3988"
     d="M 0,0 5,-5 -12.5,0 5,5 0,0 z"
     style="fill-rule:evenodd;stroke:#000000;stroke-width:1pt;marker-start:none"
     transform="matrix(0.4,0,0,0.4,4,0)"
     inkscape:connector-curvature="0" />
</marker>
<marker
   inkscape:stockid="Arrow2Lend"
   orient="auto"
   refY="0"
   refX="0"
   id="Arrow2Lend"
   style="overflow:visible">
  <path
     id="path4003"
     style="font-size:12px;fill-rule:evenodd;stroke-width:0.625;stroke-linejoin:round"
     d="M 8.7185878,4.0337352 -2.2072895,0.01601326 8.7185884,-4.0017078 c -1.7454984,2.3720609 -1.7354408,5.6174519 -6e-7,8.035443 z"
     transform="matrix(-1.1,0,0,-1.1,-1.1,0)"
     inkscape:connector-curvature="0" />
</marker>
<marker
   inkscape:stockid="Arrow2Lstart"
   orient="auto"
   refY="0"
   refX="0"
   id="Arrow2Lstart"
   style="overflow:visible">
  <path
     id="path4000"
     style="font-size:12px;fill-rule:evenodd;stroke-width:0.625;stroke-linejoin:round"
     d="M 8.7185878,4.0337352 -2.2072895,0.01601326 8.7185884,-4.0017078 c -1.7454984,2.3720609 -1.7354408,5.6174519 -6e-7,8.035443 z"
     transform="matrix(1.1,0,0,1.1,1.1,0)"
     inkscape:connector-curvature="0" />
</marker>
<marker
   style="overflow:visible"
   id="Arrow1Lend"
   refX="0"
   refY="0"
   orient="auto"
   inkscape:stockid="Arrow1Lend">
  <path
     transform="matrix(-0.8,0,0,-0.8,-10,0)"
     style="fill-rule:evenodd;stroke:#000000;stroke-width:1pt;marker-start:none"
     d="M 0,0 5,-5 -12.5,0 5,5 0,0 z"
     id="path4440"
     inkscape:connector-curvature="0" />
</marker>
<marker
   style="overflow:visible"
   id="Arrow1Lstart"
   refX="0"
   refY="0"
   orient="auto"
   inkscape:stockid="Arrow1Lstart">
  <path
     transform="matrix(0.8,0,0,0.8,10,0)"
     style="fill-rule:evenodd;stroke:#000000;stroke-width:1pt;marker-start:none"
     d="M 0,0 5,-5 -12.5,0 5,5 0,0 z"
     id="path4437"
     inkscape:connector-curvature="0" />
</marker>
<marker
   inkscape:stockid="Arrow2Lstart"
   orient="auto"
   refY="0"
   refX="0"
   id="Arrow2Lstart-4"
   style="overflow:visible">
  <path
     inkscape:connector-curvature="0"
     id="path4000-4"
     style="font-size:12px;fill-rule:evenodd;stroke-width:0.625;stroke-linejoin:round"
     d="M 8.7185878,4.0337352 -2.2072895,0.01601326 8.7185884,-4.0017078 c -1.7454984,2.3720609 -1.7354408,5.6174519 -6e-7,8.035443 z"
     transform="matrix(1.1,0,0,1.1,1.1,0)" />
</marker>
<marker
   inkscape:stockid="Arrow2Lend"
   orient="auto"
   refY="0"
   refX="0"
   id="Arrow2Lend-3"
   style="overflow:visible">
  <path
     inkscape:connector-curvature="0"
     id="path4003-0"
     style="font-size:12px;fill-rule:evenodd;stroke-width:0.625;stroke-linejoin:round"
     d="M 8.7185878,4.0337352 -2.2072895,0.01601326 8.7185884,-4.0017078 c -1.7454984,2.3720609 -1.7354408,5.6174519 -6e-7,8.035443 z"
     transform="matrix(-1.1,0,0,-1.1,-1.1,0)" />
</marker>
<marker
   inkscape:stockid="Arrow2Lend"
   orient="auto"
   refY="0"
   refX="0"
   id="marker7119"
   style="overflow:visible">
  <path
     inkscape:connector-curvature="0"
     id="path7121"
     style="font-size:12px;fill-rule:evenodd;stroke-width:0.625;stroke-linejoin:round"
     d="M 8.7185878,4.0337352 -2.2072895,0.01601326 8.7185884,-4.0017078 c -1.7454984,2.3720609 -1.7354408,5.6174519 -6e-7,8.035443 z"
     transform="matrix(-1.1,0,0,-1.1,-1.1,0)" />
</marker>
<marker
   inkscape:stockid="Arrow1Mstart"
   orient="auto"
   refY="0"
   refX="0"
   id="Arrow1Mstart-3"
   style="overflow:visible">
  <path
     inkscape:connector-curvature="0"
     id="path3988-7"
     d="M 0,0 5,-5 -12.5,0 5,5 0,0 z"
     style="fill-rule:evenodd;stroke:#000000;stroke-width:1pt;marker-start:none"
     transform="matrix(0.4,0,0,0.4,4,0)" />
</marker>
<marker
   inkscape:stockid="Arrow1Mend"
   orient="auto"
   refY="0"
   refX="0"
   id="Arrow1Mend-5"
   style="overflow:visible">
  <path
     inkscape:connector-curvature="0"
     id="path3991-5"
     d="M 0,0 5,-5 -12.5,0 5,5 0,0 z"
     style="fill-rule:evenodd;stroke:#000000;stroke-width:1pt;marker-start:none"
     transform="matrix(-0.4,0,0,-0.4,-4,0)" />
</marker>
<marker
   inkscape:stockid="Arrow1Mend"
   orient="auto"
   refY="0"
   refX="0"
   id="Arrow1Mend-4"
   style="overflow:visible">
  <path
     inkscape:connector-curvature="0"
     id="path3991-2"
     d="M 0,0 5,-5 -12.5,0 5,5 0,0 z"
     style="fill-rule:evenodd;stroke:#000000;stroke-width:1pt;marker-start:none"
     transform="matrix(-0.4,0,0,-0.4,-4,0)" />
</marker>

















</defs>
  <metadata
     id="metadata7">
    <rdf:RDF>
      <cc:Work
         rdf:about="">
        <dc:format>image/svg+xml</dc:format>
        <dc:type
           rdf:resource="http://purl.org/dc/dcmitype/StillImage" />
        <dc:title></dc:title>
      </cc:Work>
    </rdf:RDF>
  </metadata>
  <g
     inkscape:groupmode="layer"
     id="layer5"
     inkscape:label="Надписи"
     style="display:none"
     transform="translate(-27.145669,-115.24349)" />
  <g
     inkscape:groupmode="layer"
     id="layer4"
     inkscape:label="Слой3"
     style="display:none"
     transform="translate(-27.145669,-115.24349)" />
  <g
     inkscape:label="Слой2"
     id="layer2"
     inkscape:groupmode="layer"
     transform="translate(-27.145669,-919.57295)"
     style="display:none">
    <text
       sodipodi:linespacing="125%"
       id="text3997"
       y="849.18628"
       x="114.07245"
       style="font-size:12px;font-style:normal;font-variant:normal;font-weight:normal;font-stretch:normal;line-height:125%;letter-spacing:0px;word-spacing:0px;fill:#000000;fill-opacity:1;stroke:none;font-family:cmmi12;-inkscape-font-specification:cmmi12"
       xml:space="preserve"><tspan
         y="849.18628"
         x="114.07245"
         id="tspan3999"
         sodipodi:role="line" /></text>
    <text
       sodipodi:linespacing="125%"
       id="text4001"
       y="739.52142"
       x="257.33582"
       style="font-size:12px;font-style:normal;font-variant:normal;font-weight:normal;font-stretch:normal;line-height:125%;letter-spacing:0px;word-spacing:0px;fill:#000000;fill-opacity:1;stroke:none;font-family:cmmi12;-inkscape-font-specification:cmmi12"
       xml:space="preserve"><tspan
         y="739.52142"
         x="257.33582"
         id="tspan4003"
         sodipodi:role="line">  </tspan></text>
    <text
       sodipodi:linespacing="125%"
       id="text4009"
       y="837.7204"
       x="125.36874"
       style="font-size:12px;font-style:normal;font-variant:normal;font-weight:normal;font-stretch:normal;line-height:125%;letter-spacing:0px;word-spacing:0px;fill:#000000;fill-opacity:1;stroke:none;font-family:cmmi12;-inkscape-font-specification:cmmi12"
       xml:space="preserve"><tspan
         y="837.7204"
         x="125.36874"
         id="tspan4011"
         sodipodi:role="line" /></text>
  </g>
  <g
     inkscape:label="Слой1"
     id="layer3"
     inkscape:groupmode="layer"
     style="display:inline"
     transform="translate(-27.145669,-115.24349)">
    <g
       transform="matrix(1.25,0,0,-1.25,0,1052.5)"
       inkscape:label="ink_ext_XXXXXX"
       id="g3521">
      <g
         transform="scale(0.1,0.1)"
         id="g3523" />
    </g>
    <g
       transform="matrix(1.25,0,0,-1.25,0,1052.5)"
       inkscape:label="ink_ext_XXXXXX"
       id="g3535">
      <g
         transform="scale(0.1,0.1)"
         id="g3537" />
    </g>
    <text
       xml:space="preserve"
       style="font-size:14.93999958px;font-style:normal;font-variant:normal;font-weight:normal;font-stretch:normal;line-height:125%;letter-spacing:0px;word-spacing:0px;fill:#000000;fill-opacity:1;stroke:none;font-family:cmmi12;-inkscape-font-specification:cmmi12"
       x="104"
       y="224.03149"
       id="text6249"
       sodipodi:linespacing="125%"><tspan
         sodipodi:role="line"
         id="tspan6251"
         x="104"
         y="224.03149" /></text>
    <path
       sodipodi:nodetypes="csc"
       inkscape:connector-curvature="0"
       id="path3051"
       d="M 30,158.03149 C 210,78.031494 222.52477,169.66276 194.01723,164.69697 182.12862,162.62607 160,108.03149 312.82843,148.03149"
       style="fill:none;stroke:#000000;stroke-width:1.09924221px;stroke-linecap:butt;stroke-linejoin:miter;stroke-opacity:1" />
    <path
       style="fill:#ffffff;stroke:#000000;stroke-width:0.70866144;stroke-miterlimit:4;stroke-opacity:1;stroke-dasharray:none;display:inline"
       d="m 32.5,158.28149 c 0,1.38073 -1.11929,2.50001 -2.5,2.50001 -1.38071,0 -2.5,-1.11928 -2.5,-2.50001 0,-1.38071 1.11929,-2.5 2.5,-2.5 1.38071,0 2.5,1.11929 2.5,2.5 z"
       id="path3031-52"
       inkscape:connector-curvature="0" />
    <path
       style="fill:#ffffff;stroke:#000000;stroke-width:0.70866144;stroke-miterlimit:4;stroke-opacity:1;stroke-dasharray:none;display:inline"
       d="m 100,133.03149 c 0,1.38073 -1.11929,2.50001 -2.5,2.50001 -1.38071,0 -2.5,-1.11928 -2.5,-2.50001 0,-1.38071 1.11929,-2.5 2.5,-2.5 1.38071,0 2.5,1.11929 2.5,2.5 z"
       id="path3031-52-7"
       inkscape:connector-curvature="0" />
    <path
       style="fill:#ffffff;stroke:#000000;stroke-width:0.70866144;stroke-miterlimit:4;stroke-opacity:1;stroke-dasharray:none;display:inline"
       d="m 185,129.53149 c 0,1.38073 -1.11929,2.50001 -2.5,2.50001 -1.38071,0 -2.5,-1.11928 -2.5,-2.50001 0,-1.38071 1.11929,-2.5 2.5,-2.5 1.38071,0 2.5,1.11929 2.5,2.5 z"
       id="path3031-52-4"
       inkscape:connector-curvature="0" />
    <path
       style="fill:#ffffff;stroke:#000000;stroke-width:0.70866144;stroke-miterlimit:4;stroke-opacity:1;stroke-dasharray:none;display:inline"
       d="m 314.74999,148.28149 c 0,1.38073 -1.11929,2.50001 -2.5,2.50001 -1.38071,0 -2.5,-1.11928 -2.5,-2.50001 0,-1.38071 1.11929,-2.5 2.5,-2.5 1.38071,0 2.5,1.11929 2.5,2.5 z"
       id="path3031-52-0"
       inkscape:connector-curvature="0" />
    <path
       sodipodi:nodetypes="cc"
       inkscape:connector-curvature="0"
       id="path4811"
       d="m 110,143.03149 c 17.46665,-5.14184 34.73368,-10.29279 60,-5"
       style="fill:none;stroke:#000000;stroke-width:0.70866144;stroke-linecap:butt;stroke-linejoin:miter;stroke-miterlimit:4;stroke-opacity:1;stroke-dasharray:none;marker-start:url(#Arrow1Mstart-3);marker-end:url(#Arrow1Mend-4)" />
    <g
       id="g5405"
       transform="translate(3.716,140)">
      <path
         id="path5286"
         d="m 27.196,26.33149 h 1.116 c 0.24,0 0.36,0 0.36,-0.228 0,-0.132 -0.12,-0.132 -0.336,-0.132 h -1.044 c 0.42,-1.704 0.48,-1.944 0.48,-2.016 0,-0.204 -0.144,-0.312 -0.348,-0.312 -0.036,0 -0.36,0.012 -0.468,0.42 l -0.468,1.908 H 25.36 c -0.24,0 -0.36,0 -0.36,0.228 0,0.132 0.096,0.132 0.336,0.132 h 1.056 c -0.864,3.396 -0.912,3.6 -0.912,3.816 0,0.648 0.456,1.092 1.104,1.092 1.212,0 1.896,-1.74 1.896,-1.836 0,-0.12 -0.096,-0.12 -0.144,-0.12 -0.108,0 -0.12,0.036 -0.18,0.168 -0.516,1.248 -1.14,1.536 -1.548,1.536 -0.252,0 -0.372,-0.156 -0.372,-0.552 0,-0.288 0.024,-0.372 0.072,-0.576 z"
         inkscape:connector-curvature="0"
         style="font-style:normal;font-variant:normal;font-weight:normal;font-stretch:normal;letter-spacing:normal;word-spacing:normal;text-anchor:start;fill:#000000;stroke:#000000;stroke-width:0;stroke-linecap:butt;stroke-linejoin:miter;stroke-miterlimit:10.43299961;stroke-opacity:1;stroke-dasharray:none;stroke-dashoffset:0" />
      <path
         id="path5288"
         d="m 40.588,27.20749 0.024,0 0.036,0 0.036,0 0.024,0 0.012,0 0.024,0 0.012,-0.012 0.012,0 0.024,0 0.012,0 0.024,-0.012 0.012,0 0.012,0 0.012,-0.012 0.012,0 0.024,-0.012 0.012,-0.012 0.012,-0.012 0.012,0 0,-0.012 0.012,-0.012 0.012,-0.012 0,0 0,-0.012 0.012,-0.012 0,0 0,-0.012 0,-0.012 0.012,0 0,-0.012 0,-0.012 0,0 0,-0.012 0,-0.012 0,-0.012 0,-0.012 0,-0.012 c 0,-0.24 -0.228,-0.24 -0.396,-0.24 h -7.164 c -0.168,0 -0.396,0 -0.396,0.24 0,0.24 0.228,0.24 0.408,0.24 z"
         inkscape:connector-curvature="0"
         style="font-style:normal;font-variant:normal;font-weight:normal;font-stretch:normal;letter-spacing:normal;word-spacing:normal;text-anchor:start;fill:#000000;stroke:#000000;stroke-width:0;stroke-linecap:butt;stroke-linejoin:miter;stroke-miterlimit:10.43299961;stroke-opacity:1;stroke-dasharray:none;stroke-dashoffset:0" />
      <path
         id="path5290"
         d="m 40.588,29.52349 0.036,0 0.036,0 0.036,0 0.012,0 0.024,0 0.012,0 0.012,-0.012 0.024,0 0.012,0 0.012,0 0.024,-0.012 0.012,0 0.012,0 0.012,-0.012 0.024,0 0.012,-0.012 0.012,-0.012 0.012,-0.012 0.012,0 0,-0.012 0.012,-0.012 0,0 0.012,-0.012 0,0 0,-0.012 0.012,-0.012 0,0 0,-0.012 0,-0.012 0.012,0 0,-0.012 0,-0.012 0,0 0,-0.012 0,-0.012 0,-0.012 0,-0.012 0,-0.012 c 0,-0.24 -0.228,-0.24 -0.396,-0.24 h -7.152 c -0.18,0 -0.408,0 -0.408,0.24 0,0.24 0.228,0.24 0.396,0.24 z"
         inkscape:connector-curvature="0"
         style="font-style:normal;font-variant:normal;font-weight:normal;font-stretch:normal;letter-spacing:normal;word-spacing:normal;text-anchor:start;fill:#000000;stroke:#000000;stroke-width:0;stroke-linecap:butt;stroke-linejoin:miter;stroke-miterlimit:10.43299961;stroke-opacity:1;stroke-dasharray:none;stroke-dashoffset:0" />
      <path
         id="path5292"
         d="m 50.092,23.85949 0.012,-0.024 0,-0.036 0.012,-0.024 0,-0.024 0.012,-0.024 0.012,-0.024 0,-0.024 0.012,-0.024 0,-0.012 0.012,-0.024 0.012,-0.012 0,-0.024 0.012,-0.012 0,-0.012 0.012,-0.012 0.012,-0.012 0,-0.012 0.012,-0.012 0.012,-0.012 0,-0.012 0.012,-0.012 0.012,0 0,-0.012 0.012,0 0.012,-0.012 0.012,0 0.012,-0.012 0.012,0 0.012,0 0.012,-0.012 0.012,0 0.012,0 c 0.108,-0.024 0.504,-0.024 0.756,-0.024 1.2,0 1.74,0.036 1.74,0.972 0,0.18 -0.048,0.648 -0.096,0.96 -0.012,0.048 -0.036,0.192 -0.036,0.228 0,0.072 0.036,0.156 0.144,0.156 0.132,0 0.156,-0.096 0.18,-0.276 l 0.324,-2.076 c 0.012,-0.048 0.024,-0.168 0.024,-0.204 0,-0.132 -0.12,-0.132 -0.324,-0.132 h -6.636 c -0.288,0 -0.3,0.012 -0.384,0.24 l -0.72,2.1 c -0.012,0.024 -0.072,0.192 -0.072,0.216 0,0.072 0.06,0.132 0.144,0.132 0.12,0 0.132,-0.06 0.204,-0.252 0.648,-1.86 0.96,-2.064 2.724,-2.064 h 0.468 c 0.336,0 0.336,0.036 0.336,0.144 0,0.06 -0.036,0.204 -0.048,0.24 l -1.596,6.384 c -0.108,0.444 -0.144,0.576 -1.428,0.576 -0.432,0 -0.504,0 -0.504,0.228 0,0.132 0.132,0.132 0.204,0.132 0.324,0 0.66,-0.024 0.984,-0.024 0.336,0 0.684,-0.012 1.02,-0.012 0.324,0 0.66,0.012 0.984,0.012 0.348,0 0.708,0.024 1.044,0.024 0.12,0 0.264,0 0.264,-0.228 0,-0.132 -0.096,-0.132 -0.408,-0.132 -0.3,0 -0.456,0 -0.768,-0.024 -0.348,-0.036 -0.444,-0.072 -0.444,-0.264 0,-0.012 0,-0.072 0.048,-0.252 z"
         inkscape:connector-curvature="0"
         style="font-style:normal;font-variant:normal;font-weight:normal;font-stretch:normal;letter-spacing:normal;word-spacing:normal;text-anchor:start;fill:#000000;stroke:#000000;stroke-width:0;stroke-linecap:butt;stroke-linejoin:miter;stroke-miterlimit:10.43299961;stroke-opacity:1;stroke-dasharray:none;stroke-dashoffset:0" />
      <path
         id="path5294"
         d="m 56.284,30.24349 0,-0.168 -0.012,-0.168 0,-0.156 -0.012,-0.144 -0.012,-0.156 -0.024,-0.144 -0.012,-0.132 -0.036,-0.132 -0.024,-0.132 -0.036,-0.132 -0.036,-0.12 -0.048,-0.12 -0.06,-0.12 -0.048,-0.108 -0.06,-0.12 -0.036,-0.048 -0.036,-0.06 c -0.264,-0.384 -0.78,-0.72 -1.452,-0.72 v 0.24 c 0.456,0 0.888,0.276 1.044,0.756 0.132,0.456 0.144,1.056 0.144,1.776 0,0.624 0,1.236 -0.12,1.764 -0.156,0.756 -0.732,0.936 -1.068,0.936 h 0 c -0.384,0 -0.888,-0.216 -1.056,-0.9 -0.12,-0.492 -0.12,-1.176 -0.12,-1.8 0,-0.612 0,-1.248 0.132,-1.704 0.168,-0.66 0.708,-0.828 1.044,-0.828 v -0.24 c -1.932,0 -1.932,2.28 -1.932,2.88 0,0.6 0,2.832 1.932,2.832 1.944,0 1.944,-2.232 1.944,-2.832 z"
         inkscape:connector-curvature="0"
         style="font-style:normal;font-variant:normal;font-weight:normal;font-stretch:normal;letter-spacing:normal;word-spacing:normal;text-anchor:start;fill:#000000;stroke:#000000;stroke-width:0;stroke-linecap:butt;stroke-linejoin:miter;stroke-miterlimit:10.43299961;stroke-opacity:1;stroke-dasharray:none;stroke-dashoffset:0" />
    </g>
    <g
       id="g5412"
       transform="translate(53.748,102.348)">
      <path
         id="path5296"
         d="m 45.124,40.68349 h 1.128 c 0.24,0 0.36,0 0.36,-0.24 0,-0.132 -0.12,-0.132 -0.336,-0.132 H 45.22 c 0.432,-1.692 0.492,-1.932 0.492,-2.004 0,-0.204 -0.144,-0.324 -0.348,-0.324 -0.036,0 -0.372,0.012 -0.48,0.432 l -0.468,1.896 h -1.128 c -0.228,0 -0.36,0 -0.36,0.228 0,0.144 0.096,0.144 0.336,0.144 h 1.056 c -0.864,3.384 -0.912,3.588 -0.912,3.804 0,0.648 0.456,1.104 1.104,1.104 1.224,0 1.908,-1.74 1.908,-1.836 0,-0.12 -0.096,-0.12 -0.144,-0.12 -0.108,0 -0.12,0.036 -0.18,0.168 -0.516,1.236 -1.152,1.524 -1.56,1.524 -0.252,0 -0.372,-0.156 -0.372,-0.552 0,-0.288 0.024,-0.372 0.072,-0.576 z"
         inkscape:connector-curvature="0"
         style="font-style:normal;font-variant:normal;font-weight:normal;font-stretch:normal;letter-spacing:normal;word-spacing:normal;text-anchor:start;fill:#000000;stroke:#000000;stroke-width:0;stroke-linecap:butt;stroke-linejoin:miter;stroke-miterlimit:10.43299961;stroke-opacity:1;stroke-dasharray:none;stroke-dashoffset:0" />
      <path
         id="path5298"
         d="m 51.292,44.59549 0,-0.168 -0.012,-0.168 0,-0.156 -0.012,-0.156 -0.012,-0.144 -0.024,-0.144 -0.024,-0.144 -0.024,-0.132 -0.024,-0.132 -0.036,-0.12 -0.048,-0.132 -0.036,-0.12 -0.06,-0.108 -0.048,-0.12 -0.072,-0.108 -0.024,-0.06 -0.036,-0.06 c -0.264,-0.384 -0.78,-0.708 -1.452,-0.708 v 0.228 c 0.456,0 0.888,0.276 1.044,0.756 0.132,0.456 0.132,1.056 0.132,1.788 0,0.612 0,1.224 -0.108,1.752 -0.168,0.756 -0.732,0.948 -1.068,0.948 h 0 c -0.384,0 -0.888,-0.228 -1.056,-0.912 -0.12,-0.492 -0.12,-1.176 -0.12,-1.788 0,-0.612 0,-1.248 0.12,-1.704 0.18,-0.66 0.72,-0.84 1.056,-0.84 v -0.228 c -1.932,0 -1.932,2.268 -1.932,2.88 0,0.6 0,2.82 1.932,2.82 1.944,0 1.944,-2.22 1.944,-2.82 z"
         inkscape:connector-curvature="0"
         style="font-style:normal;font-variant:normal;font-weight:normal;font-stretch:normal;letter-spacing:normal;word-spacing:normal;text-anchor:start;fill:#000000;stroke:#000000;stroke-width:0;stroke-linecap:butt;stroke-linejoin:miter;stroke-miterlimit:10.43299961;stroke-opacity:1;stroke-dasharray:none;stroke-dashoffset:0" />
    </g>
    <path
       style="font-style:normal;font-variant:normal;font-weight:normal;font-stretch:normal;letter-spacing:normal;word-spacing:normal;text-anchor:start;fill:#000000;stroke:#000000;stroke-width:0;stroke-linecap:butt;stroke-linejoin:miter;stroke-miterlimit:10.43299961;stroke-opacity:1;stroke-dasharray:none;stroke-dashoffset:0"
       inkscape:connector-curvature="0"
       d="M 178.872,138.03149 H 180 c 0.24,0 0.36,0 0.36,-0.24 0,-0.132 -0.12,-0.132 -0.336,-0.132 h -1.056 c 0.432,-1.692 0.492,-1.932 0.492,-2.004 0,-0.204 -0.144,-0.324 -0.348,-0.324 -0.036,0 -0.372,0.012 -0.48,0.432 l -0.468,1.896 h -1.128 c -0.228,0 -0.36,0 -0.36,0.228 0,0.144 0.096,0.144 0.336,0.144 h 1.056 c -0.864,3.396 -0.912,3.6 -0.912,3.804 0,0.648 0.456,1.104 1.104,1.104 1.224,0 1.908,-1.74 1.908,-1.836 0,-0.12 -0.096,-0.12 -0.144,-0.12 -0.108,0 -0.12,0.036 -0.18,0.168 -0.516,1.236 -1.152,1.524 -1.56,1.524 -0.252,0 -0.372,-0.156 -0.372,-0.552 0,-0.288 0.024,-0.372 0.072,-0.564 z"
       id="path5302" />
    <g
       id="g5418"
       transform="translate(242.004,79.768004)">
      <path
         id="path5304"
         d="m 45.124,83.72749 h 1.128 c 0.24,0 0.36,0 0.36,-0.24 0,-0.132 -0.12,-0.132 -0.336,-0.132 H 45.22 c 0.432,-1.704 0.492,-1.944 0.492,-2.016 0,-0.192 -0.144,-0.312 -0.348,-0.312 -0.036,0 -0.372,0.012 -0.48,0.42 l -0.468,1.908 h -1.128 c -0.228,0 -0.36,0 -0.36,0.228 0,0.144 0.096,0.144 0.336,0.144 h 1.056 c -0.864,3.384 -0.912,3.588 -0.912,3.804 0,0.648 0.456,1.092 1.104,1.092 1.224,0 1.908,-1.74 1.908,-1.836 0,-0.12 -0.096,-0.12 -0.144,-0.12 -0.108,0 -0.12,0.036 -0.18,0.168 -0.516,1.248 -1.152,1.536 -1.56,1.536 -0.252,0 -0.372,-0.156 -0.372,-0.552 0,-0.288 0.024,-0.372 0.072,-0.576 z"
         inkscape:connector-curvature="0"
         style="font-style:normal;font-variant:normal;font-weight:normal;font-stretch:normal;letter-spacing:normal;word-spacing:normal;text-anchor:start;fill:#000000;stroke:#000000;stroke-width:0;stroke-linecap:butt;stroke-linejoin:miter;stroke-miterlimit:10.43299961;stroke-opacity:1;stroke-dasharray:none;stroke-dashoffset:0" />
      <path
         id="path5306"
         d="m 58.516,84.59149 0.036,0 0.036,0 0.036,0 0.012,0 0.024,0 0.012,0 0.012,0 0.024,-0.012 0.012,0 0.024,0 0.012,0 0.012,-0.012 0.012,0 0.024,-0.012 0.012,0 0.012,-0.012 0.012,-0.012 0.012,0 0.012,-0.012 0.012,-0.012 0.012,-0.012 0,-0.012 0,0 0.012,-0.012 0,0 0,-0.012 0.012,-0.012 0,0 0,-0.012 0,-0.012 0,-0.012 0,0 0.012,-0.012 0,-0.012 0,-0.012 0,-0.012 0,-0.012 c 0,-0.24 -0.228,-0.24 -0.396,-0.24 h -7.164 c -0.168,0 -0.396,0 -0.396,0.24 0,0.24 0.228,0.24 0.408,0.24 z"
         inkscape:connector-curvature="0"
         style="font-style:normal;font-variant:normal;font-weight:normal;font-stretch:normal;letter-spacing:normal;word-spacing:normal;text-anchor:start;fill:#000000;stroke:#000000;stroke-width:0;stroke-linecap:butt;stroke-linejoin:miter;stroke-miterlimit:10.43299961;stroke-opacity:1;stroke-dasharray:none;stroke-dashoffset:0" />
      <path
         id="path5308"
         d="m 58.528,86.90749 0.036,0 0.024,0 0.036,0 0.024,0 0.012,0 0.012,0 0.024,0 0.012,-0.012 0.012,0 0.024,0 0.012,0 0.012,-0.012 0.024,0 0.012,-0.012 0.012,0 0.012,-0.012 0.012,-0.012 0.012,0 0.012,-0.012 0.012,-0.012 0,-0.012 0.012,0 0,-0.012 0,0 0.012,-0.012 0,0 0,-0.012 0.012,-0.012 0,0 0,-0.012 0,-0.012 0,-0.012 0,0 0.012,-0.012 0,-0.012 0,-0.012 0,-0.012 0,-0.012 c 0,-0.24 -0.228,-0.24 -0.408,-0.24 h -7.14 c -0.18,0 -0.408,0 -0.408,0.24 0,0.24 0.228,0.24 0.396,0.24 z"
         inkscape:connector-curvature="0"
         style="font-style:normal;font-variant:normal;font-weight:normal;font-stretch:normal;letter-spacing:normal;word-spacing:normal;text-anchor:start;fill:#000000;stroke:#000000;stroke-width:0;stroke-linecap:butt;stroke-linejoin:miter;stroke-miterlimit:10.43299961;stroke-opacity:1;stroke-dasharray:none;stroke-dashoffset:0" />
      <path
         id="path5310"
         d="m 68.02,81.25549 0.012,-0.036 0.012,-0.024 0,-0.036 0.012,-0.024 0,-0.024 0.012,-0.024 0.012,-0.024 0,-0.024 0.012,-0.012 0,-0.024 0.012,-0.012 0.012,-0.024 0,-0.012 0.012,-0.012 0,-0.012 0.012,-0.012 0.012,-0.012 0,-0.012 0.012,-0.012 0.012,-0.012 0,0 0.012,-0.012 0.012,-0.012 0.012,0 0,-0.012 0.012,0 0.012,-0.012 0.012,0 0.012,0 0.012,-0.012 0.012,0 0.012,0 c 0.108,-0.024 0.504,-0.024 0.756,-0.024 1.212,0 1.752,0.048 1.752,0.972 0,0.18 -0.048,0.648 -0.096,0.96 -0.012,0.048 -0.036,0.192 -0.036,0.228 0,0.072 0.036,0.156 0.144,0.156 0.132,0 0.156,-0.096 0.18,-0.276 l 0.324,-2.076 c 0.012,-0.048 0.012,-0.168 0.012,-0.204 0,-0.132 -0.12,-0.132 -0.312,-0.132 h -6.648 c -0.288,0 -0.3,0.012 -0.384,0.24 l -0.708,2.1 c -0.012,0.024 -0.072,0.192 -0.072,0.216 0,0.072 0.06,0.132 0.144,0.132 0.12,0 0.132,-0.06 0.204,-0.252 0.636,-1.848 0.948,-2.064 2.724,-2.064 h 0.468 c 0.336,0 0.336,0.048 0.336,0.144 0,0.072 -0.036,0.216 -0.048,0.24 l -1.608,6.384 c -0.108,0.444 -0.144,0.576 -1.428,0.576 -0.432,0 -0.504,0 -0.504,0.228 0,0.144 0.132,0.144 0.204,0.144 0.324,0 0.66,-0.024 0.984,-0.024 0.336,0 0.684,-0.012 1.02,-0.012 0.336,0 0.672,0.012 0.996,0.012 0.348,0 0.696,0.024 1.032,0.024 0.12,0 0.264,0 0.264,-0.24 0,-0.132 -0.096,-0.132 -0.408,-0.132 -0.3,0 -0.444,0 -0.756,-0.024 -0.348,-0.036 -0.444,-0.072 -0.444,-0.264 0,-0.012 0,-0.072 0.048,-0.252 z"
         inkscape:connector-curvature="0"
         style="font-style:normal;font-variant:normal;font-weight:normal;font-stretch:normal;letter-spacing:normal;word-spacing:normal;text-anchor:start;fill:#000000;stroke:#000000;stroke-width:0;stroke-linecap:butt;stroke-linejoin:miter;stroke-miterlimit:10.43299961;stroke-opacity:1;stroke-dasharray:none;stroke-dashoffset:0" />
    </g>
    <g
       id="g5424"
       transform="translate(44.424,22.864004)">
      <path
         id="path5312"
         d="m 53.74,95.60749 0.012,-0.036 0,-0.036 0.012,-0.036 0.012,-0.036 0.012,-0.036 0.012,-0.036 0,-0.024 0.012,-0.024 0.012,-0.024 0.012,-0.024 0.024,-0.024 0.012,-0.024 0.012,-0.024 0.024,-0.012 0.024,-0.024 0.024,-0.012 0.024,-0.024 0.024,-0.012 0.036,-0.012 0.036,-0.012 0.036,-0.012 0.012,0 0.024,0 0.024,-0.012 0.024,0 0.024,0 0.024,-0.012 0.024,0 0.024,0 0.024,0 0.024,-0.012 0.036,0 0.024,0 0.036,0 0.036,0 0.024,0 0.036,-0.012 0.036,0 0.036,0 0.036,0 0.048,0 0.036,0 0.036,0 c 0.276,0 0.384,0 0.384,-0.24 0,-0.132 -0.12,-0.132 -0.324,-0.132 h -1.572 c -0.312,0 -0.324,0 -0.468,0.228 l -4.368,6.816 -0.936,-6.768 c -0.036,-0.276 -0.06,-0.276 -0.372,-0.276 h -1.632 c -0.228,0 -0.36,0 -0.36,0.228 0,0.144 0.108,0.144 0.348,0.144 0.156,0 0.372,0.012 0.516,0.024 0.192,0.024 0.264,0.06 0.264,0.192 0,0.048 -0.012,0.084 -0.048,0.228 l -1.524,6.084 c -0.12,0.468 -0.324,0.852 -1.296,0.888 -0.06,0 -0.216,0.012 -0.216,0.228 0,0.108 0.072,0.144 0.168,0.144 0.384,0 0.804,-0.036 1.2,-0.036 0.408,0 0.84,0.036 1.236,0.036 0.06,0 0.216,0 0.216,-0.24 0,-0.132 -0.132,-0.132 -0.216,-0.132 -0.684,-0.012 -0.816,-0.252 -0.816,-0.516 0,-0.084 0.012,-0.156 0.048,-0.276 l 1.632,-6.516 h 0.012 l 1.02,7.404 c 0.024,0.144 0.036,0.276 0.18,0.276 0.132,0 0.204,-0.132 0.264,-0.216 l 4.836,-7.56 h 0.012 l -1.716,6.84 c -0.12,0.468 -0.144,0.564 -1.08,0.564 -0.204,0 -0.336,0 -0.336,0.228 0,0.144 0.144,0.144 0.18,0.144 0.336,0 1.14,-0.036 1.476,-0.036 0.492,0 1.008,0.036 1.5,0.036 0.072,0 0.228,0 0.228,-0.24 0,-0.132 -0.108,-0.132 -0.336,-0.132 -0.444,0 -0.78,0 -0.78,-0.216 0,-0.048 0,-0.072 0.06,-0.288 z"
         inkscape:connector-curvature="0"
         style="font-style:normal;font-variant:normal;font-weight:normal;font-stretch:normal;letter-spacing:normal;word-spacing:normal;text-anchor:start;fill:#000000;stroke:#000000;stroke-width:0;stroke-linecap:butt;stroke-linejoin:miter;stroke-miterlimit:10.43299961;stroke-opacity:1;stroke-dasharray:none;stroke-dashoffset:0" />
      <path
         id="path5314"
         d="m 58.564,101.97949 0,-0.168 0,-0.168 -0.012,-0.156 0,-0.156 -0.024,-0.144 -0.012,-0.144 -0.024,-0.144 -0.024,-0.132 -0.036,-0.132 -0.036,-0.12 -0.036,-0.12 -0.048,-0.12 -0.048,-0.12 -0.06,-0.12 -0.06,-0.108 -0.036,-0.06 -0.036,-0.048 c -0.252,-0.384 -0.768,-0.72 -1.44,-0.72 v 0.228 c 0.456,0 0.888,0.276 1.032,0.756 0.132,0.456 0.144,1.056 0.144,1.788 0,0.612 0,1.236 -0.108,1.752 -0.168,0.768 -0.732,0.948 -1.068,0.948 h 0 c -0.384,0 -0.9,-0.228 -1.068,-0.912 -0.108,-0.492 -0.108,-1.176 -0.108,-1.788 0,-0.612 0,-1.248 0.12,-1.704 0.18,-0.66 0.708,-0.84 1.056,-0.84 v -0.228 c -1.944,0 -1.944,2.28 -1.944,2.88 0,0.6 0,2.82 1.944,2.82 1.932,0 1.932,-2.22 1.932,-2.82 z"
         inkscape:connector-curvature="0"
         style="font-style:normal;font-variant:normal;font-weight:normal;font-stretch:normal;letter-spacing:normal;word-spacing:normal;text-anchor:start;fill:#000000;stroke:#000000;stroke-width:0;stroke-linecap:butt;stroke-linejoin:miter;stroke-miterlimit:10.43299961;stroke-opacity:1;stroke-dasharray:none;stroke-dashoffset:0" />
    </g>
    <path
       style="font-style:normal;font-variant:normal;font-weight:normal;font-stretch:normal;letter-spacing:normal;word-spacing:normal;text-anchor:start;fill:#000000;stroke:#000000;stroke-width:0;stroke-linecap:butt;stroke-linejoin:miter;stroke-miterlimit:10.43299961;stroke-opacity:1;stroke-dasharray:none;stroke-dashoffset:0"
       inkscape:connector-curvature="0"
       d="m 188.588,116.16749 0.012,-0.048 0,-0.036 0.012,-0.036 0.012,-0.036 0.012,-0.024 0.012,-0.036 0,-0.024 0.012,-0.036 0.012,-0.024 0.012,-0.024 0.024,-0.024 0.012,-0.024 0.012,-0.012 0.024,-0.024 0.024,-0.012 0.024,-0.024 0.024,-0.012 0.024,-0.012 0.036,-0.012 0.036,-0.012 0.036,-0.012 0.012,-0.012 0.024,0 0.024,0 0.024,-0.012 0.024,0 0.024,0 0.024,0 0.024,-0.012 0.024,0 0.024,0 0.036,0 0.024,-0.012 0.036,0 0.036,0 0.024,0 0.036,0 0.036,0 0.036,0 0.036,0 0.048,0 0.036,0 0.036,0 c 0.276,0 0.384,0 0.384,-0.24 0,-0.132 -0.12,-0.132 -0.324,-0.132 h -1.572 c -0.312,0 -0.324,0 -0.468,0.228 l -4.368,6.804 -0.936,-6.756 c -0.036,-0.276 -0.06,-0.276 -0.372,-0.276 h -1.632 c -0.228,0 -0.36,0 -0.36,0.228 0,0.144 0.108,0.144 0.348,0.144 0.156,0 0.372,0.012 0.516,0.024 0.192,0.024 0.264,0.06 0.264,0.192 0,0.048 -0.012,0.084 -0.048,0.216 l -1.524,6.084 c -0.12,0.48 -0.324,0.864 -1.296,0.9 -0.06,0 -0.216,0.012 -0.216,0.228 0,0.108 0.072,0.144 0.168,0.144 0.384,0 0.804,-0.036 1.2,-0.036 0.408,0 0.84,0.036 1.236,0.036 0.06,0 0.216,0 0.216,-0.24 0,-0.132 -0.132,-0.132 -0.216,-0.132 -0.684,-0.012 -0.816,-0.252 -0.816,-0.528 0,-0.084 0.012,-0.144 0.048,-0.276 l 1.632,-6.504 h 0.012 l 1.02,7.404 c 0.024,0.144 0.036,0.276 0.18,0.276 0.132,0 0.204,-0.132 0.264,-0.216 l 4.836,-7.56 h 0.012 l -1.716,6.84 c -0.12,0.468 -0.144,0.564 -1.08,0.564 -0.204,0 -0.336,0 -0.336,0.228 0,0.144 0.144,0.144 0.18,0.144 0.336,0 1.14,-0.036 1.476,-0.036 0.492,0 1.008,0.036 1.5,0.036 0.072,0 0.228,0 0.228,-0.24 0,-0.132 -0.108,-0.132 -0.336,-0.132 -0.444,0 -0.78,0 -0.78,-0.216 0,-0.048 0,-0.072 0.06,-0.288 z"
       id="path5316" />
    <rect
       style="fill:#ffffff;stroke:none"
       id="rect5416"
       width="12.500003"
       height="7.5000019"
       x="132.5"
       y="133.03149" />
    <path
       style="font-style:normal;font-variant:normal;font-weight:normal;font-stretch:normal;letter-spacing:normal;word-spacing:normal;text-anchor:start;fill:#000000;stroke:#000000;stroke-width:0;stroke-linecap:butt;stroke-linejoin:miter;stroke-miterlimit:10.43299961;stroke-opacity:1;stroke-dasharray:none;stroke-dashoffset:0"
       inkscape:connector-curvature="0"
       d="m 140.612,135.00749 -0.024,0 -0.036,0.012 -0.024,0 -0.036,0.012 -0.024,0 -0.024,0.012 -0.036,0.012 -0.024,0.012 -0.024,0.012 -0.024,0.012 -0.024,0.012 -0.024,0.012 -0.024,0.012 -0.024,0.024 -0.012,0.012 -0.024,0.024 -0.024,0.012 -0.012,0.024 -0.012,0.024 -0.024,0.024 -0.012,0.012 -0.012,0.024 -0.012,0.024 -0.012,0.024 -0.012,0.024 0,0.024 -0.012,0.024 -0.012,0.024 0,0.024 0,0.024 0,0.024 -0.012,0.024 c 0,0.168 0.108,0.348 0.372,0.348 0.264,0 0.552,-0.204 0.552,-0.672 0,-0.54 -0.516,-1.02 -1.416,-1.02 -1.584,0 -2.028,1.212 -2.028,1.74 0,0.924 0.888,1.116 1.236,1.176 0.624,0.12 1.248,0.252 1.248,0.912 0,0.312 -0.276,1.32 -1.716,1.32 -0.168,0 -1.092,0 -1.368,-0.636 0.456,0.06 0.756,-0.3 0.756,-0.636 0,-0.276 -0.192,-0.42 -0.444,-0.42 -0.312,0 -0.672,0.252 -0.672,0.792 0,0.684 0.684,1.152 1.716,1.152 1.932,0 2.4,-1.44 2.4,-1.98 0,-0.432 -0.228,-0.72 -0.372,-0.864 -0.324,-0.336 -0.66,-0.396 -1.188,-0.504 -0.432,-0.096 -0.912,-0.18 -0.912,-0.72 0,-0.348 0.288,-1.08 1.344,-1.08 0.3,0 0.888,0.084 1.068,0.552 z"
       id="path5300" />
  </g>
</svg>
