<?xml version="1.0" encoding="UTF-8" standalone="no"?>
<!-- Created with Inkscape (http://www.inkscape.org/) -->

<svg
   xmlns:dc="http://purl.org/dc/elements/1.1/"
   xmlns:cc="http://creativecommons.org/ns#"
   xmlns:rdf="http://www.w3.org/1999/02/22-rdf-syntax-ns#"
   xmlns:svg="http://www.w3.org/2000/svg"
   xmlns="http://www.w3.org/2000/svg"
   xmlns:sodipodi="http://sodipodi.sourceforge.net/DTD/sodipodi-0.dtd"
   xmlns:inkscape="http://www.inkscape.org/namespaces/inkscape"
   width="325.98425"
   height="248.03149"
   id="svg2"
   version="1.1"
   inkscape:version="0.48.0 r9654"
   sodipodi:docname="puti.svg"
   enable-background="new">
  <sodipodi:namedview
     id="base"
     pagecolor="#ffffff"
     bordercolor="#666666"
     borderopacity="1.0"
     inkscape:pageopacity="0.0"
     inkscape:pageshadow="2"
     inkscape:zoom="1"
     inkscape:cx="128.48841"
     inkscape:cy="190.99039"
     inkscape:document-units="cm"
     inkscape:current-layer="layer3"
     showgrid="true"
     inkscape:window-width="800"
     inkscape:window-height="579"
     inkscape:window-x="-4"
     inkscape:window-y="-4"
     inkscape:window-maximized="1"
     units="cm"
     width="9.2cm"
     showguides="true"
     inkscape:guide-bbox="true"
     inkscape:showpageshadow="false"
     objecttolerance="4"
     gridtolerance="4">
    <inkscape:grid
       type="xygrid"
       id="grid3254"
       empspacing="5"
       visible="true"
       enabled="true"
       snapvisiblegridlinesonly="true" />
  </sodipodi:namedview>
  <defs
     id="defs4"><marker
   inkscape:stockid="Arrow1Send"
   orient="auto"
   refY="0.0"
   refX="0.0"
   id="Arrow1Send"
   style="overflow:visible;">
  <path
     id="path3997"
     d="M 0.0,0.0 L 5.0,-5.0 L -12.5,0.0 L 5.0,5.0 L 0.0,0.0 z "
     style="fill-rule:evenodd;stroke:#000000;stroke-width:1.0pt;marker-start:none;"
     transform="scale(0.2) rotate(180) translate(6,0)" />
</marker>
<marker
   inkscape:stockid="Arrow1Sstart"
   orient="auto"
   refY="0.0"
   refX="0.0"
   id="Arrow1Sstart"
   style="overflow:visible">
  <path
     id="path3994"
     d="M 0.0,0.0 L 5.0,-5.0 L -12.5,0.0 L 5.0,5.0 L 0.0,0.0 z "
     style="fill-rule:evenodd;stroke:#000000;stroke-width:1.0pt;marker-start:none"
     transform="scale(0.2) translate(6,0)" />
</marker>
<marker
   inkscape:stockid="Arrow1Mend"
   orient="auto"
   refY="0.0"
   refX="0.0"
   id="Arrow1Mend"
   style="overflow:visible;">
  <path
     id="path3991"
     d="M 0.0,0.0 L 5.0,-5.0 L -12.5,0.0 L 5.0,5.0 L 0.0,0.0 z "
     style="fill-rule:evenodd;stroke:#000000;stroke-width:1.0pt;marker-start:none;"
     transform="scale(0.4) rotate(180) translate(10,0)" />
</marker>
<marker
   inkscape:stockid="Arrow1Mstart"
   orient="auto"
   refY="0.0"
   refX="0.0"
   id="Arrow1Mstart"
   style="overflow:visible">
  <path
     id="path3988"
     d="M 0.0,0.0 L 5.0,-5.0 L -12.5,0.0 L 5.0,5.0 L 0.0,0.0 z "
     style="fill-rule:evenodd;stroke:#000000;stroke-width:1.0pt;marker-start:none"
     transform="scale(0.4) translate(10,0)" />
</marker>
<marker
   inkscape:stockid="Arrow2Lend"
   orient="auto"
   refY="0.0"
   refX="0.0"
   id="Arrow2Lend"
   style="overflow:visible;">
  <path
     id="path4003"
     style="font-size:12.0;fill-rule:evenodd;stroke-width:0.62500000;stroke-linejoin:round;"
     d="M 8.7185878,4.0337352 L -2.2072895,0.016013256 L 8.7185884,-4.0017078 C 6.9730900,-1.6296469 6.9831476,1.6157441 8.7185878,4.0337352 z "
     transform="scale(1.1) rotate(180) translate(1,0)" />
</marker>
<marker
   inkscape:stockid="Arrow2Lstart"
   orient="auto"
   refY="0.0"
   refX="0.0"
   id="Arrow2Lstart"
   style="overflow:visible">
  <path
     id="path4000"
     style="font-size:12.0;fill-rule:evenodd;stroke-width:0.62500000;stroke-linejoin:round"
     d="M 8.7185878,4.0337352 L -2.2072895,0.016013256 L 8.7185884,-4.0017078 C 6.9730900,-1.6296469 6.9831476,1.6157441 8.7185878,4.0337352 z "
     transform="scale(1.1) translate(1,0)" />
</marker>
<marker
   style="overflow:visible"
   id="Arrow1Lend"
   refX="0"
   refY="0"
   orient="auto"
   inkscape:stockid="Arrow1Lend">
  <path
     transform="matrix(-0.8,0,0,-0.8,-10,0)"
     style="fill-rule:evenodd;stroke:#000000;stroke-width:1pt;marker-start:none"
     d="M 0,0 5,-5 -12.5,0 5,5 0,0 z"
     id="path4440"
     inkscape:connector-curvature="0" />
</marker>
<marker
   style="overflow:visible"
   id="Arrow1Lstart"
   refX="0"
   refY="0"
   orient="auto"
   inkscape:stockid="Arrow1Lstart">
  <path
     transform="matrix(0.8,0,0,0.8,10,0)"
     style="fill-rule:evenodd;stroke:#000000;stroke-width:1pt;marker-start:none"
     d="M 0,0 5,-5 -12.5,0 5,5 0,0 z"
     id="path4437"
     inkscape:connector-curvature="0" />
</marker>
<marker
   inkscape:stockid="Arrow2Lstart"
   orient="auto"
   refY="0"
   refX="0"
   id="Arrow2Lstart-4"
   style="overflow:visible">
  <path
     inkscape:connector-curvature="0"
     id="path4000-4"
     style="font-size:12px;fill-rule:evenodd;stroke-width:0.625;stroke-linejoin:round"
     d="M 8.7185878,4.0337352 -2.2072895,0.01601326 8.7185884,-4.0017078 c -1.7454984,2.3720609 -1.7354408,5.6174519 -6e-7,8.035443 z"
     transform="matrix(1.1,0,0,1.1,1.1,0)" />
</marker>
<marker
   inkscape:stockid="Arrow2Lend"
   orient="auto"
   refY="0"
   refX="0"
   id="Arrow2Lend-3"
   style="overflow:visible">
  <path
     inkscape:connector-curvature="0"
     id="path4003-0"
     style="font-size:12px;fill-rule:evenodd;stroke-width:0.625;stroke-linejoin:round"
     d="M 8.7185878,4.0337352 -2.2072895,0.01601326 8.7185884,-4.0017078 c -1.7454984,2.3720609 -1.7354408,5.6174519 -6e-7,8.035443 z"
     transform="matrix(-1.1,0,0,-1.1,-1.1,0)" />
</marker>
<marker
   inkscape:stockid="Arrow2Lend"
   orient="auto"
   refY="0"
   refX="0"
   id="marker7119"
   style="overflow:visible">
  <path
     inkscape:connector-curvature="0"
     id="path7121"
     style="font-size:12px;fill-rule:evenodd;stroke-width:0.625;stroke-linejoin:round"
     d="M 8.7185878,4.0337352 -2.2072895,0.01601326 8.7185884,-4.0017078 c -1.7454984,2.3720609 -1.7354408,5.6174519 -6e-7,8.035443 z"
     transform="matrix(-1.1,0,0,-1.1,-1.1,0)" />
</marker>
<marker
   inkscape:stockid="Arrow1Mstart"
   orient="auto"
   refY="0"
   refX="0"
   id="Arrow1Mstart-3"
   style="overflow:visible">
  <path
     inkscape:connector-curvature="0"
     id="path3988-7"
     d="M 0,0 5,-5 -12.5,0 5,5 0,0 z"
     style="fill-rule:evenodd;stroke:#000000;stroke-width:1pt;marker-start:none"
     transform="matrix(0.4,0,0,0.4,4,0)" />
</marker>
<marker
   inkscape:stockid="Arrow1Mend"
   orient="auto"
   refY="0"
   refX="0"
   id="Arrow1Mend-5"
   style="overflow:visible">
  <path
     inkscape:connector-curvature="0"
     id="path3991-5"
     d="M 0,0 5,-5 -12.5,0 5,5 0,0 z"
     style="fill-rule:evenodd;stroke:#000000;stroke-width:1pt;marker-start:none"
     transform="matrix(-0.4,0,0,-0.4,-4,0)" />
</marker>
<marker
   inkscape:stockid="Arrow1Mend"
   orient="auto"
   refY="0"
   refX="0"
   id="Arrow1Mend-4"
   style="overflow:visible">
  <path
     inkscape:connector-curvature="0"
     id="path3991-2"
     d="M 0,0 5,-5 -12.5,0 5,5 0,0 z"
     style="fill-rule:evenodd;stroke:#000000;stroke-width:1pt;marker-start:none"
     transform="matrix(-0.4,0,0,-0.4,-4,0)" />
</marker>












</defs>
  <metadata
     id="metadata7">
    <rdf:RDF>
      <cc:Work
         rdf:about="">
        <dc:format>image/svg+xml</dc:format>
        <dc:type
           rdf:resource="http://purl.org/dc/dcmitype/StillImage" />
        <dc:title />
      </cc:Work>
    </rdf:RDF>
  </metadata>
  <g
     inkscape:groupmode="layer"
     id="layer5"
     inkscape:label="Надписи"
     style="display:none" />
  <g
     inkscape:groupmode="layer"
     id="layer4"
     inkscape:label="Слой3"
     style="display:none" />
  <g
     inkscape:label="Слой2"
     id="layer2"
     inkscape:groupmode="layer"
     transform="translate(0,-804.32946)"
     style="display:none">
    <text
       sodipodi:linespacing="125%"
       id="text3997"
       y="849.18628"
       x="114.07245"
       style="font-size:12px;font-style:normal;font-variant:normal;font-weight:normal;font-stretch:normal;line-height:125%;letter-spacing:0px;word-spacing:0px;fill:#000000;fill-opacity:1;stroke:none;font-family:cmmi12;-inkscape-font-specification:cmmi12"
       xml:space="preserve"><tspan
         y="849.18628"
         x="114.07245"
         id="tspan3999"
         sodipodi:role="line" /></text>
    <text
       sodipodi:linespacing="125%"
       id="text4001"
       y="739.52142"
       x="257.33582"
       style="font-size:12px;font-style:normal;font-variant:normal;font-weight:normal;font-stretch:normal;line-height:125%;letter-spacing:0px;word-spacing:0px;fill:#000000;fill-opacity:1;stroke:none;font-family:cmmi12;-inkscape-font-specification:cmmi12"
       xml:space="preserve"><tspan
         y="739.52142"
         x="257.33582"
         id="tspan4003"
         sodipodi:role="line">  </tspan></text>
    <text
       sodipodi:linespacing="125%"
       id="text4009"
       y="837.7204"
       x="125.36874"
       style="font-size:12px;font-style:normal;font-variant:normal;font-weight:normal;font-stretch:normal;line-height:125%;letter-spacing:0px;word-spacing:0px;fill:#000000;fill-opacity:1;stroke:none;font-family:cmmi12;-inkscape-font-specification:cmmi12"
       xml:space="preserve"><tspan
         y="837.7204"
         x="125.36874"
         id="tspan4011"
         sodipodi:role="line" /></text>
  </g>
  <g
     inkscape:label="Слой1"
     id="layer3"
     inkscape:groupmode="layer"
     style="display:inline">
    <g
       transform="matrix(1.25,0,0,-1.25,0,1052.5)"
       inkscape:label="ink_ext_XXXXXX"
       id="g3521">
      <g
         transform="scale(0.1,0.1)"
         id="g3523" />
    </g>
    <g
       transform="matrix(1.25,0,0,-1.25,0,1052.5)"
       inkscape:label="ink_ext_XXXXXX"
       id="g3535">
      <g
         transform="scale(0.1,0.1)"
         id="g3537" />
    </g>
    <text
       xml:space="preserve"
       style="font-size:14.93999958px;font-style:normal;font-variant:normal;font-weight:normal;font-stretch:normal;line-height:125%;letter-spacing:0px;word-spacing:0px;fill:#000000;fill-opacity:1;stroke:none;font-family:cmmi12;-inkscape-font-specification:cmmi12"
       x="104"
       y="224.03149"
       id="text6249"
       sodipodi:linespacing="125%"><tspan
         sodipodi:role="line"
         id="tspan6251"
         x="104"
         y="224.03149" /></text>
    <path
       inkscape:connector-curvature="0"
       id="path3238"
       d="m 110,18.031494 0,109.999996"
       style="fill:none;stroke:#000000;stroke-width:0.70866142;stroke-linecap:butt;stroke-linejoin:miter;stroke-opacity:1;marker-end:none;marker-start:url(#Arrow2Lstart-4);stroke-miterlimit:4;stroke-dasharray:none" />
    <path
       inkscape:connector-curvature="0"
       id="path3240"
       d="m 50,178.03149 60,-50 141.02291,0"
       style="fill:none;stroke:#000000;stroke-width:0.70866142;stroke-linecap:butt;stroke-linejoin:miter;stroke-opacity:1;marker-start:url(#Arrow2Lstart-4);marker-end:url(#marker7119);stroke-miterlimit:4;stroke-dasharray:none" />
    <g
       transform="matrix(1.1666667,0,0,1.3333333,-35,-12.677165)"
       id="g5142">
      <path
         style="fill:none;stroke:#000000;stroke-width:1px;stroke-linecap:butt;stroke-linejoin:miter;stroke-opacity:1"
         d="m 150,98.031494 c 18.99175,-32.028088 39.12542,-48.578603 60,-60"
         id="path5134"
         inkscape:connector-curvature="0"
         sodipodi:nodetypes="cc" />
      <path
         style="fill:none;stroke:#000000;stroke-width:1;stroke-linecap:butt;stroke-linejoin:miter;stroke-miterlimit:4;stroke-opacity:1;stroke-dasharray:3, 3;stroke-dashoffset:0"
         d="m 150,98.031494 c 11.47396,-31.368055 31.55556,-51.259255 60,-60"
         id="path5136"
         inkscape:connector-curvature="0"
         sodipodi:nodetypes="cc" />
      <path
         style="fill:none;stroke:#000000;stroke-width:1;stroke-linecap:butt;stroke-linejoin:miter;stroke-miterlimit:4;stroke-opacity:1;stroke-dasharray:3, 3;stroke-dashoffset:0"
         d="m 150,98.031494 c 3.73831,-39.51403 28.12344,-54.251872 60,-60"
         id="path5138"
         inkscape:connector-curvature="0"
         sodipodi:nodetypes="cc" />
      <path
         style="fill:none;stroke:#000000;stroke-width:1;stroke-linecap:butt;stroke-linejoin:miter;stroke-miterlimit:4;stroke-opacity:1;stroke-dasharray:3, 3;stroke-dashoffset:0"
         d="m 150,98.031494 4.85639,-3.442172 C 174.07084,69.670468 191.62847,53.727775 210,38.031494"
         id="path5140"
         inkscape:connector-curvature="0"
         sodipodi:nodetypes="ccc" />
    </g>
    <g
       id="g5307"
       transform="translate(130.905,132.57999)">
      <g
         id="g5304">
        <path
           style="font-style:normal;font-variant:normal;font-weight:normal;font-stretch:normal;letter-spacing:normal;word-spacing:normal;text-anchor:start;fill:#000000;stroke:#000000;stroke-width:0;stroke-linecap:butt;stroke-linejoin:miter;stroke-miterlimit:10.43299961;stroke-opacity:1;stroke-dasharray:none;stroke-dashoffset:0"
           inkscape:connector-curvature="0"
           d="m 33.215,-20.8485 0.015,-0.045 0.015,-0.045 0.015,-0.045 0,-0.045 0.015,-0.045 0.015,-0.03 0.015,-0.045 0.015,-0.03 0.015,-0.03 0.015,-0.03 0.015,-0.03 0.03,-0.03 0.015,-0.03 0.03,-0.015 0.015,-0.03 0.03,-0.015 0.045,-0.015 0.03,-0.015 0.045,-0.015 0.03,-0.015 0.045,-0.015 0.03,-0.015 0.03,0 0.03,0 0.015,-0.015 0.03,0 0.03,0 0.03,-0.015 0.045,0 0.03,0 0.03,0 0.03,0 0.045,-0.015 0.045,0 0.03,0 0.045,0 0.045,0 0.045,0 0.045,0 0.045,0 0.045,0 0.06,0 0.045,0 c 0.345,0 0.48,0 0.48,-0.3 0,-0.165 -0.15,-0.165 -0.405,-0.165 H 32.6 c -0.39,0 -0.39,0 -0.57,0.285 l -5.46,8.505 -1.17,-8.445 c -0.045,-0.345 -0.075,-0.345 -0.465,-0.345 H 22.88 c -0.27,0 -0.435,0 -0.435,0.285 0,0.18 0.135,0.18 0.42,0.18 0.195,0 0.465,0.015 0.645,0.03 0.24,0.03 0.33,0.075 0.33,0.24 0,0.045 -0.015,0.105 -0.06,0.27 l -1.89,7.605 c -0.15,0.6 -0.405,1.08 -1.62,1.125 -0.075,0 -0.27,0.015 -0.27,0.285 0,0.12 0.09,0.165 0.21,0.165 0.48,0 1.005,-0.045 1.5,-0.045 0.51,0 1.035,0.045 1.53,0.045 0.075,0 0.27,0 0.27,-0.285 0,-0.165 -0.165,-0.165 -0.27,-0.165 -0.84,-0.015 -1.005,-0.315 -1.005,-0.66 0,-0.105 0.015,-0.18 0.06,-0.345 l 2.025,-8.13 h 0.015 l 1.29,9.255 c 0.03,0.18 0.045,0.33 0.225,0.33 0.165,0 0.255,-0.15 0.33,-0.255 l 6.03,-9.45 h 0.03 l -2.145,8.55 c -0.15,0.585 -0.18,0.705 -1.365,0.705 -0.255,0 -0.42,0 -0.42,0.285 0,0.165 0.18,0.165 0.225,0.165 0.42,0 1.44,-0.045 1.86,-0.045 0.615,0 1.26,0.045 1.86,0.045 0.105,0 0.285,0 0.285,-0.285 0,-0.165 -0.135,-0.165 -0.42,-0.165 -0.54,0 -0.96,0 -0.96,-0.27 0,-0.06 0,-0.09 0.075,-0.36 z"
           id="path5205" />
      </g>
      <path
         id="path5207"
         d="m 39.26,-12.8835 0,-0.21 0,-0.21 -0.015,-0.195 -0.015,-0.18 -0.015,-0.195 -0.015,-0.18 -0.03,-0.165 -0.03,-0.165 -0.045,-0.165 -0.045,-0.165 -0.045,-0.15 -0.06,-0.15 -0.06,-0.15 -0.075,-0.135 -0.075,-0.15 -0.045,-0.06 -0.045,-0.075 c -0.33,-0.48 -0.975,-0.9 -1.815,-0.9 v 0.3 c 0.57,0 1.11,0.345 1.305,0.945 0.165,0.57 0.18,1.32 0.18,2.22 0,0.78 0,1.545 -0.135,2.205 -0.21,0.945 -0.93,1.17 -1.35,1.17 h 0 c -0.465,0 -1.11,-0.27 -1.32,-1.125 -0.15,-0.615 -0.15,-1.47 -0.15,-2.25 0,-0.765 0,-1.56 0.165,-2.13 0.21,-0.825 0.885,-1.035 1.305,-1.035 v -0.3 c -2.415,0 -2.415,2.85 -2.415,3.6 0,0.75 0,3.54 2.415,3.54 2.43,0 2.43,-2.79 2.43,-3.54 z"
         inkscape:connector-curvature="0"
         style="font-style:normal;font-variant:normal;font-weight:normal;font-stretch:normal;letter-spacing:normal;word-spacing:normal;text-anchor:start;fill:#000000;stroke:#000000;stroke-width:0;stroke-linecap:butt;stroke-linejoin:miter;stroke-miterlimit:10.43299961;stroke-opacity:1;stroke-dasharray:none;stroke-dashoffset:0" />
    </g>
    <g
       id="g5312"
       transform="translate(172.5,40.034994)">
      <path
         id="path5209"
         d="m 55.64,-2.9085 0.015,-0.045 0,-0.06 0.015,-0.045 0.015,-0.03 0.015,-0.045 0.015,-0.045 0,-0.03 0.015,-0.03 0.015,-0.045 0.015,-0.03 0.03,-0.03 0.015,-0.015 0.015,-0.03 0.03,-0.03 0.03,-0.015 0.03,-0.015 0.03,-0.03 0.03,-0.015 0.045,-0.015 0.045,-0.015 0.045,-0.015 0.015,0 0.03,-0.015 0.03,0 0.03,0 0.03,-0.015 0.03,0 0.03,0 0.03,0 0.03,-0.015 0.03,0 0.045,0 0.03,0 0.045,0 0.045,0 0.03,-0.015 0.045,0 0.045,0 0.045,0 0.045,0 0.06,0 0.045,0 0.045,0 c 0.345,0 0.48,0 0.48,-0.3 0,-0.165 -0.15,-0.165 -0.405,-0.165 h -1.965 c -0.39,0 -0.405,0 -0.585,0.285 l -5.46,8.52 -1.17,-8.46 c -0.045,-0.345 -0.075,-0.345 -0.465,-0.345 h -2.04 c -0.285,0 -0.45,0 -0.45,0.285 0,0.18 0.135,0.18 0.435,0.18 0.195,0 0.465,0.015 0.645,0.03 0.24,0.03 0.33,0.075 0.33,0.24 0,0.06 -0.015,0.105 -0.06,0.285 L 44.3,4.5615 c -0.15,0.585 -0.405,1.065 -1.62,1.11 -0.075,0 -0.27,0.015 -0.27,0.285 0,0.135 0.09,0.18 0.21,0.18 0.48,0 1.005,-0.045 1.5,-0.045 0.51,0 1.05,0.045 1.545,0.045 0.075,0 0.27,0 0.27,-0.3 0,-0.165 -0.165,-0.165 -0.27,-0.165 -0.855,-0.015 -1.02,-0.315 -1.02,-0.66 0,-0.105 0.015,-0.18 0.06,-0.345 l 2.04,-8.13 h 0.015 l 1.275,9.255 c 0.03,0.18 0.045,0.345 0.225,0.345 0.165,0 0.255,-0.165 0.33,-0.27 l 6.045,-9.45 h 0.015 l -2.145,8.55 c -0.15,0.585 -0.18,0.705 -1.35,0.705 -0.255,0 -0.42,0 -0.42,0.285 0,0.18 0.18,0.18 0.225,0.18 0.42,0 1.425,-0.045 1.845,-0.045 0.615,0 1.26,0.045 1.875,0.045 0.09,0 0.285,0 0.285,-0.3 0,-0.165 -0.135,-0.165 -0.42,-0.165 -0.555,0 -0.975,0 -0.975,-0.27 0,-0.06 0,-0.09 0.075,-0.36 z"
         inkscape:connector-curvature="0"
         style="font-style:normal;font-variant:normal;font-weight:normal;font-stretch:normal;letter-spacing:normal;word-spacing:normal;text-anchor:start;fill:#000000;stroke:#000000;stroke-width:0;stroke-linecap:butt;stroke-linejoin:miter;stroke-miterlimit:10.43299961;stroke-opacity:1;stroke-dasharray:none;stroke-dashoffset:0" />
      <path
         id="path5211"
         d="m 59.78,1.7415 0,-0.015 0,-0.015 0,0 0,-0.015 0,-0.015 0,-0.015 0,0 0,-0.015 0,-0.015 0,0 0,-0.015 0,-0.015 0,0 0,-0.015 0,0 0,-0.015 0,0 0,-0.015 -0.015,-0.015 0,0 0,-0.015 0,-0.015 -0.015,-0.015 0,0 -0.015,-0.015 0,0 -0.015,0 -0.015,-0.015 0,0 -0.015,0 -0.015,-0.015 -0.015,0 0,0 -0.015,0 -0.015,0 0,0 -0.015,0 0,0 -0.015,0 -0.015,0 0,0 -0.015,0 -0.015,0 0,0 -0.015,0 -0.015,0 -0.015,0 -0.015,0 -0.015,0 -0.015,0 c -0.66,0.66 -1.605,0.66 -2.04,0.66 v 0.375 c 0.255,0 0.945,0 1.515,-0.285 v 5.31 c 0,0.345 0,0.48 -1.05,0.48 H 57.5 v 0.375 c 0.18,0 1.47,-0.03 1.86,-0.03 0.315,0 1.635,0.03 1.875,0.03 V 7.9965 H 60.83 c -1.05,0 -1.05,-0.135 -1.05,-0.48 z"
         inkscape:connector-curvature="0"
         style="font-style:normal;font-variant:normal;font-weight:normal;font-stretch:normal;letter-spacing:normal;word-spacing:normal;text-anchor:start;fill:#000000;stroke:#000000;stroke-width:0;stroke-linecap:butt;stroke-linejoin:miter;stroke-miterlimit:10.43299961;stroke-opacity:1;stroke-dasharray:none;stroke-dashoffset:0" />
    </g>
    <g
       id="g5320"
       transform="translate(197.285,98.684994)">
      <path
         id="path5217"
         d="m 48.545,35.5665 0,0 0,-0.015 0,0 0,0 0,-0.015 0,0 0,-0.015 0,0 -0.015,-0.015 0,0 0,0 0,-0.015 0,0 -0.015,-0.015 0,0 0,0 0,-0.015 -0.015,0 0,0 -0.015,-0.015 0,0 0,0 -0.015,-0.015 0,0 -0.015,0 0,0 -0.015,0 0,-0.015 -0.015,0 -0.015,0 0,0 -0.015,0 c -0.165,0 -0.765,0.6 -1.02,1.035 -0.33,-0.81 -0.9,-1.05 -1.38,-1.05 v 0.33 c 0.96,0 1.17,1.215 1.17,1.32 0,0.075 -0.81,3.345 -0.855,3.42 -0.225,0.405 -1.065,1.365 -1.905,1.365 h 0 c -0.9,0 -0.96,-1.155 -0.96,-1.395 0,-0.72 0.435,-2.355 0.69,-2.97 0.465,-1.11 1.245,-1.74 1.86,-1.74 v -0.33 c -1.77,0 -3.615,2.205 -3.615,4.38 0,1.455 0.885,2.385 1.98,2.385 0.645,0 1.23,-0.36 1.77,-0.9 -0.135,0.525 -0.63,2.535 -0.675,2.67 -0.12,0.42 -0.24,0.48 -1.08,0.495 -0.195,0 -0.345,0 -0.345,0.3 0,0.015 0,0.165 0.195,0.165 0.48,0 1.005,-0.045 1.5,-0.045 0.51,0 1.05,0.045 1.53,0.045 0.075,0 0.27,0 0.27,-0.3 0,-0.165 -0.15,-0.165 -0.375,-0.165 -0.72,0 -0.72,-0.105 -0.72,-0.24 0,-0.105 0.03,-0.195 0.06,-0.33 z"
         inkscape:connector-curvature="0"
         style="font-style:normal;font-variant:normal;font-weight:normal;font-stretch:normal;letter-spacing:normal;word-spacing:normal;text-anchor:start;fill:#000000;stroke:#000000;stroke-width:0;stroke-linecap:butt;stroke-linejoin:miter;stroke-miterlimit:10.43299961;stroke-opacity:1;stroke-dasharray:none;stroke-dashoffset:0" />
      <path
         id="path5219"
         d="m 53.735,42.3465 h -0.36 c -0.03,0.225 -0.135,0.84 -0.27,0.945 -0.075,0.06 -0.885,0.06 -1.035,0.06 h -1.92 c 1.095,-0.96 1.47,-1.26 2.085,-1.74 0.78,-0.615 1.5,-1.26 1.5,-2.265 0,-1.26 -1.11,-2.025 -2.445,-2.025 -1.29,0 -2.175,0.9 -2.175,1.86 0,0.54 0.45,0.585 0.555,0.585 0.255,0 0.555,-0.18 0.555,-0.555 0,-0.18 -0.075,-0.54 -0.615,-0.54 0.315,-0.75 1.035,-0.975 1.53,-0.975 1.035,0 1.575,0.81 1.575,1.65 0,0.915 -0.645,1.635 -0.975,2.01 l -2.52,2.475 c -0.105,0.105 -0.105,0.12 -0.105,0.405 h 4.305 z"
         inkscape:connector-curvature="0"
         style="font-style:normal;font-variant:normal;font-weight:normal;font-stretch:normal;letter-spacing:normal;word-spacing:normal;text-anchor:start;fill:#000000;stroke:#000000;stroke-width:0;stroke-linecap:butt;stroke-linejoin:miter;stroke-miterlimit:10.43299961;stroke-opacity:1;stroke-dasharray:none;stroke-dashoffset:0" />
    </g>
    <g
       id="g5324"
       transform="translate(18.89,122.03499)">
      <path
         id="path5221"
         d="m 48.545,53.5065 0,-0.015 0,0 0,-0.015 0,0 0,0 0,-0.015 0,0 0,-0.015 -0.015,0 0,0 0,-0.015 0,0 0,-0.015 -0.015,0 0,0 0,-0.015 0,0 -0.015,-0.015 0,0 -0.015,0 0,-0.015 0,0 -0.015,0 0,0 -0.015,-0.015 0,0 -0.015,0 0,0 -0.015,0 -0.015,0 0,0 0,0 -0.015,0 c -0.165,0 -0.765,0.6 -1.02,1.02 -0.33,-0.795 -0.9,-1.035 -1.38,-1.035 v 0.33 c 0.96,0 1.17,1.2 1.17,1.305 0,0.09 -0.81,3.36 -0.855,3.42 -0.225,0.42 -1.065,1.38 -1.905,1.38 h 0 c -0.9,0 -0.96,-1.155 -0.96,-1.41 0,-0.72 0.435,-2.34 0.69,-2.97 0.465,-1.11 1.245,-1.725 1.86,-1.725 v -0.33 c -1.77,0 -3.615,2.205 -3.615,4.365 0,1.47 0.885,2.385 1.98,2.385 0.645,0 1.23,-0.345 1.77,-0.885 -0.135,0.525 -0.63,2.535 -0.675,2.67 -0.12,0.42 -0.24,0.48 -1.08,0.495 -0.195,0 -0.345,0 -0.345,0.3 0,0.015 0,0.165 0.195,0.165 0.48,0 1.005,-0.045 1.5,-0.045 0.51,0 1.05,0.045 1.53,0.045 0.075,0 0.27,0 0.27,-0.3 0,-0.165 -0.15,-0.165 -0.375,-0.165 -0.72,0 -0.72,-0.105 -0.72,-0.24 0,-0.105 0.03,-0.195 0.06,-0.33 z"
         inkscape:connector-curvature="0"
         style="font-style:normal;font-variant:normal;font-weight:normal;font-stretch:normal;letter-spacing:normal;word-spacing:normal;text-anchor:start;fill:#000000;stroke:#000000;stroke-width:0;stroke-linecap:butt;stroke-linejoin:miter;stroke-miterlimit:10.43299961;stroke-opacity:1;stroke-dasharray:none;stroke-dashoffset:0" />
      <path
         id="path5223"
         d="m 51.965,55.5465 0,-0.015 0,-0.015 0,-0.015 0,-0.015 0,0 0,-0.015 0,-0.015 0,0 -0.015,-0.015 0,-0.015 0,0 0,-0.015 0,-0.015 0,0 0,-0.015 0,0 0,-0.015 0,0 0,-0.015 -0.015,-0.015 0,-0.015 0,0 -0.015,-0.015 0,0 -0.015,-0.015 0,0 -0.015,-0.015 0,0 -0.015,0 -0.015,-0.015 -0.015,0 -0.015,0 0,0 -0.015,0 0,0 -0.015,0 -0.015,0 0,-0.015 -0.015,0 0,0 -0.015,0 -0.015,0 -0.015,0 0,0 -0.015,0 -0.015,0 -0.015,0 -0.015,0 0,0 -0.015,0 c -0.675,0.66 -1.62,0.675 -2.055,0.675 v 0.375 c 0.255,0 0.945,0 1.515,-0.3 v 5.325 c 0,0.345 0,0.48 -1.035,0.48 H 49.67 v 0.375 c 0.195,-0.015 1.47,-0.045 1.86,-0.045 0.33,0 1.635,0.03 1.875,0.045 v -0.375 H 53 c -1.035,0 -1.035,-0.135 -1.035,-0.48 z"
         inkscape:connector-curvature="0"
         style="font-style:normal;font-variant:normal;font-weight:normal;font-stretch:normal;letter-spacing:normal;word-spacing:normal;text-anchor:start;fill:#000000;stroke:#000000;stroke-width:0;stroke-linecap:butt;stroke-linejoin:miter;stroke-miterlimit:10.43299961;stroke-opacity:1;stroke-dasharray:none;stroke-dashoffset:0" />
    </g>
    <path
       style="font-style:normal;font-variant:normal;font-weight:normal;font-stretch:normal;letter-spacing:normal;word-spacing:normal;text-anchor:start;fill:#000000;stroke:#000000;stroke-width:0;stroke-linecap:butt;stroke-linejoin:miter;stroke-miterlimit:10.43299961;stroke-opacity:1;stroke-dasharray:none;stroke-dashoffset:0"
       inkscape:connector-curvature="0"
       d="m 119.88,18.496494 h 1.41 c 0.3,0 0.45,0 0.45,-0.3 0,-0.165 -0.15,-0.165 -0.42,-0.165 H 120 c 0.54,-2.115 0.615,-2.415 0.615,-2.505 0,-0.255 -0.18,-0.405 -0.435,-0.405 -0.045,0 -0.465,0.015 -0.6,0.54 l -0.585,2.37 h -1.41 c -0.285,0 -0.45,0 -0.45,0.285 0,0.18 0.12,0.18 0.42,0.18 h 1.32 c -1.08,4.245 -1.14,4.5 -1.14,4.755 0,0.81 0.57,1.38 1.38,1.38 1.53,0 2.385,-2.175 2.385,-2.295 0,-0.15 -0.12,-0.15 -0.18,-0.15 -0.135,0 -0.15,0.045 -0.225,0.21 -0.645,1.545 -1.44,1.905 -1.95,1.905 -0.315,0 -0.465,-0.195 -0.465,-0.69 0,-0.36 0.03,-0.45 0.09,-0.705 z"
       id="path5225" />
  </g>
</svg>
