<?xml version="1.0" encoding="UTF-8" standalone="no"?>
<!-- Created with Inkscape (http://www.inkscape.org/) -->

<svg
   xmlns:dc="http://purl.org/dc/elements/1.1/"
   xmlns:cc="http://creativecommons.org/ns#"
   xmlns:rdf="http://www.w3.org/1999/02/22-rdf-syntax-ns#"
   xmlns:svg="http://www.w3.org/2000/svg"
   xmlns="http://www.w3.org/2000/svg"
   xmlns:sodipodi="http://sodipodi.sourceforge.net/DTD/sodipodi-0.dtd"
   xmlns:inkscape="http://www.inkscape.org/namespaces/inkscape"
   width="158.26761"
   height="127.70963"
   id="svg2"
   version="1.1"
   inkscape:version="0.48.0 r9654"
   sodipodi:docname="frame.svg"
   style="enable-background:new">
  <sodipodi:namedview
     id="base"
     pagecolor="#ffffff"
     bordercolor="#666666"
     borderopacity="1.0"
     inkscape:pageopacity="0.0"
     inkscape:pageshadow="2"
     inkscape:zoom="1.4142136"
     inkscape:cx="67.107921"
     inkscape:cy="72.88979"
     inkscape:document-units="cm"
     inkscape:current-layer="layer3"
     showgrid="true"
     inkscape:window-width="800"
     inkscape:window-height="579"
     inkscape:window-x="-4"
     inkscape:window-y="-4"
     inkscape:window-maximized="1"
     units="cm"
     width="9.2cm"
     showguides="true"
     inkscape:guide-bbox="true"
     inkscape:showpageshadow="false"
     objecttolerance="4"
     gridtolerance="4"
     inkscape:snap-global="false"
     fit-margin-top="0"
     fit-margin-left="0"
     fit-margin-right="0"
     fit-margin-bottom="0">
    <inkscape:grid
       snapvisiblegridlinesonly="true"
       enabled="true"
       visible="true"
       empspacing="5"
       id="grid3254"
       type="xygrid" />
  </sodipodi:namedview>
  <defs
     id="defs4"><inkscape:perspective
   sodipodi:type="inkscape:persp3d"
   inkscape:vp_x="0 : 124.01575 : 1"
   inkscape:vp_y="0 : 1000 : 0"
   inkscape:vp_z="325.98425 : 124.01575 : 1"
   inkscape:persp3d-origin="162.99213 : 82.677165 : 1"
   id="perspective4264" />
<marker
   style="overflow:visible"
   id="Arrow1Send"
   refX="0"
   refY="0"
   orient="auto"
   inkscape:stockid="Arrow1Send">
  <path
     transform="matrix(-0.2,0,0,-0.2,-1.2,0)"
     style="fill-rule:evenodd;stroke:#000000;stroke-width:1pt;marker-start:none"
     d="M 0,0 5,-5 -12.5,0 5,5 0,0 z"
     id="path3997"
     inkscape:connector-curvature="0" />
</marker>
<marker
   style="overflow:visible"
   id="Arrow1Sstart"
   refX="0"
   refY="0"
   orient="auto"
   inkscape:stockid="Arrow1Sstart">
  <path
     transform="matrix(0.2,0,0,0.2,1.2,0)"
     style="fill-rule:evenodd;stroke:#000000;stroke-width:1pt;marker-start:none"
     d="M 0,0 5,-5 -12.5,0 5,5 0,0 z"
     id="path3994"
     inkscape:connector-curvature="0" />
</marker>
<marker
   style="overflow:visible"
   id="Arrow1Mend"
   refX="0"
   refY="0"
   orient="auto"
   inkscape:stockid="Arrow1Mend">
  <path
     transform="matrix(-0.4,0,0,-0.4,-4,0)"
     style="fill-rule:evenodd;stroke:#000000;stroke-width:1pt;marker-start:none"
     d="M 0,0 5,-5 -12.5,0 5,5 0,0 z"
     id="path3991"
     inkscape:connector-curvature="0" />
</marker>
<marker
   style="overflow:visible"
   id="Arrow1Mstart"
   refX="0"
   refY="0"
   orient="auto"
   inkscape:stockid="Arrow1Mstart">
  <path
     transform="matrix(0.4,0,0,0.4,4,0)"
     style="fill-rule:evenodd;stroke:#000000;stroke-width:1pt;marker-start:none"
     d="M 0,0 5,-5 -12.5,0 5,5 0,0 z"
     id="path3988"
     inkscape:connector-curvature="0" />
</marker>
<marker
   style="overflow:visible"
   id="Arrow2Lend"
   refX="0"
   refY="0"
   orient="auto"
   inkscape:stockid="Arrow2Lend">
  <path
     transform="matrix(-1.1,0,0,-1.1,-1.1,0)"
     d="M 8.7185878,4.0337352 -2.2072895,0.01601326 8.7185884,-4.0017078 c -1.7454984,2.3720609 -1.7354408,5.6174519 -6e-7,8.035443 z"
     style="font-size:12px;fill-rule:evenodd;stroke-width:0.625;stroke-linejoin:round"
     id="path4003"
     inkscape:connector-curvature="0" />
</marker>
<marker
   style="overflow:visible"
   id="Arrow2Lstart"
   refX="0"
   refY="0"
   orient="auto"
   inkscape:stockid="Arrow2Lstart">
  <path
     transform="matrix(1.1,0,0,1.1,1.1,0)"
     d="M 8.7185878,4.0337352 -2.2072895,0.01601326 8.7185884,-4.0017078 c -1.7454984,2.3720609 -1.7354408,5.6174519 -6e-7,8.035443 z"
     style="font-size:12px;fill-rule:evenodd;stroke-width:0.625;stroke-linejoin:round"
     id="path4000"
     inkscape:connector-curvature="0" />
</marker>
<marker
   inkscape:stockid="Arrow1Lend"
   orient="auto"
   refY="0"
   refX="0"
   id="Arrow1Lend"
   style="overflow:visible">
  <path
     inkscape:connector-curvature="0"
     id="path4440"
     d="M 0,0 5,-5 -12.5,0 5,5 0,0 z"
     style="fill-rule:evenodd;stroke:#000000;stroke-width:1pt;marker-start:none"
     transform="matrix(-0.8,0,0,-0.8,-10,0)" />
</marker>
<marker
   inkscape:stockid="Arrow1Lstart"
   orient="auto"
   refY="0"
   refX="0"
   id="Arrow1Lstart"
   style="overflow:visible">
  <path
     inkscape:connector-curvature="0"
     id="path4437"
     d="M 0,0 5,-5 -12.5,0 5,5 0,0 z"
     style="fill-rule:evenodd;stroke:#000000;stroke-width:1pt;marker-start:none"
     transform="matrix(0.8,0,0,0.8,10,0)" />
</marker>
<marker
   style="overflow:visible"
   id="Arrow2Lstart-4"
   refX="0"
   refY="0"
   orient="auto"
   inkscape:stockid="Arrow2Lstart">
  <path
     transform="matrix(1.1,0,0,1.1,1.1,0)"
     d="M 8.7185878,4.0337352 -2.2072895,0.01601326 8.7185884,-4.0017078 c -1.7454984,2.3720609 -1.7354408,5.6174519 -6e-7,8.035443 z"
     style="font-size:12px;fill-rule:evenodd;stroke-width:0.625;stroke-linejoin:round"
     id="path4000-4"
     inkscape:connector-curvature="0" />
</marker>
<marker
   style="overflow:visible"
   id="Arrow2Lend-3"
   refX="0"
   refY="0"
   orient="auto"
   inkscape:stockid="Arrow2Lend">
  <path
     transform="matrix(-1.1,0,0,-1.1,-1.1,0)"
     d="M 8.7185878,4.0337352 -2.2072895,0.01601326 8.7185884,-4.0017078 c -1.7454984,2.3720609 -1.7354408,5.6174519 -6e-7,8.035443 z"
     style="font-size:12px;fill-rule:evenodd;stroke-width:0.625;stroke-linejoin:round"
     id="path4003-0"
     inkscape:connector-curvature="0" />
</marker>
<marker
   style="overflow:visible"
   id="marker7119"
   refX="0"
   refY="0"
   orient="auto"
   inkscape:stockid="Arrow2Lend">
  <path
     transform="matrix(-1.1,0,0,-1.1,-1.1,0)"
     d="M 8.7185878,4.0337352 -2.2072895,0.01601326 8.7185884,-4.0017078 c -1.7454984,2.3720609 -1.7354408,5.6174519 -6e-7,8.035443 z"
     style="font-size:12px;fill-rule:evenodd;stroke-width:0.625;stroke-linejoin:round"
     id="path7121"
     inkscape:connector-curvature="0" />
</marker>
<marker
   style="overflow:visible"
   id="Arrow1Mstart-3"
   refX="0"
   refY="0"
   orient="auto"
   inkscape:stockid="Arrow1Mstart">
  <path
     transform="matrix(0.4,0,0,0.4,4,0)"
     style="fill-rule:evenodd;stroke:#000000;stroke-width:1pt;marker-start:none"
     d="M 0,0 5,-5 -12.5,0 5,5 0,0 z"
     id="path3988-7"
     inkscape:connector-curvature="0" />
</marker>
<marker
   style="overflow:visible"
   id="Arrow1Mend-5"
   refX="0"
   refY="0"
   orient="auto"
   inkscape:stockid="Arrow1Mend">
  <path
     transform="matrix(-0.4,0,0,-0.4,-4,0)"
     style="fill-rule:evenodd;stroke:#000000;stroke-width:1pt;marker-start:none"
     d="M 0,0 5,-5 -12.5,0 5,5 0,0 z"
     id="path3991-5"
     inkscape:connector-curvature="0" />
</marker>
<marker
   style="overflow:visible"
   id="Arrow1Mend-4"
   refX="0"
   refY="0"
   orient="auto"
   inkscape:stockid="Arrow1Mend">
  <path
     transform="matrix(-0.4,0,0,-0.4,-4,0)"
     style="fill-rule:evenodd;stroke:#000000;stroke-width:1pt;marker-start:none"
     d="M 0,0 5,-5 -12.5,0 5,5 0,0 z"
     id="path3991-2"
     inkscape:connector-curvature="0" />
</marker>
<marker
   style="overflow:visible"
   id="Arrow1Mend-4-4"
   refX="0"
   refY="0"
   orient="auto"
   inkscape:stockid="Arrow1Mend">
  <path
     transform="matrix(-0.4,0,0,-0.4,-4,0)"
     style="fill-rule:evenodd;stroke:#000000;stroke-width:1pt;marker-start:none"
     d="M 0,0 5,-5 -12.5,0 5,5 0,0 z"
     id="path3991-2-8"
     inkscape:connector-curvature="0" />
</marker>


















</defs>
  <metadata
     id="metadata7">
    <rdf:RDF>
      <cc:Work
         rdf:about="">
        <dc:format>image/svg+xml</dc:format>
        <dc:type
           rdf:resource="http://purl.org/dc/dcmitype/StillImage" />
        <dc:title></dc:title>
      </cc:Work>
    </rdf:RDF>
  </metadata>
  <g
     style="display:none"
     inkscape:label="Надписи"
     id="layer5"
     inkscape:groupmode="layer"
     transform="translate(-99.052975,-40.817917)" />
  <g
     style="display:none"
     inkscape:label="Слой3"
     id="layer4"
     inkscape:groupmode="layer"
     transform="translate(-99.052975,-40.817917)" />
  <g
     style="display:none"
     transform="translate(-99.052975,-845.14738)"
     inkscape:groupmode="layer"
     id="layer2"
     inkscape:label="Слой2">
    <text
       xml:space="preserve"
       style="font-size:12px;font-style:normal;font-variant:normal;font-weight:normal;font-stretch:normal;line-height:125%;letter-spacing:0px;word-spacing:0px;fill:#000000;fill-opacity:1;stroke:none;font-family:cmmi12;-inkscape-font-specification:cmmi12"
       x="114.07245"
       y="849.18628"
       id="text3997"
       sodipodi:linespacing="125%"><tspan
         sodipodi:role="line"
         id="tspan3999"
         x="114.07245"
         y="849.18628" /></text>
    <text
       xml:space="preserve"
       style="font-size:12px;font-style:normal;font-variant:normal;font-weight:normal;font-stretch:normal;line-height:125%;letter-spacing:0px;word-spacing:0px;fill:#000000;fill-opacity:1;stroke:none;font-family:cmmi12;-inkscape-font-specification:cmmi12"
       x="257.33582"
       y="739.52142"
       id="text4001"
       sodipodi:linespacing="125%"><tspan
         sodipodi:role="line"
         id="tspan4003"
         x="257.33582"
         y="739.52142">  </tspan></text>
    <text
       xml:space="preserve"
       style="font-size:12px;font-style:normal;font-variant:normal;font-weight:normal;font-stretch:normal;line-height:125%;letter-spacing:0px;word-spacing:0px;fill:#000000;fill-opacity:1;stroke:none;font-family:cmmi12;-inkscape-font-specification:cmmi12"
       x="125.36874"
       y="837.7204"
       id="text4009"
       sodipodi:linespacing="125%"><tspan
         sodipodi:role="line"
         id="tspan4011"
         x="125.36874"
         y="837.7204" /></text>
  </g>
  <g
     style="display:inline"
     inkscape:groupmode="layer"
     id="layer3"
     inkscape:label="Слой1"
     transform="translate(-99.052975,-40.817917)">
    <g
       id="g3521"
       inkscape:label="ink_ext_XXXXXX"
       transform="matrix(1.25,0,0,-1.25,0,1052.5)">
      <g
         id="g3523"
         transform="scale(0.1,0.1)" />
    </g>
    <g
       id="g3535"
       inkscape:label="ink_ext_XXXXXX"
       transform="matrix(1.25,0,0,-1.25,0,1052.5)">
      <g
         id="g3537"
         transform="scale(0.1,0.1)" />
    </g>
    <text
       sodipodi:linespacing="125%"
       id="text6249"
       y="224.03149"
       x="104"
       style="font-size:14.93999958px;font-style:normal;font-variant:normal;font-weight:normal;font-stretch:normal;line-height:125%;letter-spacing:0px;word-spacing:0px;fill:#000000;fill-opacity:1;stroke:none;font-family:cmmi12;-inkscape-font-specification:cmmi12"
       xml:space="preserve"><tspan
         y="224.03149"
         x="104"
         id="tspan6251"
         sodipodi:role="line" /></text>
    <path
       sodipodi:nodetypes="ccc"
       inkscape:connector-curvature="0"
       id="path3030"
       d="M 180.48505,60.993632 110.93143,160.72515 231.28296,134.42233"
       style="fill:none;stroke:#000000;stroke-width:0.70866144;stroke-linecap:butt;stroke-linejoin:miter;stroke-miterlimit:4;stroke-opacity:1;stroke-dasharray:none;marker-start:url(#Arrow1Mstart-3);marker-end:url(#Arrow1Mend-4-4)" />
    <path
       sodipodi:nodetypes="cc"
       inkscape:connector-curvature="0"
       id="path3904"
       d="m 149.53515,41.31398 c 51.29346,17.122427 90.46486,58.70729 90.46486,126.71751"
       style="fill:none;stroke:#000000;stroke-width:0.99212599;stroke-linecap:butt;stroke-linejoin:miter;stroke-miterlimit:4;stroke-opacity:1;stroke-dasharray:none" />
    <path
       sodipodi:nodetypes="cc"
       inkscape:connector-curvature="0"
       id="path3906"
       d="m 128.10604,135.69589 c 5.87711,3.4116 12.5707,7.18156 11.89396,18.6068"
       style="fill:none;stroke:#000000;stroke-width:0.99212599;stroke-linecap:butt;stroke-linejoin:miter;stroke-miterlimit:4;stroke-opacity:1;stroke-dasharray:none" />
    <path
       style="fill:#ffffff;stroke:#000000;stroke-width:1.02587092;stroke-miterlimit:4;stroke-opacity:1;stroke-dasharray:none;display:inline;enable-background:new"
       d="m 115,160.17869 c 0,2.01761 -1.60517,3.65318 -3.58524,3.65318 -1.98007,0 -3.58524,-1.63557 -3.58524,-3.65318 0,-2.01759 1.60517,-3.65317 3.58524,-3.65317 1.98007,0 3.58524,1.63558 3.58524,3.65317 z"
       id="path3031-52-7-1"
       inkscape:connector-curvature="0" />
    <path
       style="font-style:normal;font-variant:normal;font-weight:normal;font-stretch:normal;letter-spacing:normal;word-spacing:normal;text-anchor:start;fill:#000000;fill-opacity:1;fill-rule:evenodd;stroke:#000000;stroke-width:0;stroke-linecap:butt;stroke-linejoin:miter;stroke-miterlimit:10.43299961;stroke-opacity:1;stroke-dasharray:none;stroke-dashoffset:0"
       inkscape:connector-curvature="0"
       d="m 107.32098,149.03829 0,-0.18 -0.012,-0.18 -0.024,-0.168 -0.024,-0.168 -0.036,-0.156 -0.036,-0.168 -0.048,-0.144 -0.048,-0.156 -0.06,-0.144 -0.06,-0.144 -0.072,-0.132 -0.072,-0.132 -0.084,-0.12 -0.096,-0.12 -0.084,-0.108 -0.108,-0.108 -0.096,-0.108 -0.108,-0.096 -0.12,-0.096 -0.12,-0.084 -0.12,-0.072 -0.132,-0.072 -0.132,-0.072 -0.132,-0.06 -0.144,-0.048 -0.144,-0.048 -0.144,-0.036 -0.156,-0.036 -0.156,-0.024 -0.156,-0.024 -0.168,-0.012 -0.156,0 -0.072,0.3 c 0.972,0 2.052,0.66 2.052,2.448 0,0.852 -0.324,2.724 -1.512,4.188 -0.564,0.732 -1.548,1.44 -2.556,1.44 h 0 c -1.188,0 -2.016,-0.972 -2.016,-2.544 0,-0.528 0.168,-2.28 1.092,-3.672 0.816,-1.248 1.992,-1.86 2.94,-1.86 l 0.072,-0.3 c -2.592,0 -5.220005,2.712 -5.220005,5.496 0,1.98 1.344005,3.18 3.060005,3.18 2.544,0 5.208,-2.616 5.208,-5.46 z"
       id="path4433" />
    <g
       id="g4562"
       transform="translate(95.623534,77.814601)">
      <path
         id="path4435"
         d="m 51.336,57.456 0,-0.012 -0.012,-0.012 -0.012,-0.012 0,-0.012 -0.012,-0.012 0,-0.012 -0.012,-0.012 0,-0.012 -0.012,-0.012 -0.012,-0.012 0,0 -0.012,-0.012 0,-0.012 -0.012,0 0,-0.012 -0.012,0 -0.012,-0.012 0,0 -0.012,-0.012 -0.012,0 -0.012,-0.012 -0.012,0 -0.012,0 -0.012,-0.012 -0.012,0 -0.012,0 -0.012,0 -0.012,0 -0.012,0 -0.024,-0.012 -0.012,0 -0.024,0 c -0.204,0 -0.228,0.06 -0.312,0.216 l -0.072,0.984 3.216,6.444 h -6.444 l 3.228,-6.444 0.072,-0.984 -4.044,8.1 c -0.048,0.108 -0.048,0.132 -0.048,0.144 0,0.096 0.06,0.096 0.252,0.096 h 8.304 c 0.192,0 0.264,0 0.264,-0.096 0,-0.012 0,-0.036 -0.06,-0.144 z"
         inkscape:connector-curvature="0"
         style="font-style:normal;font-variant:normal;font-weight:normal;font-stretch:normal;letter-spacing:normal;word-spacing:normal;text-anchor:start;fill:#000000;fill-opacity:1;fill-rule:evenodd;stroke:#000000;stroke-width:0;stroke-linecap:butt;stroke-linejoin:miter;stroke-miterlimit:10.43299961;stroke-opacity:1;stroke-dasharray:none;stroke-dashoffset:0" />
      <path
         id="path4438"
         d="m 58.044,67.824 0,0.012 0,0 0,0.012 0,0 -0.012,0.024 0,0.012 0,0.012 -0.012,0 0,0.012 0,0.012 0,0.012 -0.012,0.012 0,0 0,0.012 0,0 0,0.012 -0.012,0.012 0,0 0,0.012 0,0 0,0.012 0,0 0,0 0,0.012 0,0.012 -0.012,0.012 0,0 0,0.012 0,0.012 0,0 c 0,0.264 0.228,0.336 0.348,0.336 0.06,0 0.324,-0.036 0.444,-0.312 0.036,-0.096 0.096,-0.492 0.42,-2.184 0.108,0.012 0.192,0.024 0.396,0.024 1.98,0 3.828,-1.872 3.828,-3.768 l -0.336,0.264 c 0,1.356 -1.548,2.808 -3.384,2.808 h 0 c -0.096,0 -0.12,0 -0.216,-0.012 -0.144,0 -0.156,-0.012 -0.156,-0.048 0,-0.024 0.204,-1.104 0.24,-1.284 0.372,-1.536 1.308,-2.676 2.364,-2.676 0.828,0 1.152,0.648 1.152,1.212 L 63.42,62.16 c 0,-0.924 -0.468,-1.644 -1.368,-1.644 -1.728,0 -2.448,2.316 -3.168,4.644 -1.296,-0.24 -1.956,-0.9 -1.956,-1.764 0,-0.336 0.264,-1.644 0.984,-2.472 0.096,-0.108 0.096,-0.132 0.096,-0.156 0,-0.048 -0.024,-0.12 -0.144,-0.12 -0.336,0 -1.248,1.728 -1.248,2.88 0,1.116 0.78,1.992 2.064,2.292 z"
         inkscape:connector-curvature="0"
         style="font-style:normal;font-variant:normal;font-weight:normal;font-stretch:normal;letter-spacing:normal;word-spacing:normal;text-anchor:start;fill:#000000;fill-opacity:1;fill-rule:evenodd;stroke:#000000;stroke-width:0;stroke-linecap:butt;stroke-linejoin:miter;stroke-miterlimit:10.43299961;stroke-opacity:1;stroke-dasharray:none;stroke-dashoffset:0" />
    </g>
    <g
       id="g4566"
       transform="matrix(0.97739176,-0.21143638,0.21143638,0.97739176,100.58891,94.897912)">
      <path
         id="path4441"
         d="m 47.412,75.888 v 3.696 h -0.828 v 0.552 c 0.336,0 1.056,-0.024 1.512,-0.024 0.468,0 1.176,0.024 1.512,0.024 V 79.584 H 48.78 v -2.496 c 0,-1.308 1.044,-1.896 1.776,-1.896 0.408,0 0.672,0.24 0.672,1.164 v 3.228 h -0.816 v 0.552 c 0.324,0 1.044,-0.024 1.5,-0.024 0.468,0 1.176,0.024 1.512,0.024 v -0.552 h -0.828 v -2.496 c 0,-1.308 1.044,-1.896 1.776,-1.896 0.408,0 0.672,0.24 0.672,1.164 v 3.228 h -0.828 v 0.552 c 0.336,0 1.056,-0.024 1.512,-0.024 0.468,0 1.176,0.024 1.512,0.024 v -0.552 h -0.828 v -3.096 c 0,-1.236 -0.612,-1.716 -1.848,-1.716 -1.08,0 -1.704,0.588 -2.016,1.14 -0.24,-1.104 -1.344,-1.14 -1.8,-1.14 -1.032,0 -1.716,0.528 -2.1,1.284 v -1.284 l -2.064,0.096 v 0.552 c 0.744,0 0.828,0 0.828,0.468 z"
         inkscape:connector-curvature="0"
         style="font-style:normal;font-variant:normal;font-weight:normal;font-stretch:normal;letter-spacing:normal;word-spacing:normal;text-anchor:start;fill:#000000;fill-opacity:1;fill-rule:evenodd;stroke:#000000;stroke-width:0;stroke-linecap:butt;stroke-linejoin:miter;stroke-miterlimit:10.43299961;stroke-opacity:1;stroke-dasharray:none;stroke-dashoffset:0" />
      <path
         id="path4443"
         d="m 61.464,83.004 0,0 0,-0.012 0,0 0,0 0,-0.012 0,0 0,0 0,-0.012 0,0 0,0 -0.012,-0.012 0,0 0,-0.012 -0.012,0 0,-0.012 -0.012,-0.012 0,0 -0.012,-0.012 0,0 0,-0.012 -0.012,0 0,-0.012 -0.012,0 0,0 0,-0.012 -0.012,0 0,-0.012 -0.012,0 0,-0.012 -0.012,0 0,-0.012 -0.012,-0.012 0,0 -0.012,-0.012 -0.012,0 0,-0.012 -0.012,-0.012 -0.012,-0.012 0,0 -0.012,-0.012 -0.012,-0.012 -0.012,0 c -1.488,-1.512 -1.872,-3.768 -1.872,-5.592 0,-2.076 0.456,-4.164 1.92,-5.652 0.156,-0.144 0.156,-0.168 0.156,-0.204 0,-0.084 -0.048,-0.12 -0.12,-0.12 -0.12,0 -1.188,0.816 -1.896,2.328 -0.612,1.32 -0.756,2.64 -0.756,3.648 0,0.924 0.132,2.376 0.792,3.72 0.72,1.476 1.74,2.244 1.86,2.244 0.072,0 0.12,-0.036 0.12,-0.12 z"
         inkscape:connector-curvature="0"
         style="font-style:normal;font-variant:normal;font-weight:normal;font-stretch:normal;letter-spacing:normal;word-spacing:normal;text-anchor:start;fill:#000000;fill-opacity:1;fill-rule:evenodd;stroke:#000000;stroke-width:0;stroke-linecap:butt;stroke-linejoin:miter;stroke-miterlimit:10.43299961;stroke-opacity:1;stroke-dasharray:none;stroke-dashoffset:0" />
      <path
         id="path4445"
         d="m 64.62,75.36 h 1.128 c 0.24,0 0.36,0 0.36,-0.24 0,-0.132 -0.12,-0.132 -0.336,-0.132 h -1.056 c 0.432,-1.692 0.492,-1.932 0.492,-2.004 0,-0.204 -0.144,-0.324 -0.348,-0.324 -0.036,0 -0.372,0.024 -0.48,0.432 l -0.468,1.896 h -1.116 c -0.24,0 -0.36,0 -0.36,0.228 0,0.144 0.096,0.144 0.336,0.144 h 1.044 c -0.852,3.396 -0.9,3.6 -0.9,3.816 0,0.648 0.444,1.092 1.092,1.092 1.224,0 1.908,-1.74 1.908,-1.836 0,-0.12 -0.096,-0.12 -0.144,-0.12 -0.108,0 -0.12,0.036 -0.18,0.168 -0.516,1.248 -1.152,1.536 -1.56,1.536 -0.252,0 -0.372,-0.156 -0.372,-0.552 0,-0.288 0.024,-0.372 0.072,-0.576 z"
         inkscape:connector-curvature="0"
         style="font-style:normal;font-variant:normal;font-weight:normal;font-stretch:normal;letter-spacing:normal;word-spacing:normal;text-anchor:start;fill:#000000;fill-opacity:1;fill-rule:evenodd;stroke:#000000;stroke-width:0;stroke-linecap:butt;stroke-linejoin:miter;stroke-miterlimit:10.43299961;stroke-opacity:1;stroke-dasharray:none;stroke-dashoffset:0" />
      <path
         id="path4447"
         d="m 74.028,77.4 h 3.336 c 0.168,0 0.396,0 0.396,-0.24 0,-0.24 -0.228,-0.24 -0.396,-0.24 h -3.336 v -3.348 c 0,-0.168 0,-0.396 -0.24,-0.396 -0.24,0 -0.24,0.228 -0.24,0.396 V 76.92 H 70.2 c -0.168,0 -0.396,0 -0.396,0.24 0,0.24 0.228,0.24 0.396,0.24 h 3.348 v 3.336 c 0,0.168 0,0.396 0.24,0.396 0.24,0 0.24,-0.228 0.24,-0.396 z"
         inkscape:connector-curvature="0"
         style="font-style:normal;font-variant:normal;font-weight:normal;font-stretch:normal;letter-spacing:normal;word-spacing:normal;text-anchor:start;fill:#000000;fill-opacity:1;fill-rule:evenodd;stroke:#000000;stroke-width:0;stroke-linecap:butt;stroke-linejoin:miter;stroke-miterlimit:10.43299961;stroke-opacity:1;stroke-dasharray:none;stroke-dashoffset:0" />
      <path
         id="path4449"
         d="m 86.376,71.808 -0.012,-0.012 -0.012,-0.024 0,-0.012 -0.012,-0.012 0,-0.012 -0.012,-0.012 0,-0.012 -0.012,0 -0.012,-0.012 0,-0.012 -0.012,-0.012 0,-0.012 -0.012,0 0,-0.012 -0.012,0 -0.012,-0.012 0,-0.012 -0.012,0 -0.012,0 -0.012,-0.012 0,0 -0.012,-0.012 -0.012,0 -0.012,0 -0.012,0 -0.012,-0.012 -0.012,0 -0.024,0 -0.012,0 -0.012,0 -0.024,0 -0.012,0 c -0.204,0 -0.228,0.06 -0.312,0.216 l -0.072,0.972 3.216,6.456 h -6.444 l 3.228,-6.456 0.072,-0.972 -4.044,8.1 c -0.06,0.108 -0.06,0.132 -0.06,0.144 0,0.084 0.072,0.084 0.264,0.084 h 8.292 c 0.192,0 0.264,0 0.264,-0.084 0,-0.012 0,-0.036 -0.048,-0.144 z"
         inkscape:connector-curvature="0"
         style="font-style:normal;font-variant:normal;font-weight:normal;font-stretch:normal;letter-spacing:normal;word-spacing:normal;text-anchor:start;fill:#000000;fill-opacity:1;fill-rule:evenodd;stroke:#000000;stroke-width:0;stroke-linecap:butt;stroke-linejoin:miter;stroke-miterlimit:10.43299961;stroke-opacity:1;stroke-dasharray:none;stroke-dashoffset:0" />
      <path
         id="path4451"
         d="m 93.516,75.36 h 1.116 c 0.24,0 0.36,0 0.36,-0.24 0,-0.132 -0.12,-0.132 -0.336,-0.132 h -1.044 c 0.432,-1.692 0.492,-1.932 0.492,-2.004 0,-0.204 -0.144,-0.324 -0.348,-0.324 -0.036,0 -0.372,0.024 -0.48,0.432 l -0.468,1.896 H 91.68 c -0.24,0 -0.36,0 -0.36,0.228 0,0.144 0.096,0.144 0.336,0.144 h 1.056 c -0.864,3.396 -0.912,3.6 -0.912,3.816 0,0.648 0.456,1.092 1.104,1.092 1.224,0 1.896,-1.74 1.896,-1.836 0,-0.12 -0.096,-0.12 -0.144,-0.12 -0.096,0 -0.108,0.036 -0.18,0.168 -0.504,1.248 -1.14,1.536 -1.548,1.536 -0.252,0 -0.372,-0.156 -0.372,-0.552 0,-0.288 0.024,-0.372 0.072,-0.576 z"
         inkscape:connector-curvature="0"
         style="font-style:normal;font-variant:normal;font-weight:normal;font-stretch:normal;letter-spacing:normal;word-spacing:normal;text-anchor:start;fill:#000000;fill-opacity:1;fill-rule:evenodd;stroke:#000000;stroke-width:0;stroke-linecap:butt;stroke-linejoin:miter;stroke-miterlimit:10.43299961;stroke-opacity:1;stroke-dasharray:none;stroke-dashoffset:0" />
      <path
         id="path4453"
         d="m 98.82,77.16 0,-0.096 0,-0.084 0,-0.096 0,-0.096 -0.012,-0.204 -0.012,-0.216 -0.024,-0.216 -0.024,-0.228 -0.036,-0.24 -0.036,-0.24 -0.048,-0.24 -0.06,-0.252 L 98.508,74.7 98.436,74.448 98.352,74.196 98.256,73.944 98.208,73.812 98.148,73.68 98.1,73.56 98.04,73.428 c -0.72,-1.464 -1.752,-2.244 -1.872,-2.244 -0.072,0 -0.12,0.048 -0.12,0.12 0,0.036 0,0.06 0.228,0.276 1.176,1.176 1.848,3.084 1.848,5.58 0,2.04 -0.432,4.14 -1.92,5.64 -0.156,0.144 -0.156,0.168 -0.156,0.204 0,0.072 0.048,0.12 0.12,0.12 0.12,0 1.2,-0.804 1.908,-2.328 0.6,-1.308 0.744,-2.64 0.744,-3.636 z"
         inkscape:connector-curvature="0"
         style="font-style:normal;font-variant:normal;font-weight:normal;font-stretch:normal;letter-spacing:normal;word-spacing:normal;text-anchor:start;fill:#000000;fill-opacity:1;fill-rule:evenodd;stroke:#000000;stroke-width:0;stroke-linecap:butt;stroke-linejoin:miter;stroke-miterlimit:10.43299961;stroke-opacity:1;stroke-dasharray:none;stroke-dashoffset:0" />
    </g>
    <g
       id="g4575"
       transform="matrix(0.62577136,-0.78000654,0.78000654,0.62577136,31.037455,91.001055)">
      <path
         id="path4455"
         d="m 47.412,90.24 v 3.684 h -0.828 v 0.564 c 0.336,-0.012 1.056,-0.036 1.512,-0.036 0.468,0 1.176,0.024 1.512,0.036 V 93.924 H 48.78 v -2.496 c 0,-1.296 1.044,-1.884 1.776,-1.884 0.408,0 0.672,0.24 0.672,1.164 v 3.216 h -0.816 v 0.564 c 0.324,-0.012 1.044,-0.036 1.5,-0.036 0.468,0 1.176,0.024 1.512,0.036 v -0.564 h -0.828 v -2.496 c 0,-1.296 1.044,-1.884 1.776,-1.884 0.408,0 0.672,0.24 0.672,1.164 v 3.216 h -0.828 v 0.564 c 0.336,-0.012 1.056,-0.036 1.512,-0.036 0.468,0 1.176,0.024 1.512,0.036 V 93.924 H 56.412 V 90.84 c 0,-1.236 -0.612,-1.728 -1.848,-1.728 -1.08,0 -1.704,0.6 -2.016,1.152 -0.24,-1.116 -1.344,-1.152 -1.8,-1.152 -1.032,0 -1.716,0.54 -2.1,1.296 v -1.296 l -2.064,0.096 v 0.564 c 0.744,0 0.828,0 0.828,0.468 z"
         inkscape:connector-curvature="0"
         style="font-style:normal;font-variant:normal;font-weight:normal;font-stretch:normal;letter-spacing:normal;word-spacing:normal;text-anchor:start;fill:#000000;fill-opacity:1;fill-rule:evenodd;stroke:#000000;stroke-width:0;stroke-linecap:butt;stroke-linejoin:miter;stroke-miterlimit:10.43299961;stroke-opacity:1;stroke-dasharray:none;stroke-dashoffset:0" />
      <path
         id="path4457"
         d="m 61.464,97.356 0,-0.012 0,0 0,0 0,-0.012 0,0 0,0 0,-0.012 0,0 0,0 0,-0.012 -0.012,0 0,-0.012 0,0 -0.012,-0.012 0,0 -0.012,-0.012 0,-0.012 -0.012,0 0,-0.012 0,0 -0.012,-0.012 0,0 -0.012,0 0,-0.012 0,0 -0.012,-0.012 0,0 -0.012,-0.012 0,0 -0.012,-0.012 0,-0.012 -0.012,0 0,-0.012 -0.012,0 -0.012,-0.012 0,-0.012 -0.012,0 -0.012,-0.012 0,-0.012 -0.012,0 -0.012,-0.012 -0.012,-0.012 c -1.488,-1.5 -1.872,-3.756 -1.872,-5.592 0,-2.076 0.456,-4.152 1.92,-5.652 0.156,-0.144 0.156,-0.156 0.156,-0.204 0,-0.072 -0.048,-0.108 -0.12,-0.108 -0.12,0 -1.188,0.804 -1.896,2.328 -0.612,1.308 -0.756,2.64 -0.756,3.636 0,0.936 0.132,2.376 0.792,3.732 0.72,1.464 1.74,2.244 1.86,2.244 0.072,0 0.12,-0.036 0.12,-0.12 z"
         inkscape:connector-curvature="0"
         style="font-style:normal;font-variant:normal;font-weight:normal;font-stretch:normal;letter-spacing:normal;word-spacing:normal;text-anchor:start;fill:#000000;fill-opacity:1;fill-rule:evenodd;stroke:#000000;stroke-width:0;stroke-linecap:butt;stroke-linejoin:miter;stroke-miterlimit:10.43299961;stroke-opacity:1;stroke-dasharray:none;stroke-dashoffset:0" />
      <path
         id="path4459"
         d="m 64.62,89.712 h 1.128 c 0.24,0 0.36,0 0.36,-0.24 0,-0.132 -0.12,-0.132 -0.336,-0.132 h -1.056 c 0.432,-1.692 0.492,-1.932 0.492,-2.004 0,-0.204 -0.144,-0.324 -0.348,-0.324 -0.036,0 -0.372,0.012 -0.48,0.432 l -0.468,1.896 h -1.116 c -0.24,0 -0.36,0 -0.36,0.228 0,0.144 0.096,0.144 0.336,0.144 h 1.044 c -0.852,3.396 -0.9,3.6 -0.9,3.804 0,0.648 0.444,1.104 1.092,1.104 1.224,0 1.908,-1.74 1.908,-1.836 0,-0.12 -0.096,-0.12 -0.144,-0.12 -0.108,0 -0.12,0.036 -0.18,0.168 -0.516,1.236 -1.152,1.524 -1.56,1.524 -0.252,0 -0.372,-0.156 -0.372,-0.552 0,-0.288 0.024,-0.372 0.072,-0.564 z"
         inkscape:connector-curvature="0"
         style="font-style:normal;font-variant:normal;font-weight:normal;font-stretch:normal;letter-spacing:normal;word-spacing:normal;text-anchor:start;fill:#000000;fill-opacity:1;fill-rule:evenodd;stroke:#000000;stroke-width:0;stroke-linecap:butt;stroke-linejoin:miter;stroke-miterlimit:10.43299961;stroke-opacity:1;stroke-dasharray:none;stroke-dashoffset:0" />
      <path
         id="path4461"
         d="m 69.936,91.5 0,-0.084 0,-0.096 -0.012,-0.096 0,-0.096 L 69.912,90.924 69.9,90.72 69.876,90.492 69.852,90.264 69.828,90.036 69.78,89.796 69.732,89.556 69.684,89.304 69.612,89.052 69.54,88.8 69.456,88.536 69.36,88.284 69.312,88.152 69.264,88.032 69.204,87.9 69.144,87.78 c -0.72,-1.476 -1.752,-2.244 -1.872,-2.244 -0.072,0 -0.12,0.048 -0.12,0.108 0,0.048 0,0.06 0.228,0.276 1.176,1.188 1.86,3.084 1.86,5.58 0,2.04 -0.444,4.152 -1.932,5.652 -0.156,0.144 -0.156,0.168 -0.156,0.204 0,0.072 0.048,0.12 0.12,0.12 0.12,0 1.2,-0.816 1.908,-2.328 0.612,-1.32 0.756,-2.64 0.756,-3.648 z"
         inkscape:connector-curvature="0"
         style="font-style:normal;font-variant:normal;font-weight:normal;font-stretch:normal;letter-spacing:normal;word-spacing:normal;text-anchor:start;fill:#000000;fill-opacity:1;fill-rule:evenodd;stroke:#000000;stroke-width:0;stroke-linecap:butt;stroke-linejoin:miter;stroke-miterlimit:10.43299961;stroke-opacity:1;stroke-dasharray:none;stroke-dashoffset:0" />
    </g>
    <path
       style="font-style:normal;font-variant:normal;font-weight:normal;font-stretch:normal;letter-spacing:normal;word-spacing:normal;text-anchor:start;fill:#000000;fill-opacity:1;fill-rule:evenodd;stroke:#000000;stroke-width:0;stroke-linecap:butt;stroke-linejoin:miter;stroke-miterlimit:10.43299961;stroke-opacity:1;stroke-dasharray:none;stroke-dashoffset:0"
       inkscape:connector-curvature="0"
       d="m 199.96757,46.437671 0.012,-0.036 0,-0.036 0.012,-0.036 0.012,-0.036 0.012,-0.024 0.012,-0.036 0,-0.024 0.012,-0.036 0.012,-0.024 0.012,-0.024 0.024,-0.024 0.012,-0.024 0.012,-0.012 0.024,-0.024 0.024,-0.012 0.024,-0.024 0.024,-0.012 0.024,-0.012 0.036,-0.012 0.036,-0.012 0.036,-0.012 0.012,-0.012 0.024,0 0.024,0 0.024,-0.012 0.024,0 0.024,0 0.024,0 0.024,-0.012 0.024,0 0.024,0 0.036,0 0.024,-0.012 0.036,0 0.036,0 0.024,0 0.036,0 0.036,0 0.036,0 0.036,0 0.048,0 0.036,0 0.036,0 c 0.276,0 0.384,0 0.384,-0.24 0,-0.132 -0.12,-0.132 -0.324,-0.132 h -1.572 c -0.312,0 -0.324,0 -0.468,0.228 l -4.368,6.804 -0.936,-6.756 c -0.036,-0.276 -0.06,-0.276 -0.372,-0.276 h -1.632 c -0.228,0 -0.36,0 -0.36,0.228 0,0.144 0.108,0.144 0.348,0.144 0.156,0 0.372,0.012 0.516,0.024 0.192,0.024 0.264,0.06 0.264,0.192 0,0.048 -0.012,0.084 -0.048,0.228 l -1.524,6.072 c -0.12,0.48 -0.324,0.864 -1.296,0.9 -0.06,0 -0.216,0.012 -0.216,0.228 0,0.108 0.072,0.144 0.168,0.144 0.384,0 0.804,-0.036 1.2,-0.036 0.408,0 0.84,0.036 1.236,0.036 0.06,0 0.216,0 0.216,-0.24 0,-0.132 -0.132,-0.132 -0.216,-0.132 -0.684,-0.012 -0.816,-0.252 -0.816,-0.528 0,-0.084 0.012,-0.144 0.048,-0.276 l 1.632,-6.504 h 0.012 l 1.02,7.404 c 0.024,0.144 0.036,0.276 0.18,0.276 0.132,0 0.204,-0.132 0.264,-0.216 l 4.836,-7.56 h 0.012 l -1.716,6.84 c -0.12,0.468 -0.144,0.564 -1.08,0.564 -0.204,0 -0.336,0 -0.336,0.228 0,0.144 0.144,0.144 0.18,0.144 0.336,0 1.14,-0.036 1.476,-0.036 0.492,0 1.008,0.036 1.5,0.036 0.072,0 0.228,0 0.228,-0.24 0,-0.132 -0.108,-0.132 -0.336,-0.132 -0.444,0 -0.78,0 -0.78,-0.216 0,-0.048 0,-0.072 0.06,-0.288 z"
       id="path4463" />
    <g
       id="g4581"
       transform="translate(195.86858,12.727922)">
      <path
         id="path4465"
         d="m 57.132,115.944 0.012,-0.036 0,-0.036 0.012,-0.036 0.012,-0.036 0.012,-0.036 0.012,-0.036 0,-0.024 0.012,-0.024 0.012,-0.024 0.012,-0.024 0.024,-0.024 0.012,-0.024 0.012,-0.024 0.024,-0.012 0.024,-0.024 0.024,-0.012 0.024,-0.024 0.024,-0.012 0.036,-0.012 0.036,-0.012 0.036,-0.012 0.012,0 0.024,0 0.024,-0.012 0.024,0 0.024,0 0.024,-0.012 0.024,0 0.024,0 0.024,0 0.024,-0.012 0.036,0 0.024,0 0.036,0 0.036,0 0.024,0 0.036,-0.012 0.036,0 0.036,0 0.036,0 0.048,0 0.036,0 0.036,0 c 0.276,0 0.384,0 0.384,-0.24 0,-0.132 -0.12,-0.132 -0.324,-0.132 H 56.64 c -0.312,0 -0.324,0 -0.468,0.228 l -4.368,6.816 -0.936,-6.768 c -0.036,-0.276 -0.06,-0.276 -0.372,-0.276 h -1.632 c -0.228,0 -0.36,0 -0.36,0.228 0,0.144 0.108,0.144 0.348,0.144 0.156,0 0.372,0.012 0.516,0.024 0.192,0.024 0.264,0.06 0.264,0.192 0,0.048 -0.012,0.084 -0.048,0.228 l -1.524,6.084 c -0.12,0.468 -0.324,0.852 -1.296,0.888 -0.06,0 -0.216,0.012 -0.216,0.228 0,0.108 0.072,0.144 0.168,0.144 0.384,0 0.804,-0.036 1.2,-0.036 0.408,0 0.84,0.036 1.236,0.036 0.06,0 0.216,0 0.216,-0.24 0,-0.132 -0.132,-0.132 -0.216,-0.132 -0.684,-0.012 -0.816,-0.252 -0.816,-0.516 0,-0.084 0.012,-0.156 0.048,-0.276 l 1.632,-6.516 h 0.012 l 1.02,7.404 c 0.024,0.144 0.036,0.276 0.18,0.276 0.132,0 0.204,-0.132 0.264,-0.216 l 4.836,-7.56 h 0.012 l -1.716,6.84 c -0.12,0.468 -0.144,0.564 -1.08,0.564 -0.204,0 -0.336,0 -0.336,0.228 0,0.144 0.144,0.144 0.18,0.144 0.336,0 1.14,-0.036 1.476,-0.036 0.492,0 1.008,0.036 1.5,0.036 0.072,0 0.228,0 0.228,-0.24 0,-0.132 -0.108,-0.132 -0.336,-0.132 -0.444,0 -0.78,0 -0.78,-0.216 0,-0.048 0,-0.072 0.06,-0.288 z"
         inkscape:connector-curvature="0"
         style="font-style:normal;font-variant:normal;font-weight:normal;font-stretch:normal;letter-spacing:normal;word-spacing:normal;text-anchor:start;fill:#000000;fill-opacity:1;fill-rule:evenodd;stroke:#000000;stroke-width:0;stroke-linecap:butt;stroke-linejoin:miter;stroke-miterlimit:10.43299961;stroke-opacity:1;stroke-dasharray:none;stroke-dashoffset:0" />
      <path
         id="path4467"
         d="m 61.38,114.9 0,-0.012 0.012,-0.012 0,-0.012 0.012,-0.012 0,-0.012 0,-0.012 0.012,-0.012 0,0 0,-0.012 0.012,-0.012 0,-0.012 0,-0.012 0,0 0.012,-0.012 0,-0.012 0,0 0,-0.012 0,-0.012 0,0 0,-0.012 0,0 0.012,-0.012 0,-0.012 0,0 0,-0.012 0,-0.012 0,-0.012 0,-0.012 c 0,-0.252 -0.24,-0.456 -0.492,-0.456 -0.324,0 -0.42,0.252 -0.468,0.384 l -1.092,3.624 c -0.012,0.012 -0.048,0.12 -0.048,0.132 0,0.096 0.264,0.18 0.324,0.18 0.06,0 0.072,-0.012 0.132,-0.144 z"
         inkscape:connector-curvature="0"
         style="font-style:normal;font-variant:normal;font-weight:normal;font-stretch:normal;letter-spacing:normal;word-spacing:normal;text-anchor:start;fill:#000000;fill-opacity:1;fill-rule:evenodd;stroke:#000000;stroke-width:0;stroke-linecap:butt;stroke-linejoin:miter;stroke-miterlimit:10.43299961;stroke-opacity:1;stroke-dasharray:none;stroke-dashoffset:0" />
    </g>
    <path
       style="fill:none;stroke:#000000;stroke-width:0.70866144;stroke-linecap:butt;stroke-linejoin:miter;stroke-miterlimit:4;stroke-opacity:1;stroke-dasharray:none"
       d="M 183.05546,57.324387 235,133.03149"
       id="path4543"
       inkscape:connector-curvature="0"
       sodipodi:nodetypes="cc" />
    <path
       style="fill:#ffffff;stroke:#000000;stroke-width:1.02587092;stroke-miterlimit:4;stroke-opacity:1;stroke-dasharray:none;display:inline;enable-background:new"
       d="m 186.72957,57.182823 c 0,2.017617 -1.60516,3.653184 -3.58523,3.653184 -1.98007,0 -3.58524,-1.635567 -3.58524,-3.653184 0,-2.017587 1.60517,-3.65317 3.58524,-3.65317 1.98007,0 3.58523,1.635583 3.58523,3.65317 z"
       id="path3031-52-7-4"
       inkscape:connector-curvature="0" />
    <path
       style="fill:#ffffff;stroke:#000000;stroke-width:1.02587092;stroke-miterlimit:4;stroke-opacity:1;stroke-dasharray:none;display:inline;enable-background:new"
       d="m 239.28296,132.23043 c 0,2.01762 -1.60517,3.65318 -3.58524,3.65318 -1.98007,0 -3.58524,-1.63556 -3.58524,-3.65318 0,-2.01759 1.60517,-3.65317 3.58524,-3.65317 1.98007,0 3.58524,1.63558 3.58524,3.65317 z"
       id="path3031-52-7-7"
       inkscape:connector-curvature="0" />
  </g>
</svg>
