<?xml version="1.0" encoding="UTF-8" standalone="no"?>
<!-- Created with Inkscape (http://www.inkscape.org/) -->

<svg
   xmlns:ns0="http://www.iki.fi/pav/software/textext/"
   xmlns:dc="http://purl.org/dc/elements/1.1/"
   xmlns:cc="http://creativecommons.org/ns#"
   xmlns:rdf="http://www.w3.org/1999/02/22-rdf-syntax-ns#"
   xmlns:svg="http://www.w3.org/2000/svg"
   xmlns="http://www.w3.org/2000/svg"
   xmlns:sodipodi="http://sodipodi.sourceforge.net/DTD/sodipodi-0.dtd"
   xmlns:inkscape="http://www.inkscape.org/namespaces/inkscape"
   width="325.98425"
   height="248.03149"
   id="svg2"
   version="1.1"
   inkscape:version="0.48.0 r9654"
   sodipodi:docname="smesheniya.pdf"
   enable-background="new">
  <sodipodi:namedview
     id="base"
     pagecolor="#ffffff"
     bordercolor="#666666"
     borderopacity="1.0"
     inkscape:pageopacity="0.0"
     inkscape:pageshadow="2"
     inkscape:zoom="1.8101934"
     inkscape:cx="231.13913"
     inkscape:cy="82.600155"
     inkscape:document-units="cm"
     inkscape:current-layer="layer3"
     showgrid="false"
     inkscape:window-width="800"
     inkscape:window-height="579"
     inkscape:window-x="-4"
     inkscape:window-y="-4"
     inkscape:window-maximized="1"
     units="cm"
     width="9.2cm" />
  <defs
     id="defs4">
    <marker
       inkscape:stockid="Arrow1Send"
       orient="auto"
       refY="0.0"
       refX="0.0"
       id="Arrow1Send"
       style="overflow:visible;">
      <path
         id="path3997"
         d="M 0.0,0.0 L 5.0,-5.0 L -12.5,0.0 L 5.0,5.0 L 0.0,0.0 z "
         style="fill-rule:evenodd;stroke:#000000;stroke-width:1.0pt;marker-start:none;"
         transform="scale(0.2) rotate(180) translate(6,0)" />
    </marker>
    <marker
       inkscape:stockid="Arrow1Sstart"
       orient="auto"
       refY="0.0"
       refX="0.0"
       id="Arrow1Sstart"
       style="overflow:visible">
      <path
         id="path3994"
         d="M 0.0,0.0 L 5.0,-5.0 L -12.5,0.0 L 5.0,5.0 L 0.0,0.0 z "
         style="fill-rule:evenodd;stroke:#000000;stroke-width:1.0pt;marker-start:none"
         transform="scale(0.2) translate(6,0)" />
    </marker>
    <marker
       inkscape:stockid="Arrow1Mend"
       orient="auto"
       refY="0.0"
       refX="0.0"
       id="Arrow1Mend"
       style="overflow:visible;">
      <path
         id="path3991"
         d="M 0.0,0.0 L 5.0,-5.0 L -12.5,0.0 L 5.0,5.0 L 0.0,0.0 z "
         style="fill-rule:evenodd;stroke:#000000;stroke-width:1.0pt;marker-start:none;"
         transform="scale(0.4) rotate(180) translate(10,0)" />
    </marker>
    <marker
       inkscape:stockid="Arrow1Mstart"
       orient="auto"
       refY="0.0"
       refX="0.0"
       id="Arrow1Mstart"
       style="overflow:visible">
      <path
         id="path3988"
         d="M 0.0,0.0 L 5.0,-5.0 L -12.5,0.0 L 5.0,5.0 L 0.0,0.0 z "
         style="fill-rule:evenodd;stroke:#000000;stroke-width:1.0pt;marker-start:none"
         transform="scale(0.4) translate(10,0)" />
    </marker>
    <marker
       inkscape:stockid="Arrow2Lend"
       orient="auto"
       refY="0.0"
       refX="0.0"
       id="Arrow2Lend"
       style="overflow:visible;">
      <path
         id="path4003"
         style="font-size:12.0;fill-rule:evenodd;stroke-width:0.62500000;stroke-linejoin:round;"
         d="M 8.7185878,4.0337352 L -2.2072895,0.016013256 L 8.7185884,-4.0017078 C 6.9730900,-1.6296469 6.9831476,1.6157441 8.7185878,4.0337352 z "
         transform="scale(1.1) rotate(180) translate(1,0)" />
    </marker>
    <marker
       inkscape:stockid="Arrow2Lstart"
       orient="auto"
       refY="0.0"
       refX="0.0"
       id="Arrow2Lstart"
       style="overflow:visible">
      <path
         id="path4000"
         style="font-size:12.0;fill-rule:evenodd;stroke-width:0.62500000;stroke-linejoin:round"
         d="M 8.7185878,4.0337352 L -2.2072895,0.016013256 L 8.7185884,-4.0017078 C 6.9730900,-1.6296469 6.9831476,1.6157441 8.7185878,4.0337352 z "
         transform="scale(1.1) translate(1,0)" />
    </marker>
    <marker
       style="overflow:visible"
       id="Arrow1Lend"
       refX="0"
       refY="0"
       orient="auto"
       inkscape:stockid="Arrow1Lend">
      <path
         transform="matrix(-0.8,0,0,-0.8,-10,0)"
         style="fill-rule:evenodd;stroke:#000000;stroke-width:1pt;marker-start:none"
         d="M 0,0 5,-5 -12.5,0 5,5 0,0 z"
         id="path4440"
         inkscape:connector-curvature="0" />
    </marker>
    <marker
       style="overflow:visible"
       id="Arrow1Lstart"
       refX="0"
       refY="0"
       orient="auto"
       inkscape:stockid="Arrow1Lstart">
      <path
         transform="matrix(0.8,0,0,0.8,10,0)"
         style="fill-rule:evenodd;stroke:#000000;stroke-width:1pt;marker-start:none"
         d="M 0,0 5,-5 -12.5,0 5,5 0,0 z"
         id="path4437"
         inkscape:connector-curvature="0" />
    </marker>
  </defs>
  <metadata
     id="metadata7">
    <rdf:RDF>
      <cc:Work
         rdf:about="">
        <dc:format>image/svg+xml</dc:format>
        <dc:type
           rdf:resource="http://purl.org/dc/dcmitype/StillImage" />
        <dc:title></dc:title>
      </cc:Work>
    </rdf:RDF>
  </metadata>
  <g
     id="layer1"
     inkscape:groupmode="layer"
     inkscape:label="Layer 1"
     transform="translate(0,-804.32946)" />
  <g
     inkscape:label="Слой2"
     id="layer2"
     inkscape:groupmode="layer"
     transform="translate(0,-804.32946)">
    <path
       style="fill:none;stroke:#000000;stroke-width:0.81496066;stroke-linecap:butt;stroke-linejoin:miter;stroke-miterlimit:4;stroke-opacity:1;stroke-dasharray:none;marker-start:url(#Arrow2Lstart)"
       d="m 26.428571,811.64667 0,148.57143"
       id="path3013"
       inkscape:connector-curvature="0" />
    <path
       style="fill:none;stroke:#000000;stroke-width:0.81496063;stroke-linecap:butt;stroke-linejoin:miter;stroke-opacity:1;marker-end:url(#Arrow2Lend);stroke-miterlimit:4;stroke-dasharray:none"
       d="m 2.1428571,145.17435 311.4285729,0"
       id="path4427"
       inkscape:connector-curvature="0"
       transform="translate(0,804.32946)" />
    <path
       style="fill:none;stroke:#000000;stroke-width:1px;stroke-linecap:butt;stroke-linejoin:miter;stroke-opacity:1"
       d="m 188.57143,10.174353 0,228.571427"
       id="path4805"
       inkscape:connector-curvature="0"
       transform="translate(0,804.32946)" />
    <path
       style="fill:none;stroke:#000000;stroke-width:1px;stroke-linecap:butt;stroke-linejoin:miter;stroke-opacity:1"
       d="m 243.57143,814.50381 0,228.57149"
       id="path4805-1"
       inkscape:connector-curvature="0" />
    <path
       style="fill:none;stroke:#000000;stroke-width:0.81496063;stroke-linecap:butt;stroke-linejoin:miter;stroke-opacity:1;stroke-miterlimit:4;stroke-dasharray:3.25984252,3.25984252;stroke-dashoffset:0"
       d="m 205.71429,820.93238 0,212.85712"
       id="path4843"
       inkscape:connector-curvature="0" />
    <path
       style="fill:none;stroke:#000000;stroke-width:0.81496066;stroke-linecap:butt;stroke-linejoin:miter;stroke-miterlimit:4;stroke-opacity:1;stroke-dasharray:3.25984252, 3.25984252;stroke-dashoffset:0"
       d="m 275.06685,822.36094 0,212.85716"
       id="path4843-4"
       inkscape:connector-curvature="0" />
    <path
       style="fill:none;stroke:#000000;stroke-width:0.97242886;stroke-linecap:butt;stroke-linejoin:miter;stroke-miterlimit:3.79999995;stroke-opacity:1;stroke-dasharray:none;marker-start:url(#Arrow1Mstart);marker-end:url(#Arrow1Mend)"
       d="m 189.65872,977.97732 52.53701,0"
       id="path4863"
       inkscape:connector-curvature="0" />
    <path
       style="fill:none;stroke:#000000;stroke-width:1px;stroke-linecap:butt;stroke-linejoin:miter;stroke-opacity:1;marker-start:url(#Arrow1Mstart);marker-end:url(#Arrow1Mend)"
       d="m 188.89852,1009.3279 16.66752,0"
       id="path6983"
       inkscape:connector-curvature="0" />
    <path
       style="fill:none;stroke:#000000;stroke-width:1px;stroke-linecap:butt;stroke-linejoin:miter;stroke-opacity:1;marker-start:url(#Arrow1Mstart);marker-end:url(#Arrow1Mend)"
       d="m 245,1010.2181 26.42857,0"
       id="path7377"
       inkscape:connector-curvature="0" />
    <path
       style="fill:none;stroke:#000000;stroke-width:1px;stroke-linecap:butt;stroke-linejoin:miter;stroke-opacity:1"
       d="m 187.85714,51.602924 55.71429,0"
       id="path7771"
       inkscape:connector-curvature="0"
       transform="translate(0,804.32946)" />
    <path
       style="fill:none;stroke:#000000;stroke-width:1px;stroke-linecap:butt;stroke-linejoin:miter;stroke-opacity:1"
       d="m 188.57143,99.460067 55,0"
       id="path7773"
       inkscape:connector-curvature="0"
       transform="translate(0,804.32946)" />
    <path
       style="fill:none;stroke:#000000;stroke-width:1px;stroke-linecap:butt;stroke-linejoin:miter;stroke-opacity:1;marker-start:url(#Arrow1Mstart);marker-end:url(#Arrow1Mend)"
       d="m 185.71428,190.17435 -152.857137,0"
       id="path8169"
       inkscape:connector-curvature="0"
       transform="translate(0,804.32946)" />
    <g
       style="font-style:normal;font-variant:normal;font-weight:normal;font-stretch:normal;letter-spacing:normal;word-spacing:normal;text-anchor:start;fill:none;stroke:#000000;stroke-linecap:butt;stroke-linejoin:miter;stroke-miterlimit:10.43299961;stroke-opacity:1;stroke-dasharray:none;stroke-dashoffset:0"
       id="content"
       transform="matrix(1,0,0,-1,-217.3316,1525.6271)"
       xml:space="preserve"
       stroke-miterlimit="10.433"
       font-style="normal"
       font-variant="normal"
       font-weight="normal"
       font-stretch="normal"
       font-size-adjust="none"
       letter-spacing="normal"
       word-spacing="normal"
       ns0:text="$X_{3}$"
       ns0:preamble="">
<path
   style="fill:#000000;stroke-width:0"
   inkscape:connector-curvature="0"
   d="m 228.27,711.22 -0.84,1.98 c -0.03,0.08 -0.05,0.12 -0.05,0.13 0,0.06 0.17,0.24 0.59,0.28 0.1,0.01 0.2,0.02 0.2,0.19 0,0.12 -0.12,0.12 -0.15,0.12 -0.41,0 -0.84,-0.03 -1.26,-0.03 -0.25,0 -0.87,0.03 -1.11,0.03 -0.06,0 -0.18,0 -0.18,-0.2 0,-0.11 0.1,-0.11 0.23,-0.11 0.59,0 0.65,-0.09 0.74,-0.32 l 1.18,-2.77 -2.11,-2.26 -0.12,-0.11 c -0.49,-0.53 -0.96,-0.69 -1.47,-0.72 -0.13,-0.01 -0.22,-0.01 -0.22,-0.2 0,-0.01 0,-0.1 0.13,-0.1 0.3,0 0.63,0.03 0.94,0.03 0.37,0 0.75,-0.03 1.11,-0.03 0.06,0 0.18,0 0.18,0.19 0,0.1 -0.1,0.11 -0.12,0.11 -0.09,0.01 -0.4,0.03 -0.4,0.31 0,0.16 0.16,0.32 0.27,0.45 l 1.02,1.08 0.9,0.97 1.01,-2.38 c 0.03,-0.11 0.05,-0.12 0.05,-0.14 0,-0.08 -0.19,-0.25 -0.58,-0.29 -0.11,-0.01 -0.2,-0.02 -0.2,-0.19 0,-0.11 0.11,-0.11 0.15,-0.11 0.28,0 0.97,0.03 1.25,0.03 0.25,0 0.86,-0.03 1.11,-0.03 0.07,0 0.19,0 0.19,0.18 0,0.12 -0.1,0.12 -0.18,0.12 -0.67,0.01 -0.69,0.04 -0.86,0.44 -0.39,0.93 -1.05,2.48 -1.28,3.08 0.67,0.69 1.72,1.88 2.04,2.16 0.29,0.23 0.67,0.47 1.27,0.5 0.12,0.01 0.21,0.01 0.21,0.2 0,0.01 0,0.11 -0.12,0.11 -0.3,0 -0.63,-0.03 -0.94,-0.03 -0.37,0 -0.75,0.03 -1.11,0.03 -0.06,0 -0.19,0 -0.19,-0.2 0,-0.07 0.05,-0.1 0.12,-0.11 0.09,-0.01 0.4,-0.03 0.4,-0.31 0,-0.13 -0.11,-0.26 -0.19,-0.35 z"
   id="path8598" />
<path
   style="fill:#000000;stroke-width:0"
   inkscape:connector-curvature="0"
   d="m 233.59,707.95 0.05,0 0.05,0 0.05,-0.01 0.04,0 0.05,-0.01 0.05,-0.02 0.04,-0.01 0.04,-0.02 0.04,-0.02 0.04,-0.02 0.04,-0.02 0.04,-0.02 0.04,-0.03 0.03,-0.03 0.04,-0.03 0.03,-0.04 0.03,-0.03 0.03,-0.04 0.02,-0.04 0.03,-0.04 0.02,-0.05 0.02,-0.05 0.02,-0.05 0.02,-0.05 0.02,-0.05 0.01,-0.06 0.01,-0.05 0.01,-0.06 0.01,-0.07 0.01,-0.06 0,-0.07 0,-0.07 c 0,-0.86 -0.5,-1.12 -0.9,-1.12 -0.28,0 -0.9,0.08 -1.19,0.49 0.33,0.02 0.41,0.24 0.41,0.39 0,0.22 -0.17,0.38 -0.39,0.38 -0.19,0 -0.39,-0.12 -0.39,-0.4 0,-0.65 0.73,-1.08 1.57,-1.08 0.97,0 1.64,0.65 1.64,1.34 0,0.55 -0.45,1.09 -1.22,1.25 0.74,0.26 1,0.78 1,1.21 0,0.55 -0.63,0.96 -1.41,0.96 -0.77,0 -1.36,-0.38 -1.36,-0.93 0,-0.24 0.15,-0.37 0.36,-0.37 0.22,0 0.35,0.16 0.35,0.35 0,0.2 -0.13,0.35 -0.35,0.36 0.24,0.31 0.73,0.39 0.98,0.39 0.32,0 0.75,-0.16 0.75,-0.76 0,-0.29 -0.09,-0.61 -0.27,-0.83 -0.23,-0.26 -0.43,-0.28 -0.78,-0.3 -0.17,-0.01 -0.19,-0.01 -0.22,-0.02 -0.01,0 -0.07,-0.01 -0.07,-0.09 0,-0.1 0.06,-0.1 0.18,-0.1 z"
   id="path8600" />
</g>    <g
       ns0:preamble=""
       ns0:text="$X_{2}$"
       word-spacing="normal"
       letter-spacing="normal"
       font-size-adjust="none"
       font-stretch="normal"
       font-weight="normal"
       font-variant="normal"
       font-style="normal"
       stroke-miterlimit="10.433"
       xml:space="preserve"
       transform="matrix(1,0,0,-1,78.125001,1675)"
       id="g8712"
       style="font-style:normal;font-variant:normal;font-weight:normal;font-stretch:normal;letter-spacing:normal;word-spacing:normal;text-anchor:start;fill:none;stroke:#000000;stroke-linecap:butt;stroke-linejoin:miter;stroke-miterlimit:10.43299961;stroke-opacity:1;stroke-dasharray:none;stroke-dashoffset:0">
<path
   id="path8714"
   d="m 228.27,711.22 -0.84,1.98 c -0.03,0.08 -0.05,0.12 -0.05,0.13 0,0.06 0.17,0.24 0.59,0.28 0.1,0.01 0.2,0.02 0.2,0.19 0,0.12 -0.12,0.12 -0.15,0.12 -0.41,0 -0.84,-0.03 -1.26,-0.03 -0.25,0 -0.87,0.03 -1.11,0.03 -0.06,0 -0.18,0 -0.18,-0.2 0,-0.11 0.1,-0.11 0.23,-0.11 0.59,0 0.65,-0.09 0.74,-0.32 l 1.18,-2.77 -2.11,-2.26 -0.12,-0.11 c -0.49,-0.53 -0.96,-0.69 -1.47,-0.72 -0.13,-0.01 -0.22,-0.01 -0.22,-0.2 0,-0.01 0,-0.1 0.13,-0.1 0.3,0 0.63,0.03 0.94,0.03 0.37,0 0.75,-0.03 1.11,-0.03 0.06,0 0.18,0 0.18,0.19 0,0.1 -0.1,0.11 -0.12,0.11 -0.09,0.01 -0.4,0.03 -0.4,0.31 0,0.16 0.16,0.32 0.27,0.45 l 1.02,1.08 0.9,0.97 1.01,-2.38 c 0.03,-0.11 0.05,-0.12 0.05,-0.14 0,-0.08 -0.19,-0.25 -0.58,-0.29 -0.11,-0.01 -0.2,-0.02 -0.2,-0.19 0,-0.11 0.11,-0.11 0.15,-0.11 0.28,0 0.97,0.03 1.25,0.03 0.25,0 0.86,-0.03 1.11,-0.03 0.07,0 0.19,0 0.19,0.18 0,0.12 -0.1,0.12 -0.18,0.12 -0.67,0.01 -0.69,0.04 -0.86,0.44 -0.39,0.93 -1.05,2.48 -1.28,3.08 0.67,0.69 1.72,1.88 2.04,2.16 0.29,0.23 0.67,0.47 1.27,0.5 0.12,0.01 0.21,0.01 0.21,0.2 0,0.01 0,0.11 -0.12,0.11 -0.3,0 -0.63,-0.03 -0.94,-0.03 -0.37,0 -0.75,0.03 -1.11,0.03 -0.06,0 -0.19,0 -0.19,-0.2 0,-0.07 0.05,-0.1 0.12,-0.11 0.09,-0.01 0.4,-0.03 0.4,-0.31 0,-0.13 -0.11,-0.26 -0.19,-0.35 z"
   inkscape:connector-curvature="0"
   style="fill:#000000;stroke-width:0" />
<path
   id="path8716"
   d="m 235.2,706.9 h -0.23 c -0.02,-0.16 -0.09,-0.57 -0.18,-0.64 -0.06,-0.04 -0.6,-0.04 -0.69,-0.04 h -1.29 c 0.74,0.65 0.98,0.84 1.4,1.17 0.51,0.41 0.99,0.84 0.99,1.5 0,0.84 -0.74,1.36 -1.63,1.36 -0.86,0 -1.44,-0.61 -1.44,-1.25 0,-0.35 0.29,-0.39 0.36,-0.39 0.17,0 0.37,0.12 0.37,0.37 0,0.13 -0.05,0.37 -0.41,0.37 0.22,0.49 0.69,0.65 1.02,0.65 0.69,0 1.06,-0.54 1.06,-1.11 0,-0.6 -0.43,-1.08 -0.66,-1.33 l -1.68,-1.66 c -0.06,-0.06 -0.06,-0.07 -0.06,-0.27 h 2.86 z"
   inkscape:connector-curvature="0"
   style="fill:#000000;stroke-width:0" />
</g>    <g
       style="font-style:normal;font-variant:normal;font-weight:normal;font-stretch:normal;letter-spacing:normal;word-spacing:normal;text-anchor:start;fill:none;stroke:#000000;stroke-linecap:butt;stroke-linejoin:miter;stroke-miterlimit:10.43299961;stroke-opacity:1;stroke-dasharray:none;stroke-dashoffset:0"
       id="g8799"
       transform="matrix(1,0,0,-1,-208.28642,1667.0291)"
       xml:space="preserve"
       stroke-miterlimit="10.433"
       font-style="normal"
       font-variant="normal"
       font-weight="normal"
       font-stretch="normal"
       font-size-adjust="none"
       letter-spacing="normal"
       word-spacing="normal"
       ns0:text="$O$"
       ns0:preamble="">
<path
   style="fill:#000000;stroke-width:0"
   inkscape:connector-curvature="0"
   d="m 230.81,711.46 0,0.15 -0.01,0.15 -0.02,0.14 -0.02,0.14 -0.03,0.13 -0.03,0.14 -0.04,0.12 -0.04,0.13 -0.05,0.12 -0.05,0.12 -0.06,0.11 -0.06,0.11 -0.07,0.1 -0.08,0.1 -0.07,0.09 -0.09,0.09 -0.08,0.09 -0.09,0.08 -0.1,0.08 -0.1,0.07 -0.1,0.06 -0.11,0.06 -0.11,0.06 -0.11,0.05 -0.12,0.04 -0.12,0.04 -0.12,0.03 -0.13,0.03 -0.13,0.02 -0.13,0.02 -0.14,0.01 -0.13,0 -0.06,-0.25 c 0.81,0 1.71,-0.55 1.71,-2.04 0,-0.71 -0.27,-2.27 -1.26,-3.49 -0.47,-0.61 -1.29,-1.2 -2.13,-1.2 h 0 c -0.99,0 -1.68,0.81 -1.68,2.12 0,0.44 0.14,1.9 0.91,3.06 0.68,1.04 1.66,1.55 2.45,1.55 l 0.06,0.25 c -2.16,0 -4.35,-2.26 -4.35,-4.58 0,-1.65 1.12,-2.65 2.55,-2.65 2.12,0 4.34,2.18 4.34,4.55 z"
   id="path8801" />
</g>    <g
       ns0:preamble=""
       ns0:text="$x_{2}$"
       word-spacing="normal"
       letter-spacing="normal"
       font-size-adjust="none"
       font-stretch="normal"
       font-weight="normal"
       font-variant="normal"
       font-style="normal"
       stroke-miterlimit="10.433"
       xml:space="preserve"
       transform="matrix(1.5332365,0,0,-1.976928,-250.72232,2384.7771)"
       id="g8885"
       style="font-style:normal;font-variant:normal;font-weight:normal;font-stretch:normal;letter-spacing:normal;word-spacing:normal;text-anchor:start;fill:none;stroke:#000000;stroke-linecap:butt;stroke-linejoin:miter;stroke-miterlimit:10.43299961;stroke-opacity:1;stroke-dasharray:none;stroke-dashoffset:0">
<path
   id="path8887"
   d="m 226.76,710.13 0.01,0.03 0,0.03 0.01,0.03 0.01,0.04 0.01,0.03 0.01,0.05 0.02,0.04 0.01,0.04 0.02,0.05 0.02,0.05 0.02,0.05 0.02,0.05 0.02,0.05 0.02,0.05 0.03,0.05 0.03,0.04 0.03,0.05 0.03,0.05 0.03,0.05 0.04,0.04 0.03,0.04 0.04,0.04 0.04,0.04 0.05,0.04 0.04,0.03 0.05,0.03 0.03,0.01 0.02,0.01 0.03,0.02 0.03,0.01 0.03,0 0.02,0.01 0.03,0.01 0.03,0 0.03,0.01 0.03,0 0.04,0 0.03,0 c 0.05,0 0.29,0 0.5,-0.12 -0.28,-0.05 -0.48,-0.3 -0.48,-0.54 0,-0.16 0.11,-0.35 0.38,-0.35 0.22,0 0.53,0.18 0.53,0.58 0,0.52 -0.58,0.65 -0.92,0.65 -0.58,0 -0.93,-0.52 -1.05,-0.75 -0.25,0.65 -0.79,0.75 -1.08,0.75 -1.03,0 -1.6,-1.28 -1.6,-1.53 0,-0.1 0.1,-0.1 0.12,-0.1 0.08,0 0.11,0.02 0.13,0.11 0.34,1.06 1,1.3 1.34,1.3 0.18,0 0.53,-0.08 0.53,-0.66 0,-0.31 -0.17,-0.98 -0.53,-2.37 -0.16,-0.62 -0.51,-1.04 -0.95,-1.04 -0.06,0 -0.29,0 -0.5,0.13 0.25,0.05 0.47,0.26 0.47,0.54 0,0.27 -0.22,0.35 -0.37,0.35 -0.3,0 -0.55,-0.26 -0.55,-0.58 0,-0.45 0.5,-0.65 0.94,-0.65 0.66,0 1.02,0.69 1.05,0.75 0.11,-0.37 0.47,-0.75 1.07,-0.75 1.03,0 1.6,1.28 1.6,1.53 0,0.1 -0.09,0.1 -0.12,0.1 -0.09,0 -0.11,-0.04 -0.13,-0.11 -0.33,-1.07 -1.01,-1.31 -1.33,-1.31 -0.39,0 -0.55,0.32 -0.55,0.66 0,0.22 0.06,0.44 0.17,0.88 z"
   inkscape:connector-curvature="0"
   style="fill:#000000;stroke-width:0" />
<path
   id="path8889"
   d="m 232.64,706.9 h -0.23 c -0.03,-0.16 -0.09,-0.57 -0.18,-0.64 -0.06,-0.04 -0.6,-0.04 -0.69,-0.04 h -1.29 c 0.74,0.65 0.98,0.84 1.4,1.17 0.51,0.41 0.99,0.84 0.99,1.5 0,0.84 -0.74,1.36 -1.63,1.36 -0.86,0 -1.44,-0.61 -1.44,-1.25 0,-0.35 0.29,-0.39 0.36,-0.39 0.17,0 0.37,0.12 0.37,0.37 0,0.13 -0.05,0.37 -0.41,0.37 0.22,0.49 0.69,0.65 1.02,0.65 0.69,0 1.06,-0.54 1.06,-1.11 0,-0.6 -0.43,-1.08 -0.66,-1.33 l -1.68,-1.66 c -0.06,-0.06 -0.06,-0.07 -0.06,-0.27 h 2.86 z"
   inkscape:connector-curvature="0"
   style="fill:#000000;stroke-width:0" />
</g>    <g
       style="font-style:normal;font-variant:normal;font-weight:normal;font-stretch:normal;letter-spacing:normal;word-spacing:normal;text-anchor:start;fill:none;stroke:#000000;stroke-linecap:butt;stroke-linejoin:miter;stroke-miterlimit:10.43299961;stroke-opacity:1;stroke-dasharray:none;stroke-dashoffset:0"
       id="g8979"
       transform="matrix(1,0,0,-1,-50,1737.5)"
       xml:space="preserve"
       stroke-miterlimit="10.433"
       font-style="normal"
       font-variant="normal"
       font-weight="normal"
       font-stretch="normal"
       font-size-adjust="none"
       letter-spacing="normal"
       word-spacing="normal"
       ns0:text="$B$"
       ns0:preamble="">
<path
   style="fill:#000000;stroke-width:0"
   inkscape:connector-curvature="0"
   d="m 225.03,707.9 -0.01,-0.03 -0.01,-0.04 -0.01,-0.03 -0.01,-0.03 -0.01,-0.03 -0.01,-0.03 -0.01,-0.02 -0.01,-0.03 -0.01,-0.02 -0.01,-0.02 -0.01,-0.02 -0.02,-0.02 -0.01,-0.01 -0.02,-0.02 -0.02,-0.01 -0.02,-0.02 -0.02,-0.01 -0.03,-0.01 -0.02,-0.01 -0.03,-0.01 -0.04,-0.01 -0.01,0 -0.02,-0.01 -0.02,0 -0.02,0 -0.02,0 -0.02,-0.01 -0.02,0 -0.02,0 -0.03,0 -0.02,-0.01 -0.03,0 -0.02,0 -0.03,0 -0.03,0 -0.03,0 -0.03,0 -0.03,0 -0.03,0 -0.03,-0.01 -0.04,0 -0.03,0 -0.04,0 c -0.17,0 -0.27,0 -0.27,-0.2 0,-0.1 0.09,-0.1 0.27,-0.1 h 3.56 c 1.57,0 2.75,1.17 2.75,2.15 0,0.71 -0.58,1.29 -1.55,1.4 1.04,0.19 2.09,0.92 2.09,1.87 0,0.74 -0.66,1.37 -1.86,1.37 l -0.14,-0.31 c 0.88,0 1.09,-0.58 1.09,-1.02 0,-0.88 -0.86,-1.82 -2.07,-1.82 h -1.46 l -0.06,-0.22 h 1.89 c 0.95,0 1.14,-0.74 1.14,-1.17 0,-0.98 -0.88,-1.95 -2.06,-1.95 h -1.36 c -0.14,0 -0.16,0 -0.22,0.01 -0.1,0.01 -0.12,0.02 -0.12,0.1 0,0.03 0,0.05 0.05,0.23 l 0.68,2.78 0.06,0.22 0.62,2.47 c 0.09,0.34 0.11,0.37 0.54,0.37 h 1.28 l 0.14,0.31 h -3.35 c -0.19,0 -0.28,0 -0.28,-0.2 0,-0.11 0.09,-0.11 0.28,-0.11 0.01,0 0.2,0 0.37,-0.02 0.18,-0.02 0.27,-0.03 0.27,-0.16 0,-0.03 -0.01,-0.07 -0.04,-0.18 z"
   id="path8981" />
</g>  </g>
  <g
     inkscape:label="Слой1"
     id="layer3"
     inkscape:groupmode="layer"
     style="display:inline;opacity:1">
    <g
       ns0:preamble=""
       ns0:text="$u+\\frac{\\partial u}{\\partial x_{2}}dx_{2}$"
       word-spacing="normal"
       letter-spacing="normal"
       font-size-adjust="none"
       font-stretch="normal"
       font-weight="normal"
       font-variant="normal"
       font-style="normal"
       stroke-miterlimit="10.433"
       xml:space="preserve"
       transform="matrix(1.1887407,0,0,-1.4061871,-11.973141,1218.0221)"
       id="g9077"
       style="font-style:normal;font-variant:normal;font-weight:normal;font-stretch:normal;letter-spacing:normal;word-spacing:normal;text-anchor:start;fill:none;stroke:#000000;stroke-linecap:butt;stroke-linejoin:miter;stroke-miterlimit:10.43299961;stroke-opacity:1;stroke-dasharray:none;stroke-dashoffset:0">
<path
   id="path9079"
   d="m 226.92,707.68 0.01,-0.04 0.01,-0.03 0.02,-0.04 0.01,-0.03 0.02,-0.04 0.02,-0.03 0.02,-0.03 0.02,-0.03 0.02,-0.03 0.02,-0.03 0.02,-0.03 0.03,-0.03 0.02,-0.02 0.03,-0.03 0.03,-0.02 0.02,-0.02 0.03,-0.03 0.03,-0.01 0.04,-0.02 0.03,-0.02 0.03,-0.02 0.03,-0.01 0.04,-0.02 0.03,-0.01 0.04,-0.01 0.04,-0.01 0.03,-0.01 0.04,0 0.04,-0.01 0.04,0 0.04,0 0.04,0 c 0.35,0 0.58,0.22 0.74,0.54 0.16,0.36 0.3,0.97 0.3,0.99 0,0.1 -0.09,0.1 -0.12,0.1 -0.1,0 -0.11,-0.04 -0.14,-0.18 -0.14,-0.56 -0.33,-1.24 -0.75,-1.24 -0.21,0 -0.31,0.13 -0.31,0.46 0,0.22 0.12,0.69 0.2,1.04 l 0.28,1.07 c 0.03,0.15 0.13,0.53 0.17,0.68 0.05,0.23 0.15,0.61 0.15,0.67 0,0.18 -0.14,0.26 -0.29,0.26 -0.05,0 -0.31,0 -0.39,-0.34 -0.19,-0.73 -0.63,-2.47 -0.75,-3 -0.01,-0.04 -0.41,-0.84 -1.14,-0.84 -0.51,0 -0.61,0.45 -0.61,0.82 0,0.56 0.28,1.34 0.53,2.03 0.12,0.3 0.17,0.44 0.17,0.63 0,0.45 -0.31,0.81 -0.81,0.81 -0.95,0 -1.32,-1.44 -1.32,-1.53 0,-0.1 0.1,-0.1 0.12,-0.1 0.1,0 0.11,0.02 0.16,0.18 0.25,0.87 0.63,1.23 1.01,1.23 0.09,0 0.25,-0.01 0.25,-0.32 0,-0.24 -0.11,-0.53 -0.17,-0.68 -0.37,-0.98 -0.58,-1.6 -0.58,-2.09 0,-0.95 0.69,-1.19 1.23,-1.19 0.65,0 1.01,0.44 1.18,0.66 z"
   inkscape:connector-curvature="0"
   style="fill:#000000;stroke-width:0" />
<path
   id="path9081"
   d="m 235.43,709.41 h 2.78 c 0.14,0 0.33,0 0.33,0.2 0,0.2 -0.19,0.2 -0.33,0.2 h -2.78 v 2.79 c 0,0.14 0,0.33 -0.2,0.33 -0.2,0 -0.2,-0.19 -0.2,-0.33 v -2.79 h -2.79 c -0.14,0 -0.33,0 -0.33,-0.2 0,-0.2 0.19,-0.2 0.33,-0.2 h 2.79 v -2.78 c 0,-0.14 0,-0.33 0.2,-0.33 0.2,0 0.2,0.19 0.2,0.33 z"
   inkscape:connector-curvature="0"
   style="fill:#000000;stroke-width:0" />
<path
   id="path9083"
   d="m 248.01,713.4 -0.01,0.04 -0.01,0.03 -0.01,0.04 -0.02,0.04 -0.01,0.04 -0.02,0.03 -0.02,0.04 -0.01,0.04 -0.03,0.03 -0.02,0.04 -0.02,0.03 -0.03,0.04 -0.02,0.03 -0.03,0.03 -0.03,0.03 -0.03,0.03 -0.04,0.03 -0.03,0.03 -0.04,0.02 -0.04,0.03 -0.04,0.02 -0.04,0.02 -0.04,0.02 -0.05,0.02 -0.04,0.01 -0.05,0.02 -0.05,0.01 -0.05,0.01 -0.06,0.01 -0.06,0 -0.05,0.01 -0.06,0 0.02,-0.2 c 0.68,0 0.9,-0.52 0.9,-0.94 0,-0.47 -0.45,-1.95 -1.62,-1.95 h 0 c -0.79,0 -0.88,0.59 -0.88,0.81 0,0.27 0.19,0.95 0.26,1.12 0.13,0.32 0.56,0.96 1.34,0.96 l -0.02,0.2 c -0.98,0 -1.79,-0.73 -2.04,-1.36 -0.04,-0.12 -0.14,-0.4 -0.14,-0.68 0,-0.48 0.38,-1.27 1.47,-1.27 1.8,0 2.53,2.25 2.53,3.23 0,1.19 -0.78,1.87 -1.71,1.87 -1.14,0 -1.45,-0.9 -1.45,-1.12 0,-0.05 0.03,-0.25 0.28,-0.25 0.24,0 0.39,0.22 0.39,0.39 0,0.18 -0.14,0.25 -0.27,0.26 0.34,0.52 0.92,0.52 1.03,0.52 0.53,0 1.14,-0.33 1.14,-1.31 0,-0.3 -0.03,-0.55 -0.16,-1.1 z"
   inkscape:connector-curvature="0"
   style="fill:#000000;stroke-width:0" />
<path
   id="path9085"
   d="m 251.98,712.17 0,-0.01 -0.01,-0.01 0,-0.02 0,-0.01 -0.01,-0.02 0,-0.01 -0.01,-0.02 0,-0.02 -0.01,-0.03 -0.01,-0.03 0,-0.04 -0.01,-0.01 0,-0.02 -0.01,-0.02 0,-0.01 0,-0.02 -0.01,-0.01 0,-0.01 -0.01,-0.02 0,-0.01 0,-0.01 0,-0.01 -0.01,-0.01 0,-0.01 0,0 0,0 0,-0.01 -0.01,0 0,0 0,0 0,0 0,-0.01 0,0 c -0.13,-0.21 -0.41,-0.59 -0.84,-0.59 -0.48,0 -0.48,0.46 -0.48,0.58 0,0.41 0.19,0.9 0.39,1.41 0.05,0.14 0.09,0.25 0.09,0.36 0,0.36 -0.3,0.59 -0.66,0.59 -0.69,0 -1.01,-0.95 -1.01,-1.06 0,-0.09 0.1,-0.09 0.12,-0.09 0.1,0 0.11,0.03 0.13,0.11 0.16,0.57 0.47,0.85 0.74,0.85 0.12,0 0.17,-0.08 0.17,-0.24 0,-0.16 -0.05,-0.31 -0.12,-0.47 -0.38,-0.96 -0.38,-1.16 -0.38,-1.35 0,-0.12 0,-0.44 0.26,-0.66 0.2,-0.17 0.48,-0.22 0.72,-0.22 0.44,0 0.68,0.24 0.9,0.46 0.16,-0.45 0.62,-0.46 0.71,-0.46 0.24,0 0.42,0.14 0.55,0.37 0.15,0.27 0.25,0.67 0.25,0.69 0,0.09 -0.1,0.09 -0.12,0.09 -0.1,0 -0.1,-0.03 -0.15,-0.21 -0.09,-0.33 -0.22,-0.75 -0.51,-0.75 -0.18,0 -0.23,0.16 -0.23,0.34 0,0.12 0.06,0.37 0.1,0.55 0.05,0.19 0.12,0.48 0.16,0.63 l 0.16,0.62 c 0.04,0.17 0.11,0.48 0.11,0.51 0,0.14 -0.11,0.22 -0.22,0.22 -0.26,0 -0.31,-0.2 -0.37,-0.42 z"
   inkscape:connector-curvature="0"
   style="fill:#000000;stroke-width:0" />
<line
   id="line9087"
   y2="709.62"
   x2="255.60001"
   y1="709.62"
   x1="242.50999"
   style="stroke-width:0.398" />
<path
   id="path9089"
   d="m 246.16,706.04 -0.01,0.04 -0.01,0.04 -0.01,0.03 -0.01,0.04 -0.02,0.04 -0.02,0.04 -0.01,0.03 -0.02,0.04 -0.02,0.03 -0.03,0.04 -0.02,0.03 -0.02,0.04 -0.03,0.03 -0.03,0.03 -0.03,0.03 -0.03,0.03 -0.03,0.03 -0.04,0.03 -0.04,0.02 -0.03,0.03 -0.04,0.02 -0.04,0.02 -0.05,0.02 -0.04,0.02 -0.05,0.02 -0.05,0.01 -0.05,0.01 -0.05,0.01 -0.06,0.01 -0.05,0.01 -0.06,0 -0.06,0 0.03,-0.19 c 0.67,0 0.89,-0.53 0.89,-0.95 0,-0.47 -0.45,-1.95 -1.62,-1.95 h 0 c -0.79,0 -0.88,0.59 -0.88,0.81 0,0.27 0.19,0.95 0.26,1.13 0.13,0.32 0.56,0.96 1.35,0.96 l -0.03,0.19 c -0.98,0 -1.78,-0.73 -2.04,-1.35 -0.04,-0.12 -0.13,-0.41 -0.13,-0.69 0,-0.48 0.37,-1.27 1.46,-1.27 1.8,0 2.53,2.25 2.53,3.23 0,1.19 -0.78,1.88 -1.71,1.88 -1.14,0 -1.45,-0.91 -1.45,-1.13 0,-0.05 0.03,-0.25 0.28,-0.25 0.24,0 0.39,0.22 0.39,0.39 0,0.18 -0.14,0.25 -0.27,0.26 0.35,0.52 0.92,0.52 1.04,0.52 0.52,0 1.14,-0.32 1.14,-1.31 0,-0.3 -0.04,-0.54 -0.17,-1.1 z"
   inkscape:connector-curvature="0"
   style="fill:#000000;stroke-width:0" />
<path
   id="path9091"
   d="m 248.93,704.43 -0.01,-0.03 -0.01,-0.02 -0.01,-0.02 -0.01,-0.03 -0.01,-0.02 -0.01,-0.03 -0.01,-0.02 -0.01,-0.03 -0.02,-0.02 -0.01,-0.03 -0.02,-0.03 -0.02,-0.02 -0.01,-0.03 -0.02,-0.02 -0.02,-0.02 -0.02,-0.03 -0.02,-0.02 -0.02,-0.02 -0.03,-0.02 -0.02,-0.02 -0.03,-0.02 -0.02,-0.02 -0.03,-0.02 -0.02,-0.01 -0.03,-0.02 -0.03,-0.01 -0.03,-0.01 -0.03,-0.01 -0.03,-0.01 -0.03,0 -0.03,0 -0.04,0 c -0.02,0 -0.23,0 -0.37,0.09 0.28,0.09 0.3,0.34 0.3,0.38 0,0.16 -0.11,0.26 -0.27,0.26 -0.2,0 -0.4,-0.16 -0.4,-0.42 0,-0.35 0.39,-0.51 0.73,-0.51 0.32,0 0.61,0.2 0.78,0.49 0.17,-0.36 0.55,-0.49 0.83,-0.49 0.8,0 1.22,0.87 1.22,1.06 0,0.1 -0.09,0.1 -0.11,0.1 -0.1,0 -0.1,-0.04 -0.13,-0.12 -0.15,-0.48 -0.56,-0.84 -0.95,-0.84 -0.28,0 -0.43,0.18 -0.43,0.45 0,0.18 0.17,0.81 0.36,1.58 0.14,0.54 0.46,0.71 0.69,0.71 0.01,0 0.23,0 0.37,-0.1 -0.22,-0.06 -0.3,-0.25 -0.3,-0.38 0,-0.15 0.11,-0.25 0.27,-0.25 0.16,0 0.39,0.13 0.39,0.42 0,0.39 -0.44,0.51 -0.72,0.51 -0.35,0 -0.63,-0.23 -0.78,-0.5 -0.12,0.29 -0.45,0.5 -0.84,0.5 -0.78,0 -1.22,-0.86 -1.22,-1.07 0,-0.09 0.1,-0.09 0.12,-0.09 0.09,0 0.09,0.03 0.13,0.12 0.17,0.54 0.61,0.84 0.95,0.84 0.23,0 0.42,-0.12 0.42,-0.46 0,-0.14 -0.08,-0.48 -0.15,-0.72 z"
   inkscape:connector-curvature="0"
   style="fill:#000000;stroke-width:0" />
<path
   id="path9093"
   d="m 254.64,703.65 h -0.21 c -0.02,-0.09 -0.06,-0.4 -0.14,-0.45 -0.04,-0.03 -0.46,-0.03 -0.54,-0.03 h -0.97 c 0.33,0.24 0.7,0.52 0.99,0.72 0.45,0.31 0.87,0.6 0.87,1.12 0,0.64 -0.6,0.99 -1.31,0.99 -0.68,0 -1.17,-0.39 -1.17,-0.87 0,-0.26 0.22,-0.31 0.29,-0.31 0.14,0 0.29,0.09 0.29,0.3 0,0.17 -0.13,0.28 -0.28,0.29 0.14,0.22 0.43,0.37 0.76,0.37 0.48,0 0.89,-0.29 0.89,-0.77 0,-0.42 -0.29,-0.74 -0.68,-1.06 l -1.21,-1.03 c -0.05,-0.04 -0.05,-0.04 -0.06,-0.08 v -0.15 h 2.32 z"
   inkscape:connector-curvature="0"
   style="fill:#000000;stroke-width:0" />
<path
   id="path9095"
   d="m 261.94,713.92 0,0 0,0 0,0.01 0,0 0,0 0,0 0,0.01 -0.01,0 0,0 0,0.01 0,0 0,0.01 0,0 0,0.01 0,0 -0.01,0.01 0,0 0,0.01 -0.01,0 0,0.01 -0.01,0 0,0 0,0 0,0.01 -0.01,0 0,0 0,0 -0.01,0 0,0.01 0,0 -0.01,0 0,0 0,0 -0.01,0 0,0.01 -0.01,0 0,0 -0.01,0 0,0 -0.01,0 0,0 -0.01,0 0,0 -0.01,0 0,0 c -0.15,0 -1.1,-0.09 -1.27,-0.11 -0.08,-0.01 -0.14,-0.06 -0.14,-0.19 0,-0.12 0.09,-0.12 0.24,-0.12 0.48,0 0.5,-0.07 0.5,-0.16 l -0.03,-0.2 -0.6,-2.36 c -0.18,0.37 -0.47,0.63 -0.92,0.63 -1.16,0 -2.4,-1.46 -2.4,-2.91 0,-0.94 0.55,-1.59 1.33,-1.59 l 0.02,0.21 c -0.5,0 -0.64,0.55 -0.64,0.94 0,0.5 0.32,1.72 0.55,2.18 0.31,0.59 0.75,0.95 1.15,0.95 0.65,0 0.79,-0.81 0.79,-0.87 0,-0.06 -0.02,-0.12 -0.03,-0.17 l -0.5,-1.95 c -0.05,-0.18 -0.05,-0.2 -0.2,-0.37 -0.44,-0.55 -0.84,-0.71 -1.12,-0.71 l -0.02,-0.21 c 0.2,0 0.69,0.03 1.29,0.74 0.08,-0.42 0.43,-0.74 0.91,-0.74 0.35,0 0.58,0.22 0.74,0.54 0.17,0.36 0.3,0.97 0.3,0.99 0,0.1 -0.09,0.1 -0.12,0.1 -0.1,0 -0.11,-0.04 -0.14,-0.18 -0.17,-0.65 -0.35,-1.24 -0.76,-1.24 -0.27,0 -0.3,0.26 -0.3,0.46 0,0.24 0.02,0.31 0.06,0.48 z"
   inkscape:connector-curvature="0"
   style="fill:#000000;stroke-width:0" />
<path
   id="path9097"
   d="m 265.31,710.13 0,0.03 0.01,0.03 0.01,0.03 0.01,0.04 0.01,0.03 0.01,0.05 0.01,0.04 0.02,0.04 0.01,0.05 0.02,0.05 0.02,0.05 0.02,0.05 0.02,0.05 0.03,0.05 0.02,0.05 0.03,0.04 0.03,0.05 0.03,0.05 0.04,0.05 0.03,0.04 0.04,0.04 0.04,0.04 0.04,0.04 0.04,0.04 0.05,0.03 0.05,0.03 0.02,0.01 0.03,0.01 0.03,0.02 0.02,0.01 0.03,0 0.03,0.01 0.03,0.01 0.03,0 0.03,0.01 0.03,0 0.03,0 0.03,0 c 0.05,0 0.29,0 0.5,-0.12 -0.28,-0.05 -0.48,-0.3 -0.48,-0.54 0,-0.16 0.11,-0.35 0.38,-0.35 0.22,0 0.54,0.18 0.54,0.58 0,0.52 -0.59,0.65 -0.93,0.65 -0.57,0 -0.92,-0.52 -1.04,-0.75 -0.25,0.65 -0.79,0.75 -1.08,0.75 -1.04,0 -1.6,-1.28 -1.6,-1.53 0,-0.1 0.09,-0.1 0.12,-0.1 0.07,0 0.1,0.02 0.13,0.11 0.33,1.06 0.99,1.3 1.33,1.3 0.19,0 0.54,-0.08 0.54,-0.66 0,-0.31 -0.17,-0.98 -0.54,-2.37 -0.16,-0.62 -0.51,-1.04 -0.95,-1.04 -0.06,0 -0.29,0 -0.5,0.13 0.25,0.05 0.47,0.26 0.47,0.54 0,0.27 -0.22,0.35 -0.36,0.35 -0.3,0 -0.55,-0.26 -0.55,-0.58 0,-0.45 0.5,-0.65 0.93,-0.65 0.66,0 1.02,0.69 1.05,0.75 0.12,-0.37 0.48,-0.75 1.08,-0.75 1.02,0 1.59,1.28 1.59,1.53 0,0.1 -0.09,0.1 -0.12,0.1 -0.09,0 -0.11,-0.04 -0.13,-0.11 -0.33,-1.07 -1,-1.31 -1.32,-1.31 -0.39,0 -0.55,0.32 -0.55,0.66 0,0.22 0.06,0.44 0.17,0.88 z"
   inkscape:connector-curvature="0"
   style="fill:#000000;stroke-width:0" />
<path
   id="path9099"
   d="m 271.19,706.9 h -0.24 c -0.02,-0.16 -0.09,-0.57 -0.18,-0.64 -0.06,-0.04 -0.59,-0.04 -0.69,-0.04 h -1.28 c 0.73,0.65 0.97,0.84 1.39,1.17 0.52,0.41 1,0.84 1,1.5 0,0.84 -0.74,1.36 -1.63,1.36 -0.86,0 -1.45,-0.61 -1.45,-1.25 0,-0.35 0.3,-0.39 0.37,-0.39 0.17,0 0.37,0.12 0.37,0.37 0,0.13 -0.05,0.37 -0.41,0.37 0.21,0.49 0.69,0.65 1.01,0.65 0.7,0 1.06,-0.54 1.06,-1.11 0,-0.6 -0.43,-1.08 -0.65,-1.33 l -1.68,-1.66 c -0.07,-0.06 -0.07,-0.07 -0.07,-0.27 h 2.87 z"
   inkscape:connector-curvature="0"
   style="fill:#000000;stroke-width:0" />
</g>  </g>
</svg>
