<?xml version="1.0" encoding="UTF-8" standalone="no"?>
<!-- Created with Inkscape (http://www.inkscape.org/) -->

<svg
   xmlns:dc="http://purl.org/dc/elements/1.1/"
   xmlns:cc="http://creativecommons.org/ns#"
   xmlns:rdf="http://www.w3.org/1999/02/22-rdf-syntax-ns#"
   xmlns:svg="http://www.w3.org/2000/svg"
   xmlns="http://www.w3.org/2000/svg"
   xmlns:sodipodi="http://sodipodi.sourceforge.net/DTD/sodipodi-0.dtd"
   xmlns:inkscape="http://www.inkscape.org/namespaces/inkscape"
   width="165.3963"
   height="123.97916"
   id="svg2"
   version="1.1"
   inkscape:version="0.48.0 r9654"
   sodipodi:docname="sur.svg"
   style="enable-background:new">
  <sodipodi:namedview
     id="base"
     pagecolor="#ffffff"
     bordercolor="#666666"
     borderopacity="1.0"
     inkscape:pageopacity="0.0"
     inkscape:pageshadow="2"
     inkscape:zoom="1"
     inkscape:cx="135.08847"
     inkscape:cy="83.808658"
     inkscape:document-units="cm"
     inkscape:current-layer="layer3"
     showgrid="true"
     inkscape:window-width="800"
     inkscape:window-height="578"
     inkscape:window-x="-4"
     inkscape:window-y="-4"
     inkscape:window-maximized="1"
     units="cm"
     width="9.2cm"
     showguides="true"
     inkscape:guide-bbox="true"
     inkscape:showpageshadow="false"
     objecttolerance="4"
     gridtolerance="4"
     fit-margin-top="0"
     fit-margin-left="0"
     fit-margin-right="0"
     fit-margin-bottom="0">
    <inkscape:grid
       type="xygrid"
       id="grid3254"
       empspacing="5"
       visible="true"
       enabled="true"
       snapvisiblegridlinesonly="true" />
  </sodipodi:namedview>
  <defs
     id="defs4"><marker
   inkscape:stockid="Arrow1Send"
   orient="auto"
   refY="0"
   refX="0"
   id="Arrow1Send"
   style="overflow:visible">
  <path
     id="path3997"
     d="M 0,0 5,-5 -12.5,0 5,5 0,0 z"
     style="fill-rule:evenodd;stroke:#000000;stroke-width:1pt;marker-start:none"
     transform="matrix(-0.2,0,0,-0.2,-1.2,0)"
     inkscape:connector-curvature="0" />
</marker>
<marker
   inkscape:stockid="Arrow1Sstart"
   orient="auto"
   refY="0"
   refX="0"
   id="Arrow1Sstart"
   style="overflow:visible">
  <path
     id="path3994"
     d="M 0,0 5,-5 -12.5,0 5,5 0,0 z"
     style="fill-rule:evenodd;stroke:#000000;stroke-width:1pt;marker-start:none"
     transform="matrix(0.2,0,0,0.2,1.2,0)"
     inkscape:connector-curvature="0" />
</marker>
<marker
   inkscape:stockid="Arrow1Mend"
   orient="auto"
   refY="0"
   refX="0"
   id="Arrow1Mend"
   style="overflow:visible">
  <path
     id="path3991"
     d="M 0,0 5,-5 -12.5,0 5,5 0,0 z"
     style="fill-rule:evenodd;stroke:#000000;stroke-width:1pt;marker-start:none"
     transform="matrix(-0.4,0,0,-0.4,-4,0)"
     inkscape:connector-curvature="0" />
</marker>
<marker
   inkscape:stockid="Arrow1Mstart"
   orient="auto"
   refY="0"
   refX="0"
   id="Arrow1Mstart"
   style="overflow:visible">
  <path
     id="path3988"
     d="M 0,0 5,-5 -12.5,0 5,5 0,0 z"
     style="fill-rule:evenodd;stroke:#000000;stroke-width:1pt;marker-start:none"
     transform="matrix(0.4,0,0,0.4,4,0)"
     inkscape:connector-curvature="0" />
</marker>
<marker
   inkscape:stockid="Arrow2Lend"
   orient="auto"
   refY="0"
   refX="0"
   id="Arrow2Lend"
   style="overflow:visible">
  <path
     id="path4003"
     style="font-size:12px;fill-rule:evenodd;stroke-width:0.625;stroke-linejoin:round"
     d="M 8.7185878,4.0337352 -2.2072895,0.01601326 8.7185884,-4.0017078 c -1.7454984,2.3720609 -1.7354408,5.6174519 -6e-7,8.035443 z"
     transform="matrix(-1.1,0,0,-1.1,-1.1,0)"
     inkscape:connector-curvature="0" />
</marker>
<marker
   inkscape:stockid="Arrow2Lstart"
   orient="auto"
   refY="0"
   refX="0"
   id="Arrow2Lstart"
   style="overflow:visible">
  <path
     id="path4000"
     style="font-size:12px;fill-rule:evenodd;stroke-width:0.625;stroke-linejoin:round"
     d="M 8.7185878,4.0337352 -2.2072895,0.01601326 8.7185884,-4.0017078 c -1.7454984,2.3720609 -1.7354408,5.6174519 -6e-7,8.035443 z"
     transform="matrix(1.1,0,0,1.1,1.1,0)"
     inkscape:connector-curvature="0" />
</marker>
<marker
   style="overflow:visible"
   id="Arrow1Lend"
   refX="0"
   refY="0"
   orient="auto"
   inkscape:stockid="Arrow1Lend">
  <path
     transform="matrix(-0.8,0,0,-0.8,-10,0)"
     style="fill-rule:evenodd;stroke:#000000;stroke-width:1pt;marker-start:none"
     d="M 0,0 5,-5 -12.5,0 5,5 0,0 z"
     id="path4440"
     inkscape:connector-curvature="0" />
</marker>
<marker
   style="overflow:visible"
   id="Arrow1Lstart"
   refX="0"
   refY="0"
   orient="auto"
   inkscape:stockid="Arrow1Lstart">
  <path
     transform="matrix(0.8,0,0,0.8,10,0)"
     style="fill-rule:evenodd;stroke:#000000;stroke-width:1pt;marker-start:none"
     d="M 0,0 5,-5 -12.5,0 5,5 0,0 z"
     id="path4437"
     inkscape:connector-curvature="0" />
</marker>
<marker
   inkscape:stockid="Arrow2Lstart"
   orient="auto"
   refY="0"
   refX="0"
   id="Arrow2Lstart-4"
   style="overflow:visible">
  <path
     inkscape:connector-curvature="0"
     id="path4000-4"
     style="font-size:12px;fill-rule:evenodd;stroke-width:0.625;stroke-linejoin:round"
     d="M 8.7185878,4.0337352 -2.2072895,0.01601326 8.7185884,-4.0017078 c -1.7454984,2.3720609 -1.7354408,5.6174519 -6e-7,8.035443 z"
     transform="matrix(1.1,0,0,1.1,1.1,0)" />
</marker>
<marker
   inkscape:stockid="Arrow2Lend"
   orient="auto"
   refY="0"
   refX="0"
   id="Arrow2Lend-3"
   style="overflow:visible">
  <path
     inkscape:connector-curvature="0"
     id="path4003-0"
     style="font-size:12px;fill-rule:evenodd;stroke-width:0.625;stroke-linejoin:round"
     d="M 8.7185878,4.0337352 -2.2072895,0.01601326 8.7185884,-4.0017078 c -1.7454984,2.3720609 -1.7354408,5.6174519 -6e-7,8.035443 z"
     transform="matrix(-1.1,0,0,-1.1,-1.1,0)" />
</marker>
<marker
   inkscape:stockid="Arrow2Lend"
   orient="auto"
   refY="0"
   refX="0"
   id="marker7119"
   style="overflow:visible">
  <path
     inkscape:connector-curvature="0"
     id="path7121"
     style="font-size:12px;fill-rule:evenodd;stroke-width:0.625;stroke-linejoin:round"
     d="M 8.7185878,4.0337352 -2.2072895,0.01601326 8.7185884,-4.0017078 c -1.7454984,2.3720609 -1.7354408,5.6174519 -6e-7,8.035443 z"
     transform="matrix(-1.1,0,0,-1.1,-1.1,0)" />
</marker>
<marker
   inkscape:stockid="Arrow1Mstart"
   orient="auto"
   refY="0"
   refX="0"
   id="Arrow1Mstart-3"
   style="overflow:visible">
  <path
     inkscape:connector-curvature="0"
     id="path3988-7"
     d="M 0,0 5,-5 -12.5,0 5,5 0,0 z"
     style="fill-rule:evenodd;stroke:#000000;stroke-width:1pt;marker-start:none"
     transform="matrix(0.4,0,0,0.4,4,0)" />
</marker>
<marker
   inkscape:stockid="Arrow1Mend"
   orient="auto"
   refY="0"
   refX="0"
   id="Arrow1Mend-5"
   style="overflow:visible">
  <path
     inkscape:connector-curvature="0"
     id="path3991-5"
     d="M 0,0 5,-5 -12.5,0 5,5 0,0 z"
     style="fill-rule:evenodd;stroke:#000000;stroke-width:1pt;marker-start:none"
     transform="matrix(-0.4,0,0,-0.4,-4,0)" />
</marker>
<marker
   inkscape:stockid="Arrow1Mend"
   orient="auto"
   refY="0"
   refX="0"
   id="Arrow1Mend-4"
   style="overflow:visible">
  <path
     inkscape:connector-curvature="0"
     id="path3991-2"
     d="M 0,0 5,-5 -12.5,0 5,5 0,0 z"
     style="fill-rule:evenodd;stroke:#000000;stroke-width:1pt;marker-start:none"
     transform="matrix(-0.4,0,0,-0.4,-4,0)" />
</marker>
<marker
   inkscape:stockid="Arrow1Mend"
   orient="auto"
   refY="0"
   refX="0"
   id="Arrow1Mend-4-2"
   style="overflow:visible">
  <path
     inkscape:connector-curvature="0"
     id="path3991-2-4"
     d="M 0,0 5,-5 -12.5,0 5,5 0,0 z"
     style="fill-rule:evenodd;stroke:#000000;stroke-width:1pt;marker-start:none"
     transform="matrix(-0.4,0,0,-0.4,-4,0)" />
</marker>
<marker
   inkscape:stockid="Arrow1Mend"
   orient="auto"
   refY="0"
   refX="0"
   id="Arrow1Mend-4-5"
   style="overflow:visible">
  <path
     inkscape:connector-curvature="0"
     id="path3991-2-1"
     d="M 0,0 5,-5 -12.5,0 5,5 0,0 z"
     style="fill-rule:evenodd;stroke:#000000;stroke-width:1pt;marker-start:none"
     transform="matrix(-0.4,0,0,-0.4,-4,0)" />
</marker>
<marker
   inkscape:stockid="Arrow1Mend"
   orient="auto"
   refY="0"
   refX="0"
   id="Arrow1Mend-4-1"
   style="overflow:visible">
  <path
     inkscape:connector-curvature="0"
     id="path3991-2-15"
     d="M 0,0 5,-5 -12.5,0 5,5 0,0 z"
     style="fill-rule:evenodd;stroke:#000000;stroke-width:1pt;marker-start:none"
     transform="matrix(-0.4,0,0,-0.4,-4,0)" />
</marker>
<marker
   inkscape:stockid="Arrow1Mend"
   orient="auto"
   refY="0"
   refX="0"
   id="Arrow1Mend-4-7"
   style="overflow:visible">
  <path
     inkscape:connector-curvature="0"
     id="path3991-2-6"
     d="M 0,0 5,-5 -12.5,0 5,5 0,0 z"
     style="fill-rule:evenodd;stroke:#000000;stroke-width:1pt;marker-start:none"
     transform="matrix(-0.4,0,0,-0.4,-4,0)" />
</marker>
<marker
   inkscape:stockid="Arrow1Mend"
   orient="auto"
   refY="0"
   refX="0"
   id="Arrow1Mend-4-4"
   style="overflow:visible">
  <path
     inkscape:connector-curvature="0"
     id="path3991-2-2"
     d="M 0,0 5,-5 -12.5,0 5,5 0,0 z"
     style="fill-rule:evenodd;stroke:#000000;stroke-width:1pt;marker-start:none"
     transform="matrix(-0.4,0,0,-0.4,-4,0)" />
</marker>








</defs>
  <metadata
     id="metadata7">
    <rdf:RDF>
      <cc:Work
         rdf:about="">
        <dc:format>image/svg+xml</dc:format>
        <dc:type
           rdf:resource="http://purl.org/dc/dcmitype/StillImage" />
        <dc:title></dc:title>
      </cc:Work>
    </rdf:RDF>
  </metadata>
  <g
     inkscape:groupmode="layer"
     id="layer5"
     inkscape:label="Надписи"
     style="display:none"
     transform="translate(-30.8738,-16.84649)" />
  <g
     inkscape:groupmode="layer"
     id="layer4"
     inkscape:label="Слой3"
     style="display:none"
     transform="translate(-30.8738,-16.84649)" />
  <g
     inkscape:label="Слой2"
     id="layer2"
     inkscape:groupmode="layer"
     transform="translate(-30.8738,-821.17595)"
     style="display:none">
    <text
       sodipodi:linespacing="125%"
       id="text3997"
       y="849.18628"
       x="114.07245"
       style="font-size:12px;font-style:normal;font-variant:normal;font-weight:normal;font-stretch:normal;line-height:125%;letter-spacing:0px;word-spacing:0px;fill:#000000;fill-opacity:1;stroke:none;font-family:cmmi12;-inkscape-font-specification:cmmi12"
       xml:space="preserve"><tspan
         y="849.18628"
         x="114.07245"
         id="tspan3999"
         sodipodi:role="line" /></text>
    <text
       sodipodi:linespacing="125%"
       id="text4001"
       y="739.52142"
       x="257.33582"
       style="font-size:12px;font-style:normal;font-variant:normal;font-weight:normal;font-stretch:normal;line-height:125%;letter-spacing:0px;word-spacing:0px;fill:#000000;fill-opacity:1;stroke:none;font-family:cmmi12;-inkscape-font-specification:cmmi12"
       xml:space="preserve"><tspan
         y="739.52142"
         x="257.33582"
         id="tspan4003"
         sodipodi:role="line">  </tspan></text>
    <text
       sodipodi:linespacing="125%"
       id="text4009"
       y="837.7204"
       x="125.36874"
       style="font-size:12px;font-style:normal;font-variant:normal;font-weight:normal;font-stretch:normal;line-height:125%;letter-spacing:0px;word-spacing:0px;fill:#000000;fill-opacity:1;stroke:none;font-family:cmmi12;-inkscape-font-specification:cmmi12"
       xml:space="preserve"><tspan
         y="837.7204"
         x="125.36874"
         id="tspan4011"
         sodipodi:role="line" /></text>
  </g>
  <g
     inkscape:label="Слой1"
     id="layer3"
     inkscape:groupmode="layer"
     style="display:inline"
     transform="translate(-30.8738,-16.84649)">
    <g
       transform="matrix(1.25,0,0,-1.25,0,1052.5)"
       inkscape:label="ink_ext_XXXXXX"
       id="g3521">
      <g
         transform="scale(0.1,0.1)"
         id="g3523" />
    </g>
    <g
       transform="matrix(1.25,0,0,-1.25,0,1052.5)"
       inkscape:label="ink_ext_XXXXXX"
       id="g3535">
      <g
         transform="scale(0.1,0.1)"
         id="g3537" />
    </g>
    <text
       xml:space="preserve"
       style="font-size:14.93999958px;font-style:normal;font-variant:normal;font-weight:normal;font-stretch:normal;line-height:125%;letter-spacing:0px;word-spacing:0px;fill:#000000;fill-opacity:1;stroke:none;font-family:cmmi12;-inkscape-font-specification:cmmi12"
       x="104"
       y="224.03149"
       id="text6249"
       sodipodi:linespacing="125%"><tspan
         sodipodi:role="line"
         id="tspan6251"
         x="104"
         y="224.03149" /></text>
    <path
       inkscape:connector-curvature="0"
       id="path5224"
       d="m 70,38.031494 89.80613,0"
       style="fill:none;stroke:#000000;stroke-width:0.99212599;stroke-linecap:butt;stroke-linejoin:miter;stroke-miterlimit:4;stroke-opacity:1;stroke-dasharray:none;marker-end:url(#Arrow1Mend-4)" />
    <path
       inkscape:connector-curvature="0"
       id="path5224-5"
       d="m 70,58.031494 89.80613,0"
       style="fill:none;stroke:#000000;stroke-width:1px;stroke-linecap:butt;stroke-linejoin:miter;stroke-opacity:1;marker-end:url(#Arrow1Mend-4);display:inline" />
    <path
       inkscape:connector-curvature="0"
       id="path5224-7"
       d="m 70,78.031494 89.80613,0"
       style="fill:none;stroke:#000000;stroke-width:1px;stroke-linecap:butt;stroke-linejoin:miter;stroke-opacity:1;marker-end:url(#Arrow1Mend-4);display:inline" />
    <path
       inkscape:connector-curvature="0"
       id="path5224-2"
       d="m 70,98.031494 89.80613,0"
       style="fill:none;stroke:#000000;stroke-width:1px;stroke-linecap:butt;stroke-linejoin:miter;stroke-opacity:1;marker-end:url(#Arrow1Mend-4);display:inline" />
    <path
       inkscape:connector-curvature="0"
       id="path5224-1"
       d="m 70,118.03149 89.80613,0"
       style="fill:none;stroke:#000000;stroke-width:1px;stroke-linecap:butt;stroke-linejoin:miter;stroke-opacity:1;marker-end:url(#Arrow1Mend-4);display:inline" />
    <path
       sodipodi:nodetypes="cc"
       inkscape:connector-curvature="0"
       id="path5224-3"
       d="m 70,138.03149 90,-15.55635"
       style="fill:none;stroke:#000000;stroke-width:1px;stroke-linecap:butt;stroke-linejoin:miter;stroke-opacity:1;marker-end:url(#Arrow1Mend-4);display:inline" />
    <path
       transform="translate(0.82470703,0.26018524)"
       d="m 169.17529,97.771309 c 0,1.269204 -0.93467,2.298101 -2.08764,2.298101 -1.15298,0 -2.08765,-1.028897 -2.08765,-2.298101 0,-1.269204 0.93467,-2.298097 2.08765,-2.298097 1.15297,0 2.08764,1.028893 2.08764,2.298097 z"
       sodipodi:ry="2.2980969"
       sodipodi:rx="2.0876465"
       sodipodi:cy="97.771309"
       sodipodi:cx="167.08765"
       id="path6094"
       style="fill:#2b0000;stroke:#000000;stroke-width:0.99212599;stroke-linecap:square;stroke-linejoin:bevel;stroke-miterlimit:4;stroke-opacity:1;stroke-dasharray:none;stroke-dashoffset:0"
       sodipodi:type="arc" />
    <path
       inkscape:transform-center-x="1.9123535"
       transform="translate(0.82470703,22.260185)"
       d="m 169.17529,97.771309 c 0,1.269204 -0.93467,2.298101 -2.08764,2.298101 -1.15298,0 -2.08765,-1.028897 -2.08765,-2.298101 0,-1.269204 0.93467,-2.298097 2.08765,-2.298097 1.15297,0 2.08764,1.028893 2.08764,2.298097 z"
       sodipodi:ry="2.2980969"
       sodipodi:rx="2.0876465"
       sodipodi:cy="97.771309"
       sodipodi:cx="167.08765"
       id="path6094-2"
       style="fill:#2b0000;stroke:#000000;stroke-width:0.99212599;stroke-linecap:square;stroke-linejoin:bevel;stroke-miterlimit:4;stroke-opacity:1;stroke-dasharray:none;stroke-dashoffset:0;display:inline"
       sodipodi:type="arc" />
    <path
       transform="translate(0.37499999,-19.739815)"
       d="m 169.17529,97.771309 c 0,1.269204 -0.93467,2.298101 -2.08764,2.298101 -1.15298,0 -2.08765,-1.028897 -2.08765,-2.298101 0,-1.269204 0.93467,-2.298097 2.08765,-2.298097 1.15297,0 2.08764,1.028893 2.08764,2.298097 z"
       sodipodi:ry="2.2980969"
       sodipodi:rx="2.0876465"
       sodipodi:cy="97.771309"
       sodipodi:cx="167.08765"
       id="path6094-21"
       style="fill:#2b0000;stroke:#000000;stroke-width:0.99212599;stroke-linecap:square;stroke-linejoin:bevel;stroke-miterlimit:4;stroke-opacity:1;stroke-dasharray:none;stroke-dashoffset:0;display:inline"
       sodipodi:type="arc" />
    <path
       transform="translate(0.32470702,-39.739815)"
       d="m 169.17529,97.771309 c 0,1.269204 -0.93467,2.298101 -2.08764,2.298101 -1.15298,0 -2.08765,-1.028897 -2.08765,-2.298101 0,-1.269204 0.93467,-2.298097 2.08765,-2.298097 1.15297,0 2.08764,1.028893 2.08764,2.298097 z"
       sodipodi:ry="2.2980969"
       sodipodi:rx="2.0876465"
       sodipodi:cy="97.771309"
       sodipodi:cx="167.08765"
       id="path6094-21-6"
       style="fill:#2b0000;stroke:#000000;stroke-width:0.99212599;stroke-linecap:square;stroke-linejoin:bevel;stroke-miterlimit:4;stroke-opacity:1;stroke-dasharray:none;stroke-dashoffset:0;display:inline"
       sodipodi:type="arc" />
    <path
       transform="translate(0.47484937,-59.441718)"
       d="m 169.17529,97.771309 c 0,1.269204 -0.93467,2.298101 -2.08764,2.298101 -1.15298,0 -2.08765,-1.028897 -2.08765,-2.298101 0,-1.269204 0.93467,-2.298097 2.08765,-2.298097 1.15297,0 2.08764,1.028893 2.08764,2.298097 z"
       sodipodi:ry="2.2980969"
       sodipodi:rx="2.0876465"
       sodipodi:cy="97.771309"
       sodipodi:cx="167.08765"
       id="path6094-21-6-8"
       style="fill:#2b0000;stroke:#000000;stroke-width:0.99212599;stroke-linecap:square;stroke-linejoin:bevel;stroke-miterlimit:4;stroke-opacity:1;stroke-dasharray:none;stroke-dashoffset:0;display:inline"
       sodipodi:type="arc" />
    <path
       transform="translate(-104.61723,-59.739815)"
       d="m 169.17529,97.771309 c 0,1.269204 -0.93467,2.298101 -2.08764,2.298101 -1.15298,0 -2.08765,-1.028897 -2.08765,-2.298101 0,-1.269204 0.93467,-2.298097 2.08765,-2.298097 1.15297,0 2.08764,1.028893 2.08764,2.298097 z"
       sodipodi:ry="2.2980969"
       sodipodi:rx="2.0876465"
       sodipodi:cy="97.771309"
       sodipodi:cx="167.08765"
       id="path6094-21-6-5"
       style="fill:#2b0000;stroke:#000000;stroke-width:0.99212599;stroke-linecap:square;stroke-linejoin:bevel;stroke-miterlimit:4;stroke-opacity:1;stroke-dasharray:none;stroke-dashoffset:0;display:inline"
       sodipodi:type="arc" />
    <path
       transform="translate(-104.55732,-39.739815)"
       d="m 169.17529,97.771309 c 0,1.269204 -0.93467,2.298101 -2.08764,2.298101 -1.15298,0 -2.08765,-1.028897 -2.08765,-2.298101 0,-1.269204 0.93467,-2.298097 2.08765,-2.298097 1.15297,0 2.08764,1.028893 2.08764,2.298097 z"
       sodipodi:ry="2.2980969"
       sodipodi:rx="2.0876465"
       sodipodi:cy="97.771309"
       sodipodi:cx="167.08765"
       id="path6094-21-6-7"
       style="fill:#2b0000;stroke:#000000;stroke-width:0.99212599;stroke-linecap:square;stroke-linejoin:bevel;stroke-miterlimit:4;stroke-opacity:1;stroke-dasharray:none;stroke-dashoffset:0;display:inline"
       sodipodi:type="arc" />
    <path
       transform="translate(-105,-19.739815)"
       d="m 169.17529,97.771309 c 0,1.269204 -0.93467,2.298101 -2.08764,2.298101 -1.15298,0 -2.08765,-1.028897 -2.08765,-2.298101 0,-1.269204 0.93467,-2.298097 2.08765,-2.298097 1.15297,0 2.08764,1.028893 2.08764,2.298097 z"
       sodipodi:ry="2.2980969"
       sodipodi:rx="2.0876465"
       sodipodi:cy="97.771309"
       sodipodi:cx="167.08765"
       id="path6094-21-6-6"
       style="fill:#2b0000;stroke:#000000;stroke-width:0.99212599;stroke-linecap:square;stroke-linejoin:bevel;stroke-miterlimit:4;stroke-opacity:1;stroke-dasharray:none;stroke-dashoffset:0;display:inline"
       sodipodi:type="arc" />
    <path
       transform="translate(-104.64237,0.55828214)"
       d="m 169.17529,97.771309 c 0,1.269204 -0.93467,2.298101 -2.08764,2.298101 -1.15298,0 -2.08765,-1.028897 -2.08765,-2.298101 0,-1.269204 0.93467,-2.298097 2.08765,-2.298097 1.15297,0 2.08764,1.028893 2.08764,2.298097 z"
       sodipodi:ry="2.2980969"
       sodipodi:rx="2.0876465"
       sodipodi:cy="97.771309"
       sodipodi:cx="167.08765"
       id="path6094-21-6-1"
       style="fill:#2b0000;stroke:#000000;stroke-width:0.99212599;stroke-linecap:square;stroke-linejoin:bevel;stroke-miterlimit:4;stroke-opacity:1;stroke-dasharray:none;stroke-dashoffset:0;display:inline"
       sodipodi:type="arc" />
    <path
       transform="translate(-104.46967,20.962088)"
       d="m 169.17529,97.771309 c 0,1.269204 -0.93467,2.298101 -2.08764,2.298101 -1.15298,0 -2.08765,-1.028897 -2.08765,-2.298101 0,-1.269204 0.93467,-2.298097 2.08765,-2.298097 1.15297,0 2.08764,1.028893 2.08764,2.298097 z"
       sodipodi:ry="2.2980969"
       sodipodi:rx="2.0876465"
       sodipodi:cy="97.771309"
       sodipodi:cx="167.08765"
       id="path6094-21-6-89"
       style="fill:#2b0000;stroke:#000000;stroke-width:0.99212599;stroke-linecap:square;stroke-linejoin:bevel;stroke-miterlimit:4;stroke-opacity:1;stroke-dasharray:none;stroke-dashoffset:0;display:inline"
       sodipodi:type="arc" />
    <path
       transform="translate(-104.17529,40.260185)"
       d="m 169.17529,97.771309 c 0,1.269204 -0.93467,2.298101 -2.08764,2.298101 -1.15298,0 -2.08765,-1.028897 -2.08765,-2.298101 0,-1.269204 0.93467,-2.298097 2.08765,-2.298097 1.15297,0 2.08764,1.028893 2.08764,2.298097 z"
       sodipodi:ry="2.2980969"
       sodipodi:rx="2.0876465"
       sodipodi:cy="97.771309"
       sodipodi:cx="167.08765"
       id="path6094-21-6-2"
       style="fill:#2b0000;stroke:#000000;stroke-width:0.99212599;stroke-linecap:square;stroke-linejoin:bevel;stroke-miterlimit:4;stroke-opacity:1;stroke-dasharray:none;stroke-dashoffset:0;display:inline"
       sodipodi:type="arc" />
    <path
       style="font-style:normal;font-variant:normal;font-weight:normal;font-stretch:normal;letter-spacing:normal;word-spacing:normal;text-anchor:start;fill:#000000;stroke:#000000;stroke-width:0;stroke-linecap:butt;stroke-linejoin:miter;stroke-miterlimit:10.43299961;stroke-opacity:1;stroke-dasharray:none;stroke-dashoffset:0"
       inkscape:connector-curvature="0"
       d="m 93.069,21.37049 h 1.1154 c 0.2587,0 0.3887,0 0.3887,-0.26 0,-0.143 -0.13,-0.143 -0.3497,-0.143 H 93.147 l 0.2717,-1.469 c 0.052,-0.273 0.234,-1.196 0.312,-1.352 0.117,-0.247 0.3367,-0.442 0.6084,-0.442 0.052,0 0.3887,0 0.6357,0.234 -0.5707,0.052 -0.7007,0.507 -0.7007,0.702 0,0.299 0.234,0.455 0.4797,0.455 0.3367,0 0.7137,-0.286 0.7137,-0.78 0,-0.598 -0.5967,-0.897 -1.1284,-0.897 -0.4407,0 -1.2571,0.234 -1.6458,1.521 -0.078,0.273 -0.1157,0.403 -0.4277,2.028 h -0.8944 c -0.2457,0 -0.3887,0 -0.3887,0.247 0,0.156 0.117,0.156 0.364,0.156 h 0.8541 l -0.9711,5.109 c -0.234,1.261 -0.4537,2.431 -1.1271,2.431 -0.052,0 -0.3757,0 -0.6227,-0.234 0.5967,-0.039 0.7124,-0.494 0.7124,-0.689 0,-0.299 -0.2327,-0.455 -0.4784,-0.455 -0.338,0 -0.7137,0.286 -0.7137,0.767 0,0.585 0.5707,0.897 1.1024,0.897 0.7124,0 1.2311,-0.767 1.4638,-1.248 0.4147,-0.819 0.7124,-2.392 0.7254,-2.483 z"
       id="path6287" />
    <path
       style="font-style:normal;font-variant:normal;font-weight:normal;font-stretch:normal;letter-spacing:normal;word-spacing:normal;text-anchor:start;fill:#000000;stroke:#000000;stroke-width:0;stroke-linecap:butt;stroke-linejoin:miter;stroke-miterlimit:10.43299961;stroke-opacity:1;stroke-dasharray:none;stroke-dashoffset:0"
       inkscape:connector-curvature="0"
       d="m 100.3386,29.65149 -0.001,-0.013 0,0 0,0 -10e-4,-0.013 0,0 -0.001,0 -0.001,-0.013 -0.003,0 -10e-4,0 -0.003,-0.013 -0.004,0 -0.004,-0.013 -0.004,0 -0.005,-0.013 -0.005,0 -0.007,-0.013 -0.007,-0.013 -0.008,0 -0.004,-0.013 -0.004,0 -0.005,-0.013 -0.005,0 -0.004,0 -0.005,-0.013 -0.006,0 -0.005,-0.013 -0.007,0 -0.005,-0.013 -0.007,0 -0.007,-0.013 -0.008,0 -0.007,-0.013 -0.008,-0.013 -0.008,0 -0.008,-0.013 -0.009,-0.013 -0.008,0 -0.009,-0.013 -0.009,-0.013 -0.0104,0 -0.009,-0.013 -0.0104,-0.013 c -1.6198,-1.625 -2.0345,-4.069 -2.0345,-6.058 0,-2.249 0.4927,-4.498 2.0865,-6.123 0.169,-0.143 0.169,-0.169 0.169,-0.208 0,-0.091 -0.052,-0.13 -0.13,-0.13 -0.13,0 -1.2961,0.871 -2.0605,2.522 -0.6604,1.417 -0.8164,2.86 -0.8164,3.939 0,1.014 0.1417,2.574 0.8554,4.043 0.7774,1.586 1.8915,2.431 2.0215,2.431 0.078,0 0.13,-0.039 0.13,-0.13 z"
       id="path6289" />
    <path
       style="font-style:normal;font-variant:normal;font-weight:normal;font-stretch:normal;letter-spacing:normal;word-spacing:normal;text-anchor:start;fill:#000000;stroke:#000000;stroke-width:0;stroke-linecap:butt;stroke-linejoin:miter;stroke-miterlimit:10.43299961;stroke-opacity:1;stroke-dasharray:none;stroke-dashoffset:0"
       inkscape:connector-curvature="0"
       d="m 105.4138,22.63149 0.009,-0.026 0.009,-0.039 0.0104,-0.039 0.0117,-0.052 0.0143,-0.052 0.0156,-0.052 0.0169,-0.052 0.0195,-0.065 0.0208,-0.052 0.0221,-0.065 0.0247,-0.065 0.0273,-0.065 0.0286,-0.065 0.0312,-0.065 0.0338,-0.065 0.0364,-0.065 0.0377,-0.065 0.0403,-0.052 0.0442,-0.065 0.0455,-0.065 0.0494,-0.052 0.0507,-0.052 0.0546,-0.052 0.0572,-0.039 0.0598,-0.039 0.0637,-0.039 0.0325,-0.026 0.0338,-0.013 0.0351,-0.013 0.0351,-0.013 0.0364,-0.013 0.0364,-0.013 0.0377,0 0.039,-0.013 0.039,0 0.0403,-0.013 0.0416,0 0.0416,0 c 0.065,0 0.3757,0 0.6487,0.169 -0.3627,0.065 -0.6227,0.39 -0.6227,0.702 0,0.208 0.143,0.455 0.4927,0.455 0.2847,0 0.6994,-0.234 0.6994,-0.754 0,-0.676 -0.7644,-0.858 -1.2051,-0.858 -0.7514,0 -1.2051,0.689 -1.3598,0.988 -0.325,-0.858 -1.0244,-0.988 -1.4001,-0.988 -1.3481,0 -2.0865,1.677 -2.0865,2.002 0,0.117 0.13,0.117 0.156,0.117 0.1027,0 0.1417,-0.026 0.1677,-0.13 0.4407,-1.378 1.2961,-1.703 1.7368,-1.703 0.247,0 0.6994,0.117 0.6994,0.871 0,0.403 -0.2197,1.261 -0.6994,3.081 -0.2067,0.793 -0.6604,1.339 -1.2311,1.339 -0.078,0 -0.3757,0 -0.6474,-0.169 0.3237,-0.065 0.6084,-0.338 0.6084,-0.702 0,-0.338 -0.2847,-0.442 -0.4797,-0.442 -0.3887,0 -0.7124,0.338 -0.7124,0.741 0,0.598 0.6487,0.858 1.2181,0.858 0.8554,0 1.3221,-0.91 1.3611,-0.988 0.1547,0.481 0.6214,0.988 1.3988,0.988 1.3351,0 2.0735,-1.664 2.0735,-1.989 0,-0.13 -0.1157,-0.13 -0.1547,-0.13 -0.117,0 -0.143,0.052 -0.169,0.143 -0.4277,1.378 -1.3091,1.69 -1.7238,1.69 -0.5044,0 -0.7124,-0.416 -0.7124,-0.858 0,-0.273 0.078,-0.559 0.2197,-1.131 z"
       id="path6291" />
    <path
       style="font-style:normal;font-variant:normal;font-weight:normal;font-stretch:normal;letter-spacing:normal;word-spacing:normal;text-anchor:start;fill:#000000;stroke:#000000;stroke-width:0;stroke-linecap:butt;stroke-linejoin:miter;stroke-miterlimit:10.43299961;stroke-opacity:1;stroke-dasharray:none;stroke-dashoffset:0"
       inkscape:connector-curvature="0"
       d="m 112.2336,23.30749 -10e-4,-0.091 -0.001,-0.104 -0.001,-0.104 -0.004,-0.104 -0.0104,-0.221 -0.0156,-0.221 -0.0208,-0.234 -0.0286,-0.247 -0.0351,-0.26 -0.0429,-0.26 -0.0507,-0.26 -0.0598,-0.273 -0.0702,-0.273 -0.0793,-0.273 -0.091,-0.273 -0.1014,-0.286 -0.0559,-0.13 -0.0585,-0.143 -0.0624,-0.143 -0.065,-0.13 c -0.7774,-1.599 -1.8915,-2.431 -2.0215,-2.431 -0.078,0 -0.13,0.052 -0.13,0.13 0,0.039 0,0.065 0.247,0.286 1.2701,1.287 2.0085,3.341 2.0085,6.045 0,2.21 -0.4797,4.498 -2.0865,6.123 -0.169,0.156 -0.169,0.182 -0.169,0.221 0,0.078 0.052,0.13 0.13,0.13 0.13,0 1.2961,-0.884 2.0605,-2.522 0.6604,-1.43 0.8164,-2.86 0.8164,-3.952 z"
       id="path6293" />
    <path
       style="font-style:normal;font-variant:normal;font-weight:normal;font-stretch:normal;letter-spacing:normal;word-spacing:normal;text-anchor:start;fill:#000000;stroke:#000000;stroke-width:0;stroke-linecap:butt;stroke-linejoin:miter;stroke-miterlimit:10.43299961;stroke-opacity:1;stroke-dasharray:none;stroke-dashoffset:0"
       inkscape:connector-curvature="0"
       d="m 126.0279,22.31949 0.0377,0 0.0377,0 0.0377,0 0.0195,-0.013 0.0182,0 0.0195,0 0.0182,0 0.0182,0 0.0182,0 0.0182,-0.013 0.0169,0 0.0169,0 0.0169,-0.013 0.0156,0 0.0156,-0.013 0.0143,0 0.013,-0.013 0.013,-0.013 0.013,-0.013 0.0104,-0.013 0.0104,-0.013 0.005,0 0.004,-0.013 0.005,0 0.004,-0.013 0.004,-0.013 0.003,0 0.004,-0.013 0.003,-0.013 0.003,0 10e-4,-0.013 0.003,-0.013 0.001,-0.013 0.001,-0.013 10e-4,0 0,-0.013 0,-0.013 c 0,-0.26 -0.2457,-0.26 -0.4277,-0.26 h -7.7623 c -0.1807,0 -0.4277,0 -0.4277,0.26 0,0.26 0.247,0.26 0.4407,0.26 z"
       id="path6295" />
    <path
       style="font-style:normal;font-variant:normal;font-weight:normal;font-stretch:normal;letter-spacing:normal;word-spacing:normal;text-anchor:start;fill:#000000;stroke:#000000;stroke-width:0;stroke-linecap:butt;stroke-linejoin:miter;stroke-miterlimit:10.43299961;stroke-opacity:1;stroke-dasharray:none;stroke-dashoffset:0"
       inkscape:connector-curvature="0"
       d="m 126.0409,24.82849 0.0169,0 0.0182,0 0.0351,0 0.0364,0 0.0182,-0.013 0.0195,0 0.0182,0 0.0169,0 0.0182,0 0.0182,0 0.0169,-0.013 0.0169,0 0.0169,0 0.0156,-0.013 0.0156,0 0.0156,-0.013 0.0143,0 0.013,-0.013 0.013,-0.013 0.0117,-0.013 0.0117,-0.013 0.005,0 0.005,-0.013 0.004,0 0.005,-0.013 0.004,0 0.004,-0.013 0.004,-0.013 0.003,0 0.004,-0.013 0.003,-0.013 0.003,0 0.001,-0.013 0.003,-0.013 10e-4,-0.013 0.001,-0.013 0.001,0 0,-0.013 0,-0.013 c 0,-0.26 -0.2457,-0.26 -0.4407,-0.26 h -7.7363 c -0.1937,0 -0.4407,0 -0.4407,0.26 0,0.26 0.247,0.26 0.4277,0.26 z"
       id="path6297" />
    <path
       style="font-style:normal;font-variant:normal;font-weight:normal;font-stretch:normal;letter-spacing:normal;word-spacing:normal;text-anchor:start;fill:#000000;stroke:#000000;stroke-width:0;stroke-linecap:butt;stroke-linejoin:miter;stroke-miterlimit:10.43299961;stroke-opacity:1;stroke-dasharray:none;stroke-dashoffset:0"
       inkscape:connector-curvature="0"
       d="m 137.0909,21.61749 0.003,-0.013 0.001,0 0.003,-0.013 0.003,-0.013 0.004,-0.013 0.004,-0.013 0.004,-0.013 0.003,-0.013 0.004,-0.013 0.003,-0.013 0.003,0 0.003,-0.013 0.001,-0.013 0.003,-0.013 0.001,0 10e-4,-0.013 0.003,-0.013 0.001,0 0,-0.013 0.001,0 10e-4,-0.013 0.001,-0.013 0.001,-0.013 0,-0.013 0,-0.026 0,0 0,-0.013 0.001,0 0,-0.013 c 0,-0.234 -0.182,-0.351 -0.377,-0.351 -0.1287,0 -0.3367,0.078 -0.4524,0.273 -0.026,0.065 -0.13,0.468 -0.182,0.702 -0.091,0.338 -0.182,0.676 -0.2587,1.027 l -0.5837,2.34 c -0.052,0.195 -0.6097,1.092 -1.4638,1.092 -0.6617,0 -0.8034,-0.572 -0.8034,-1.04 0,-0.598 0.2197,-1.404 0.6604,-2.535 0.2067,-0.533 0.2587,-0.676 0.2587,-0.936 0,-0.585 -0.4147,-1.066 -1.0621,-1.066 -1.2311,0 -1.7108,1.872 -1.7108,2.002 0,0.117 0.13,0.117 0.156,0.117 0.1287,0 0.1417,-0.026 0.2067,-0.234 0.3497,-1.209 0.8684,-1.599 1.3091,-1.599 0.104,0 0.3237,0 0.3237,0.416 0,0.325 -0.13,0.663 -0.2197,0.91 -0.5187,1.365 -0.7514,2.106 -0.7514,2.717 0,1.144 0.8164,1.534 1.5808,1.534 0.5044,0 0.9451,-0.221 1.3091,-0.585 -0.169,0.676 -0.325,1.313 -0.8424,2.002 -0.338,0.429 -0.8294,0.806 -1.4261,0.806 -0.1807,0 -0.7644,-0.039 -0.9854,-0.546 0.208,0 0.377,0 0.5577,-0.156 0.13,-0.104 0.26,-0.273 0.26,-0.52 0,-0.403 -0.351,-0.455 -0.4797,-0.455 -0.299,0 -0.7267,0.208 -0.7267,0.832 0,0.65 0.5707,1.131 1.3741,1.131 1.3351,0 2.6702,-1.17 3.0329,-2.639 z"
       id="path6299" />
    <path
       style="font-style:normal;font-variant:normal;font-weight:normal;font-stretch:normal;letter-spacing:normal;word-spacing:normal;text-anchor:start;fill:#000000;stroke:#000000;stroke-width:0;stroke-linecap:butt;stroke-linejoin:miter;stroke-miterlimit:10.43299961;stroke-opacity:1;stroke-dasharray:none;stroke-dashoffset:0;display:inline"
       inkscape:connector-curvature="0"
       d="m 34.826,83.590494 0.009,-0.026 0.009,-0.039 0.0104,-0.039 0.0117,-0.052 0.0143,-0.052 0.0156,-0.052 0.0169,-0.052 0.0195,-0.065 0.0208,-0.052 0.0221,-0.065 0.0247,-0.065 0.0273,-0.065 0.0286,-0.065 0.0312,-0.065 0.0338,-0.065 0.0364,-0.065 0.0377,-0.065 0.0403,-0.052 0.0442,-0.065 0.0455,-0.065 0.0494,-0.052 0.0507,-0.052 0.0546,-0.052 0.0572,-0.039 0.0598,-0.039 0.0637,-0.039 0.0325,-0.026 0.0338,-0.013 0.0351,-0.013 0.0351,-0.013 0.0364,-0.013 0.0364,-0.013 0.0377,0 0.039,-0.013 0.039,0 0.0403,-0.013 0.0416,0 0.0416,0 c 0.065,0 0.3757,0 0.6487,0.169 -0.3627,0.065 -0.6227,0.39 -0.6227,0.702 0,0.208 0.143,0.455 0.4927,0.455 0.2847,0 0.6994,-0.234 0.6994,-0.754 0,-0.676 -0.7644,-0.858 -1.2051,-0.858 -0.7514,0 -1.2051,0.689 -1.3598,0.988 -0.325,-0.858 -1.0244,-0.988 -1.4001,-0.988 -1.3481,0 -2.0865,1.677 -2.0865,2.002 0,0.117 0.13,0.117 0.156,0.117 0.1027,0 0.1417,-0.026 0.1677,-0.13 0.4407,-1.378 1.2961,-1.703 1.7368,-1.703 0.247,0 0.6994,0.117 0.6994,0.871 0,0.403 -0.2197,1.261 -0.6994,3.081 -0.2067,0.793 -0.6604,1.339 -1.2311,1.339 -0.078,0 -0.3757,0 -0.6474,-0.169 0.3237,-0.065 0.6084,-0.338 0.6084,-0.702 0,-0.338 -0.2847,-0.442 -0.4797,-0.442 -0.3887,0 -0.7124,0.338 -0.7124,0.741 0,0.598 0.6487,0.858 1.2181,0.858 0.8554,0 1.3221,-0.91 1.3611,-0.988 0.1547,0.481 0.6214,0.988 1.3988,0.988 1.3351,0 2.0735,-1.664 2.0735,-1.989 0,-0.13 -0.1157,-0.13 -0.1547,-0.13 -0.117,0 -0.143,0.052 -0.169,0.143 -0.4277,1.378 -1.3091,1.69 -1.7238,1.69 -0.5044,0 -0.7124,-0.416 -0.7124,-0.858 0,-0.273 0.078,-0.559 0.2197,-1.131 z"
       id="path6291-7" />
    <path
       style="font-style:normal;font-variant:normal;font-weight:normal;font-stretch:normal;letter-spacing:normal;word-spacing:normal;text-anchor:start;fill:#000000;stroke:#000000;stroke-width:0;stroke-linecap:butt;stroke-linejoin:miter;stroke-miterlimit:10.43299961;stroke-opacity:1;stroke-dasharray:none;stroke-dashoffset:0;display:inline"
       inkscape:connector-curvature="0"
       d="m 196.2171,81.679494 0.003,-0.013 0.001,0 0.003,-0.013 0.003,-0.013 0.004,-0.013 0.004,-0.013 0.004,-0.013 0.003,-0.013 0.004,-0.013 0.003,-0.013 0.003,0 0.003,-0.013 0.001,-0.013 0.003,-0.013 0.001,0 0.001,-0.013 0.003,-0.013 10e-4,0 0,-0.013 0.001,0 0.001,-0.013 0.001,-0.013 0.001,-0.013 0,-0.013 0,-0.026 0,0 0,-0.013 0.001,0 0,-0.013 c 0,-0.234 -0.182,-0.351 -0.377,-0.351 -0.1287,0 -0.3367,0.078 -0.4524,0.273 -0.026,0.065 -0.13,0.468 -0.182,0.702 -0.091,0.338 -0.182,0.676 -0.2587,1.027 l -0.5837,2.34 c -0.052,0.195 -0.6097,1.092 -1.4638,1.092 -0.6617,0 -0.8034,-0.572 -0.8034,-1.04 0,-0.598 0.2197,-1.404 0.6604,-2.535 0.2067,-0.533 0.2587,-0.676 0.2587,-0.936 0,-0.585 -0.4147,-1.066 -1.0621,-1.066 -1.2311,0 -1.7108,1.872 -1.7108,2.002 0,0.117 0.13,0.117 0.156,0.117 0.1287,0 0.1417,-0.026 0.2067,-0.234 0.3497,-1.209 0.8684,-1.599 1.3091,-1.599 0.104,0 0.3237,0 0.3237,0.416 0,0.325 -0.13,0.663 -0.2197,0.91 -0.5187,1.365 -0.7514,2.106 -0.7514,2.717 0,1.144 0.8164,1.534 1.5808,1.534 0.5044,0 0.9451,-0.221 1.3091,-0.585 -0.169,0.676 -0.325,1.313 -0.8424,2.002 -0.338,0.429 -0.8294,0.806 -1.4261,0.806 -0.1807,0 -0.7644,-0.039 -0.9854,-0.546 0.208,0 0.377,0 0.5577,-0.156 0.13,-0.104 0.26,-0.273 0.26,-0.52 0,-0.403 -0.351,-0.455 -0.4797,-0.455 -0.299,0 -0.7267,0.208 -0.7267,0.832 0,0.65 0.5707,1.131 1.3741,1.131 1.3351,0 2.6702,-1.17 3.0329,-2.639 z"
       id="path6299-9" />
  </g>
</svg>
